<svg xmlns="http://www.w3.org/2000/svg" width="37" height="36" viewBox="0 0 37 36">
    <g fill="none" fill-rule="evenodd">
        <g fill="#1D3461" fill-rule="nonzero">
            <g transform="translate(-1643 -13279) translate(1643 13279)">
                <path d="M25.736 0h-13.5C6.024 0 .986 5.038.986 11.25v13.5C.986 30.962 6.024 36 12.236 36h13.5c6.213 0 11.25-5.038 11.25-11.25v-13.5C36.986 5.038 31.95 0 25.736 0zm7.875 24.75c0 4.343-3.532 7.875-7.875 7.875h-13.5c-4.342 0-7.875-3.532-7.875-7.875v-13.5c0-4.343 3.533-7.875 7.875-7.875h13.5c4.343 0 7.875 3.532 7.875 7.875v13.5z"/>
                <path d="M18.986 9c-4.97 0-9 4.03-9 9s4.03 9 9 9 9-4.03 9-9-4.03-9-9-9zm0 14.625c-3.1 0-5.625-2.524-5.625-5.625 0-3.103 2.525-5.625 5.625-5.625 3.101 0 5.625 2.522 5.625 5.625 0 3.1-2.524 5.625-5.625 5.625z"/>
                <circle cx="27.986" cy="8" r="1"/>
            </g>
        </g>
    </g>
</svg>
