<svg xmlns="http://www.w3.org/2000/svg" width="34" height="28" viewBox="0 0 34 28">
    <g fill="none" fill-rule="evenodd">
        <g fill="#1D3461" fill-rule="nonzero">
            <g>
                <path d="M34 3.315c-1.264.562-2.612.935-4.016 1.115 1.445-.874 2.548-2.248 3.066-3.904-1.347.814-2.835 1.389-4.42 1.71C27.35.856 25.528 0 23.54 0c-3.86 0-6.966 3.175-6.966 7.067 0 .56.047 1.098.161 1.61-5.795-.286-10.922-3.1-14.367-7.389-.601 1.058-.954 2.268-.954 3.571 0 2.447 1.243 4.616 3.096 5.871-1.12-.021-2.218-.35-3.149-.87v.078c0 3.433 2.416 6.285 5.584 6.942-.567.157-1.185.232-1.827.232-.446 0-.897-.026-1.32-.12.903 2.798 3.466 4.854 6.513 4.921-2.371 1.88-5.382 3.013-8.642 3.013-.571 0-1.12-.025-1.668-.096C3.088 26.848 6.747 28 10.693 28 23.52 28 30.532 17.23 30.532 7.896c0-.312-.01-.614-.026-.913C31.89 5.988 33.053 4.745 34 3.315z" transform="translate(-1556 -13284) translate(1556 13284)"/>
            </g>
        </g>
    </g>
</svg>
