<svg xmlns="http://www.w3.org/2000/svg" width="142" height="162" viewBox="0 0 142 162">
    <g fill="none" fill-rule="evenodd">
        <g>
            <g>
                <path fill="#8CC27B" d="M.575 0h82.771v155.186c0 3.314-2.686 6-6 6H6.575c-3.314 0-6-2.686-6-6V0z" opacity=".1" transform="translate(-328 -1872) translate(328 1872)"/>
                <path fill="#81CFFA" fill-rule="nonzero" d="M139.39 59.602c-5.765-14.777-23.52-23.638-38.558-17.774-17.166 6.694-11.474 34.203-27.066 39.765-8.423 3.005-20.873-8.22-29.383-9.94-15.68-3.172-29.875 7.975-33.37 23.412-3.567 15.75 2.153 36.784 19.327 41.059 20.457 5.091 31.113-13.437 48.275-18.757 17.61-5.46 37.193 7.434 51.772-8.254 10.771-11.59 14.71-34.878 9.002-49.51z" transform="translate(-328 -1872) translate(328 1872)"/>
                <g fill="#000" fill-rule="nonzero">
                    <path d="M48.679 45.013c-.329 0-.657-.126-.908-.38l-1.532-1.544-1.533 1.545c-.501.506-1.314.506-1.816 0s-.502-1.326 0-1.832l2.44-2.461c.502-.506 1.315-.506 1.817 0l2.44 2.461c.502.506.502 1.326 0 1.832-.25.253-.58.379-.908.379zM27.165 131.052c-.328 0-.658-.127-.908-.38l-1.532-1.545-1.533 1.545c-.5.506-1.315.506-1.816 0-.501-.505-.501-1.326 0-1.831l2.44-2.462c.502-.505 1.316-.505 1.817 0l2.44 2.462c.502.505.502 1.326 0 1.831-.25.253-.58.38-.908.38zM93.165 5.052c-.328 0-.658-.127-.908-.38l-1.532-1.545-1.533 1.545c-.5.506-1.315.506-1.816 0-.501-.505-.501-1.326 0-1.831l2.44-2.462c.502-.505 1.316-.505 1.817 0l2.44 2.462c.502.505.502 1.326 0 1.831-.25.253-.58.38-.908.38zM6.338 90.585c-.329 0-.657-.126-.908-.38l-1.532-1.544-1.532 1.545c-.502.506-1.315.506-1.817 0-.501-.506-.501-1.326 0-1.832l2.44-2.461c.503-.506 1.316-.506 1.817 0l2.44 2.461c.502.506.502 1.326 0 1.832-.25.253-.579.38-.908.38zM79.19 110.83c-.953 0-1.907-.366-2.633-1.098-1.452-1.465-1.452-3.848 0-5.312 1.452-1.465 3.815-1.465 5.267 0 1.453 1.464 1.453 3.847 0 5.312-.725.732-1.68 1.098-2.633 1.098zm0-4.92c-.295 0-.591.114-.817.341-.45.455-.45 1.194 0 1.649.451.454 1.184.454 1.635 0 .45-.455.45-1.194 0-1.649-.225-.227-.521-.34-.817-.34zM98.62 34.04c-.954 0-1.908-.365-2.634-1.098-1.453-1.464-1.453-3.847 0-5.312 1.451-1.464 3.815-1.465 5.267 0 1.452 1.465 1.452 3.848 0 5.312-.726.733-1.68 1.099-2.633 1.099zm0-4.919c-.296 0-.593.113-.818.34-.45.455-.45 1.195 0 1.65.45.454 1.183.454 1.635 0 .45-.455.45-1.195 0-1.65-.226-.227-.522-.34-.817-.34z" transform="translate(-328 -1872) translate(328 1872) translate(21 21)"/>
                </g>
                <g fill-rule="nonzero">
                    <path fill="#8CC27B" d="M.5 24v49.748c-.003.86.34 1.688.953 2.298.613.61 1.447.953 2.316.954h67.447c.87 0 1.706-.342 2.322-.952.616-.61.962-1.438.962-2.3V24H.5z" transform="translate(-328 -1872) translate(328 1872) translate(38.5 45)"/>
                    <path fill="#77A868" d="M74.5 10.04V24H.5V10.04c0-.815.344-1.597.957-2.174s1.445-.901 2.312-.9h7.907v5.291c-.001.317.133 1.656.37 1.88.24.224.563.35.9.349h5.064c.335 0 .657-.126.893-.35.236-.224.366-1.563.362-1.879V6.965H55.72v5.292c-.003.655.557 2.224 1.253 2.229h5.078c.335-.001.657-.127.893-.351.236-.224.368-1.562.366-1.878V6.965h7.907c1.809-.001 3.278 1.375 3.283 3.076z" transform="translate(-328 -1872) translate(328 1872) translate(38.5 45)"/>
                    <path fill="#FFF" stroke="#2149FE" stroke-width="2" d="M63.697 1.672v11.44c.004.707-.587 1.283-1.32 1.289h-4.785c-.734-.006-1.324-.582-1.32-1.289V1.672c0-.702.591-1.271 1.32-1.271h4.777c.352-.002.69.131.939.37.249.238.389.563.389.9zM19.736 1.626v11.44c.004.707-.586 1.283-1.32 1.289h-4.784c-.734-.006-1.325-.582-1.32-1.288V1.627c0-.703.59-1.272 1.32-1.272h4.777c.351-.002.689.131.938.37.25.238.39.563.39.901z" transform="translate(-328 -1872) translate(328 1872) translate(38.5 45)"/>
                    <path fill="#FFF" d="M20.55 46h-7.102c-1.075-.002-1.947-.875-1.948-1.952v-7.096c.001-1.077.873-1.95 1.948-1.952h7.102c1.077.001 1.949.874 1.95 1.952v7.096c-.001 1.078-.873 1.95-1.95 1.952zm-7.102-9.86c-.447.001-.81.365-.81.813v7.096c0 .448.363.812.81.813h7.102c.448-.001.81-.365.81-.813v-7.097c0-.448-.362-.812-.81-.812h-7.102zM20.551 67H13.45c-1.076-.001-1.948-.873-1.949-1.949V57.95c.001-1.076.873-1.948 1.949-1.949h7.102c1.076.001 1.948.873 1.949 1.949v7.102C22.499 66.127 21.627 67 20.551 67zm-7.102-9.863c-.448 0-.81.363-.81.81v7.103c0 .448.362.81.81.81h7.102c.448 0 .81-.362.81-.81v-7.102c0-.448-.362-.81-.81-.81H13.45zM62.55 67h-7.102c-1.075-.001-1.947-.873-1.948-1.949V57.95c.001-1.076.873-1.948 1.948-1.949h7.102c1.076.001 1.948.873 1.95 1.949v7.102C64.498 66.127 63.626 67 62.55 67zm-7.102-9.863c-.447 0-.81.363-.81.81v7.103c0 .448.363.81.81.81h7.102c.448 0 .811-.362.812-.81v-7.102c0-.448-.364-.81-.812-.81h-7.102zM41.547 67h-7.095c-1.077-.001-1.95-.873-1.952-1.949V57.95c.002-1.076.875-1.948 1.952-1.949h7.096c1.077.001 1.95.873 1.952 1.949v7.102C43.498 66.128 42.624 67 41.547 67zm-7.096-9.863c-.448 0-.812.363-.813.81v7.103c.001.448.365.81.813.81h7.096c.448 0 .812-.362.812-.81v-7.102c0-.448-.364-.81-.812-.81H34.45zM62.55 46h-7.102c-1.075-.002-1.947-.875-1.948-1.952v-7.096c.001-1.077.873-1.95 1.948-1.952h7.102c1.077.001 1.949.874 1.95 1.952v7.096c-.001 1.078-.873 1.95-1.95 1.952zm-7.102-9.86c-.447.001-.81.365-.81.813v7.096c0 .448.363.812.81.813h7.102c.448-.001.811-.364.812-.813v-7.097c0-.448-.364-.812-.812-.812h-7.102z" transform="translate(-328 -1872) translate(328 1872) translate(38.5 45)"/>
                    <g>
                        <path fill="#FFF" d="M41.16 38.608h-7.03c-1.067 0-1.932-.869-1.934-1.94v-7.056c.002-1.071.867-1.94 1.934-1.94h7.03c1.068.001 1.932.87 1.934 1.94v7.056c-.002 1.071-.867 1.94-1.934 1.94zm-7.03-9.802c-.445 0-.805.362-.806.807v7.056c0 .446.36.807.805.808h7.03c.445-.001.805-.362.806-.808v-7.057c0-.446-.361-.807-.805-.807h-7.03z" transform="translate(-328 -1872) translate(328 1872) translate(38.5 45) translate(.5 7)"/>
                        <path fill="#2149FE" stroke="#2149FE" d="M74.437 18H.568C.254 18 0 17.747 0 17.435V3.806C.003 1.706 1.717.003 3.832 0h7.893c.313 0 .568.253.568.565v5.579c-.002.185.07.362.202.493.132.13.311.203.497.201h5.055c.184 0 .36-.073.489-.204.128-.13.198-.308.193-.49V.564c0-.311.255-.564.569-.564H55.69c.314 0 .568.253.568.565v5.579c-.003.378.302.688.682.694h5.07c.38-.006.684-.316.681-.694V.564c0-.311.255-.564.569-.564h7.892c2.12-.001 3.84 1.702 3.847 3.808v13.627c0 .31-.251.562-.563.565h0zM1 17h73V3.722C73.995 2.215 72.778.997 71.28 1h-7.35v5.098c.003 1.018-.813 1.846-1.826 1.853H57.01c-1.012-.007-1.828-.835-1.825-1.853V1H19.8v5.097c.002 1.018-.814 1.846-1.826 1.853h-5.076c-1.017-.001-1.841-.83-1.843-1.853V1h-7.35C2.211 1.003 1.001 2.221 1 3.722V17z" transform="translate(-328 -1872) translate(328 1872) translate(38.5 45) translate(.5 7)"/>
                        <path fill="#2149FE" stroke="#2149FE" d="M74.432 17c.314 0 .568.252.568.563V65h-1V18H1v49.305C.997 68.79 2.21 69.995 3.707 70H32v1H3.833C1.713 70.994-.001 69.29 0 67.193v-49.63C0 17.252.254 17 .568 17h73.864z" transform="translate(-328 -1872) translate(328 1872) translate(38.5 45) translate(.5 7)"/>
                    </g>
                </g>
            </g>
        </g>
    </g>
</svg>
