<?xml version="1.0" encoding="UTF-8"?>
<svg width="116px" height="105px" viewBox="0 0 116 105" version="1.1" xmlns="http://www.w3.org/2000/svg" xmlns:xlink="http://www.w3.org/1999/xlink">
    <title>Group 40</title>
    <g id="UI" stroke="none" stroke-width="1" fill="none" fill-rule="evenodd">
        <g id="Quicki_Landingpage_Product_1" transform="translate(-796.000000, -1904.000000)" fill-rule="nonzero">
            <g id="Group-40" transform="translate(796.682403, 1904.000000)">
                <path d="M115,53 C115,46.8010734 112.191484,40.9895938 107.285342,35.9862113 C103.871504,32.5047976 101.029072,28.5165844 98.8595703,24.151693 C91.9216113,10.1935077 80.0925586,1 66.6649609,1 C57.1228809,1 48.3887207,5.64353018 41.6428027,13.3397474 C37.1775684,18.4339903 31.5396484,22.3416629 25.2492383,24.8646671 C10.0119629,30.9763228 0,41.2965002 0,53 C0,64.7034998 10.0119629,75.0236772 25.2492383,81.1353329 C31.5396484,83.6585614 37.1775684,87.5660097 41.6430273,92.6602526 C48.3889453,100.35647 57.1231055,105 66.6651855,105 C80.0927832,105 91.9218359,95.8064923 98.8597949,81.848307 C101.029297,77.4834156 103.871729,73.4952024 107.285566,70.0137887 C112.191484,65.0104062 115,59.1989266 115,53 Z" id="Path" fill="#81CFFA"></path>
                <g id="order-tracking" transform="translate(14.317597, 8.000000)">
                    <circle id="Oval" fill="#77A868" cx="33" cy="33" r="32"></circle>
                    <circle id="Oval" fill="#FFFFFF" cx="32.5" cy="32.5" r="23.5"></circle>
                    <path d="M33,17 C28.5818302,17 25.000196,20.7108921 25.000196,25.2885094 C24.954259,33.1962608 33,43 33,43 C33,43 41.045741,33.1931399 40.999804,25.2885094 C40.999804,20.7108921 37.4181698,17 33,17 Z M33,28.2050536 C31.4453433,28.2050536 30.1850449,26.8992723 30.1850449,25.2885094 C30.1850449,23.6777466 31.4453433,22.3719653 33,22.3719653 C34.5546567,22.3719653 35.8149567,23.6777466 35.8149567,25.2885094 C35.8157547,26.0624939 35.5195089,26.8050503 34.991494,27.3525597 C34.4634792,27.9000692 33.7470254,28.2076018 33,28.2073944 L33,28.2050536 Z" id="Shape" fill="#2149FE"></path>
                    <path d="M36.5221797,37.9609567 C35.449367,39.6701299 34.2723739,41.3106979 32.9979708,42.8732239 C31.7235677,41.3106979 30.5465746,39.6701299 29.4737619,37.9609567 C23.7272518,38.5445542 19.4983546,40.5226016 19.4983546,42.8732239 C19.4983546,45.6829943 25.5427068,47.9609567 32.9987384,47.9609567 C40.45477,47.9609567 46.4983546,45.6845403 46.4983546,42.8732239 C46.4983546,40.5226016 42.2686898,38.5445542 36.5221797,37.9609567 L36.5221797,37.9609567 Z" id="Path" fill="#8CC27B"></path>
                    <path d="M89.8283432,79.3410289 L60.4873143,50 L60.457208,50.0308986 C57.8333343,54.2646793 54.2646793,57.8333343 50.0308986,60.457208 L50,60.4873143 L79.3410289,89.8283432 C82.237207,92.7238856 86.9321652,92.7238856 89.8283432,89.8283432 C92.7238856,86.9321652 92.7238856,82.237207 89.8283432,79.3410289 Z" id="Path" fill="#8CC27B"></path>
                    <g id="Group" fill="#2149FE">
                        <path d="M15.7943697,15.7943697 C7.41994279,24.1668716 6.12606905,37.289116 12.7040413,47.1359478 C19.2820136,56.9827795 31.8997403,60.811667 42.8406136,56.280982 C53.7814869,51.7502971 59.9982636,40.1219226 57.688957,28.5074093 C55.3796504,16.8928961 45.1874468,8.52710908 33.3455798,8.52620572 C26.7593145,8.50786087 20.4393773,11.1249869 15.7943697,15.7943697 L15.7943697,15.7943697 Z M55.431989,33.3455798 C55.431989,43.8824225 47.9894893,52.9522172 37.6551826,55.0082225 C27.3208758,57.0642277 16.9733473,51.533815 12.9407518,41.7991744 C8.90815639,32.0645338 12.3136328,20.8369098 21.0745212,14.9826901 C29.8354095,9.12847037 41.5116702,10.2781436 48.9625462,17.7286134 C53.1182956,21.8612559 55.4478609,27.4848007 55.431989,33.3455798 L55.431989,33.3455798 Z" id="Shape"></path>
                        <path d="M90.4116303,78.1332857 L62.2146555,49.9386555 C71.2208754,34.2402684 66.0539561,14.2233997 50.5748067,4.84537815 C49.9344102,4.5032978 49.1383226,4.72123196 48.7614558,5.34179475 C48.3845891,5.96235755 48.5583015,6.7692496 49.1571429,7.1797563 C63.0442912,15.5708446 67.9548541,33.350607 60.3427128,47.6795482 C52.7305716,62.0084894 35.2488095,67.8924991 20.5217234,61.0824927 C5.79463738,54.2724863 -1.04489551,37.1419764 4.94223179,22.0616065 C10.9293591,6.98123656 27.6564345,-0.792985286 43.0441513,4.35302521 C43.5076358,4.5077062 44.0184345,4.40337126 44.3841345,4.07932236 C44.7498344,3.75527346 44.9148771,3.26074133 44.8170925,2.78201144 C44.7193078,2.30328154 44.3735518,1.91308435 43.9100672,1.75840336 C29.3908016,-3.08776685 13.4379866,2.5905945 5.24614584,15.5207216 C-2.94569488,28.4508487 -1.2654716,45.3005651 9.31840649,56.3584115 C19.9022846,67.4162578 36.6622845,69.8325563 49.9386555,62.2146555 L58.5352941,70.8112941 C59.069205,71.3452049 59.9348454,71.3452049 60.4687562,70.8112941 C61.0026671,70.2773832 61.0026671,69.4117428 60.4687563,68.8778319 L52.3035126,60.7141513 C55.5953418,58.4455717 58.4455717,55.5953418 60.7141513,52.3035126 L88.4781681,80.0667479 C89.980584,81.5693034 90.5672697,83.7592513 90.0172265,85.8116594 C89.4671832,87.8640675 87.8639755,89.4671262 85.8115163,90.0169787 C83.7590571,90.5668313 81.5691638,89.9799421 80.0667479,88.4773866 L72.2852269,80.6966471 C71.7513161,80.1627362 70.8856755,80.1627362 70.3517647,80.6966471 C69.8178539,81.2305579 69.8178539,82.0961984 70.3517647,82.6301092 L78.1332857,90.4116303 C80.3266007,92.6049454 83.523427,93.4615325 86.5195511,92.6587235 C89.5156752,91.8559145 91.8559145,89.5156752 92.6587235,86.5195511 C93.4615325,83.523427 92.6049454,80.3266007 90.4116303,78.1332857 L90.4116303,78.1332857 Z" id="Path"></path>
                    </g>
                </g>
                <path d="M35.999975,4 C35.7441686,4 35.4879622,3.90239512 35.2929573,3.70718536 C34.9023476,3.31656583 34.9023476,2.68333417 35.2929573,2.29291465 L37.2930073,0.292814641 C37.6832171,-0.0976048802 38.3168329,-0.0976048802 38.7070427,0.292814641 C39.0976524,0.683434172 39.0976524,1.31666583 38.7070427,1.70708535 L36.7069927,3.70718536 C36.5119878,3.90239512 36.2557814,4 35.999975,4 Z" id="Path" fill="#000000"></path>
                <path d="M100.999975,64 C100.744169,64 100.487962,63.9023951 100.292957,63.7071854 C99.9023476,63.3165658 99.9023476,62.6833342 100.292957,62.2929146 L102.293007,60.2928146 C102.683217,59.9023951 103.316833,59.9023951 103.707043,60.2928146 C104.097652,60.6834342 104.097652,61.3166658 103.707043,61.7070854 L101.706993,63.7071854 C101.511788,63.9021951 101.255781,64 100.999975,64 L100.999975,64 Z" id="Path" fill="#000000"></path>
                <path d="M46.1509688,96 C45.8525305,96 45.5536255,95.9023951 45.3261217,95.7071854 L43.8175966,94.4143207 L42.3090714,95.7071854 C41.8538305,96.0976049 41.1146182,96.0976049 40.6593773,95.7071854 C40.2036697,95.3165658 40.2036697,94.6833342 40.6593773,94.2929146 L42.9927495,92.2928146 C43.4479904,91.9023951 44.1872027,91.9023951 44.6424436,92.2928146 L46.9758159,94.2929146 C47.4315235,94.6835342 47.4315235,95.3167658 46.9758159,95.7071854 C46.7483121,95.9023951 46.4496404,96 46.1509688,96 Z" id="Path" fill="#000000"></path>
                <path d="M90.8333722,4 C90.5349339,4 90.2360289,3.90239512 90.0085251,3.70718536 L88.5,2.41432072 L86.9914749,3.70718536 C86.5362339,4.09760488 85.7970216,4.09760488 85.3417807,3.70718536 C84.8860731,3.31656583 84.8860731,2.68333417 85.3417807,2.29291465 L87.6751529,0.292814641 C88.1303938,-0.0976048802 88.8696062,-0.0976048802 89.3248471,0.292814641 L91.6582193,2.29291465 C92.1139269,2.68353418 92.1139269,3.31676584 91.6582193,3.70718536 C91.4304822,3.90239512 91.1318105,4 90.8333722,4 Z" id="Path" fill="#000000"></path>
            </g>
        </g>
    </g>
</svg>