<svg xmlns="http://www.w3.org/2000/svg" width="139" height="162" viewBox="0 0 139 162">
    <g fill="none" fill-rule="evenodd">
        <g>
            <g>
                <path fill="#8CC27B" d="M0 0h82.772v155.186c0 3.314-2.687 6-6 6H6c-3.314 0-6-2.686-6-6V0z" opacity=".1" transform="translate(-1246 -1872) translate(1246 1872)"/>
                <path fill="#81CFFA" fill-rule="nonzero" d="M108.84 73.255c.231-1.705.344-3.446.33-5.217C109.02 48.263 92.928 32.126 73.235 32c-20.084-.127-36.406 16.184-36.406 36.323 0 1.673.113 3.319.331 4.931.885 6.535-2.163 12.992-7.703 16.533C21.666 94.767 17 101.108 17 108.015 17 124.023 42.072 137 73 137s56-12.977 56-28.985c0-6.907-4.667-13.249-12.457-18.228-5.54-3.541-8.587-9.998-7.702-16.532z" transform="translate(-1246 -1872) translate(1246 1872) rotate(105 73 84.5)"/>
                <g>
                    <path fill="#77A868" d="M2.5 76.5L38.791 75.976 38.273 66.929 35.296 60.988 28 57.973 25.567 57.19 28.52 52.886 28.52 42.375 28.52 36.213 17.229 36.911 13.865 39.484 12.772 46.594 13.865 53.479 15.976 57.19 12.357 58.55 7.885 60 3.94 63.388 2.5 69z" transform="translate(-1246 -1872) translate(1246 1872) translate(34 48)"/>
                    <path fill="#2149FE" fill-rule="nonzero" d="M27.813 55.465c-.108-.03-.22-.048-.332-.053 1.647-1.708 2.66-4.015 2.66-6.553v-7.803c0-.072-.006-.141-.016-.21.01-.14.017-.282.017-.426v-4.937c0-.819-.673-1.483-1.503-1.483H18.557c-4.245 0-7.699 3.408-7.699 7.598v7.261c0 2.538 1.014 4.845 2.66 6.553-.111.005-.222.023-.33.053C6.083 56.1.5 62.008.5 69.18v6.337C.5 76.336 1.173 77 2.003 77h36.994c.83 0 1.503-.664 1.503-1.483V69.18c0-7.172-5.584-13.08-12.687-13.715zM13.864 43.48v-1.881c0-2.554 2.106-4.632 4.693-4.632h8.579v3.454c0 1.74-1.434 3.154-3.196 3.154H13.864v-.095zm0 3.061H23.94c1.168 0 2.262-.32 3.196-.877v3.196c0 3.61-2.977 6.549-6.636 6.549-3.659 0-6.636-2.938-6.636-6.549V46.54zm9.907 11.834l-3.27 3.229-3.272-3.229h6.542zm13.723 15.66H3.506v-2.967h6.238c.83 0 1.503-.664 1.503-1.483 0-.82-.673-1.484-1.503-1.484H3.56c.505-5 4.48-9.005 9.507-9.636l6.37 6.285c.281.278.663.434 1.062.434s.781-.156 1.063-.434l6.369-6.285c5.384.675 9.562 5.222 9.562 10.716v4.853z" transform="translate(-1246 -1872) translate(1246 1872) translate(34 48)"/>
                    <path fill="#8CC27B" d="M38.5 41.5l36.291-.524-.518-9.047-2.977-5.94L64 22.972l-2.433-.783 2.953-4.304V7.376c3.609.966 5.413.966 5.413 0 0-.967-.368-3.01-1.104-6.127l-15.6.662-3.364 2.573-1.093 7.11 1.093 6.885 2.11 3.71-3.618 1.361L43.885 25l-3.945 3.388L38.5 34v7.5z" transform="translate(-1246 -1872) translate(1246 1872) translate(34 48)"/>
                    <path fill="#2149FE" fill-rule="nonzero" d="M63.814 21.465c-.109-.03-.22-.047-.333-.053.807-.836 1.811-2.64 2.27-4.519.477-1.959.39-6.951.39-8.246h3.516c.871 0 1.577-.707 1.577-1.578 0-.074-.005-.149-.015-.223.01-.14.016-.282.016-.426V1.483C71.235.664 70.562 0 69.732 0H54.557c-4.245 0-7.699 3.408-7.699 7.598v7.261c0 2.538 1.014 4.845 2.66 6.553-.111.005-.223.023-.332.053C42.084 22.1 36.5 28.008 36.5 35.18v6.337c0 .819.673 1.483 1.503 1.483h12.093c.83 0 1.504-.664 1.504-1.483 0-.82-.673-1.484-1.504-1.484h-10.59V35.18c0-5.494 4.178-10.04 9.562-10.716l6.37 6.285c.293.29.677.435 1.062.435.384 0 .77-.145 1.063-.435l6.368-6.285c5.385.676 9.563 5.222 9.563 10.716v4.853H62.422c-.83 0-1.504.665-1.504 1.484S61.591 43 62.422 43h12.575c.83 0 1.503-.664 1.503-1.483V35.18c0-7.172-5.584-13.08-12.686-13.715zM56.5 27.603l-3.271-3.229h6.543L56.5 27.603zm0-6.195c-3.659 0-6.635-2.938-6.635-6.548v-4.857H63.136v4.856c0 3.611-2.977 6.549-6.636 6.549zM68.23 7.056H49.864V6.96c.36-2.295 2.335-3.988 4.658-3.994H68.229v4.089z" transform="translate(-1246 -1872) translate(1246 1872) translate(34 48)"/>
                </g>
                <path fill="#000" fill-rule="nonzero" d="M113 77c-.256 0-.512-.098-.707-.293-.39-.39-.39-1.024 0-1.414l2-2c.39-.39 1.024-.39 1.414 0 .39.39.39 1.024 0 1.414l-2 2c-.195.195-.451.293-.707.293zM29 105c-.256 0-.512-.098-.707-.293-.39-.39-.39-1.024 0-1.414l2-2c.39-.39 1.024-.39 1.414 0 .39.39.39 1.024 0 1.414l-2 2c-.195.195-.451.293-.707.293zM38.833 69c-.298 0-.597-.098-.824-.293L36.5 67.414l-1.509 1.293c-.455.39-1.194.39-1.65 0-.455-.39-.455-1.024 0-1.414l2.334-2c.455-.39 1.195-.39 1.65 0l2.333 2c.456.39.456 1.024 0 1.414-.227.195-.526.293-.825.293zM109.833 39c-.298 0-.597-.098-.824-.293l-1.509-1.293-1.509 1.293c-.455.39-1.194.39-1.65 0-.455-.39-.455-1.024 0-1.414l2.334-2c.455-.39 1.195-.39 1.65 0l2.333 2c.456.39.456 1.024 0 1.414-.228.195-.526.293-.825.293zM116.833 117c-.298 0-.597-.098-.824-.293l-1.509-1.293-1.509 1.293c-.455.39-1.194.39-1.65 0-.455-.39-.455-1.024 0-1.414l2.334-2c.455-.39 1.195-.39 1.65 0l2.333 2c.456.39.456 1.024 0 1.414-.228.195-.526.293-.825.293z" transform="translate(-1246 -1872) translate(1246 1872)"/>
                <path fill="#000" fill-rule="nonzero" d="M116.833 117c-.298 0-.597-.098-.824-.293l-1.509-1.293-1.509 1.293c-.455.39-1.194.39-1.65 0-.455-.39-.455-1.024 0-1.414l2.334-2c.455-.39 1.195-.39 1.65 0l2.333 2c.456.39.456 1.024 0 1.414-.228.195-.526.293-.825.293z" transform="translate(-1246 -1872) translate(1246 1872)"/>
                <path fill="#000" fill-rule="nonzero" d="M52.833 29c-.298 0-.597-.098-.824-.293L50.5 27.414l-1.509 1.293c-.455.39-1.194.39-1.65 0-.455-.39-.455-1.024 0-1.414l2.334-2c.455-.39 1.195-.39 1.65 0l2.333 2c.456.39.456 1.024 0 1.414-.228.195-.526.293-.825.293z" transform="translate(-1246 -1872) translate(1246 1872) matrix(1 0 0 -1 0 54)"/>
            </g>
        </g>
    </g>
</svg>
