<svg xmlns="http://www.w3.org/2000/svg" width="205" height="69" viewBox="0 0 205 69">
    <g fill="none" fill-rule="evenodd">
        <g fill-rule="nonzero">
            <g>
                <path fill="#FFF" d="M9.117 0h187.426c4.572 0 8.287 3.712 8.287 8.28v52.44c0 4.568-3.715 8.28-8.287 8.28H9.117C4.545 69 .83 65.288.83 60.72V8.28C.83 3.712 4.545 0 9.117 0z" transform="translate(-272 -11271) translate(272 11271)"/>
                <g fill="#000">
                    <path d="M26.695 20.711c-.041-4.923 4.06-7.316 4.24-7.426-2.328-3.356-5.93-3.823-7.19-3.865-3.02-.316-5.957 1.802-7.495 1.802-1.565 0-3.948-1.76-6.496-1.719-3.284.055-6.373 1.94-8.049 4.882C-1.772 20.368.82 29.17 4.157 34.01c1.676 2.365 3.616 5.02 6.178 4.923 2.494-.096 3.436-1.581 6.442-1.581 2.992 0 3.865 1.581 6.469 1.526 2.687-.04 4.364-2.379 5.984-4.772 1.926-2.709 2.702-5.39 2.73-5.528-.07-.028-5.21-1.98-5.265-7.867M21.778 6.244C23.12 4.58 24.036 2.31 23.786 0c-1.94.083-4.377 1.334-5.776 2.97-1.233 1.445-2.341 3.796-2.064 6.01 2.188.165 4.433-1.1 5.832-2.736" transform="translate(-272 -11271) translate(272 11271) translate(18.83 12)"/>
                </g>
                <g fill="#000">
                    <path d="M17.219 20.901h-3.474l-1.902-6.047H5.226L3.42 20.901H.043L6.59.321h4.052l6.576 20.58zm-5.942-8.583L9.554 6.954c-.179-.557-.524-1.84-1.02-3.873h-.069c-.207.877-.524 2.173-.965 3.873l-1.695 5.364h5.472zM34.05 13.307c0 2.522-.675 4.515-2.04 5.978-1.213 1.31-2.73 1.95-4.521 1.95-1.944 0-3.336-.696-4.191-2.103v7.788h-3.267V10.94c0-1.589-.041-3.205-.124-4.877h2.867l.18 2.355h.054c1.09-1.77 2.744-2.661 4.95-2.661 1.736 0 3.17.696 4.328 2.076 1.185 1.393 1.764 3.204 1.764 5.475zm-3.322.112c0-1.45-.317-2.633-.965-3.567-.703-.975-1.654-1.463-2.84-1.463-.8 0-1.53.279-2.191.808-.648.544-1.09 1.24-1.282 2.118-.097.404-.152.738-.152 1.003v2.48c0 1.073.33 1.993.979 2.731.648.739 1.502 1.115 2.55 1.115 1.227 0 2.178-.488 2.867-1.435.69-.962 1.034-2.216 1.034-3.79zM50.923 13.307c0 2.522-.675 4.515-2.04 5.978-1.213 1.31-2.73 1.95-4.522 1.95-1.943 0-3.335-.696-4.19-2.103v7.788h-3.267V10.94c0-1.589-.042-3.205-.124-4.877h2.867l.18 2.355h.054c1.09-1.77 2.744-2.661 4.95-2.661 1.736 0 3.17.696 4.328 2.076 1.185 1.393 1.764 3.204 1.764 5.475zm-3.322.112c0-1.45-.317-2.633-.965-3.567-.703-.975-1.654-1.463-2.84-1.463-.8 0-1.53.279-2.192.808-.647.544-1.075 1.24-1.282 2.118-.096.404-.151.738-.151 1.003v2.48c0 1.073.33 1.993.979 2.731.647.739 1.502 1.115 2.55 1.115 1.227 0 2.192-.488 2.867-1.435.703-.962 1.034-2.216 1.034-3.79zM69.809 15.133c0 1.755-.607 3.176-1.806 4.277-1.324 1.198-3.17 1.798-5.542 1.798-2.192 0-3.942-.432-5.266-1.282l.759-2.745c1.433.85 3.005 1.282 4.714 1.282 1.227 0 2.192-.279 2.867-.836.69-.558 1.034-1.31 1.034-2.244 0-.836-.29-1.532-.84-2.103-.566-.572-1.503-1.101-2.813-1.589-3.598-1.351-5.376-3.316-5.376-5.894 0-1.685.634-3.065 1.889-4.152C60.683.573 62.35.03 64.432.03c1.848 0 3.392.32 4.618.975l-.827 2.676c-1.158-.627-2.453-.948-3.915-.948-1.144 0-2.054.293-2.701.85-.538.516-.814 1.129-.814 1.867 0 .808.317 1.491.938 2.007.537.487 1.53 1.017 2.963 1.588 1.751.71 3.033 1.546 3.86 2.508.841.961 1.255 2.16 1.255 3.58M80.616 8.542h-3.598v7.204c0 1.825.634 2.745 1.903 2.745.579 0 1.061-.056 1.447-.154l.096 2.508c-.647.237-1.488.363-2.536.363-1.296 0-2.288-.405-3.019-1.199-.73-.794-1.089-2.131-1.089-3.999V8.528h-2.137V6.062h2.137V3.345l3.198-.975v3.692h3.598v2.48M96.8 13.363c0 2.285-.648 4.152-1.93 5.615-1.351 1.505-3.143 2.257-5.376 2.257-2.15 0-3.874-.724-5.156-2.16-1.282-1.434-1.916-3.26-1.916-5.461 0-2.299.662-4.18 1.971-5.643 1.324-1.463 3.102-2.201 5.335-2.201 2.15 0 3.887.724 5.197 2.173 1.254 1.393 1.875 3.205 1.875 5.42zm-3.378.07c0-1.366-.29-2.522-.868-3.497-.69-1.185-1.668-1.77-2.936-1.77-1.31 0-2.316.585-2.992 1.77-.592.975-.868 2.16-.868 3.567 0 1.365.29 2.535.868 3.497.703 1.184 1.696 1.77 2.964 1.77 1.24 0 2.22-.6 2.936-1.798.593-1.003.896-2.174.896-3.54zM107.414 8.96c-.317-.055-.662-.083-1.034-.083-1.144 0-2.04.432-2.66 1.31-.538.766-.814 1.755-.814 2.925v7.789H99.64V10.73c0-1.714-.027-3.274-.096-4.668h2.84l.124 2.843h.096c.345-.976.882-1.77 1.627-2.355.73-.53 1.516-.794 2.357-.794.303 0 .579.028.813.055l.014 3.15M121.999 12.778c0 .585-.042 1.087-.124 1.49h-9.788c.042 1.464.51 2.592 1.42 3.359.827.682 1.889 1.03 3.198 1.03 1.448 0 2.771-.236 3.957-.696l.51 2.285c-1.393.613-3.033.92-4.922.92-2.274 0-4.066-.683-5.362-2.034-1.296-1.352-1.944-3.177-1.944-5.448 0-2.23.607-4.097 1.82-5.588 1.268-1.588 2.978-2.382 5.128-2.382 2.11 0 3.722.794 4.797 2.382.869 1.282 1.31 2.829 1.31 4.682zm-3.116-.85c.028-.975-.193-1.825-.634-2.536-.565-.92-1.433-1.38-2.591-1.38-1.062 0-1.93.447-2.592 1.338-.538.711-.868 1.575-.965 2.564l6.782.014z" transform="translate(-272 -11271) translate(272 11271) translate(64.83 30)"/>
                </g>
                <g fill="#000">
                    <path d="M8.448 10.792H6.742l-.935-3.005H2.56l-.894 3.005H.015L3.22.552h1.981l3.247 10.24zm-2.93-4.274l-.84-2.68c-.082-.268-.247-.917-.508-1.933h-.028c-.11.438-.247 1.072-.481 1.933l-.826 2.68h2.683zM16.482 3.4l-2.724 7.392h-1.554L9.562 3.4h1.72l1.225 3.907c.206.649.385 1.27.522 1.862h.042c.123-.536.302-1.157.522-1.862L14.804 3.4h1.678M22.288 10.792l-.124-.847h-.041c-.496.677-1.197 1.016-2.105 1.016-1.293 0-2.201-.93-2.201-2.172 0-1.82 1.54-2.765 4.21-2.765v-.14c0-.974-.51-1.454-1.5-1.454-.715 0-1.335.184-1.885.55l-.33-1.072c.66-.423 1.5-.634 2.476-.634 1.885 0 2.834 1.015 2.834 3.06v2.723c0 .747.028 1.326.11 1.763l-1.444-.028zm-.22-3.682c-1.775 0-2.67.438-2.67 1.495 0 .776.455 1.157 1.101 1.157.812 0 1.569-.635 1.569-1.51V7.11zM27.185 2.188c-.536 0-.949-.424-.949-.988 0-.564.427-.973.977-.973s.99.409.977.973c0 .593-.413.988-1.005.988zm-.77 1.213h1.596v7.377h-1.596V3.4zM30.859.015L32.454.015 32.454 10.778 30.859 10.778zM39.25 10.792l-.123-.847h-.042c-.495.677-1.197 1.016-2.105 1.016-1.293 0-2.2-.93-2.2-2.172 0-1.82 1.54-2.765 4.209-2.765v-.14c0-.974-.509-1.454-1.5-1.454-.715 0-1.334.184-1.884.55l-.33-1.086c.66-.423 1.5-.634 2.476-.634 1.885 0 2.834 1.015 2.834 3.06v2.723c0 .747.027 1.326.096 1.763h-1.43v-.014zm-.22-3.682c-1.774 0-2.669.438-2.669 1.495 0 .776.454 1.157 1.101 1.157.812 0 1.568-.635 1.568-1.51V7.11zM47.078 10.961c-1.018 0-1.774-.437-2.27-1.312h-.027l-.097 1.143h-1.361c.04-.593.055-1.256.055-1.99V.016h1.61v4.472h.027c.481-.818 1.238-1.227 2.297-1.227 1.733 0 2.944 1.523 2.944 3.737 0 2.285-1.348 3.964-3.178 3.964zm-.33-6.418c-.922 0-1.76.818-1.76 1.96v1.298c0 1.016.756 1.848 1.733 1.848 1.196 0 1.912-1.001 1.912-2.595 0-1.495-.743-2.51-1.885-2.51zM52.622.015L54.218.015 54.218 10.778 52.622 10.778zM62.926 7.491h-4.8c.027 1.397.935 2.186 2.27 2.186.715 0 1.361-.127 1.939-.352l.248 1.142c-.675.31-1.472.452-2.408.452-2.256 0-3.59-1.453-3.59-3.724 0-2.257 1.361-3.964 3.411-3.964 1.83 0 3 1.397 3 3.513 0 .296-.015.55-.07.747zm-1.458-1.17c0-1.143-.564-1.947-1.582-1.947-.922 0-1.637.818-1.747 1.946h3.33zM72.625 10.961c-2.105 0-3.467-1.608-3.467-3.794 0-2.285 1.39-3.907 3.591-3.907 2.077 0 3.467 1.537 3.467 3.78 0 2.299-1.43 3.921-3.59 3.921zm.069-6.502c-1.156 0-1.898 1.114-1.898 2.651 0 1.524.756 2.624 1.884 2.624s1.885-1.185 1.885-2.666c-.014-1.495-.743-2.61-1.871-2.61zM84.814 10.792h-1.596V6.546c0-1.312-.495-1.96-1.458-1.96-.95 0-1.596.832-1.596 1.805v4.387h-1.596V5.516c0-.648-.013-1.354-.055-2.115h1.404l.068 1.142h.042c.426-.79 1.307-1.298 2.283-1.298 1.514 0 2.504 1.185 2.504 3.118v4.429M95.283 4.642h-1.76v3.583c0 .916.316 1.368.935 1.368.275 0 .523-.028.715-.07l.041 1.24c-.316.127-.729.184-1.238.184-1.265 0-2.008-.72-2.008-2.581V4.642h-1.046V3.415h1.046V2.06l1.568-.494v1.834h1.761v1.24M103.758 10.792h-1.596V6.574c0-1.326-.495-1.989-1.458-1.989-.826 0-1.596.579-1.596 1.75v4.443h-1.596V.015h1.596v4.43h.027c.51-.805 1.225-1.2 2.16-1.2 1.527 0 2.463 1.214 2.463 3.146v4.4M111.93 7.491h-4.802c.028 1.397.936 2.186 2.27 2.186.715 0 1.362-.127 1.94-.352l.247 1.142c-.674.31-1.472.452-2.407.452-2.256 0-3.59-1.453-3.59-3.724 0-2.257 1.361-3.964 3.411-3.964 1.83 0 3 1.397 3 3.513 0 .296-.015.55-.07.747zm-1.459-1.17c0-1.143-.564-1.947-1.582-1.947-.922 0-1.65.818-1.747 1.946h3.33z" transform="translate(-272 -11271) translate(272 11271) translate(65.83 13)"/>
                </g>
            </g>
        </g>
    </g>
</svg>
