<svg xmlns="http://www.w3.org/2000/svg" xmlns:xlink="http://www.w3.org/1999/xlink" width="700" height="359" viewBox="0 0 700 359">
    <defs>
        <path id="r9bnx780la" d="M0 38.487C0 59.743 37.5 107 37.5 107S75 59.743 75 38.487C75 17.231 58.21 0 37.5 0S0 17.231 0 38.487m19.972-.391c0-9.936 7.847-17.99 17.528-17.99 9.68 0 17.528 8.054 17.528 17.99 0 9.935-7.848 17.99-17.528 17.99-9.681 0-17.528-8.055-17.528-17.99"/>
        <path id="6oy6rxnu5c" d="M0.863 0.72L75.94 0.72 75.94 75.339 0.863 75.339z"/>
        <path id="1bihxwlxfe" d="M0.868 0.72L75.946 0.72 75.946 75.339 0.868 75.339z"/>
        <path id="qazq9hswvg" d="M0 0.087L93.739 0.087 93.739 45.961 0 45.961z"/>
    </defs>
    <g fill="none" fill-rule="evenodd">
        <g>
            <g>
                <path fill="#81CFFA" d="M700 332H14c2.779-5.322 4.92-9.222 6.423-11.702.494-.792.989-1.584 1.483-2.341 2.502-3.96 5.252-7.853 8.248-11.676 3.615-4.65 7.569-9.23 11.832-13.638.958-.999 1.915-1.964 2.873-2.927.216-.207.433-.414.649-.655.556-.516 1.112-1.068 1.668-1.584 2.348-2.274 4.634-4.41 6.89-6.474 1.142-1.035 2.255-2.033 3.366-3.032 2.194-1.963 4.326-3.892 6.364-5.752 6.271-5.75 11.832-11.157 16.219-17.253 1.514-2.067 2.873-4.236 4.078-6.476 2.193-4.098 3.892-8.54 5.005-13.57.247-1.272.494-2.583.68-3.924.555-3.651.833-7.612.74-11.952-.03-3.409-.278-44.33-.74-48.256-.093-.826-.217-1.687-.34-2.583-.65-4.855-1.638-10.125-2.966-15.876-.37-1.618-.773-3.271-1.205-4.96-.742-2.927-1.329-5.82-1.792-8.643-.896-5.477-1.267-10.746-1.205-15.878.031-4.648.433-9.16 1.205-13.5v-.07c.68-4.131 1.668-8.127 2.873-11.985 14.797-46.907 65.153-74.631 78.529-80.83C183.937 7.61 206.521 2.652 229.968.828c1.915-.139 3.83-.276 5.746-.38C241.12.138 246.588 0 252.025 0c2.225 0 4.418.035 6.611.07 3.677.102 7.322.24 10.998.482 3.398.206 6.766.447 10.133.757 13.964 1.31 27.587 3.513 40.253 6.476 11.523 2.685 21.903 6.06 31.356 9.952l.031.035c22.305 9.195 39.172 21.215 52.641 33.717 3.12 2.892 6.086 5.82 8.866 8.748.371.378.773.792 1.144 1.204.864.896 1.698 1.791 2.532 2.722.371.412.773.826 1.144 1.24 2.44 2.72 4.788 5.44 7.012 8.093 1.113 1.342 2.224 2.686 3.306 3.995 5.87 7.232 11.06 13.982 16.002 19.802.618.759 1.236 1.447 1.854 2.17 8.495 9.644 16.373 16.187 26.011 16.91 6.055.448 13.13-.69 21.069-2.411.803-.171 1.576-.343 2.38-.55 12.201-2.72 26.412-6.578 42.198-8.196 20.39-2.102 43.466-.45 68.366 12.156.803.414 1.575.828 2.379 1.24 3.645 1.964 7.321 4.133 11.029 6.578.771.483 1.544 1 2.316 1.515 3.77 2.583 7.6 5.442 11.461 8.61.093.07.186.138.278.243 1.669 1.342 3.337 2.788 5.005 4.27 1.946 1.721 3.923 3.512 5.9 5.406 4.758 4.58 16.386 12.865 31.09 55.45 9.804 28.39 18.007 72.162 24.61 131.316z" transform="translate(-239 -6800) translate(239 6800) matrix(1 0 0 -1 0 332)"/>
                <path fill="#8CC27B" d="M99 196c-11.047 0-20-9.149-20-20.483 0-2.773.54-5.407 1.52-7.833C83.527 160.233 90.655 155 99 155c11.047 0 20 9.184 20 20.517 0 9.81-6.69 17.954-15.642 19.963-1.385.347-2.871.52-4.358.52m0-64c-10.258 0-19.7 3.705-27.104 9.892C62.182 150.036 56 162.41 56 176.252 56 200.683 99 255 99 255s19.53-24.676 32.233-48.235C137.415 195.371 142 184.22 142 176.251 142 151.82 122.742 132 99 132" transform="translate(-239 -6800) translate(239 6800)"/>
                <g transform="translate(-239 -6800) translate(239 6800) translate(593 154)">
                    <mask id="76tqmcpmlb" fill="#fff">
                        <use xlink:href="#r9bnx780la"/>
                    </mask>
                    <path fill="#8CC27B" d="M0 38.487C0 59.743 37.5 107 37.5 107S75 59.743 75 38.487C75 17.231 58.21 0 37.5 0S0 17.231 0 38.487m19.972-.391c0-9.936 7.847-17.99 17.528-17.99 9.68 0 17.528 8.054 17.528 17.99 0 9.935-7.848 17.99-17.528 17.99-9.681 0-17.528-8.055-17.528-17.99" mask="url(#76tqmcpmlb)"/>
                </g>
                <path fill="#000" d="M381.262 41.027c-1.494-.015-3.012-.025-4.51-.027h-.002c-.414 0-.75.218-.75.484 0 .27.336.489.75.489 1.49.002 3 .011 4.488.027h.012c.408 0 .744-.212.75-.479.006-.268-.324-.49-.738-.494M373.25 41h-.01c-1.488.011-3.007.03-4.51.057-.415.007-.742.222-.73.484.01.255.345.459.747.459h.022c1.497-.026 3.01-.045 4.49-.057.413-.003.747-.216.74-.477-.005-.258-.338-.466-.75-.466m17.036.107c-1.492-.042-3.007-.078-4.51-.107-.408-.005-.76.186-.775.433-.012.247.312.453.727.461 1.494.03 3.004.065 4.486.106h.036c.4 0 .729-.186.75-.426.018-.247-.3-.456-.714-.467M365.218 41c-1.486.035-3.006.079-4.508.126-.415.014-.733.219-.709.46.021.234.352.414.748.414.015 0 .027 0 .042-.002 1.5-.047 3.01-.09 4.49-.124.415-.01.736-.215.718-.456-.018-.241-.375-.426-.78-.418m33.09 1.177c-1.489-.066-3.004-.125-4.51-.176-.422-.015-.774.158-.797.384-.028.228.288.424.7.439 1.498.05 3.007.11 4.487.174.02.002.042.002.06.002.387 0 .718-.163.749-.38.032-.227-.277-.424-.69-.443m-42.11-.176c-1.491.056-3.006.116-4.507.183-.415.02-.721.216-.689.442.034.214.362.374.75.374h.062c1.495-.067 3.004-.13 4.486-.185.415-.014.728-.209.698-.435-.027-.225-.376-.395-.8-.379m51.134.237c-1.498-.085-3.014-.165-4.509-.236-.413-.02-.78.133-.82.343-.039.21.263.395.679.415 1.486.074 2.992.153 4.48.237l.086.003c.38 0 .705-.145.747-.339.048-.21-.25-.398-.663-.423m-60.155-.236c-1.493.072-3.008.15-4.505.232-.412.023-.71.212-.668.422.042.198.37.344.75.344.027 0 .054-.001.08-.003 1.491-.081 3-.16 4.485-.232.413-.02.717-.207.678-.418-.04-.212-.407-.365-.82-.345m68.177 1.292c-1.486-.102-3-.2-4.502-.29-.417-.027-.792.111-.846.305-.051.193.239.372.653.398 1.492.089 2.997.187 4.475.289.036.003.072.004.108.004.37 0 .692-.128.75-.303.06-.195-.227-.375-.638-.403m-74.36.026c-.05-.198-.425-.34-.839-.318-1.485.088-3 .179-4.5.275-.413.026-.703.209-.648.408.048.183.374.315.745.315l.1-.003c1.497-.096 3.006-.187 4.485-.273.413-.025.706-.205.658-.404m-9.003.975c-.06-.188-.441-.319-.856-.291-1.492.098-3.005.203-4.497.31-.411.03-.696.207-.63.394.058.17.379.292.745.292.04 0 .079-.001.121-.004 1.486-.106 2.993-.21 4.479-.308.41-.028.698-.203.638-.393m93.388.05c-1.49-.119-3.002-.234-4.498-.34-.41-.03-.805.092-.871.273-.07.18.212.35.625.38 1.487.105 2.99.22 4.471.337.045.004.091.005.137.005.358 0 .68-.111.743-.271.076-.18-.197-.352-.607-.385m-101.39.931c-.07-.18-.462-.3-.874-.27-1.49.11-3 .224-4.494.34-.412.033-.685.205-.61.384.065.159.386.271.744.271.045 0 .09-.001.137-.005 1.486-.116 2.99-.231 4.474-.34.413-.03.692-.2.622-.38m108.413-.498c-1.486-.264-2.995-.522-4.49-.764-.412-.07-.815.148-.897.482-.082.337.183.661.598.73 1.483.24 2.986.498 4.463.76.054.01.11.015.161.015.351 0 .668-.198.745-.485.091-.334-.168-.663-.58-.738m-117.416.735c-.079-.341-.477-.566-.891-.5-1.482.235-2.99.483-4.484.736-.413.068-.678.402-.596.746.073.299.392.506.745.506.052 0 .1-.005.152-.013 1.49-.25 2.993-.498 4.469-.733.414-.066.684-.397.605-.742m126.44 1.346c-1.477-.29-2.983-.573-4.478-.842-.414-.074-.829.118-.927.43-.098.31.157.623.568.698 1.485.27 2.983.55 4.453.838.064.011.129.018.193.018.341 0 .651-.174.74-.436.107-.309-.138-.627-.55-.706m-135.442-.376c-.086-.328-.492-.537-.904-.47l-2.101.363c-.797.139-1.591.28-2.382.423-.413.076-.67.402-.577.73.082.282.396.472.745.472.055 0 .112-.005.17-.014.789-.144 1.577-.285 2.37-.421.7-.122 1.396-.244 2.093-.363.412-.068.675-.391.586-.72m143.464 1.448c-1.475-.312-2.978-.617-4.469-.91-.408-.08-.835.09-.95.38-.114.29.124.592.536.672 1.481.29 2.975.594 4.441.904.074.015.148.024.223.024.334 0 .64-.153.739-.39.123-.289-.109-.592-.52-.68m-150.468.512c-.102-.31-.516-.502-.928-.425-1.492.272-2.997.558-4.476.847-.412.081-.657.397-.55.704.09.261.402.432.743.432.065 0 .13-.005.194-.018 1.47-.289 2.969-.57 4.452-.843.411-.076.663-.388.565-.697m158.493 1.554c-1.471-.332-2.972-.658-4.456-.971-.408-.087-.848.062-.98.334-.13.272.098.56.506.647 1.475.311 2.966.637 4.428.965.082.019.166.029.25.029.324 0 .627-.136.739-.35.137-.269-.081-.561-.487-.654m-166.5-.594c-.115-.292-.541-.463-.952-.382-1.489.294-2.99.599-4.463.906-.411.085-.646.39-.525.682.098.239.407.392.74.392.072 0 .146-.006.22-.022 1.464-.307 2.96-.61 4.442-.901.41-.081.652-.382.538-.675m173.523 2.655c-1.462-.348-2.956-.694-4.44-1.028-.409-.091-.86.04-1.008.293-.148.254.063.534.47.625 1.474.332 2.961.676 4.414 1.022.09.021.189.031.28.031.318 0 .617-.12.737-.312.155-.252-.047-.536-.453-.631m-182.53-.691c-.128-.273-.563-.428-.974-.342-1.491.31-2.991.634-4.457.958-.408.091-.629.386-.495.659.109.22.41.359.738.359.08 0 .165-.008.246-.027 1.456-.321 2.95-.643 4.431-.952.408-.088.638-.38.51-.655m-7.007 1.97c-.145-.262-.593-.4-1-.308-1.479.327-2.972.665-4.444 1.006-.404.096-.615.38-.464.64.116.2.414.326.734.326.091 0 .182-.01.27-.03 1.462-.34 2.95-.677 4.421-1.002.408-.091.624-.374.483-.633m198.561.776c-1.462-.366-2.95-.728-4.42-1.077-.409-.096-.874.017-1.04.255-.165.237.032.508.44.605 1.462.347 2.94.707 4.393 1.069.102.026.207.037.312.037.309 0 .602-.104.733-.28.172-.236-.013-.509-.418-.61m-207.572 1.195c-.158-.245-.614-.367-1.023-.274-1.476.343-2.964.696-4.43 1.052-.406.099-.599.375-.434.618.123.187.418.299.731.299.102 0 .2-.011.298-.036 1.457-.354 2.939-.706 4.405-1.044.409-.096.612-.37.453-.615m214.594.854c-1.452-.379-2.933-.757-4.4-1.12-.407-.1-.884-.003-1.068.22-.184.223-.004.484.403.585 1.458.362 2.929.735 4.371 1.113.113.029.232.043.348.043.3 0 .59-.094.726-.251.194-.221.023-.484-.38-.59m-221.604 1.118c-.173-.231-.64-.339-1.05-.24-1.464.353-2.949.721-4.41 1.092-.404.102-.586.37-.407.601.134.17.425.27.732.27.11 0 .218-.013.323-.038 1.453-.369 2.93-.735 4.39-1.087.406-.098.595-.366.422-.598m229.625 1.928c-1.45-.394-2.922-.784-4.378-1.16-.402-.105-.897-.02-1.096.187-.203.21-.04.463.363.568 1.446.373 2.912.761 4.352 1.151.12.034.252.049.38.049.294 0 .579-.083.722-.226.213-.206.06-.461-.343-.57m-237.636.048c-.19-.218-.67-.313-1.077-.211-1.459.367-2.937.746-4.393 1.129-.401.105-.57.367-.372.584.139.155.427.246.728.246.116 0 .24-.016.352-.045 1.447-.38 2.918-.757 4.368-1.12.404-.104.582-.362.394-.583m244.658 1.994c-1.438-.406-2.903-.807-4.352-1.195-.401-.109-.906-.038-1.13.158-.219.196-.072.442.33.55 1.439.385 2.893.785 4.325 1.188.13.035.272.053.412.053.289 0 .568-.073.72-.202.23-.194.094-.44-.305-.552m-252.67.984c-.207-.207-.698-.289-1.105-.185-1.454.38-2.925.772-4.373 1.163-.4.11-.55.363-.34.568.147.143.432.224.724.224.13 0 .261-.015.383-.049 1.438-.39 2.902-.778 4.35-1.156.403-.104.563-.358.36-.565m259.694 2.053c-1.42-.411-2.875-.825-4.327-1.227-.398-.11-.915-.052-1.158.132-.24.183-.112.422.287.533 1.442.4 2.887.811 4.296 1.22.141.04.297.059.449.059.28 0 .554-.064.716-.18.25-.182.131-.423-.263-.537m-266.708-.074c-.222-.196-.727-.267-1.129-.158-1.454.39-2.918.791-4.353 1.193-.398.112-.534.358-.305.552.153.131.432.204.72.204.14 0 .283-.018.412-.053 1.428-.4 2.882-.8 4.326-1.187.402-.109.548-.355.33-.55m274.73 3.766c-1.42-.635-2.864-1.268-4.295-1.884-.398-.17-.931-.098-1.193.162-.26.258-.15.606.249.777 1.42.61 2.856 1.24 4.266 1.87.148.068.317.099.485.099.275 0 .543-.085.708-.243.269-.256.169-.606-.22-.78M228.88 67.19c-.239-.186-.754-.246-1.155-.136-1.438.4-2.897.81-4.325 1.222-.397.114-.519.354-.273.539.158.119.435.184.718.184.152 0 .303-.019.44-.06 1.426-.409 2.87-.817 4.306-1.213.397-.111.529-.35.29-.536m287.768 2.831c-1.41-.648-2.843-1.295-4.263-1.921-.393-.174-.94-.117-1.223.125-.28.243-.19.584.203.757 1.41.623 2.836 1.265 4.235 1.91.157.072.34.107.522.107.27 0 .533-.076.705-.22.287-.238.206-.578-.179-.758m-295.786-.762c-.256-.263-.783-.34-1.183-.17-1.435.614-2.882 1.242-4.302 1.872-.39.174-.497.526-.233.786.164.164.435.252.712.252.16 0 .328-.032.472-.098 1.413-.625 2.85-1.25 4.278-1.858.397-.17.513-.52.256-.784m302.803 4.806c-1.399-.661-2.82-1.318-4.225-1.956-.39-.179-.952-.134-1.255.094-.3.229-.23.559.16.735 1.396.634 2.808 1.289 4.2 1.946.164.077.361.115.558.115.26 0 .522-.067.697-.195.311-.227.25-.557-.135-.74m-308.82-1.83c-.275-.248-.817-.31-1.21-.136-1.426.624-2.863 1.265-4.275 1.906-.39.176-.477.52-.198.767.17.149.438.228.71.228.173 0 .35-.035.503-.103 1.406-.64 2.836-1.276 4.251-1.898.394-.171.49-.514.22-.764m316.84 4.87c-1.379-.665-2.786-1.333-4.185-1.987-.388-.18-.966-.151-1.29.065-.322.216-.271.536.116.717 1.393.65 2.793 1.314 4.16 1.976.17.083.386.124.599.124.256 0 .508-.06.69-.175.33-.212.29-.534-.09-.72m-323.864-.892c-.293-.235-.846-.283-1.239-.107-1.408.632-2.836 1.284-4.24 1.939-.387.179-.458.514-.16.746.173.137.435.209.701.209.187 0 .379-.036.541-.113 1.395-.648 2.815-1.297 4.217-1.928.393-.174.474-.51.18-.746m328.88 4.931c-1.364-.678-2.759-1.355-4.142-2.017-.385-.182-.976-.167-1.32.036-.348.204-.314.517.067.701 1.377.656 2.764 1.33 4.12 2.003.18.09.409.133.64.133.247 0 .497-.051.68-.157.352-.2.333-.513-.045-.699m-336.9-1.95c-.31-.224-.88-.259-1.267-.08-1.406.644-2.82 1.308-4.21 1.968-.385.182-.435.51-.118.73.177.124.433.188.692.188.203 0 .408-.04.577-.12 1.378-.655 2.789-1.315 4.184-1.956.39-.18.452-.506.141-.73m-5.02 3.983c-.332-.213-.912-.237-1.299-.055-1.39.653-2.79 1.324-4.174 1.995-.378.184-.416.503-.077.713.18.114.434.17.688.17.217 0 .433-.043.61-.127 1.372-.667 2.766-1.334 4.148-1.985.386-.18.43-.5.103-.711m347.034 2c-.901-.685-1.82-1.37-2.734-2.04-.252-.186-.656-.182-.9.01-.246.192-.24.497.012.683.909.666 1.822 1.347 2.718 2.029.125.095.289.141.452.141.163 0 .324-.046.45-.141.25-.187.25-.492.002-.682m-355.979 1.984c-.235-.202-.63-.215-.885-.032-.918.663-1.846 1.34-2.754 2.02-.253.187-.263.498-.025.695.122.103.287.156.452.156.156 0 .31-.045.43-.136.906-.673 1.827-1.349 2.742-2.008.256-.183.273-.496.04-.695m361.99 2.047c-.895-.694-1.802-1.388-2.701-2.063-.25-.188-.664-.194-.926-.013-.258.18-.266.479-.018.666.894.671 1.796 1.361 2.685 2.051.128.1.303.151.478.151.16 0 .32-.041.445-.126.267-.176.282-.476.036-.666m-367.008 1.938c-.245-.191-.649-.195-.902-.008-.907.667-1.827 1.355-2.73 2.041-.247.189-.247.493.003.68.125.095.289.141.45.141.166 0 .33-.048.455-.143.897-.682 1.812-1.366 2.714-2.031.253-.185.258-.49.01-.68m372.02 2.09c-.88-.699-1.776-1.4-2.666-2.084-.247-.188-.67-.204-.947-.035-.276.17-.3.461-.054.651.888.681 1.779 1.376 2.653 2.072.131.105.32.16.507.16.155 0 .31-.037.437-.113.282-.168.311-.457.07-.65M173.8 95.131c-.259-.181-.672-.175-.923.013-.909.682-1.818 1.376-2.701 2.06-.246.191-.23.49.034.667.125.085.284.128.444.128.175 0 .35-.051.478-.151.88-.681 1.785-1.372 2.686-2.05.25-.188.243-.488-.018-.667m386.047 3.132c-.864-.704-1.748-1.411-2.63-2.102-.242-.191-.677-.217-.969-.058-.292.161-.33.445-.085.637.873.688 1.754 1.391 2.613 2.091.138.11.336.168.537.168.152 0 .303-.032.433-.101.295-.156.341-.441.101-.635m-390.065.855c-.276-.17-.698-.156-.944.033-.895.686-1.793 1.386-2.672 2.08-.243.192-.214.485.064.653.126.078.284.115.438.115.188 0 .372-.054.503-.157.876-.692 1.769-1.388 2.659-2.071.246-.19.224-.481-.048-.653m394.077 3.17c-.853-.707-1.724-1.42-2.593-2.117-.238-.194-.686-.23-.991-.078-.309.15-.365.429-.125.622.864.693 1.73 1.403 2.579 2.107.139.115.351.177.564.177.15 0 .3-.03.427-.09.311-.147.373-.426.139-.62m-401.098.817c-.29-.161-.72-.138-.966.053-.878.689-1.767 1.394-2.637 2.097-.241.192-.2.48.093.638.126.07.282.105.435.105.197 0 .391-.058.528-.167.864-.698 1.748-1.401 2.623-2.086.246-.19.21-.478-.076-.64m407.107 4.206c-.836-.712-1.695-1.43-2.549-2.133-.239-.195-.693-.239-1.02-.096-.322.142-.395.414-.16.609.851.7 1.705 1.412 2.538 2.122.142.12.367.185.597.185.145 0 .291-.024.416-.079.33-.14.41-.411.178-.608m-411.13.785c-.303-.154-.742-.123-.983.07-.872.695-1.749 1.406-2.606 2.112-.238.195-.182.477.123.627.13.063.28.093.429.093.21 0 .417-.059.555-.172.854-.704 1.726-1.411 2.591-2.103.242-.193.194-.474-.109-.627m416.141 3.237c-.825-.72-1.67-1.441-2.508-2.148-.234-.196-.698-.245-1.04-.113-.345.134-.432.4-.201.595.834.703 1.673 1.422 2.492 2.137.144.126.384.194.63.194.142 0 .282-.024.411-.07.345-.13.441-.396.216-.595m-422.164.752c-.318-.144-.767-.105-1.005.088-.865.705-1.73 1.421-2.571 2.127-.233.197-.164.471.157.615.127.057.277.083.423.083.221 0 .44-.062.58-.18.837-.703 1.698-1.415 2.557-2.115.239-.196.176-.47-.14-.618m426.172 4.27c-.811-.724-1.637-1.451-2.46-2.16-.23-.197-.706-.257-1.068-.131-.362.125-.467.385-.238.583.817.705 1.64 1.428 2.447 2.148.146.132.4.203.66.203.139 0 .275-.02.402-.062.365-.122.479-.383.257-.58m-430.2.722c-.33-.139-.789-.092-1.024.104-.849.705-1.703 1.426-2.534 2.138-.23.198-.144.467.191.603.127.05.271.075.416.075.235 0 .465-.066.607-.187.828-.71 1.676-1.427 2.521-2.128.236-.196.156-.466-.176-.605m435.208 4.298c-.789-.723-1.597-1.455-2.409-2.173-.223-.199-.716-.264-1.093-.147-.38.117-.508.372-.284.57.808.715 1.613 1.442 2.396 2.162.147.135.419.21.697.21.134 0 .268-.017.393-.053.383-.115.517-.369.3-.569m2.033 4.02c-.575-.726-1.17-1.46-1.765-2.184-.164-.2-.54-.272-.84-.164-.3.109-.412.36-.249.558.593.72 1.185 1.45 1.756 2.173.111.14.327.219.55.219.097 0 .196-.015.288-.046.302-.107.419-.356.26-.556m5.007 5.825c-.558-.971-1.137-1.955-1.72-2.925-.16-.266-.545-.375-.864-.24-.316.136-.442.461-.283.728.579.966 1.155 1.945 1.71 2.909.11.193.339.305.578.305.093 0 .19-.017.28-.054.32-.13.453-.455.299-.723m-585.591.046c-1.48-.098-2.995-.187-4.51-.267-.417-.022-.788.124-.83.325-.046.204.253.385.667.407 1.5.08 3.006.167 4.473.263.033.003.067.003.1.003.374 0 .697-.134.748-.318.055-.202-.235-.387-.648-.413m9.037 1.078c-1.482-.122-2.997-.237-4.504-.342-.413-.03-.802.093-.868.272-.067.18.212.35.628.378 1.491.104 2.995.217 4.462.338.048.004.094.007.142.007.355 0 .674-.11.744-.269.08-.179-.191-.35-.604-.384m7.04 1.487c-1.477-.29-2.99-.564-4.492-.82-.413-.07-.82.133-.913.45-.089.32.172.638.586.707 1.485.253 2.98.526 4.445.81.061.012.125.019.187.019.343 0 .655-.18.741-.448.104-.317-.144-.64-.554-.718m9.038 1.123c-1.464-.327-2.969-.64-4.47-.935-.413-.084-.841.08-.96.365-.117.284.119.579.53.66 1.487.293 2.977.604 4.425.927.078.017.159.026.24.026.326 0 .63-.146.738-.372.13-.28-.093-.581-.503-.67m564.482 1.29c-.535-.966-1.095-1.955-1.665-2.94-.156-.267-.552-.382-.89-.258-.334.124-.481.44-.324.71.566.976 1.123 1.96 1.656 2.92.11.202.353.32.61.32.091 0 .182-.015.27-.045.341-.12.493-.437.343-.706m-556.437.819c-1.462-.36-2.959-.71-4.45-1.04-.41-.09-.86.041-1.01.293-.144.251.067.528.478.619 1.47.325 2.948.67 4.395 1.026.094.023.195.034.293.034.313 0 .61-.116.733-.303.16-.248-.035-.53-.44-.63m8.046 2.097c-1.445-.387-2.931-.765-4.414-1.126-.407-.099-.885.001-1.066.223-.181.222.003.482.41.581 1.464.356 2.93.729 4.356 1.112.113.03.236.046.355.046.297 0 .585-.092.727-.246.194-.219.032-.482-.368-.59m551.4 2.114c-.503-.96-1.042-1.954-1.599-2.954-.152-.269-.562-.395-.919-.283-.36.114-.528.422-.376.69.554.994 1.087 1.982 1.587 2.933.11.207.374.336.655.336.084 0 .171-.013.256-.038.362-.108.54-.414.397-.684m3.016 6.052c-.02-.043-.49-1.09-1.506-2.99-.142-.27-.576-.406-.965-.309-.392.1-.594.395-.45.664.998 1.873 1.475 2.929 1.48 2.94.1.222.398.365.721.365.073 0 .148-.008.22-.023.398-.084.62-.374.5-.647" transform="translate(-239 -6800) translate(239 6800)"/>
                <g>
                    <path fill="#A8D3F1" d="M92.147 89l-1.114-.23 5.38-20.538C96.758 66.917 98.06 66 99.577 66h7.456v1.016h-7.456c-.984 0-1.826.594-2.05 1.447L92.147 89z" transform="translate(-239 -6800) translate(239 6800) translate(188.967 72)"/>
                    <path fill="#FFF" d="M92.965 90l-.932-.382 9.837-28.485c.44-1.277 1.577-2.133 2.826-2.133h7.337v1.085h-7.337c-.837 0-1.6.574-1.895 1.43L92.965 90z" transform="translate(-239 -6800) translate(239 6800) translate(188.967 72)"/>
                    <path fill="#A8D3F1" d="M108.033 61c-1.104 0-2 2.91-2 6.5s.896 6.5 2 6.5V61z" transform="translate(-239 -6800) translate(239 6800) translate(188.967 72)"/>
                    <path fill="#FFF" d="M121.033 59.5c0 5.247-1.79 9.5-4 9.5-2.209 0-4-4.253-4-9.5s1.791-9.5 4-9.5c2.21 0 4 4.253 4 9.5" transform="translate(-239 -6800) translate(239 6800) translate(188.967 72)"/>
                    <g transform="translate(-239 -6800) translate(239 6800) translate(188.967 72) translate(9.033 211)">
                        <mask id="bvmbirg9ad" fill="#fff">
                            <use xlink:href="#6oy6rxnu5c"/>
                        </mask>
                        <path fill="#000" d="M38.401 60.95c-12.736 0-23.06-10.263-23.06-22.92 0-12.658 10.324-22.92 23.06-22.92 12.736 0 23.06 10.262 23.06 22.92 0 12.657-10.324 22.92-23.06 22.92m0-60.23C17.67.72.863 17.423.863 38.03c0 20.605 16.806 37.31 37.538 37.31 20.733 0 37.539-16.705 37.539-37.31C75.94 17.423 59.134.72 38.4.72" mask="url(#bvmbirg9ad)"/>
                    </g>
                    <path fill="#2149FE" d="M53.033 250c0 3.866-3.134 7-7 7s-7-3.134-7-7c0-3.867 3.134-7 7-7s7 3.133 7 7M255.033 250c0 3.866-3.134 7-7 7-3.865 0-7-3.134-7-7 0-3.867 3.135-7 7-7 3.866 0 7 3.133 7 7" transform="translate(-239 -6800) translate(239 6800) translate(188.967 72)"/>
                    <g transform="translate(-239 -6800) translate(239 6800) translate(188.967 72) translate(211.033 211)">
                        <mask id="n5easmr1kf" fill="#fff">
                            <use xlink:href="#1bihxwlxfe"/>
                        </mask>
                        <path fill="#000" d="M38.408 60.95c-12.736 0-23.06-10.263-23.06-22.92 0-12.658 10.324-22.92 23.06-22.92 12.736 0 23.06 10.262 23.06 22.92 0 12.657-10.324 22.92-23.06 22.92m0-60.23C17.675.72.868 17.423.868 38.03c0 20.605 16.807 37.31 37.54 37.31 20.731 0 37.538-16.705 37.538-37.31C75.946 17.423 59.14.72 38.408.72" mask="url(#n5easmr1kf)"/>
                    </g>
                    <path fill="#FFF" d="M73.033 101c0 5.524 4.925 10 11 10V91c-6.075 0-11 4.477-11 10" transform="translate(-239 -6800) translate(239 6800) translate(188.967 72)"/>
                    <path fill="#2149FE" d="M111.753 102.008s-.111-3.224-4.339-3.443c-4.228-.217-8.456-2.838-9.116-5.588-.162-.668-.244-1.307-.277-1.89-.1-1.746-1.608-3.087-3.373-3.087H84.373c-1.868 0-3.384 1.502-3.384 3.355v19.748c0 1.854 1.516 3.357 3.384 3.357h7.847s4.623 3.143-.926 10.74c-5.548 7.597-30.256 39.822-36.862 51.086-6.606 11.266-7.399 23.58-7.399 23.58l5.284 21.743 33.825 18.863 10.307 9.566c1.357 1.26 3.147 1.962 5.006 1.962h112.319v-17.03h88.26s-5.55-34.058-42.545-55.802h-82.71s14.094 15.195 11.142 36.416c-2.95 21.22-24.62 27.77-33.603 27.77h-42.28c-11.362 0-25.368-22.268-26.69-45.323-1.32-23.054 6.695-43.052 16.385-56.37 6.136-8.433 10.833-16.723 11.362-23.272.528-6.55-1.342-16.38-1.342-16.38" transform="translate(-239 -6800) translate(239 6800) translate(188.967 72)"/>
                    <path fill="#00081A" d="M308.73 227h-22.393c-2.377 0-4.304 1.79-4.304 4s1.927 4 4.304 4h22.393c2.377 0 4.303-1.79 4.303-4s-1.926-4-4.303-4" transform="translate(-239 -6800) translate(239 6800) translate(188.967 72)"/>
                    <g transform="translate(-239 -6800) translate(239 6800) translate(188.967 72) translate(.033 199)">
                        <mask id="p57swzrdph" fill="#fff">
                            <use xlink:href="#qazq9hswvg"/>
                        </mask>
                        <path fill="#1D3ED7" d="M46.87.087C20.983.087 0 20.626 0 45.96h93.739c0-25.335-20.985-45.874-46.87-45.874" mask="url(#p57swzrdph)"/>
                    </g>
                    <path fill="#1D3ED7" d="M297.033 248h-93.082s-12.227-16.949-4.17-36.168c10.689-25.506 42.298-21.056 60.29-10.26 17.99 10.795 31.226 30.503 36.962 46.428" transform="translate(-239 -6800) translate(239 6800) translate(188.967 72)"/>
                    <path fill="#00081A" d="M177.696 182.88l-2.277 3.128c-.452.622-1.187.992-1.97.992-1.335 0-2.416-1.052-2.416-2.348v-17.45c0-.52.434-.94.968-.94h51.035c8.62 0 16.293-2.76 20.002-5.724 1.172-.936 2.938-.611 3.69.67 2.12 3.61 4.534 10.688-1.582 19.154-.182.25-.487.403-.802.403h-62.446c-1.67 0-3.238.788-4.202 2.114" transform="translate(-239 -6800) translate(239 6800) translate(188.967 72)"/>
                    <path fill="#D9DBE7" d="M275.451 232h-59.836c-.874 0-1.582.671-1.582 1.5 0 .828.708 1.5 1.582 1.5h59.836c.873 0 1.582-.672 1.582-1.5 0-.829-.709-1.5-1.582-1.5M257.503 224h-41.938c-.846 0-1.532.671-1.532 1.5s.686 1.5 1.532 1.5h41.938c.845 0 1.53-.671 1.53-1.5s-.685-1.5-1.53-1.5M245.377 216h-29.686c-.916 0-1.658.67-1.658 1.5 0 .828.742 1.5 1.658 1.5h29.686c.915 0 1.656-.672 1.656-1.5 0-.83-.741-1.5-1.656-1.5" transform="translate(-239 -6800) translate(239 6800) translate(188.967 72)"/>
                    <path fill="#8CC27B" d="M252.033 179L313.033 179 313.033 140 252.033 140z" transform="translate(-239 -6800) translate(239 6800) translate(188.967 72)"/>
                    <path fill="#80BA6E" d="M260.033 139L302.033 139 302.033 116 260.033 116z" transform="translate(-239 -6800) translate(239 6800) translate(188.967 72)"/>
                    <path fill="#000" d="M269.585 180c-.027 0-.055-.002-.082-.007-.3-.041-.508-.303-.464-.589l9.901-62.961c.044-.283.332-.478.624-.438.3.041.508.305.463.589l-9.9 62.963c-.04.257-.275.443-.542.443M295.483 180c-.267 0-.503-.186-.543-.443l-9.9-62.963c-.045-.284.162-.547.463-.589.293-.04.58.155.623.438l9.901 62.961c.045.286-.163.548-.463.59-.026.004-.054.006-.08.006" transform="translate(-239 -6800) translate(239 6800) translate(188.967 72)"/>
                    <path fill="#FFF" d="M87.604 161.57s-7.518 10.23-10.085 23.058l-7.12.389s4.536-12.232 10.765-20.66l6.44-2.786z" transform="translate(-239 -6800) translate(239 6800) translate(188.967 72) rotate(-8 79.002 173.294)"/>
                    <path fill="#000" d="M319.987 181h-75.908c-.578 0-1.046-.447-1.046-1 0-.552.468-1 1.046-1h75.908c.577 0 1.046.448 1.046 1 0 .553-.469 1-1.046 1" transform="translate(-239 -6800) translate(239 6800) translate(188.967 72)"/>
                    <path fill="#E0A094" d="M113.918 119.62c-.05.598-.381 1.431-.491 2.052-1.57.196-2.39.28-3.06.324-3.043.196-9.334-7.476-9.334-9.776 0-1.795 6.693-7.574 11.232-10.22.365.889 2.249 10.535 1.653 17.62" transform="translate(-239 -6800) translate(239 6800) translate(188.967 72)"/>
                    <path fill="#00081A" d="M124.253 116.34c-.36-.596-.84-1.082-1.4-1.434v-.023c-.5-.286-5.48-3.42-5.48-3.42v.02c-.58-.308-1.22-.483-1.9-.483-2.46 0-4.44 2.205-4.44 4.92 0 .884.2 1.701.58 2.407.32.618.76 1.17 1.3 1.589l.02.022c.2.154.4.265.62.397l1.68 1.037 2.86 1.789s.02.021.04.021l.52.332c.6.309 1.24.486 1.92.486 2.26 0 4.12-1.855 4.42-4.239.02-.22.04-.44.04-.662 0-1.015-.28-1.987-.78-2.758" transform="translate(-239 -6800) translate(239 6800) translate(188.967 72)"/>
                    <path fill="#373737" d="M138.68 227h-9.97s-3.616 4.8-8.498 5.422c-2.744.35-7.833.306-11.76.201-2.971-.079-5.419 2.266-5.419 5.189 0 2.865 2.364 5.188 5.278 5.188h30.369c1.3 0 2.353-1.036 2.353-2.314L138.68 227z" transform="translate(-239 -6800) translate(239 6800) translate(188.967 72)"/>
                    <path fill="#000" d="M140.68 229h-9.968s-3.618 4.8-8.5 5.422c-2.744.35-7.833.307-11.76.201-2.971-.079-5.419 2.267-5.419 5.189 0 2.865 2.364 5.188 5.28 5.188h30.367c1.3 0 2.353-1.036 2.353-2.314L140.68 229z" transform="translate(-239 -6800) translate(239 6800) translate(188.967 72)"/>
                    <path fill="#FF9580" d="M131.033 227c.358 1.72 2.017 3 4 3 1.988 0 3.643-1.287 4-3h-8z" transform="translate(-239 -6800) translate(239 6800) translate(188.967 72)"/>
                    <path fill="#232323" d="M214.085 143H138.42c-19.386 0-19.386 19.95-19.386 28.358 0 8.409 6.885 55.642 6.885 55.642h14.675l4.529-55.642h55.8c11.595 0 18.78-12.881 13.163-28.358" transform="translate(-239 -6800) translate(239 6800) translate(188.967 72)"/>
                    <path fill="#2C2C2C" d="M215.317 144h-74.522c-18.762 0-18.762 19.712-18.762 28.02s6.663 54.98 6.663 54.98h14.203l4.384-54.98h54.006c11.222 0 19.464-12.728 14.028-28.02" transform="translate(-239 -6800) translate(239 6800) translate(188.967 72)"/>
                    <path fill="#DD3900" d="M190.855 44s6.224-9.278 9.178-17.83c0 0-13.344-16.3-38-5.437L190.855 44z" transform="translate(-239 -6800) translate(239 6800) translate(188.967 72)"/>
                    <path fill="#FFB8AA" d="M160.35 21.207s-1.768 12.678 3.052 22.533c4.82 9.854 6.012 10.077 14.694 8.423L179.563 63l16.47-5.626s-6.294-16.966-3.807-20.01c2.1-2.568 2.842-7.07-.214-8.63-4.839-2.47-8.368 2.973-8.576 5.242l-2.376-8.53s-17.018-5.576-20.71-4.239" transform="translate(-239 -6800) translate(239 6800) translate(188.967 72)"/>
                    <g fill="#8CC27B">
                        <path d="M27.289 17.195c-.06 0-.12-.004-.18-.015L.708 12.493c-.477-.084-.785-.497-.691-.921.094-.425.559-.698 1.033-.615l26.401 4.687c.476.084.785.496.691.92-.084.371-.446.628-.853.63" transform="translate(-239 -6800) translate(239 6800) translate(188.967 72) scale(-1 1) rotate(-15 -48.743 872.25)"/>
                        <path d="M23.466 16.152l40.236 8.859S67.908 6.093 50.25 1.2c-17.658-4.89-26.306 6.164-26.784 14.951" transform="translate(-239 -6800) translate(239 6800) translate(188.967 72) scale(-1 1) rotate(-15 -48.743 872.25)"/>
                    </g>
                    <path fill="#E0A094" d="M195.033 99.641s-.446 1.21-1.196 3.045c-.222.565-.487 1.21-.77 1.895-.122.242-.223.504-.325.747-.12.242-.222.503-.323.746-2.128 4.84-5.19 10.808-7.641 12.037-1.379.685-8.169.766-16.64.585-17.33-.403-41.694-1.996-41.694-1.996s-1.196.182-2.96.463c-.363-.545-.85-.989-1.417-1.31v-.02c-.508-.262-5.555-3.125-5.555-3.125v.018c-.588-.282-1.235-.441-1.925-.441-2.493 0-4.5 2.014-4.5 4.495 0 .806.202 1.553.589 2.198-.041.02-.102.02-.143.02-2.107.122-5.98-4.234-7.5-7.117 1.683-2.32 6.243-6.21 9.406-8.167 0 0-.041-1.39-1.257-2.42 1.662-1.148 3.141-1.955 3.932-2.016 2.655-.18 14.148 7.582 14.148 7.582l37.942-2.037 8.392-.444.262-.826.264-.746.244-.765L178.069 97l16.964 2.641z" transform="translate(-239 -6800) translate(239 6800) translate(188.967 72)"/>
                    <path fill="#8CC27B" d="M173.155 142.888s-4.747-49.51-.04-67.326c4.589-17.356 19.573-24.286 27.928-13.199 8.356 11.088 5.044 28.97 5.745 43.555 1.305 27.19 8.984 34.066 9.245 39.082h-42.878v-2.112z" transform="translate(-239 -6800) translate(239 6800) translate(188.967 72)"/>
                    <path fill="#DD3A18" d="M257.033 134.789s10.275-41.336 16.5-78.89c3.197-19.283 3.047-41.872 4.637-48.386 3.386-13.86 8.6-24.691 14.458-24.51 2.048.062 11.352 35.785 12.05 51.504 1.3 29.302-1.403 114.087-1.142 119.493-4.415-7.421-8.834-11.937-13.257-13.548-3.623-1.32-9.303-15.712-15.45-14.437-2.587.537-8.519 4.22-17.796 11.05v-2.276z" transform="translate(-239 -6800) translate(239 6800) translate(188.967 72) rotate(-90 281.033 68.5)"/>
                    <path fill="#FFB8AA" d="M195.033 101.641s-.261.726-.724 1.896c-.08.241-.201.483-.303.765-.08.243-.2.484-.3.747-1.993 4.919-5.858 13.567-8.857 15.06-1.369.685-7.93.786-16.222.604h-.02c-17.21-.403-41.684-1.995-41.684-1.995s-.865.14-2.193.342c.02-.201.04-.403.04-.603 0-.928-.281-1.815-.785-2.52-.362-.546-.845-.99-1.408-1.311v-.021c-.504-.262-5.516-3.125-5.516-3.125v.02c-.584-.282-1.227-.443-1.912-.443-2.475 0-4.467 2.016-4.467 4.495 0 .808.2 1.553.584 2.197.32.567.764 1.07 1.307 1.452l.02.021c.2.141.402.242.624.362l1.69.949c-.261.04-.522.06-.764.101-1.35.18-2.455.322-3.02.363-2.636.181-8.09-6.856-8.09-8.973 0-.322.241-.786.644-1.371 1.67-2.318 6.199-6.21 9.34-8.165 1.126-.706 2.072-1.15 2.656-1.19 2.636-.181 14.048 7.56 14.048 7.56l37.82-2.015h.02l8.17-.444 1.288-3.91.262-.746.242-.767.664-1.976 15.659 2.46 1.187.181z" transform="translate(-239 -6800) translate(239 6800) translate(188.967 72)"/>
                    <path fill="#80BA6E" d="M177.835 85.553l-2.802 16.023L196.097 105l4.058-16.026c1.447-5.717-2.014-11.524-7.73-12.972-.324-.082-.651-.149-.98-.2-6.436-1-12.488 3.336-13.61 9.751z" transform="translate(-239 -6800) translate(239 6800) translate(188.967 72)"/>
                    <path fill="#FA8B98" d="M173.051 68.982L173.051 69.018 173.015 69z" transform="translate(-239 -6800) translate(239 6800) translate(188.967 72)"/>
                </g>
            </g>
        </g>
    </g>
</svg>
