<svg xmlns="http://www.w3.org/2000/svg" xmlns:xlink="http://www.w3.org/1999/xlink" width="587" height="318" viewBox="0 0 587 318">
    <defs>
        <path id="77fk5mjcna" d="M.765 20.143C.765 31.268 20.265 56 20.265 56s19.5-24.732 19.5-35.857S31.035 0 20.265 0 .765 9.018.765 20.143m10.385-.205c0-5.2 4.08-9.415 9.115-9.415 5.034 0 9.114 4.215 9.114 9.415 0 5.2-4.08 9.415-9.114 9.415-5.034 0-9.115-4.215-9.115-9.415"/>
        <path id="qk6p733dzc" d="M0.549 0.459L48.345 0.459 48.345 48 0.549 48z"/>
        <path id="1ljro44rqe" d="M0.553 0.459L48.349 0.459 48.349 48 0.553 48z"/>
        <path id="6yrs9qewng" d="M0 0.055L59.893 0.055 59.893 29.272 0 29.272z"/>
    </defs>
    <g fill="none" fill-rule="evenodd">
        <g>
            <g>
                <path fill="#1D3461" d="M586.972 233.039c-.025 1.414-.051 2.828-.129 4.213-.051 1.385-.103 2.742-.207 4.127-.362 5.945-1.008 11.717-1.861 17.23-.26 1.644-.518 3.26-.802 4.847-.052.375-.13.751-.181 1.096l-.052.203c-.18.981-.362 1.934-.543 2.915-.336 1.702-.698 3.405-1.06 5.05-.077.318-.155.606-.207.925-.982 4.328-2.043 8.396-3.154 12.207l-.544 1.904c-.49 1.674-.982 3.26-1.474 4.819-.362 1.126-.724 2.194-1.06 3.232-1.887 5.599-3.723 10.246-5.197 13.766-1.37 3.261-2.534 6.003-3.129 7.389-.259.605-.414.952-.414.952s-286.69.058-444.941.086H20.032c0-.028-.026-.028-.026-.028-.362-.317-.698-.606-1.034-.923h-.026c-.155-.145-.31-.261-.44-.405l-7.525-9.09c-1.654-2.627-2.999-5.427-4.033-8.341C4.957 293.788 4 287.901 4 281.753c0-.288 0-.607.026-.924 0-.548.026-1.125.026-1.674l.077-1.47c.13-1.79.31-3.58.569-5.368 0-.06.026-.116.026-.173.052-.29.103-.608.13-.925.051-.375.128-.75.206-1.126.233-1.327.517-2.654.828-4.01.051-.319.129-.636.206-.953.104-.375.181-.75.31-1.126.285-1.182.647-2.366 1.01-3.577.697-2.31 1.525-4.618 2.456-6.956.052-.173.13-.375.207-.548.853-2.107 1.784-4.186 2.792-6.292 1.526-3.173 3.258-6.32 5.146-9.437.414-.664.827-1.327 1.241-1.962 2.095-3.318 4.396-6.58 6.904-9.783 3.026-3.897 6.336-7.735 9.904-11.428.802-.837 1.603-1.646 2.405-2.453.18-.174.362-.347.543-.549.465-.432.931-.895 1.396-1.327 1.965-1.906 3.88-3.695 5.767-5.425.956-.867 1.887-1.704 2.818-2.541 1.836-1.644 3.62-3.26 5.327-4.82 5.249-4.819 9.904-9.349 13.575-14.457 1.267-1.732 2.405-3.55 3.414-5.427 1.836-3.434 3.258-7.155 4.189-11.37.207-1.067.414-2.165.569-3.29.465-3.058.698-6.377.62-10.014-.025-2.856-.232-5.945-.62-9.235-.078-.692-.181-1.414-.285-2.165-.543-4.068-1.37-8.484-2.482-13.304-.31-1.355-.647-2.74-1.009-4.155-.62-2.454-1.112-4.877-1.5-7.243-.75-4.59-1.06-9.004-1.008-13.305.026-3.895.362-7.676 1.009-11.313v-.058c.569-3.462 1.396-6.81 2.405-10.043 12.385-39.306 54.534-62.537 65.73-67.732C154.883 6.378 173.786 2.222 193.412.693c1.603-.115 3.206-.23 4.81-.317C202.745.116 207.322 0 211.873 0c1.862 0 3.698.03 5.534.058 3.077.086 6.128.202 9.205.404 2.844.174 5.663.375 8.482.635 11.688 1.097 23.09 2.944 33.693 5.426 9.645 2.25 18.333 5.079 26.246 8.34l.026.029c18.67 7.705 32.787 17.777 44.062 28.253 2.611 2.424 5.094 4.877 7.421 7.33.31.318.647.664.957 1.01.724.75 1.422 1.5 2.12 2.28.31.346.647.693.957 1.04 2.043 2.279 4.008 4.559 5.87 6.781l2.767 3.347c4.913 6.061 9.257 11.717 13.394 16.594.517.636 1.035 1.212 1.552 1.818 7.11 8.082 13.705 13.564 21.772 14.17 5.069.375 10.99-.577 17.635-2.02.673-.144 1.32-.288 1.992-.461 10.214-2.28 22.108-5.512 35.322-6.868 17.066-1.762 36.382-.376 57.224 10.187.672.346 1.319.693 1.991 1.038 3.052 1.646 6.129 3.464 9.232 5.513.646.404 1.293.837 1.939 1.27 3.155 2.164 6.361 4.56 9.593 7.214.078.058.155.116.233.203 1.397 1.125 2.793 2.336 4.19 3.578 1.628 1.443 3.283 2.943 4.938 4.53 3.982 3.839 8.042 8.052 12.101 12.728 2.948 3.376 5.69 6.782 8.172 10.244 1.732 2.367 3.361 4.763 4.861 7.158.284.433.543.866.828 1.298 2.585 4.243 4.913 8.514 6.981 12.814.233.52.491 1.068.75 1.588 2.715 5.945 4.965 11.918 6.749 17.864.155.518.31 1.009.465 1.5.776 2.683 1.448 5.368 2.07 8.052.827 3.665 1.499 7.3 2.042 10.937 1.396 9.264 1.888 18.383 1.732 27.157" transform="translate(-295 -7883) translate(295 7883) matrix(1 0 0 -1 0 318)"/>
                <path fill="#FB3640" d="M85.5 219.825c-6.845 0-12.392-5.701-12.392-12.764 0-1.728.335-3.369.942-4.88 1.863-4.644 6.28-7.905 11.45-7.905 6.845 0 12.392 5.723 12.392 12.785 0 6.113-4.145 11.188-9.692 12.44-.858.216-1.779.324-2.7.324m0-39.825c-6.322 0-12.14 2.29-16.704 6.112C62.81 191.144 59 198.79 59 207.342 59 222.44 85.5 256 85.5 256s12.036-15.247 19.864-29.804c3.81-7.04 6.636-13.93 6.636-18.854C112 192.246 100.132 180 85.5 180" transform="translate(-295 -7883) translate(295 7883)"/>
                <g transform="translate(-295 -7883) translate(295 7883) translate(529 224)">
                    <mask id="00yvsqk99b" fill="#fff">
                        <use xlink:href="#77fk5mjcna"/>
                    </mask>
                    <path fill="#FB3640" d="M.765 20.143C.765 31.268 20.265 56 20.265 56s19.5-24.732 19.5-35.857S31.035 0 20.265 0 .765 9.018.765 20.143m10.385-.205c0-5.2 4.08-9.415 9.115-9.415 5.034 0 9.114 4.215 9.114 9.415 0 5.2-4.08 9.415-9.114 9.415-5.034 0-9.115-4.215-9.115-9.415" mask="url(#00yvsqk99b)"/>
                </g>
                <path fill="#FB3640" d="M345.385 107.027c-1.245-.015-2.51-.025-3.758-.027h-.002c-.345 0-.625.218-.625.484 0 .27.28.489.625.489 1.242.002 2.5.011 3.74.027h.01c.34 0 .62-.212.625-.479.005-.268-.27-.49-.615-.494m-8.01-.027h-.008c-1.24.011-2.506.03-3.76.057-.344.007-.617.222-.607.484.008.255.288.459.623.459h.018c1.248-.026 2.508-.045 3.741-.057.345-.003.623-.216.618-.477-.005-.258-.283-.466-.625-.466m16.03.107c-1.244-.042-2.507-.078-3.76-.107-.34-.005-.632.186-.645.433-.01.247.26.453.606.461 1.245.03 2.503.065 3.738.106h.03c.333 0 .608-.186.625-.426.015-.247-.25-.456-.595-.467M330.35 107c-1.24.035-2.506.079-3.757.126-.346.014-.611.219-.59.46.017.234.292.414.622.414.013 0 .023 0 .035-.002 1.25-.047 2.508-.09 3.742-.124.346-.01.614-.215.598-.456-.014-.241-.312-.426-.65-.418m30.075 1.177c-1.24-.066-2.503-.125-3.759-.176-.35-.015-.644.158-.664.384-.022.228.24.424.584.439 1.248.05 2.506.11 3.739.174.017.002.035.002.05.002.323 0 .599-.163.624-.38.027-.227-.23-.424-.574-.443m-38.092-.176c-1.243.056-2.506.116-3.756.183-.346.02-.601.216-.574.442.028.214.301.374.624.374h.053c1.245-.067 2.503-.13 3.738-.185.346-.014.606-.209.581-.435-.022-.225-.313-.395-.666-.379m46.111.237c-1.248-.085-2.511-.165-3.757-.236-.344-.02-.65.133-.683.343-.033.21.218.395.565.415 1.238.074 2.494.153 3.734.237l.071.003c.317 0 .588-.145.623-.339.04-.21-.208-.398-.553-.423m-54.129-.236c-1.244.072-2.506.15-3.754.232-.344.023-.592.212-.557.422.036.198.309.344.625.344.023 0 .046-.001.068-.003 1.242-.081 2.5-.16 3.737-.232.343-.02.597-.207.564-.418-.032-.212-.339-.365-.683-.345m61.148 1.292c-1.239-.102-2.5-.2-3.752-.29-.347-.027-.66.111-.705.305-.043.193.199.372.544.398 1.244.089 2.498.187 3.73.289.03.003.06.004.09.004.307 0 .576-.128.624-.303.05-.195-.189-.375-.531-.403m-67.466.026c-.043-.198-.355-.34-.7-.318-1.237.088-2.5.179-3.75.275-.344.026-.586.209-.54.408.04.183.311.315.62.315.028 0 .056-.002.083-.003 1.248-.096 2.506-.187 3.738-.273.345-.025.589-.205.549-.404m-8.003.975c-.05-.188-.368-.319-.713-.291-1.243.098-2.504.203-3.747.31-.343.03-.58.207-.525.394.048.17.315.292.62.292.034 0 .066-.001.101-.004 1.238-.106 2.494-.21 3.732-.308.343-.028.583-.203.532-.393m84.49.05c-1.242-.119-2.501-.234-3.748-.34-.342-.03-.67.092-.726.273-.058.18.177.35.52.38 1.24.105 2.492.22 3.727.337.038.004.076.005.114.005.298 0 .566-.111.62-.271.063-.18-.165-.352-.507-.385m-91.492.931c-.058-.18-.384-.3-.728-.27-1.241.11-2.5.224-3.744.34-.344.033-.572.205-.508.384.053.159.32.271.619.271.038 0 .076-.001.114-.005 1.239-.116 2.492-.231 3.729-.34.343-.03.576-.2.518-.38m98.51-.498c-1.237-.264-2.496-.522-3.741-.764-.344-.07-.68.148-.748.482-.068.337.153.661.499.73 1.235.24 2.488.498 3.719.76.045.01.091.015.135.015.292 0 .556-.198.62-.485.076-.334-.14-.663-.483-.738m-106.513.735c-.066-.341-.398-.566-.743-.5-1.235.235-2.492.483-3.737.736-.344.068-.565.402-.496.746.06.299.326.506.62.506.044 0 .084-.005.127-.013 1.242-.25 2.494-.498 3.724-.733.345-.066.57-.397.505-.742m114.532 1.346c-1.23-.29-2.486-.573-3.731-.842-.345-.074-.69.118-.772.43-.082.31.13.623.473.698 1.238.27 2.485.55 3.71.838.054.011.108.018.162.018.284 0 .542-.174.616-.436.09-.309-.115-.627-.458-.706m-122.535-.376c-.071-.328-.41-.537-.754-.47l-1.75.363c-.665.139-1.326.28-1.985.423-.344.076-.558.402-.482.73.07.282.331.472.621.472.046 0 .094-.005.143-.014.657-.144 1.313-.285 1.975-.421.583-.122 1.163-.244 1.743-.363.344-.068.563-.391.489-.72m129.553 1.448c-1.229-.312-2.482-.617-3.724-.91-.34-.08-.696.09-.791.38-.096.29.103.592.446.672 1.234.29 2.48.594 3.7.904.062.015.124.024.186.024.279 0 .534-.153.616-.39.103-.289-.09-.592-.433-.68m-136.557.512c-.084-.31-.43-.502-.772-.425-1.244.272-2.498.558-3.731.847-.343.081-.548.397-.458.704.074.261.335.432.62.432.053 0 .107-.005.16-.018 1.226-.289 2.475-.57 3.71-.843.343-.076.553-.388.471-.697m143.578 1.554c-1.226-.332-2.476-.658-3.713-.971-.34-.087-.707.062-.816.334-.11.272.08.56.42.647 1.23.311 2.472.637 3.691.965.068.019.138.029.208.029.27 0 .522-.136.616-.35.114-.269-.068-.561-.406-.654m-150.584-.594c-.095-.292-.45-.463-.792-.382-1.241.294-2.492.599-3.72.906-.342.085-.538.39-.438.682.083.239.34.392.618.392.06 0 .121-.006.183-.022 1.22-.307 2.466-.61 3.702-.901.342-.081.542-.382.447-.675m157.603 2.655c-1.218-.348-2.463-.694-3.7-1.028-.34-.091-.716.04-.84.293-.123.254.053.534.392.625 1.228.332 2.468.676 3.678 1.022.076.021.157.031.233.031.266 0 .515-.12.615-.312.129-.252-.04-.536-.378-.631m-165.608-.691c-.107-.273-.47-.428-.812-.342-1.242.31-2.493.634-3.714.958-.34.091-.524.386-.412.659.09.22.342.359.614.359.068 0 .138-.008.205-.027 1.214-.321 2.459-.643 3.693-.952.34-.088.532-.38.426-.655m-6.007 1.97c-.12-.262-.494-.4-.834-.308-1.232.327-2.476.665-3.702 1.006-.337.096-.513.38-.387.64.096.2.345.326.611.326.076 0 .152-.01.225-.03 1.219-.34 2.458-.677 3.685-1.002.34-.091.52-.374.402-.633m179.635.776c-1.219-.366-2.458-.728-3.685-1.077-.34-.096-.727.017-.865.255-.138.237.026.508.366.605 1.219.347 2.45.707 3.66 1.069.086.026.173.037.26.037.258 0 .503-.104.611-.28.144-.236-.01-.509-.347-.61m-187.644 1.195c-.132-.245-.512-.367-.852-.274-1.23.343-2.47.696-3.693 1.052-.337.099-.498.375-.361.618.103.187.348.299.61.299.084 0 .166-.011.248-.036 1.214-.354 2.449-.706 3.67-1.044.341-.096.51-.37.378-.615m193.662.854c-1.21-.379-2.444-.757-3.667-1.12-.34-.1-.737-.003-.89.22-.153.223-.003.484.336.585 1.215.362 2.44.735 3.642 1.113.094.029.194.043.29.043.251 0 .492-.094.605-.251.162-.221.02-.484-.316-.59m-200.67 1.118c-.145-.231-.534-.339-.875-.24-1.22.353-2.458.721-3.676 1.092-.336.102-.488.37-.338.601.111.17.354.27.61.27.09 0 .181-.013.269-.038 1.21-.369 2.442-.735 3.658-1.087.338-.098.496-.366.352-.598m207.687 1.928c-1.208-.394-2.435-.784-3.648-1.16-.335-.105-.747-.02-.914.187-.168.21-.032.463.303.568 1.205.373 2.427.761 3.626 1.151.101.034.21.049.317.049.245 0 .482-.083.602-.226.178-.206.05-.461-.286-.57m-214.697.048c-.158-.218-.557-.313-.897-.211-1.216.367-2.448.746-3.66 1.129-.335.105-.476.367-.311.584.116.155.356.246.607.246.097 0 .2-.016.293-.045 1.206-.38 2.432-.757 3.64-1.12.337-.104.485-.362.328-.583m221.715 1.994c-1.198-.406-2.419-.807-3.626-1.195-.334-.109-.755-.038-.941.158-.183.196-.06.442.274.55 1.2.385 2.411.785 3.604 1.188.108.035.227.053.344.053.24 0 .473-.073.6-.202.191-.194.078-.44-.255-.552m-228.725.984c-.172-.207-.582-.289-.92-.185-1.212.38-2.438.772-3.644 1.163-.333.11-.46.363-.284.568.123.143.36.224.603.224.109 0 .218-.015.32-.049 1.198-.39 2.418-.778 3.624-1.156.336-.104.47-.358.3-.565m234.745 2.053c-1.182-.411-2.395-.825-3.605-1.227-.332-.11-.763-.052-.966.132-.199.183-.092.422.24.533 1.202.4 2.406.811 3.58 1.22.118.04.248.059.374.059.233 0 .462-.064.597-.18.208-.182.11-.423-.22-.537m-241.756-.074c-.185-.196-.606-.267-.94-.158-1.212.39-2.433.791-3.628 1.193-.332.112-.445.358-.254.552.127.131.36.204.6.204.116 0 .235-.018.343-.053 1.19-.4 2.402-.8 3.605-1.187.335-.109.457-.355.274-.55m248.776 3.766c-1.183-.635-2.387-1.268-3.579-1.884-.332-.17-.776-.098-.994.162-.218.258-.126.606.207.777 1.183.61 2.38 1.24 3.555 1.87.123.068.264.099.404.099.23 0 .453-.085.59-.243.224-.256.14-.606-.183-.78m-254.79-.786c-.2-.186-.63-.246-.963-.136-1.199.4-2.415.81-3.605 1.222-.33.114-.432.354-.227.539.132.119.362.184.598.184.126 0 .253-.019.367-.06 1.188-.409 2.392-.817 3.588-1.213.331-.111.44-.35.241-.536m260.808 3.831c-1.175-.648-2.37-1.295-3.553-1.921-.327-.174-.783-.117-1.02.125-.233.243-.157.584.17.757 1.174.623 2.364 1.265 3.53 1.91.13.072.282.107.434.107.225 0 .444-.076.587-.22.24-.238.173-.578-.148-.758m-267.822-.762c-.213-.263-.653-.34-.986-.17-1.196.614-2.402 1.242-3.585 1.872-.325.174-.414.526-.194.786.137.164.362.252.593.252.134 0 .274-.032.393-.098 1.178-.625 2.376-1.25 3.566-1.858.33-.17.427-.52.213-.784m273.835 4.806c-1.165-.661-2.349-1.318-3.52-1.956-.325-.179-.793-.134-1.046.094-.25.229-.191.559.134.735 1.162.634 2.34 1.289 3.5 1.946.136.077.3.115.464.115.218 0 .435-.067.581-.195.26-.227.21-.557-.113-.74m-279.85-1.83c-.228-.248-.68-.31-1.007-.136-1.19.624-2.386 1.265-3.563 1.906-.325.176-.397.52-.165.767.141.149.365.228.59.228.145 0 .293-.035.421-.103 1.171-.64 2.363-1.276 3.542-1.898.328-.171.41-.514.183-.764m286.866 4.87c-1.148-.665-2.32-1.333-3.487-1.987-.323-.18-.804-.151-1.075.065-.268.216-.226.536.098.717 1.16.65 2.327 1.314 3.466 1.976.142.083.322.124.499.124.213 0 .423-.06.576-.175.274-.212.24-.534-.077-.72m-292.885-.892c-.245-.235-.706-.283-1.033-.107-1.174.632-2.363 1.284-3.534 1.939-.322.179-.38.514-.133.746.145.137.363.209.585.209.155 0 .315-.036.45-.113 1.163-.648 2.346-1.297 3.514-1.928.328-.174.396-.51.15-.746m297.9 4.931c-1.136-.678-2.298-1.355-3.451-2.017-.321-.182-.813-.167-1.1.036-.29.204-.262.517.056.701 1.147.656 2.303 1.33 3.434 2.003.15.09.34.133.532.133.206 0 .415-.051.567-.157.293-.2.278-.513-.037-.699m-304.918-1.95c-.258-.224-.733-.259-1.055-.08-1.172.644-2.35 1.308-3.508 1.968-.32.182-.363.51-.099.73.148.124.361.188.577.188.169 0 .34-.04.481-.12 1.148-.655 2.324-1.315 3.487-1.956.325-.18.376-.506.117-.73m-5.017 3.983c-.276-.213-.76-.237-1.082-.055-1.158.653-2.326 1.324-3.478 1.995-.316.184-.347.503-.065.713.15.114.362.17.573.17.181 0 .362-.043.509-.127 1.143-.667 2.305-1.334 3.457-1.985.322-.18.358-.5.086-.711m314.997 2c-.901-.685-1.82-1.37-2.734-2.04-.252-.186-.656-.182-.9.01-.246.192-.24.497.012.683.909.666 1.822 1.347 2.718 2.029.125.095.289.141.452.141.163 0 .324-.046.45-.141.25-.187.25-.492.002-.682m-321.979 1.984c-.235-.202-.63-.215-.885-.032-.918.663-1.846 1.34-2.754 2.02-.253.187-.263.498-.025.695.122.103.287.156.452.156.156 0 .31-.045.43-.136.906-.673 1.827-1.349 2.742-2.008.256-.183.273-.496.04-.695m326.99 2.047c-.895-.694-1.802-1.388-2.701-2.063-.25-.188-.664-.194-.926-.013-.258.18-.266.479-.018.666.894.671 1.796 1.361 2.685 2.051.128.1.303.151.478.151.16 0 .32-.041.445-.126.267-.176.282-.476.036-.666m-332.008 1.938c-.245-.191-.649-.195-.902-.008-.907.667-1.827 1.355-2.73 2.041-.247.189-.247.493.003.68.125.095.289.141.45.141.166 0 .33-.048.455-.143.897-.682 1.812-1.366 2.714-2.031.253-.185.258-.49.01-.68m337.02 2.09c-.88-.699-1.776-1.4-2.666-2.084-.247-.188-.67-.204-.947-.035-.276.17-.3.461-.054.651.888.681 1.779 1.376 2.653 2.072.131.105.32.16.507.16.155 0 .31-.037.437-.113.282-.168.311-.457.07-.65M157.8 162.131c-.259-.181-.672-.175-.923.013-.909.682-1.818 1.376-2.701 2.06-.246.191-.23.49.034.667.125.085.284.128.444.128.175 0 .35-.051.478-.151.88-.681 1.785-1.372 2.686-2.05.25-.188.243-.488-.018-.667m349.047 3.132c-.864-.704-1.748-1.411-2.63-2.102-.242-.191-.677-.217-.969-.058-.292.161-.33.445-.085.637.873.688 1.754 1.391 2.613 2.091.138.11.336.168.537.168.152 0 .303-.032.433-.101.295-.156.341-.441.101-.635m-353.065.855c-.276-.17-.698-.156-.944.033-.895.686-1.793 1.386-2.672 2.08-.243.192-.214.485.064.653.126.078.284.115.438.115.188 0 .372-.054.503-.157.876-.692 1.769-1.388 2.659-2.071.246-.19.224-.481-.048-.653m357.077 3.17c-.853-.707-1.724-1.42-2.593-2.117-.238-.194-.686-.23-.991-.078-.309.15-.365.429-.125.622.864.693 1.73 1.403 2.579 2.107.139.115.351.177.564.177.15 0 .3-.03.427-.09.311-.147.373-.426.139-.62m-363.098.817c-.29-.161-.72-.138-.966.053-.878.689-1.767 1.394-2.637 2.097-.241.192-.2.48.093.638.126.07.282.105.435.105.197 0 .391-.058.528-.167.864-.698 1.748-1.401 2.623-2.086.246-.19.21-.478-.076-.64m368.107 4.206c-.836-.712-1.695-1.43-2.549-2.133-.239-.195-.693-.239-1.02-.096-.322.142-.395.414-.16.609.851.7 1.705 1.412 2.538 2.122.142.12.367.185.597.185.145 0 .291-.024.416-.079.33-.14.41-.411.178-.608m-372.13.785c-.303-.154-.742-.123-.983.07-.872.695-1.749 1.406-2.606 2.112-.238.195-.182.477.123.627.13.063.28.093.429.093.21 0 .417-.059.555-.172.854-.704 1.726-1.411 2.591-2.103.242-.193.194-.474-.109-.627m377.141 3.237c-.825-.72-1.67-1.441-2.508-2.148-.234-.196-.698-.245-1.04-.113-.345.134-.432.4-.201.595.834.703 1.673 1.422 2.492 2.137.144.126.384.194.63.194.142 0 .282-.024.411-.07.345-.13.441-.396.216-.595m-382.164.752c-.318-.144-.767-.105-1.005.088-.865.705-1.73 1.421-2.571 2.127-.233.197-.164.471.157.615.127.057.277.083.423.083.221 0 .44-.062.58-.18.837-.703 1.698-1.415 2.557-2.115.239-.196.176-.47-.14-.618m385.172 4.27c-.811-.724-1.637-1.451-2.46-2.16-.23-.197-.706-.257-1.068-.131-.362.125-.467.385-.238.583.817.705 1.64 1.428 2.447 2.148.146.132.4.203.66.203.139 0 .275-.02.402-.062.365-.122.479-.383.257-.58m-389.2.722c-.33-.139-.789-.092-1.024.104-.849.705-1.703 1.426-2.534 2.138-.23.198-.144.467.191.603.127.05.271.075.416.075.235 0 .465-.066.607-.187.828-.71 1.676-1.427 2.521-2.128.236-.196.156-.466-.176-.605m394.208 4.298c-.789-.723-1.597-1.455-2.409-2.173-.223-.199-.716-.264-1.093-.147-.38.117-.508.372-.284.57.808.715 1.613 1.442 2.396 2.162.147.135.419.21.697.21.134 0 .268-.017.393-.053.383-.115.517-.369.3-.569m2.033 5.02c-.575-.726-1.17-1.46-1.765-2.184-.164-.2-.54-.272-.84-.164-.3.109-.412.36-.249.558.593.72 1.185 1.45 1.756 2.173.111.14.327.219.55.219.097 0 .196-.015.288-.046.302-.107.419-.356.26-.556m4.007 5.825c-.558-.971-1.137-1.955-1.72-2.925-.16-.266-.545-.375-.864-.24-.316.136-.442.461-.283.728.579.966 1.155 1.945 1.71 2.909.11.193.339.305.578.305.093 0 .19-.017.28-.054.32-.13.453-.455.299-.723m-530.482.046c-1.233-.098-2.496-.187-3.759-.267-.347-.022-.656.124-.691.325-.038.204.211.385.556.407 1.25.08 2.505.167 3.728.263.027.003.055.003.083.003.312 0 .58-.134.624-.318.045-.202-.197-.387-.541-.413m8.03 1.078c-1.234-.122-2.497-.237-3.752-.342-.344-.03-.668.093-.724.272-.056.18.177.35.524.378 1.243.104 2.495.217 3.718.338.04.004.078.007.119.007.296 0 .561-.11.62-.269.065-.179-.16-.35-.504-.384m7.033 1.487c-1.23-.29-2.492-.564-3.743-.82-.344-.07-.684.133-.76.45-.075.32.142.638.487.707 1.238.253 2.484.526 3.705.81.05.012.104.019.155.019.286 0 .547-.18.618-.448.087-.317-.12-.64-.462-.718m8.032 1.123c-1.22-.327-2.474-.64-3.726-.935-.343-.084-.7.08-.799.365-.098.284.099.579.442.66 1.239.293 2.48.604 3.688.927.064.017.132.026.199.026.272 0 .525-.146.615-.372.109-.28-.078-.581-.419-.67m511.392 1.29c-.535-.966-1.095-1.955-1.665-2.94-.156-.267-.552-.382-.89-.258-.334.124-.481.44-.324.71.566.976 1.123 1.96 1.656 2.92.11.202.353.32.61.32.091 0 .182-.015.27-.045.341-.12.493-.437.343-.706m-504.355.819c-1.218-.36-2.465-.71-3.707-1.04-.342-.09-.718.041-.842.293-.12.251.055.528.398.619 1.226.325 2.457.67 3.662 1.026.079.023.163.034.245.034.26 0 .507-.116.61-.303.134-.248-.029-.53-.366-.63m7.038 2.097c-1.204-.387-2.443-.765-3.678-1.126-.34-.099-.738.001-.889.223-.15.222.003.482.342.581 1.22.356 2.442.729 3.63 1.112.094.03.196.046.296.046.248 0 .487-.092.606-.246.161-.219.027-.482-.307-.59m499.326 2.114c-.504-.96-1.043-1.954-1.6-2.954-.152-.269-.562-.395-.919-.283-.36.114-.528.422-.376.69.554.994 1.087 1.982 1.587 2.933.11.207.374.336.655.336.084 0 .171-.013.256-.038.362-.108.54-.414.397-.684m3.016 6.052c-.02-.043-.49-1.09-1.506-2.99-.142-.27-.576-.406-.965-.309-.392.1-.594.395-.45.664.998 1.873 1.475 2.929 1.48 2.94.1.222.398.365.721.365.073 0 .148-.008.22-.023.398-.084.62-.374.5-.647" transform="translate(-295 -7883) translate(295 7883)"/>
                <g>
                    <path fill="#A8D3F1" d="M58.696 54L58 53.85l3.363-13.394C61.578 39.598 62.392 39 63.34 39H68v.663h-4.66c-.615 0-1.142.387-1.281.943L58.696 54z" transform="translate(-295 -7883) translate(295 7883) translate(210 118)"/>
                    <path fill="#FFF" d="M59.606 54L59 53.753l6.394-18.377C65.68 34.552 66.419 34 67.23 34H72v.7h-4.77c-.544 0-1.04.37-1.23.923L59.605 54z" transform="translate(-295 -7883) translate(295 7883) translate(210 118)"/>
                    <path fill="#A8D3F1" d="M69 36c-.552 0-1 1.791-1 4s.448 4 1 4v-8z" transform="translate(-295 -7883) translate(295 7883) translate(210 118)"/>
                    <path fill="#FFF" d="M77 35c0 3.314-1.12 6-2.5 6S72 38.314 72 35s1.12-6 2.5-6 2.5 2.686 2.5 6" transform="translate(-295 -7883) translate(295 7883) translate(210 118)"/>
                    <g transform="translate(-295 -7883) translate(295 7883) translate(210 118) translate(6 132)">
                        <mask id="1eg631gwsd" fill="#fff">
                            <use xlink:href="#qk6p733dzc"/>
                        </mask>
                        <path fill="#000" d="M24.447 38.832c-8.108 0-14.68-6.538-14.68-14.602 0-8.065 6.572-14.603 14.68-14.603s14.68 6.538 14.68 14.603c0 8.064-6.572 14.602-14.68 14.602m0-38.373C11.248.459.55 11.1.55 24.229S11.25 48 24.447 48c13.199 0 23.898-10.643 23.898-23.77 0-13.13-10.7-23.771-23.898-23.771" mask="url(#1eg631gwsd)"/>
                    </g>
                    <path fill="#D9DBE7" d="M34 156.5c0 2.485-2.015 4.5-4.5 4.5-2.486 0-4.5-2.015-4.5-4.5 0-2.486 2.014-4.5 4.5-4.5 2.485 0 4.5 2.014 4.5 4.5" transform="translate(-295 -7883) translate(295 7883) translate(210 118)"/>
                    <path fill="#FFF" d="M163 156.5c0 2.485-2.015 4.5-4.5 4.5s-4.5-2.015-4.5-4.5c0-2.486 2.015-4.5 4.5-4.5s4.5 2.014 4.5 4.5" transform="translate(-295 -7883) translate(295 7883) translate(210 118)"/>
                    <g transform="translate(-295 -7883) translate(295 7883) translate(210 118) translate(135 132)">
                        <mask id="pmjamz07jf" fill="#fff">
                            <use xlink:href="#1ljro44rqe"/>
                        </mask>
                        <path fill="#000" d="M24.451 38.832c-8.108 0-14.68-6.538-14.68-14.602 0-8.065 6.572-14.603 14.68-14.603s14.681 6.538 14.681 14.603c0 8.064-6.573 14.602-14.68 14.602m0-38.373c-13.2 0-23.9 10.642-23.9 23.77S11.253 48 24.453 48c13.198 0 23.897-10.643 23.897-23.77C48.35 11.1 37.65.459 24.451.459" mask="url(#pmjamz07jf)"/>
                    </g>
                    <path fill="#FFF" d="M47 61.5c0 3.59 3.134 6.5 7 6.5V55c-3.866 0-7 2.91-7 6.5" transform="translate(-295 -7883) translate(295 7883) translate(210 118)"/>
                    <path fill="#FB3640" d="M71.37 61.969s-.071-2.065-2.774-2.205c-2.702-.139-5.405-1.817-5.827-3.577-.103-.429-.156-.837-.177-1.21C62.53 53.859 61.564 53 60.436 53h-6.568c-1.194 0-2.163.961-2.163 2.148v12.644c0 1.186.969 2.149 2.163 2.149h5.016s2.955 2.012-.592 6.877c-3.547 4.863-19.34 25.495-23.563 32.707C30.507 116.737 30 124.62 30 124.62l3.378 13.921 21.621 12.077 6.588 6.125c.868.806 2.012 1.256 3.2 1.256h71.796v-10.903H193s-3.547-21.806-27.195-35.727h-52.87s9.01 9.728 7.123 23.315c-1.886 13.586-15.737 17.78-21.48 17.78H71.552c-7.263 0-16.216-14.257-17.06-29.018-.845-14.76 4.279-27.564 10.473-36.09 3.922-5.4 6.925-10.708 7.263-14.9.337-4.194-.858-10.488-.858-10.488" transform="translate(-295 -7883) translate(295 7883) translate(210 118)"/>
                    <path fill="#00081A" d="M197.224 142h-14.448c-1.533 0-2.776 1.12-2.776 2.5s1.243 2.5 2.776 2.5h14.448c1.533 0 2.776-1.12 2.776-2.5s-1.243-2.5-2.776-2.5" transform="translate(-295 -7883) translate(295 7883) translate(210 118)"/>
                    <g transform="translate(-295 -7883) translate(295 7883) translate(210 118) translate(0 124)">
                        <mask id="7h1r7rmiwh" fill="#fff">
                            <use xlink:href="#6yrs9qewng"/>
                        </mask>
                        <path fill="#D02A33" d="M29.947.055C13.407.055 0 13.135 0 29.272h59.893C59.893 13.136 46.486.055 29.947.055" mask="url(#7h1r7rmiwh)"/>
                    </g>
                    <path fill="#D02A33" d="M190 155h-59.572s-7.826-10.785-2.67-23.016c6.841-16.23 27.071-13.4 38.586-6.53 11.514 6.87 19.985 19.412 23.656 29.546" transform="translate(-295 -7883) translate(295 7883) translate(210 118)"/>
                    <path fill="#00081A" d="M113.271 113.405l-1.46 1.97c-.29.392-.76.625-1.263.625-.855 0-1.548-.662-1.548-1.478v-10.987c0-.327.278-.593.62-.593h32.715c5.526 0 10.444-1.737 12.822-3.603.751-.59 1.883-.385 2.366.421 1.358 2.274 2.906 6.73-1.015 12.06-.117.158-.312.255-.514.255h-40.03c-1.07 0-2.075.496-2.693 1.33" transform="translate(-295 -7883) translate(295 7883) translate(210 118)"/>
                    <path fill="#D9DBE7" d="M175.996 145h-37.992c-.555 0-1.004.447-1.004 1 0 .552.45 1 1.004 1h37.992c.554 0 1.004-.448 1.004-1 0-.553-.45-1-1.004-1M165.014 140h-27.027c-.545 0-.987.448-.987 1s.442 1 .987 1h27.027c.544 0 .986-.448.986-1s-.442-1-.986-1M156.946 135h-18.891c-.583 0-1.055.447-1.055 1 0 .552.472 1 1.055 1h18.891c.582 0 1.054-.448 1.054-1 0-.553-.472-1-1.054-1M161 111L200 111 200 86 161 86z" transform="translate(-295 -7883) translate(295 7883) translate(210 118)"/>
                    <path fill="#A4B9D0" d="M166 86L193 86 193 71 166 71z" transform="translate(-295 -7883) translate(295 7883) translate(210 118)"/>
                    <path fill="#000" d="M172.35 112c-.016 0-.034-.001-.05-.004-.193-.027-.325-.195-.296-.378l6.3-40.334c.028-.182.211-.306.398-.28.19.026.323.195.294.377l-6.3 40.335c-.025.165-.175.284-.345.284M188.65 112c-.17 0-.32-.119-.346-.284l-6.3-40.335c-.029-.182.103-.351.295-.377.186-.027.369.099.397.28l6.3 40.334c.029.183-.103.351-.294.378-.017.003-.035.004-.052.004" transform="translate(-295 -7883) translate(295 7883) translate(210 118)"/>
                    <path fill="#FFF" d="M56 100s-4.806 6.544-6.448 14.751L45 115s2.9-7.825 6.883-13.217L56 100z" transform="translate(-295 -7883) translate(295 7883) translate(210 118)"/>
                    <path fill="#000" d="M204.33 112h-48.66c-.37 0-.67-.224-.67-.5s.3-.5.67-.5h48.66c.37 0 .67.224.67.5s-.3.5-.67.5" transform="translate(-295 -7883) translate(295 7883) translate(210 118)"/>
                    <path fill="#FB8F08" d="M72.929 73.453c-.03.388-.235.93-.302 1.334-.966.127-1.471.181-1.883.21C68.87 75.126 65 70.139 65 68.644c0-1.167 4.118-4.923 6.912-6.643.224.578 1.384 6.847 1.017 11.453" transform="translate(-295 -7883) translate(295 7883) translate(210 118)"/>
                    <path fill="#00081A" d="M79.498 71.286c-.231-.367-.54-.666-.9-.883v-.014c-.321-.175-3.523-2.104-3.523-2.104v.012c-.373-.19-.783-.297-1.221-.297C72.273 68 71 69.357 71 71.028c0 .543.128 1.047.372 1.48.206.381.49.721.836.979l.013.013c.128.095.257.163.399.245l1.08.638 1.838 1.1s.014.014.026.014l.335.204c.385.19.797.299 1.234.299 1.452 0 2.648-1.141 2.841-2.608.013-.136.026-.272.026-.408 0-.625-.18-1.223-.502-1.698" transform="translate(-295 -7883) translate(295 7883) translate(210 118)"/>
                    <path fill="#373737" d="M88.513 142h-6.296s-2.284 3-5.367 3.389c-1.734.218-4.947.19-7.428.125-1.876-.049-3.422 1.416-3.422 3.243 0 1.79 1.493 3.243 3.333 3.243h19.18c.821 0 1.487-.648 1.487-1.446L88.513 142z" transform="translate(-295 -7883) translate(295 7883) translate(210 118)"/>
                    <path fill="#000" d="M89.513 143h-6.295s-2.285 3-5.368 3.389c-1.734.219-4.947.192-7.428.125-1.876-.049-3.422 1.417-3.422 3.243 0 1.79 1.493 3.243 3.334 3.243h19.18c.82 0 1.486-.648 1.486-1.446L89.513 143z" transform="translate(-295 -7883) translate(295 7883) translate(210 118)"/>
                    <path fill="#FF9580" d="M84 142c.224 1.146 1.26 2 2.5 2 1.242 0 2.277-.858 2.5-2h-5z" transform="translate(-295 -7883) translate(295 7883) translate(210 118)"/>
                    <path fill="#232323" d="M136.755 88H88.39C76 88 76 100.825 76 106.23c0 5.406 4.4 35.77 4.4 35.77h9.38l2.895-35.77h35.666c7.411 0 12.004-8.28 8.414-18.23" transform="translate(-295 -7883) translate(295 7883) translate(210 118)"/>
                    <path fill="#2C2C2C" d="M137.898 89H90.047C78 89 78 101.587 78 106.893 78 112.197 82.278 142 82.278 142h9.12l2.815-35.107h34.678c7.205 0 12.498-8.128 9.007-17.893" transform="translate(-295 -7883) translate(295 7883) translate(210 118)"/>
                    <path fill="#FFD479" d="M121.879 25s3.243-3.47 5.121-8.984c0 0-9.325-12.94-25-5.938L121.879 25z" transform="translate(-295 -7883) translate(295 7883) translate(210 118)"/>
                    <path fill="#FF9580" d="M102.202 10.133s-1.13 8.15 1.95 14.485c3.08 6.335 3.841 6.479 9.388 5.415l.937 6.967L125 33.383s-4.022-10.906-2.432-12.863c1.341-1.651 1.816-4.546-.137-5.549-3.091-1.587-5.346 1.912-5.48 3.37l-1.517-5.483s-10.873-3.585-13.232-2.725" transform="translate(-295 -7883) translate(295 7883) translate(210 118)"/>
                    <path fill="#D02A33" d="M104.444 11c-.038 0-.077-.003-.115-.01L87.452 7.992c-.304-.054-.502-.318-.441-.59.06-.271.357-.446.66-.392l16.877 2.998c.304.054.502.317.441.588-.054.238-.285.402-.545.404" transform="translate(-295 -7883) translate(295 7883) translate(210 118)"/>
                    <path fill="#D02A33" d="M102 10.333L127.72 16S130.41 3.898 119.121.768C107.834-2.36 102.306 4.712 102 10.333" transform="translate(-295 -7883) translate(295 7883) translate(210 118)"/>
                    <path fill="#EF8978" d="M125 60.68s-.286.77-.767 1.938c-.143.36-.312.77-.494 1.206-.078.154-.143.321-.208.475-.078.155-.143.32-.208.476-1.364 3.079-3.328 6.877-4.9 7.66-.884.435-5.238.487-10.671.371-11.114-.256-26.739-1.27-26.739-1.27s-.767.116-1.897.295c-.234-.347-.546-.63-.91-.834v-.012c-.325-.167-3.562-1.99-3.562-1.99v.013c-.377-.18-.792-.281-1.235-.281-1.598 0-2.885 1.282-2.885 2.86 0 .513.13.989.377 1.399-.026.012-.065.012-.091.012-1.352.078-3.835-2.693-4.81-4.529 1.08-1.475 4.004-3.952 6.032-5.197 0 0-.027-.884-.806-1.539 1.066-.731 2.014-1.245 2.521-1.283 1.703-.115 9.073 4.824 9.073 4.824l24.333-1.296 5.382-.282.168-.526.17-.474.155-.488L114.12 59 125 60.68z" transform="translate(-295 -7883) translate(295 7883) translate(210 118)"/>
                    <path fill="#FB3640" d="M109.729 88.656s-2.121-32.506.873-43.844c2.918-11.045 12.449-15.455 17.763-8.4 5.314 7.057 3.207 18.436 3.653 27.718.83 17.302 4.816 22.678 4.982 25.87h-27.271v-1.344z" transform="translate(-295 -7883) translate(295 7883) translate(210 118)"/>
                    <path fill="#FF9580" d="M125 61.68s-.168.463-.465 1.207c-.051.154-.129.308-.194.487-.051.154-.129.308-.193.475-1.278 3.13-3.756 8.634-5.679 9.585-.878.435-5.086.5-10.404.384h-.012c-11.037-.257-26.732-1.27-26.732-1.27s-.555.09-1.407.218c.013-.129.026-.257.026-.384 0-.59-.18-1.156-.504-1.604-.231-.347-.542-.63-.903-.834v-.014c-.323-.166-3.537-1.988-3.537-1.988v.013c-.374-.18-.787-.282-1.226-.282-1.587 0-2.865 1.282-2.865 2.86 0 .514.128.988.374 1.398.206.36.49.681.839.924l.013.014c.129.09.258.154.4.23l1.084.604c-.168.025-.335.038-.49.064-.865.115-1.575.205-1.937.23-1.69.116-5.188-4.362-5.188-5.709 0-.205.154-.5.412-.872 1.072-1.476 3.976-3.952 5.99-5.196.723-.45 1.33-.732 1.704-.757 1.69-.116 9.01 4.81 9.01 4.81l24.253-1.282h.012l5.24-.282.827-2.49.167-.474.156-.488.426-1.257 10.041 1.566.762.115z" transform="translate(-295 -7883) translate(295 7883) translate(210 118)"/>
                    <path fill="#D02A33" d="M113.805 51.429L112 61.79 125.54 64l2.615-10.363c.93-3.682-1.302-7.419-4.984-8.348-.205-.051-.412-.094-.621-.126-4.136-.646-8.026 2.142-8.745 6.266z" transform="translate(-295 -7883) translate(295 7883) translate(210 118)"/>
                    <path fill="#FA8B98" d="M110.509 40.491L110.509 40.509 110.491 40.5z" transform="translate(-295 -7883) translate(295 7883) translate(210 118)"/>
                </g>
            </g>
        </g>
    </g>
</svg>
