<?xml version="1.0" encoding="UTF-8"?>
<svg width="588px" height="247px" viewBox="0 0 588 247" version="1.1" xmlns="http://www.w3.org/2000/svg" xmlns:xlink="http://www.w3.org/1999/xlink">
    <title>Group 3</title>
    <defs>
        <path d="M0.764705882,20.1427081 C0.764705882,31.2675986 20.2645443,56 20.2645443,56 L20.2645443,56 C20.2645443,56 39.7647059,31.2675986 39.7647059,20.1427081 L39.7647059,20.1427081 C39.7647059,9.01815147 31.0340523,0 20.2645443,0 L20.2645443,0 C9.49568259,0 0.764705882,9.01815147 0.764705882,20.1427081 M11.1502927,19.9380764 C11.1502927,14.7381598 15.230587,10.5226789 20.2645443,10.5226789 L20.2645443,10.5226789 C25.2985016,10.5226789 29.3791191,14.7381598 29.3791191,19.9380764 L29.3791191,19.9380764 C29.3791191,25.1376591 25.2985016,29.35314 20.2645443,29.35314 L20.2645443,29.35314 C15.230587,29.35314 11.1502927,25.1376591 11.1502927,19.9380764" id="path-1"></path>
        <polygon id="path-3" points="0.549171212 0.458732308 48.3449591 0.458732308 48.3449591 48 0.549171212 48"></polygon>
        <polygon id="path-5" points="0.552809091 0.458732308 48.3493394 0.458732308 48.3493394 48 0.552809091 48"></polygon>
        <polygon id="path-7" points="0 0.0551707317 59.893275 0.0551707317 59.893275 29.2715122 0 29.2715122"></polygon>
    </defs>
    <g id="UI" stroke="none" stroke-width="1" fill="none" fill-rule="evenodd">
        <g id="Group-3">
            <path d="M586.843336,237.25184 C586.808824,238.175218 586.861046,241.424604 587,247 L13.0663911,247 C15.1070639,242.540754 16.7565602,239.272075 18.01488,237.193965 C18.428782,236.53037 18.8424432,235.866555 19.2563452,235.232336 C21.3506555,231.913922 23.6520372,228.651848 26.1602495,225.448746 C29.1856587,221.552453 32.4956707,217.714256 36.0640403,214.020746 C36.8655992,213.183744 37.6671581,212.374802 38.4689577,211.567614 C38.649784,211.394207 38.8308511,211.2208 39.0119181,211.019332 C39.4773472,210.586581 39.943017,210.124454 40.4082053,209.691922 C42.3734572,207.786415 44.287182,205.996878 46.1746617,204.266533 C47.1312833,203.399935 48.0623822,202.562932 48.9929995,201.72593 C50.8289522,200.08152 52.6133778,198.465171 54.3200312,196.906698 C59.5690499,192.087467 64.2235812,187.556955 67.8954865,182.448785 C69.1624744,180.716904 70.3004039,178.899087 71.3087934,177.02208 C73.1445053,173.588133 74.5667967,169.866563 75.4978956,165.651736 C75.7047262,164.585205 75.9115568,163.487324 76.0666195,162.362917 C76.5320486,159.303627 76.7648835,155.985213 76.6873521,152.348264 C76.6615886,149.491757 76.4545172,146.402871 76.0666195,143.112518 C75.9893289,142.420642 75.8855525,141.699172 75.7822576,140.948106 C75.2390564,136.87994 74.411734,132.463864 73.2998088,127.644414 C72.9896833,126.288943 72.6533127,124.903658 72.2914193,123.488997 C71.6706867,121.035426 71.1794942,118.61189 70.7915965,116.246009 C70.0418055,111.656307 69.7311984,107.241546 69.783207,102.940783 C69.8089705,99.0460249 70.1451004,95.2652641 70.7915965,91.6283151 L70.7915965,91.5704396 C71.3605612,88.107994 72.1878836,84.7599841 73.1965139,81.5272867 C85.5822719,42.2214921 127.731411,18.9897405 138.927712,13.794976 C154.882321,6.37770464 173.784808,2.22228764 193.411082,0.693409865 C195.0142,0.577658866 196.617318,0.462346318 198.220435,0.375533069 C202.745908,0.115750999 207.322908,0 211.873904,0 C213.73562,0 215.571572,0.0295954258 217.407525,0.0578754993 C220.484702,0.144469523 223.535875,0.260001296 226.613052,0.462346318 C229.457394,0.635534365 232.275973,0.837221711 235.094551,1.09722301 C246.782527,2.19422679 258.185659,4.04076213 268.787714,6.52305107 C278.432906,8.77339955 287.120995,11.6016261 295.03353,14.863042 L295.059775,14.8919798 C313.729186,22.5970941 327.847361,32.6689655 339.121916,43.1453078 C341.733423,45.5688444 344.215872,48.0221955 346.543258,50.4755467 C346.853625,50.7927658 347.189754,51.1391419 347.500121,51.4850796 C348.223907,52.235488 348.921931,52.9858965 349.620194,53.7652427 C349.930561,54.1111804 350.266931,54.4577757 350.577057,54.804371 C352.61984,57.0836572 354.585092,59.3638204 356.446808,61.586108 C357.377907,62.7111726 358.308524,63.8371142 359.21386,64.9334603 C364.126749,70.994165 368.470914,76.6503989 372.608248,81.5272867 C373.125445,82.162821 373.642642,82.7393838 374.159598,83.3451035 C381.270574,91.4266277 387.864593,96.9094544 395.932191,97.5156126 C401.000624,97.890488 406.921902,96.9377345 413.567449,95.4947931 C414.239949,95.3512004 414.886445,95.2073886 415.558946,95.0339813 C425.772621,92.7540374 437.667428,89.5215592 450.880989,88.1658695 C467.947042,86.4043936 487.263431,87.7896788 508.104925,98.3526151 C508.777425,98.6992104 509.423922,99.0460249 510.096422,99.3910857 C513.147595,101.03703 516.224531,102.854847 519.327953,104.903727 C519.973968,105.307979 520.620705,105.740729 521.266719,106.173261 C524.421668,108.337673 527.628145,110.733368 530.860384,113.388187 C530.937675,113.446063 531.015447,113.503719 531.092979,113.59119 C532.489506,114.715597 533.885553,115.927475 535.282081,117.168948 C536.911203,118.61189 538.566088,120.112487 540.220974,121.699241 C544.203005,125.537658 548.262808,129.75117 552.32237,134.426589 C555.270489,137.803098 558.011295,141.208984 560.493744,144.670991 C562.226402,147.038406 563.855283,149.434101 565.355106,151.829357 C565.639468,152.262108 565.898066,152.694859 566.182669,153.127391 C568.768413,157.370279 571.095558,161.641227 573.164105,165.940895 C573.396939,166.460897 573.655297,167.008961 573.914377,167.528963 C576.62942,173.474136 578.879034,179.44737 580.662978,185.392543 C580.818281,185.911011 580.973344,186.401637 581.128407,186.89336 C581.904202,189.57624 582.576462,192.260655 583.197195,194.94485 C584.024758,198.610299 584.697017,202.245932 585.240219,205.881566 C586.636265,215.146469 587.127939,224.264929 586.972395,233.038548 C586.946872,234.453209 586.920868,235.866555 586.843336,237.25184 Z" id="Fill-1" fill="#1D3461" transform="translate(300.033196, 123.500000) scale(1, -1) translate(-300.033196, -123.500000) "></path>
            <path d="M85.5,148.824913 C78.6553361,148.824913 73.1083848,143.123832 73.1083848,136.061482 C73.1083848,134.333199 73.4432407,132.692195 74.0501912,131.180099 C75.9131436,126.537023 80.3298102,123.276332 85.5,123.276332 C92.3448588,123.276332 97.8918101,128.999333 97.8918101,136.061482 C97.8918101,142.17382 93.7472382,147.249268 88.2002868,148.500935 C87.3420969,148.717323 86.4211459,148.824913 85.5,148.824913 M85.5,109 C79.1784753,109 73.3594292,111.289361 68.796385,115.111935 C62.8097161,120.144347 59,127.789696 59,136.342222 C59,151.439056 85.5,185 85.5,185 C85.5,185 97.5359039,169.753344 105.364475,155.196473 C109.174191,148.156244 112,141.265838 112,136.342222 C112,121.246193 100.131524,109 85.5,109" id="Fill-304" fill="#FB3640"></path>
            <g id="Group-308" transform="translate(529.000000, 153.000000)">
                <mask id="mask-2" fill="white">
                    <use xlink:href="#path-1"></use>
                </mask>
                <g id="Clip-307"></g>
                <path d="M0.764705882,20.1427081 C0.764705882,31.2675986 20.2645443,56 20.2645443,56 L20.2645443,56 C20.2645443,56 39.7647059,31.2675986 39.7647059,20.1427081 L39.7647059,20.1427081 C39.7647059,9.01815147 31.0340523,0 20.2645443,0 L20.2645443,0 C9.49568259,0 0.764705882,9.01815147 0.764705882,20.1427081 M11.1502927,19.9380764 C11.1502927,14.7381598 15.230587,10.5226789 20.2645443,10.5226789 L20.2645443,10.5226789 C25.2985016,10.5226789 29.3791191,14.7381598 29.3791191,19.9380764 L29.3791191,19.9380764 C29.3791191,25.1376591 25.2985016,29.35314 20.2645443,29.35314 L20.2645443,29.35314 C15.230587,29.35314 11.1502927,25.1376591 11.1502927,19.9380764" id="Fill-306" fill="#FB3640" mask="url(#mask-2)"></path>
            </g>
            <path d="M345.384868,36.0271695 C344.139901,36.0115572 342.874875,36.0018248 341.627303,36 L341.624698,36 C341.279785,36 341,36.2177616 341,36.4843877 C341,36.7548662 341.279785,36.9728305 341.624698,36.9728305 C342.86732,36.9746553 344.124792,36.9843877 345.36507,37 L345.374969,37 C345.714932,37 345.994978,36.7879157 345.999927,36.5214923 C346.005137,36.2528386 345.730041,36.0310219 345.384868,36.0271695 M337.374676,36 L337.367379,36 C336.126519,36.0114039 334.8609,36.0302792 333.60779,36.056626 C333.262716,36.0642941 332.990358,36.2793944 333.000262,36.5414864 C333.007559,36.7963036 333.287737,37 333.622907,37 L333.64063,37 C334.888526,36.9736532 336.149455,36.9547778 337.381974,36.943374 C337.727048,36.9396382 338.005141,36.7265041 337.999928,36.4661817 C337.994976,36.2076288 337.717144,36 337.374676,36 M353.404221,36.1074823 C352.161214,36.0646086 350.898403,36.028632 349.645494,36.0001117 C349.305427,35.9947059 349.012786,36.1861461 349.000278,36.4329493 C348.990115,36.6799388 349.260084,36.885546 349.605624,36.8944935 C350.850716,36.9232002 352.108836,36.9589904 353.344025,37 L353.373992,37 C353.706764,37 353.981684,36.8139656 353.999404,36.5744323 C354.014258,36.3274428 353.7495,36.1182939 353.404221,36.1074823 M330.348648,36.0002974 C329.109762,36.035266 327.843228,36.0787947 326.591823,36.125966 C326.246238,36.1399898 325.980986,36.34452 326.001069,36.5858401 C326.018544,36.8200572 326.293968,37 326.624425,37 C326.636683,37 326.646855,37 326.659374,36.9981787 C327.908433,36.9510075 329.167402,36.9089358 330.401333,36.8741493 C330.746657,36.8635859 331.014517,36.6590557 330.99939,36.4179177 C330.984523,36.1765976 330.686929,35.9915552 330.348648,36.0002974 M360.423849,37.177306 C359.183298,37.1113393 357.920814,37.0520723 356.665118,37.0008794 C356.314442,36.9861056 356.021212,37.1592682 356.001367,37.384998 C355.97865,37.6126175 356.241853,37.8087997 356.584956,37.8235734 C357.833079,37.8745946 359.090864,37.9340333 360.323843,37.9982821 C360.341337,38 360.358832,38 360.373976,38 C360.696974,38 360.97271,37.8368011 360.998038,37.6206915 C361.025194,37.3932438 360.767214,37.1955155 360.423849,37.177306 M322.331757,37.0010876 C321.089204,37.0566206 319.826287,37.1170936 318.576163,37.1842102 C318.230211,37.2038 317.974599,37.4000393 318.002014,37.6255782 C318.02969,37.8397039 318.303057,38 318.626032,38 L318.678512,38 C319.923936,37.9328834 321.181632,37.8708773 322.416874,37.8151739 C322.762825,37.8005241 323.023398,37.6059883 322.998333,37.3802791 C322.975618,37.1547402 322.68528,36.9847343 322.331757,37.0010876 M368.443248,37.2383836 C367.195167,37.1528231 365.931645,37.0734648 364.686181,37.0017403 C364.341774,36.9818609 364.035577,37.1345341 364.002864,37.3450958 C363.97015,37.5542262 364.221389,37.7404556 364.568151,37.760335 C365.806287,37.8336499 367.061958,37.9130081 368.30245,37.9968193 C368.325218,37.9984097 368.350604,38 368.373111,38 C368.689514,38 368.960643,37.8548015 368.995712,37.6610974 C369.036015,37.4505357 368.787655,37.2627159 368.443248,37.2383836 M314.314391,37.0017511 C313.069924,37.0739233 311.807675,37.1523366 310.560331,37.2336303 C310.216462,37.2566742 309.968039,37.4456662 310.003341,37.6559418 C310.038643,37.8540553 310.311908,38 310.628059,38 C310.650809,38 310.67356,37.9985598 310.695787,37.9969595 C311.937901,37.9155057 313.195443,37.8372525 314.432588,37.7650803 C314.776457,37.7450769 315.029848,37.5576852 314.997161,37.3472496 C314.964736,37.1353737 314.65826,36.9817477 314.314391,37.0017511 M375.461773,38.2937465 C374.223053,38.1916287 372.961505,38.0937966 371.709928,38.003058 C371.36253,37.9774916 371.050291,38.1150773 371.004899,38.3094115 C370.96213,38.5022679 371.204049,38.6809372 371.548823,38.7065036 C372.792529,38.7957643 374.046992,38.8935965 375.278103,38.9957143 C375.308277,38.99867 375.338714,39 375.368626,39 C375.675879,39 375.945349,38.8723158 375.993365,38.6966021 C376.043481,38.5022679 375.804185,38.3221208 375.461773,38.2937465 M307.995688,38.3203535 C307.952705,38.1215433 307.640817,37.9793199 307.296167,38.002469 C306.058572,38.0896187 304.796341,38.1810048 303.545904,38.2767787 C303.201516,38.3029538 302.96013,38.4858774 303.005472,38.6849902 C303.045572,38.8679138 303.317361,39 303.626628,39 C303.654148,39 303.681929,38.998487 303.709449,38.9971253 C304.957265,38.9012001 306.214779,38.809814 307.447131,38.724026 C307.791781,38.6993639 308.035788,38.519315 307.995688,38.3203535 M299.993291,39.2952729 C299.942842,39.1073552 299.625434,38.9760289 299.279912,39.0036765 C298.036818,39.1017393 296.775858,39.206858 295.532501,39.3132726 C295.189869,39.3436563 294.952601,39.52063 295.008043,39.7084037 C295.056127,39.8784655 295.323348,40 295.62867,40 C295.661514,40 295.694096,39.998704 295.729305,39.9958241 C296.967406,39.8895534 298.223374,39.7858747 299.461475,39.6876679 C299.804108,39.6601643 300.04374,39.4846305 299.993291,39.2952729 M384.483458,39.3441165 C383.241242,39.2264433 381.981893,39.1113881 380.734669,39.0043247 C380.393343,38.9751131 380.064405,39.09692 380.008791,39.277977 C379.950805,39.4579316 380.185912,39.6271385 380.529874,39.6575902 C381.769454,39.7634134 383.021159,39.8770907 384.255995,39.9946262 C384.293686,39.9986221 384.33164,40 384.369595,40 C384.667959,40 384.936012,39.8889407 384.989517,39.7289658 C385.052511,39.549149 384.825048,39.3771862 384.483458,39.3441165 M292.991143,40.2753431 C292.932923,40.0956921 292.606784,39.9743657 292.262995,40.0046285 C291.021665,40.1141249 289.762685,40.228986 288.518721,40.3452227 C288.174931,40.3782367 287.947319,40.5499094 288.010545,40.7294229 C288.063759,40.8877525 288.331678,41 288.629892,41 C288.667828,41 288.705763,40.9986244 288.743962,40.9947728 C289.982657,40.8785361 291.236369,40.7636749 292.472693,40.6554166 C292.816483,40.6250162 293.0491,40.4547191 292.991143,40.2753431 M391.501794,39.7774618 C390.263707,39.5126344 389.005489,39.2552851 387.75972,39.012892 C387.416425,38.9435263 387.080812,39.1611644 387.012471,39.4953575 C386.943865,39.8318713 387.165046,40.1560077 387.510725,40.2253734 C388.746428,40.4654458 389.999349,40.7227951 391.229754,40.9850438 C391.275314,40.9948427 391.32114,41 391.364582,41 C391.656753,41 391.921112,40.8019596 391.984685,40.5149558 C392.060973,40.1810206 391.844824,39.851727 391.501794,39.7774618 M284.988593,40.5122984 C284.922555,40.1706253 284.590781,39.9457432 284.2458,40.0113887 C283.011157,40.2468163 281.75406,40.4946347 280.50938,40.7477259 C280.164662,40.8160078 279.943832,41.1500354 280.012511,41.4940813 C280.073266,41.792518 280.339266,42 280.633266,42 C280.676587,42 280.717267,41.9949909 280.760059,41.9873454 C282.002363,41.7368906 283.25444,41.4890722 284.484064,41.2536446 C284.829046,41.1877355 285.054367,40.8566078 284.988593,40.5122984 M399.521029,41.8583051 C398.291155,41.5681051 397.035431,41.2851602 395.789834,41.0159998 C395.444724,40.9415151 395.099346,41.1342562 395.017532,41.4452538 C394.935718,41.7562514 395.148115,42.0694255 395.490561,42.1436683 C396.728696,42.4130706 397.976425,42.6938391 399.201768,42.9816207 C399.255334,42.9932287 399.308899,43 399.362731,43 C399.646815,43 399.905048,42.8261219 399.978867,42.5637328 C400.068676,42.2551535 399.864008,41.9371427 399.521029,41.8583051 M276.98563,41.4823502 C276.914559,41.1538261 276.575914,40.9446961 276.232494,41.0128851 C275.64961,41.1320258 275.066726,41.253448 274.481454,41.3751236 C273.817157,41.5137831 273.155512,41.6549775 272.496518,41.7984533 C272.152834,41.8739936 271.939092,42.1999828 272.015466,42.5282535 C272.08415,42.8103888 272.346156,43 272.636273,43 C272.682415,43 272.730414,42.9951837 272.778944,42.985551 C273.435551,42.8420752 274.092158,42.7008808 274.753538,42.5647562 C275.336688,42.4430806 275.91692,42.321405 276.497153,42.2022643 C276.840572,42.1340752 277.059618,41.8106209 276.98563,41.4823502 M406.539322,42.9304129 C405.310049,42.6180899 404.057409,42.3125911 402.815245,42.0200583 C402.47469,41.9393047 402.119095,42.1096834 402.024019,42.3999414 C401.928406,42.6901994 402.126615,42.9916037 402.469856,43.0723573 C403.704232,43.3626153 404.949082,43.6660668 406.170835,43.9761151 C406.232339,43.991356 406.29438,44 406.356421,44 C406.634935,44 406.890082,43.8473643 406.972267,43.6091981 C407.0754,43.3212148 406.882025,43.0177633 406.539322,42.9304129 M269.982207,43.4416375 C269.897688,43.1322266 269.55241,42.9404689 269.209532,43.0167389 C267.966,43.2890974 266.71207,43.5754108 265.478936,43.8641301 C265.136059,43.9449715 264.931292,44.2613597 265.021144,44.5683646 C265.095265,44.8291744 265.356023,45 265.640244,45 C265.693835,45 265.747693,44.9954286 265.801284,44.9817144 C267.026952,44.6929951 268.27555,44.4112532 269.51135,44.1388946 C269.854495,44.0626246 270.064327,43.7508078 269.982207,43.4416375 M413.560343,44.9957908 C412.33391,44.6636325 411.083647,44.3381347 409.846923,44.0246684 C409.506533,43.9380838 409.139876,44.0865452 409.030746,44.3585454 C408.921886,44.6309753 409.111443,44.919519 409.451833,45.0061036 C410.680974,45.3174213 411.923384,45.643134 413.141963,45.9709952 C413.209662,45.9896872 413.279798,46 413.349934,46 C413.620188,46 413.872299,45.8637851 413.965723,45.6493647 C414.08027,45.3812318 413.898295,45.088606 413.560343,44.9957908 M262.976461,44.4015725 C262.880971,44.1100354 262.525835,43.9389058 262.183575,44.0202438 C260.942746,44.3138372 259.691724,44.6186259 258.464038,44.9256995 C258.121509,45.01115 257.92597,45.3159388 258.026288,45.6077044 C258.108634,45.8466917 258.366134,46 258.64402,46 C258.703299,46 258.764991,45.9936026 258.826952,45.9782947 C260.046859,45.6709926 261.293053,45.3687171 262.528517,45.0769515 C262.87051,44.995842 263.071414,44.6953943 262.976461,44.4015725 M420.578845,47.0566856 C419.360592,46.7088702 418.116076,46.3632935 416.879767,46.0293175 C416.538339,45.93753 416.162713,46.0683933 416.039329,46.322386 C415.916217,46.5761753 416.091856,46.855608 416.430548,46.9471919 C417.659471,47.2793363 418.898515,47.6230813 420.108834,47.9686579 C420.18489,47.990231 420.266417,48 420.342198,48 C420.607845,48 420.857076,47.8809409 420.956659,47.6875971 C421.085516,47.4356395 420.917537,47.1523399 420.578845,47.0566856 M254.970706,46.3658817 C254.864228,46.0925137 254.501283,45.9381054 254.158878,46.0235737 C252.916543,46.334565 251.666371,46.6579526 250.444845,46.9815576 C250.105142,47.0733327 249.920833,47.3675784 250.032716,47.6409463 C250.123249,47.8601626 250.374851,48 250.647262,48 C250.714824,48 250.784819,47.9915184 250.852111,47.9728154 C252.065799,47.6516027 253.310566,47.3301724 254.545334,47.0211383 C254.885037,46.9334953 255.076914,46.6414244 254.970706,46.3658817 M248.963855,48.335064 C248.843697,48.0742109 248.469874,47.9368324 248.130109,48.0283489 C246.898291,48.354986 245.65394,48.6934517 244.427571,49.0342002 C244.090531,49.1296595 243.915063,49.414585 244.04067,49.6733629 C244.137395,49.8744502 244.385884,50 244.652356,50 C244.728374,50 244.804119,49.990039 244.87714,49.9701171 C246.09588,49.6295761 247.335327,49.2929781 248.561695,48.9684162 C248.90146,48.8766922 249.081833,48.5940494 248.963855,48.335064 M428.598688,49.1107294 C427.379975,48.7451963 426.140518,48.3833378 424.914337,48.0344374 C424.574392,47.9379289 424.186595,48.0510702 424.048847,48.2887634 C423.910822,48.5262632 424.075401,48.7972219 424.415346,48.8937304 C425.633505,49.2408902 426.865217,49.601008 428.075632,49.9628665 C428.160825,49.988976 428.248232,50 428.335638,50 C428.593156,50 428.837672,49.8959488 428.946377,49.7197579 C429.089934,49.4839987 428.93559,49.211106 428.598688,49.1107294 M240.955091,50.3052024 C240.823087,50.0598323 240.443028,49.9381382 240.10257,50.0312917 C238.87274,50.3737791 237.63246,50.7273657 236.41033,51.0831325 C236.072622,51.1820337 235.911743,51.4577282 236.048972,51.7013145 C236.151824,51.8876213 236.397405,52 236.658661,52 C236.743088,52 236.82504,51.9885045 236.906717,51.9637296 C238.120597,51.610143 239.355652,51.258142 240.577782,50.9196185 C240.91824,50.8244831 241.087094,50.5505724 240.955091,50.3052024 M434.616535,51.1586501 C433.40671,50.7803373 432.172796,50.4020246 430.949806,50.0397358 C430.610864,49.9389874 430.213098,50.0362363 430.060154,50.2589141 C429.90665,50.481776 430.057073,50.7433165 430.396015,50.8438806 C431.610881,51.2063536 432.836673,51.5793251 434.038374,51.9574536 C434.132493,51.9858179 434.231935,52 434.328575,52 C434.579,52 434.82046,51.9062506 434.933347,51.748958 C435.094975,51.5279379 434.952395,51.2647398 434.616535,51.1586501 M233.946666,52.2770031 C233.802492,52.0455983 233.413304,51.9380654 233.072174,52.0364789 C231.851274,52.3900457 230.614262,52.7584315 229.396139,53.1285272 C229.06001,53.2307405 228.908057,53.4986229 229.05751,53.7302177 C229.169182,53.8996866 229.411973,54 229.667821,54 C229.758381,54 229.84922,53.9872708 229.937002,53.9618125 C231.147346,53.5934267 232.37908,53.2269408 233.594703,52.8750839 C233.933332,52.7766703 234.090563,52.5087879 233.946666,52.2770031 M441.634221,54.2048242 C440.426167,53.8114585 439.199362,53.4214354 437.98591,53.0449584 C437.650655,52.9402837 437.238689,53.0247271 437.072482,53.2324932 C436.903718,53.4416666 437.039809,53.6949969 437.375348,53.7996716 C438.580277,54.1728061 439.801968,54.56107 441.001499,54.9510932 C441.102359,54.9848705 441.211459,55 441.318002,55 C441.563192,55 441.800428,54.9173158 441.92004,54.7737619 C442.097611,54.5677551 441.969476,54.3130174 441.634221,54.2048242 M226.937457,54.2523559 C226.778742,54.0338094 226.379567,53.939288 226.039945,54.04073 C224.824161,54.4078882 223.592365,54.7870665 222.379109,55.1698873 C222.044824,55.2746075 221.904368,55.5368634 222.068982,55.7535887 C222.184999,55.9091211 222.424897,56 222.675751,56 C222.772665,56 222.875198,55.9843375 222.969303,55.9546516 C224.174694,55.5752912 225.401153,55.197752 226.609072,54.8342362 C226.945884,54.731155 227.094206,54.4725416 226.937457,54.2523559 M448.652321,56.246006 C447.453794,55.8401 446.233056,55.4387452 445.026164,55.0507072 C444.691557,54.9423195 444.270702,55.0134542 444.084938,55.2091589 C443.902058,55.4048635 444.024074,55.6508008 444.358969,55.7591885 C445.558073,56.1441923 446.770158,56.5438614 447.963204,56.9465647 C448.071375,56.982132 448.190218,57 448.306753,57 C448.547324,57 448.779818,56.9271797 448.907315,56.7975527 C449.098272,56.6035337 448.984909,56.357765 448.652321,56.246006 M219.926846,57.2300162 C219.754758,57.0231532 219.345445,56.9410035 219.006674,57.0450481 C217.794664,57.4249684 216.569,57.8166244 215.362678,58.2082804 C215.029596,58.3175797 214.903872,58.5713854 215.078805,58.7764969 C215.201684,58.9194268 215.439194,59 215.682108,59 C215.791049,59 215.900275,58.9849363 216.001537,58.9513057 C217.199609,58.5614013 218.419869,58.1730734 219.626474,57.7947295 C219.962401,57.6905098 220.095805,57.4367041 219.926846,57.2300162 M454.671368,59.2834952 C453.488908,58.8716345 452.276241,58.4581543 451.065921,58.0555252 C450.733941,57.9452315 450.303129,58.0043463 450.10048,58.1876835 C449.901058,58.3710206 450.007514,58.6103954 450.339788,58.7206891 C451.541603,59.1218606 452.746058,59.5321017 453.91972,59.9408851 C454.037614,59.9813748 454.167532,60 454.293931,60 C454.527373,60 454.755536,59.9361883 454.891026,59.8197401 C455.098954,59.6378606 455.000415,59.3968662 454.671368,59.2834952 M212.915046,59.2094992 C212.729663,59.0134602 212.309309,58.9422653 211.974293,59.0507447 C210.76253,59.4407982 209.542406,59.8424926 208.347076,60.2440183 C208.015232,60.3557031 207.901638,60.6016798 208.092787,60.7960317 C208.219932,60.927118 208.452309,61 208.693047,61 C208.809235,61 208.928307,60.9821169 209.036135,60.9465195 C210.225698,60.5466809 211.43775,60.1466736 212.641153,59.7598255 C212.976168,59.6513461 213.097834,59.4052008 212.915046,59.2094992 M461.69133,62.9762414 C460.507793,62.3408373 459.304252,61.7077727 458.112056,61.0924881 C457.779746,60.9219397 457.33577,60.9937619 457.117813,61.2543805 C456.900453,61.5124257 456.992115,61.8603071 457.324723,62.0310895 C458.507663,62.6416951 459.705233,63.2703147 460.880112,63.9010398 C461.003422,63.9686509 461.144049,64 461.284079,64 C461.51368,64 461.737012,63.9146088 461.874355,63.7573954 C462.097985,63.5014558 462.014683,63.1512349 461.69133,62.9762414 M206.900231,62.1907087 C206.701041,62.0046018 206.271657,61.9453341 205.937626,62.0547513 C204.73927,62.4546451 203.523364,62.8656108 202.33349,63.2765766 C202.002091,63.3907156 201.900888,63.6312055 202.10622,63.8156841 C202.237843,63.9345451 202.468038,64 202.704082,64 C202.83044,64 202.956506,63.9814382 203.071457,63.9407324 C204.258991,63.531232 205.463198,63.1233599 206.658922,62.7265598 C206.99032,62.6156772 207.099713,62.3764899 206.900231,62.1907087 M467.707535,66.0220361 C466.532809,65.373525 465.3386,64.7272734 464.155046,64.1006806 C463.827803,63.9271417 463.372402,63.9836322 463.13557,64.2263155 C462.902086,64.4692247 462.97758,64.8097496 463.305127,64.9832885 C464.479245,65.605588 465.668583,66.2475463 466.834177,66.8935719 C466.965378,66.9652018 467.11728,67 467.269486,67 C467.494447,67 467.713319,66.9240767 467.856393,66.7808168 C468.095965,66.5424268 468.02869,66.201676 467.707535,66.0220361 M199.886186,65.2602689 C199.672523,64.9974643 199.233015,64.9204884 198.899595,65.0902605 C197.704394,65.7044156 196.498494,66.3322657 195.314882,66.9620048 C194.989783,67.1364995 194.901227,67.48785 195.120833,67.7482933 C195.257827,67.9116901 195.483078,68 195.713976,68 C195.847998,68 195.987666,67.9681234 196.107424,67.9024813 C197.28539,67.2772286 198.483265,66.6517396 199.672523,66.0444322 C200.003269,65.8744239 200.100145,65.5230734 199.886186,65.2602689 M473.721301,70.0658615 C472.555956,69.4049001 471.372286,68.7478755 470.20104,68.1098793 C469.87616,67.9314066 469.407786,67.9755873 469.154963,68.2043648 C468.904315,68.4329236 468.963948,68.7625295 469.288829,68.9388151 C470.451378,69.5726557 471.628526,70.2277118 472.78828,70.8845177 C472.925251,70.962162 473.089244,71 473.252927,71 C473.470652,71 473.688378,70.932854 473.834046,70.8046861 C474.093702,70.5780957 474.043075,70.2484899 473.721301,70.0658615 M193.871843,68.2347991 C193.642888,67.9867046 193.19102,67.9251387 192.863597,68.0986218 C191.674724,68.7225199 190.477696,69.3635833 189.300905,70.0051044 C188.975898,70.1808762 188.903708,70.5257825 189.135683,70.7715883 C189.277345,70.9208112 189.500863,71 189.726797,71 C189.871479,71 190.019484,70.964983 190.14695,70.8967799 C191.318002,70.2577763 192.509593,69.6206037 193.689404,68.9992231 C194.017129,68.8280288 194.098079,68.4851823 193.871843,68.2347991 M480.738396,73.1057459 C479.590128,72.4396719 478.41774,71.7716876 477.251381,71.1177125 C476.927974,70.9383523 476.446832,70.9670075 476.17611,71.1828766 C475.907927,71.3987457 475.950455,71.7186225 476.273544,71.8998931 C477.433873,72.5498352 478.600548,73.2137865 479.739612,73.8758275 C479.882432,73.959246 480.062067,74 480.238846,74 C480.452123,74 480.662226,73.9407793 480.814567,73.8246727 C481.08878,73.6128366 481.055138,73.2910494 480.738396,73.1057459 M187.852661,72.2131114 C187.607955,71.9784822 187.14744,71.9296011 186.820345,72.1064618 C185.646309,72.7376944 184.456901,73.3900347 183.285939,74.0448191 C182.964378,74.2239016 182.905353,74.5587371 183.153134,74.7909223 C183.297621,74.9275671 183.515889,75 183.737539,75 C183.893401,75 184.052952,74.9637836 184.188524,74.8869069 C185.351186,74.2387881 186.53383,73.5904472 187.702333,72.9594368 C188.030042,72.7845758 188.097675,72.4497403 187.852661,72.2131114 M485.75282,77.1441988 C484.615533,76.4663711 483.453571,75.78875 482.300699,75.1270267 C481.97961,74.9447173 481.487748,74.9604087 481.201072,75.1627453 C480.91115,75.3667336 480.939071,75.6799424 481.256914,75.86411 C482.403942,76.5198458 483.559735,77.1935441 484.690529,77.8672424 C484.840198,77.9564357 485.03045,78 485.222974,78 C485.429133,78 485.63789,77.94859 485.790481,77.8434988 C486.083325,77.6434334 486.067742,77.330431 485.75282,77.1441988 M180.835343,75.1943389 C180.576941,74.9704738 180.102108,74.9352518 179.780123,75.1135227 C178.608074,75.7583235 177.429761,76.4221398 176.272433,77.0816344 C175.951075,77.264011 175.908791,77.5915974 176.173457,77.8113569 C176.320668,77.9360385 176.534281,78 176.750399,78 C176.918908,78 177.090236,77.9606723 177.231183,77.8798562 C178.379428,77.2246833 179.554922,76.5651887 180.717887,75.9242776 C181.042691,75.7438457 181.094058,75.4184201 180.835343,75.1943389 M175.817614,79.176581 C175.541719,78.9643033 175.057944,78.9400851 174.736066,79.1220374 C173.57756,79.7748754 172.410114,80.4458244 171.257675,81.1167734 C170.942184,81.300621 170.911209,81.6200904 171.193491,81.8302621 C171.343573,81.9435611 171.554965,82 171.766358,82 C171.947414,82 172.127832,81.9574602 172.27504,81.8728019 C173.418218,81.2056436 174.579916,80.5389064 175.731716,79.8879638 C176.053594,79.708328 176.090316,79.3888586 175.817614,79.176581 M490.81503,81.1774768 C489.913721,80.4917726 488.995126,79.8064707 488.081318,79.1364604 C487.828664,78.9511512 487.425216,78.9547729 487.180275,79.1461182 C486.935334,79.3392743 486.940387,79.6443001 487.193041,79.8296092 C488.10153,80.4957967 489.015338,81.1774768 489.911062,81.8589558 C490.036325,81.953723 490.199619,82 490.362913,82 C490.526473,82 490.687373,81.953723 490.81237,81.8589558 C491.062098,81.6716346 491.062098,81.3666089 490.81503,81.1774768 M168.836314,83.1606785 C168.601182,82.9593082 168.205993,82.945541 167.950789,83.1288291 C167.032679,83.7915019 166.104663,84.4697911 165.19672,85.1480803 C164.943861,85.3356834 164.933956,85.6469855 165.171694,85.8442462 C165.294213,85.9467807 165.459223,86 165.624233,86 C165.779597,86 165.934701,85.9545889 166.054613,85.8639723 C166.96021,85.1914365 167.880666,84.5149966 168.79643,83.8564335 C169.051635,83.6731454 169.0691,83.3595831 168.836314,83.1606785 M495.825466,85.2081726 C494.931404,84.5141938 494.024266,83.8204116 493.124756,83.1452952 C492.874135,82.9568678 492.460883,82.9509733 492.199366,83.1319343 C491.940845,83.311127 491.932673,83.6109604 492.181114,83.7976195 C493.075449,84.4690027 493.976866,85.1590518 494.866025,85.8491009 C494.994332,85.9491108 495.169222,86 495.344384,86 C495.504018,86 495.66338,85.958542 495.789235,85.8736613 C496.055656,85.6983982 496.071456,85.3983684 495.825466,85.2081726 M163.817066,87.1456914 C163.571794,86.9546945 163.168067,86.9508786 162.915072,87.1378587 C162.007751,87.8046406 161.087648,88.4929122 160.185653,89.1791754 C159.937718,89.3677622 159.937718,89.6724333 160.18805,89.8592126 C160.313216,89.9538073 160.476997,90 160.638115,90 C160.804293,90 160.967808,89.9517989 161.092974,89.8574051 C161.989908,89.1751586 162.904686,88.4911046 163.806947,87.8259294 C164.059942,87.6407569 164.065268,87.3364874 163.817066,87.1456914 M500.837077,89.236301 C499.95725,88.5373646 499.061492,87.8366987 498.171044,87.1523675 C497.923977,86.9642293 497.500553,86.9477023 497.22386,87.1173919 C496.947726,87.2870814 496.92369,87.578417 497.170478,87.768477 C498.058131,88.4489646 498.948579,89.1442497 499.823096,89.8395348 C499.954455,89.9446539 500.142271,90 500.330087,90 C500.485482,90 500.640877,89.9629104 500.767206,89.8873861 C501.048929,89.7194261 501.078275,89.4300123 500.837077,89.236301 M157.7989,91.1320122 C157.539962,90.9509444 157.127184,90.9568423 156.876414,91.1453809 C155.966997,91.8265968 155.057853,92.5207883 154.174575,93.205543 C153.928978,93.3962441 153.944498,93.694485 154.20861,93.8716208 C154.333859,93.9565516 154.493415,94 154.652699,94 C154.827776,94 155.002852,93.9488842 155.130824,93.8490119 C156.011379,93.1679926 156.915622,92.4773399 157.817143,91.7980899 C158.067641,91.6113208 158.060017,91.3113105 157.7989,91.1320122 M506.846474,94.2643215 C505.981768,93.5595316 505.097834,92.8528583 504.216483,92.1621944 C503.973975,91.9706468 503.538608,91.9454085 503.247025,92.1043723 C502.954867,92.2654079 502.916124,92.5490566 503.161501,92.7406043 C504.03453,93.4293847 504.915881,94.1324794 505.775134,94.8319956 C505.91289,94.9421779 506.111201,95 506.312095,95 C506.463914,95 506.615158,94.9676045 506.744592,94.8988583 C507.039619,94.7432847 507.086399,94.4579409 506.846474,94.2643215 M153.7806,95.1185766 C153.505478,94.9482984 153.083049,94.9631471 152.837444,95.151938 C151.941906,95.8384504 151.044139,96.5380758 150.16503,97.2319161 C149.921653,97.424371 149.95117,97.7169101 150.229077,97.8852599 C150.354664,97.9629746 150.512553,98 150.667378,98 C150.854506,98 151.038849,97.9461975 151.169726,97.8426421 C152.04633,97.1505374 152.938805,96.4547687 153.828774,95.7717275 C154.074658,95.5829366 154.053216,95.2907832 153.7806,95.1185766 M510.857695,98.289091 C510.005491,97.5815084 509.133524,96.8683819 508.264506,96.1715174 C508.026751,95.9782211 507.579263,95.9427403 507.273661,96.0935336 C506.96511,96.2441421 506.908768,96.5226292 507.149179,96.7159254 C508.012592,97.4094636 508.878659,98.1187094 509.727913,98.8227809 C509.86685,98.9379087 510.079237,99 510.291624,99 C510.441475,99 510.591621,98.9700631 510.718758,98.9096349 C511.030259,98.7625376 511.0925,98.4840505 510.857695,98.289091 M147.75951,99.107337 C147.469331,98.9456554 147.040049,98.9693207 146.793767,99.1601581 C145.915819,99.8485358 145.026754,100.553574 144.156787,101.256719 C143.915921,101.44926 143.956968,101.736463 144.249713,101.894547 C144.375704,101.965354 144.531625,102 144.684696,102 C144.881664,102 145.076067,101.941689 145.212605,101.832639 C146.076871,101.134984 146.96052,100.431839 147.835903,99.7468694 C148.082185,99.5562214 148.046839,99.2690187 147.75951,99.107337 M515.867013,103.31293 C515.030816,102.601328 514.171854,101.883003 513.318052,101.180124 C513.079486,100.98496 512.625116,100.941167 512.298832,101.084359 C511.975584,101.225553 511.902739,101.497583 512.138574,101.692928 C512.989037,102.392173 513.842535,103.10541 514.675697,103.815194 C514.818352,103.935491 515.042653,104 515.272721,104 C515.418107,104 515.5641,103.97565 515.689454,103.921498 C516.01847,103.78194 516.099813,103.509911 515.867013,103.31293 M143.737184,104.09783 C143.434394,103.944202 142.994661,103.974555 142.753772,104.167475 C141.882191,104.862617 141.005062,105.573961 140.147788,106.279904 C139.909527,106.4745 139.965588,106.756989 140.271007,106.907078 C140.400065,106.969647 140.551314,107 140.699644,107 C140.909874,107 141.117185,106.94097 141.254711,106.828309 C142.109065,106.124414 142.980646,105.416609 143.846388,104.725004 C144.087569,104.532085 144.039975,104.251458 143.737184,104.09783 M520.87838,107.33458 C520.053452,106.615719 519.207268,105.89382 518.370461,105.187113 C518.13633,104.991401 517.671507,104.941714 517.329532,105.073797 C516.985057,105.207667 516.897844,105.473621 517.128849,105.668975 C517.96253,106.372286 518.802462,107.090789 519.621451,107.806254 C519.765243,107.931546 520.005313,108 520.251322,108 C520.392613,108 520.53328,107.97605 520.662067,107.929758 C521.00748,107.799284 521.103446,107.533509 520.87838,107.33458 M138.71447,108.087117 C138.395622,107.942866 137.94744,107.98154 137.709127,108.175097 C136.844198,108.880406 135.979568,109.596347 135.137691,110.301839 C134.904768,110.498695 134.973926,110.773084 135.295468,110.917335 C135.422109,110.973789 135.571503,111 135.717903,111 C135.93915,111 136.157703,110.938414 136.298415,110.82074 C137.134603,110.11708 137.99624,109.404623 138.855481,108.704629 C139.093793,108.509239 139.030922,108.234851 138.71447,108.087117 M523.886509,112.357621 C523.07566,111.632633 522.24998,110.905883 521.426557,110.197452 C521.197649,109.999648 520.721134,109.940465 520.359073,110.0657 C519.997011,110.190759 519.89223,110.451092 520.120815,110.648897 C520.93779,111.353629 521.760569,112.077032 522.568194,112.797088 C522.713599,112.929192 522.967332,113 523.22719,113 C523.366792,113 523.502847,112.979744 523.629552,112.937647 C523.994515,112.815759 524.108969,112.555425 523.886509,112.357621 M134.687619,113.079794 C134.357615,112.941106 133.898065,112.987877 133.66261,113.18381 C132.814116,113.889166 131.959788,114.610053 131.129098,115.322272 C130.89917,115.520011 130.984511,115.788537 131.320347,115.925419 C131.44713,115.975621 131.591411,116 131.735692,116 C131.971454,116 132.201075,115.934268 132.342593,115.812736 C133.17052,115.102322 134.019015,114.386492 134.86444,113.684747 C135.100201,113.488814 135.020386,113.218662 134.687619,113.079794 M528.895994,117.378182 C528.106995,116.654755 527.298688,115.92299 526.487384,115.2046 C526.263668,115.006244 525.771293,114.941283 525.394438,115.05783 C525.014587,115.174725 524.886416,115.429879 525.110132,115.628061 C525.918439,116.342978 526.723418,117.069879 527.506424,117.790006 C527.653238,117.924965 527.924893,118 528.20254,118 C528.336703,118 528.471199,117.983326 528.596041,117.946677 C528.978888,117.831692 529.113384,117.578276 528.895994,117.378182 M530.929103,122.397502 C530.354272,121.671521 529.758772,120.937651 529.163789,120.213556 C529.000253,120.014096 528.623319,119.941892 528.323373,120.050455 C528.023427,120.159017 527.91182,120.409243 528.075356,120.608361 C528.668013,121.327653 529.260413,122.058437 529.830594,122.780816 C529.94246,122.920765 530.158183,123 530.38114,123 C530.477763,123 530.577229,122.985079 530.668943,122.953865 C530.971214,122.846674 531.087731,122.598335 530.929103,122.397502 M534.935848,128.222627 C534.378032,127.25204 533.799317,126.26836 533.21578,125.297999 C533.056098,125.031651 532.670557,124.923307 532.351996,125.057835 C532.035846,125.194394 531.909654,125.518977 532.068801,125.78555 C532.647515,126.751623 533.22355,127.730788 533.778955,128.694604 C533.889339,128.887592 534.117878,129 534.357133,129 C534.449835,129 534.547627,128.982845 534.637649,128.946053 C534.956478,128.815814 535.090172,128.491006 534.935848,128.222627 M4.45377072,128.268699 C3.22101312,128.171479 1.95837367,128.081772 0.695472098,128.002186 C0.348423181,127.980258 0.0388576442,128.125782 0.00373335802,128.32743 C-0.033750022,128.530612 0.21526544,128.711559 0.559693141,128.73364 C1.81001288,128.813073 3.06505081,128.901399 4.28758566,128.99724 C4.31537055,129 4.34315543,129 4.37067819,129 C4.68260282,129 4.95180164,128.86613 4.99452745,128.682116 C5.03987448,128.480468 4.79846054,128.294921 4.45377072,128.268699 M12.484945,129.346835 C11.250013,129.224572 9.98712836,129.109993 8.73189114,129.004609 C8.38775573,128.974146 8.06366191,129.098055 8.0082838,129.27699 C7.95237828,129.456061 8.18523006,129.626076 8.53200252,129.654893 C9.77458189,129.759042 11.0271821,129.872249 12.2497198,129.993413 C12.2900667,129.997393 12.3280403,130 12.3686509,130 C12.6645283,130 12.9303432,129.889401 12.9886221,129.731461 C13.0542847,129.552252 12.8290804,129.381139 12.484945,129.346835 M19.5181152,130.833986 C18.2874011,130.544829 17.026358,130.269993 15.7751586,130.014172 C15.4306331,129.943055 15.0908964,130.146774 15.0145422,130.464329 C14.9403162,130.784353 15.1574072,131.101908 15.5021987,131.170555 C16.740362,131.424154 17.9862406,131.69652 19.2065791,131.980986 C19.2576593,131.992839 19.3111339,132 19.3622141,132 C19.6482102,132 19.9086661,131.81974 19.9802316,131.552065 C20.0669616,131.23451 19.8602463,130.912264 19.5181152,130.833986 M27.5503623,131.957394 C26.3298217,131.630411 25.0758712,131.316338 23.8243456,131.021631 C23.4805466,130.938383 23.1238146,131.102876 23.0252014,131.387122 C22.9271271,131.670922 23.1238146,131.965852 23.4673443,132.046875 C24.705937,132.339579 25.947224,132.651426 27.1545623,132.973957 C27.2194961,132.991319 27.2865854,133 27.3539442,133 C27.6255347,133 27.8785341,132.854427 27.9690643,132.628277 C28.0776466,132.34826 27.891467,132.046875 27.5503623,131.957394 M538.942231,133.248592 C538.406715,132.281573 537.8472,131.292925 537.276802,130.308737 C537.121366,130.041397 536.725101,129.925676 536.387718,130.04987 C536.053126,130.173841 535.905503,130.490458 536.063451,130.760251 C536.628547,131.735966 537.18555,132.720154 537.718833,133.68093 C537.828224,133.882049 538.072123,134 538.329137,134 C538.420389,134 538.511363,133.984838 538.599545,133.954737 C538.939998,133.835002 539.092365,133.518386 538.942231,133.248592 M34.5872238,134.067633 C33.3690997,133.70779 32.1219138,133.357623 30.8799371,133.028825 C30.5380508,132.937906 30.1618936,133.069345 30.0379701,133.320731 C29.9173366,133.572319 30.0933518,133.848905 30.4355123,133.940025 C31.6615873,134.265194 32.8928715,134.609313 34.0981098,134.965528 C34.1767958,134.988509 34.2609651,135 34.3426668,135 C34.6031255,135 34.8504242,134.883882 34.9529627,134.696603 C35.0873045,134.448643 34.9241751,134.166413 34.5872238,134.067633 M41.6247947,136.164145 C40.4210379,135.776842 39.1824872,135.398524 37.9467424,135.037995 C37.6072213,134.939336 37.2087749,135.039462 37.0580949,135.261355 C36.9071342,135.483247 37.0606203,135.743466 37.3998608,135.842126 C38.6198922,136.19752 39.8421684,136.570703 41.0299312,136.954154 C41.1239309,136.984229 41.2263484,137 41.3262406,137 C41.5737263,137 41.8133552,136.908492 41.9317668,136.753718 C42.0933901,136.535493 41.958704,136.271606 41.6247947,136.164145 M540.950535,138.278221 C540.447178,137.318047 539.907804,136.323786 539.351153,135.323587 C539.19918,135.055284 538.789232,134.92883 538.432285,135.04077 C538.072702,135.154908 537.904038,135.462797 538.055719,135.73088 C538.609734,136.724921 539.143251,137.712585 539.643387,138.664401 C539.752902,138.871127 540.017025,139 540.298425,139 C540.382464,139 540.469432,138.987245 540.553764,138.962174 C540.916275,138.854413 541.093431,138.548283 540.950535,138.278221 M543.967244,144.330359 C543.946514,144.286851 543.476315,143.240927 542.460535,141.339482 C542.318565,141.070678 541.884801,140.934122 541.495639,141.031262 C541.103649,141.130556 540.902315,141.426068 541.046798,141.694872 C542.044361,143.56767 542.520527,144.623933 542.526809,144.634271 C542.626063,144.857413 542.924452,145 543.247027,145 C543.319582,145 543.394651,144.991815 543.467207,144.977169 C543.865164,144.892521 544.087856,144.60304 543.967244,144.330359" id="Fill-321" fill="#FB3640"></path>
            <g id="Group-62" transform="translate(210.000000, 47.000000)">
                <path d="M58.6961875,54 L58,53.8498682 L61.3625385,40.4559125 C61.5780251,39.5983302 62.3918226,39 63.3398058,39 L68,39 L68,39.6627771 L63.3398058,39.6627771 C62.7249191,39.6627771 62.1984371,40.0501904 62.058726,40.6060443 L58.6961875,54 Z" id="Fill-1" fill="#A8D3F1"></path>
                <path d="M59.6057143,54 L59,53.7532869 L65.3935714,35.3758701 C65.68,34.5522042 66.4185714,34 67.2307143,34 L72,34 L72,34.6999227 L67.2307143,34.6999227 C66.6864286,34.6999227 66.1907143,35.070379 65.9992857,35.6225831 L59.6057143,54 Z" id="Fill-3" fill="#FFFFFF"></path>
                <path d="M69,36 C68.4476452,36 68,37.7909958 68,40.0004102 C68,42.2090042 68.4476452,44 69,44 L69,36 Z" id="Fill-5" fill="#A8D3F1"></path>
                <path d="M77,35 C77,38.3136771 75.8806835,41 74.5,41 C73.1193165,41 72,38.3136771 72,35 C72,31.6863229 73.1193165,29 74.5,29 C75.8806835,29 77,31.6863229 77,35" id="Fill-7" fill="#FFFFFF"></path>
                <g id="Group-11" transform="translate(6.000000, 132.000000)">
                    <mask id="mask-4" fill="white">
                        <use xlink:href="#path-3"></use>
                    </mask>
                    <g id="Clip-10"></g>
                    <path d="M24.4470652,38.8321477 C16.33905,38.8321477 9.76636818,32.2938092 9.76636818,24.2298092 C9.76636818,16.1650708 16.33905,9.62673231 24.4470652,9.62673231 C32.5550803,9.62673231 39.1277621,16.1650708 39.1277621,24.2298092 C39.1277621,32.2938092 32.5550803,38.8321477 24.4470652,38.8321477 M24.4470652,0.458732308 C11.248247,0.458732308 0.549171212,11.1007015 0.549171212,24.2298092 C0.549171212,37.35744 11.248247,48.0001477 24.4470652,48.0001477 C37.6458833,48.0001477 48.3449591,37.35744 48.3449591,24.2298092 C48.3449591,11.1007015 37.6458833,0.458732308 24.4470652,0.458732308" id="Fill-9" fill="#000000" mask="url(#mask-4)"></path>
                </g>
                <path d="M34,156.5 C34,158.985359 31.9847677,161 29.4996192,161 C27.0144707,161 25,158.985359 25,156.5 C25,154.013879 27.0144707,152 29.4996192,152 C31.9847677,152 34,154.013879 34,156.5" id="Fill-12" fill="#D9DBE7"></path>
                <path d="M163,156.5 C163,158.985359 160.984768,161 158.500381,161 C156.015232,161 154,158.985359 154,156.5 C154,154.013879 156.015232,152 158.500381,152 C160.984768,152 163,154.013879 163,156.5" id="Fill-14" fill="#FFFFFF"></path>
                <g id="Group-18" transform="translate(135.000000, 132.000000)">
                    <mask id="mask-6" fill="white">
                        <use xlink:href="#path-5"></use>
                    </mask>
                    <g id="Clip-17"></g>
                    <path d="M24.4514455,38.8321477 C16.3434303,38.8321477 9.77074848,32.2938092 9.77074848,24.2298092 C9.77074848,16.1650708 16.3434303,9.62673231 24.4514455,9.62673231 C32.5594606,9.62673231 39.1321424,16.1650708 39.1321424,24.2298092 C39.1321424,32.2938092 32.5594606,38.8321477 24.4514455,38.8321477 M24.4514455,0.458732308 C11.2526273,0.458732308 0.552809091,11.1007015 0.552809091,24.2298092 C0.552809091,37.35744 11.2526273,48.0001477 24.4514455,48.0001477 C37.6495212,48.0001477 48.3493394,37.35744 48.3493394,24.2298092 C48.3493394,11.1007015 37.6495212,0.458732308 24.4514455,0.458732308" id="Fill-16" fill="#000000" mask="url(#mask-6)"></path>
                </g>
                <path d="M47,61.500381 C47,65.0904508 50.1339977,68 54,68 L54,55 C50.1339977,55 47,57.9103113 47,61.500381" id="Fill-19" fill="#FFFFFF"></path>
                <path d="M71.3696988,61.9688256 C71.3696988,61.9688256 71.2988335,59.9043957 68.5962529,59.7643967 C65.8936722,59.6251384 63.1910916,57.9473725 62.7688833,56.1866442 C62.6659421,55.7584991 62.6129795,55.3496131 62.5920929,54.9770231 C62.5286871,53.8585125 61.5641724,53 60.4362944,53 L53.8681955,53 C52.6739279,53 51.7049375,53.9614747 51.7049375,55.148133 L51.7049375,67.7917475 C51.7049375,68.9784058 52.6739279,69.9406212 53.8681955,69.9406212 L58.8839703,69.9406212 C58.8839703,69.9406212 61.8394283,71.9531996 58.2924311,76.8176098 C54.7454339,81.6812791 38.9521585,102.312985 34.7293296,109.524786 C30.5065008,116.737328 30,124.620976 30,124.620976 L33.3776663,138.542359 L54.9990573,150.619311 L61.5872969,156.743713 C62.4548379,157.550374 63.5991268,158 64.7874268,158 L136.582977,158 L136.582977,147.097114 L193,147.097114 C193,147.097114 189.453003,125.291342 165.804863,111.369959 L112.935583,111.369959 C112.935583,111.369959 121.944434,121.098038 120.057923,134.684609 C118.172159,148.27118 104.320594,152.464483 98.5782631,152.464483 L71.5524568,152.464483 C64.2891315,152.464483 55.3362271,138.207547 54.4918106,123.44691 C53.647394,108.686274 58.7705857,95.8826604 64.9649632,87.3560539 C68.8871738,81.9568328 71.8896267,76.6494628 72.2275425,72.456159 C72.5654583,68.2628553 71.3696988,61.9688256 71.3696988,61.9688256" id="Fill-21" fill="#FB3640"></path>
                <path d="M197.223542,142 L182.776458,142 C181.243007,142 180,143.119238 180,144.5 C180,145.880762 181.243007,147 182.776458,147 L197.223542,147 C198.756993,147 200,145.880762 200,144.5 C200,143.119238 198.756993,142 197.223542,142" id="Fill-23" fill="#00081A"></path>
                <g id="Group-27" transform="translate(0.000000, 124.000000)">
                    <mask id="mask-8" fill="white">
                        <use xlink:href="#path-7"></use>
                    </mask>
                    <g id="Clip-26"></g>
                    <path d="M29.946525,0.0551707317 C13.407525,0.0551707317 -0.000225,13.1359024 -0.000225,29.2715122 L59.893275,29.2715122 C59.893275,13.1359024 46.485525,0.0551707317 29.946525,0.0551707317" id="Fill-25" fill="#D02A33" mask="url(#mask-8)"></path>
                </g>
                <path d="M190,155 L130.427515,155 C130.427515,155 122.602082,144.214515 127.758364,131.984036 C134.599262,115.753091 154.829397,118.584669 166.343889,125.454642 C177.857645,132.324615 186.328627,144.866089 190,155" id="Fill-28" fill="#D02A33"></path>
                <path d="M113.271167,113.40543 L111.811382,115.375237 C111.521648,115.767217 111.050368,116 110.547965,116 C109.692842,116 109,115.337737 109,114.521937 L109,103.535168 C109,103.207574 109.277878,102.942245 109.620223,102.942245 L142.334962,102.942245 C147.860654,102.942245 152.779462,101.204512 155.156614,99.3387145 C155.907995,98.749329 157.040255,98.9538097 157.522651,99.7604117 C158.880917,102.033756 160.428882,106.489879 156.508212,111.820528 C156.391132,111.97831 156.196247,112.074537 155.993952,112.074537 L115.964729,112.074537 C114.893973,112.074537 113.889167,112.570526 113.271167,113.40543" id="Fill-30" fill="#00081A"></path>
                <path d="M175.995547,145 L138.004453,145 C137.44938,145 137,145.447388 137,146 C137,146.551876 137.44938,147 138.004453,147 L175.995547,147 C176.549881,147 177,146.551876 177,146 C177,145.447388 176.549881,145 175.995547,145" id="Fill-32" fill="#D9DBE7"></path>
                <path d="M165.01365,140 L137.987076,140 C137.441606,140 137,140.447552 137,140.999632 C137,141.552448 137.441606,142 137.987076,142 L165.01365,142 C165.558394,142 166,141.552448 166,140.999632 C166,140.447552 165.558394,140 165.01365,140" id="Fill-34" fill="#D9DBE7"></path>
                <path d="M156.946081,135 L138.054695,135 C137.471858,135 137,135.446816 137,135.999632 C137,136.551711 137.471858,137 138.054695,137 L156.946081,137 C157.528142,137 158,136.551711 158,135.999632 C158,135.446816 157.528142,135 156.946081,135" id="Fill-36" fill="#D9DBE7"></path>
                <polygon id="Fill-38" fill="#D9DBE7" points="161 111 200 111 200 86 161 86"></polygon>
                <polygon id="Fill-40" fill="#A4B9D0" points="166 86 193 86 193 71 166 71"></polygon>
                <path d="M172.350911,112 C172.333908,112 172.316132,111.998532 172.299129,111.995597 C172.107455,111.969178 171.975293,111.801126 172.00389,111.618397 L178.304385,71.2836813 C178.332208,71.1024199 178.51538,70.977665 178.701644,71.0033498 C178.892544,71.0297685 179.024706,71.1985545 178.99611,71.3805498 L172.695615,111.715999 C172.670883,111.881116 172.520944,112 172.350911,112" id="Fill-41" fill="#000000"></path>
                <path d="M188.649861,112 C188.479828,112 188.32989,111.881116 188.304385,111.716 L182.00389,71.3807104 C181.975293,71.1987158 182.107455,71.0299304 182.299129,71.0035119 C182.485392,70.9770933 182.667791,71.1025815 182.695615,71.2838423 L188.99611,111.618398 C189.024706,111.801127 188.892544,111.969178 188.701644,111.995597 C188.68464,111.998532 188.666864,112 188.649861,112" id="Fill-42" fill="#000000"></path>
                <path d="M56,100 C56,100 51.1935623,106.544447 49.5517241,114.751047 L45,115 C45,115 47.900423,107.174588 51.8827873,101.782566 L56,100 Z" id="Fill-43" fill="#FFFFFF"></path>
                <path d="M204.329276,112 L155.669983,112 C155.299827,112 155,111.77649 155,111.5 C155,111.224062 155.299827,111 155.669983,111 L204.329276,111 C204.699433,111 205,111.224062 205,111.5 C205,111.77649 204.699433,112 204.329276,112" id="Fill-44" fill="#000000"></path>
                <path d="M72.9288155,73.4531138 C72.8986735,73.8414421 72.6942961,74.383193 72.6266604,74.7869369 C71.6606461,74.9139327 71.1555839,74.9682546 70.7438883,74.9976178 C68.8714087,75.1246136 65,70.1380092 65,68.6426886 C65,67.4762357 69.118426,63.7199491 71.9120745,62 C72.1363016,62.5777208 73.2956657,68.8474968 72.9288155,73.4531138" id="Fill-45" fill="#FB8F08"></path>
                <path d="M79.4984727,71.2864992 C79.2666557,70.9191523 78.9583093,70.6200942 78.5986956,70.4034537 L78.5986956,70.389325 C78.2769752,70.2135008 75.0753736,68.2849294 75.0753736,68.2849294 L75.0753736,68.2974882 C74.7023859,68.1075353 74.291505,68 73.853876,68 C72.2727648,68 71,69.3571429 71,71.0282575 C71,71.5714286 71.1277966,72.0745683 71.3722447,72.5086342 C71.5780566,72.889325 71.8611409,73.2291994 72.2081235,73.4866562 L72.2214976,73.5 C72.3492941,73.5949765 72.4778337,73.6632653 72.6197474,73.744898 L73.6993313,74.3830455 L75.5382647,75.4835165 C75.5382647,75.4835165 75.5516387,75.4968603 75.5642698,75.4968603 L75.8986213,75.7009419 C76.2842401,75.8908948 76.6958639,76 77.1327499,76 C78.5853216,76 79.780814,74.8587127 79.9739949,73.3916797 C79.9873689,73.255887 80,73.1200942 80,72.9843014 C80,72.3594976 79.8201932,71.7613815 79.4984727,71.2864992" id="Fill-46" fill="#00081A"></path>
                <path d="M88.5133815,142 L82.2173817,142 C82.2173817,142 79.9333607,144.999926 76.8496674,145.388533 C75.116414,145.607124 71.9025943,145.579893 69.4218706,145.514389 C67.5456294,145.465077 66,146.930448 66,148.757194 C66,150.547877 67.4926709,152 69.3333543,152 L88.5133815,152 C89.334237,152 90,151.352322 90,150.553765 L88.5133815,142 Z" id="Fill-47" fill="#373737"></path>
                <path d="M89.5133815,143 L83.2181383,143 C83.2181383,143 80.9333607,145.999926 77.8496674,146.388533 C76.116414,146.60786 72.9025943,146.580629 70.4218706,146.514389 C68.5456294,146.465077 67,147.931184 67,149.757194 C67,151.547877 68.4926709,153 70.3341109,153 L89.5133815,153 C90.334237,153 91,152.352322 91,151.553765 L89.5133815,143 Z" id="Fill-48" fill="#000000"></path>
                <path d="M84,142 C84.2238297,143.146222 85.2604067,144 86.4996588,144 C87.7423229,144 88.7768527,143.142296 89,142 L84,142 Z" id="Fill-49" fill="#FF9580"></path>
                <path d="M136.754773,88 L88.3905509,88 C76,88 76,100.824871 76,106.23034 C76,111.635809 80.4005356,142 80.4005356,142 L89.780507,142 L92.6750088,106.23034 L128.341372,106.23034 C135.752487,106.23034 140.344997,97.9491966 136.754773,88" id="Fill-50" fill="#232323"></path>
                <path d="M137.898218,89 L90.046769,89 C78,89 78,101.586892 78,106.892501 C78,112.197362 82.2781245,142 82.2781245,142 L91.3982267,142 L94.2130178,106.892501 L128.890737,106.892501 C136.096274,106.892501 141.388738,98.7647125 137.898218,89" id="Fill-51" fill="#2C2C2C"></path>
                <path d="M121.878855,25 C121.878855,25 125.12188,21.5295516 127,16.0156869 C127,16.0156869 117.675477,3.07526719 102,10.0782405 L121.878855,25 Z" id="Fill-52" fill="#FFD479"></path>
                <path d="M102.202438,10.1331987 C102.202438,10.1331987 101.072446,18.2831698 104.151918,24.6184675 C107.231389,30.9530353 107.992987,31.0968369 113.539945,30.0332894 L114.47747,37 L125,33.3830625 C125,33.3830625 120.978493,22.4767734 122.567849,20.5197584 C123.909103,18.8685954 124.383504,15.9743155 122.431017,14.9713544 C119.339516,13.3836977 117.084796,16.8831121 116.951723,18.3415664 L115.43379,12.8581286 C115.43379,12.8581286 104.56091,9.27330924 102.202438,10.1331987" id="Fill-53" fill="#FF9580"></path>
                <path d="M102.07291,9.56727849 C102.8142,4.09654991 108.340834,-2.21944961 119.121114,0.768402705 C126.646172,2.85453234 127.959577,8.92875459 127.999063,12.7464439 L127.99928,13.0871165 C127.983692,14.8133446 127.720069,16 127.720069,16 L127.720069,16 L104.7207,10.9318722 C104.638064,10.9749026 104.542955,10.9992573 104.443611,11 C104.405786,11 104.367235,10.9974042 104.328683,10.9902656 L87.4523998,7.99206895 C87.1476214,7.93820524 86.9504975,7.67407839 87.0108713,7.40281298 C87.071245,7.13089861 87.368022,6.95632829 87.6713456,7.00954303 Z" id="Combined-Shape" fill="#FB3640"></path>
                <path d="M125,60.6809344 C125,60.6809344 124.713815,61.4505903 124.233083,62.6184208 C124.090366,62.9780385 123.920608,63.3880767 123.738832,63.8240668 C123.660713,63.9782945 123.596114,64.1451275 123.530765,64.2993552 C123.453397,64.453583 123.388048,64.6196745 123.32345,64.7746437 C121.958623,67.8540088 119.995137,71.6518677 118.422995,72.4341288 C117.5389,72.8701188 113.184526,72.9220224 107.751512,72.8063516 C96.6376055,72.5497996 81.0130877,71.5361969 81.0130877,71.5361969 C81.0130877,71.5361969 80.2461711,71.6518677 79.1157014,71.8313058 C78.8820961,71.4842933 78.5696207,71.2017896 78.2060677,70.9971412 L78.2060677,70.984536 C77.8808229,70.8177031 74.6441494,68.9958875 74.6441494,68.9958875 L74.6441494,69.0077512 C74.2670758,68.8283131 73.8516939,68.7267304 73.4092709,68.7267304 C71.8108394,68.7267304 70.524132,70.0087488 70.524132,71.587359 C70.524132,72.1004629 70.6533286,72.5757514 70.9012056,72.9857897 C70.8749157,72.9983948 70.8358562,72.9983948 70.8095662,72.9983948 C69.4582607,73.0762502 66.9749831,70.3045992 66,68.469437 C67.079392,66.9938924 70.0035902,64.5173503 72.0316753,63.2724059 C72.0316753,63.2724059 72.0053853,62.3878206 71.2256993,61.7330941 C72.2915707,61.0019951 73.2402638,60.4881497 73.7472851,60.4495928 C75.4501254,60.3346634 82.8203369,65.274401 82.8203369,65.274401 L107.152851,63.9782945 L112.534788,63.6957908 L112.703044,63.1700817 L112.872051,62.6955347 L113.028289,62.2083826 L114.12045,59 L125,60.6809344 Z" id="Fill-56" fill="#EF8978"></path>
                <path d="M109.728802,88.6557775 C109.728802,88.6557775 107.607888,56.1496285 110.602249,44.8120167 C113.520339,33.7674335 123.050517,29.357167 128.364536,36.4128515 C133.678555,43.468536 131.572308,54.8476911 132.018199,64.1296514 C132.848377,81.4324361 136.833524,86.8078425 137,90 L109.728802,90 L109.728802,88.6557775 Z" id="Fill-57" fill="#FB3640"></path>
                <path d="M125,61.680774 C125,61.680774 124.832174,62.1426718 124.53531,62.8870463 C124.483843,63.040518 124.406271,63.194731 124.341378,63.374152 C124.289912,63.528365 124.212339,63.6818367 124.148192,63.8493951 C122.87048,66.9796235 120.391884,72.4831019 118.468976,73.4335881 C117.591062,73.8687952 113.383489,73.9332977 108.065284,73.817638 L108.052604,73.817638 C97.016397,73.5611105 81.3206068,72.5476045 81.3206068,72.5476045 C81.3206068,72.5476045 80.7656637,72.637315 79.9138559,72.7655787 C79.9272819,72.637315 79.9399621,72.5090512 79.9399621,72.3815289 C79.9399621,71.7913674 79.7594564,71.2264138 79.4364855,70.7778614 C79.2045133,70.430882 78.8942225,70.1484052 78.5332111,69.9437764 L78.5332111,69.930431 C78.2102402,69.763614 74.9961947,67.9419723 74.9961947,67.9419723 L74.9961947,67.9545763 C74.6217573,67.7751553 74.2092794,67.6728409 73.7699494,67.6728409 C72.1826928,67.6728409 70.904981,68.9554783 70.904981,70.5331965 C70.904981,71.0469928 71.0332743,71.5214945 71.2794185,71.9314937 C71.4852845,72.2918184 71.769469,72.6121071 72.1178003,72.8552892 L72.1312263,72.8686345 C72.2595196,72.958345 72.3885588,73.0228476 72.531024,73.0992127 L73.614804,73.7027196 C73.4469785,73.7279275 73.2798989,73.7412728 73.1247535,73.7672221 C72.2595196,73.8821405 71.550177,73.971851 71.1884197,73.9978003 C69.4974842,74.1134601 66,69.6353503 66,68.2882103 C66,68.08284 66.1543995,67.7877592 66.4124779,67.415572 C67.4843236,65.9401682 70.3880784,63.4638625 72.4019848,62.2197783 C73.1247535,61.7704845 73.7311631,61.4880077 74.1056005,61.4627998 C75.796536,61.34714 83.1152212,66.2738022 83.1152212,66.2738022 L107.368622,64.9911648 L107.381302,64.9911648 L112.621934,64.708688 L113.447636,62.2197783 L113.615461,61.7452766 L113.770607,61.2574295 L114.196511,60 L124.238445,61.5658556 L125,61.680774 Z" id="Fill-59" fill="#FF9580"></path>
                <path d="M113.805343,51.4285139 L112,61.7908723 L112,61.7908723 L125.540888,64 L128.155429,53.6367543 C129.0842,49.9553884 126.852782,46.218134 123.171416,45.2893628 C122.966261,45.2376044 122.758826,45.1953448 122.549774,45.162719 C118.413999,44.5172697 114.523783,47.3047922 113.805343,51.4285139 Z" id="Fill-60" fill="#D02A33"></path>
                <polygon id="Fill-61" fill="#FA8B98" points="110.509 40.491 110.509 40.509 110.491 40.5"></polygon>
            </g>
        </g>
    </g>
</svg>