<svg xmlns="http://www.w3.org/2000/svg" width="1510" height="698" viewBox="0 0 1510 698">
    <g fill="none" fill-rule="evenodd">
        <g>
            <g transform="translate(-239 -6794) translate(239 6794)">
                <rect width="1440" height="559" y="42" fill="#1D3461" rx="10"/>
                <g transform="translate(719)">
                    <path fill="#FFF" d="M627.947 599.716l89.279-49.066c5.85-3.215 5.85-8.428 0-11.643L226.48 270.49c-5.848-3.217-15.333-3.217-21.184-.002L14.613 425.531 14 470.26l237.708 130.064" opacity=".123" transform="matrix(-1 0 0 1 735.613 0)"/>
                    <g>
                        <path fill="#E0E0E0" d="M718.151 440c-1.258 0-3.659-.392-5.627-3.018l-44.166-58.95c-2.349-3.134-1.378-5.734-.852-6.708 1.046-1.933 3.131-3.086 5.58-3.086.646 0 1.326.08 2.027.237l110.221 24.945c5.304 1.201 5.406 4.755 5.312 5.815-.095 1.06-.829 4.545-6.265 4.877l-54.453 3.324-5.471 27.07c-.823 4.056-3.909 5.494-6.304 5.494h-.002z" opacity=".493" transform="matrix(-1 0 0 1 791 258)"/>
                    </g>
                    <g>
                        <path fill="#70BA8E" d="M60.764 3.247c-.03-.8-.592-1.595-1.709-2.204-2.296-1.254-6.016-1.254-8.312-.002-1.12.61-1.681 1.406-1.71 2.206h-.011v254.297h11.753V3.247h-.01z" transform="matrix(-1 0 0 1 336 106)"/>
                        <path fill="#528C6A" d="M60.764 3.247c0-1.737-2.63-3.144-5.871-3.144-3.242 0-5.871 1.407-5.871 3.144s2.629 3.144 5.87 3.144c3.243 0 5.872-1.407 5.872-3.144" transform="matrix(-1 0 0 1 336 106)"/>
                        <path fill="#27DEBF" d="M88.616 59.029L11.982 17.193 0.458 23.481 11.982 42.341 88.616 84.177z" transform="matrix(-1 0 0 1 336 106)"/>
                        <path fill="#FB3640" d="M88.616 59.029L11.982 17.193 0.458 23.481 11.982 42.341 88.616 84.177z" transform="matrix(-1 0 0 1 336 106)"/>
                        <path fill="#27DEBF" d="M11.983 17.193L17.746 14.049 94.491 55.948 88.617 59.029z" transform="matrix(-1 0 0 1 336 106)"/>
                        <path fill="#B92229" d="M11.983 17.193L17.746 14.049 94.491 55.948 88.617 59.029z" transform="matrix(-1 0 0 1 336 106)"/>
                        <path fill="#27DEBF" d="M94.491 81.096L88.616 84.177 88.616 59.029 94.491 55.948z" transform="matrix(-1 0 0 1 336 106)"/>
                        <path fill="#D02A33" d="M94.491 81.096L88.616 84.177 88.616 59.029 94.491 55.948z" transform="matrix(-1 0 0 1 336 106)"/>
                    </g>
                    <path fill="#455A64" d="M761.765 495.62c3.68 2.71 3.28 6.558-1.183 8.992L516.38 638.756c-4.904 2.678-12.864 2.68-17.764-.013L31.91 382.41c-4.516-2.48-4.886-6.39-1.043-9.089-4.412 2.973-7.837 8.97-7.84 13.981l-.014 11.168c-.018 5.387 3.96 11.944 8.881 14.648L498.58 669.439c4.92 2.702 12.88 2.7 17.776-.007l244.212-134.115c4.904-2.675 8.886-9.236 8.88-14.634l.028-11.186c-.012-4.943-3.35-10.87-7.71-13.878" transform="matrix(-1 0 0 1 792.488 0)"/>
                    <path fill="#37474F" d="M760.578 494.867L293.871 238.534c-4.9-2.69-12.86-2.69-17.764-.014L31.903 372.665c-4.903 2.677-4.898 7.054.002 9.744l466.707 256.334c4.9 2.692 12.859 2.69 17.762.013l244.204-134.144c4.905-2.677 4.9-7.054 0-9.745" transform="matrix(-1 0 0 1 792.483 0)"/>
                    <path fill="#263238" d="M292.84 373.32c-4.412 2.974-7.835 8.97-7.838 13.982l-.016 11.166c.006 5.399 3.963 11.946 8.882 14.65L760.555 669.44c2.461 1.35 5.684 2.02 8.908 2.027l.013-30.708c-3.222-.004-6.444-.674-8.883-2.015L293.886 382.41c-4.518-2.481-4.887-6.39-1.045-9.09" transform="matrix(-1 0 0 1 1054.463 0)"/>
                    <path fill="#000" d="M650.228 329.028c2.492-1.369 2.492-3.59 0-4.959-2.494-1.369-6.536-1.369-9.029 0-2.494 1.37-2.494 3.59 0 4.96 2.493 1.369 6.537 1.369 9.029 0" transform="matrix(-1 0 0 1 1291.426 0)"/>
                    <path fill="#000" d="M601.184 321.532l34.855-19.143c2.08-1.142 2.184-2.938.233-4.009-1.951-1.07-5.218-1.015-7.297.127l-34.855 19.146c-2.08 1.14-2.184 2.936-.233 4.007 1.95 1.071 5.218 1.014 7.297-.128" transform="matrix(-1 0 0 1 1230.159 0)"/>
                    <path fill="#27DEBF" d="M307.121 259.09c-4.194-2.303-8.567-.97-12.772 1.348L66.103 385.726c-4.193 2.3-4.21 6.05.004 8.365l414.233 227.57c4.215 2.315 11.028 2.297 15.241.007L723.807 496.37c4.223-2.308 4.21-6.05.017-8.354L307.12 259.091z" transform="matrix(-1 0 0 1 789.924 0)"/>
                    <path fill="#FFE2B8" d="M307.121 259.09c-4.194-2.303-8.567-.97-12.772 1.348L66.103 385.726c-4.193 2.3-4.21 6.05.004 8.365l414.233 227.57c4.215 2.315 11.028 2.297 15.241.007L723.807 496.37c4.223-2.308 4.21-6.05.017-8.354L307.12 259.091z" transform="matrix(-1 0 0 1 789.924 0)"/>
                    <path fill="#A9CF00" d="M280.463 617.973l85.982-47.221-14.441-3.966c-45.708-12.553-94.82-6.858-136.02 15.772l64.48 35.415z" transform="matrix(-1 0 0 1 582.428 0)"/>
                    <path fill="#A9CF00" d="M80.942 562.601l128.46-70.555-85.98-47.222-50.738 115.51c2.657.725 5.416 1.489 8.258 2.267" transform="matrix(-1 0 0 1 282.086 0)"/>
                    <path fill="#A9CF00" d="M309.848 436.953l-50.153 119.606c-29.642-8.952-56.258-10.314-86.701-5.322l48.416-113.446 70.377-10.758 18.06 9.92z" transform="matrix(-1 0 0 1 482.842 0)"/>
                    <path fill="#A9CF00" d="M456.352 555.827l17.568-41.167-136.525-15.391-22.918 24.26 95.126 52.246c14.631-8.522 30.191-15.306 46.749-19.948" transform="matrix(-1 0 0 1 788.397 0)"/>
                    <path fill="#A9CF00" d="M215.344 397.798L258.051 421.211 201.655 429.873z" transform="matrix(-1 0 0 1 459.706 0)"/>
                    <path fill="#95B602" d="M506.163 403.503c5.936-3.26 15.56-3.26 21.494 0 5.937 3.26 5.937 8.545.002 11.805-5.936 3.261-15.56 3.261-21.496.001-5.936-3.26-5.936-8.546 0-11.806" transform="matrix(-1 0 0 1 1033.82 0)"/>
                    <path fill="#A9CF00" d="M508.697 438.602l-211.182-23.808c-2.23 4.827-6.04 5.924-14.908 7.765l58.92 64.099 140.493 15.837 26.677-63.893z" transform="matrix(-1 0 0 1 791.304 0)"/>
                    <path fill="#A9CF00" d="M502.697 377.985l-15.51 35.782-95.989-10.824c-1.818-1.979-4.621-3.64-8.238-5.05l13.164-31.921 106.573 12.013z" transform="matrix(-1 0 0 1 885.657 0)"/>
                    <path fill="#A9CF00" d="M382.401 388.764L365.91 427.442 260.749 415.578 277.275 376.901z" transform="matrix(-1 0 0 1 643.15 0)"/>
                    <path fill="#A9CF00" d="M484.827 377.924L310.627 282.247 280.469 354.863z" transform="matrix(-1 0 0 1 765.296 0)"/>
                    <path fill="#A9CF00" d="M548.272 421.423l64.323 69.976-22.916 24.259-124.346-68.296 76.742-28.685c1.989 1.145 4.046 2.093 6.197 2.746" transform="matrix(-1 0 0 1 1077.928 0)"/>
                    <path fill="#A9CF00" d="M592.973 353.265L625.203 275.608 603.709 263.802 466.756 339.022z" transform="matrix(-1 0 0 1 1091.96 0)"/>
                    <path fill="#A9CF00" d="M577.684 348.913l-73.991 40.817 93.144 51.157 82.172-30.806c-.183-3.742 1.692-7.356 7.74-10.707 4.94-2.709 11.117-3.737 17.948-3.882l12.83-31.117-139.843-15.462z" transform="matrix(-1 0 0 1 1221.22 0)"/>
                    <path fill="#27DEBF" d="M438.095 350.609L438.095 326.248 477.656 330.701 477.656 355.062z" transform="matrix(-1 0 0 1 915.752 0)"/>
                    <path fill="#27DEBF" d="M429.943 330.701L438.096 309.009 438.096 335.879 429.943 355.062z" transform="matrix(-1 0 0 1 868.039 0)"/>
                    <path fill="#27DEBF" d="M477.656 309.01L438.946 304.569 429.943 326.249 469.502 330.702z" transform="matrix(-1 0 0 1 907.598 0)"/>
                    <path fill="#FFF" d="M438.095 350.609L438.095 326.248 477.656 330.701 477.656 355.062z" transform="matrix(-1 0 0 1 915.752 0)"/>
                    <path fill="#FFF" d="M429.943 330.701L438.096 309.009 438.096 335.879 429.943 355.062z" transform="matrix(-1 0 0 1 868.039 0)"/>
                    <path fill="#FFF" d="M477.656 309.01L438.946 304.569 429.943 326.249 469.502 330.702z" transform="matrix(-1 0 0 1 907.598 0)"/>
                    <path fill="#27DEBF" d="M412.157 402.653L412.157 391.733 451.718 396.185 451.718 407.106z" transform="matrix(-1 0 0 1 863.875 0)"/>
                    <path fill="#27DEBF" d="M405.099 396.186L412.158 377.365 412.158 390.795 405.099 407.106z" transform="matrix(-1 0 0 1 817.258 0)"/>
                    <path fill="#27DEBF" d="M451.719 377.364L413.007 372.925 405.099 391.732 444.66 396.185z" transform="matrix(-1 0 0 1 856.818 0)"/>
                    <path fill="#FFF" d="M412.157 402.653L412.157 391.733 451.718 396.185 451.718 407.106z" transform="matrix(-1 0 0 1 863.875 0)"/>
                    <path fill="#FFF" d="M405.099 396.186L412.158 377.365 412.158 390.795 405.099 407.106z" transform="matrix(-1 0 0 1 817.258 0)"/>
                    <path fill="#FFF" d="M451.719 377.364L413.007 372.925 405.099 391.732 444.66 396.185z" transform="matrix(-1 0 0 1 856.818 0)"/>
                    <path fill="#27DEBF" d="M335.97 546.315L335.97 521.954 375.531 526.407 375.531 550.767z" transform="matrix(-1 0 0 1 711.502 0)"/>
                    <path fill="#27DEBF" d="M327.817 526.407L335.97 504.715 335.97 531.585 327.817 550.768z" transform="matrix(-1 0 0 1 663.787 0)"/>
                    <path fill="#27DEBF" d="M375.531 504.716L336.821 500.275 327.817 521.955 367.378 526.408z" transform="matrix(-1 0 0 1 703.348 0)"/>
                    <path fill="#FFF" d="M335.97 546.315L335.97 521.954 375.531 526.407 375.531 550.767z" transform="matrix(-1 0 0 1 711.502 0)"/>
                    <path fill="#FFF" d="M327.817 526.407L335.97 504.715 335.97 531.585 327.817 550.768z" transform="matrix(-1 0 0 1 663.787 0)"/>
                    <path fill="#FFF" d="M375.531 504.716L336.821 500.275 327.817 521.955 367.378 526.408z" transform="matrix(-1 0 0 1 703.348 0)"/>
                    <path fill="#27DEBF" d="M356.186 361.579L356.186 352.603 376.209 354.858 376.209 363.833z" transform="matrix(-1 0 0 1 732.395 0)"/>
                    <path fill="#27DEBF" d="M352.057 354.857L356.186 343.878 356.186 354.124 352.057 363.833z" transform="matrix(-1 0 0 1 708.243 0)"/>
                    <path fill="#27DEBF" d="M376.209 343.878L356.615 341.63 352.057 352.603 372.08 354.856z" transform="matrix(-1 0 0 1 728.266 0)"/>
                    <path fill="#FFF" d="M356.186 361.579L356.186 352.603 376.209 354.858 376.209 363.833z" transform="matrix(-1 0 0 1 732.395 0)"/>
                    <path fill="#FFF" d="M352.057 354.857L356.186 343.878 356.186 354.124 352.057 363.833z" transform="matrix(-1 0 0 1 708.243 0)"/>
                    <path fill="#FFF" d="M376.209 343.878L356.615 341.63 352.057 352.603 372.08 354.856z" transform="matrix(-1 0 0 1 728.266 0)"/>
                    <path fill="#27DEBF" d="M493.029 319.249L493.029 306.191 522.156 309.47 522.156 322.527z" transform="matrix(-1 0 0 1 1015.185 0)"/>
                    <path fill="#27DEBF" d="M487.024 309.47L493.028 293.5 493.028 308.404 487.024 322.527z" transform="matrix(-1 0 0 1 980.053 0)"/>
                    <path fill="#27DEBF" d="M522.156 293.5L493.653 290.23 487.025 306.191 516.152 309.47z" transform="matrix(-1 0 0 1 1009.181 0)"/>
                    <path fill="#FFF" d="M493.029 319.249L493.029 306.191 522.156 309.47 522.156 322.527z" transform="matrix(-1 0 0 1 1015.185 0)"/>
                    <path fill="#FFF" d="M487.024 309.47L493.028 293.5 493.028 308.404 487.024 322.527z" transform="matrix(-1 0 0 1 980.053 0)"/>
                    <path fill="#FFF" d="M522.156 293.5L493.653 290.23 487.025 306.191 516.152 309.47z" transform="matrix(-1 0 0 1 1009.181 0)"/>
                    <path fill="#27DEBF" d="M346.75 412.425L346.75 400.782 372.722 403.705 372.722 415.347z" transform="matrix(-1 0 0 1 719.472 0)"/>
                    <path fill="#27DEBF" d="M341.397 403.705L346.75 389.465 346.75 402.754 341.397 415.348z" transform="matrix(-1 0 0 1 688.147 0)"/>
                    <path fill="#27DEBF" d="M372.722 389.465L347.308 386.551 341.397 400.782 367.368 403.704z" transform="matrix(-1 0 0 1 714.119 0)"/>
                    <path fill="#FFF" d="M346.75 412.425L346.75 400.782 372.722 403.705 372.722 415.347z" transform="matrix(-1 0 0 1 719.472 0)"/>
                    <path fill="#FFF" d="M341.397 403.705L346.75 389.465 346.75 402.754 341.397 415.348z" transform="matrix(-1 0 0 1 688.147 0)"/>
                    <path fill="#FFF" d="M372.722 389.465L347.308 386.551 341.397 400.782 367.368 403.704z" transform="matrix(-1 0 0 1 714.119 0)"/>
                    <path fill="#27DEBF" d="M463.835 398.528L463.835 386.55 490.556 389.557 490.556 401.535z" transform="matrix(-1 0 0 1 954.39 0)"/>
                    <path fill="#27DEBF" d="M458.328 389.557L463.835 374.906 463.835 388.58 458.328 401.534z" transform="matrix(-1 0 0 1 922.163 0)"/>
                    <path fill="#27DEBF" d="M490.556 374.906L464.409 371.906 458.328 386.551 485.049 389.557z" transform="matrix(-1 0 0 1 948.884 0)"/>
                    <path fill="#FFF" d="M463.835 398.528L463.835 386.55 490.556 389.557 490.556 401.535z" transform="matrix(-1 0 0 1 954.39 0)"/>
                    <path fill="#FFF" d="M458.328 389.557L463.835 374.906 463.835 388.58 458.328 401.534z" transform="matrix(-1 0 0 1 922.163 0)"/>
                    <path fill="#FFF" d="M490.556 374.906L464.409 371.906 458.328 386.551 485.049 389.557z" transform="matrix(-1 0 0 1 948.884 0)"/>
                    <path fill="#27DEBF" d="M313.148 416.107L313.148 404.464 339.12 407.388 339.12 419.029z" transform="matrix(-1 0 0 1 652.268 0)"/>
                    <path fill="#27DEBF" d="M307.795 407.387L313.149 393.147 313.149 406.436 307.795 419.03z" transform="matrix(-1 0 0 1 620.944 0)"/>
                    <path fill="#27DEBF" d="M339.12 393.147L313.706 390.233 307.796 404.464 333.767 407.387z" transform="matrix(-1 0 0 1 646.915 0)"/>
                    <path fill="#FFF" d="M313.148 416.107L313.148 404.464 339.12 407.388 339.12 419.029z" transform="matrix(-1 0 0 1 652.268 0)"/>
                    <path fill="#FFF" d="M307.795 407.387L313.149 393.147 313.149 406.436 307.795 419.03z" transform="matrix(-1 0 0 1 620.944 0)"/>
                    <path fill="#FFF" d="M339.12 393.147L313.706 390.233 307.796 404.464 333.767 407.387z" transform="matrix(-1 0 0 1 646.915 0)"/>
                    <path fill="#27DEBF" d="M279.546 419.788L279.546 408.147 305.519 411.069 305.519 422.711z" transform="matrix(-1 0 0 1 585.065 0)"/>
                    <path fill="#27DEBF" d="M274.194 411.069L279.547 396.83 279.547 410.118 274.194 422.711z" transform="matrix(-1 0 0 1 553.74 0)"/>
                    <path fill="#27DEBF" d="M305.518 396.829L280.104 393.913 274.194 408.147 300.165 411.069z" transform="matrix(-1 0 0 1 579.712 0)"/>
                    <path fill="#FFF" d="M279.546 419.788L279.546 408.147 305.519 411.069 305.519 422.711z" transform="matrix(-1 0 0 1 585.065 0)"/>
                    <path fill="#FFF" d="M274.194 411.069L279.547 396.83 279.547 410.118 274.194 422.711z" transform="matrix(-1 0 0 1 553.74 0)"/>
                    <path fill="#FFF" d="M305.518 396.829L280.104 393.913 274.194 408.147 300.165 411.069z" transform="matrix(-1 0 0 1 579.712 0)"/>
                    <path fill="#27DEBF" d="M590.356 380.942L590.356 369.3 616.329 372.223 616.329 383.864z" transform="matrix(-1 0 0 1 1206.685 0)"/>
                    <path fill="#27DEBF" d="M585.004 372.223L590.357 357.983 590.357 371.272 585.004 383.865z" transform="matrix(-1 0 0 1 1175.36 0)"/>
                    <path fill="#27DEBF" d="M616.328 357.983L590.914 355.067 585.004 369.3 610.975 372.223z" transform="matrix(-1 0 0 1 1201.333 0)"/>
                    <path fill="#FFF" d="M590.356 380.942L590.356 369.3 616.329 372.223 616.329 383.864z" transform="matrix(-1 0 0 1 1206.685 0)"/>
                    <path fill="#FFF" d="M585.004 372.223L590.357 357.983 590.357 371.272 585.004 383.865z" transform="matrix(-1 0 0 1 1175.36 0)"/>
                    <path fill="#FFF" d="M616.328 357.983L590.914 355.067 585.004 369.3 610.975 372.223z" transform="matrix(-1 0 0 1 1201.333 0)"/>
                    <path fill="#27DEBF" d="M556.756 384.624L556.756 372.981 582.727 375.905 582.727 387.546z" transform="matrix(-1 0 0 1 1139.484 0)"/>
                    <path fill="#27DEBF" d="M551.403 375.905L556.756 361.664 556.756 374.954 551.403 387.547z" transform="matrix(-1 0 0 1 1108.16 0)"/>
                    <path fill="#27DEBF" d="M582.727 361.664L557.313 358.75 551.403 372.982 577.373 375.906z" transform="matrix(-1 0 0 1 1134.13 0)"/>
                    <path fill="#FFF" d="M556.756 384.624L556.756 372.981 582.727 375.905 582.727 387.546z" transform="matrix(-1 0 0 1 1139.484 0)"/>
                    <path fill="#FFF" d="M551.403 375.905L556.756 361.664 556.756 374.954 551.403 387.547z" transform="matrix(-1 0 0 1 1108.16 0)"/>
                    <path fill="#FFF" d="M582.727 361.664L557.313 358.75 551.403 372.982 577.373 375.906z" transform="matrix(-1 0 0 1 1134.13 0)"/>
                    <path fill="#27DEBF" d="M523.153 388.306L523.153 376.663 549.126 379.587 549.126 391.229z" transform="matrix(-1 0 0 1 1072.279 0)"/>
                    <path fill="#27DEBF" d="M517.8 379.587L523.154 365.347 523.154 378.637 517.8 391.23z" transform="matrix(-1 0 0 1 1040.954 0)"/>
                    <path fill="#27DEBF" d="M549.125 365.346L523.711 362.432 517.801 376.664 543.772 379.586z" transform="matrix(-1 0 0 1 1066.926 0)"/>
                    <path fill="#FFF" d="M523.153 388.306L523.153 376.663 549.126 379.587 549.126 391.229z" transform="matrix(-1 0 0 1 1072.279 0)"/>
                    <path fill="#FFF" d="M517.8 379.587L523.154 365.347 523.154 378.637 517.8 391.23z" transform="matrix(-1 0 0 1 1040.954 0)"/>
                    <path fill="#FFF" d="M549.125 365.346L523.711 362.432 517.801 376.664 543.772 379.586z" transform="matrix(-1 0 0 1 1066.926 0)"/>
                    <path fill="#27DEBF" d="M191.759 343.577L191.759 336.643 213.781 339.11 213.781 346.044z" transform="matrix(-1 0 0 1 405.54 0)"/>
                    <path fill="#FFF" d="M191.759 343.577L191.759 336.643 213.781 339.11 213.781 346.044z" transform="matrix(-1 0 0 1 405.54 0)"/>
                    <path fill="#27DEBF" d="M188.536 339.109L191.758 330.14 191.758 338.555 188.536 346.043z" transform="matrix(-1 0 0 1 380.294 0)"/>
                    <path fill="#FFF" d="M188.536 339.109L191.758 330.14 191.758 338.555 188.536 346.043z" transform="matrix(-1 0 0 1 380.294 0)"/>
                    <path fill="#27DEBF" d="M213.781 330.14L192.261 327.68 188.535 336.642 210.559 339.109z" transform="matrix(-1 0 0 1 402.317 0)"/>
                    <path fill="#FFF" d="M213.781 330.14L192.261 327.68 188.535 336.642 210.559 339.109z" transform="matrix(-1 0 0 1 402.317 0)"/>
                    <path fill="#27DEBF" d="M343.917 490.135L343.917 478.49 369.895 481.414 369.895 493.059z" transform="matrix(-1 0 0 1 713.811 0)"/>
                    <path fill="#27DEBF" d="M338.563 481.415L343.918 467.172 343.918 480.463 338.563 493.059z" transform="matrix(-1 0 0 1 682.48 0)"/>
                    <path fill="#27DEBF" d="M369.894 467.171L344.475 464.255 338.563 478.49 364.539 481.414z" transform="matrix(-1 0 0 1 708.457 0)"/>
                    <path fill="#FFF" d="M343.917 490.135L343.917 478.49 369.895 481.414 369.895 493.059z" transform="matrix(-1 0 0 1 713.811 0)"/>
                    <path fill="#FFF" d="M338.563 481.415L343.918 467.172 343.918 480.463 338.563 493.059z" transform="matrix(-1 0 0 1 682.48 0)"/>
                    <path fill="#FFF" d="M369.894 467.171L344.475 464.255 338.563 478.49 364.539 481.414z" transform="matrix(-1 0 0 1 708.457 0)"/>
                    <path fill="#27DEBF" d="M311.497 493.809L311.497 482.164 337.475 485.088 337.475 496.733z" transform="matrix(-1 0 0 1 648.973 0)"/>
                    <path fill="#27DEBF" d="M306.143 485.088L311.498 470.845 311.498 484.137 306.143 496.733z" transform="matrix(-1 0 0 1 617.642 0)"/>
                    <path fill="#27DEBF" d="M337.475 470.844L312.056 467.929 306.144 482.163 332.12 485.087z" transform="matrix(-1 0 0 1 643.619 0)"/>
                    <path fill="#FFF" d="M311.497 493.809L311.497 482.164 337.475 485.088 337.475 496.733z" transform="matrix(-1 0 0 1 648.973 0)"/>
                    <path fill="#FFF" d="M306.143 485.088L311.498 470.845 311.498 484.137 306.143 496.733z" transform="matrix(-1 0 0 1 617.642 0)"/>
                    <path fill="#FFF" d="M337.475 470.844L312.056 467.929 306.144 482.163 332.12 485.087z" transform="matrix(-1 0 0 1 643.619 0)"/>
                    <path fill="#27DEBF" d="M425.971 529.153L425.971 517.508 451.949 520.432 451.949 532.077z" transform="matrix(-1 0 0 1 877.92 0)"/>
                    <path fill="#27DEBF" d="M420.617 520.432L425.972 506.189 425.972 519.481 420.617 532.077z" transform="matrix(-1 0 0 1 846.588 0)"/>
                    <path fill="#27DEBF" d="M451.948 506.188L426.529 503.273 420.617 517.507 446.593 520.431z" transform="matrix(-1 0 0 1 872.566 0)"/>
                    <path fill="#FFF" d="M425.971 529.153L425.971 517.508 451.949 520.432 451.949 532.077z" transform="matrix(-1 0 0 1 877.92 0)"/>
                    <path fill="#FFF" d="M420.617 520.432L425.972 506.189 425.972 519.481 420.617 532.077z" transform="matrix(-1 0 0 1 846.588 0)"/>
                    <path fill="#FFF" d="M451.948 506.188L426.529 503.273 420.617 517.507 446.593 520.431z" transform="matrix(-1 0 0 1 872.566 0)"/>
                    <path fill="#27DEBF" d="M393.552 532.827L393.552 521.182 419.529 524.106 419.529 535.751z" transform="matrix(-1 0 0 1 813.081 0)"/>
                    <path fill="#27DEBF" d="M388.198 524.106L393.552 509.863 393.552 523.155 388.198 535.751z" transform="matrix(-1 0 0 1 781.75 0)"/>
                    <path fill="#27DEBF" d="M419.529 509.863L394.11 506.947 388.198 521.182 414.176 524.106z" transform="matrix(-1 0 0 1 807.727 0)"/>
                    <path fill="#FFF" d="M393.552 532.827L393.552 521.182 419.529 524.106 419.529 535.751z" transform="matrix(-1 0 0 1 813.081 0)"/>
                    <path fill="#FFF" d="M388.198 524.106L393.552 509.863 393.552 523.155 388.198 535.751z" transform="matrix(-1 0 0 1 781.75 0)"/>
                    <path fill="#FFF" d="M419.529 509.863L394.11 506.947 388.198 521.182 414.176 524.106z" transform="matrix(-1 0 0 1 807.727 0)"/>
                    <path fill="#27DEBF" d="M196.451 473.873L196.451 462.228 222.429 465.152 222.429 476.797z" transform="matrix(-1 0 0 1 418.88 0)"/>
                    <path fill="#27DEBF" d="M191.097 465.151L196.452 450.908 196.452 464.2 191.097 476.796z" transform="matrix(-1 0 0 1 387.55 0)"/>
                    <path fill="#27DEBF" d="M222.429 450.908L197.01 447.992 191.098 462.227 217.074 465.151z" transform="matrix(-1 0 0 1 413.526 0)"/>
                    <path fill="#FFF" d="M196.451 473.873L196.451 462.228 222.429 465.152 222.429 476.797z" transform="matrix(-1 0 0 1 418.88 0)"/>
                    <path fill="#FFF" d="M191.097 465.151L196.452 450.908 196.452 464.2 191.097 476.796z" transform="matrix(-1 0 0 1 387.55 0)"/>
                    <path fill="#FFF" d="M222.429 450.908L197.01 447.992 191.098 462.227 217.074 465.151z" transform="matrix(-1 0 0 1 413.526 0)"/>
                    <path fill="#27DEBF" d="M206.64 497.866L206.64 486.222 232.618 489.146 232.618 500.79z" transform="matrix(-1 0 0 1 439.258 0)"/>
                    <path fill="#27DEBF" d="M201.288 489.145L206.641 474.902 206.641 488.194 201.288 500.79z" transform="matrix(-1 0 0 1 407.929 0)"/>
                    <path fill="#27DEBF" d="M232.618 474.902L207.2 471.986 201.288 486.221 227.264 489.145z" transform="matrix(-1 0 0 1 433.906 0)"/>
                    <path fill="#FFF" d="M206.64 497.866L206.64 486.222 232.618 489.146 232.618 500.79z" transform="matrix(-1 0 0 1 439.258 0)"/>
                    <path fill="#FFF" d="M201.288 489.145L206.641 474.902 206.641 488.194 201.288 500.79z" transform="matrix(-1 0 0 1 407.929 0)"/>
                    <path fill="#FFF" d="M232.618 474.902L207.2 471.986 201.288 486.221 227.264 489.145z" transform="matrix(-1 0 0 1 433.906 0)"/>
                    <path fill="#27DEBF" d="M216.831 521.86L216.831 510.216 242.808 513.139 242.808 524.784z" transform="matrix(-1 0 0 1 459.64 0)"/>
                    <path fill="#27DEBF" d="M211.476 513.139L216.831 498.896 216.831 512.188 211.476 524.784z" transform="matrix(-1 0 0 1 428.308 0)"/>
                    <path fill="#27DEBF" d="M242.808 498.896L217.389 495.98 211.477 510.215 237.453 513.139z" transform="matrix(-1 0 0 1 454.285 0)"/>
                    <path fill="#FFF" d="M216.831 521.86L216.831 510.216 242.808 513.139 242.808 524.784z" transform="matrix(-1 0 0 1 459.64 0)"/>
                    <path fill="#FFF" d="M211.476 513.139L216.831 498.896 216.831 512.188 211.476 524.784z" transform="matrix(-1 0 0 1 428.308 0)"/>
                    <path fill="#FFF" d="M242.808 498.896L217.389 495.98 211.477 510.215 237.453 513.139z" transform="matrix(-1 0 0 1 454.285 0)"/>
                    <path fill="#27DEBF" d="M227.021 545.854L227.021 534.209 252.999 537.133 252.999 548.777z" transform="matrix(-1 0 0 1 480.02 0)"/>
                    <path fill="#27DEBF" d="M221.667 537.133L227.022 522.89 227.022 536.182 221.667 548.778z" transform="matrix(-1 0 0 1 448.689 0)"/>
                    <path fill="#27DEBF" d="M252.998 522.89L227.579 519.974 221.667 534.209 247.643 537.133z" transform="matrix(-1 0 0 1 474.666 0)"/>
                    <path fill="#FFF" d="M227.021 545.854L227.021 534.209 252.999 537.133 252.999 548.777z" transform="matrix(-1 0 0 1 480.02 0)"/>
                    <path fill="#FFF" d="M221.667 537.133L227.022 522.89 227.022 536.182 221.667 548.778z" transform="matrix(-1 0 0 1 448.689 0)"/>
                    <path fill="#FFF" d="M252.998 522.89L227.579 519.974 221.667 534.209 247.643 537.133z" transform="matrix(-1 0 0 1 474.666 0)"/>
                    <path fill="#27DEBF" d="M240.543 468.993L240.543 457.348 266.52 460.272 266.52 471.917z" transform="matrix(-1 0 0 1 507.063 0)"/>
                    <path fill="#27DEBF" d="M235.188 460.272L240.543 446.029 240.543 459.321 235.188 471.917z" transform="matrix(-1 0 0 1 475.732 0)"/>
                    <path fill="#27DEBF" d="M266.52 446.029L241.101 443.113 235.189 457.348 261.165 460.272z" transform="matrix(-1 0 0 1 501.709 0)"/>
                    <path fill="#FFF" d="M240.543 468.993L240.543 457.348 266.52 460.272 266.52 471.917z" transform="matrix(-1 0 0 1 507.063 0)"/>
                    <path fill="#FFF" d="M235.188 460.272L240.543 446.029 240.543 459.321 235.188 471.917z" transform="matrix(-1 0 0 1 475.732 0)"/>
                    <path fill="#FFF" d="M266.52 446.029L241.101 443.113 235.189 457.348 261.165 460.272z" transform="matrix(-1 0 0 1 501.709 0)"/>
                    <path fill="#27DEBF" d="M250.731 492.987L250.731 481.342 276.709 484.266 276.709 495.911z" transform="matrix(-1 0 0 1 527.44 0)"/>
                    <path fill="#27DEBF" d="M245.377 484.266L250.732 470.023 250.732 483.315 245.377 495.911z" transform="matrix(-1 0 0 1 496.11 0)"/>
                    <path fill="#27DEBF" d="M276.709 470.022L251.29 467.107 245.378 481.341 271.354 484.265z" transform="matrix(-1 0 0 1 522.086 0)"/>
                    <path fill="#FFF" d="M250.731 492.987L250.731 481.342 276.709 484.266 276.709 495.911z" transform="matrix(-1 0 0 1 527.44 0)"/>
                    <path fill="#FFF" d="M245.377 484.266L250.732 470.023 250.732 483.315 245.377 495.911z" transform="matrix(-1 0 0 1 496.11 0)"/>
                    <path fill="#FFF" d="M276.709 470.022L251.29 467.107 245.378 481.341 271.354 484.265z" transform="matrix(-1 0 0 1 522.086 0)"/>
                    <path fill="#27DEBF" d="M260.922 516.981L260.922 505.336 286.9 508.26 286.9 519.905z" transform="matrix(-1 0 0 1 547.821 0)"/>
                    <path fill="#27DEBF" d="M255.568 508.26L260.923 494.017 260.923 507.309 255.568 519.905z" transform="matrix(-1 0 0 1 516.49 0)"/>
                    <path fill="#27DEBF" d="M286.899 494.016L261.48 491.101 255.568 505.335 281.544 508.259z" transform="matrix(-1 0 0 1 542.467 0)"/>
                    <path fill="#FFF" d="M260.922 516.981L260.922 505.336 286.9 508.26 286.9 519.905z" transform="matrix(-1 0 0 1 547.821 0)"/>
                    <path fill="#FFF" d="M255.568 508.26L260.923 494.017 260.923 507.309 255.568 519.905z" transform="matrix(-1 0 0 1 516.49 0)"/>
                    <path fill="#FFF" d="M286.899 494.016L261.48 491.101 255.568 505.335 281.544 508.259z" transform="matrix(-1 0 0 1 542.467 0)"/>
                    <path fill="#27DEBF" d="M271.111 540.975L271.111 529.33 297.09 532.254 297.09 543.897z" transform="matrix(-1 0 0 1 568.2 0)"/>
                    <path fill="#27DEBF" d="M265.758 532.254L271.111 518.011 271.111 531.303 265.758 543.898z" transform="matrix(-1 0 0 1 536.87 0)"/>
                    <path fill="#27DEBF" d="M297.09 518.01L271.672 515.095 265.758 529.329 291.736 532.253z" transform="matrix(-1 0 0 1 562.848 0)"/>
                    <path fill="#FFF" d="M271.111 540.975L271.111 529.33 297.09 532.254 297.09 543.897z" transform="matrix(-1 0 0 1 568.2 0)"/>
                    <path fill="#FFF" d="M265.758 532.254L271.111 518.011 271.111 531.303 265.758 543.898z" transform="matrix(-1 0 0 1 536.87 0)"/>
                    <path fill="#FFF" d="M297.09 518.01L271.672 515.095 265.758 529.329 291.736 532.253z" transform="matrix(-1 0 0 1 562.848 0)"/>
                    <path fill="#27DEBF" d="M158.948 512.88L158.948 503.722 179.38 506.022 179.38 515.179z" transform="matrix(-1 0 0 1 338.328 0)"/>
                    <path fill="#27DEBF" d="M154.737 506.021L158.949 494.818 158.949 505.273 154.737 515.18z" transform="matrix(-1 0 0 1 313.686 0)"/>
                    <path fill="#27DEBF" d="M179.38 494.818L159.387 492.525 154.738 503.722 175.168 506.022z" transform="matrix(-1 0 0 1 334.118 0)"/>
                    <path fill="#FFF" d="M158.948 512.88L158.948 503.722 179.38 506.022 179.38 515.179z" transform="matrix(-1 0 0 1 338.328 0)"/>
                    <path fill="#FFF" d="M154.737 506.021L158.949 494.818 158.949 505.273 154.737 515.18z" transform="matrix(-1 0 0 1 313.686 0)"/>
                    <path fill="#FFF" d="M179.38 494.818L159.387 492.525 154.738 503.722 175.168 506.022z" transform="matrix(-1 0 0 1 334.118 0)"/>
                    <path fill="#27DEBF" d="M169.164 539.851L169.164 530.692 189.596 532.993 189.596 542.15z" transform="matrix(-1 0 0 1 358.76 0)"/>
                    <path fill="#27DEBF" d="M164.953 532.992L169.164 521.788 169.164 532.243 164.953 542.151z" transform="matrix(-1 0 0 1 334.117 0)"/>
                    <path fill="#27DEBF" d="M189.596 521.789L169.603 519.495 164.954 530.692 185.384 532.993z" transform="matrix(-1 0 0 1 354.55 0)"/>
                    <path fill="#FFF" d="M169.164 539.851L169.164 530.692 189.596 532.993 189.596 542.15z" transform="matrix(-1 0 0 1 358.76 0)"/>
                    <path fill="#FFF" d="M164.953 532.992L169.164 521.788 169.164 532.243 164.953 542.151z" transform="matrix(-1 0 0 1 334.117 0)"/>
                    <path fill="#FFF" d="M189.596 521.789L169.603 519.495 164.954 530.692 185.384 532.993z" transform="matrix(-1 0 0 1 354.55 0)"/>
                    <path fill="#27DEBF" d="M376.804 485.315L376.804 441.683 408.999 445.29 408.999 488.92z" transform="matrix(-1 0 0 1 785.803 0)"/>
                    <path fill="#FFF" d="M376.804 485.315L376.804 441.683 408.999 445.29 408.999 488.92z" transform="matrix(-1 0 0 1 785.803 0)"/>
                    <path fill="#27DEBF" d="M372.621 445.289L376.803 434.66 376.803 480.456 372.621 488.92z" transform="matrix(-1 0 0 1 749.424 0)"/>
                    <path fill="#FFF" d="M372.621 445.289L376.803 434.66 376.803 480.456 372.621 488.92z" transform="matrix(-1 0 0 1 749.424 0)"/>
                    <path fill="#27DEBF" d="M408.999 434.659L377.537 431.064 372.621 441.683 404.817 445.289z" transform="matrix(-1 0 0 1 781.62 0)"/>
                    <path fill="#FFF" d="M408.999 434.659L377.537 431.064 372.621 441.683 404.817 445.289z" transform="matrix(-1 0 0 1 781.62 0)"/>
                    <path fill="#27DEBF" d="M553.245 338.648L553.245 287.055 571.801 289.02 571.801 340.613z" transform="matrix(-1 0 0 1 1125.047 0)"/>
                    <path fill="#FFF" d="M553.245 338.648L553.245 287.055 571.801 289.02 571.801 340.613z" transform="matrix(-1 0 0 1 1125.047 0)"/>
                    <path fill="#27DEBF" d="M549.064 289.021L553.246 278.391 553.246 332.149 549.064 340.613z" transform="matrix(-1 0 0 1 1102.31 0)"/>
                    <path fill="#FFF" d="M549.064 289.021L553.246 278.391 553.246 332.149 549.064 340.613z" transform="matrix(-1 0 0 1 1102.31 0)"/>
                    <path fill="#27DEBF" d="M571.801 278.391L553.979 276.436 549.063 287.056 567.619 289.021z" transform="matrix(-1 0 0 1 1120.864 0)"/>
                    <path fill="#FFF" d="M571.801 278.391L553.979 276.436 549.063 287.056 567.619 289.021z" transform="matrix(-1 0 0 1 1120.864 0)"/>
                    <path fill="#27DEBF" d="M541.331 336.85L541.331 291.352 551.154 292.359 551.154 337.857z" transform="matrix(-1 0 0 1 1092.486 0)"/>
                    <path fill="#FFF" d="M541.331 336.85L541.331 291.352 551.154 292.359 551.154 337.857z" transform="matrix(-1 0 0 1 1092.486 0)"/>
                    <path fill="#27DEBF" d="M539.806 292.36L541.331 287.696 541.331 335.057 539.806 337.856z" transform="matrix(-1 0 0 1 1081.137 0)"/>
                    <path fill="#FFF" d="M539.806 292.36L541.331 287.696 541.331 335.057 539.806 337.856z" transform="matrix(-1 0 0 1 1081.137 0)"/>
                    <path fill="#27DEBF" d="M551.155 287.696L541.964 286.699 539.805 291.353 549.63 292.36z" transform="matrix(-1 0 0 1 1090.96 0)"/>
                    <path fill="#FFF" d="M551.155 287.696L541.964 286.699 539.805 291.353 549.63 292.36z" transform="matrix(-1 0 0 1 1090.96 0)"/>
                    <path fill="#27DEBF" d="M415.301 480.949L415.301 437.319 447.495 440.924 447.495 484.555z" transform="matrix(-1 0 0 1 862.796 0)"/>
                    <path fill="#FFF" d="M415.301 480.949L415.301 437.319 447.495 440.924 447.495 484.555z" transform="matrix(-1 0 0 1 862.796 0)"/>
                    <path fill="#27DEBF" d="M411.118 440.924L415.301 430.294 415.301 476.09 411.118 484.554z" transform="matrix(-1 0 0 1 826.42 0)"/>
                    <path fill="#FFF" d="M411.118 440.924L415.301 430.294 415.301 476.09 411.118 484.554z" transform="matrix(-1 0 0 1 826.42 0)"/>
                    <path fill="#27DEBF" d="M447.496 430.293L416.033 426.698 411.118 437.319 443.314 440.923z" transform="matrix(-1 0 0 1 858.613 0)"/>
                    <path fill="#FFF" d="M447.496 430.293L416.033 426.698 411.118 437.319 443.314 440.923z" transform="matrix(-1 0 0 1 858.613 0)"/>
                    <path fill="#27DEBF" d="M502.982 343.572L502.982 330.513 532.109 333.793 532.109 346.849z" transform="matrix(-1 0 0 1 1035.091 0)"/>
                    <path fill="#27DEBF" d="M496.978 333.793L502.981 317.821 502.981 332.727 496.978 346.849z" transform="matrix(-1 0 0 1 999.959 0)"/>
                    <path fill="#27DEBF" d="M532.109 317.821L503.606 314.552 496.978 330.514 526.106 333.794z" transform="matrix(-1 0 0 1 1029.087 0)"/>
                    <path fill="#FFF" d="M502.982 343.572L502.982 330.513 532.109 333.793 532.109 346.849z" transform="matrix(-1 0 0 1 1035.091 0)"/>
                    <path fill="#FFF" d="M496.978 333.793L502.981 317.821 502.981 332.727 496.978 346.849z" transform="matrix(-1 0 0 1 999.959 0)"/>
                    <path fill="#FFF" d="M532.109 317.821L503.606 314.552 496.978 330.514 526.106 333.794z" transform="matrix(-1 0 0 1 1029.087 0)"/>
                    <path fill="#27DEBF" d="M595.071 437.179L574.213 448.629 557.51 439.522 579.44 427.482z" transform="matrix(-1 0 0 1 1152.58 0)"/>
                    <path fill="#FFF" d="M595.071 437.179L574.213 448.629 557.51 439.522 579.44 427.482z" transform="matrix(-1 0 0 1 1152.58 0)"/>
                    <path fill="#27DEBF" d="M578.367 448.96L578.367 439.523 595.07 448.631 595.07 458.13z" transform="matrix(-1 0 0 1 1173.438 0)"/>
                    <path fill="#FFF" d="M578.367 448.96L578.367 439.523 595.07 448.631 595.07 458.13z" transform="matrix(-1 0 0 1 1173.438 0)"/>
                    <path fill="#27DEBF" d="M578.367 437.179L578.367 446.675 557.51 458.13 557.51 448.629z" transform="matrix(-1 0 0 1 1135.877 0)"/>
                    <path fill="#FFF" d="M578.367 437.179L578.367 446.675 557.51 458.13 557.51 448.629z" transform="matrix(-1 0 0 1 1135.877 0)"/>
                    <path fill="#27DEBF" d="M571.749 450.263L550.891 461.713 534.188 452.607 556.118 440.566z" transform="matrix(-1 0 0 1 1105.937 0)"/>
                    <path fill="#FFF" d="M571.749 450.263L550.891 461.713 534.188 452.607 556.118 440.566z" transform="matrix(-1 0 0 1 1105.937 0)"/>
                    <path fill="#27DEBF" d="M555.045 462.044L555.045 452.607 571.75 461.714 571.75 471.215z" transform="matrix(-1 0 0 1 1126.794 0)"/>
                    <path fill="#FFF" d="M555.045 462.044L555.045 452.607 571.75 461.714 571.75 471.215z" transform="matrix(-1 0 0 1 1126.794 0)"/>
                    <path fill="#27DEBF" d="M555.046 450.263L555.046 459.759 534.188 471.214 534.188 461.713z" transform="matrix(-1 0 0 1 1089.234 0)"/>
                    <path fill="#FFF" d="M555.046 450.263L555.046 459.759 534.188 471.214 534.188 461.713z" transform="matrix(-1 0 0 1 1089.234 0)"/>
                    <path fill="#27DEBF" d="M547.958 463.223L527.102 474.674 510.396 465.568 532.327 453.526z" transform="matrix(-1 0 0 1 1058.354 0)"/>
                    <path fill="#FFF" d="M547.958 463.223L527.102 474.674 510.396 465.568 532.327 453.526z" transform="matrix(-1 0 0 1 1058.354 0)"/>
                    <path fill="#27DEBF" d="M531.253 475.004L531.253 465.567 547.958 474.675 547.958 484.176z" transform="matrix(-1 0 0 1 1079.21 0)"/>
                    <path fill="#FFF" d="M531.253 475.004L531.253 465.567 547.958 474.675 547.958 484.176z" transform="matrix(-1 0 0 1 1079.21 0)"/>
                    <path fill="#27DEBF" d="M531.253 463.223L531.253 472.719 510.396 484.174 510.396 474.674z" transform="matrix(-1 0 0 1 1041.65 0)"/>
                    <path fill="#FFF" d="M531.253 463.223L531.253 472.719 510.396 484.174 510.396 474.674z" transform="matrix(-1 0 0 1 1041.65 0)"/>
                    <path fill="#27DEBF" d="M514.195 469.074L493.337 480.524 476.634 471.417 498.564 459.377z" transform="matrix(-1 0 0 1 990.828 0)"/>
                    <path fill="#FFF" d="M514.195 469.074L493.337 480.524 476.634 471.417 498.564 459.377z" transform="matrix(-1 0 0 1 990.828 0)"/>
                    <path fill="#27DEBF" d="M497.491 494.137L497.491 471.417 514.194 480.524 514.194 503.309z" transform="matrix(-1 0 0 1 1011.686 0)"/>
                    <path fill="#FFF" d="M497.491 494.137L497.491 471.417 514.194 480.524 514.194 503.309z" transform="matrix(-1 0 0 1 1011.686 0)"/>
                    <path fill="#27DEBF" d="M497.491 469.074L497.491 491.852 476.634 503.309 476.634 480.524z" transform="matrix(-1 0 0 1 974.125 0)"/>
                    <path fill="#FFF" d="M497.491 469.074L497.491 491.852 476.634 503.309 476.634 480.524z" transform="matrix(-1 0 0 1 974.125 0)"/>
                    <path fill="#27DEBF" d="M640.667 415.646L618.053 423.694 601.35 414.587 625.036 405.95z" transform="matrix(-1 0 0 1 1242.017 0)"/>
                    <path fill="#FFF" d="M640.667 415.646L618.053 423.694 601.35 414.587 625.036 405.95z" transform="matrix(-1 0 0 1 1242.017 0)"/>
                    <path fill="#27DEBF" d="M623.964 424.025L623.964 414.588 640.668 423.694 640.668 433.195z" transform="matrix(-1 0 0 1 1264.632 0)"/>
                    <path fill="#FFF" d="M623.964 424.025L623.964 414.588 640.668 423.694 640.668 433.195z" transform="matrix(-1 0 0 1 1264.632 0)"/>
                    <path fill="#27DEBF" d="M623.963 415.646L623.963 425.142 601.35 433.195 601.35 423.694z" transform="matrix(-1 0 0 1 1225.313 0)"/>
                    <path fill="#FFF" d="M623.963 415.646L623.963 425.142 601.35 433.195 601.35 423.694z" transform="matrix(-1 0 0 1 1225.313 0)"/>
                    <path fill="#27DEBF" d="M604.427 402.49L581.813 410.538 565.108 401.43 588.796 392.794z" transform="matrix(-1 0 0 1 1169.535 0)"/>
                    <path fill="#FFF" d="M604.427 402.49L581.813 410.538 565.108 401.43 588.796 392.794z" transform="matrix(-1 0 0 1 1169.535 0)"/>
                    <path fill="#27DEBF" d="M587.721 410.868L587.721 401.432 604.427 410.538 604.427 420.038z" transform="matrix(-1 0 0 1 1192.148 0)"/>
                    <path fill="#FFF" d="M587.721 410.868L587.721 401.432 604.427 410.538 604.427 420.038z" transform="matrix(-1 0 0 1 1192.148 0)"/>
                    <path fill="#27DEBF" d="M587.722 402.49L587.722 411.986 565.108 420.039 565.108 410.538z" transform="matrix(-1 0 0 1 1152.83 0)"/>
                    <path fill="#FFF" d="M587.722 402.49L587.722 411.986 565.108 420.039 565.108 410.538z" transform="matrix(-1 0 0 1 1152.83 0)"/>
                    <path fill="#27DEBF" d="M385.588 355.264L385.588 341.497 427.861 346.237 427.861 360.003z" transform="matrix(-1 0 0 1 813.45 0)"/>
                    <path fill="#FFF" d="M385.588 355.264L385.588 341.497 427.861 346.237 427.861 360.003z" transform="matrix(-1 0 0 1 813.45 0)"/>
                    <path fill="#27DEBF" d="M376.65 346.237L385.587 322.46 385.587 338.977 376.65 360.002z" transform="matrix(-1 0 0 1 762.237 0)"/>
                    <path fill="#FFF" d="M376.65 346.237L385.587 322.46 385.587 338.977 376.65 360.002z" transform="matrix(-1 0 0 1 762.237 0)"/>
                    <path fill="#27DEBF" d="M427.861 322.46L386.519 317.734 376.649 341.497 418.924 346.236z" transform="matrix(-1 0 0 1 804.51 0)"/>
                    <path fill="#FFF" d="M427.861 322.46L386.519 317.734 376.649 341.497 418.924 346.236z" transform="matrix(-1 0 0 1 804.51 0)"/>
                    <path fill="#27DEBF" d="M389.316 338.074L389.316 270.976 422.432 274.683 422.432 341.782z" transform="matrix(-1 0 0 1 811.748 0)"/>
                    <path fill="#FFF" d="M389.316 338.074L389.316 270.976 422.432 274.683 422.432 341.782z" transform="matrix(-1 0 0 1 811.748 0)"/>
                    <path fill="#27DEBF" d="M382.078 274.683L389.315 255.431 389.315 324.757 382.078 341.783z" transform="matrix(-1 0 0 1 771.394 0)"/>
                    <path fill="#FFF" d="M382.078 274.683L389.315 255.431 389.315 324.757 382.078 341.783z" transform="matrix(-1 0 0 1 771.394 0)"/>
                    <path fill="#27DEBF" d="M422.433 255.431L390.071 251.734 382.078 270.976 415.196 274.683z" transform="matrix(-1 0 0 1 804.511 0)"/>
                    <path fill="#FFF" d="M422.433 255.431L390.071 251.734 382.078 270.976 415.196 274.683z" transform="matrix(-1 0 0 1 804.511 0)"/>
                    <path fill="#27DEBF" d="M394.047 266.655L394.047 230.067 412.105 232.089 412.105 268.677z" transform="matrix(-1 0 0 1 806.152 0)"/>
                    <path fill="#FFF" d="M394.047 266.655L394.047 230.067 412.105 232.089 412.105 268.677z" transform="matrix(-1 0 0 1 806.152 0)"/>
                    <path fill="#27DEBF" d="M390.1 232.089L394.047 221.592 394.047 259.394 390.1 268.678z" transform="matrix(-1 0 0 1 784.148 0)"/>
                    <path fill="#FFF" d="M390.1 232.089L394.047 221.592 394.047 259.394 390.1 268.678z" transform="matrix(-1 0 0 1 784.148 0)"/>
                    <path fill="#27DEBF" d="M412.105 221.591L394.458 219.575 390.101 230.067 408.158 232.089z" transform="matrix(-1 0 0 1 802.206 0)"/>
                    <path fill="#FFF" d="M412.105 221.591L394.458 219.575 390.101 230.067 408.158 232.089z" transform="matrix(-1 0 0 1 802.206 0)"/>
                    <path fill="#27DEBF" d="M187.521 451.776L187.521 346.043 220.637 349.752 220.637 455.484z" transform="matrix(-1 0 0 1 408.158 0)"/>
                    <path fill="#FFF" d="M187.521 451.776L187.521 346.043 220.637 349.752 220.637 455.484z" transform="matrix(-1 0 0 1 408.158 0)"/>
                    <path fill="#27DEBF" d="M182.674 349.752L187.52 336.264 187.52 444.225 182.674 455.485z" transform="matrix(-1 0 0 1 370.194 0)"/>
                    <path fill="#FFF" d="M182.674 349.752L187.52 336.264 187.52 444.225 182.674 455.485z" transform="matrix(-1 0 0 1 370.194 0)"/>
                    <path fill="#27DEBF" d="M220.637 336.264L188.275 332.565 182.674 346.043 215.79 349.752z" transform="matrix(-1 0 0 1 403.31 0)"/>
                    <path fill="#FFF" d="M220.637 336.264L188.275 332.565 182.674 346.043 215.79 349.752z" transform="matrix(-1 0 0 1 403.31 0)"/>
                    <path fill="#27DEBF" d="M138.185 485.514L138.185 387.6 167.06 390.659 167.06 488.573z" transform="matrix(-1 0 0 1 305.245 0)"/>
                    <path fill="#FFF" d="M138.185 485.514L138.185 387.6 167.06 390.659 167.06 488.573z" transform="matrix(-1 0 0 1 305.245 0)"/>
                    <path fill="#27DEBF" d="M131.676 390.659L138.184 374.117 138.184 475.401 131.676 488.573z" transform="matrix(-1 0 0 1 269.86 0)"/>
                    <path fill="#FFF" d="M131.676 390.659L138.184 374.117 138.184 475.401 131.676 488.573z" transform="matrix(-1 0 0 1 269.86 0)"/>
                    <path fill="#27DEBF" d="M167.06 374.118L139.326 371.075 131.676 387.6 160.551 390.659z" transform="matrix(-1 0 0 1 298.736 0)"/>
                    <path fill="#FFF" d="M167.06 374.118L139.326 371.075 131.676 387.6 160.551 390.659z" transform="matrix(-1 0 0 1 298.736 0)"/>
                    <path fill="#27DEBF" d="M119.644 482.716L119.644 394.287 134.931 395.853 134.931 484.283z" transform="matrix(-1 0 0 1 254.575 0)"/>
                    <path fill="#FFF" d="M119.644 482.716L119.644 394.287 134.931 395.853 134.931 484.283z" transform="matrix(-1 0 0 1 254.575 0)"/>
                    <path fill="#27DEBF" d="M117.27 395.854L119.644 388.597 119.644 479.926 117.27 484.283z" transform="matrix(-1 0 0 1 236.914 0)"/>
                    <path fill="#FFF" d="M117.27 395.854L119.644 388.597 119.644 479.926 117.27 484.283z" transform="matrix(-1 0 0 1 236.914 0)"/>
                    <path fill="#27DEBF" d="M134.931 388.597L120.627 387.046 117.27 394.287 132.556 395.854z" transform="matrix(-1 0 0 1 252.2 0)"/>
                    <path fill="#FFF" d="M134.931 388.597L120.627 387.046 117.27 394.287 132.556 395.854z" transform="matrix(-1 0 0 1 252.2 0)"/>
                    <path fill="#27DEBF" d="M662.351 377.645L704.505 400.797 704.505 413.388 662.351 390.235z" transform="matrix(-1 0 0 1 1366.856 0)"/>
                    <path fill="#E3E3E3" d="M662.351 377.645L704.505 400.797 704.505 413.388 662.351 390.235z" transform="matrix(-1 0 0 1 1366.856 0)"/>
                    <path fill="#27DEBF" d="M662.351 390.235L662.351 377.646 620.198 400.797 620.198 413.387" transform="matrix(-1 0 0 1 1282.55 0)"/>
                    <path fill="#FFF" d="M662.352 377.645L620.199 400.797 620.199 413.386 662.352 390.235z" transform="matrix(-1 0 0 1 1282.551 0)"/>
                    <path fill="#27DEBF" d="M704.504 377.645L662.351 354.494 620.199 377.645 662.351 400.797z" transform="matrix(-1 0 0 1 1324.703 0)"/>
                    <path fill="#C5C2C2" d="M704.504 377.645L662.351 354.494 620.199 377.645 662.351 400.797z" transform="matrix(-1 0 0 1 1324.703 0)"/>
                    <path fill="#27DEBF" d="M662.351 375.716L704.505 398.867 704.505 395.008 662.351 371.857z" transform="matrix(-1 0 0 1 1366.856 0)"/>
                    <path fill="#E3E3E3" d="M662.351 375.716L704.505 398.867 704.505 395.008 662.351 371.857z" transform="matrix(-1 0 0 1 1366.856 0)"/>
                    <path fill="#27DEBF" d="M620.198 398.868L662.352 375.716 662.352 371.858 620.198 395.009z" transform="matrix(-1 0 0 1 1282.55 0)"/>
                    <path fill="#FFF" d="M620.198 398.868L662.352 375.716 662.352 371.858 620.198 395.009z" transform="matrix(-1 0 0 1 1282.55 0)"/>
                    <path fill="#27DEBF" d="M704.504 371.857L662.351 348.704 620.199 371.857 662.351 395.009z" transform="matrix(-1 0 0 1 1324.703 0)"/>
                    <path fill="#C5C2C2" d="M704.504 371.857L662.351 348.704 620.199 371.857 662.351 395.009z" transform="matrix(-1 0 0 1 1324.703 0)"/>
                    <path fill="#27DEBF" d="M662.351 369.496L704.505 392.648 704.505 388.789 662.351 365.638z" transform="matrix(-1 0 0 1 1366.856 0)"/>
                    <path fill="#E3E3E3" d="M662.351 369.496L704.505 392.648 704.505 388.789 662.351 365.638z" transform="matrix(-1 0 0 1 1366.856 0)"/>
                    <path fill="#27DEBF" d="M620.198 392.648L662.352 369.497 662.352 365.636 620.198 388.79z" transform="matrix(-1 0 0 1 1282.55 0)"/>
                    <path fill="#FFF" d="M620.198 392.648L662.352 369.497 662.352 365.636 620.198 388.79z" transform="matrix(-1 0 0 1 1282.55 0)"/>
                    <path fill="#27DEBF" d="M704.504 365.637L662.351 342.486 620.199 365.637 662.351 388.789z" transform="matrix(-1 0 0 1 1324.703 0)"/>
                    <path fill="#C5C2C2" d="M704.504 365.637L662.351 342.486 620.199 365.637 662.351 388.789z" transform="matrix(-1 0 0 1 1324.703 0)"/>
                    <path fill="#27DEBF" d="M697.479 384.447L697.479 287.235 662.352 267.944 662.353 365.154z" transform="matrix(-1 0 0 1 1359.831 0)"/>
                    <path fill="#FFF" d="M627.224 287.236L662.352 267.943 662.352 365.153 627.224 384.447z" transform="matrix(-1 0 0 1 1289.576 0)"/>
                    <path fill="#27DEBF" d="M697.479 267.944L662.351 248.649 627.224 267.944 662.351 287.237z" transform="matrix(-1 0 0 1 1324.703 0)"/>
                    <path fill="#C5C2C2" d="M697.479 267.944L662.351 248.649 627.224 267.944 662.351 287.237z" transform="matrix(-1 0 0 1 1324.703 0)"/>
                    <path fill="#E3E3E3" d="M697.479 384.447L697.479 287.235 662.352 267.944 662.353 365.154z" transform="matrix(-1 0 0 1 1359.831 0)"/>
                    <path fill="#27DEBF" d="M690.455 283.378L690.455 201.507 662.352 185.708 662.352 267.944z" transform="matrix(-1 0 0 1 1352.807 0)"/>
                    <path fill="#FFF" d="M634.248 283.378L634.248 201.507 662.352 185.708 662.352 267.945z" transform="matrix(-1 0 0 1 1296.6 0)"/>
                    <path fill="#27DEBF" d="M690.455 185.707L662.35 170.454 634.248 185.707 662.351 201.507z" transform="matrix(-1 0 0 1 1324.703 0)"/>
                    <path fill="#C5C2C2" d="M690.455 185.707L662.35 170.454 634.248 185.707 662.351 201.507z" transform="matrix(-1 0 0 1 1324.703 0)"/>
                    <path fill="#E3E3E3" d="M690.455 283.378L690.455 201.507 662.352 185.708 662.352 267.944z" transform="matrix(-1 0 0 1 1352.807 0)"/>
                    <path fill="#FFF" d="M644.789 195.535L644.789 183.96 662.353 174.313 662.353 185.89z" transform="matrix(-1 0 0 1 1307.142 0)"/>
                    <path fill="#27DEBF" d="M662.353 185.889L662.353 174.312 679.916 183.959 679.916 195.535z" transform="matrix(-1 0 0 1 1342.27 0)"/>
                    <path fill="#E3E3E3" d="M662.353 185.889L662.353 174.312 679.916 183.959 679.916 195.535z" transform="matrix(-1 0 0 1 1342.27 0)"/>
                    <path fill="#27DEBF" d="M679.917 174.313L662.354 164.665 644.789 174.313 662.352 183.96z" transform="matrix(-1 0 0 1 1324.706 0)"/>
                    <path fill="#C5C2C2" d="M679.917 174.313L662.354 164.665 644.789 174.313 662.352 183.96z" transform="matrix(-1 0 0 1 1324.706 0)"/>
                    <path fill="#FB3640" stroke="#FB3640" d="M622.539 564.762c-.232-.112-14.2-8.421-49.964-9.97-35.744-1.546-52.831 4.919-53 4.983-.324.128-.706.057-.957-.181-.25-.239-.329-.597-.195-.91l52.604-123.65-122.98-13.644c-.274-.032-.516-.18-.656-.405-.14-.225-.161-.5-.06-.742l19.506-45.885-248.829-28.16c-.484-.056-.828-.472-.771-.933.057-.46.491-.792.979-.734l249.975 28.29c.272.031.516.181.654.407.14.225.163.5.06.742L449.4 419.85l122.98 13.645c.274.03.516.18.657.405.14.225.162.5.06.744l-52.305 122.942c5.345-1.64 22.036-5.76 51.864-4.47 36.17 1.566 50.45 10.038 50.684 10.152.432.21.605.716.384 1.129-.156.29-.466.457-.787.457-.133 0-.27-.03-.398-.092z" transform="matrix(-1 0 0 1 841.05 0)"/>
                    <g>
                        <g fill="#D02A33">
                            <path d="M13.35 73.549v-4.853c0-6.044 1.18-12.408 3.294-18.656v-.016c5.338-15.768 16.578-30.813 29.58-37.966 8.28-4.55 15.84-5.12 21.618-2.384L56.461 3.427C53.729 1.697 50.54.79 47 .79c-.531 0-1.058.017-1.604.068-.548.034-1.094.1-1.657.184-.563.068-1.128.168-1.691.303-.563.117-1.146.269-1.726.437-1.182.336-2.362.755-3.578 1.26-.598.251-1.215.536-1.831.823-.617.3-1.234.62-1.85.956C14.917 14.811.205 40.167.205 61.46v4.852c0 21.292 30.038 44.43 30.038 44.43l12.174 6.549c-.21-.117-.421-.268-.616-.436-8.968-7.893-28.453-26.917-28.453-43.306" transform="translate(626.919) matrix(-1 0 0 1 79.081 0)"/>
                        </g>
                        <path fill="#B92229" d="M35.587 28.783c.105.52.176 1.058.21 1.628.018.185.037.369.037.572.035.319.035.637.035.973 0 9.975-7.346 22.132-16.439 27.118-.333.186-.651.354-.984.505-.318.168-.654.301-.97.436-.318.134-.635.252-.952.37-.036.016-.053.016-.088.032 1.408 7.642 8.087 10.311 16.155 5.895 9.074-5.004 16.421-17.144 16.421-27.136 0-8.849-5.778-13.046-13.425-10.393" transform="translate(626.919) matrix(-1 0 0 1 65.449 0)"/>
                        <path fill="#FB3640" d="M32.865 66.308c-9.076 4.994-16.432.945-16.432-9.043 0-9.987 7.356-22.132 16.432-27.125 9.075-4.994 16.431-.946 16.431 9.042.002 9.987-7.356 22.132-16.431 27.126zm32.864-33.782c-.001-21.294-14.714-30.459-32.864-20.47C14.715 22.042 0 47.402 0 68.696v4.846c0 16.398 19.488 35.423 28.45 43.305 2.186 1.922 5.683 1.306 6.989-1.24 7.741-15.1 30.29-60.596 30.29-78.233v-4.848z" transform="translate(626.919) matrix(-1 0 0 1 65.73 0)"/>
                    </g>
                    <g>
                        <g fill="#D02A33">
                            <path d="M6.871 37.398V34.93c0-3.073.607-6.31 1.696-9.486v-.008C11.314 17.418 17.1 9.768 23.792 6.13c4.262-2.313 8.152-2.604 11.127-1.212L29.06 1.742C27.655.863 26.013.402 24.19.402c-.273 0-.544.008-.825.034-.282.018-.563.051-.853.094-.29.034-.58.085-.87.154-.29.06-.59.137-.889.222-.608.17-1.215.384-1.841.64-.308.129-.625.273-.943.419-.317.153-.635.316-.952.486C7.678 7.531.106 20.424.106 31.251v2.467c0 10.827 15.46 22.592 15.46 22.592l6.267 3.33c-.108-.06-.217-.137-.317-.222C16.9 55.405 6.87 45.73 6.87 37.398" transform="translate(181 258) matrix(-1 0 0 1 40.339 0)"/>
                        </g>
                        <path fill="#B92229" d="M18.333 14.409c.055.27.092.55.11.845.009.096.019.192.019.297.018.166.018.33.018.505 0 5.179-3.834 11.49-8.579 14.079-.174.096-.34.183-.513.262-.166.087-.341.156-.506.227-.166.069-.332.13-.497.191-.019.009-.028.009-.046.017.735 3.967 4.22 5.353 8.43 3.06 4.736-2.597 8.57-8.9 8.57-14.087 0-4.594-3.016-6.773-7.006-5.396" transform="translate(181 258) matrix(-1 0 0 1 33.678 0)"/>
                        <path fill="#FB3640" d="M16.839 33.688c-4.556 2.543-8.25.48-8.25-4.606s3.694-11.271 8.25-13.814c4.556-2.543 8.25-.482 8.25 4.605 0 5.086-3.694 11.271-8.25 13.815zm16.5-17.205c0-10.844-7.387-15.512-16.5-10.425C7.726 11.144.339 24.059.339 34.904v2.467c0 8.352 9.784 18.04 14.284 22.055 1.097.979 2.853.665 3.508-.631 3.887-7.691 15.208-30.86 15.208-39.843v-2.469z" transform="translate(181 258) matrix(-1 0 0 1 33.678 0)"/>
                    </g>
                    <g>
                        <g fill="#D02A33">
                            <path d="M5.184 27.59V25.8c0-2.232.447-4.58 1.247-6.886v-.006c2.02-5.82 6.275-11.373 11.196-14.013 3.134-1.68 5.994-1.89 8.181-.88l-4.307-2.306C20.467 1.07 19.26.736 17.92.736c-.201 0-.4.006-.608.025-.207.012-.413.037-.627.068-.213.025-.427.062-.64.111-.213.044-.433.1-.653.162-.447.123-.894.278-1.354.464-.226.093-.46.199-.693.304-.234.112-.467.23-.7.353C5.778 5.911.21 15.27.21 23.128v1.791c0 7.86 11.368 16.4 11.368 16.4l4.608 2.417c-.08-.044-.16-.1-.233-.161C12.559 40.662 5.184 33.64 5.184 27.59" transform="translate(386 165) matrix(-1 0 0 1 29.533 0)"/>
                        </g>
                        <path fill="#B92229" d="M13.658 10.311c.042.206.07.42.083.645.007.072.014.145.014.226.014.126.014.252.014.384 0 3.946-2.887 8.755-6.46 10.727-.13.074-.255.14-.386.2-.125.066-.257.12-.381.173-.125.052-.25.1-.374.145-.014.007-.021.007-.035.013.554 3.023 3.178 4.079 6.348 2.332 3.565-1.98 6.452-6.781 6.452-10.734 0-3.5-2.27-5.16-5.275-4.11" transform="translate(386 165) matrix(-1 0 0 1 25.067 0)"/>
                        <path fill="#FB3640" d="M12.533 24.736c-3.313 1.862-6 .352-6-3.372 0-3.724 2.687-8.253 6-10.114 3.314-1.862 6-.353 6 3.371s-2.686 8.252-6 10.115zm12-12.596c0-7.94-5.372-11.358-12-7.633-6.627 3.723-12 13.179-12 21.119v1.807c0 6.114 7.116 13.208 10.389 16.147.798.716 2.074.487 2.551-.462 2.827-5.631 11.06-22.595 11.06-29.171V12.14z" transform="translate(386 165) matrix(-1 0 0 1 25.067 0)"/>
                    </g>
                    <g>
                        <path fill="#27DEBF" d="M113.662 41.125h.002v-14.57L.475 1.55v14.546l.014.017c.016.322.173.72.524 1.191l44.074 59.378c1.083 1.459 2.248 1.215 2.6-.544l5.577-27.861c.354-1.76 2.147-3.28 4.01-3.392l54.97-3.39c.938-.057 1.41-.195 1.418-.37" transform="matrix(-1 0 0 1 119 616)"/>
                        <path fill="#D02A33" d="M113.662 41.125h.002v-14.57L.475 1.55v14.546l.014.017c.016.322.173.72.524 1.191l44.074 59.378c1.083 1.459 2.248 1.215 2.6-.544l5.577-27.861c.354-1.76 2.147-3.28 4.01-3.392l54.97-3.39c.938-.057 1.41-.195 1.418-.37" transform="matrix(-1 0 0 1 119 616)"/>
                        <path fill="#AA3B1C" d="M46.04 77.513c.745.334 1.397-.136 1.646-1.377l5.581-27.86c.13-.654.461-1.273.919-1.8V26.015L46.04 37.463v40.05z" transform="matrix(-1 0 0 1 119 616)"/>
                        <path fill="#FB3640" d="M47.686 61.567l5.58-27.86c.352-1.76 2.146-3.278 4.007-3.393l54.972-3.389c1.86-.114 1.898-.542.085-.957L2.337.843C.52.43-.07 1.275 1.014 2.733l44.073 59.379c1.083 1.458 2.247 1.214 2.6-.545" transform="matrix(-1 0 0 1 119 616)"/>
                    </g>
                    <path stroke="#FB3640" stroke-linecap="round" stroke-width="3" d="M218.27 564.05l-45.41-108.412c-.853-2.037.106-4.38 2.144-5.234.303-.127.62-.216.945-.266l6.339-.962h0"/>
                    <ellipse cx="181" cy="449.5" fill="#FFF" stroke="#FB3640" rx="2.5" ry="2"/>
                </g>
            </g>
        </g>
    </g>
</svg>
