<svg xmlns="http://www.w3.org/2000/svg" width="346" height="346" viewBox="0 0 346 346">
    <g fill="none" fill-rule="evenodd">
        <g>
            <g transform="translate(-7 -489) translate(7 489)">
                <rect width="345" height="300" fill="#81CFFA" rx="10"/>
                <g transform="translate(82.754 113.493)">
                    <path fill="#FFF" d="M207.686 198.473c6.562-3.608 16.405-9.02 29.528-16.238 1.935-1.064 1.935-2.79 0-3.853L74.906 89.517c-1.935-1.064-5.072-1.064-7.007 0l-63.066 51.31-.203 14.803 78.62 43.045" opacity=".123" transform="matrix(-1 0 0 1 243.296 0)"/>
                    <g>
                        <path fill="#E0E0E0" d="M237.52 145.616c-.416 0-1.21-.13-1.86-.999l-14.608-19.51c-.777-1.036-.456-1.897-.282-2.219.346-.64 1.036-1.021 1.846-1.021.213 0 .438.026.67.078l36.454 8.256c1.754.397 1.788 1.573 1.757 1.924-.031.351-.274 1.504-2.072 1.614l-18.01 1.1-1.81 8.959c-.271 1.342-1.292 1.818-2.084 1.818z" opacity=".493" transform="matrix(-1 0 0 1 261.614 85.384)"/>
                    </g>
                    <g>
                        <path fill="#CCE4FF" d="M20.097 1.074c-.01-.264-.196-.527-.565-.729-.76-.415-1.99-.415-2.75 0-.37.202-.555.465-.565.73h-.004v84.158h3.888V1.074h-.004z" transform="matrix(-1 0 0 1 111.128 35.08)"/>
                        <path fill="#ACC3DB" d="M20.097 1.074c0-.574-.87-1.04-1.942-1.04s-1.942.466-1.942 1.04c0 .575.87 1.04 1.942 1.04s1.942-.465 1.942-1.04" transform="matrix(-1 0 0 1 111.128 35.08)"/>
                        <path fill="#27DEBF" d="M29.309 19.535L3.963 5.69 0.151 7.771 3.963 14.013 29.309 27.858z" transform="matrix(-1 0 0 1 111.128 35.08)"/>
                        <path fill="#2149FE" d="M29.309 19.535L3.963 5.69 0.151 7.771 3.963 14.013 29.309 27.858z" transform="matrix(-1 0 0 1 111.128 35.08)"/>
                        <path fill="#27DEBF" d="M3.963 5.69L5.869 4.65 31.252 18.516 29.309 19.535z" transform="matrix(-1 0 0 1 111.128 35.08)"/>
                        <path fill="#1A3BD1" d="M3.963 5.69L5.869 4.65 31.252 18.516 29.309 19.535z" transform="matrix(-1 0 0 1 111.128 35.08)"/>
                        <path fill="#27DEBF" d="M31.252 26.838L29.309 27.858 29.309 19.535 31.252 18.516z" transform="matrix(-1 0 0 1 111.128 35.08)"/>
                        <path fill="#132989" d="M31.252 26.838L29.309 27.858 29.309 19.535 31.252 18.516z" transform="matrix(-1 0 0 1 111.128 35.08)"/>
                    </g>
                    <path fill="#455A64" d="M251.945 164.023c1.217.897 1.085 2.17-.391 2.976l-80.767 44.395c-1.622.886-4.255.886-5.875-.005L10.554 126.557c-1.494-.821-1.617-2.115-.345-3.008-1.46.984-2.592 2.968-2.594 4.627l-.004 3.696c-.006 1.782 1.31 3.952 2.937 4.847L164.9 221.548c1.627.894 4.26.893 5.879-.002l80.77-44.385c1.622-.886 2.939-3.057 2.937-4.843l.01-3.702c-.005-1.636-1.109-3.598-2.55-4.593" transform="matrix(-1 0 0 1 262.106 0)"/>
                    <path fill="#37474F" d="M251.553 163.774L97.194 78.942c-1.62-.89-4.253-.89-5.875-.005l-80.767 44.395c-1.622.886-1.62 2.334 0 3.225l154.358 84.832c1.621.891 4.253.89 5.875.005l80.768-44.395c1.622-.886 1.62-2.335 0-3.225" transform="matrix(-1 0 0 1 262.105 0)"/>
                    <path fill="#263238" d="M96.854 123.549c-1.46.984-2.592 2.968-2.593 4.627l-.005 3.695c.002 1.787 1.31 3.954 2.938 4.848l154.35 84.829c.815.447 1.88.669 2.947.67l.005-10.162c-1.066-.001-2.132-.223-2.939-.667L97.2 126.557c-1.494-.821-1.616-2.115-.345-3.008" transform="matrix(-1 0 0 1 348.752 0)"/>
                    <path fill="#000" d="M215.056 108.89c.824-.453.824-1.188 0-1.64-.825-.454-2.162-.454-2.987 0-.825.452-.825 1.187 0 1.64.825.454 2.162.454 2.987 0" transform="matrix(-1 0 0 1 427.124 0)"/>
                    <path fill="#FFF" d="M198.835 106.41l11.527-6.336c.689-.378.723-.972.078-1.326-.646-.355-1.726-.336-2.414.042l-11.528 6.336c-.688.377-.722.971-.077 1.326.646.354 1.726.335 2.414-.043" transform="matrix(-1 0 0 1 406.861 0)"/>
                    <path fill="#27DEBF" d="M101.577 85.745c-1.387-.762-2.834-.321-4.224.446l-75.49 41.463c-1.387.761-1.393 2.003.001 2.769l137.003 75.313c1.394.766 3.647.76 5.04.002l75.484-41.466c1.397-.764 1.392-2.003.006-2.765l-137.82-75.762z" transform="matrix(-1 0 0 1 261.258 0)"/>
                    <path fill="#FFE2B8" d="M101.577 85.745c-1.387-.762-2.834-.321-4.224.446l-75.49 41.463c-1.387.761-1.393 2.003.001 2.769l137.003 75.313c1.394.766 3.647.76 5.04.002l75.484-41.466c1.397-.764 1.392-2.003.006-2.765l-137.82-75.762z" transform="matrix(-1 0 0 1 261.258 0)"/>
                    <path fill="#8CC27B" d="M92.76 204.515l28.437-15.627-4.776-1.313c-15.117-4.154-31.36-2.27-44.987 5.22l21.326 11.72z" transform="matrix(-1 0 0 1 192.631 0)"/>
                    <path fill="#8CC27B" d="M26.77 186.19l42.487-23.35-28.436-15.628L24.04 185.44c.878.24 1.79.493 2.73.75" transform="matrix(-1 0 0 1 93.297 0)"/>
                    <path fill="#8CC27B" d="M102.479 144.608L85.89 184.19c-9.803-2.963-18.606-3.414-28.675-1.761l16.013-37.545 23.276-3.56 5.974 3.283z" transform="matrix(-1 0 0 1 159.694 0)"/>
                    <path fill="#8CC27B" d="M150.933 183.949l5.81-13.625-45.154-5.093-7.58 8.029 31.462 17.29c4.84-2.82 9.986-5.065 15.462-6.601" transform="matrix(-1 0 0 1 260.753 0)"/>
                    <path fill="#8CC27B" d="M71.223 131.65L85.347 139.398 66.695 142.264z" transform="matrix(-1 0 0 1 152.043 0)"/>
                    <path fill="#8CC27B" d="M167.408 133.538c1.963-1.08 5.146-1.08 7.109 0 1.963 1.078 1.963 2.828 0 3.906-1.963 1.08-5.146 1.08-7.11 0-1.963-1.078-1.963-2.828 0-3.906" transform="matrix(-1 0 0 1 341.924 0)"/>
                    <path fill="#8CC27B" d="M168.246 145.154l-69.846-7.88c-.738 1.598-1.998 1.96-4.93 2.57l19.486 21.213 46.467 5.241 8.823-21.144z" transform="matrix(-1 0 0 1 261.715 0)"/>
                    <path fill="#8CC27B" d="M166.261 125.093l-5.13 11.841-31.747-3.582c-.6-.655-1.528-1.205-2.724-1.67l4.354-10.565 35.247 3.976z" transform="matrix(-1 0 0 1 292.921 0)"/>
                    <path fill="#8CC27B" d="M126.475 128.66L121.021 141.46 86.24 137.534 91.706 124.734z" transform="matrix(-1 0 0 1 212.714 0)"/>
                    <path fill="#8CC27B" d="M160.351 125.072L102.736 93.408 92.762 117.44z" transform="matrix(-1 0 0 1 253.113 0)"/>
                    <path fill="#8CC27B" d="M181.335 139.468l21.274 23.158-7.58 8.029-41.125-22.603 25.381-9.493c.658.38 1.338.693 2.05.91" transform="matrix(-1 0 0 1 356.512 0)"/>
                    <path fill="#8CC27B" d="M196.119 116.912L206.779 91.211 199.67 87.304 154.374 112.198z" transform="matrix(-1 0 0 1 361.153 0)"/>
                    <path fill="#8CC27B" d="M191.062 115.471l-24.471 13.508 30.806 16.93 27.178-10.195c-.061-1.238.56-2.434 2.56-3.543 1.633-.896 3.676-1.237 5.935-1.285l4.244-10.298-46.252-5.117z" transform="matrix(-1 0 0 1 403.905 0)"/>
                    <path fill="#27DEBF" d="M144.895 116.032L144.895 107.97 157.979 109.444 157.979 117.506z" transform="matrix(-1 0 0 1 302.874 0)"/>
                    <path fill="#27DEBF" d="M142.199 109.444L144.895 102.265 144.895 111.158 142.199 117.506z" transform="matrix(-1 0 0 1 287.094 0)"/>
                    <path fill="#27DEBF" d="M157.979 102.265L145.176 100.796 142.199 107.971 155.282 109.444z" transform="matrix(-1 0 0 1 300.178 0)"/>
                    <path fill="#FFF" d="M144.895 116.032L144.895 107.97 157.979 109.444 157.979 117.506z" transform="matrix(-1 0 0 1 302.874 0)"/>
                    <path fill="#FFF" d="M142.199 109.444L144.895 102.265 144.895 111.158 142.199 117.506z" transform="matrix(-1 0 0 1 287.094 0)"/>
                    <path fill="#FFF" d="M157.979 102.265L145.176 100.796 142.199 107.971 155.282 109.444z" transform="matrix(-1 0 0 1 300.178 0)"/>
                    <path fill="#27DEBF" d="M136.316 133.256L136.316 129.642 149.401 131.116 149.401 134.73z" transform="matrix(-1 0 0 1 285.717 0)"/>
                    <path fill="#27DEBF" d="M133.982 131.116L136.317 124.887 136.317 129.332 133.982 134.73z" transform="matrix(-1 0 0 1 270.299 0)"/>
                    <path fill="#27DEBF" d="M149.401 124.887L136.597 123.418 133.982 129.642 147.066 131.116z" transform="matrix(-1 0 0 1 283.383 0)"/>
                    <path fill="#FFF" d="M136.316 133.256L136.316 129.642 149.401 131.116 149.401 134.73z" transform="matrix(-1 0 0 1 285.717 0)"/>
                    <path fill="#FFF" d="M133.982 131.116L136.317 124.887 136.317 129.332 133.982 134.73z" transform="matrix(-1 0 0 1 270.299 0)"/>
                    <path fill="#FFF" d="M149.401 124.887L136.597 123.418 133.982 129.642 147.066 131.116z" transform="matrix(-1 0 0 1 283.383 0)"/>
                    <path fill="#27DEBF" d="M111.118 180.8L111.118 172.738 124.203 174.212 124.203 182.274z" transform="matrix(-1 0 0 1 235.321 0)"/>
                    <path fill="#27DEBF" d="M108.422 174.212L111.118 167.033 111.118 175.926 108.422 182.274z" transform="matrix(-1 0 0 1 219.54 0)"/>
                    <path fill="#27DEBF" d="M124.203 167.033L111.4 165.564 108.422 172.739 121.506 174.212z" transform="matrix(-1 0 0 1 232.624 0)"/>
                    <path fill="#FFF" d="M111.118 180.8L111.118 172.738 124.203 174.212 124.203 182.274z" transform="matrix(-1 0 0 1 235.321 0)"/>
                    <path fill="#FFF" d="M108.422 174.212L111.118 167.033 111.118 175.926 108.422 182.274z" transform="matrix(-1 0 0 1 219.54 0)"/>
                    <path fill="#FFF" d="M124.203 167.033L111.4 165.564 108.422 172.739 121.506 174.212z" transform="matrix(-1 0 0 1 232.624 0)"/>
                    <path fill="#27DEBF" d="M117.804 119.663L117.804 116.692 124.427 117.439 124.427 120.409z" transform="matrix(-1 0 0 1 242.231 0)"/>
                    <path fill="#27DEBF" d="M116.439 117.438L117.804 113.805 117.804 117.196 116.439 120.409z" transform="matrix(-1 0 0 1 234.243 0)"/>
                    <path fill="#27DEBF" d="M124.427 113.805L117.946 113.061 116.439 116.693 123.061 117.438z" transform="matrix(-1 0 0 1 240.866 0)"/>
                    <path fill="#FFF" d="M117.804 119.663L117.804 116.692 124.427 117.439 124.427 120.409z" transform="matrix(-1 0 0 1 242.231 0)"/>
                    <path fill="#FFF" d="M116.439 117.438L117.804 113.805 117.804 117.196 116.439 120.409z" transform="matrix(-1 0 0 1 234.243 0)"/>
                    <path fill="#FFF" d="M124.427 113.805L117.946 113.061 116.439 116.693 123.061 117.438z" transform="matrix(-1 0 0 1 240.866 0)"/>
                    <path fill="#27DEBF" d="M163.064 105.654L163.064 101.333 172.697 102.418 172.697 106.739z" transform="matrix(-1 0 0 1 335.76 0)"/>
                    <path fill="#27DEBF" d="M161.078 102.418L163.063 97.132 163.063 102.065 161.078 106.739z" transform="matrix(-1 0 0 1 324.141 0)"/>
                    <path fill="#27DEBF" d="M172.697 97.132L163.27 96.05 161.078 101.333 170.712 102.418z" transform="matrix(-1 0 0 1 333.775 0)"/>
                    <path fill="#FFF" d="M163.064 105.654L163.064 101.333 172.697 102.418 172.697 106.739z" transform="matrix(-1 0 0 1 335.76 0)"/>
                    <path fill="#FFF" d="M161.078 102.418L163.063 97.132 163.063 102.065 161.078 106.739z" transform="matrix(-1 0 0 1 324.141 0)"/>
                    <path fill="#FFF" d="M172.697 97.132L163.27 96.05 161.078 101.333 170.712 102.418z" transform="matrix(-1 0 0 1 333.775 0)"/>
                    <path fill="#27DEBF" d="M114.684 136.49L114.684 132.637 123.274 133.605 123.274 137.457z" transform="matrix(-1 0 0 1 237.957 0)"/>
                    <path fill="#27DEBF" d="M112.913 133.604L114.684 128.892 114.684 133.29 112.913 137.458z" transform="matrix(-1 0 0 1 227.597 0)"/>
                    <path fill="#27DEBF" d="M123.273 128.892L114.868 127.927 112.913 132.637 121.503 133.604z" transform="matrix(-1 0 0 1 236.187 0)"/>
                    <path fill="#FFF" d="M114.684 136.49L114.684 132.637 123.274 133.605 123.274 137.457z" transform="matrix(-1 0 0 1 237.957 0)"/>
                    <path fill="#FFF" d="M112.913 133.604L114.684 128.892 114.684 133.29 112.913 137.458z" transform="matrix(-1 0 0 1 227.597 0)"/>
                    <path fill="#FFF" d="M123.273 128.892L114.868 127.927 112.913 132.637 121.503 133.604z" transform="matrix(-1 0 0 1 236.187 0)"/>
                    <path fill="#27DEBF" d="M153.408 131.891L153.408 127.927 162.246 128.922 162.246 132.886z" transform="matrix(-1 0 0 1 315.654 0)"/>
                    <path fill="#27DEBF" d="M151.587 128.922L153.408 124.074 153.408 128.599 151.587 132.886z" transform="matrix(-1 0 0 1 304.995 0)"/>
                    <path fill="#27DEBF" d="M162.246 124.073L153.598 123.081 151.587 127.927 160.424 128.922z" transform="matrix(-1 0 0 1 313.833 0)"/>
                    <path fill="#FFF" d="M153.408 131.891L153.408 127.927 162.246 128.922 162.246 132.886z" transform="matrix(-1 0 0 1 315.654 0)"/>
                    <path fill="#FFF" d="M151.587 128.922L153.408 124.074 153.408 128.599 151.587 132.886z" transform="matrix(-1 0 0 1 304.995 0)"/>
                    <path fill="#FFF" d="M162.246 124.073L153.598 123.081 151.587 127.927 160.424 128.922z" transform="matrix(-1 0 0 1 313.833 0)"/>
                    <path fill="#27DEBF" d="M103.57 137.709L103.57 133.855 112.16 134.823 112.16 138.676z" transform="matrix(-1 0 0 1 215.73 0)"/>
                    <path fill="#27DEBF" d="M101.8 134.823L103.57 130.11 103.57 134.508 101.8 138.676z" transform="matrix(-1 0 0 1 205.37 0)"/>
                    <path fill="#27DEBF" d="M112.16 130.11L103.755 129.146 101.8 133.856 110.389 134.823z" transform="matrix(-1 0 0 1 213.96 0)"/>
                    <path fill="#FFF" d="M103.57 137.709L103.57 133.855 112.16 134.823 112.16 138.676z" transform="matrix(-1 0 0 1 215.73 0)"/>
                    <path fill="#FFF" d="M101.8 134.823L103.57 130.11 103.57 134.508 101.8 138.676z" transform="matrix(-1 0 0 1 205.37 0)"/>
                    <path fill="#FFF" d="M112.16 130.11L103.755 129.146 101.8 133.856 110.389 134.823z" transform="matrix(-1 0 0 1 213.96 0)"/>
                    <path fill="#27DEBF" d="M92.457 138.927L92.457 135.074 101.047 136.041 101.047 139.894z" transform="matrix(-1 0 0 1 193.504 0)"/>
                    <path fill="#27DEBF" d="M90.686 136.042L92.457 131.329 92.457 135.727 90.686 139.894z" transform="matrix(-1 0 0 1 183.143 0)"/>
                    <path fill="#27DEBF" d="M101.047 131.329L92.641 130.364 90.687 135.074 99.276 136.041z" transform="matrix(-1 0 0 1 191.733 0)"/>
                    <path fill="#FFF" d="M92.457 138.927L92.457 135.074 101.047 136.041 101.047 139.894z" transform="matrix(-1 0 0 1 193.504 0)"/>
                    <path fill="#FFF" d="M90.686 136.042L92.457 131.329 92.457 135.727 90.686 139.894z" transform="matrix(-1 0 0 1 183.143 0)"/>
                    <path fill="#FFF" d="M101.047 131.329L92.641 130.364 90.687 135.074 99.276 136.041z" transform="matrix(-1 0 0 1 191.733 0)"/>
                    <path fill="#27DEBF" d="M195.254 126.071L195.254 122.218 203.844 123.185 203.844 127.038z" transform="matrix(-1 0 0 1 399.097 0)"/>
                    <path fill="#27DEBF" d="M193.483 123.186L195.254 118.473 195.254 122.871 193.483 127.038z" transform="matrix(-1 0 0 1 388.737 0)"/>
                    <path fill="#27DEBF" d="M203.844 118.473L195.438 117.508 193.483 122.218 202.073 123.185z" transform="matrix(-1 0 0 1 397.327 0)"/>
                    <path fill="#FFF" d="M195.254 126.071L195.254 122.218 203.844 123.185 203.844 127.038z" transform="matrix(-1 0 0 1 399.097 0)"/>
                    <path fill="#FFF" d="M193.483 123.186L195.254 118.473 195.254 122.871 193.483 127.038z" transform="matrix(-1 0 0 1 388.737 0)"/>
                    <path fill="#FFF" d="M203.844 118.473L195.438 117.508 193.483 122.218 202.073 123.185z" transform="matrix(-1 0 0 1 397.327 0)"/>
                    <path fill="#27DEBF" d="M184.141 127.29L184.141 123.436 192.73 124.404 192.73 128.257z" transform="matrix(-1 0 0 1 376.871 0)"/>
                    <path fill="#27DEBF" d="M182.37 124.404L184.141 119.691 184.141 124.089 182.37 128.257z" transform="matrix(-1 0 0 1 366.511 0)"/>
                    <path fill="#27DEBF" d="M192.73 119.691L184.325 118.727 182.37 123.437 190.96 124.404z" transform="matrix(-1 0 0 1 375.1 0)"/>
                    <path fill="#FFF" d="M184.141 127.29L184.141 123.436 192.73 124.404 192.73 128.257z" transform="matrix(-1 0 0 1 376.871 0)"/>
                    <path fill="#FFF" d="M182.37 124.404L184.141 119.691 184.141 124.089 182.37 128.257z" transform="matrix(-1 0 0 1 366.511 0)"/>
                    <path fill="#FFF" d="M192.73 119.691L184.325 118.727 182.37 123.437 190.96 124.404z" transform="matrix(-1 0 0 1 375.1 0)"/>
                    <path fill="#27DEBF" d="M173.027 128.508L173.027 124.655 181.617 125.623 181.617 129.475z" transform="matrix(-1 0 0 1 354.644 0)"/>
                    <path fill="#27DEBF" d="M171.257 125.622L173.027 120.91 173.027 125.308 171.257 129.476z" transform="matrix(-1 0 0 1 344.284 0)"/>
                    <path fill="#27DEBF" d="M181.617 120.91L173.211 119.945 171.257 124.655 179.846 125.622z" transform="matrix(-1 0 0 1 352.874 0)"/>
                    <path fill="#FFF" d="M173.027 128.508L173.027 124.655 181.617 125.623 181.617 129.475z" transform="matrix(-1 0 0 1 354.644 0)"/>
                    <path fill="#FFF" d="M171.257 125.622L173.027 120.91 173.027 125.308 171.257 129.476z" transform="matrix(-1 0 0 1 344.284 0)"/>
                    <path fill="#FFF" d="M181.617 120.91L173.211 119.945 171.257 124.655 179.846 125.622z" transform="matrix(-1 0 0 1 352.874 0)"/>
                    <path fill="#27DEBF" d="M63.422 113.705L63.422 111.411 70.706 112.227 70.706 114.522z" transform="matrix(-1 0 0 1 134.128 0)"/>
                    <path fill="#FFF" d="M63.422 113.705L63.422 111.411 70.706 112.227 70.706 114.522z" transform="matrix(-1 0 0 1 134.128 0)"/>
                    <path fill="#27DEBF" d="M62.356 112.227L63.422 109.258 63.422 112.043 62.356 114.521z" transform="matrix(-1 0 0 1 125.778 0)"/>
                    <path fill="#FFF" d="M62.356 112.227L63.422 109.258 63.422 112.043 62.356 114.521z" transform="matrix(-1 0 0 1 125.778 0)"/>
                    <path fill="#27DEBF" d="M70.706 109.258L63.588 108.444 62.356 111.41 69.64 112.227z" transform="matrix(-1 0 0 1 133.062 0)"/>
                    <path fill="#FFF" d="M70.706 109.258L63.588 108.444 62.356 111.41 69.64 112.227z" transform="matrix(-1 0 0 1 133.062 0)"/>
                    <path fill="#27DEBF" d="M113.747 162.208L113.747 158.354 122.338 159.322 122.338 163.176z" transform="matrix(-1 0 0 1 236.085 0)"/>
                    <path fill="#27DEBF" d="M111.976 159.322L113.747 154.608 113.747 159.007 111.976 163.176z" transform="matrix(-1 0 0 1 225.723 0)"/>
                    <path fill="#27DEBF" d="M122.338 154.608L113.931 153.643 111.976 158.354 120.567 159.322z" transform="matrix(-1 0 0 1 234.314 0)"/>
                    <path fill="#FFF" d="M113.747 162.208L113.747 158.354 122.338 159.322 122.338 163.176z" transform="matrix(-1 0 0 1 236.085 0)"/>
                    <path fill="#FFF" d="M111.976 159.322L113.747 154.608 113.747 159.007 111.976 163.176z" transform="matrix(-1 0 0 1 225.723 0)"/>
                    <path fill="#FFF" d="M122.338 154.608L113.931 153.643 111.976 158.354 120.567 159.322z" transform="matrix(-1 0 0 1 234.314 0)"/>
                    <path fill="#27DEBF" d="M103.024 163.424L103.024 159.57 111.616 160.538 111.616 164.392z" transform="matrix(-1 0 0 1 214.64 0)"/>
                    <path fill="#27DEBF" d="M101.253 160.538L103.025 155.824 103.025 160.223 101.253 164.391z" transform="matrix(-1 0 0 1 204.278 0)"/>
                    <path fill="#27DEBF" d="M111.616 155.824L103.209 154.859 101.254 159.57 109.845 160.537z" transform="matrix(-1 0 0 1 212.87 0)"/>
                    <path fill="#FFF" d="M103.024 163.424L103.024 159.57 111.616 160.538 111.616 164.392z" transform="matrix(-1 0 0 1 214.64 0)"/>
                    <path fill="#FFF" d="M101.253 160.538L103.025 155.824 103.025 160.223 101.253 164.391z" transform="matrix(-1 0 0 1 204.278 0)"/>
                    <path fill="#FFF" d="M111.616 155.824L103.209 154.859 101.254 159.57 109.845 160.537z" transform="matrix(-1 0 0 1 212.87 0)"/>
                    <path fill="#27DEBF" d="M140.885 175.121L140.885 171.267 149.477 172.235 149.477 176.089z" transform="matrix(-1 0 0 1 290.362 0)"/>
                    <path fill="#27DEBF" d="M139.114 172.235L140.885 167.521 140.885 171.92 139.114 176.088z" transform="matrix(-1 0 0 1 280 0)"/>
                    <path fill="#27DEBF" d="M149.477 167.521L141.07 166.556 139.114 171.267 147.706 172.234z" transform="matrix(-1 0 0 1 288.591 0)"/>
                    <path fill="#FFF" d="M140.885 175.121L140.885 171.267 149.477 172.235 149.477 176.089z" transform="matrix(-1 0 0 1 290.362 0)"/>
                    <path fill="#FFF" d="M139.114 172.235L140.885 167.521 140.885 171.92 139.114 176.088z" transform="matrix(-1 0 0 1 280 0)"/>
                    <path fill="#FFF" d="M149.477 167.521L141.07 166.556 139.114 171.267 147.706 172.234z" transform="matrix(-1 0 0 1 288.591 0)"/>
                    <path fill="#27DEBF" d="M130.163 176.337L130.163 172.483 138.755 173.45 138.755 177.304z" transform="matrix(-1 0 0 1 268.917 0)"/>
                    <path fill="#27DEBF" d="M128.392 173.451L130.163 168.737 130.163 173.136 128.392 177.304z" transform="matrix(-1 0 0 1 258.555 0)"/>
                    <path fill="#27DEBF" d="M138.754 168.737L130.347 167.772 128.392 172.483 136.984 173.45z" transform="matrix(-1 0 0 1 267.146 0)"/>
                    <path fill="#FFF" d="M130.163 176.337L130.163 172.483 138.755 173.45 138.755 177.304z" transform="matrix(-1 0 0 1 268.917 0)"/>
                    <path fill="#FFF" d="M128.392 173.451L130.163 168.737 130.163 173.136 128.392 177.304z" transform="matrix(-1 0 0 1 258.555 0)"/>
                    <path fill="#FFF" d="M138.754 168.737L130.347 167.772 128.392 172.483 136.984 173.45z" transform="matrix(-1 0 0 1 267.146 0)"/>
                    <path fill="#27DEBF" d="M64.974 156.826L64.974 152.972 73.566 153.94 73.566 157.794z" transform="matrix(-1 0 0 1 138.54 0)"/>
                    <path fill="#27DEBF" d="M63.203 153.94L64.974 149.226 64.974 153.625 63.203 157.794z" transform="matrix(-1 0 0 1 128.178 0)"/>
                    <path fill="#27DEBF" d="M73.566 149.226L65.159 148.261 63.203 152.972 71.795 153.94z" transform="matrix(-1 0 0 1 136.77 0)"/>
                    <path fill="#FFF" d="M64.974 156.826L64.974 152.972 73.566 153.94 73.566 157.794z" transform="matrix(-1 0 0 1 138.54 0)"/>
                    <path fill="#FFF" d="M63.203 153.94L64.974 149.226 64.974 153.625 63.203 157.794z" transform="matrix(-1 0 0 1 128.178 0)"/>
                    <path fill="#FFF" d="M73.566 149.226L65.159 148.261 63.203 152.972 71.795 153.94z" transform="matrix(-1 0 0 1 136.77 0)"/>
                    <path fill="#27DEBF" d="M68.344 164.767L68.344 160.913 76.936 161.881 76.936 165.734z" transform="matrix(-1 0 0 1 145.28 0)"/>
                    <path fill="#27DEBF" d="M66.574 161.88L68.344 157.167 68.344 161.566 66.574 165.734z" transform="matrix(-1 0 0 1 134.918 0)"/>
                    <path fill="#27DEBF" d="M76.936 157.167L68.529 156.202 66.574 160.913 75.165 161.88z" transform="matrix(-1 0 0 1 143.51 0)"/>
                    <path fill="#FFF" d="M68.344 164.767L68.344 160.913 76.936 161.881 76.936 165.734z" transform="matrix(-1 0 0 1 145.28 0)"/>
                    <path fill="#FFF" d="M66.574 161.88L68.344 157.167 68.344 161.566 66.574 165.734z" transform="matrix(-1 0 0 1 134.918 0)"/>
                    <path fill="#FFF" d="M76.936 157.167L68.529 156.202 66.574 160.913 75.165 161.88z" transform="matrix(-1 0 0 1 143.51 0)"/>
                    <path fill="#27DEBF" d="M71.714 172.707L71.714 168.854 80.306 169.821 80.306 173.675z" transform="matrix(-1 0 0 1 152.02 0)"/>
                    <path fill="#27DEBF" d="M69.943 169.821L71.715 165.107 71.715 169.506 69.943 173.675z" transform="matrix(-1 0 0 1 141.658 0)"/>
                    <path fill="#27DEBF" d="M80.306 165.107L71.899 164.142 69.944 168.853 78.535 169.821z" transform="matrix(-1 0 0 1 150.25 0)"/>
                    <path fill="#FFF" d="M71.714 172.707L71.714 168.854 80.306 169.821 80.306 173.675z" transform="matrix(-1 0 0 1 152.02 0)"/>
                    <path fill="#FFF" d="M69.943 169.821L71.715 165.107 71.715 169.506 69.943 173.675z" transform="matrix(-1 0 0 1 141.658 0)"/>
                    <path fill="#FFF" d="M80.306 165.107L71.899 164.142 69.944 168.853 78.535 169.821z" transform="matrix(-1 0 0 1 150.25 0)"/>
                    <path fill="#27DEBF" d="M75.085 180.648L75.085 176.794 83.677 177.762 83.677 181.615z" transform="matrix(-1 0 0 1 158.761 0)"/>
                    <path fill="#27DEBF" d="M73.314 177.762L75.085 173.048 75.085 177.447 73.314 181.616z" transform="matrix(-1 0 0 1 148.399 0)"/>
                    <path fill="#27DEBF" d="M83.676 173.048L75.269 172.083 73.314 176.794 81.905 177.762z" transform="matrix(-1 0 0 1 156.99 0)"/>
                    <path fill="#FFF" d="M75.085 180.648L75.085 176.794 83.677 177.762 83.677 181.615z" transform="matrix(-1 0 0 1 158.761 0)"/>
                    <path fill="#FFF" d="M73.314 177.762L75.085 173.048 75.085 177.447 73.314 181.616z" transform="matrix(-1 0 0 1 148.399 0)"/>
                    <path fill="#FFF" d="M83.676 173.048L75.269 172.083 73.314 176.794 81.905 177.762z" transform="matrix(-1 0 0 1 156.99 0)"/>
                    <path fill="#27DEBF" d="M79.557 155.211L79.557 151.357 88.149 152.325 88.149 156.179z" transform="matrix(-1 0 0 1 167.705 0)"/>
                    <path fill="#27DEBF" d="M77.786 152.325L79.557 147.611 79.557 152.01 77.786 156.179z" transform="matrix(-1 0 0 1 157.343 0)"/>
                    <path fill="#27DEBF" d="M88.148 147.611L79.741 146.646 77.786 151.357 86.377 152.325z" transform="matrix(-1 0 0 1 165.934 0)"/>
                    <path fill="#FFF" d="M79.557 155.211L79.557 151.357 88.149 152.325 88.149 156.179z" transform="matrix(-1 0 0 1 167.705 0)"/>
                    <path fill="#FFF" d="M77.786 152.325L79.557 147.611 79.557 152.01 77.786 156.179z" transform="matrix(-1 0 0 1 157.343 0)"/>
                    <path fill="#FFF" d="M88.148 147.611L79.741 146.646 77.786 151.357 86.377 152.325z" transform="matrix(-1 0 0 1 165.934 0)"/>
                    <path fill="#27DEBF" d="M82.927 163.152L82.927 159.298 91.518 160.266 91.518 164.12z" transform="matrix(-1 0 0 1 174.445 0)"/>
                    <path fill="#27DEBF" d="M81.156 160.266L82.927 155.552 82.927 159.951 81.156 164.119z" transform="matrix(-1 0 0 1 164.082 0)"/>
                    <path fill="#27DEBF" d="M91.518 155.552L83.111 154.587 81.156 159.298 89.747 160.265z" transform="matrix(-1 0 0 1 172.674 0)"/>
                    <path fill="#FFF" d="M82.927 163.152L82.927 159.298 91.518 160.266 91.518 164.12z" transform="matrix(-1 0 0 1 174.445 0)"/>
                    <path fill="#FFF" d="M81.156 160.266L82.927 155.552 82.927 159.951 81.156 164.119z" transform="matrix(-1 0 0 1 164.082 0)"/>
                    <path fill="#FFF" d="M91.518 155.552L83.111 154.587 81.156 159.298 89.747 160.265z" transform="matrix(-1 0 0 1 172.674 0)"/>
                    <path fill="#27DEBF" d="M86.297 171.093L86.297 167.239 94.889 168.206 94.889 172.06z" transform="matrix(-1 0 0 1 181.186 0)"/>
                    <path fill="#27DEBF" d="M84.526 168.206L86.297 163.493 86.297 167.892 84.526 172.06z" transform="matrix(-1 0 0 1 170.823 0)"/>
                    <path fill="#27DEBF" d="M94.889 163.493L86.482 162.528 84.526 167.239 93.117 168.206z" transform="matrix(-1 0 0 1 179.415 0)"/>
                    <path fill="#FFF" d="M86.297 171.093L86.297 167.239 94.889 168.206 94.889 172.06z" transform="matrix(-1 0 0 1 181.186 0)"/>
                    <path fill="#FFF" d="M84.526 168.206L86.297 163.493 86.297 167.892 84.526 172.06z" transform="matrix(-1 0 0 1 170.823 0)"/>
                    <path fill="#FFF" d="M94.889 163.493L86.482 162.528 84.526 167.239 93.117 168.206z" transform="matrix(-1 0 0 1 179.415 0)"/>
                    <path fill="#27DEBF" d="M89.667 179.033L89.667 175.179 98.259 176.147 98.259 180z" transform="matrix(-1 0 0 1 187.926 0)"/>
                    <path fill="#27DEBF" d="M87.896 176.147L89.667 171.433 89.667 175.832 87.896 180.001z" transform="matrix(-1 0 0 1 177.564 0)"/>
                    <path fill="#27DEBF" d="M98.259 171.433L89.852 170.468 87.897 175.179 96.488 176.147z" transform="matrix(-1 0 0 1 186.156 0)"/>
                    <path fill="#FFF" d="M89.667 179.033L89.667 175.179 98.259 176.147 98.259 180z" transform="matrix(-1 0 0 1 187.926 0)"/>
                    <path fill="#FFF" d="M87.896 176.147L89.667 171.433 89.667 175.832 87.896 180.001z" transform="matrix(-1 0 0 1 177.564 0)"/>
                    <path fill="#FFF" d="M98.259 171.433L89.852 170.468 87.897 175.179 96.488 176.147z" transform="matrix(-1 0 0 1 186.156 0)"/>
                    <path fill="#27DEBF" d="M52.57 169.735L52.57 166.704 59.328 167.466 59.328 170.496z" transform="matrix(-1 0 0 1 111.898 0)"/>
                    <path fill="#27DEBF" d="M51.177 167.466L52.57 163.758 52.57 167.218 51.177 170.497z" transform="matrix(-1 0 0 1 103.748 0)"/>
                    <path fill="#27DEBF" d="M59.328 163.758L52.715 162.999 51.178 166.704 57.935 167.466z" transform="matrix(-1 0 0 1 110.506 0)"/>
                    <path fill="#FFF" d="M52.57 169.735L52.57 166.704 59.328 167.466 59.328 170.496z" transform="matrix(-1 0 0 1 111.898 0)"/>
                    <path fill="#FFF" d="M51.177 167.466L52.57 163.758 52.57 167.218 51.177 170.497z" transform="matrix(-1 0 0 1 103.748 0)"/>
                    <path fill="#FFF" d="M59.328 163.758L52.715 162.999 51.178 166.704 57.935 167.466z" transform="matrix(-1 0 0 1 110.506 0)"/>
                    <path fill="#27DEBF" d="M55.949 178.661L55.949 175.63 62.707 176.392 62.707 179.422z" transform="matrix(-1 0 0 1 118.656 0)"/>
                    <path fill="#27DEBF" d="M54.556 176.391L55.949 172.684 55.949 176.144 54.556 179.422z" transform="matrix(-1 0 0 1 110.505 0)"/>
                    <path fill="#27DEBF" d="M62.707 172.684L56.094 171.925 54.557 175.63 61.314 176.392z" transform="matrix(-1 0 0 1 117.263 0)"/>
                    <path fill="#FFF" d="M55.949 178.661L55.949 175.63 62.707 176.392 62.707 179.422z" transform="matrix(-1 0 0 1 118.656 0)"/>
                    <path fill="#FFF" d="M54.556 176.391L55.949 172.684 55.949 176.144 54.556 179.422z" transform="matrix(-1 0 0 1 110.505 0)"/>
                    <path fill="#FFF" d="M62.707 172.684L56.094 171.925 54.557 175.63 61.314 176.392z" transform="matrix(-1 0 0 1 117.263 0)"/>
                    <path fill="#27DEBF" d="M124.623 160.613L124.623 146.173 135.272 147.367 135.272 161.806z" transform="matrix(-1 0 0 1 259.895 0)"/>
                    <path fill="#FFF" d="M124.623 160.613L124.623 146.173 135.272 147.367 135.272 161.806z" transform="matrix(-1 0 0 1 259.895 0)"/>
                    <path fill="#27DEBF" d="M123.24 147.367L124.623 143.849 124.623 159.005 123.24 161.806z" transform="matrix(-1 0 0 1 247.863 0)"/>
                    <path fill="#FFF" d="M123.24 147.367L124.623 143.849 124.623 159.005 123.24 161.806z" transform="matrix(-1 0 0 1 247.863 0)"/>
                    <path fill="#27DEBF" d="M135.272 143.848L124.866 142.659 123.24 146.173 133.889 147.366z" transform="matrix(-1 0 0 1 258.512 0)"/>
                    <path fill="#FFF" d="M135.272 143.848L124.866 142.659 123.24 146.173 133.889 147.366z" transform="matrix(-1 0 0 1 258.512 0)"/>
                    <path fill="#27DEBF" d="M182.98 112.074L182.98 95 189.117 95.65 189.117 112.724z" transform="matrix(-1 0 0 1 372.096 0)"/>
                    <path fill="#FFF" d="M182.98 112.074L182.98 95 189.117 95.65 189.117 112.724z" transform="matrix(-1 0 0 1 372.096 0)"/>
                    <path fill="#27DEBF" d="M181.597 95.65L182.98 92.132 182.98 109.923 181.597 112.724z" transform="matrix(-1 0 0 1 364.577 0)"/>
                    <path fill="#FFF" d="M181.597 95.65L182.98 92.132 182.98 109.923 181.597 112.724z" transform="matrix(-1 0 0 1 364.577 0)"/>
                    <path fill="#27DEBF" d="M189.117 92.132L183.222 91.485 181.596 95 187.733 95.65z" transform="matrix(-1 0 0 1 370.713 0)"/>
                    <path fill="#FFF" d="M189.117 92.132L183.222 91.485 181.596 95 187.733 95.65z" transform="matrix(-1 0 0 1 370.713 0)"/>
                    <path fill="#27DEBF" d="M179.039 111.479L179.039 96.422 182.288 96.755 182.288 111.812z" transform="matrix(-1 0 0 1 361.327 0)"/>
                    <path fill="#FFF" d="M179.039 111.479L179.039 96.422 182.288 96.755 182.288 111.812z" transform="matrix(-1 0 0 1 361.327 0)"/>
                    <path fill="#27DEBF" d="M178.535 96.755L179.039 95.212 179.039 110.886 178.535 111.812z" transform="matrix(-1 0 0 1 357.574 0)"/>
                    <path fill="#FFF" d="M178.535 96.755L179.039 95.212 179.039 110.886 178.535 111.812z" transform="matrix(-1 0 0 1 357.574 0)"/>
                    <path fill="#27DEBF" d="M182.288 95.212L179.248 94.882 178.534 96.422 181.784 96.755z" transform="matrix(-1 0 0 1 360.823 0)"/>
                    <path fill="#FFF" d="M182.288 95.212L179.248 94.882 178.534 96.422 181.784 96.755z" transform="matrix(-1 0 0 1 360.823 0)"/>
                    <path fill="#27DEBF" d="M137.356 159.168L137.356 144.729 148.004 145.922 148.004 160.361z" transform="matrix(-1 0 0 1 285.36 0)"/>
                    <path fill="#FFF" d="M137.356 159.168L137.356 144.729 148.004 145.922 148.004 160.361z" transform="matrix(-1 0 0 1 285.36 0)"/>
                    <path fill="#27DEBF" d="M135.973 145.922L137.356 142.404 137.356 157.56 135.973 160.361z" transform="matrix(-1 0 0 1 273.329 0)"/>
                    <path fill="#FFF" d="M135.973 145.922L137.356 142.404 137.356 157.56 135.973 160.361z" transform="matrix(-1 0 0 1 273.329 0)"/>
                    <path fill="#27DEBF" d="M148.004 142.404L137.598 141.214 135.972 144.729 146.621 145.921z" transform="matrix(-1 0 0 1 283.977 0)"/>
                    <path fill="#FFF" d="M148.004 142.404L137.598 141.214 135.972 144.729 146.621 145.921z" transform="matrix(-1 0 0 1 283.977 0)"/>
                    <path fill="#27DEBF" d="M166.356 113.703L166.356 109.382 175.989 110.467 175.989 114.788z" transform="matrix(-1 0 0 1 342.345 0)"/>
                    <path fill="#27DEBF" d="M164.37 110.467L166.355 105.181 166.355 110.114 164.37 114.788z" transform="matrix(-1 0 0 1 330.725 0)"/>
                    <path fill="#27DEBF" d="M175.989 105.182L166.562 104.1 164.37 109.382 174.003 110.468z" transform="matrix(-1 0 0 1 340.359 0)"/>
                    <path fill="#FFF" d="M166.356 113.703L166.356 109.382 175.989 110.467 175.989 114.788z" transform="matrix(-1 0 0 1 342.345 0)"/>
                    <path fill="#FFF" d="M164.37 110.467L166.355 105.181 166.355 110.114 164.37 114.788z" transform="matrix(-1 0 0 1 330.725 0)"/>
                    <path fill="#FFF" d="M175.989 105.182L166.562 104.1 164.37 109.382 174.003 110.468z" transform="matrix(-1 0 0 1 340.359 0)"/>
                    <path fill="#27DEBF" d="M196.813 144.682L189.914 148.472 184.39 145.458 191.643 141.473z" transform="matrix(-1 0 0 1 381.203 0)"/>
                    <path fill="#FFF" d="M196.813 144.682L189.914 148.472 184.39 145.458 191.643 141.473z" transform="matrix(-1 0 0 1 381.203 0)"/>
                    <path fill="#27DEBF" d="M191.288 148.581L191.288 145.458 196.813 148.472 196.813 151.616z" transform="matrix(-1 0 0 1 388.101 0)"/>
                    <path fill="#FFF" d="M191.288 148.581L191.288 145.458 196.813 148.472 196.813 151.616z" transform="matrix(-1 0 0 1 388.101 0)"/>
                    <path fill="#27DEBF" d="M191.288 144.682L191.288 147.825 184.39 151.616 184.39 148.472z" transform="matrix(-1 0 0 1 375.678 0)"/>
                    <path fill="#FFF" d="M191.288 144.682L191.288 147.825 184.39 151.616 184.39 148.472z" transform="matrix(-1 0 0 1 375.678 0)"/>
                    <path fill="#27DEBF" d="M189.1 149.012L182.201 152.802 176.677 149.788 183.93 145.803z" transform="matrix(-1 0 0 1 365.776 0)"/>
                    <path fill="#FFF" d="M189.1 149.012L182.201 152.802 176.677 149.788 183.93 145.803z" transform="matrix(-1 0 0 1 365.776 0)"/>
                    <path fill="#27DEBF" d="M183.575 152.911L183.575 149.788 189.1 152.802 189.1 155.947z" transform="matrix(-1 0 0 1 372.674 0)"/>
                    <path fill="#FFF" d="M183.575 152.911L183.575 149.788 189.1 152.802 189.1 155.947z" transform="matrix(-1 0 0 1 372.674 0)"/>
                    <path fill="#27DEBF" d="M183.575 149.012L183.575 152.155 176.677 155.946 176.677 152.802z" transform="matrix(-1 0 0 1 360.252 0)"/>
                    <path fill="#FFF" d="M183.575 149.012L183.575 152.155 176.677 155.946 176.677 152.802z" transform="matrix(-1 0 0 1 360.252 0)"/>
                    <path fill="#27DEBF" d="M181.231 153.302L174.333 157.091 168.808 154.078 176.061 150.093z" transform="matrix(-1 0 0 1 350.039 0)"/>
                    <path fill="#FFF" d="M181.231 153.302L174.333 157.091 168.808 154.078 176.061 150.093z" transform="matrix(-1 0 0 1 350.039 0)"/>
                    <path fill="#27DEBF" d="M175.706 157.2L175.706 154.077 181.231 157.092 181.231 160.236z" transform="matrix(-1 0 0 1 356.936 0)"/>
                    <path fill="#FFF" d="M175.706 157.2L175.706 154.077 181.231 157.092 181.231 160.236z" transform="matrix(-1 0 0 1 356.936 0)"/>
                    <path fill="#27DEBF" d="M175.706 153.302L175.706 156.444 168.808 160.235 168.808 157.091z" transform="matrix(-1 0 0 1 344.514 0)"/>
                    <path fill="#FFF" d="M175.706 153.302L175.706 156.444 168.808 160.235 168.808 157.091z" transform="matrix(-1 0 0 1 344.514 0)"/>
                    <path fill="#27DEBF" d="M170.064 155.238L163.166 159.027 157.641 156.013 164.894 152.029z" transform="matrix(-1 0 0 1 327.705 0)"/>
                    <path fill="#FFF" d="M170.064 155.238L163.166 159.027 157.641 156.013 164.894 152.029z" transform="matrix(-1 0 0 1 327.705 0)"/>
                    <path fill="#27DEBF" d="M164.54 163.532L164.54 156.013 170.064 159.027 170.064 166.568z" transform="matrix(-1 0 0 1 334.604 0)"/>
                    <path fill="#FFF" d="M164.54 163.532L164.54 156.013 170.064 159.027 170.064 166.568z" transform="matrix(-1 0 0 1 334.604 0)"/>
                    <path fill="#27DEBF" d="M164.54 155.238L164.54 162.776 157.641 166.568 157.641 159.027z" transform="matrix(-1 0 0 1 322.18 0)"/>
                    <path fill="#FFF" d="M164.54 155.238L164.54 162.776 157.641 166.568 157.641 159.027z" transform="matrix(-1 0 0 1 322.18 0)"/>
                    <path fill="#27DEBF" d="M211.893 137.556L204.414 140.22 198.89 137.206 206.723 134.347z" transform="matrix(-1 0 0 1 410.783 0)"/>
                    <path fill="#FFF" d="M211.893 137.556L204.414 140.22 198.89 137.206 206.723 134.347z" transform="matrix(-1 0 0 1 410.783 0)"/>
                    <path fill="#27DEBF" d="M206.369 140.329L206.369 137.206 211.894 140.22 211.894 143.364z" transform="matrix(-1 0 0 1 418.263 0)"/>
                    <path fill="#FFF" d="M206.369 140.329L206.369 137.206 211.894 140.22 211.894 143.364z" transform="matrix(-1 0 0 1 418.263 0)"/>
                    <path fill="#27DEBF" d="M206.369 137.556L206.369 140.699 198.89 143.364 198.89 140.22z" transform="matrix(-1 0 0 1 405.258 0)"/>
                    <path fill="#FFF" d="M206.369 137.556L206.369 140.699 198.89 143.364 198.89 140.22z" transform="matrix(-1 0 0 1 405.258 0)"/>
                    <path fill="#27DEBF" d="M199.907 133.202L192.428 135.866 186.903 132.852 194.738 129.993z" transform="matrix(-1 0 0 1 386.81 0)"/>
                    <path fill="#FFF" d="M199.907 133.202L192.428 135.866 186.903 132.852 194.738 129.993z" transform="matrix(-1 0 0 1 386.81 0)"/>
                    <path fill="#27DEBF" d="M194.382 135.975L194.382 132.852 199.907 135.866 199.907 139.01z" transform="matrix(-1 0 0 1 394.29 0)"/>
                    <path fill="#FFF" d="M194.382 135.975L194.382 132.852 199.907 135.866 199.907 139.01z" transform="matrix(-1 0 0 1 394.29 0)"/>
                    <path fill="#27DEBF" d="M194.382 133.202L194.382 136.345 186.903 139.01 186.903 135.866z" transform="matrix(-1 0 0 1 381.285 0)"/>
                    <path fill="#FFF" d="M194.382 133.202L194.382 136.345 186.903 139.01 186.903 135.866z" transform="matrix(-1 0 0 1 381.285 0)"/>
                    <path fill="#27DEBF" d="M127.529 117.573L127.529 113.017 141.51 114.586 141.51 119.141z" transform="matrix(-1 0 0 1 269.04 0)"/>
                    <path fill="#FFF" d="M127.529 117.573L127.529 113.017 141.51 114.586 141.51 119.141z" transform="matrix(-1 0 0 1 269.04 0)"/>
                    <path fill="#27DEBF" d="M124.573 114.585L127.529 106.717 127.529 112.183 124.573 119.141z" transform="matrix(-1 0 0 1 252.101 0)"/>
                    <path fill="#FFF" d="M124.573 114.585L127.529 106.717 127.529 112.183 124.573 119.141z" transform="matrix(-1 0 0 1 252.101 0)"/>
                    <path fill="#27DEBF" d="M141.51 106.717L127.837 105.153 124.573 113.017 138.554 114.585z" transform="matrix(-1 0 0 1 266.083 0)"/>
                    <path fill="#FFF" d="M141.51 106.717L127.837 105.153 124.573 113.017 138.554 114.585z" transform="matrix(-1 0 0 1 266.083 0)"/>
                    <path fill="#27DEBF" d="M128.762 111.884L128.762 89.678 139.715 90.905 139.715 113.111z" transform="matrix(-1 0 0 1 268.477 0)"/>
                    <path fill="#FFF" d="M128.762 111.884L128.762 89.678 139.715 90.905 139.715 113.111z" transform="matrix(-1 0 0 1 268.477 0)"/>
                    <path fill="#27DEBF" d="M126.368 90.905L128.762 84.534 128.762 107.477 126.368 113.111z" transform="matrix(-1 0 0 1 255.13 0)"/>
                    <path fill="#FFF" d="M126.368 90.905L128.762 84.534 128.762 107.477 126.368 113.111z" transform="matrix(-1 0 0 1 255.13 0)"/>
                    <path fill="#27DEBF" d="M139.715 84.534L129.012 83.31 126.368 89.678 137.321 90.905z" transform="matrix(-1 0 0 1 266.083 0)"/>
                    <path fill="#FFF" d="M139.715 84.534L129.012 83.31 126.368 89.678 137.321 90.905z" transform="matrix(-1 0 0 1 266.083 0)"/>
                    <path fill="#27DEBF" d="M130.327 88.248L130.327 76.14 136.299 76.809 136.299 88.918z" transform="matrix(-1 0 0 1 266.626 0)"/>
                    <path fill="#FFF" d="M130.327 88.248L130.327 76.14 136.299 76.809 136.299 88.918z" transform="matrix(-1 0 0 1 266.626 0)"/>
                    <path fill="#27DEBF" d="M129.021 76.809L130.327 73.335 130.327 85.845 129.021 88.918z" transform="matrix(-1 0 0 1 259.348 0)"/>
                    <path fill="#FFF" d="M129.021 76.809L130.327 73.335 130.327 85.845 129.021 88.918z" transform="matrix(-1 0 0 1 259.348 0)"/>
                    <path fill="#27DEBF" d="M136.299 73.335L130.462 72.668 129.021 76.14 134.994 76.809z" transform="matrix(-1 0 0 1 265.32 0)"/>
                    <path fill="#FFF" d="M136.299 73.335L130.462 72.668 129.021 76.14 134.994 76.809z" transform="matrix(-1 0 0 1 265.32 0)"/>
                    <path fill="#27DEBF" d="M62.02 149.513L62.02 114.521 72.973 115.749 72.973 150.741z" transform="matrix(-1 0 0 1 134.994 0)"/>
                    <path fill="#FFF" d="M62.02 149.513L62.02 114.521 72.973 115.749 72.973 150.741z" transform="matrix(-1 0 0 1 134.994 0)"/>
                    <path fill="#27DEBF" d="M60.417 115.749L62.02 111.285 62.02 147.014 60.417 150.741z" transform="matrix(-1 0 0 1 122.437 0)"/>
                    <path fill="#FFF" d="M60.417 115.749L62.02 111.285 62.02 147.014 60.417 150.741z" transform="matrix(-1 0 0 1 122.437 0)"/>
                    <path fill="#27DEBF" d="M72.973 111.285L62.27 110.061 60.417 114.521 71.37 115.749z" transform="matrix(-1 0 0 1 133.39 0)"/>
                    <path fill="#FFF" d="M72.973 111.285L62.27 110.061 60.417 114.521 71.37 115.749z" transform="matrix(-1 0 0 1 133.39 0)"/>
                    <path fill="#27DEBF" d="M45.703 160.679L45.703 128.274 55.253 129.287 55.253 161.691z" transform="matrix(-1 0 0 1 100.956 0)"/>
                    <path fill="#FFF" d="M45.703 160.679L45.703 128.274 55.253 129.287 55.253 161.691z" transform="matrix(-1 0 0 1 100.956 0)"/>
                    <path fill="#27DEBF" d="M43.55 129.287L45.703 123.812 45.703 157.332 43.55 161.691z" transform="matrix(-1 0 0 1 89.253 0)"/>
                    <path fill="#FFF" d="M43.55 129.287L45.703 123.812 45.703 157.332 43.55 161.691z" transform="matrix(-1 0 0 1 89.253 0)"/>
                    <path fill="#27DEBF" d="M55.253 123.813L46.081 122.806 43.55 128.275 53.1 129.287z" transform="matrix(-1 0 0 1 98.803 0)"/>
                    <path fill="#FFF" d="M55.253 123.813L46.081 122.806 43.55 128.275 53.1 129.287z" transform="matrix(-1 0 0 1 98.803 0)"/>
                    <path fill="#27DEBF" d="M39.571 159.753L39.571 130.487 44.627 131.006 44.627 160.271z" transform="matrix(-1 0 0 1 84.198 0)"/>
                    <path fill="#FFF" d="M39.571 159.753L39.571 130.487 44.627 131.006 44.627 160.271z" transform="matrix(-1 0 0 1 84.198 0)"/>
                    <path fill="#27DEBF" d="M38.786 131.006L39.571 128.605 39.571 158.829 38.786 160.271z" transform="matrix(-1 0 0 1 78.357 0)"/>
                    <path fill="#FFF" d="M38.786 131.006L39.571 128.605 39.571 158.829 38.786 160.271z" transform="matrix(-1 0 0 1 78.357 0)"/>
                    <path fill="#27DEBF" d="M44.627 128.605L39.896 128.091 38.786 130.488 43.841 131.006z" transform="matrix(-1 0 0 1 83.413 0)"/>
                    <path fill="#FFF" d="M44.627 128.605L39.896 128.091 38.786 130.488 43.841 131.006z" transform="matrix(-1 0 0 1 83.413 0)"/>
                    <path fill="#27DEBF" d="M219.065 124.98L233.007 132.642 233.007 136.809 219.065 129.146z" transform="matrix(-1 0 0 1 452.072 0)"/>
                    <path fill="#E3E3E3" d="M219.065 124.98L233.007 132.642 233.007 136.809 219.065 129.146z" transform="matrix(-1 0 0 1 452.072 0)"/>
                    <path fill="#27DEBF" d="M219.065 129.147L219.065 124.98 205.123 132.642 205.123 136.809" transform="matrix(-1 0 0 1 424.189 0)"/>
                    <path fill="#FFF" d="M219.066 124.98L205.124 132.642 205.124 136.808 219.066 129.146z" transform="matrix(-1 0 0 1 424.19 0)"/>
                    <path fill="#27DEBF" d="M233.007 124.98L219.065 117.318 205.124 124.98 219.065 132.642z" transform="matrix(-1 0 0 1 438.13 0)"/>
                    <path fill="#C5C2C2" d="M233.007 124.98L219.065 117.318 205.124 124.98 219.065 132.642z" transform="matrix(-1 0 0 1 438.13 0)"/>
                    <path fill="#27DEBF" d="M219.065 124.341L233.007 132.003 233.007 130.726 219.065 123.064z" transform="matrix(-1 0 0 1 452.072 0)"/>
                    <path fill="#E3E3E3" d="M219.065 124.341L233.007 132.003 233.007 130.726 219.065 123.064z" transform="matrix(-1 0 0 1 452.072 0)"/>
                    <path fill="#27DEBF" d="M205.123 132.003L219.065 124.342 219.065 123.065 205.123 130.726z" transform="matrix(-1 0 0 1 424.189 0)"/>
                    <path fill="#FFF" d="M205.123 132.003L219.065 124.342 219.065 123.065 205.123 130.726z" transform="matrix(-1 0 0 1 424.189 0)"/>
                    <path fill="#27DEBF" d="M233.007 123.065L219.065 115.402 205.124 123.065 219.065 130.726z" transform="matrix(-1 0 0 1 438.13 0)"/>
                    <path fill="#C5C2C2" d="M233.007 123.065L219.065 115.402 205.124 123.065 219.065 130.726z" transform="matrix(-1 0 0 1 438.13 0)"/>
                    <path fill="#27DEBF" d="M219.065 122.283L233.007 129.945 233.007 128.668 219.065 121.006z" transform="matrix(-1 0 0 1 452.072 0)"/>
                    <path fill="#E3E3E3" d="M219.065 122.283L233.007 129.945 233.007 128.668 219.065 121.006z" transform="matrix(-1 0 0 1 452.072 0)"/>
                    <path fill="#27DEBF" d="M205.123 129.945L219.065 122.283 219.065 121.006 205.123 128.668z" transform="matrix(-1 0 0 1 424.189 0)"/>
                    <path fill="#FFF" d="M205.123 129.945L219.065 122.283 219.065 121.006 205.123 128.668z" transform="matrix(-1 0 0 1 424.189 0)"/>
                    <path fill="#27DEBF" d="M233.007 121.006L219.065 113.344 205.124 121.006 219.065 128.668z" transform="matrix(-1 0 0 1 438.13 0)"/>
                    <path fill="#C5C2C2" d="M233.007 121.006L219.065 113.344 205.124 121.006 219.065 128.668z" transform="matrix(-1 0 0 1 438.13 0)"/>
                    <path fill="#27DEBF" d="M230.683 127.231L230.683 95.059 219.065 88.675 219.066 120.846z" transform="matrix(-1 0 0 1 449.749 0)"/>
                    <path fill="#FFF" d="M207.447 95.059L219.065 88.675 219.065 120.846 207.447 127.231z" transform="matrix(-1 0 0 1 426.512 0)"/>
                    <path fill="#27DEBF" d="M230.683 88.675L219.065 82.289 207.447 88.675 219.065 95.06z" transform="matrix(-1 0 0 1 438.13 0)"/>
                    <path fill="#C5C2C2" d="M230.683 88.675L219.065 82.289 207.447 88.675 219.065 95.06z" transform="matrix(-1 0 0 1 438.13 0)"/>
                    <path fill="#E3E3E3" d="M230.683 127.231L230.683 95.059 219.065 88.675 219.066 120.846z" transform="matrix(-1 0 0 1 449.749 0)"/>
                    <path fill="#27DEBF" d="M228.36 93.783L228.36 66.688 219.065 61.459 219.065 88.675z" transform="matrix(-1 0 0 1 447.425 0)"/>
                    <path fill="#FFF" d="M209.77 93.783L209.77 66.688 219.065 61.459 219.065 88.675z" transform="matrix(-1 0 0 1 428.836 0)"/>
                    <path fill="#27DEBF" d="M228.36 61.459L219.065 56.411 209.77 61.459 219.065 66.688z" transform="matrix(-1 0 0 1 438.13 0)"/>
                    <path fill="#C5C2C2" d="M228.36 61.459L219.065 56.411 209.77 61.459 219.065 66.688z" transform="matrix(-1 0 0 1 438.13 0)"/>
                    <path fill="#E3E3E3" d="M228.36 93.783L228.36 66.688 219.065 61.459 219.065 88.675z" transform="matrix(-1 0 0 1 447.425 0)"/>
                    <path fill="#FFF" d="M213.257 64.712L213.257 60.881 219.066 57.688 219.066 61.519z" transform="matrix(-1 0 0 1 432.322 0)"/>
                    <path fill="#27DEBF" d="M219.066 61.519L219.066 57.688 224.874 60.881 224.874 64.711z" transform="matrix(-1 0 0 1 443.94 0)"/>
                    <path fill="#E3E3E3" d="M219.066 61.519L219.066 57.688 224.874 60.881 224.874 64.711z" transform="matrix(-1 0 0 1 443.94 0)"/>
                    <path fill="#27DEBF" d="M224.875 57.688L219.066 54.495 213.257 57.688 219.065 60.881z" transform="matrix(-1 0 0 1 438.131 0)"/>
                    <path fill="#C5C2C2" d="M224.875 57.688L219.066 54.495 213.257 57.688 219.065 60.881z" transform="matrix(-1 0 0 1 438.131 0)"/>
                    <path fill="#2149FE" stroke="#2149FE" d="M205.898 186.905c-.077-.037-4.697-2.786-16.525-3.299-11.822-.512-17.474 1.628-17.53 1.649-.107.042-.233.019-.316-.06-.083-.079-.109-.198-.065-.301l17.399-40.922-40.674-4.515c-.091-.01-.171-.06-.218-.134-.046-.075-.053-.165-.02-.245l6.452-15.186-82.297-9.32c-.16-.018-.274-.156-.255-.308.018-.153.162-.262.323-.243l82.677 9.363c.09.01.17.06.216.134.047.075.054.166.02.246l-6.45 15.183 40.673 4.516c.09.01.171.06.217.134.047.075.054.166.02.246l-17.299 40.688c1.768-.543 7.288-1.907 17.153-1.48 11.964.519 16.686 3.322 16.764 3.36.143.07.2.237.127.374-.052.095-.154.15-.26.15-.045 0-.09-.009-.132-.03z" transform="matrix(-1 0 0 1 278.168 0)"/>
                    <path stroke="#2149FE" stroke-linecap="round" stroke-width="3" d="M72.19 186.67l-14.2-33.923c-.635-1.517.08-3.262 1.597-3.897.225-.094.461-.16.703-.197h0"/>
                    <g>
                        <g fill="#6D975F">
                            <path d="M4.415 24.34v-1.605c0-2 .39-4.107 1.09-6.174v-.006c1.765-5.218 5.483-10.197 9.783-12.564 2.739-1.506 5.239-1.695 7.15-.79l-3.764-2.067c-.904-.572-1.958-.872-3.13-.872-.175 0-.349.005-.53.022-.18.011-.361.033-.547.06-.187.023-.374.057-.56.101-.186.039-.379.089-.57.145-.392.11-.782.25-1.184.416-.198.084-.402.178-.606.273-.204.1-.408.205-.612.317C4.934 4.902.068 13.293.068 20.34v1.606c0 7.046 9.935 14.704 9.935 14.704l4.026 2.167c-.07-.039-.139-.089-.204-.144-2.966-2.612-9.41-8.909-9.41-14.332" transform="translate(207.346) matrix(-1 0 0 1 26.155 0)"/>
                        </g>
                        <path fill="#6D975F" d="M11.77 9.525c.035.173.058.35.07.54.005.06.012.122.012.189.011.105.011.21.011.322 0 3.3-2.43 7.324-5.437 8.974-.11.062-.215.117-.325.167-.105.056-.216.1-.32.145-.106.044-.211.083-.316.122l-.029.01c.466 2.53 2.675 3.413 5.343 1.952 3.001-1.656 5.431-5.674 5.431-8.98 0-2.93-1.911-4.318-4.44-3.44" transform="translate(207.346) matrix(-1 0 0 1 21.646 0)"/>
                        <path fill="#8CC27B" d="M10.87 21.944c-3.002 1.653-5.435.313-5.435-2.992s2.433-7.325 5.435-8.977c3.001-1.653 5.434-.313 5.434 2.992s-2.433 7.325-5.434 8.977zm10.87-11.18C21.738 3.717 16.872.684 10.87 3.99 4.867 7.295 0 15.687 0 22.735v1.603c0 5.427 6.445 11.724 9.41 14.332.723.636 1.879.432 2.311-.41 2.56-4.998 10.018-20.054 10.018-25.891v-1.605z" transform="translate(207.346) matrix(-1 0 0 1 21.74 0)"/>
                    </g>
                    <g>
                        <g fill="#6D975F">
                            <path d="M1.558 8.664v-.572c0-.712.138-1.462.385-2.198v-.001c.623-1.858 1.935-3.63 3.453-4.473.966-.536 1.849-.603 2.523-.28L6.591.404C6.27.2 5.9.094 5.486.094c-.062 0-.123.001-.187.007-.064.004-.127.012-.193.022-.066.008-.132.02-.198.035-.065.014-.133.032-.201.052-.138.04-.276.089-.418.148-.07.03-.141.063-.213.097-.072.036-.144.073-.216.113C1.74 1.745.024 4.73.024 7.24v.571c0 2.508 3.506 5.234 3.506 5.234l1.422.771c-.025-.014-.05-.031-.072-.051-1.047-.93-3.322-3.17-3.322-5.101" transform="translate(127.917 55.268) matrix(-1 0 0 1 9.34 0)"/>
                        </g>
                        <path fill="#6D975F" d="M4.065 3.4c.013.06.022.12.026.186.002.021.004.042.004.066.005.036.005.073.005.111 0 1.143-.895 2.535-2.003 3.106-.04.022-.08.04-.12.058-.039.02-.08.035-.118.05l-.116.042-.01.004c.17.875.984 1.181 1.967.675 1.106-.573 2.001-1.963 2.001-3.108 0-1.013-.704-1.494-1.636-1.19" transform="translate(127.917 55.268) matrix(-1 0 0 1 7.433 0)"/>
                        <path fill="#8CC27B" d="M3.882 7.835c-1.05.586-1.902.111-1.902-1.061s.852-2.598 1.902-3.184c1.05-.586 1.902-.111 1.902 1.061S4.932 7.25 3.882 7.835zM7.685 3.87c0-2.5-1.702-3.575-3.803-2.403C1.782 2.64.078 5.616.078 8.115v.57c0 1.924 2.256 4.157 3.293 5.082.253.226.658.154.809-.145.896-1.773 3.505-7.113 3.505-9.183V3.87z" transform="translate(127.917 55.268) matrix(-1 0 0 1 7.764 0)"/>
                    </g>
                    <g>
                        <g fill="#6D975F">
                            <path d="M2.337 13.202v-.871c0-1.085.207-2.228.577-3.349v-.003c.935-2.83 2.903-5.53 5.18-6.815 1.45-.816 2.773-.919 3.785-.428L9.886.616C9.408.304 8.85.141 8.23.141c-.093 0-.186.003-.281.012-.096.006-.192.018-.29.033-.099.012-.198.03-.296.054-.099.021-.201.049-.303.079-.207.06-.413.135-.626.226-.105.045-.213.096-.32.148-.109.054-.217.111-.325.171C2.612 2.66.036 7.21.036 11.032v.87c0 3.823 5.26 7.976 5.26 7.976l2.131 1.175c-.037-.02-.073-.048-.108-.078-1.57-1.417-4.982-4.832-4.982-7.773" transform="translate(58.871 85.384) matrix(-1 0 0 1 13.56 0)"/>
                        </g>
                        <path fill="#6D975F" d="M6.196 4.781c.02.098.035.2.042.307.003.035.007.07.007.107.007.06.007.12.007.183 0 1.878-1.47 4.165-3.29 5.103-.067.035-.13.067-.197.096-.064.031-.131.056-.194.082-.064.025-.128.047-.19.07-.008.002-.012.002-.019.005.282 1.438 1.62 1.94 3.234 1.11 1.816-.942 3.287-3.227 3.287-5.107 0-1.665-1.157-2.455-2.687-1.956" transform="translate(58.871 85.384) matrix(-1 0 0 1 11.245 0)"/>
                        <path fill="#8CC27B" d="M5.788 11.675c-1.598.887-2.894.168-2.894-1.606 0-1.773 1.296-3.93 2.894-4.816 1.598-.887 2.894-.168 2.894 1.605 0 1.774-1.296 3.93-2.894 4.817zm5.788-5.999c0-3.78-2.592-5.408-5.788-3.635C2.59 3.815 0 8.318 0 12.1v.86c0 2.912 3.432 6.29 5.01 7.69.385.342 1.001.232 1.231-.22 1.364-2.681 5.335-10.76 5.335-13.892v-.86z" transform="translate(58.871 85.384) matrix(-1 0 0 1 11.576 0)"/>
                    </g>
                    <g>
                        <path fill="#27DEBF" d="M37.592 13.61V8.788L.158.513v4.814l.005.005c.005.107.057.238.173.394l14.577 19.651c.358.483.743.402.86-.18l1.845-9.22c.117-.583.71-1.086 1.325-1.123l18.181-1.121c.31-.02.466-.065.47-.123" transform="matrix(-1 0 0 1 39.358 203.862)"/>
                        <path fill="#1A3BD1" d="M37.592 13.61V8.788L.158.513v4.814l.005.005c.005.107.057.238.173.394l14.577 19.651c.358.483.743.402.86-.18l1.845-9.22c.117-.583.71-1.086 1.325-1.123l18.181-1.121c.31-.02.466-.065.47-.123" transform="matrix(-1 0 0 1 39.358 203.862)"/>
                        <path fill="#132989" d="M15.227 25.653c.246.11.462-.045.545-.456l1.845-9.22c.043-.217.153-.421.304-.596V8.609l-2.694 3.79v13.254z" transform="matrix(-1 0 0 1 39.358 203.862)"/>
                        <path fill="#2149FE" d="M15.772 20.375l1.845-9.22c.116-.582.71-1.085 1.325-1.123l18.182-1.121c.615-.038.628-.18.028-.317L.772.279C.173.142-.022.422.336.905l14.577 19.65c.358.483.743.403.86-.18" transform="matrix(-1 0 0 1 39.358 203.862)"/>
                    </g>
                    <circle cx="59.864" cy="148.76" r="1" fill="#FFF" stroke="#2149FE"/>
                </g>
            </g>
        </g>
    </g>
</svg>
