<svg xmlns="http://www.w3.org/2000/svg" width="236" height="180" viewBox="0 0 236 180">
    <g fill="none" fill-rule="evenodd">
        <g fill-rule="nonzero">
            <g>
                <path fill="#FFF" d="M117.844 157c-57.555 0-96.001-29.621-96.001-67.5 0-37.879 38.455-67.5 96.001-67.5 57.665 0 95.999 29.624 95.999 67.5 0 37.879-38.48 67.5-95.999 67.5z" transform="translate(-785 -10099) translate(785 10099)"/>
                <path fill="#7C8497" d="M118.285 0c-10.789.4-12.65 7.011-24.94 9.316-10.385 1.563-17.867-3.686-27.49-.572-8.812 3.233-11.068 11.597-19.76 17.477-8.267 5.166-19.602 4.769-25.305 11.353-6.231 7.45-4.1 16.409-7.82 27.024C8.706 75.405.843 79.168.843 89.944c0 10.986 7.903 14.598 12.18 25.45 3.751 10.803 1.39 19.262 7.81 27.144 6.638 6.877 15.633 5.47 25.213 11.175 8.843 5.928 10.97 14.213 19.81 17.543 10.352 3.138 16.074-2.186 27.49-.573 11.637 1.96 14.169 8.926 24.94 9.317h.09c10.857-.39 12.518-7.07 24.865-9.277 11.019-1.606 17.638 3.65 27.567.533 8.922-3.3 10.989-11.659 19.81-17.544 9.263-5.513 18.014-3.953 25.173-11.11 6.399-7.829 4.239-16.976 7.944-27.313 3.984-10.431 12.108-14.378 12.108-25.345 0-10.843-7.776-14.53-12.207-25.334-3.668-11.152-1.633-19.956-7.913-27.246-6.706-6.852-16.425-5.781-25.104-11.077-8.857-5.995-10.97-14.254-19.81-17.544-9.865-3.044-16.223 2.087-27.49.573C131.197 7.176 129.164.4 118.375 0h-.09zm.06 157.762c-57.647 0-96.153-29.735-96.153-67.76 0-38.025 38.516-67.76 96.153-67.76 57.755 0 96.149 29.738 96.149 67.76 0 38.025-38.54 67.76-96.15 67.76z" transform="translate(-785 -10099) translate(785 10099)"/>
                <path fill="#7C8497" d="M192.585 117.95l-1.27-.003c-3-.031-3.756-.838-4.641-3.296-.075-.191-8.628-24.461-14.874-42.174l-6.674-18.936c-.238-.686-.78-1.056-1.536-1.05h-8.231c-.753-.006-1.3.36-1.558 1.041l-25.805 61.39c-.53 1.257-.963 1.916-2.124 2.513-.896.444-2.406.502-3.007.502-.084 0-.146-.003-.195-.003h-.09l-.678.016c-.743 0-1.251.51-1.254 1.262v3.967c.003.755.505 1.255 1.26 1.255h20.089c.746 0 1.257-.512 1.257-1.258v-3.979c.006-.733-.51-1.247-1.254-1.247l-2.235-.019c-2.02-.021-3.559-.175-3.565-1.906v-.031c.003-.603.195-1.382.576-2.307 1.291-3.163 2.586-6.323 3.874-9.483h23.217c1.074 3.006 2.752 8.365 2.768 8.421.006.018.613 1.876.805 2.636.09.352.133.666.133.94 0 .021-.003.046 0 .077-.037 1.053-.731 1.583-2.227 1.626l-2.449.046c-.356 0-.675.117-.907.348-.23.228-.35.548-.35.912l.003.015v3.958l-.003.003c0 .355.118.669.35.9.229.23.548.348.913.348h29.68c.749 0 1.257-.512 1.26-1.257v-3.965c-.004-.751-.509-1.262-1.258-1.262zm-30.178-19.438H142.7l11.235-27.798 8.472 27.798zm-62.384 5.273h-4.106c-.65-.006-1.105.394-1.245 1.077-1.14 7.146-3.592 13.664-14.192 13.676-6.872-.006-10.69-4.59-12.824-10.959-2.124-6.366-2.527-14.49-2.527-21.47 0-4.779.78-11.692 3.032-17.398C70.418 63 74.122 58.524 79.969 58.524c9.655.013 12.495 5.132 14.04 13.527.146.76.56 1.132 1.267 1.12h4.085c.752 0 1.26-.508 1.266-1.252V53.746c-.006-.738-.52-1.255-1.263-1.255h-4.178c-.634-.01-.92.319-1.207.947-.533 1.129-.89 1.737-2.165 1.747-.771 0-1.362-.28-2.369-.767-.263-.122-.548-.265-.873-.413C86.302 53.069 82.976 52 77.327 52c-9.71 0-17.837 3.68-23.529 10.104-5.694 6.428-8.955 15.588-8.955 26.534 0 8.747 2.545 17.836 7.9 24.738C58.09 120.285 66.25 125.003 77.447 125c6.2 0 10.133-1.084 12.725-1.799 1.316-.363 2.267-.622 3.007-.622.675.006 1.14.333 1.474 1.066.294.671.771.795 1.174.788h.012v-.012l4.19.012c.75 0 1.26-.505 1.26-1.25v-18.141c0-.74-.52-1.257-1.267-1.257z" transform="translate(-785 -10099) translate(785 10099)"/>
                <path fill="#7C8497" d="M136.745 79.902c-.181-.256-.493-.267-.75-.267-.028 0-.06-.003-.09 0h-8.542c-.782-.01-1.094.408-1.172.753-.644 2.59-1.882 5.226-3.685 7.829l-4.979-7.448c5.332-2.377 7.967-5.205 7.97-8.648-.01-4.859-3.935-8.115-9.72-8.121-5.479.01-11.045 2.911-11.055 9.423 0 2.7 1.16 4.72 2.332 6.328-4.501 1.478-9.202 5.376-9.211 10.699 0 .055 0 .113.003.173.119 6.209 5.385 10.377 13.036 10.377h.02c2.656 0 6.478-.515 9.682-2.963 2.131 2.028 5.3 2.216 6.435 2.222.237 0 .39-.012.419-.012h3.42c.78.012 1.059-.415 1.202-.798l1.044-2.5c.075-.186.12-.356.12-.506 0-.132-.035-.257-.104-.358-.194-.27-.531-.282-.75-.289-.04 0-.075 0-.106.007h-1.588c-2.888 0-4.503-2.044-4.891-2.6 1.77-1.782 2.282-2.511 3.263-3.913.165-.232.337-.48.528-.753.863-1.218 2.079-3.214 2.091-3.236.531-.82.834-1.298 1.654-1.3h1.162c.544.002.938-.27 1.194-.808l1.013-2.311c.1-.251.153-.457.153-.636 0-.131-.032-.247-.098-.344zm-27.185 3.446l7.826 10.807c-1.434 1.438-2.897 2.696-5.372 2.702-3.87-.012-6.239-2.51-6.248-6.603-.003-2.641 1.566-5.496 3.794-6.906zm4.998-5.962c-1.578-2.327-2.313-3.809-2.316-6.087.006-1.846 1.063-3.796 3.397-3.796 2.026.003 2.938 1.842 2.945 3.725-.004 2.715-1.307 4.711-4.026 6.158z" transform="translate(-785 -10099) translate(785 10099)"/>
            </g>
        </g>
    </g>
</svg>
