<svg xmlns="http://www.w3.org/2000/svg" width="129" height="162" viewBox="0 0 129 162">
    <g fill="none" fill-rule="evenodd">
        <g>
            <g>
                <path fill="#FA5629" d="M0 0h82.772v155.186c0 3.314-2.687 6-6 6H6c-3.314 0-6-2.686-6-6V0z" opacity=".1" transform="translate(-1246 -1334) translate(1246 1334)"/>
                <path fill="#1D3461" fill-rule="nonzero" d="M108.84 73.255c.231-1.705.344-3.446.33-5.217C109.02 48.263 92.928 32.126 73.235 32c-20.084-.127-36.406 16.184-36.406 36.323 0 1.673.113 3.319.331 4.931.885 6.535-2.163 12.992-7.703 16.533C21.666 94.767 17 101.108 17 108.015 17 124.023 42.072 137 73 137s56-12.977 56-28.985c0-6.907-4.667-13.249-12.457-18.228-5.54-3.541-8.587-9.998-7.702-16.532z" transform="translate(-1246 -1334) translate(1246 1334)"/>
                <path fill="#F36435" fill-rule="nonzero" d="M94.129 128H51.87c-2.69 0-4.871-2.168-4.871-4.842V40.842C47 38.168 49.18 36 51.87 36h42.26c2.69 0 4.87 2.168 4.87 4.842v82.316c0 2.674-2.18 4.842-4.871 4.842z" transform="translate(-1246 -1334) translate(1246 1334)"/>
                <path fill="#000" fill-rule="nonzero" d="M93.316 128H52.684c-2.587 0-4.684-.26-4.684-.579v-9.842c0-.32 2.097-.579 4.684-.579h40.632c2.587 0 4.684.26 4.684.579v9.842c0 .32-2.097.579-4.684.579zM94.129 47H51.87C49.18 47 47 46.764 47 46.474v-8.948c0-.29 2.18-.526 4.87-.526h42.26c2.69 0 4.87.236 4.87.526v8.948c0 .29-2.18.526-4.871.526z" transform="translate(-1246 -1334) translate(1246 1334)"/>
                <path fill="#FB3640" fill-rule="nonzero" d="M47 48L99 48 99 117 47 117z" transform="translate(-1246 -1334) translate(1246 1334)"/>
                <path fill="#D02A33" fill-rule="nonzero" d="M52.917 58L40 58 46.805 47 57 47zM66.57 58L53 58 57.289 47 68 47z" transform="translate(-1246 -1334) translate(1246 1334)"/>
                <path fill="#D02A33" fill-rule="nonzero" d="M79 58L66 58 67.37 47 77.63 47zM93 58L79.43 58 78 47 88.711 47zM106 58L93.083 58 89 47 99.195 47zM46.5 70c-3.59 0-6.5-2.995-6.5-6.69V58h13v5.31c0 3.695-2.91 6.69-6.5 6.69zM59.5 70c-3.59 0-6.5-2.995-6.5-6.69V58h13v5.31c0 3.695-2.91 6.69-6.5 6.69zM72.5 70c-3.59 0-6.5-2.995-6.5-6.69V58h13v5.31c0 3.695-2.91 6.69-6.5 6.69zM86.5 70c-3.59 0-6.5-2.995-6.5-6.69V58h13v5.31c0 3.695-2.91 6.69-6.5 6.69zM99.5 70c-3.59 0-6.5-2.995-6.5-6.69V58h13v5.31c0 3.695-2.91 6.69-6.5 6.69z" transform="translate(-1246 -1334) translate(1246 1334)"/>
                <path fill="#D9DBE7" fill-rule="nonzero" d="M76.911 43H68.09C67.487 43 67 42.552 67 42s.487-1 1.089-1h8.822c.602 0 1.089.448 1.089 1s-.488 1-1.089 1zM69 121.103v2.794c0 .61.496 1.103 1.107 1.103h6.786c.611 0 1.107-.494 1.107-1.103v-2.794c0-.61-.496-1.103-1.107-1.103h-6.786c-.612 0-1.107.494-1.107 1.103z" transform="translate(-1246 -1334) translate(1246 1334)"/>
                <path fill="#D02A33" fill-rule="nonzero" d="M99.814 105H45.186c-1.207 0-2.186-.982-2.186-2.193V84.193c0-1.211.979-2.193 2.186-2.193h54.628c1.207 0 2.186.982 2.186 2.193v18.614c0 1.211-.979 2.193-2.186 2.193z" transform="translate(-1246 -1334) translate(1246 1334)"/>
                <path fill="#000" fill-rule="nonzero" d="M106.999 58.327c-.002-.197-.063-.406-.17-.573l-2.506-3.923-4.255-12.906c0-3.267-2.676-5.925-5.965-5.925H51.898c-3.29 0-5.965 2.658-5.965 5.925v3.404l-4.256 9.502-2.506 3.923c-.109.17-.171.383-.171.586v5.188c0 2.31 1.04 4.381 2.677 5.781v4.33c0 .48 0 .975.177 1.43.278.715.914 1.125 1.746 1.125h2.333v4.627h-.424c-1.82 0-3.301 1.471-3.301 3.28v18.551c0 1.808 1.48 3.279 3.3 3.279h.425v17.144c0 3.267 2.676 5.925 5.965 5.925h42.205c3.289 0 5.965-2.658 5.965-5.925V105.93h.424c1.82 0 3.3-1.471 3.3-3.279V84.1c0-1.808-1.48-3.279-3.3-3.279H48.134v-9.803c2.171-.414 4.02-1.74 5.127-3.56 1.345 2.215 3.791 3.7 6.58 3.7 2.788 0 5.234-1.485 6.58-3.7 1.345 2.215 3.79 3.7 6.58 3.7 2.787 0 5.233-1.485 6.579-3.7 1.346 2.215 3.791 3.7 6.58 3.7 2.788 0 5.234-1.485 6.58-3.7 1.105 1.82 2.955 3.146 5.127 3.56v3.464c0 .603.492 1.093 1.1 1.093.608 0 1.1-.49 1.1-1.093V71.12c3.886-.375 6.933-3.637 6.933-7.593V58.34l-.001-.013zm-55.101 68.487c-2.076 0-3.764-1.677-3.764-3.74v-5.469h49.733v5.47c0 2.062-1.689 3.74-3.764 3.74H51.898zm49.694-24.162c0 .603-.493 1.093-1.1 1.093H54.517c-.608 0-1.1.49-1.1 1.093 0 .604.492 1.093 1.1 1.093h43.35v9.488H48.134v-10.572-.009c0-.604-.492-1.093-1.1-1.093H45.51c-.607 0-1.1-.49-1.1-1.093V84.1c0-.602.493-1.093 1.1-1.093h54.983c.607 0 1.1.49 1.1 1.093v18.552zm-53.954-54.07h8.185l-3.321 8.665h-10.4l5.536-8.666zm10.54 0h8.38l-1.107 8.665H54.857l3.321-8.666zm10.598 0h8.448l1.108 8.665H67.669l1.107-8.666zm11.774 8.665l-1.107-8.666h8.38l3.32 8.666H80.55zm12.949 0l-3.322-8.666h8.186l5.535 8.666h-10.4zm-41.601-20.06h42.205c2.075 0 3.764 1.677 3.764 3.738v5.47H48.134v-5.47c0-2.061 1.688-3.739 3.764-3.739zm-8.016 36.821c-.004-.122-.004-.26-.004-.369v-3.01c.647.253 1.336.422 2.055.492v2.887h-2.051zm2.799-5.037c-3.022 0-5.48-2.441-5.48-5.443v-4.095h10.96v4.095c0 3.002-2.459 5.443-5.48 5.443zm13.16 0c-3.022 0-5.48-2.441-5.48-5.443v-4.095h10.96v4.095c0 3.002-2.459 5.443-5.48 5.443zm13.16 0c-3.022 0-5.48-2.441-5.48-5.443v-4.095H78.48v4.095c0 3.002-2.458 5.443-5.48 5.443zm13.16 0c-3.022 0-5.48-2.441-5.48-5.443v-4.095H91.64v4.095c0 3.002-2.458 5.443-5.48 5.443zm13.159 0c-3.021 0-5.48-2.441-5.48-5.443v-4.095h10.96v4.095c0 3.002-2.459 5.443-5.48 5.443z" transform="translate(-1246 -1334) translate(1246 1334)"/>
                <g fill="#D9DBE7" fill-rule="nonzero">
                    <path d="M5 7H2C.895 7 0 6.105 0 5V2C0 .895.895 0 2 0h3c1.105 0 2 .895 2 2v3c0 1.105-.895 2-2 2z" transform="translate(-1246 -1334) translate(1246 1334) translate(48 94)"/>
                </g>
                <path fill="#FB3640" fill-rule="nonzero" d="M113 77c-.256 0-.512-.098-.707-.293-.39-.39-.39-1.024 0-1.414l2-2c.39-.39 1.024-.39 1.414 0 .39.39.39 1.024 0 1.414l-2 2c-.195.195-.451.293-.707.293zM31 114c-.256 0-.512-.098-.707-.293-.39-.39-.39-1.024 0-1.414l2-2c.39-.39 1.024-.39 1.414 0 .39.39.39 1.024 0 1.414l-2 2c-.195.195-.451.293-.707.293zM29.833 81c-.298 0-.597-.098-.824-.293L27.5 79.414l-1.509 1.293c-.455.39-1.194.39-1.65 0-.455-.39-.455-1.024 0-1.414l2.334-2c.455-.39 1.195-.39 1.65 0l2.333 2c.456.39.456 1.024 0 1.414-.227.195-.526.293-.825.293zM109.833 39c-.298 0-.597-.098-.824-.293l-1.509-1.293-1.509 1.293c-.455.39-1.194.39-1.65 0-.455-.39-.455-1.024 0-1.414l2.334-2c.455-.39 1.195-.39 1.65 0l2.333 2c.456.39.456 1.024 0 1.414-.228.195-.526.293-.825.293zM116.833 117c-.298 0-.597-.098-.824-.293l-1.509-1.293-1.509 1.293c-.455.39-1.194.39-1.65 0-.455-.39-.455-1.024 0-1.414l2.334-2c.455-.39 1.195-.39 1.65 0l2.333 2c.456.39.456 1.024 0 1.414-.228.195-.526.293-.825.293z" transform="translate(-1246 -1334) translate(1246 1334)"/>
            </g>
        </g>
    </g>
</svg>
