<svg xmlns="http://www.w3.org/2000/svg" width="46" height="45" viewBox="0 0 46 45">
    <g fill="none" fill-rule="evenodd">
        <g fill="#2149FE">
            <path d="M796.373 6045.808H800V6047.793h-10V6045.808h6.373zm.627-5.956h13V6041.837h-20V6039.852h7zm30 2.987c0 1.088-.896 1.976-1.996 1.976h-4.575v5.158l-3.429-3.117v-10.983c0-2.185-1.791-3.962-3.996-3.962H797v-7.949c0-1.088.895-1.977 1.996-1.977h26.008c1.107 0 1.996.883 1.996 1.977v18.877zm-12 11.911c0 1.094-.889 1.977-1.996 1.977h-15.385l-1.625 1.459-.587.526-3.407 3.058v-5.044h-5.004c-1.101 0-1.996-.888-1.996-1.976V6035.873c0-.36.103-.693.272-.984.344-.591.982-.992 1.724-.992H813.004c.737 0 1.375.403 1.721.992.169.291.275.625.275.984V6054.75zm10.004-34.75h-26.008c-2.205 0-3.996 1.777-3.996 3.962v7.949h-8.004c-2.211 0-3.996 1.771-3.996 3.962v18.877c0 2.185 1.791 3.962 3.996 3.962H790v5.293c0 .861 1.027 1.314 1.671.737l6.72-6.03h14.613c.716 0 1.377-.2 1.958-.526 1.212-.68 2.038-1.955 2.038-3.436v-5.202l3.753 3.412c.378.343.889.321 1.247.073.25-.173.429-.45.429-.805v-5.428h2.575c2.205 0 3.996-1.776 3.996-3.961v-18.877c0-2.191-1.785-3.962-3.996-3.962z" transform="translate(-783 -6020)"/>
        </g>
    </g>
</svg>
