<svg xmlns="http://www.w3.org/2000/svg" width="46" height="46" viewBox="0 0 46 46">
    <g fill="none" fill-rule="evenodd">
        <g fill="#FB3640">
            <path d="M796.373 6046H800v2h-10v-2h6.373zm.627-6h13v2h-20v-2h7zm30 3.009c0 1.096-.896 1.991-1.996 1.991h-4.575v5.196l-3.429-3.14V6035.991c0-2.201-1.791-3.991-3.996-3.991H797v-8.009c0-1.096.895-1.991 1.996-1.991h26.008c1.107 0 1.996.889 1.996 1.991v19.018zm-12 12c0 1.102-.889 1.991-1.996 1.991h-15.385l-1.625 1.47-.587.53-3.407 3.081V6057h-5.004c-1.101 0-1.996-.895-1.996-1.991v-19.018c0-.363.103-.698.272-.991.344-.596.982-1 1.724-1H813.004c.737 0 1.375.406 1.721 1 .169.293.275.629.275.991v19.018zM825.004 6020h-26.008c-2.205 0-3.996 1.79-3.996 3.991V6032h-8.004c-2.211 0-3.996 1.784-3.996 3.991v19.018c0 2.201 1.791 3.991 3.996 3.991H790v5.333c0 .867 1.027 1.323 1.671.742l6.72-6.075h14.613c.716 0 1.377-.202 1.958-.53 1.212-.685 2.038-1.969 2.038-3.461v-5.241l3.753 3.437c.378.346.889.324 1.247.074.25-.174.429-.454.429-.811V6047h2.575c2.205 0 3.996-1.79 3.996-3.991v-19.018c0-2.207-1.785-3.991-3.996-3.991z" transform="translate(-783 -6020)"/>
        </g>
    </g>
</svg>
