<svg xmlns="http://www.w3.org/2000/svg" width="94" height="92" viewBox="0 0 94 92">
    <g fill="none" fill-rule="evenodd">
        <g fill-rule="nonzero">
            <g>
                <path fill="#1D3461" d="M75.667.37C65.664-1.344 43.629 2.563 39.729 19.273c-2.593 11.11-2.517 20.173-9.062 20.344-3.893.1-5.924-7.976-11.3-8.64-7.016-.868-11.885 4.984-14.924 10.284-6.686 11.66-4.595 31.486 4.196 41.154C29.93 105.831 55.214 81.344 66.024 62.2c6.933-12.279 22.575-22.204 25.833-36.045C94.584 14.567 88.532 2.574 75.667.37z" transform="translate(-1279 -5480) translate(1279.47 5480)"/>
                <g>
                    <g>
                        <g>
                            <g>
                                <path fill="#FFF" d="M74.508 62.356H2.792c-1.49 0-2.697-1.213-2.697-2.71V2.866c0-1.496 1.208-2.71 2.697-2.71h71.716c1.49 0 2.697 1.214 2.697 2.71v56.78c0 1.497-1.208 2.71-2.697 2.71z" transform="translate(-1279 -5480) translate(1279.47 5480) translate(6.5 3) translate(0 10.66) translate(.899 .903)"/>
                                <path fill="#1D3461" d="M68.436 43.688H8.864c-.993 0-1.798-.81-1.798-1.807v-19.72c0-.998.805-1.807 1.798-1.807h59.572c.993 0 1.798.81 1.798 1.807v19.72c0 .998-.805 1.807-1.798 1.807z" transform="translate(-1279 -5480) translate(1279.47 5480) translate(6.5 3) translate(0 10.66) translate(.899 .903)"/>
                                <path fill="#FB3640" d="M77.205 12.68V2.867c0-1.497-1.208-2.71-2.697-2.71H2.792C1.302.157.095 1.37.095 2.867v9.813h77.11z" transform="translate(-1279 -5480) translate(1279.47 5480) translate(6.5 3) translate(0 10.66) translate(.899 .903)"/>
                            </g>
                            <g>
                                <g fill="#FFF" transform="translate(-1279 -5480) translate(1279.47 5480) translate(6.5 3) translate(0 10.66) translate(.899 .903) translate(5.932 4.517) translate(0 .18)">
                                    <ellipse cx="2.089" cy="2.126" rx="1.96" ry="1.97"/>
                                    <ellipse cx="8.346" cy="2.126" rx="1.96" ry="1.97"/>
                                    <ellipse cx="14.601" cy="2.126" rx="1.96" ry="1.97"/>
                                </g>
                                <path fill="#FFF" d="M19.645 2.307c0-1.222.99-2.213 2.212-2.213h41.831c.893 0 1.617.404 1.617.903v2.62c0 .498-.724.903-1.617.903h-41.83c-1.223 0-2.213-.991-2.213-2.213z" transform="translate(-1279 -5480) translate(1279.47 5480) translate(6.5 3) translate(0 10.66) translate(.899 .903) translate(5.932 4.517)"/>
                                <path fill="#ACABAB" d="M22.39 1.829c-.27-.27-.707-.27-.976 0s-.269.71 0 .98c.206.207.51.255.761.146l.221.222c.1.1.26.1.36 0 .1-.1.1-.261 0-.361l-.221-.223c.108-.253.06-.558-.145-.764zm-.586.392c.07-.07.185-.07.255 0s.07.185 0 .256c-.07.07-.184.07-.255 0-.07-.07-.07-.186 0-.256z" transform="translate(-1279 -5480) translate(1279.47 5480) translate(6.5 3) translate(0 10.66) translate(.899 .903) translate(5.932 4.517)"/>
                            </g>
                        </g>
                        <g>
                            <path fill="#FFF" d="M49.578 39.22H1.835c-.992 0-1.797-.808-1.797-1.806V1.981C.038.983.843.174 1.835.174h47.743c.993 0 1.798.809 1.798 1.807v35.433c0 .998-.805 1.807-1.798 1.807z" transform="translate(-1279 -5480) translate(1279.47 5480) translate(6.5 3) translate(0 10.66) translate(13.842 30.172)"/>
                            <path fill="#FB3640" d="M51.376 7.493H.038V1.981C.038.983.843.174 1.835.174h47.743c.993 0 1.798.809 1.798 1.807v5.512z" transform="translate(-1279 -5480) translate(1279.47 5480) translate(6.5 3) translate(0 10.66) translate(13.842 30.172)"/>
                        </g>
                        <path fill="#000" d="M75.407.157H3.69C1.708.157.095 1.777.095 3.77v56.78c0 1.992 1.613 3.613 3.595 3.613h9.291v3.423c0 1.495 1.21 2.71 2.696 2.71H63.42c1.487 0 2.697-1.215 2.697-2.71v-3.423h9.29c1.983 0 3.595-1.621 3.595-3.614V3.77c0-1.992-1.612-3.613-3.595-3.613zM64.32 67.587c0 .497-.403.903-.899.903H15.677c-.495 0-.898-.406-.898-.904V32.153c0-.498.403-.904.898-.904H63.42c.496 0 .899.406.899.904v35.433zm12.886-7.038c0 .996-.807 1.807-1.798 1.807h-9.29V32.153c0-1.495-1.21-2.71-2.697-2.71H15.677c-1.486 0-2.696 1.215-2.696 2.71v30.203h-9.29c-.992 0-1.798-.81-1.798-1.807V3.77c0-.996.806-1.807 1.797-1.807h71.717c.991 0 1.798.81 1.798 1.807v56.78z" transform="translate(-1279 -5480) translate(1279.47 5480) translate(6.5 3) translate(0 10.66)"/>
                        <g fill="#D9DBE7">
                            <path d="M10.912 7.49H1.954C.962 7.49.157 6.68.157 5.683V1.837C.157.84.962.031 1.954.031h8.958c.993 0 1.797.808 1.797 1.806v3.846c0 .998-.805 1.807-1.797 1.807zM30.044 7.49h-8.957c-.993 0-1.798-.81-1.798-1.807V1.837c0-.998.805-1.806 1.798-1.806h8.957c.993 0 1.798.808 1.798 1.806v3.846c0 .998-.805 1.807-1.798 1.807z" transform="translate(-1279 -5480) translate(1279.47 5480) translate(6.5 3) translate(0 10.66) translate(23.55 50.046)"/>
                        </g>
                        <path fill="#FB3640" d="M56.62 55.027l-4.756-.428c-.433-.039-.796.326-.757.761l.426 4.78c.052.593.77.854 1.188.434l.97-.976 3.193 3.208c.273.274.715.274.987 0l1.401-1.408c.273-.274.273-.718 0-.992l-3.192-3.208.97-.976c.42-.421.16-1.142-.43-1.195z" transform="translate(-1279 -5480) translate(1279.47 5480) translate(6.5 3) translate(0 10.66)"/>
                        <g fill="#FB3640">
                            <path d="M4.773 1.953h-2.1c-.496 0-.899-.405-.899-.904s.403-.903.9-.903h2.099c.496 0 .899.404.899.903s-.402.904-.899.904zM4.773 4.75H1.055c-.496 0-.899-.404-.899-.903s.403-.903.9-.903h3.717c.496 0 .899.404.899.903s-.402.903-.899.903z" transform="translate(-1279 -5480) translate(1279.47 5480) translate(6.5 3) translate(0 10.66) translate(49.796 43.542)"/>
                        </g>
                        <g fill="#FB3640">
                            <path d="M4.62 1.953h-2.1c-.496 0-.899-.405-.899-.904s.403-.903.899-.903h2.1c.496 0 .899.404.899.903s-.403.904-.9.904zM4.62 4.75H.902c-.496 0-.899-.404-.899-.903s.403-.903.9-.903H4.62c.496 0 .899.404.899.903s-.403.903-.9.903z" transform="translate(-1279 -5480) translate(1279.47 5480) translate(6.5 3) translate(0 10.66) translate(30.74 43.542)"/>
                        </g>
                    </g>
                    <path fill="#FB3640" d="M9.197 7.565c-1.416 0-2.569-1.159-2.569-2.582 0-1.424 1.153-2.582 2.57-2.582 1.416 0 2.569 1.158 2.569 2.582 0 1.423-1.153 2.582-2.57 2.582zm0-3.358c-.425 0-.771.348-.771.776 0 .427.346.775.771.775.426 0 .772-.348.772-.775 0-.428-.346-.776-.772-.776zM17.383 5.939c-.496 0-.899-.405-.899-.904 0-.598-.483-1.084-1.078-1.084-.497 0-.9-.404-.9-.903 0-.5.403-.903.9-.903.595 0 1.078-.487 1.078-1.084 0-.5.403-.904.9-.904.496 0 .898.405.898.904 0 .597.484 1.084 1.079 1.084.496 0 .898.404.898.903s-.402.903-.898.903c-.595 0-1.079.486-1.079 1.084 0 .5-.402.904-.899.904zM70.593 85.843c-.496 0-.899-.405-.899-.904 0-.597-.483-1.084-1.078-1.084-.497 0-.899-.404-.899-.903s.402-.903.899-.903c.595 0 1.078-.486 1.078-1.084 0-.5.403-.904.9-.904.496 0 .898.405.898.904 0 .598.484 1.084 1.079 1.084.496 0 .899.404.899.903 0 .5-.403.903-.9.903-.594 0-1.078.487-1.078 1.084 0 .5-.402.904-.899.904z" transform="translate(-1279 -5480) translate(1279.47 5480) translate(6.5 3)"/>
                    <g fill="#FB3640">
                        <path d="M2.926 5.886c-.496 0-.899-.404-.899-.903 0-.598-.484-1.084-1.078-1.084-.497 0-.9-.405-.9-.904s.403-.903.9-.903c.594 0 1.078-.486 1.078-1.084 0-.499.403-.903.9-.903.496 0 .898.404.898.903 0 .598.484 1.084 1.079 1.084.496 0 .898.404.898.903 0 .5-.402.904-.898.904-.595 0-1.08.486-1.08 1.084 0 .499-.401.903-.898.903zM24.533 81.379c-.497 0-.899-.405-.899-.904 0-.598-.484-1.084-1.078-1.084-.497 0-.9-.404-.9-.903 0-.5.403-.904.9-.904.594 0 1.078-.486 1.078-1.084 0-.499.402-.903.899-.903s.899.404.899.903c0 .598.484 1.084 1.078 1.084.497 0 .9.405.9.904s-.403.903-.9.903c-.594 0-1.078.486-1.078 1.084 0 .5-.403.904-.899.904z" transform="translate(-1279 -5480) translate(1279.47 5480) translate(6.5 3) translate(53.031 .361)"/>
                    </g>
                </g>
            </g>
        </g>
    </g>
</svg>
