<svg xmlns="http://www.w3.org/2000/svg" width="142" height="162" viewBox="0 0 142 162">
    <g fill="none" fill-rule="evenodd">
        <g>
            <g>
                <path fill="#FB3640" d="M.575 0h82.771v155.186c0 3.314-2.686 6-6 6H6.575c-3.314 0-6-2.686-6-6V0z" opacity=".1" transform="translate(-328 -1334) translate(328 1334)"/>
                <path fill="#1D3461" fill-rule="nonzero" d="M139.39 59.602c-5.765-14.777-23.52-23.638-38.558-17.774-17.166 6.694-11.474 34.203-27.066 39.765-8.423 3.005-20.873-8.22-29.383-9.94-15.68-3.172-29.875 7.975-33.37 23.412-3.567 15.75 2.153 36.784 19.327 41.059 20.457 5.091 31.113-13.437 48.275-18.757 17.61-5.46 37.193 7.434 51.772-8.254 10.771-11.59 14.71-34.878 9.002-49.51z" transform="translate(-328 -1334) translate(328 1334)"/>
                <g fill-rule="nonzero">
                    <g>
                        <path fill="#FB3640" d="M31.907 33.352H1.457c-.709 0-1.284-.58-1.284-1.296V1.348C.173.632.748.052 1.458.052h30.45c.709 0 1.284.58 1.284 1.296v30.709c0 .715-.575 1.295-1.285 1.295z" transform="translate(-328 -1334) translate(328 1334) translate(21 32) translate(0 .777) translate(1.284 1.295)"/>
                        <g>
                            <g>
                                <path fill="#FFF" d="M6.953 26.5H5.637c-2.277 0-4.122-1.86-4.122-4.156 0-2.297 1.846-4.158 4.122-4.158h1.316v8.315z" transform="translate(-328 -1334) translate(328 1334) translate(21 32) translate(0 .777) translate(12.33 27.202) translate(0 8.55)"/>
                                <path fill="#FB3640" d="M45.663 47.489s13.503-14.05 10.511-32.665c-.25-1.56-1.595-2.703-3.162-2.703H13.073c-3.38 0-6.12 2.763-6.12 6.173v29.195h38.71z" transform="translate(-328 -1334) translate(328 1334) translate(21 32) translate(0 .777) translate(12.33 27.202) translate(0 8.55)"/>
                                <g transform="translate(-328 -1334) translate(328 1334) translate(21 32) translate(0 .777) translate(12.33 27.202) translate(0 8.55) translate(71.413 36.528)">
                                    <ellipse cx="11.602" cy="11.701" fill="#2C3641" rx="11.506" ry="11.604"/>
                                    <ellipse cx="11.602" cy="11.701" fill="#D9DBE7" rx="6.631" ry="6.687"/>
                                </g>
                                <g transform="translate(-328 -1334) translate(328 1334) translate(21 32) translate(0 .777) translate(12.33 27.202) translate(0 8.55) translate(9.761 36.528)">
                                    <ellipse cx="11.623" cy="11.701" fill="#2C3641" rx="11.506" ry="11.604"/>
                                    <ellipse cx="11.623" cy="11.701" fill="#D9DBE7" rx="6.631" ry="6.687"/>
                                </g>
                                <path fill="#FB3640" d="M55.542 47.488C53.844 32.63 42.605 21.15 28.994 21.15c-13.612 0-24.85 11.48-26.548 26.338h53.096z" transform="translate(-328 -1334) translate(328 1334) translate(21 32) translate(0 .777) translate(12.33 27.202) translate(0 8.55)"/>
                                <path fill="#FFF" d="M74.746 13.929L71.51 37.662h13.506c0-4.407-.34-8.942-.854-13.284-.202-1.706-1.035-3.271-2.334-4.384l-7.08-6.065z" transform="translate(-328 -1334) translate(328 1334) translate(21 32) translate(0 .777) translate(12.33 27.202) translate(0 8.55)"/>
                                <path fill="#FB3640" d="M96.924 44.985c.92 0 1.546-.948 1.184-1.8-2.494-5.895-7.816-9.967-13.983-9.967-6.778 0-12.535 4.919-14.64 11.767h27.44z" transform="translate(-328 -1334) translate(328 1334) translate(21 32) translate(0 .777) translate(12.33 27.202) translate(0 8.55)"/>
                                <path fill="#FB3640" d="M80.498.21c-6.225 0-11.454 4.72-12.141 10.959-.904 8.213-1.82 18.026-1.82 18.026-.937 8.952-8.374 15.703-17.3 15.703H2.711c-1.368 0-2.563 1.04-2.65 2.418-.098 1.509 1.087 2.763 2.562 2.763H55.66c11.562 0 21.196-8.745 22.409-20.341L80.498.21z" transform="translate(-328 -1334) translate(328 1334) translate(21 32) translate(0 .777) translate(12.33 27.202) translate(0 8.55)"/>
                                <path fill="#FB3640" d="M39.877 7.198H2.801c-1.419 0-2.569-1.16-2.569-2.59 0-2.452 1.97-4.439 4.4-4.439H41.71c1.419 0 2.569 1.16 2.569 2.591 0 2.451-1.97 4.438-4.4 4.438z" transform="translate(-328 -1334) translate(328 1334) translate(21 32) translate(0 .777) translate(12.33 27.202) translate(0 8.55) translate(8.734 4.922)"/>
                            </g>
                            <g transform="translate(-328 -1334) translate(328 1334) translate(21 32) translate(0 .777) translate(12.33 27.202) translate(65.248)">
                                <g>
                                    <path fill="#FB3640" d="M14.966 13.176h-8.32c-3.567 0-6.458-2.917-6.458-6.514C.188 3.064 3.079.148 6.647.148h8.319c1.419 0 2.569 1.16 2.569 2.59v7.847c0 1.431-1.15 2.59-2.57 2.59z"/>
                                    <path fill="#FFF" d="M14.966.148h-1.651v13.028h1.65c1.42 0 2.57-1.16 2.57-2.59V2.737c0-1.43-1.15-2.59-2.57-2.59z"/>
                                </g>
                                <ellipse cx="4.739" cy="11.181" fill="#FFF" rx="3.186" ry="3.213"/>
                            </g>
                        </g>
                        <path fill="#000" d="M111.62 78.427c-2.474-5.847-7.504-9.84-13.157-10.614-.141-2.49-.375-5.12-.697-7.837-.241-2.037-1.228-3.89-2.777-5.218l-2.26-1.935.932-11.318c1.581-.483 2.736-1.967 2.736-3.718V29.94c0-2.142-1.728-3.886-3.853-3.886h-4.852l.326-6.837c.027-.555-.3-1.065-.813-1.268l-7.495-2.964.706-2.26c.213-.683-.163-1.41-.84-1.626-.676-.214-1.397.165-1.61.847l-2.11 6.76c-.214.683.162 1.41.839 1.625.128.04.258.06.386.06.546 0 1.052-.354 1.225-.907l.631-2.023 6.471 2.56-.288 6.033h-.896c-4.27 0-7.743 3.503-7.743 7.81 0 1.595.475 3.122 1.37 4.428-.001.03-.005.06-.005.09 0 1.868 1.132 3.473 2.74 4.157-.617 1.334-1.013 2.754-1.176 4.238-.895 8.13-1.814 17.949-1.821 18.032-.621 5.941-4.335 10.835-9.43 13.132-3.576-13.205-14.47-22.336-26.835-22.336-6.374 0-12.612 2.467-17.567 6.947-1.145 1.035-2.209 2.171-3.19 3.388V54.044c0-2.69 2.17-4.877 4.836-4.877H65.341c.948 0 1.745.68 1.895 1.615.783 4.87.457 9.876-.97 14.88-.196.687.198 1.405.88 1.603.682.198 1.393-.2 1.59-.887 1.531-5.374 1.88-10.76 1.036-16.01-.334-2.083-2.027-3.622-4.09-3.777.596-.906.944-1.992.944-3.158 0-2.143-1.728-3.886-3.853-3.886H34.598c-.71 0-1.285.58-1.285 1.295 0 .716.575 1.296 1.285 1.296h28.175c.708 0 1.285.58 1.285 1.295 0 1.733-1.398 3.143-3.117 3.143H28.368V35.942h4.824c1.416 0 2.569-1.162 2.569-2.59V2.641c0-1.428-1.153-2.59-2.57-2.59H2.742C1.327.052.174 1.214.174 2.642v30.71c0 1.428 1.153 2.59 2.569 2.59h6.503v9.34c0 2.142 1.729 3.885 3.854 3.885h6.704c-.834.973-1.423 2.163-1.672 3.475h-.164c-2.981 0-5.407 2.446-5.407 5.453s2.426 5.452 5.407 5.452h.032v6.056c0 .012.003.023.003.035-1.78 2.995-3.106 6.323-3.887 9.829-1.64.391-2.896 1.794-3.007 3.516-.069 1.07.308 2.133 1.034 2.914.726.78 1.75 1.228 2.811 1.228h6.36c1.41 5.707 6.48 9.755 12.401 9.755 5.922 0 10.991-4.048 12.401-9.755H67.99c5.523 0 10.627-1.892 14.684-5.093h.034c-.098.647-.153 1.298-.153 1.948 0 7.113 5.738 12.9 12.79 12.9 7.053 0 12.791-5.787 12.791-12.9 0-.65-.054-1.301-.153-1.948h1.272c.866 0 1.668-.436 2.146-1.165.477-.727.559-1.64.22-2.44zm-86.216-31.85h-1.539c-.708 0-1.284-.582-1.284-1.296 0-1.733 1.398-3.143 3.116-3.143h.102v4.438h-.395zM2.742 2.642h30.45l.001 30.709H2.742V2.642zm9.072 42.638v-9.339H25.8v3.605h-.102c-3.135 0-5.685 2.573-5.685 5.734 0 .455.082.89.225 1.295h-7.138c-.709 0-1.285-.58-1.285-1.295zm6.153 15.676c-1.564 0-2.837-1.284-2.837-2.862s1.273-2.862 2.837-2.862H18v5.724h-.032zm75.359-4.224c1.054.903 1.725 2.164 1.89 3.55.303 2.564.527 5.048.667 7.403-1.608.061-3.2.383-4.718.947.228-.98.403-1.982.51-3.008l.003-.028.79-9.599.858.735zm-9.101-28.088h.771l-.089 1.873c-.034.715.513 1.322 1.221 1.356l.063.002c.68 0 1.249-.54 1.282-1.234l.095-1.997h4.976c.708 0 1.284.581 1.284 1.295v7.847c0 .714-.576 1.295-1.284 1.295h-5.816c.035-.228.059-.46.059-.7 0-2.485-2.006-4.508-4.47-4.508-1.208 0-2.303.487-3.108 1.274-.104-.416-.16-.846-.16-1.284 0-2.877 2.322-5.219 5.176-5.219zm-1.908 7.82c1.048 0 1.901.86 1.901 1.918 0 1.057-.853 1.917-1.901 1.917-1.049 0-1.902-.86-1.902-1.917 0-1.058.853-1.918 1.902-1.918zM25.473 64.482c4.547-4.112 10.029-6.285 15.851-6.285 11.256 0 21.184 8.433 24.404 20.608-1.33.356-2.724.549-4.16.549h-44.79c1.435-5.827 4.496-11.077 8.695-14.872zm8.241 29.807c-4.511 0-8.405-2.939-9.735-7.163h19.47c-1.33 4.224-5.223 7.163-9.735 7.163zm-18.76-9.754c-.36 0-.692-.146-.938-.41-.245-.264-.367-.61-.344-.974.043-.666.657-1.207 1.37-1.207h46.525c9.585 0 17.572-7.249 18.578-16.877.01-.098.926-9.895 1.819-18.004.168-1.532.643-2.978 1.407-4.304.758-.185 1.44-.565 1.992-1.086h5.706l-1.95 23.695c-1.15 10.928-10.231 19.167-21.13 19.167H14.953zm90.613-.554c0 5.684-4.586 10.308-10.222 10.308-5.636 0-10.222-4.624-10.222-10.308 0-.65.066-1.304.189-1.949h20.066c.123.645.189 1.299.189 1.949zm-20.094-4.54c1.978-2.153 3.568-4.681 4.662-7.479 1.97-1.122 4.094-1.697 6.32-1.697 5.417 0 10.442 3.603 12.8 9.176H85.472z" transform="translate(-328 -1334) translate(328 1334) translate(21 32) translate(0 .777)"/>
                    </g>
                    <path fill="#FB3640" d="M48.679 34.013c-.329 0-.657-.126-.908-.38l-1.532-1.544-1.533 1.545c-.501.506-1.314.506-1.816 0s-.502-1.326 0-1.832l2.44-2.461c.502-.506 1.315-.506 1.817 0l2.44 2.461c.502.506.502 1.326 0 1.832-.25.253-.58.379-.908.379zM81.631 5.06c-.328 0-.657-.126-.908-.379l-1.532-1.545-1.532 1.545c-.502.506-1.315.506-1.817 0-.501-.505-.501-1.326 0-1.831l2.44-2.461c.502-.506 1.316-.506 1.817 0l2.44 2.46c.502.506.502 1.327 0 1.832-.25.253-.579.38-.908.38zM6.338 79.585c-.329 0-.657-.126-.908-.38l-1.532-1.544-1.532 1.545c-.502.506-1.315.506-1.817 0-.501-.506-.501-1.326 0-1.832l2.44-2.461c.503-.506 1.316-.506 1.817 0l2.44 2.461c.502.506.502 1.326 0 1.832-.25.253-.579.38-.908.38zM79.19 99.83c-.953 0-1.907-.366-2.633-1.098-1.452-1.465-1.452-3.848 0-5.312 1.452-1.465 3.815-1.465 5.267 0 1.453 1.464 1.453 3.847 0 5.312-.725.732-1.68 1.098-2.633 1.098zm0-4.92c-.295 0-.591.114-.817.341-.45.455-.45 1.194 0 1.649.451.454 1.184.454 1.635 0 .45-.455.45-1.194 0-1.649-.225-.227-.521-.34-.817-.34zM98.62 23.04c-.954 0-1.908-.365-2.634-1.098-1.453-1.464-1.453-3.847 0-5.312 1.451-1.464 3.815-1.465 5.267 0 1.452 1.465 1.452 3.848 0 5.312-.726.733-1.68 1.099-2.633 1.099zm0-4.919c-.296 0-.593.113-.818.34-.45.455-.45 1.195 0 1.65.45.454 1.183.454 1.635 0 .45-.455.45-1.195 0-1.65-.226-.227-.522-.34-.817-.34z" transform="translate(-328 -1334) translate(328 1334) translate(21 32)"/>
                </g>
            </g>
        </g>
    </g>
</svg>
