<svg xmlns="http://www.w3.org/2000/svg" xmlns:xlink="http://www.w3.org/1999/xlink" width="212" height="69" viewBox="0 0 212 69">
    <defs>
        <linearGradient id="je097p37bb" x1="50%" x2="50%" y1="0%" y2="100%">
            <stop offset="0%" stop-color="#257CB0"/>
            <stop offset="28.6%" stop-color="#4A93B5"/>
            <stop offset="76.7%" stop-color="#78BCBB"/>
            <stop offset="100%" stop-color="#89CFBD"/>
        </linearGradient>
        <linearGradient id="0qx6o8v6xe" x1=".001%" x2="100.001%" y1="49.999%" y2="49.999%">
            <stop offset="0%" stop-color="#52C1AD"/>
            <stop offset="100%" stop-color="#DEE89A"/>
        </linearGradient>
        <linearGradient id="bpi7ahvuuh" x1="50%" x2="50%" y1="0%" y2="100%">
            <stop offset="0%" stop-color="#EC413D"/>
            <stop offset="16.7%" stop-color="#DA4452"/>
            <stop offset="57.5%" stop-color="#B0487A"/>
            <stop offset="86.2%" stop-color="#954A92"/>
            <stop offset="100%" stop-color="#8A4A9D"/>
        </linearGradient>
        <linearGradient id="xez4jo8qwk" x1="50.001%" x2="50.001%" y1=".001%" y2="99.997%">
            <stop offset="0%" stop-color="#F58879"/>
            <stop offset="11.9%" stop-color="#F69079"/>
            <stop offset="71.3%" stop-color="#FCB877"/>
            <stop offset="100%" stop-color="#FEC874"/>
        </linearGradient>
        <path id="96r6sk6vca" d="M30.025 16.197l-9.551-5.43L2.05.29C1.027-.29.008.061.008 1.277v42.682c0 .911.728 1.304 1.617.799L20.474 34.04l9.551-5.43 9.181-5.22c1.078-.613.974-1.453.065-1.935-.909-.483-9.246-5.258-9.246-5.258z"/>
        <path id="74viat9oid" d="M30.025 16.197l-9.551-5.43L2.05.29C1.027-.29.008.061.008 1.277v42.682c0 .911.728 1.304 1.617.799L20.474 34.04l9.551-5.43 9.181-5.22c1.078-.613.974-1.453.065-1.935-.909-.483-9.246-5.258-9.246-5.258z"/>
        <path id="tp82mallng" d="M30.025 16.197l-9.551-5.43L2.05.29C1.027-.29.008.061.008 1.277v42.682c0 .911.728 1.304 1.617.799L20.474 34.04l9.551-5.43 9.181-5.22c1.078-.613.974-1.453.065-1.935-.909-.483-9.246-5.258-9.246-5.258z"/>
        <path id="ho9t32sczj" d="M30.025 16.197l-9.551-5.43L2.05.29C1.027-.29.008.061.008 1.277v42.682c0 .911.728 1.304 1.617.799L20.474 34.04l9.551-5.43 9.181-5.22c1.078-.613.974-1.453.065-1.935-.909-.483-9.246-5.258-9.246-5.258z"/>
    </defs>
    <g fill="none" fill-rule="evenodd">
        <g>
            <g>
                <path fill="#000" fill-rule="nonzero" d="M211.423 59.675c0 5.149-4.175 9.325-9.325 9.325H9.751C4.6 69 .423 64.824.423 59.675V9.325C.423 4.174 4.6 0 9.751 0h192.347c5.15 0 9.325 4.176 9.325 9.324v50.35z" transform="translate(-580 -11271) translate(580 11271)"/>
                <g transform="translate(-580 -11271) translate(580 11271) translate(15.423 14)">
                    <mask id="obbackcquc" fill="#fff">
                        <use xlink:href="#96r6sk6vca"/>
                    </mask>
                    <path fill="url(#je097p37bb)" fill-rule="nonzero" d="M0.008 -0.702L0.008 45.509 23.67 22.404z" mask="url(#obbackcquc)"/>
                </g>
                <g transform="translate(-580 -11271) translate(580 11271) translate(15.423 14)">
                    <mask id="blvyimtd8f" fill="#fff">
                        <use xlink:href="#74viat9oid"/>
                    </mask>
                    <path fill="url(#0qx6o8v6xe)" fill-rule="nonzero" d="M30.025 16.197L20.474 10.767 0.008 -0.87 0.008 -0.702 23.67 22.404z" mask="url(#blvyimtd8f)"/>
                </g>
                <g transform="translate(-580 -11271) translate(580 11271) translate(15.423 14)">
                    <mask id="1v2bxvcpwi" fill="#fff">
                        <use xlink:href="#tp82mallng"/>
                    </mask>
                    <path fill="url(#bpi7ahvuuh)" fill-rule="nonzero" d="M0.008 45.509L0.008 45.677 20.474 34.04 30.025 28.609 23.67 22.404z" mask="url(#1v2bxvcpwi)"/>
                </g>
                <g transform="translate(-580 -11271) translate(580 11271) translate(15.423 14)">
                    <mask id="cjywm40cdl" fill="#fff">
                        <use xlink:href="#ho9t32sczj"/>
                    </mask>
                    <path fill="url(#xez4jo8qwk)" fill-rule="nonzero" d="M30.025 16.197L23.67 22.404 30.025 28.609 40.941 22.403z" mask="url(#cjywm40cdl)"/>
                </g>
                <path fill="#F9F9F9" fill-rule="nonzero" d="M163.678 46.077c-.886 0-1.695-.16-2.427-.482-.732-.32-1.347-.814-1.843-1.48h-.149c.1.78.149 1.52.149 2.218v5.496h-2.06V32.475h1.676l.285 1.829h.099c.53-.732 1.146-1.26 1.85-1.585.703-.325 1.51-.487 2.42-.487 1.803 0 3.196.605 4.176 1.816.98 1.21 1.47 2.909 1.47 5.094 0 2.194-.498 3.898-1.494 5.113-.997 1.215-2.381 1.822-4.152 1.822zm-.299-12.127c-1.39 0-2.395.378-3.015 1.134-.62.755-.94 1.958-.956 3.608v.45c0 1.877.318 3.22.956 4.028.637.81 1.66 1.213 3.065 1.213 1.176 0 2.096-.467 2.763-1.401.665-.934.998-2.222.998-3.864 0-1.665-.333-2.944-.998-3.833-.666-.89-1.604-1.335-2.813-1.335zm10.716 11.883h-2.06V26.869h2.06v18.964zm11.846 0l-.41-1.902h-.1c-.678.838-1.354 1.405-2.029 1.7-.674.298-1.516.446-2.525.446-1.349 0-2.406-.342-3.171-1.024-.766-.682-1.148-1.653-1.148-2.913 0-2.697 2.197-4.11 6.59-4.241l2.31-.073v-.829c0-1.048-.23-1.823-.69-2.322-.459-.5-1.194-.75-2.203-.75-1.134 0-2.417.342-3.848 1.024l-.633-1.548c.671-.357 1.405-.637 2.204-.84.798-.204 1.598-.305 2.401-.305 1.622 0 2.824.353 3.606 1.06.782.707 1.173 1.84 1.173 3.4v9.116h-1.527zm-4.654-1.426c1.281 0 2.289-.345 3.021-1.035.732-.69 1.1-1.658 1.1-2.902v-1.206l-2.062.085c-1.638.058-2.819.306-3.544.75-.723.443-1.085 1.132-1.085 2.066 0 .731.225 1.288.676 1.669.452.382 1.082.573 1.894.573zm7.376-11.932h2.21l2.978 7.618c.654 1.739 1.06 2.994 1.217 3.766h.1c.107-.415.333-1.123.675-2.128.344-1.003 1.468-4.088 3.37-9.256h2.21l-5.846 15.21c-.579 1.504-1.256 2.57-2.03 3.2-.773.63-1.723.944-2.847.944-.63 0-1.25-.069-1.863-.206v-1.621c.455.097.964.146 1.527.146 1.415 0 2.424-.78 3.028-2.34l.757-1.9-5.486-13.433zm-63.152 1.242c.654.531 2.02 1.648 2.02 3.772 0 2.066-1.195 3.046-2.39 3.967-.37.362-.797.755-.797 1.37 0 .614.426.95.74 1.201l1.025.78c1.252 1.035 2.389 1.985 2.389 3.914 0 2.626-2.59 5.279-7.482 5.279-4.127 0-6.117-1.927-6.117-3.996 0-1.005.51-2.43 2.19-3.408 1.764-1.062 4.155-1.2 5.435-1.286-.4-.502-.854-1.033-.854-1.898 0-.474.143-.754.285-1.09-.315.028-.627.056-.912.056-3.015 0-4.722-2.208-4.722-4.386 0-1.285.598-2.71 1.82-3.743 1.623-1.313 3.557-1.538 5.095-1.538h5.86l-1.821 1.006h-1.764zm-2.02 12.405c-.228-.03-.37-.03-.654-.03-.256 0-1.794.058-2.988.45-.626.222-2.447.892-2.447 2.877 0 1.983 1.964 3.41 5.009 3.41 2.73 0 4.182-1.288 4.182-3.019 0-1.428-.94-2.179-3.102-3.688zm.825-5.31c.654-.643.71-1.536.71-2.04 0-2.01-1.223-5.14-3.584-5.14-.74 0-1.536.364-1.992.923-.483.587-.626 1.34-.626 2.067 0 1.872 1.11 4.974 3.557 4.974.712 0 1.478-.336 1.935-.783zM107.6 45.676c-4.516 0-6.93-3.46-6.93-6.584 0-3.654 3.038-6.777 7.358-6.777 4.173 0 6.787 3.207 6.787 6.583 0 3.29-2.583 6.778-7.215 6.778zm3.55-2.26c.683-.893.854-2.008.854-3.097 0-2.455-1.193-7.14-4.716-7.14-.937 0-1.874.363-2.556.95-1.108.975-1.308 2.203-1.308 3.403 0 2.76 1.392 7.305 4.83 7.305 1.108 0 2.245-.529 2.896-1.42zm-18.947 2.26c-4.516 0-6.931-3.46-6.931-6.584 0-3.654 3.04-6.777 7.358-6.777 4.175 0 6.788 3.207 6.788 6.583 0 3.29-2.584 6.778-7.215 6.778zm3.552-2.26c.681-.893.852-2.008.852-3.097 0-2.455-1.194-7.14-4.717-7.14-.936 0-1.874.363-2.555.95-1.108.975-1.307 2.203-1.307 3.403 0 2.76 1.391 7.305 4.83 7.305 1.108 0 2.244-.529 2.897-1.42zM83.1 45.238l-4.085.926c-1.657.253-3.142.475-4.712.475-7.883 0-10.88-5.693-10.88-10.152 0-5.44 4.254-10.486 11.538-10.486 1.542 0 3.026.224 4.368.589 2.142.589 3.142 1.317 3.77 1.738l-2.371 2.216-1 .223.715-1.122c-.97-.925-2.743-2.635-6.112-2.635-4.513 0-7.912 3.367-7.912 8.274 0 5.27 3.885 10.234 10.11 10.234 1.83 0 2.77-.364 3.627-.701v-4.514l-4.311.224 2.283-1.207h6.055l-.742.7c-.2.17-.229.227-.286.449-.03.253-.056 1.067-.056 1.347v3.422zM135.442 44.67c-.935-.087-1.131-.26-1.131-1.39V26.895l.015-.187c.114-1.013.397-1.186 1.277-1.708h-4.054l-2.126 1.042h2.167v.013l-.002-.01v17.872c0 .578-.112.666-.764 1.534h5.016l1.049-.636c-.482-.06-.964-.088-1.447-.145zm11.53.266c-.307.173-.617.375-.926.517-.93.432-1.886.547-2.732.547-.898 0-2.307-.06-3.743-1.122-1.997-1.439-2.87-3.91-2.87-6.066 0-4.456 3.546-6.64 6.445-6.64 1.013 0 2.056.257 2.9.805 1.406.947 1.772 2.183 1.967 2.845l-6.611 2.732-2.168.172c.703 3.651 3.123 5.777 5.797 5.777 1.435 0 2.477-.516 3.433-1.004l-1.491 1.437zm-2.644-8.569c.534-.2.816-.373.816-.776 0-1.149-1.266-2.472-2.787-2.472-1.127 0-3.236.892-3.236 3.996 0 .489.057 1.006.086 1.525l5.121-2.273zm5.361-3.999v1.897h-.226v-1.897h-.614v-.197h1.454v.197h-.614zm2.532 1.897V32.35h-.01l-.572 1.915h-.177l-.577-1.915h-.007v1.915h-.205V32.17h.351l.522 1.693h.007l.514-1.693h.356v2.094h-.202z" transform="translate(-580 -11271) translate(580 11271)"/>
                <path fill="#F9F9FA" fill-rule="nonzero" d="M69.069 19.842h-1.425c0-.193-.135-.74-.405-1.64h-2.057c-.28.885-.419 1.432-.419 1.64h-1.34c0-.114.347-1.05 1.04-2.807.693-1.757 1.04-2.726 1.04-2.903h1.682c0 .166.314 1.12.942 2.861.628 1.742.942 2.691.942 2.849zm-2.057-2.478c-.508-1.51-.761-2.325-.761-2.448h-.072c0 .114-.262.93-.787 2.448h1.62zm7.798 2.478h-1.1c0-.12-.408-.753-1.224-1.899-.854-1.208-1.341-2.033-1.46-2.478h-.071c.074.64.111 1.22.111 1.737 0 .722.021 1.603.062 2.64h-1.095c.044-.906.067-1.901.067-2.986 0-1.068-.023-1.976-.067-2.724h1.322c0 .155.366.774 1.1 1.855.78 1.15 1.229 1.929 1.344 2.338h.067c-.071-.652-.107-1.237-.107-1.754 0-.792-.02-1.606-.062-2.44h1.113c-.042.726-.062 1.634-.062 2.725 0 1.098.02 2.094.062 2.986zm6.453-3.053c0 .83-.27 1.556-.81 2.176-.541.62-1.298.93-2.272.93-.439 0-1.044-.018-1.816-.053.038-.884.058-1.88.058-2.987 0-1.064-.02-1.972-.058-2.724h.78c.127 0 .317-.004.569-.013.252-.009.417-.013.494-.013 1.071 0 1.848.263 2.33.79.483.526.725 1.157.725 1.894zm-1.216.189c0-.562-.166-1.034-.498-1.42-.333-.384-.84-.576-1.523-.576-.128 0-.303.013-.525.04.029.585.044 1.195.044 1.833 0 .699.015 1.392.044 2.079.19.038.384.057.579.057.638 0 1.11-.195 1.418-.586.307-.39.461-.866.461-1.427zm7.166 2.864h-1.318c-.345-1.035-.609-1.674-.793-1.917-.184-.242-.48-.364-.89-.364-.172 0-.337.002-.494.005 0 .751.013 1.51.04 2.276h-1.237c.038-.883.058-1.879.058-2.987 0-1.064-.02-1.972-.058-2.723h.77c.089 0 .275-.005.559-.014.283-.008.545-.013.785-.013 1.363 0 2.044.46 2.044 1.378 0 .728-.389 1.235-1.166 1.522v.065c.3.082.562.313.788.69.225.38.529 1.073.912 2.082zm-1.67-4.035c0-.582-.38-.873-1.14-.873-.278 0-.525.02-.738.061.032.453.049 1.044.049 1.772.163.006.3.009.414.009.943 0 1.415-.323 1.415-.97zm8.051 1.074c0 .898-.278 1.642-.837 2.233-.558.59-1.248.886-2.07.886-.784 0-1.44-.271-1.968-.814-.528-.542-.792-1.232-.792-2.067 0-.898.279-1.642.837-2.233.558-.59 1.248-.886 2.07-.886.784 0 1.44.27 1.968.811s.792 1.231.792 2.07zm-1.228.127c0-.61-.159-1.107-.476-1.487-.318-.38-.71-.57-1.176-.57-.433 0-.801.192-1.104.575-.302.383-.454.867-.454 1.452 0 .608.16 1.103.478 1.484.32.382.71.573 1.174.573.433 0 .801-.192 1.104-.577.302-.384.454-.868.454-1.45zm3.746 2.834h-1.26c.038-.906.058-1.902.058-2.987 0-1.067-.02-1.975-.058-2.723h1.26c-.039.736-.058 1.644-.058 2.723 0 1.102.02 2.098.058 2.987zm6.453-3.053c0 .83-.27 1.556-.81 2.176-.54.62-1.298.93-2.271.93-.44 0-1.045-.018-1.817-.053.039-.884.058-1.88.058-2.987 0-1.064-.02-1.972-.058-2.724h.78c.127 0 .317-.004.57-.013.251-.009.416-.013.493-.013 1.072 0 1.848.263 2.331.79.483.526.724 1.157.724 1.894zm-1.215.189c0-.562-.167-1.034-.499-1.42-.332-.384-.84-.576-1.523-.576-.127 0-.302.013-.525.04.03.585.044 1.195.044 1.833 0 .699.015 1.392.044 2.079.191.038.385.057.58.057.637 0 1.11-.195 1.417-.586.307-.39.462-.866.462-1.427zm9.776 2.864H109.7c0-.193-.135-.74-.406-1.64h-2.057c-.279.885-.418 1.432-.418 1.64h-1.34c0-.114.347-1.05 1.04-2.807.692-1.757 1.039-2.726 1.039-2.903h1.683c0 .166.314 1.12.942 2.861.627 1.742.942 2.691.942 2.849zm-2.057-2.478c-.508-1.51-.762-2.325-.762-2.448h-.071c0 .114-.263.93-.788 2.448h1.62zm7.25-1.737c0 .699-.264 1.215-.79 1.548-.527.333-1.174.5-1.94.5-.14 0-.238-.003-.298-.008 0 .55.016 1.274.05 2.175h-1.252c.038-.845.058-1.84.058-2.987 0-1.052-.02-1.96-.058-2.723h.774c.11 0 .32-.005.632-.014.312-.008.582-.013.81-.013.564 0 1.041.126 1.43.378.389.251.584.632.584 1.144zm-1.149.241c0-.626-.421-.939-1.264-.939-.211 0-.434.022-.668.066.033.553.05 1.178.05 1.877.073.007.16.009.257.009 1.084 0 1.625-.337 1.625-1.013zm6.489-.241c0 .699-.264 1.215-.79 1.548-.527.333-1.174.5-1.94.5-.14 0-.238-.003-.298-.008 0 .55.016 1.274.049 2.175h-1.251c.038-.845.058-1.84.058-2.987 0-1.052-.02-1.96-.058-2.723h.774c.11 0 .32-.005.632-.014.312-.008.582-.013.81-.013.564 0 1.04.126 1.43.378.388.251.584.632.584 1.144zm-1.149.241c0-.626-.421-.939-1.264-.939-.211 0-.434.022-.668.066.033.553.049 1.178.049 1.877.074.007.16.009.258.009 1.083 0 1.625-.337 1.625-1.013zm9.879 1.013c0 .898-.279 1.642-.837 2.233-.558.59-1.249.886-2.07.886-.784 0-1.44-.271-1.968-.814-.528-.542-.793-1.232-.793-2.067 0-.898.28-1.642.838-2.233.558-.59 1.248-.886 2.07-.886.783 0 1.44.27 1.967.811.529.541.793 1.231.793 2.07zm-1.229.127c0-.61-.159-1.107-.476-1.487-.318-.38-.71-.57-1.175-.57-.434 0-.802.192-1.105.575-.302.383-.454.867-.454 1.452 0 .608.16 1.103.479 1.484.319.382.71.573 1.173.573.433 0 .801-.192 1.104-.577.303-.384.454-.868.454-1.45zm7.263 2.834h-1.1c0-.12-.407-.753-1.224-1.899-.854-1.208-1.341-2.033-1.46-2.478h-.07c.073.64.11 1.22.11 1.737 0 .722.021 1.603.063 2.64h-1.096c.045-.906.067-1.901.067-2.986 0-1.068-.022-1.976-.067-2.724h1.322c0 .155.367.774 1.1 1.855.78 1.15 1.229 1.929 1.345 2.338h.066c-.071-.652-.107-1.237-.107-1.754 0-.792-.02-1.606-.062-2.44h1.113c-.042.726-.062 1.634-.062 2.725 0 1.098.02 2.094.062 2.986z" transform="translate(-580 -11271) translate(580 11271)"/>
            </g>
        </g>
    </g>
</svg>
