<svg xmlns="http://www.w3.org/2000/svg" xmlns:xlink="http://www.w3.org/1999/xlink" width="1925" height="1275" viewBox="0 0 1925 1275">
    <defs>
        <path id="nejk1aiqba" d="M389.21.011L1.84 224.621c-1.028.597-1.377 1.916-.779 2.934.396.687 1.123 1.074 1.858 1.074.37 0 .74-.095 1.08-.292L389.562 4.775l192.855 76.812c1.114.43 2.357-.1 2.796-1.199.439-1.104-.1-2.354-1.2-2.796L390.182.398l-.973-.387z"/>
        <path id="w0m7pch5mc" d="M0.244 405.288L302.323 527.876 583.263 747.547 860.775 841.419 1126.771 1061.258 1837.244 645.716 1589.852 443.487 1307.341 349.112 1029.713 133.642 696.568 0.684z"/>
        <path id="c6zaq4htxe" d="M.727 61.715c53.946 64.923 153.175 95.304 230.683 134.451 47.61 24.041 100.633 70.466 106.29 91.034 8.583 31.212 2.186 62.216-5.222 98.119-9.333 45.211-33.288 99.577-14.046 158.686 15.41 47.324 46.373 80.52 73.686 109.803 37.82 40.55 72.433 62.543 68.998 107.16-4.688 60.895-35.345 132.515-58.83 179.586l116.77 96.418c11.691-61.32 32.577-188.386 39.507-278.444 6.496-84.453-65.442-125.813-103.31-166.41-23.279-24.963-32.069-48.677-41.574-77.883-12.186-37.409-5.096-71.753 3.113-111.52 8.432-40.865 29.572-92.265 15.5-143.425-15.78-57.37-95.424-86.657-174.228-126.454C196.104 101.538 141.927 51.429 107.021.003L.727 61.715z"/>
        <path id="6rm6xah64g" d="M.052 21.72l326.882 137.267 64.494 52.492c-7.611 7.766-11.869 17.126-11.869 27.032 0 6.44 1.858 12.648 5.19 18.37L211.802 362.053l28.99 22.67 172.583-104.95c10.867 4.345 23.506 6.7 36.589 6.7 10.037 0 19.782-1.412 28.662-4.021l110.872 90.23c4.649 3.784 10.927 4.882 16.561 2.876L904.978 270.2l171.874 75.783 242.428 218.035 31.187-18.245-252.668-227.248c-1.354-1.218-2.894-2.213-4.563-2.949l-180.62-79.64c-3.996-1.77-8.524-1.941-12.644-.486l-296.25 104.424-93.677-76.239c6.257-7.284 9.659-15.808 9.659-24.741 0-4.198-.834-8.288-2.275-12.222l126.658-70.023 194.095-14.783c2.636-.203 5.195-1.012 7.47-2.364l178.66-106.193L995.09 10.62l-163.535 97.204-193.81 14.767c-2.46.185-4.852.9-7.01 2.092L492.906 200.88c-12.252-6.415-27.587-9.962-43.611-9.962-8.64 0-17.077 1.033-24.93 2.983l-77.65-63.194c-1.273-1.033-2.683-1.881-4.197-2.518L37.35.035.052 21.719zm420.912 223.606c-5.242-3.027-7-5.95-7-6.82 0-.835 1.698-3.646 6.764-6.574 7.233-4.175 17.64-6.573 28.568-6.573 11.052 0 21.623 2.45 29.003 6.711 5.238 3.031 7 5.95 7 6.824 0 .83-1.698 3.642-6.764 6.565-7.233 4.176-17.65 6.578-28.572 6.578-11.053 0-21.623-2.45-28.999-6.711z"/>
        <path id="bxo1y15chi" d="M.616 3.005c-1.23 2.56.009 5.563 2.765 6.703l7.987 3.307c.727.3 1.483.443 2.223.443 2.095 0 4.094-1.116 5-3.007 1.229-2.557-.005-5.555-2.76-6.7L7.842.444c-.73-.3-1.488-.442-2.231-.442-2.096 0-4.086 1.12-4.996 3.003"/>
        <path id="gzyj577w6k" d="M1.01 3.364c-1.178 2.739.014 5.947 2.663 7.17l15.08 6.933c.698.317 1.427.469 2.143.469 2.014 0 3.934-1.194 4.81-3.208 1.188-2.74-.008-5.947-2.662-7.17L7.97.624C7.27.308 6.541.156 5.825.156c-2.017 0-3.938 1.19-4.814 3.208"/>
        <path id="k5aojkbpcm" d="M9.884 1.033L2.63 5.357c-2.506 1.49-3.303 4.7-1.79 7.166.997 1.62 2.744 2.513 4.538 2.513.933 0 1.887-.247 2.74-.752L13 11.371l5.212 2.291c2.68 1.17 5.805-.008 7-2.633 1.192-2.634-.012-5.722-2.68-6.895L14.792.732C14.1.428 13.36.277 12.624.277c-.954 0-1.904.25-2.74.756"/>
        <path id="yv1o75h9yo" d="M78.537.776L63.353 9.97c-2.556 1.55-3.371 4.882-1.824 7.434 1.018 1.686 2.804 2.613 4.636 2.613.958 0 1.929-.251 2.804-.78l15.175-9.198c2.565-1.551 3.38-4.883 1.829-7.435C84.959.92 83.169-.004 81.34-.004c-.957 0-1.924.251-2.803.78M48.174 19.159l-15.18 9.194c-2.556 1.555-3.375 4.883-1.828 7.439 1.023 1.685 2.808 2.612 4.641 2.612.953 0 1.924-.255 2.8-.784l15.178-9.194c2.557-1.55 3.376-4.882 1.83-7.439-1.024-1.685-2.809-2.608-4.637-2.608-.958 0-1.929.251-2.804.78M17.811 37.547L2.631 46.74C.072 48.291-.743 51.623.804 54.18c1.019 1.685 2.804 2.608 4.641 2.608.953 0 1.924-.252 2.8-.78l15.179-9.194c2.56-1.555 3.375-4.883 1.828-7.44-1.022-1.68-2.812-2.607-4.645-2.607-.953 0-1.92.25-2.795.78"/>
        <path id="d9r36rjs9q" d="M18.432.806L13.394 3.99 7.872 1.87c-2.729-1.054-5.758.404-6.76 3.246-1.007 2.85.392 6.008 3.117 7.054l7.902 3.04c.594.223 1.209.338 1.824.338.947 0 1.895-.273 2.725-.791l7.207-4.555c2.49-1.572 3.281-4.946 1.777-7.537C24.674.955 22.931.015 21.15.015c-.927 0-1.866.255-2.717.79"/>
        <path id="lmb0hlnkcs" d="M283.878 4.262c-1.028 2.789.4 5.874 3.183 6.9l15.646 5.759c.61.223 1.243.326 1.858.326 2.19 0 4.241-1.34 5.046-3.515 1.024-2.78-.396-5.869-3.184-6.892l-15.645-5.757c-.615-.228-1.247-.335-1.867-.335-2.185 0-4.237 1.349-5.037 3.514m-12.462 1.242l-15.727 5.53c-2.804.984-4.276 4.048-3.286 6.849.778 2.208 2.852 3.588 5.071 3.588.594 0 1.192-.095 1.786-.305l15.727-5.53c2.8-.984 4.271-4.052 3.286-6.85-.774-2.208-2.843-3.591-5.063-3.591-.594 0-1.2.099-1.794.31m-31.458 11.059l-15.723 5.534c-2.804.98-4.276 4.048-3.286 6.845.774 2.208 2.852 3.588 5.067 3.588.594 0 1.196-.095 1.785-.306l15.727-5.53c2.805-.983 4.276-4.047 3.287-6.848-.779-2.209-2.844-3.592-5.059-3.592-.594 0-1.2.098-1.798.309m-31.45 11.068l-15.727 5.53c-2.804.98-4.275 4.048-3.286 6.85.779 2.203 2.852 3.583 5.072 3.583.593 0 1.191-.095 1.785-.305l15.727-5.53c2.8-.984 4.271-4.048 3.286-6.85-.778-2.204-2.847-3.587-5.063-3.587-.593 0-1.2.099-1.794.31M177.05 38.691l-15.722 5.53c-2.805.98-4.276 4.047-3.291 6.849.778 2.208 2.856 3.588 5.072 3.588.593 0 1.195-.1 1.785-.305l15.731-5.535c2.8-.984 4.272-4.047 3.282-6.844-.774-2.209-2.843-3.597-5.059-3.597-.598 0-1.204.103-1.798.314M145.6 49.756l-15.726 5.53c-2.805.98-4.276 4.052-3.287 6.849.779 2.208 2.852 3.588 5.072 3.588.59 0 1.192-.1 1.785-.305l15.727-5.53c2.8-.984 4.272-4.052 3.287-6.85-.779-2.203-2.852-3.591-5.068-3.591-.593 0-1.2.099-1.79.31M114.144 60.82l-15.727 5.53c-2.8.98-4.272 4.048-3.287 6.85.779 2.203 2.856 3.583 5.072 3.583.593 0 1.191-.1 1.785-.306l15.731-5.53c2.8-.983 4.272-4.051 3.282-6.848-.774-2.209-2.843-3.592-5.058-3.592-.594 0-1.2.098-1.798.313m-31.45 11.064l-15.727 5.53c-2.805.98-4.276 4.048-3.286 6.845.778 2.208 2.852 3.592 5.071 3.592.59 0 1.192-.099 1.785-.31l15.727-5.53c2.805-.983 4.272-4.051 3.283-6.848-.775-2.205-2.844-3.592-5.06-3.592-.593 0-1.2.098-1.793.313M51.235 82.94l-15.727 5.53c-2.8.984-4.272 4.051-3.287 6.849.779 2.208 2.857 3.592 5.072 3.592.594 0 1.192-.1 1.785-.305L54.81 93.07c2.8-.98 4.271-4.051 3.282-6.844-.779-2.204-2.844-3.597-5.06-3.597-.597 0-1.204.1-1.797.31m-31.45 11.064L4.058 99.538c-2.804.984-4.271 4.052-3.282 6.845.77 2.208 2.848 3.587 5.068 3.587.589 0 1.191-.094 1.78-.305l15.732-5.53c2.804-.98 4.271-4.047 3.282-6.844-.779-2.209-2.844-3.597-5.055-3.597-.598 0-1.2.1-1.798.31"/>
        <path id="6rzewxwg2u" d="M1.238 2.061C-.61 4.388-.267 7.804 2.001 9.697l6.582 5.477c.958.795 2.145 1.216 3.341 1.216.598 0 1.187-.104 1.764-.308l8.002-2.887c2.76-.99 4.206-4.089 3.235-6.915-.975-2.825-3.994-4.327-6.755-3.316l-5.203 1.871-4.274-3.56C7.709.46 6.526.06 5.347.06c-1.54 0-3.061.686-4.109 2.001"/>
        <path id="jqy5w7xz2w" d="M1.247 2.025c-1.873 2.287-1.524 5.651.78 7.51l11.878 9.585c.994.808 2.191 1.201 3.384 1.201 1.567 0 3.117-.67 4.18-1.975 1.877-2.287 1.529-5.655-.779-7.515L8.816 1.247C7.817.439 6.616.046 5.423.046c-1.562 0-3.112.675-4.176 1.979m23.748 19.173c-1.873 2.287-1.524 5.651.784 7.515l11.874 9.584c.994.808 2.196 1.202 3.388 1.202 1.563 0 3.117-.676 4.176-1.98 1.877-2.287 1.529-5.651-.779-7.515L32.564 20.42c-.995-.804-2.196-1.197-3.388-1.197-1.563 0-3.117.675-4.18 1.975m23.752 19.169c-1.873 2.29-1.524 5.655.783 7.515l11.874 9.588c.995.804 2.192 1.193 3.384 1.193 1.567 0 3.117-.667 4.18-1.97 1.878-2.292 1.529-5.652-.779-7.516l-11.874-9.584c-.994-.808-2.195-1.201-3.392-1.201-1.563.004-3.113.675-4.176 1.975m23.748 19.177c-1.873 2.287-1.524 5.651.783 7.51l11.874 9.59c.995.803 2.196 1.196 3.389 1.196 1.567 0 3.117-.67 4.18-1.975 1.873-2.287 1.524-5.651-.78-7.51l-11.878-9.59c-.994-.807-2.195-1.2-3.388-1.2-1.563 0-3.117.675-4.18 1.979"/>
        <path id="fgmy39ur6y" d="M7.98 2.35C5.09 5.612 2.503 7.624 2.485 7.637 1.17 8.645.38 10.2.355 11.867c-.027 1.665.711 3.246 2.005 4.297l6.74 5.478c1.002.816 2.218 1.216 3.416 1.216 1.575 0 3.142-.678 4.21-2.002 1.892-2.329 1.54-5.748-.79-7.637L14.09 11.71c.642-.66 1.32-1.377 2.01-2.159 1.987-2.245 1.779-5.673-.465-7.662C14.603.973 13.318.52 12.038.52c-1.493 0-2.986.617-4.058 1.83"/>
        <path id="no69i1wbrA" d="M5.683.818c-2.96.189-5.209 2.74-5.02 5.705.186 2.97 2.65 5.297 5.703 5.026 4.783-.3 10.098-.314 14.85.09.151.014.302.018.448.018 2.77 0 5.122-2.126 5.358-4.936.241-2.956-1.956-5.555-4.915-5.804-2.8-.233-5.759-.345-8.713-.345-2.615 0-5.23.086-7.711.246m26.2 6.725c-.891 2.832.683 5.857 3.513 6.752 4.743 1.493 8.85 3.567 12.218 6.157.976.762 2.133 1.123 3.277 1.123 1.613 0 3.204-.714 4.258-2.09 1.815-2.355 1.384-5.728-.968-7.544-4.37-3.374-9.603-6.033-15.551-7.91-.538-.171-1.084-.249-1.622-.249-2.287 0-4.403 1.468-5.126 3.761m26.694 15.723c-2.74 1.15-4.034 4.3-2.89 7.04.822 1.958 1.222 3.912 1.222 5.973 0 1.785-.323 3.662-.947 5.59-.92 2.822.62 5.86 3.445 6.777.555.185 1.118.27 1.665.27 2.266 0 4.373-1.445 5.113-3.717.98-3 1.475-6.003 1.475-8.92 0-3.468-.688-6.876-2.051-10.125-.86-2.066-2.86-3.305-4.963-3.305-.688 0-1.394.133-2.069.417"/>
        <path id="s2uhmqclkC" d="M1.378 2.823c-1.887 2.292-1.594 5.713.649 7.644l6.492 5.582c.963.83 2.175 1.272 3.41 1.272.462 0 .928-.065 1.382-.186.03-.01 3.053-.838 7.828-1.71 2.879-.522 4.8-3.339 4.287-6.29-.51-2.943-3.261-4.953-6.145-4.393-2.468.451-4.507.89-5.996 1.237l-4.444-3.82C7.85 1.304 6.641.887 5.436.887c-1.51 0-3.01.656-4.058 1.936"/>
        <path id="hg6wssju8E" d="M1.377 2.866C-.574 5.2-.276 8.69 2.048 10.647l13.792 11.69c1.03.87 2.28 1.29 3.522 1.29 1.56 0 3.118-.667 4.2-1.971 1.948-2.34 1.65-5.823-.67-7.786L9.095 2.19C8.07 1.314 6.82.89 5.574.89c-1.566 0-3.118.672-4.197 1.976"/>
        <path id="l0v3i0nvuG" d="M10.39.95L2.956 5.428C1.44 6.338.452 7.956.297 9.762c-.15 1.816.554 3.586 1.894 4.755l6.576 5.74c1.005.878 2.238 1.306 3.453 1.306 1.529 0 3.054-.673 4.115-1.984 1.907-2.36 1.614-5.878-.653-7.859l-.73-.633.82-.495c2.568-1.548 3.44-4.955 1.954-7.617C16.734 1.186 14.93.192 13.08.192c-.92 0-1.847.245-2.689.758"/>
        <path id="gkbyzqf8zI" d="M94.956.948L81.853 8.597c-2.556 1.49-3.43 4.778-1.944 7.352.99 1.722 2.792 2.682 4.634 2.682.912 0 1.836-.237 2.684-.728l13.107-7.649c2.557-1.49 3.422-4.782 1.94-7.356C101.281 1.18 99.487.22 97.641.22c-.912 0-1.837.237-2.685.728M68.751 16.242l-13.103 7.65c-2.556 1.493-3.43 4.786-1.944 7.356.99 1.721 2.792 2.677 4.633 2.677.912 0 1.837-.237 2.685-.727l13.107-7.645c2.556-1.49 3.421-4.783 1.94-7.357-.994-1.717-2.788-2.677-4.638-2.677-.912 0-1.837.232-2.68.723M42.545 31.545L29.438 39.19c-2.556 1.493-3.421 4.786-1.94 7.356.99 1.718 2.792 2.678 4.634 2.678.912 0 1.837-.237 2.684-.728l13.103-7.65c2.556-1.488 3.426-4.782 1.944-7.356-.993-1.717-2.787-2.677-4.633-2.677-.912 0-1.837.237-2.685.732M16.34 46.843l-13.107 7.64c-2.556 1.495-3.426 4.788-1.94 7.357.99 1.722 2.792 2.678 4.633 2.678.912 0 1.833-.233 2.685-.723l13.103-7.65c2.556-1.489 3.425-4.782 1.944-7.356-.99-1.718-2.784-2.678-4.63-2.678-.915 0-1.84.237-2.688.732"/>
        <path id="e69flpa1pK" d="M9.3.452C6.444 1.25 4.774 4.216 5.572 7.08l1.19 4.29-3.84 2.239c-2.564 1.49-3.435 4.788-1.95 7.359 1.001 1.718 2.8 2.678 4.652 2.678.91 0 1.842-.236 2.689-.732l7.43-4.323c2.113-1.232 3.127-3.742 2.474-6.098L15.91 4.194c-.657-2.381-2.826-3.94-5.17-3.94-.478 0-.959.065-1.44.198"/>
        <path id="r5auu5qcfM" d="M4.188.231C1.272 1.011-.436 3.917.376 6.72L4.73 21.69c.68 2.33 2.88 3.85 5.283 3.85.492 0 .988-.058 1.48-.193 2.92-.78 4.629-3.682 3.816-6.483L10.956 3.888c-.68-2.33-2.894-3.85-5.292-3.85-.487 0-.984.063-1.476.193"/>
        <path id="rd1oiiohrO" d="M10.554 1.065L2.956 5.177C.723 6.393-.394 9.041.284 11.547l2.303 8.52c.657 2.445 2.817 4.045 5.166 4.045.477 0 .962-.066 1.443-.203 2.857-.813 4.532-3.86 3.733-6.804l-1.143-4.222 3.771-2.038c2.62-1.42 3.63-4.762 2.25-7.467-.961-1.875-2.83-2.95-4.758-2.95-.842 0-1.697.204-2.495.637"/>
        <path id="5un72lh3rQ" d="M14.176 1.324L3.036 6.709C.313 8.12-.74 11.435.692 14.123c1 1.871 2.934 2.934 4.941 2.934.874 0 1.757-.197 2.586-.628l11.14-5.385c2.724-1.41 3.777-4.73 2.345-7.414-.999-1.871-2.938-2.938-4.94-2.938-.875 0-1.762.202-2.587.632"/>
        <path id="leuxu0i1kS" d="M4.406 2.427c-5.093 3.07-5.067 8.055.059 11.139 5.126 3.087 13.411 3.105 18.5.04 5.1-3.067 5.07-8.056-.055-11.144C20.336.912 16.966.138 13.605.138c-3.332 0-6.663.764-9.2 2.289"/>
        <path id="27cdgkwysU" d="M0.325 0.082L1025.317 0.082 1025.317 663.221 0.325 663.221z"/>
        <path id="xypftyanwW" d="M634.52.632L122.476 300.228 4.085 202.345c-.907-.758-2.273-.637-3.025.288-.761.92-.628 2.276.287 3.029l119.547 98.842 1.16.95L636.687 4.35c1.022-.603 1.37-1.92.769-2.943-.4-.684-1.122-1.071-1.857-1.071-.37 0-.739.094-1.078.296"/>
        <path id="homtxzeapY" d="M112.034.05c61.752 0 111.81 25.48 111.81 56.905 0 31.43-50.058 56.909-111.81 56.909-61.748 0-111.81-25.48-111.81-56.91"/>
        <path id="2ple5f3u1ab" d="M31.892 11.407L5.685 23.668l3.22 16.87C3.27 53.543.084 69.4.084 87.984c0 53.793 28.674 138.639 58.407 212.181L89.478 462.43l34.177-17.136s123.568-102.56 123.568-214.225c0-78.53-55.32-174.219-123.568-213.734-19.861-11.497-38.6-16.92-55.2-16.92-13.88 0-26.262 3.789-36.563 10.992"/>
        <path id="jhpmjo3p9ad" d="M.299 87.71c0 111.455 123.571 356.637 123.571 356.637S247.442 341.984 247.442 230.53c0-78.382-55.329-173.9-123.572-213.336C103.923 5.666 85.084.205 68.404.205 28.014.205.3 32.236.3 87.71"/>
        <path id="n2b3ulf8haf" d="M.403 10.248C23.013-4.45 55.113-3.379 90.847 17.22c68.406 39.437 123.863 134.95 123.863 213.336 0 111.455-123.863 213.822-123.863 213.822s-.366-.727-.905-1.807c26.032-23.468 116.916-112.234 116.916-207.738 0-78.387-55.457-173.9-123.863-213.336"/>
        <path id="llo3d9d7iah" d="M.163 38.91c0 34.1 24.123 75.658 53.885 92.812 29.757 17.158 53.88 3.422 53.88-30.68 0-34.1-24.123-75.653-53.88-92.812C45.353 3.22 37.137.844 29.864.844 12.246.844.163 14.778.163 38.91"/>
        <path id="sbti8w6xqak" d="M34.045 8.544c31.412-16.847 70.536-5.043 87.389 26.361 16.848 31.41 5.048 70.53-26.364 87.376-31.412 16.851-70.536 5.048-87.385-26.357"/>
        <path id="x3gufth9aam" d="M34.091 8.02c31.413-16.851 70.537-5.048 87.39 26.361 16.848 31.405 5.048 70.525-26.364 87.372C63.705 138.604 24.58 126.8 7.732 95.392"/>
        <radialGradient id="r9vfmki2tZ" cx="50.974%" cy="50%" r="98.238%" fx="50.974%" fy="50%" gradientTransform="matrix(.50896 0 0 .5099 .25 .245)">
            <stop offset="0%" stop-color="#C6C8C8"/>
            <stop offset="100%" stop-color="#FFF"/>
        </radialGradient>
        <linearGradient id="kurr8kjdjai" x1="72.945%" x2="26.317%" y1="96.604%" y2="1.895%">
            <stop offset="0%" stop-color="#D4D1D8"/>
            <stop offset="100%" stop-color="#FFF"/>
        </linearGradient>
    </defs>
    <g fill="none" fill-rule="evenodd" opacity=".297">
        <g>
            <g>
                <path fill="#FFF" d="M0 505.139L340.06 643.063 621.604 863.07 898.91 956.823 1173.523 1183.638 1923.927 744.997 1649.409 520.73 1366.548 426.297 1089.332 211.273 743.553 73.349z" transform="translate(5 -3734) translate(-5 3734)"/>
                <g transform="translate(5 -3734) translate(-5 3734) translate(396.841)">
                    <mask id="6zpxga7cib" fill="#fff">
                        <use xlink:href="#nejk1aiqba"/>
                    </mask>
                    <path d="M389.21.011L1.84 224.621c-1.028.597-1.377 1.916-.779 2.934.396.687 1.123 1.074 1.858 1.074.37 0 .74-.095 1.08-.292L389.562 4.775l192.855 76.812c1.114.43 2.357-.1 2.796-1.199.439-1.104-.1-2.354-1.2-2.796L390.182.398l-.973-.387z" mask="url(#6zpxga7cib)"/>
                </g>
                <g transform="translate(5 -3734) translate(-5 3734) translate(49.228 96.46)">
                    <mask id="yaskcxlfod" fill="#fff">
                        <use xlink:href="#w0m7pch5mc"/>
                    </mask>
                    <path d="M0.244 405.288L302.323 527.876 583.263 747.547 860.775 841.419 1126.771 1061.258 1837.244 645.716 1589.852 443.487 1307.341 349.112 1029.713 133.642 696.568 0.684z" mask="url(#yaskcxlfod)"/>
                </g>
                <g>
                    <path fill="#D1D3D4" d="M666.649 231.047L640.829 246.832 672.385 284.136 718.288 261.179zM492.458 723.942l158.21-99.366 53.723 39.959c.542.4 1.144.715 1.785.934l33.205 11.24-81.01 47.375 6.511 11.15 93.235-54.527c2.186-1.278 3.421-3.71 3.167-6.224-.258-2.518-1.958-4.653-4.355-5.467l-45.649-15.453-48.881-36.361 46.407-29.146-6.864-10.938-220.302 138.37 10.818 8.454zM143.778 348.009L.182 433.02 15.222 439.124 158.56 354.263 158.001 353.321 223.299 377.71 227.817 365.614 105.556 319.947 91.11 328.337z" transform="translate(5 -3734) translate(-5 3734) translate(101.47 89.426)"/>
                    <path fill="#D1D3D4" d="M799.408 308.198l22.088 19.482-137.107 84.034-21.546-19.956 136.565-83.56zm-282.064 65.778c.84.375 1.735.56 2.63.56 1.2 0 2.388-.336 3.43-.99l53.614-33.65 20.08 8.571L712.463 455.32l8.774-9.475-27.003-25.014 141.462-86.707c1.743-1.071 2.879-2.91 3.055-4.946.177-2.044-.628-4.05-2.16-5.406L757.7 254.188c-.254-.223-.52-.426-.809-.607l-84.633-53.807-6.924 10.895 84.203 53.54 39.74 35.053-136.276 83.38-47.951-44.411c-.547-.504-1.175-.913-1.855-1.205l-180.738-77.121-5.065 11.88 145.167 61.943-43.102 27.05-223.125-99.534 87.107-52.28-6.64-11.07-94.862 56.931-36.345-16.22-13.77 8.003 285.522 127.368zM1306.565 831.897L1297.631 841.212 1359.801 900.878 1371.385 894.107zM827.963 801.786L820.901 790.973 759.364 831.212 774.916 836.473zM1388.974 590.845c.418 2.445 2.204 4.443 4.588 5.123l100.408 28.698 3.55-12.414-96.5-27.584-5.526-32.46 157.156-90.199-10.698-8.742-148.765 85.381-2.965-17.408c-.34-2.01-1.613-3.745-3.43-4.666l-30.501-15.578 122.833-70.707-16.374-5.467-120.174 69.175-93.488-47.73-5.866 11.498L1378.04 526.6l10.934 64.245zM1043.787 191.501L994.777 219.713 1001.214 230.901 1054.812 200.054z" transform="translate(5 -3734) translate(-5 3734) translate(101.47 89.426)"/>
                    <path fill="#CFE4BD" d="M831.606 426.189L1006.608 419.013 1165.83 386.014 1243.289 426.189 1108.45 509.409 1059.681 496.496 838.78 575.416 771.36 450.583zM639.392.036L361.83 165.762 465.108 217.417 581.297 170.067 663.06 176.524 800.765 101.193 787.855 60.3zM899.74 613.436L764.187 660.787 766.338 688.766 785.703 742.573 893.285 789.924 912.65 802.838 923.408 811.447 1121.36 854.492 1168.696 886.777 1267.671 826.513 1220.335 746.878 1267.671 654.33 1222.487 617.741 1065.417 546.715z" transform="translate(5 -3734) translate(-5 3734) translate(101.47 89.426)"/>
                </g>
                <g transform="translate(5 -3734) translate(-5 3734) translate(631.932 100.405)">
                    <mask id="gzy5vjuy0f" fill="#fff">
                        <use xlink:href="#c6zaq4htxe"/>
                    </mask>
                    <path d="M.727 61.715c53.946 64.923 153.175 95.304 230.683 134.451 47.61 24.041 100.633 70.466 106.29 91.034 8.583 31.212 2.186 62.216-5.222 98.119-9.333 45.211-33.288 99.577-14.046 158.686 15.41 47.324 46.373 80.52 73.686 109.803 37.82 40.55 72.433 62.543 68.998 107.16-4.688 60.895-35.345 132.515-58.83 179.586l116.77 96.418c11.691-61.32 32.577-188.386 39.507-278.444 6.496-84.453-65.442-125.813-103.31-166.41-23.279-24.963-32.069-48.677-41.574-77.883-12.186-37.409-5.096-71.753 3.113-111.52 8.432-40.865 29.572-92.265 15.5-143.425-15.78-57.37-95.424-86.657-174.228-126.454C196.104 101.538 141.927 51.429 107.021.003L.727 61.715z" mask="url(#gzy5vjuy0f)"/>
                </g>
                <path fill="#1D3461" d="M1291.938 1012.534l319.915-197.85c3.907-2.414 6.235-6.73 6.114-11.322l-4.113-154.313 87.038-59.028-20.863-17.041-86.517 58.667c-3.645 2.466-5.78 6.627-5.659 11.03l4.105 153.95-320.736 198.353.25.405-45.418-38.05c-1.674-1.403-3.683-2.363-5.83-2.78l-206.984-40.128-20.875-20.871c-1.313-1.317-2.897-2.329-4.64-2.978l-264.6-98.16L508.1 605.522l253.709-152.225c5.357-3.215 7.642-9.803 5.422-15.647l-41.962-110.63 183.617-102.905 95.817 37.925 271.778 214.004c.62.486 1.287.912 1.984 1.282l74.021 38.864-152.354 95.852 13.75 21.852 245.67-154.562-31.672-10.573-52.453 32.997 1.106-2.104-85.016-44.634-272.325-214.43c-.977-.775-2.07-1.399-3.231-1.86l-103.28-40.88c-3.614-1.434-7.668-1.158-11.063.735L708.339 306.91l-146.286 10.302-104.737-53.813-26.521 15.401 102.164 52.488-361.162 219.68 29.809 12.088 361.79-220.054 136.672-9.631 39.195 103.344-259.7 155.819c-3.545 2.126-5.856 5.818-6.213 9.936-.362 4.119 1.265 8.164 4.39 10.88l230.225 200.1c1.17 1.02 2.522 1.82 3.98 2.357l79.069 29.336-51.984 34.233 31.027 10.487 50.99-33.583 155.051 57.527 21.68 21.671c1.816 1.82 4.14 3.056 6.666 3.546l207.59 40.245 109.6 91.833 23.686-13.84-53.382-44.728z" transform="translate(5 -3734) translate(-5 3734)"/>
                <g transform="translate(5 -3734) translate(-5 3734) translate(261.139 356.699)">
                    <mask id="1lchoffc9h" fill="#fff">
                        <use xlink:href="#6rm6xah64g"/>
                    </mask>
                    <path d="M.052 21.72l326.882 137.267 64.494 52.492c-7.611 7.766-11.869 17.126-11.869 27.032 0 6.44 1.858 12.648 5.19 18.37L211.802 362.053l28.99 22.67 172.583-104.95c10.867 4.345 23.506 6.7 36.589 6.7 10.037 0 19.782-1.412 28.662-4.021l110.872 90.23c4.649 3.784 10.927 4.882 16.561 2.876L904.978 270.2l171.874 75.783 242.428 218.035 31.187-18.245-252.668-227.248c-1.354-1.218-2.894-2.213-4.563-2.949l-180.62-79.64c-3.996-1.77-8.524-1.941-12.644-.486l-296.25 104.424-93.677-76.239c6.257-7.284 9.659-15.808 9.659-24.741 0-4.198-.834-8.288-2.275-12.222l126.658-70.023 194.095-14.783c2.636-.203 5.195-1.012 7.47-2.364l178.66-106.193L995.09 10.62l-163.535 97.204-193.81 14.767c-2.46.185-4.852.9-7.01 2.092L492.906 200.88c-12.252-6.415-27.587-9.962-43.611-9.962-8.64 0-17.077 1.033-24.93 2.983l-77.65-63.194c-1.273-1.033-2.683-1.881-4.197-2.518L37.35.035.052 21.719zm420.912 223.606c-5.242-3.027-7-5.95-7-6.82 0-.835 1.698-3.646 6.764-6.574 7.233-4.175 17.64-6.573 28.568-6.573 11.052 0 21.623 2.45 29.003 6.711 5.238 3.031 7 5.95 7 6.824 0 .83-1.698 3.642-6.764 6.565-7.233 4.176-17.65 6.578-28.572 6.578-11.053 0-21.623-2.45-28.999-6.711z" mask="url(#1lchoffc9h)"/>
                </g>
                <g fill="#CFE4BD">
                    <path d="M1314.469 447.489L1269.305 402.318 1329.524 363.6 1400.497 178.614 1426.305 167.859 1579.004 292.617zM168.153 258.201L58.468 176.463 47.714 94.725.399 64.611 103.632.081 262.783 62.46 252.03 92.574 168.153 142.047 131.591 165.708 187.509 180.765 204.715 243.144z" transform="translate(5 -3734) translate(-5 3734) translate(301.398 449.14)"/>
                </g>
                <g transform="translate(5 -3734) translate(-5 3734) translate(1376.386 570.645)">
                    <mask id="1wsf7rlb3j" fill="#fff">
                        <use xlink:href="#bxo1y15chi"/>
                    </mask>
                    <path d="M.616 3.005c-1.23 2.56.009 5.563 2.765 6.703l7.987 3.307c.727.3 1.483.443 2.223.443 2.095 0 4.094-1.116 5-3.007 1.229-2.557-.005-5.555-2.76-6.7L7.842.444c-.73-.3-1.488-.442-2.231-.442-2.096 0-4.086 1.12-4.996 3.003" mask="url(#1wsf7rlb3j)"/>
                </g>
                <g transform="translate(5 -3734) translate(-5 3734) translate(1345.242 555.647)">
                    <mask id="8vkzsv8x5l" fill="#fff">
                        <use xlink:href="#gzyj577w6k"/>
                    </mask>
                    <path d="M1.01 3.364c-1.178 2.739.014 5.947 2.663 7.17l15.08 6.933c.698.317 1.427.469 2.143.469 2.014 0 3.934-1.194 4.81-3.208 1.188-2.74-.008-5.947-2.662-7.17L7.97.624C7.27.308 6.541.156 5.825.156c-2.017 0-3.938 1.19-4.814 3.208" mask="url(#8vkzsv8x5l)"/>
                </g>
                <g transform="translate(5 -3734) translate(-5 3734) translate(1314.097 545.599)">
                    <mask id="7mvfalicsn" fill="#fff">
                        <use xlink:href="#k5aojkbpcm"/>
                    </mask>
                    <path d="M9.884 1.033L2.63 5.357c-2.506 1.49-3.303 4.7-1.79 7.166.997 1.62 2.744 2.513 4.538 2.513.933 0 1.887-.247 2.74-.752L13 11.371l5.212 2.291c2.68 1.17 5.805-.008 7-2.633 1.192-2.634-.012-5.722-2.68-6.895L14.792.732C14.1.428 13.36.277 12.624.277c-.954 0-1.904.25-2.74.756" mask="url(#7mvfalicsn)"/>
                </g>
                <g transform="translate(5 -3734) translate(-5 3734) translate(1223.678 558.661)">
                    <mask id="machorzt9p" fill="#fff">
                        <use xlink:href="#yv1o75h9yo"/>
                    </mask>
                    <path d="M78.537.776L63.353 9.97c-2.556 1.55-3.371 4.882-1.824 7.434 1.018 1.686 2.804 2.613 4.636 2.613.958 0 1.929-.251 2.804-.78l15.175-9.198c2.565-1.551 3.38-4.883 1.829-7.435C84.959.92 83.169-.004 81.34-.004c-.957 0-1.924.251-2.803.78M48.174 19.159l-15.18 9.194c-2.556 1.555-3.375 4.883-1.828 7.439 1.023 1.685 2.808 2.612 4.641 2.612.953 0 1.924-.255 2.8-.784l15.178-9.194c2.557-1.55 3.376-4.882 1.83-7.439-1.024-1.685-2.809-2.608-4.637-2.608-.958 0-1.929.251-2.804.78M17.811 37.547L2.631 46.74C.072 48.291-.743 51.623.804 54.18c1.019 1.685 2.804 2.608 4.641 2.608.953 0 1.924-.252 2.8-.78l15.179-9.194c2.56-1.555 3.375-4.883 1.828-7.44-1.022-1.68-2.812-2.607-4.645-2.607-.953 0-1.92.25-2.795.78" mask="url(#machorzt9p)"/>
                </g>
                <g transform="translate(5 -3734) translate(-5 3734) translate(1192.533 612.92)">
                    <mask id="tk3nfw14ur" fill="#fff">
                        <use xlink:href="#d9r36rjs9q"/>
                    </mask>
                    <path d="M18.432.806L13.394 3.99 7.872 1.87c-2.729-1.054-5.758.404-6.76 3.246-1.007 2.85.392 6.008 3.117 7.054l7.902 3.04c.594.223 1.209.338 1.824.338.947 0 1.895-.273 2.725-.791l7.207-4.555c2.49-1.572 3.281-4.946 1.777-7.537C24.674.955 22.931.015 21.15.015c-.927 0-1.866.255-2.717.79" mask="url(#tk3nfw14ur)"/>
                </g>
                <g transform="translate(5 -3734) translate(-5 3734) translate(879.079 602.872)">
                    <mask id="skw4v1bgct" fill="#fff">
                        <use xlink:href="#lmb0hlnkcs"/>
                    </mask>
                    <path d="M283.878 4.262c-1.028 2.789.4 5.874 3.183 6.9l15.646 5.759c.61.223 1.243.326 1.858.326 2.19 0 4.241-1.34 5.046-3.515 1.024-2.78-.396-5.869-3.184-6.892l-15.645-5.757c-.615-.228-1.247-.335-1.867-.335-2.185 0-4.237 1.349-5.037 3.514m-12.462 1.242l-15.727 5.53c-2.804.984-4.276 4.048-3.286 6.849.778 2.208 2.852 3.588 5.071 3.588.594 0 1.192-.095 1.786-.305l15.727-5.53c2.8-.984 4.271-4.052 3.286-6.85-.774-2.208-2.843-3.591-5.063-3.591-.594 0-1.2.099-1.794.31m-31.458 11.059l-15.723 5.534c-2.804.98-4.276 4.048-3.286 6.845.774 2.208 2.852 3.588 5.067 3.588.594 0 1.196-.095 1.785-.306l15.727-5.53c2.805-.983 4.276-4.047 3.287-6.848-.779-2.209-2.844-3.592-5.059-3.592-.594 0-1.2.098-1.798.309m-31.45 11.068l-15.727 5.53c-2.804.98-4.275 4.048-3.286 6.85.779 2.203 2.852 3.583 5.072 3.583.593 0 1.191-.095 1.785-.305l15.727-5.53c2.8-.984 4.271-4.048 3.286-6.85-.778-2.204-2.847-3.587-5.063-3.587-.593 0-1.2.099-1.794.31M177.05 38.691l-15.722 5.53c-2.805.98-4.276 4.047-3.291 6.849.778 2.208 2.856 3.588 5.072 3.588.593 0 1.195-.1 1.785-.305l15.731-5.535c2.8-.984 4.272-4.047 3.282-6.844-.774-2.209-2.843-3.597-5.059-3.597-.598 0-1.204.103-1.798.314M145.6 49.756l-15.726 5.53c-2.805.98-4.276 4.052-3.287 6.849.779 2.208 2.852 3.588 5.072 3.588.59 0 1.192-.1 1.785-.305l15.727-5.53c2.8-.984 4.272-4.052 3.287-6.85-.779-2.203-2.852-3.591-5.068-3.591-.593 0-1.2.099-1.79.31M114.144 60.82l-15.727 5.53c-2.8.98-4.272 4.048-3.287 6.85.779 2.203 2.856 3.583 5.072 3.583.593 0 1.191-.1 1.785-.306l15.731-5.53c2.8-.983 4.272-4.051 3.282-6.848-.774-2.209-2.843-3.592-5.058-3.592-.594 0-1.2.098-1.798.313m-31.45 11.064l-15.727 5.53c-2.805.98-4.276 4.048-3.286 6.845.778 2.208 2.852 3.592 5.071 3.592.59 0 1.192-.099 1.785-.31l15.727-5.53c2.805-.983 4.272-4.051 3.283-6.848-.775-2.205-2.844-3.592-5.06-3.592-.593 0-1.2.098-1.793.313M51.235 82.94l-15.727 5.53c-2.8.984-4.272 4.051-3.287 6.849.779 2.208 2.857 3.592 5.072 3.592.594 0 1.192-.1 1.785-.305L54.81 93.07c2.8-.98 4.271-4.051 3.282-6.844-.779-2.204-2.844-3.597-5.06-3.597-.597 0-1.204.1-1.797.31m-31.45 11.064L4.058 99.538c-2.804.984-4.271 4.052-3.282 6.845.77 2.208 2.848 3.587 5.068 3.587.589 0 1.191-.094 1.78-.305l15.732-5.53c2.804-.98 4.271-4.047 3.282-6.844-.779-2.209-2.844-3.597-5.055-3.597-.598 0-1.2.1-1.798.31" mask="url(#skw4v1bgct)"/>
                </g>
                <g transform="translate(5 -3734) translate(-5 3734) translate(848.939 704.282)">
                    <mask id="ut6qjztx2v" fill="#fff">
                        <use xlink:href="#6rzewxwg2u"/>
                    </mask>
                    <path d="M1.238 2.061C-.61 4.388-.267 7.804 2.001 9.697l6.582 5.477c.958.795 2.145 1.216 3.341 1.216.598 0 1.187-.104 1.764-.308l8.002-2.887c2.76-.99 4.206-4.089 3.235-6.915-.975-2.825-3.994-4.327-6.755-3.316l-5.203 1.871-4.274-3.56C7.709.46 6.526.06 5.347.06c-1.54 0-3.061.686-4.109 2.001" mask="url(#ut6qjztx2v)"/>
                </g>
                <g transform="translate(5 -3734) translate(-5 3734) translate(753.423 627.991)">
                    <mask id="tganywylgx" fill="#fff">
                        <use xlink:href="#jqy5w7xz2w"/>
                    </mask>
                    <path d="M1.247 2.025c-1.873 2.287-1.524 5.651.78 7.51l11.878 9.585c.994.808 2.191 1.201 3.384 1.201 1.567 0 3.117-.67 4.18-1.975 1.877-2.287 1.529-5.655-.779-7.515L8.816 1.247C7.817.439 6.616.046 5.423.046c-1.562 0-3.112.675-4.176 1.979m23.748 19.173c-1.873 2.287-1.524 5.651.784 7.515l11.874 9.584c.994.808 2.196 1.202 3.388 1.202 1.563 0 3.117-.676 4.176-1.98 1.877-2.287 1.529-5.651-.779-7.515L32.564 20.42c-.995-.804-2.196-1.197-3.388-1.197-1.563 0-3.117.675-4.18 1.975m23.752 19.169c-1.873 2.29-1.524 5.655.783 7.515l11.874 9.588c.995.804 2.192 1.193 3.384 1.193 1.567 0 3.117-.667 4.18-1.97 1.878-2.292 1.529-5.652-.779-7.516l-11.874-9.584c-.994-.808-2.195-1.201-3.392-1.201-1.563.004-3.113.675-4.176 1.975m23.748 19.177c-1.873 2.287-1.524 5.651.783 7.51l11.874 9.59c.995.803 2.196 1.196 3.389 1.196 1.567 0 3.117-.67 4.18-1.975 1.873-2.287 1.524-5.651-.78-7.51l-11.878-9.59c-.994-.807-2.195-1.2-3.388-1.2-1.563 0-3.117.675-4.18 1.979" mask="url(#tganywylgx)"/>
                </g>
                <g transform="translate(5 -3734) translate(-5 3734) translate(734.407 605.886)">
                    <mask id="i23vxft9az" fill="#fff">
                        <use xlink:href="#fgmy39ur6y"/>
                    </mask>
                    <path d="M7.98 2.35C5.09 5.612 2.503 7.624 2.485 7.637 1.17 8.645.38 10.2.355 11.867c-.027 1.665.711 3.246 2.005 4.297l6.74 5.478c1.002.816 2.218 1.216 3.416 1.216 1.575 0 3.142-.678 4.21-2.002 1.892-2.329 1.54-5.748-.79-7.637L14.09 11.71c.642-.66 1.32-1.377 2.01-2.159 1.987-2.245 1.779-5.673-.465-7.662C14.603.973 13.318.52 12.038.52c-1.493 0-2.986.617-4.058 1.83" mask="url(#i23vxft9az)"/>
                </g>
                <g transform="translate(5 -3734) translate(-5 3734) translate(694.221 555.647)">
                    <mask id="bnhzag6ouB" fill="#fff">
                        <use xlink:href="#no69i1wbrA"/>
                    </mask>
                    <path d="M5.683.818c-2.96.189-5.209 2.74-5.02 5.705.186 2.97 2.65 5.297 5.703 5.026 4.783-.3 10.098-.314 14.85.09.151.014.302.018.448.018 2.77 0 5.122-2.126 5.358-4.936.241-2.956-1.956-5.555-4.915-5.804-2.8-.233-5.759-.345-8.713-.345-2.615 0-5.23.086-7.711.246m26.2 6.725c-.891 2.832.683 5.857 3.513 6.752 4.743 1.493 8.85 3.567 12.218 6.157.976.762 2.133 1.123 3.277 1.123 1.613 0 3.204-.714 4.258-2.09 1.815-2.355 1.384-5.728-.968-7.544-4.37-3.374-9.603-6.033-15.551-7.91-.538-.171-1.084-.249-1.622-.249-2.287 0-4.403 1.468-5.126 3.761m26.694 15.723c-2.74 1.15-4.034 4.3-2.89 7.04.822 1.958 1.222 3.912 1.222 5.973 0 1.785-.323 3.662-.947 5.59-.92 2.822.62 5.86 3.445 6.777.555.185 1.118.27 1.665.27 2.266 0 4.373-1.445 5.113-3.717.98-3 1.475-6.003 1.475-8.92 0-3.468-.688-6.876-2.051-10.125-.86-2.066-2.86-3.305-4.963-3.305-.688 0-1.394.133-2.069.417" mask="url(#bnhzag6ouB)"/>
                </g>
                <g transform="translate(5 -3734) translate(-5 3734) translate(664.081 553.637)">
                    <mask id="hx1egd6mjD" fill="#fff">
                        <use xlink:href="#s2uhmqclkC"/>
                    </mask>
                    <path d="M1.378 2.823c-1.887 2.292-1.594 5.713.649 7.644l6.492 5.582c.963.83 2.175 1.272 3.41 1.272.462 0 .928-.065 1.382-.186.03-.01 3.053-.838 7.828-1.71 2.879-.522 4.8-3.339 4.287-6.29-.51-2.943-3.261-4.953-6.145-4.393-2.468.451-4.507.89-5.996 1.237l-4.444-3.82C7.85 1.304 6.641.887 5.436.887c-1.51 0-3.01.656-4.058 1.936" mask="url(#hx1egd6mjD)"/>
                </g>
                <g transform="translate(5 -3734) translate(-5 3734) translate(636.955 530.527)">
                    <mask id="73u3794m0F" fill="#fff">
                        <use xlink:href="#hg6wssju8E"/>
                    </mask>
                    <path d="M1.377 2.866C-.574 5.2-.276 8.69 2.048 10.647l13.792 11.69c1.03.87 2.28 1.29 3.522 1.29 1.56 0 3.118-.667 4.2-1.971 1.948-2.34 1.65-5.823-.67-7.786L9.095 2.19C8.07 1.314 6.82.89 5.574.89c-1.566 0-3.118.672-4.197 1.976" mask="url(#73u3794m0F)"/>
                </g>
                <g transform="translate(5 -3734) translate(-5 3734) translate(616.862 510.431)">
                    <mask id="gezzuhbz6H" fill="#fff">
                        <use xlink:href="#l0v3i0nvuG"/>
                    </mask>
                    <path d="M10.39.95L2.956 5.428C1.44 6.338.452 7.956.297 9.762c-.15 1.816.554 3.586 1.894 4.755l6.576 5.74c1.005.878 2.238 1.306 3.453 1.306 1.529 0 3.054-.673 4.115-1.984 1.907-2.36 1.614-5.878-.653-7.859l-.73-.633.82-.495c2.568-1.548 3.44-4.955 1.954-7.617C16.734 1.186 14.93.192 13.08.192c-.92 0-1.847.245-2.689.758" mask="url(#gezzuhbz6H)"/>
                </g>
                <g transform="translate(5 -3734) translate(-5 3734) translate(636.955 449.14)">
                    <mask id="miaj5jb2eJ" fill="#fff">
                        <use xlink:href="#gkbyzqf8zI"/>
                    </mask>
                    <path d="M94.956.948L81.853 8.597c-2.556 1.49-3.43 4.778-1.944 7.352.99 1.722 2.792 2.682 4.634 2.682.912 0 1.836-.237 2.684-.728l13.107-7.649c2.557-1.49 3.422-4.782 1.94-7.356C101.281 1.18 99.487.22 97.641.22c-.912 0-1.837.237-2.685.728M68.751 16.242l-13.103 7.65c-2.556 1.493-3.43 4.786-1.944 7.356.99 1.721 2.792 2.677 4.633 2.677.912 0 1.837-.237 2.685-.727l13.107-7.645c2.556-1.49 3.421-4.783 1.94-7.357-.994-1.717-2.788-2.677-4.638-2.677-.912 0-1.837.232-2.68.723M42.545 31.545L29.438 39.19c-2.556 1.493-3.421 4.786-1.94 7.356.99 1.718 2.792 2.678 4.634 2.678.912 0 1.837-.237 2.684-.728l13.103-7.65c2.556-1.488 3.426-4.782 1.944-7.356-.993-1.717-2.787-2.677-4.633-2.677-.912 0-1.837.237-2.685.732M16.34 46.843l-13.107 7.64c-2.556 1.495-3.426 4.788-1.94 7.357.99 1.722 2.792 2.678 4.633 2.678.912 0 1.833-.233 2.685-.723l13.103-7.65c2.556-1.489 3.425-4.782 1.944-7.356-.99-1.718-2.784-2.678-4.63-2.678-.915 0-1.84.237-2.688.732" mask="url(#miaj5jb2eJ)"/>
                </g>
                <g transform="translate(5 -3734) translate(-5 3734) translate(741.44 428.039)">
                    <mask id="tx48nzdydL" fill="#fff">
                        <use xlink:href="#e69flpa1pK"/>
                    </mask>
                    <path d="M9.3.452C6.444 1.25 4.774 4.216 5.572 7.08l1.19 4.29-3.84 2.239c-2.564 1.49-3.435 4.788-1.95 7.359 1.001 1.718 2.8 2.678 4.652 2.678.91 0 1.842-.236 2.689-.732l7.43-4.323c2.113-1.232 3.127-3.742 2.474-6.098L15.91 4.194c-.657-2.381-2.826-3.94-5.17-3.94-.478 0-.959.065-1.44.198" mask="url(#tx48nzdydL)"/>
                </g>
                <g transform="translate(5 -3734) translate(-5 3734) translate(739.43 398.827)">
                    <mask id="7dizjzqb3N" fill="#fff">
                        <use xlink:href="#r5auu5qcfM"/>
                    </mask>
                    <path d="M4.188.231C1.272 1.011-.436 3.917.376 6.72L4.73 21.69c.68 2.33 2.88 3.85 5.283 3.85.492 0 .988-.058 1.48-.193 2.92-.78 4.629-3.682 3.816-6.483L10.956 3.888c-.68-2.33-2.894-3.85-5.292-3.85-.487 0-.984.063-1.476.193" mask="url(#7dizjzqb3N)"/>
                </g>
                <g transform="translate(5 -3734) translate(-5 3734) translate(732.398 369.761)">
                    <mask id="8lq93kmsyP" fill="#fff">
                        <use xlink:href="#rd1oiiohrO"/>
                    </mask>
                    <path d="M10.554 1.065L2.956 5.177C.723 6.393-.394 9.041.284 11.547l2.303 8.52c.657 2.445 2.817 4.045 5.166 4.045.477 0 .962-.066 1.443-.203 2.857-.813 4.532-3.86 3.733-6.804l-1.143-4.222 3.771-2.038c2.62-1.42 3.63-4.762 2.25-7.467-.961-1.875-2.83-2.95-4.758-2.95-.842 0-1.697.204-2.495.637" mask="url(#8lq93kmsyP)"/>
                </g>
                <g transform="translate(5 -3734) translate(-5 3734) translate(757.515 355.694)">
                    <mask id="jh3kqo5hpR" fill="#fff">
                        <use xlink:href="#5un72lh3rQ"/>
                    </mask>
                    <path d="M14.176 1.324L3.036 6.709C.313 8.12-.74 11.435.692 14.123c1 1.871 2.934 2.934 4.941 2.934.874 0 1.757-.197 2.586-.628l11.14-5.385c2.724-1.41 3.777-4.73 2.345-7.414-.999-1.871-2.938-2.938-4.94-2.938-.875 0-1.762.202-2.587.632" mask="url(#jh3kqo5hpR)"/>
                </g>
                <g transform="translate(5 -3734) translate(-5 3734) translate(766.557 350.67)">
                    <mask id="zy30zgq85T" fill="#fff">
                        <use xlink:href="#leuxu0i1kS"/>
                    </mask>
                    <path d="M4.406 2.427c-5.093 3.07-5.067 8.055.059 11.139 5.126 3.087 13.411 3.105 18.5.04 5.1-3.067 5.07-8.056-.055-11.144C20.336.912 16.966.138 13.605.138c-3.332 0-6.663.764-9.2 2.289" mask="url(#zy30zgq85T)"/>
                </g>
                <g>
                    <path fill="#D1D3D4" d="M1073.239 685.767L1150.69 639.846 1057.461 553.748 1030.211 572.401 1081.845 629.803 1047.422 651.327zM883.915 903.88L961.366 857.964 890.365 795.538 863.115 814.196 858.098 869.441zM1000.091 361.462L938.415 400.206 979.244 423.108 1018.137 411.61 1061.764 436.079 1109.095 408.816zM275.78 141.911L258.569 153.392 340.322 189.265 357.534 172.045 341.759 141.911zM336.019 517.875L397.696 479.13 373.312 454.734 347.495 469.083 323.111 446.125 277.213 473.388zM757.696 232.314L816.503 192.136 757.696 140.477 737.619 159.131 769.172 183.527 741.922 206.485zM1192.281 601.102L1235.309 573.839 1233.877 504.96 1200.887 499.217 1192.281 543.704 1176.507 555.181 1106.225 493.479 1083.278 506.394zM525.344 473.388L572.675 448.996 518.175 341.369 475.147 364.332 473.71 395.9 450.763 413.119z" transform="translate(5 -3734) translate(-5 3734) translate(339.576 210)"/>
                    <path fill="#C8CACC" d="M1026.593 215.565L749.384 0.466 0.129 432.409 281.667 652.498z" opacity=".39" transform="translate(5 -3734) translate(-5 3734) translate(339.576 210)"/>
                    <g transform="translate(5 -3734) translate(-5 3734) translate(339.576 210) translate(558.643 309.954)">
                        <mask id="64lrmvu3oV" fill="#fff">
                            <use xlink:href="#27cdgkwysU"/>
                        </mask>
                        <path fill="#C8CACC" d="M0.325 436.325L274.927 663.221 1025.318 224.424 750.802 0.082z" mask="url(#64lrmvu3oV)" opacity=".39"/>
                    </g>
                </g>
                <g transform="translate(5 -3734) translate(-5 3734) translate(1007.675 968.614)">
                    <mask id="9s8w7pkh4X" fill="#fff">
                        <use xlink:href="#xypftyanwW"/>
                    </mask>
                    <path d="M634.52.632L122.476 300.228 4.085 202.345c-.907-.758-2.273-.637-3.025.288-.761.92-.628 2.276.287 3.029l119.547 98.842 1.16.95L636.687 4.35c1.022-.603 1.37-1.92.769-2.943-.4-.684-1.122-1.071-1.857-1.071-.37 0-.739.094-1.078.296" mask="url(#9s8w7pkh4X)"/>
                </g>
                <g transform="translate(5 -3734) translate(-5 3734) translate(1301.037 517.465)">
                    <mask id="nwz0q4gdqaa" fill="#fff">
                        <use xlink:href="#homtxzeapY"/>
                    </mask>
                    <path fill="url(#r9vfmki2tZ)" d="M223.844 56.955c0 31.43-50.058 56.909-111.81 56.909-61.748 0-111.81-25.48-111.81-56.91C.223 25.53 50.285.05 112.033.05c61.752 0 111.81 25.48 111.81 56.905" mask="url(#nwz0q4gdqaa)"/>
                </g>
                <g transform="translate(5 -3734) translate(-5 3734) translate(1291.995 129.617)">
                    <mask id="p1dn6hgs5ac" fill="#fff">
                        <use xlink:href="#2ple5f3u1ab"/>
                    </mask>
                    <path d="M31.892 11.407L5.685 23.668l3.22 16.87C3.27 53.543.084 69.4.084 87.984c0 53.793 28.674 138.639 58.407 212.181L89.478 462.43l34.177-17.136s123.568-102.56 123.568-214.225c0-78.53-55.32-174.219-123.568-213.734-19.861-11.497-38.6-16.92-55.2-16.92-13.88 0-26.262 3.789-36.563 10.992" mask="url(#p1dn6hgs5ac)"/>
                </g>
                <g transform="translate(5 -3734) translate(-5 3734) translate(1256.831 147.704)">
                    <mask id="zjsh25z4cae" fill="#fff">
                        <use xlink:href="#jhpmjo3p9ad"/>
                    </mask>
                    <path fill="#FB3640" d="M.299 87.71c0 111.455 123.571 356.637 123.571 356.637S247.442 341.984 247.442 230.53c0-78.382-55.329-173.9-123.572-213.336C103.923 5.666 85.084.205 68.404.205 28.014.205.3 32.236.3 87.71" mask="url(#zjsh25z4cae)"/>
                </g>
                <g transform="translate(5 -3734) translate(-5 3734) translate(1299.027 142.68)">
                    <mask id="4dxpil45tag" fill="#fff">
                        <use xlink:href="#n2b3ulf8haf"/>
                    </mask>
                    <path fill="#D02A33" d="M90.847 17.219C55.114-3.379 23.014-4.451.403 10.249 22.333.35 51.218 3.178 82.995 21.495c68.406 39.437 123.863 134.95 123.863 213.336 0 95.504-90.884 184.27-116.916 207.738.539 1.08.905 1.807.905 1.807S214.71 342.01 214.71 230.555c0-78.387-55.457-173.9-123.863-213.336" mask="url(#4dxpil45tag)"/>
                </g>
                <g transform="translate(5 -3734) translate(-5 3734) translate(1327.158 237.13)">
                    <mask id="viodz537gaj" fill="#fff">
                        <use xlink:href="#llo3d9d7iah"/>
                    </mask>
                    <path fill="url(#kurr8kjdjai)" d="M.163 38.91c0 34.1 24.123 75.658 53.885 92.812 29.757 17.158 53.88 3.422 53.88-30.68 0-34.1-24.123-75.653-53.88-92.812C45.353 3.22 37.137.844 29.864.844 12.246.844.163 14.778.163 38.91" mask="url(#viodz537gaj)"/>
                </g>
                <g>
                    <path fill="#D1D3D4" d="M478.39 345.393c-29.709-17.152-53.796-58.69-53.796-92.78 0-13.495 3.822-23.737 10.23-30.2-16.031 1.437-26.829 15.061-26.829 37.864 0 34.09 24.083 75.623 53.795 92.776 17.942 10.362 33.792 9.39 43.566-.465-7.932.71-17.129-1.515-26.967-7.195" transform="translate(5 -3734) translate(-5 3734) translate(919.265 15.072)"/>
                    <g transform="translate(5 -3734) translate(-5 3734) translate(919.265 15.072)">
                        <mask id="drvi7t5h1al" fill="#fff">
                            <use xlink:href="#sbti8w6xqak"/>
                        </mask>
                        <path d="M95.07 122.281c31.412-16.847 43.212-55.967 26.364-87.376C104.58 3.501 65.457-8.303 34.044 8.545 2.638 25.394-9.167 64.514 7.686 95.924c16.849 31.404 55.973 43.207 87.385 26.356" mask="url(#drvi7t5h1al)"/>
                    </g>
                    <g transform="translate(5 -3734) translate(-5 3734) translate(919.265 15.072) translate(23.623 1091.812)">
                        <mask id="l33n0v9puan" fill="#fff">
                            <use xlink:href="#x3gufth9aam"/>
                        </mask>
                        <path d="M95.117 121.753c31.412-16.847 43.212-55.967 26.364-87.372C104.628 2.972 65.504-8.83 34.09 8.021 2.684 24.866-9.12 63.982 7.731 95.39c16.85 31.41 55.974 43.213 87.386 26.362" mask="url(#l33n0v9puan)"/>
                    </g>
                </g>
            </g>
        </g>
    </g>
</svg>
