<svg xmlns="http://www.w3.org/2000/svg" width="212" height="69" viewBox="0 0 212 69">
    <g fill="none" fill-rule="evenodd">
        <g>
            <g>
                <path fill="#000" fill-rule="nonzero" d="M211.423 59.675c0 5.149-4.175 9.325-9.325 9.325H9.751C4.6 69 .423 64.824.423 59.675V9.325C.423 4.174 4.6 0 9.751 0h192.347c5.15 0 9.325 4.176 9.325 9.324v50.35z" transform="translate(-895 -11271) translate(895 11271)"/>
                <g transform="translate(-895 -11271) translate(895 11271) translate(12 10)">
                    <rect width="46" height="46" y="1" fill="#E14459" fill-rule="nonzero" rx="3"/>
                    <path fill="#C73148" fill-rule="nonzero" d="M11.306 4c-.722.001-1.307.673-1.306 1.502C10 6.33 10.586 7 11.308 7c.722 0 1.307-.672 1.307-1.5v-.003C12.613 4.67 12.027 4 11.305 4zM34.69 4c-.722.001-1.307.673-1.306 1.502 0 .828.586 1.498 1.308 1.498C35.415 7 36 6.328 36 5.5v-.003C35.999 4.67 35.413 4 34.69 4z"/>
                    <path fill="#FFF" fill-rule="nonzero" d="M11.392 6c-.45.024-.427.67-.427.67 2.419 4.64 6.872 6.915 12.007 6.916 5.129-.008 9.626-2.309 12.042-6.943 0 0 .095-.872-.847-.57-2.477 4.045-6.639 6.438-11.192 6.445-4.561.002-8.708-2.366-11.19-6.419-.16-.076-.289-.104-.393-.098zm16.369 18.037l-1.376 4.037-1.34-4.034h-1.307l2.11 5.868h1.019l1.379-3.855 1.377 3.855h1.026l2.107-5.868H31.48l-1.342 4.034-1.376-4.037h-1.002zm-7.309.001l-2.67 5.867h1.256l.515-1.136.036-.085h2.774l.544 1.221h1.29l-2.646-5.832-.024-.035h-1.075zm19.335 0v5.863H41V24.04h-1.213zM5 24.04v5.87h1.23v-2.384h2.776v2.384h1.23v-5.87h-1.23v2.368H6.23V24.04H5zm10.928.001v3.36c0 .955-.49 1.465-1.378 1.465-.893 0-1.386-.524-1.386-1.505v-3.316h-1.229v3.357c0 1.651.948 2.598 2.6 2.598 1.666 0 2.622-.965 2.622-2.647v-3.312h-1.23zm17.82.002v5.863h4.575v-1.069H34.96v-1.453h2.236v-1.07H34.96v-1.201h3.246v-1.07h-4.459zm-12.775 1.48l.877 1.967.06.135h-1.86l.059-.135.864-1.966z"/>
                    <text fill="#FFF" font-family="Futura-Medium, Futura" font-size="13" font-weight="400">
                        <tspan x="57.611" y="14">EXPLORE IN </tspan>
                    </text>
                    <text fill="#FFF" font-family="Futura-Bold, Futura" font-size="20" font-weight="bold">
                        <tspan x="57.05" y="42">AppGallery</tspan>
                    </text>
                </g>
            </g>
        </g>
    </g>
</svg>
