<svg xmlns="http://www.w3.org/2000/svg" width="281" height="63" viewBox="0 0 281 63">
    <g fill="none" fill-rule="evenodd">
        <g fill-rule="nonzero">
            <g>
                <path fill="#7C8497" d="M158.868 0v61.237h13.402V34.022c0-5.103 2.683-8.747 7.067-8.747 4.388 0 7.068 2.915 7.068 8.506v27.457h13.405V28.19c0-6.318-2.925-13.123-13.16-13.609-10.235-.486-12.674 4.132-14.379 5.59V0h-13.403zm87.487 15.31v45.928h13.402V43.74h13.158V33.78h-13.158v-8.506h20.956V15.31h-34.358zm-123.796 0v45.928h13.404V43.74h13.156V33.78h-13.156v-8.506h20.955V15.31h-34.359zm-2.497 30.376c0 10.77-8.757 17.314-19.558 17.314s-19.558-6.544-19.558-17.314l-.06-30.376h13.356v29.768c0 2.578 1.379 4.96 3.618 6.25 2.24 1.289 4.998 1.289 7.237 0 2.24-1.29 3.619-3.672 3.619-6.25V15.31h11.405l-.059 30.376zM48.477 61.238l2.443-8.018h15.834l2.68 8.018h13.89L67.729 15.31H51.16L39.052 53.331 28.006 31.834 39.704 15.31H27.52L14.117 34.751v-19.44H.713v45.927h13.404v-9.964l5.361-7.29 8.774 17.254h20.225zm175.09-46.528c-11.703 0-21.194 7.031-21.194 18.704v10.205c0 11.674 9.49 18.704 21.194 18.704 11.707 0 21.198-7.031 21.198-18.704V33.414c0-11.673-9.493-18.704-21.198-18.704z" transform="translate(-240 -10158) translate(240 10158)"/>
                <path fill="#FFF" d="M59.098 28.815l4.871 14.727h-9.256l4.385-14.727zM224.133 54c-4.186-.002-7.578-3.42-7.578-7.638V31.636c0-4.217 3.394-7.636 7.58-7.636 4.185 0 7.578 3.419 7.578 7.636v14.726c0 4.219-3.394 7.638-7.58 7.638z" transform="translate(-240 -10158) translate(240 10158)"/>
            </g>
        </g>
    </g>
</svg>
