<svg xmlns="http://www.w3.org/2000/svg" width="60" height="66" viewBox="0 0 60 66">
    <g fill="none" fill-rule="evenodd">
        <g fill-rule="nonzero">
            <g>
                <g>
                    <path fill="#1D3461" d="M10.76 4.928c-17.637 15.41 5.061 30.346 2.9 47.184-.962 7.485 2.092 14.642 12.082 13.824 12.175-.997 7.755-12.53 10.305-20.21 4.387-13.213 31.375-10.126 20.188-30.48C49.095 2.259 22.9-5.676 10.76 4.929z" transform="translate(-236 -12651) translate(236 12651) translate(.131) matrix(1 0 0 -1 0 66)"/>
                    <g>
                        <g>
                            <g>
                                <path fill="#FB3640" d="M36.73 18.211c0 7.858-11.302 25.328-16.148 32.457-1.034 1.521-3.295 1.521-4.328 0C11.408 43.54.106 26.07.106 18.211.106 8.21 8.304.1 18.418.1 28.53.1 36.729 8.209 36.729 18.211z" transform="translate(-236 -12651) translate(236 12651) translate(.131) translate(.782 3.285) translate(8.341 4) translate(0 2.61)"/>
                                <g transform="translate(-236 -12651) translate(236 12651) translate(.131) translate(.782 3.285) translate(8.341 4) translate(0 2.61) translate(5.083 5.027)">
                                    <ellipse cx="13.335" cy="13.184" fill="#FFF" rx="13.305" ry="13.159"/>
                                    <path fill="#D9DBE7" d="M10.225 24.303c-.078.369.045 1.138.047 1.69-1.426-.333-2.763-.892-3.97-1.637-.446-1.163-.222-2.327-.266-3.674-.061-1.902-1.224-1.995-2.643-2.852-1.184-.716-2.27-1.438-3.146-2.27-.143-.77-.217-1.565-.217-2.376 0-2.626.778-5.073 2.119-7.126.233.296.574.39 1.148.415.355-.355.73-.44 1.124-.256l.167.381c-.031.283.048.529.238.74.411.061.81.012 1.195-.15.581-.116 1.222-.501 1.816-.52 2.42-.076.878 1.58.145 2.641-.836 1.214-1.212 2.933-2.761 3.497-1.133.412-2.513-.15-2.566 1.615-.041 1.392 1.59 2.87 2.822 3.288 1.506.512 3.444-.247 4.908.63 1.1.658.8 2.81.53 4.08-.14.648-.55 1.217-.69 1.884zM11.998 3.177c-.335.491-.853.88-1.014 1.45-.171.609.076 1.368-.374 1.815-.696-.466-.999-1.355-.969-2.185.018-.492.093-1.086-.308-1.378-.355-.26-.994-.186-1.118-.605-.053-.179.028-.38-.035-.555-.07-.193-.282-.289-.439-.423-.013-.011-.026-.024-.038-.037C9.178.576 10.8.154 12.509.05c.061 1.075.097 2.235-.511 3.127z"/>
                                    <path fill="#ADADAD" d="M10.122.551c0 .93-.202 1.813-.564 2.608-.05-.108-.122-.205-.225-.28-.355-.259-.994-.185-1.118-.606-.053-.178.028-.379-.035-.554-.07-.193-.282-.289-.44-.423l-.036-.036C8.472.903 9.28.618 10.12.412c.003.046.003.093.003.14z"/>
                                    <path fill="#D9DBE7" d="M26.64 13.184c0 5.322-3.195 9.906-7.79 11.979.17-.503.502-.982.752-1.463.438-.844.645-1.789.757-2.732.06-.503.04-1.12-.402-1.377-.23-.134-.512-.127-.779-.13-.471-.008-.941-.065-1.4-.17-.493-.113-1-.298-1.316-.69-.473-.584-.38-1.42-.262-2.16l.361-2.276c.099-.624.28-1.355.875-1.585.407-.157.862-.013 1.299.02 1.284.093 2.476-.808 3.761-.741.226.012.455.053.673-.006.155-.042.294-.134.412-.244.675-.625.653-1.687.456-2.581-.087-.392-.206-.796-.481-1.091-.277-.295-.751-.443-1.101-.238-.562.33-.503 1.32-1.123 1.523-.548.18-1.114-.453-1.666-.287-.77.23-.48 1.563-1.165 1.98-.356.215-.818.08-1.188-.107-.46-.234-.917-.602-.977-1.11-.08-.677.562-1.206 1.16-1.546.597-.34 1.29-.719 1.426-1.386.045-.223.02-.454.069-.675.138-.644.824-1.01 1.458-1.21.634-.2 1.34-.354 1.762-.863.102-.123.183-.26.262-.4 2.565 2.4 4.166 5.798 4.166 9.566z"/>
                                    <path fill="#ADADAD" d="M26.639 13.184c0 2.198-.545 4.27-1.51 6.09-.28-.713-.436-1.492-.436-2.305 0-1.777.737-3.383 1.924-4.537.014.25.022.5.022.752z"/>
                                </g>
                            </g>
                            <g transform="translate(-236 -12651) translate(236 12651) translate(.131) translate(.782 3.285) translate(8.341 4) translate(2.216)">
                                <g transform="translate(27.5 16.5)">
                                    <ellipse cx="6.493" cy="6.399" fill="#D02A33" rx="6.433" ry="6.363"/>
                                    <path fill="#FFF" d="M8.614 5.417c0-1.214-.999-2.202-2.227-2.202-1.227 0-2.226.988-2.226 2.202 0 .599.244 1.142.637 1.54-.393.397-.637.94-.637 1.538 0 .366.3.663.67.663.37 0 .67-.297.67-.663 0-.483.398-.876.886-.876.49 0 .887.393.887.876 0 .366.3.663.67.663.37 0 .67-.297.67-.663 0-.598-.244-1.141-.637-1.539.393-.397.637-.94.637-1.54zM6.387 4.54c.49 0 .887.393.887.877 0 .483-.398.876-.887.876-.488 0-.886-.393-.886-.876s.398-.877.886-.877z"/>
                                </g>
                                <g transform="translate(0 36.61)">
                                    <ellipse cx="6.556" cy="6.46" fill="#D02A33" rx="6.433" ry="6.363"/>
                                    <path fill="#FFF" d="M9.114 5.307c0-1.214-.999-2.202-2.227-2.202-1.227 0-2.226.988-2.226 2.202 0 .6.244 1.142.637 1.54-.393.397-.637.94-.637 1.539 0 .366.3.663.67.663.37 0 .67-.297.67-.663 0-.483.398-.877.886-.877.49 0 .887.394.887.877 0 .366.3.663.67.663.37 0 .67-.297.67-.663 0-.599-.244-1.142-.637-1.54.393-.397.637-.94.637-1.539zm-2.227-.876c.49 0 .887.393.887.876 0 .484-.398.877-.887.877-.488 0-.886-.393-.886-.877 0-.483.398-.876.886-.876z"/>
                                </g>
                                <ellipse cx="6.556" cy="6.374" fill="#D02A33" rx="6.433" ry="6.363"/>
                                <path fill="#FFF" d="M9.114 5.917c0-1.214-.999-2.202-2.227-2.202-1.227 0-2.226.988-2.226 2.202 0 .599.244 1.142.637 1.54-.393.396-.637.94-.637 1.538 0 .366.3.663.67.663.37 0 .67-.297.67-.663 0-.483.398-.876.886-.876.49 0 .887.393.887.876 0 .366.3.663.67.663.37 0 .67-.297.67-.663 0-.598-.244-1.141-.637-1.539.393-.397.637-.94.637-1.54zM6.887 5.04c.49 0 .887.393.887.877 0 .483-.398.876-.887.876-.488 0-.886-.393-.886-.876 0-.484.398-.877.886-.877z"/>
                            </g>
                        </g>
                        <path fill="#FB3640" d="M5.169 15.9c-.36 0-.652-.288-.652-.644 0-.427-.35-.774-.782-.774-.36 0-.651-.288-.651-.644 0-.356.291-.645.651-.645.431 0 .782-.347.782-.773 0-.356.292-.645.652-.645.36 0 .651.289.651.645 0 .426.351.773.782.773.36 0 .652.289.652.645 0 .356-.292.644-.652.644-.43 0-.782.347-.782.774 0 .356-.291.644-.651.644zM41.594 53.184c-.36 0-.652-.289-.652-.645 0-.426-.35-.773-.782-.773-.36 0-.651-.289-.651-.645 0-.356.291-.644.651-.644.432 0 .782-.347.782-.774 0-.356.292-.644.652-.644.36 0 .652.288.652.644 0 .427.35.774.782.774.36 0 .651.288.651.644 0 .356-.291.645-.651.645-.432 0-.782.347-.782.773 0 .356-.292.645-.652.645zM2.121 24.305c-.36 0-.652-.289-.652-.645 0-.426-.35-.773-.782-.773-.36 0-.651-.288-.651-.645 0-.356.292-.644.651-.644.432 0 .782-.347.782-.773 0-.357.292-.645.652-.645.36 0 .652.288.652.645 0 .426.35.773.782.773.36 0 .651.288.651.644 0 .357-.291.645-.651.645-.432 0-.782.347-.782.773 0 .356-.292.645-.652.645zM44.55 46.486c-.167 0-.334-.063-.46-.19l-1.434-1.417c-.255-.252-.255-.66 0-.911l1.433-1.418c.255-.252.667-.252.922 0l1.433 1.418c.255.251.255.66 0 .91l-1.433 1.419c-.127.126-.294.189-.461.189zm-.512-2.063l.512.507.512-.507-.512-.506-.512.506zM43.303 4.84c-.166 0-.333-.063-.46-.189l-1.434-1.418c-.255-.252-.255-.66 0-.911L42.843.904c.254-.252.667-.252.921 0l1.434 1.418c.254.251.254.66 0 .911l-1.434 1.418c-.127.126-.294.189-.46.189zm-.512-2.063l.512.507.512-.507-.512-.506-.512.506z" transform="translate(-236 -12651) translate(236 12651) translate(.131) translate(.782 3.285)"/>
                    </g>
                </g>
                <g fill="#000">
                    <path d="M15.974 54.581c.592.882 1.579 1.408 2.64 1.408 1.06 0 2.048-.526 2.64-1.408 3.762-5.597 10.508-16.14 13.867-24.473.282.035.568.055.86.055 3.812 0 6.915-3.103 6.915-6.918 0-3.748-2.996-6.808-6.717-6.913-1.127-3.39-3.196-6.364-6.002-8.612-2.918-2.34-6.43-3.724-10.153-4.005-.35-.023-.656.237-.682.587-.026.35.236.656.586.683 3.467.26 6.736 1.55 9.454 3.728 2.526 2.024 4.413 4.679 5.483 7.705-3.285.535-5.8 3.392-5.8 6.827 0 3.075 2.016 5.687 4.796 6.585-1.556 3.802-5.285 11.574-13.663 24.041-.36.537-.938.845-1.584.845-.646 0-1.224-.308-1.585-.845-.492-.732-.99-1.483-1.481-2.231-.193-.294-.587-.376-.881-.184-.294.193-.376.588-.183.882.494.753.995 1.507 1.49 2.243zm14.363-31.336c0-3.113 2.531-5.646 5.643-5.646 3.112 0 5.643 2.533 5.643 5.646s-2.531 5.646-5.643 5.646c-3.112 0-5.643-2.533-5.643-5.646z" transform="translate(-236 -12651) translate(236 12651) translate(9.131 7)"/>
                    <path d="M2.283 43.16c0 3.815 3.102 6.918 6.915 6.918s6.916-3.103 6.916-6.918-3.103-6.918-6.916-6.918c-.904 0-1.767.176-2.56.493-3.491-6.63-5.262-11.527-5.262-14.555 0-3.655 1.122-7.125 3.246-10.07 1.22 1.08 2.822 1.738 4.576 1.738 3.813 0 6.916-3.104 6.916-6.918C16.114 3.115 13.01.01 9.198.01S2.283 3.115 2.283 6.93c0 1.594.543 3.063 1.452 4.234C1.359 14.369.103 18.172.103 22.18c0 3.233 1.819 8.325 5.403 15.135-1.935 1.227-3.223 3.388-3.223 5.845zM9.198 1.284c3.112 0 5.643 2.533 5.643 5.646s-2.531 5.645-5.643 5.645c-3.112 0-5.643-2.532-5.643-5.645 0-3.113 2.531-5.646 5.643-5.646zm0 36.23c3.112 0 5.643 2.533 5.643 5.646s-2.531 5.646-5.643 5.646c-3.112 0-5.643-2.533-5.643-5.646s2.531-5.646 5.643-5.646z" transform="translate(-236 -12651) translate(236 12651) translate(9.131 7)"/>
                </g>
            </g>
        </g>
    </g>
</svg>
