<svg xmlns="http://www.w3.org/2000/svg" width="76" height="61" viewBox="0 0 76 61">
    <g fill="none" fill-rule="evenodd">
        <g fill-rule="nonzero">
            <g>
                <path fill="#81CFFA" d="M74.497 15.317C71.178 6.786 60.955 1.67 52.297 5.055c-9.883 3.865-6.606 19.746-15.583 22.958-4.85 1.734-12.018-4.746-16.918-5.74-9.028-1.83-17.2 4.605-19.213 13.517-2.053 9.092 1.24 21.236 11.128 23.704 11.778 2.94 17.914-7.757 27.794-10.829 10.14-3.152 21.414 4.292 29.809-4.765 6.201-6.691 8.469-20.136 5.183-28.583z" transform="translate(-240 -12899) translate(240 12899)"/>
                <g>
                    <g transform="translate(-240 -12899) translate(240 12899) translate(9) translate(0 3.738)">
                        <g fill="#2149FE">
                            <path d="M55.804 39.132H3.112c-1.652 0-2.99-1.339-2.99-2.99V3.039c0-1.652 1.338-2.99 2.99-2.99h52.692c1.651 0 2.99 1.338 2.99 2.99v33.103c0 1.651-1.339 2.99-2.99 2.99z" transform="translate(.748 7.625)"/>
                            <path d="M30.369.31l28.425 21.832c0 1.651-1.338 2.99-2.99 2.99H3.112c-1.652 0-2.99-1.339-2.99-2.99L28.546.31c.537-.413 1.285-.413 1.822 0z" transform="translate(.748 7.625) translate(0 14)"/>
                            <path d="M28.547 24.871L.121 3.04c0-1.652 1.34-2.99 2.991-2.99h52.692c1.651 0 2.99 1.338 2.99 2.99L30.37 24.87c-.537.413-1.285.413-1.822 0z" transform="translate(.748 7.625)"/>
                        </g>
                        <g fill="#FFF">
                            <path d="M24.217 4.953H19.41c-.412 0-.747-.335-.747-.748V.893c0-.413.335-.748.747-.748h4.806c.412 0 .747.335.747.748v3.312c0 .413-.335.748-.747.748z" transform="translate(23.178 37.826)"/>
                            <g>
                                <path d="M15.383 1.606H11.22c-.413 0-.748-.335-.748-.747 0-.413.335-.748.748-.748h4.162c.413 0 .747.335.747.748 0 .412-.334.747-.747.747zM15.383 4.653H.753c-.413 0-.747-.334-.747-.747s.334-.748.747-.748h14.63c.413 0 .747.335.747.748s-.334.747-.747.747z" transform="translate(23.178 37.826) translate(0 .299)"/>
                            </g>
                        </g>
                        <ellipse cx="52.535" cy="11.451" fill="#8CC27B" rx="10.694" ry="10.692"/>
                        <path fill="#1B3CD1" d="M52.535 22.891c6.31 0 11.442-5.131 11.442-11.44 0-6.308-5.133-11.44-11.442-11.44s-11.441 5.132-11.441 11.44c0 3.67 1.738 6.94 4.434 9.034L30.66 31.903c-.268.206-.642.206-.91 0L1.643 10.316C1.81 9.244 2.74 8.421 3.86 8.421h34.297c.413 0 .748-.334.748-.747s-.335-.748-.748-.748H3.86c-2.061 0-3.738 1.677-3.738 3.738v33.103c0 2.06 1.677 3.738 3.738 3.738H56.55c2.062 0 3.739-1.677 3.739-3.738V24.01c0-.413-.335-.748-.748-.748s-.748.335-.748.748V42.25L39.22 27.215l7.618-5.85c1.679.969 3.624 1.526 5.698 1.526zm-31.343 4.324L1.617 42.25V12.18l19.575 15.035zm37.573 16.898c-.167 1.072-1.095 1.897-2.214 1.897H3.86c-1.12 0-2.046-.825-2.214-1.897L22.42 28.158l6.42 4.93c.403.31.885.464 1.367.464s.964-.154 1.366-.463l6.42-4.931 20.773 15.955zM42.589 11.45c0-5.483 4.462-9.945 9.946-9.945 5.485 0 9.947 4.462 9.947 9.945 0 5.484-4.462 9.945-9.947 9.945-5.484 0-9.946-4.461-9.946-9.945z"/>
                        <path fill="#FFF" d="M47.868 7.805l1.526 3.646-1.526 3.647c-.26.62.366 1.24.983.976l9.214-3.935c.605-.259.605-1.117 0-1.375L48.85 6.829c-.617-.264-1.243.357-.983.976z"/>
                        <path fill="#D9DBE7" d="M52.875 12.15l-4.594 1.962 1.112-2.66L48.28 8.79l4.596 1.963c.573.245.573 1.153 0 1.396z"/>
                    </g>
                    <path fill="#000" d="M41.395 4.436c-.556 0-1.11-.211-1.533-.634-.846-.845-.846-2.22 0-3.066.845-.845 2.22-.845 3.066 0 .845.846.845 2.221 0 3.066-.423.423-.978.634-1.533.634zm0-2.84c-.172 0-.345.066-.476.198-.262.262-.262.689 0 .951s.689.262.952 0c.262-.262.262-.69 0-.951-.132-.132-.304-.197-.476-.197zM24.604 60.898c-.555 0-1.11-.212-1.533-.634-.846-.846-.846-2.221 0-3.066.845-.845 2.22-.845 3.066 0 .845.845.845 2.22 0 3.066-.423.422-.978.634-1.533.634zm0-2.84c-.172 0-.345.066-.476.197-.262.262-.262.69 0 .951.262.263.689.263.952 0 .262-.262.262-.689 0-.951-.132-.131-.304-.197-.476-.197zM6.589 7.915c-.192 0-.383-.073-.529-.219l-.892-.891-.892.891c-.292.292-.765.292-1.057 0-.292-.292-.292-.765 0-1.057l1.42-1.42c.292-.292.766-.292 1.058 0l1.42 1.42c.292.292.292.766 0 1.057-.145.146-.337.22-.528.22zM57.682 58.058c-.192 0-.383-.073-.529-.219l-.892-.892-.892.892c-.292.292-.765.292-1.057 0-.292-.292-.292-.765 0-1.057l1.42-1.42c.292-.292.766-.292 1.058 0l1.42 1.42c.292.292.292.765 0 1.057-.146.146-.337.219-.528.219zM4.589 57.915c-.192 0-.383-.073-.529-.219l-.892-.891-.892.891c-.292.292-.765.292-1.057 0-.292-.292-.292-.765 0-1.057l1.42-1.42c.292-.292.766-.292 1.058 0l1.42 1.42c.292.292.292.766 0 1.057-.146.146-.337.22-.528.22z" transform="translate(-240 -12899) translate(240 12899) translate(9)"/>
                </g>
            </g>
        </g>
    </g>
</svg>
