<svg xmlns="http://www.w3.org/2000/svg" width="93" height="94" viewBox="0 0 93 94">
    <g fill="none" fill-rule="evenodd">
        <g fill-rule="nonzero">
            <g>
                <path fill="#1D3461" d="M75.167 2.37C65.164.656 43.129 4.563 39.229 21.273c-2.593 11.11-2.517 20.173-9.062 20.344-3.893.1-5.924-7.976-11.3-8.64-7.016-.868-11.885 4.984-14.924 10.284-6.686 11.66-4.595 31.486 4.196 41.154C29.43 107.831 54.714 83.344 65.524 64.2c6.933-12.279 22.575-22.204 25.833-36.045 2.727-11.588-3.325-23.581-16.19-25.785z" transform="translate(-809 -5478) translate(809.47 5478)"/>
                <g>
                    <g transform="translate(-809 -5478) translate(809.47 5478) translate(12) translate(9.919 7)">
                        <path fill="#000" d="M40.438 79.986H6.45c-2.988 0-5.41-2.407-5.41-5.377V6.391c0-2.97 2.422-5.377 5.41-5.377h33.988c2.988 0 5.41 2.407 5.41 5.377v68.218c0 2.97-2.422 5.377-5.41 5.377z"/>
                        <path fill="#FFF" d="M1.041 8.704L45.848 8.704 45.848 72.296 1.041 72.296z"/>
                        <path fill="#FB3640" d="M9.797 28.79l-.973.966c-.353.35-.353.917 0 1.267l.973.968c.508.504.793 1.187.793 1.9v38.405H1.04V8.704h9.55v18.184c0 .714-.286 1.398-.793 1.902z"/>
                        <path fill="#000" d="M40.438 80.882H6.45c-3.48 0-6.311-2.814-6.311-6.273V6.391C.139 2.932 2.97.118 6.45.118h33.988c3.48 0 6.312 2.814 6.312 6.273v68.218c0 3.459-2.832 6.273-6.312 6.273zM6.45 1.91c-2.486 0-4.508 2.01-4.508 4.48v68.22c0 2.47 2.022 4.48 4.508 4.48h33.988c2.486 0 4.509-2.01 4.509-4.48V6.39c0-2.47-2.023-4.48-4.509-4.48H6.45z"/>
                        <path fill="#D9DBE7" d="M26.597 5.92h-6.306c-.498 0-.901-.402-.901-.897s.403-.896.901-.896h6.306c.498 0 .902.401.902.896s-.404.896-.902.896z"/>
                        <circle cx="30.804" cy="5.023" r="1" fill="#D9DBE7"/>
                        <path fill="#FFF" d="M6.717 21.614v-2.63c0-.495-.404-.897-.902-.897s-.902.402-.902.896v2.631c0 .495.404.896.902.896s.902-.4.902-.896z"/>
                        <path fill="#D02A33" d="M14.308 20.388h13.468c.498 0 .902-.402.902-.896 0-.495-.404-.896-.902-.896H14.308c-.498 0-.902.4-.902.896 0 .494.404.896.902.896z"/>
                        <path fill="#FB3640" d="M14.308 23.684h8.058c.498 0 .901-.401.901-.896s-.403-.896-.901-.896h-8.058c-.498 0-.902.401-.902.896s.404.896.902.896z"/>
                        <path fill="#FFF" d="M6.717 31.706v-2.631c0-.495-.404-.896-.902-.896s-.902.4-.902.896v2.63c0 .495.404.897.902.897s.902-.401.902-.896zM6.717 41.797v-2.631c0-.495-.404-.896-.902-.896s-.902.401-.902.896v2.63c0 .496.404.897.902.897s.902-.401.902-.896zM6.717 51.888v-2.63c0-.495-.404-.897-.902-.897s-.902.402-.902.896v2.631c0 .495.404.896.902.896s.902-.401.902-.896z"/>
                        <g transform="translate(14.066 25.805)">
                            <path fill="#D9DBE7" d="M28.75 4.165v16.162c0 .99-.806 1.792-1.804 1.792H1.848c-.997 0-1.803-.803-1.803-1.792V4.165c0-.99.806-1.792 1.803-1.792h25.098c.998 0 1.804.802 1.804 1.792z"/>
                            <ellipse cx="24.282" cy="2.374" fill="#FB3640" rx="2.302" ry="2.287"/>
                        </g>
                        <g transform="translate(14.066 52.686)">
                            <path fill="#D9DBE7" d="M28.75 4.177V19.61H.045V4.177c0-.989.806-1.792 1.803-1.792h25.098c.998 0 1.804.803 1.804 1.792z"/>
                            <ellipse cx="24.282" cy="2.386" fill="#FB3640" rx="2.302" ry="2.287"/>
                        </g>
                        <path fill="#D02A33" d="M41.915 15.69H13.93c-.498 0-.902-.4-.902-.895V12.82c0-.495.404-.897.902-.897h27.985c.498 0 .902.402.902.897v1.975c0 .495-.404.896-.902.896z"/>
                        <path fill="#D02A33" d="M41.915 11.923h-3.702v3.768h3.702c.498 0 .902-.401.902-.896V12.82c0-.495-.404-.897-.902-.897z"/>
                        <g fill="#FFF">
                            <path d="M12.83 7.842H.985c-.498 0-.902.402-.902.897 0 .494.404.896.902.896H12.83c.498 0 .902-.402.902-.896 0-.495-.404-.897-.902-.897zM12.83 4.36H.985c-.498 0-.902.402-.902.897s.404.896.902.896H12.83c.498 0 .902-.401.902-.896s-.404-.896-.902-.896zM3.092.177H.985c-.498 0-.902.402-.902.896 0 .495.404.896.902.896h2.107c.497 0 .901-.4.901-.896 0-.494-.404-.896-.901-.896z" transform="translate(18.214 31.898)"/>
                        </g>
                        <g fill="#FFF">
                            <path d="M12.83 7.693H.985c-.498 0-.902.402-.902.896 0 .495.404.896.902.896H12.83c.498 0 .902-.4.902-.896 0-.494-.404-.896-.902-.896zM12.83 4.212H.985c-.498 0-.902.401-.902.896s.404.896.902.896H12.83c.498 0 .902-.401.902-.896s-.404-.896-.902-.896zM3.092.028H.985C.487.028.083.43.083.924c0 .495.404.896.902.896h2.107c.497 0 .901-.4.901-.896 0-.494-.404-.896-.901-.896z" transform="translate(18.214 58.958)"/>
                        </g>
                    </g>
                    <path fill="#FB3640" d="M64.613 30.198c-1.42 0-2.577-1.15-2.577-2.561 0-1.413 1.156-2.562 2.577-2.562 1.422 0 2.578 1.15 2.578 2.562s-1.156 2.56-2.578 2.56zm0-3.33c-.426 0-.773.345-.773.769 0 .424.347.769.773.769.427 0 .774-.345.774-.77 0-.423-.347-.768-.774-.768zM3.022 25.252c-1.421 0-2.577-1.149-2.577-2.561S1.6 20.13 3.022 20.13s2.577 1.149 2.577 2.56c0 1.413-1.156 2.562-2.577 2.562zm0-3.33c-.427 0-.774.345-.774.77 0 .423.347.768.774.768.427 0 .774-.345.774-.769 0-.424-.347-.77-.774-.77zM12.03 13c-.777 0-1.407-.63-1.407-1.406 0-.93-.756-1.688-1.687-1.688-.777 0-1.406-.63-1.406-1.406 0-.777.63-1.406 1.406-1.406.93 0 1.687-.757 1.687-1.688 0-.776.63-1.406 1.407-1.406s1.406.63 1.406 1.406c0 .93.757 1.688 1.687 1.688.777 0 1.407.63 1.407 1.406 0 .777-.63 1.406-1.407 1.406-.93 0-1.687.757-1.687 1.688 0 .776-.63 1.406-1.406 1.406z" transform="translate(-809 -5478) translate(809.47 5478) translate(12)"/>
                    <g>
                        <path fill="#FB3640" d="M3.74 76.912c-.499 0-.903-.402-.903-.897 0-.592-.485-1.075-1.082-1.075-.498 0-.901-.401-.901-.896s.403-.896.901-.896c.597 0 1.082-.482 1.082-1.075 0-.495.404-.896.902-.896s.902.401.902.896c0 .593.485 1.075 1.082 1.075.498 0 .902.401.902.896s-.404.896-.902.896c-.597 0-1.082.483-1.082 1.075 0 .495-.404.897-.902.897z" transform="translate(-809 -5478) translate(809.47 5478) translate(12) translate(64.676 .823)"/>
                        <path fill="#2C3641" d="M3.597 5.912c-.498 0-.902-.402-.902-.897 0-.592-.485-1.075-1.082-1.075-.498 0-.902-.401-.902-.896s.404-.896.902-.896c.597 0 1.082-.482 1.082-1.075 0-.495.404-.896.902-.896s.902.401.902.896c0 .593.485 1.075 1.082 1.075.498 0 .901.401.901.896s-.403.896-.901.896c-.597 0-1.082.483-1.082 1.075 0 .495-.404.897-.902.897z" transform="translate(-809 -5478) translate(809.47 5478) translate(12) translate(64.676 .823)"/>
                    </g>
                </g>
            </g>
        </g>
    </g>
</svg>
