<svg xmlns="http://www.w3.org/2000/svg" width="125" height="162" viewBox="0 0 125 162">
    <g fill="none" fill-rule="evenodd">
        <g>
            <g>
                <path fill="#8CC27B" d="M0 0h82.772v155.186c0 3.314-2.687 6-6 6H6c-3.314 0-6-2.686-6-6V0z" opacity=".1" transform="translate(-787 -1872) translate(787 1872)"/>
                <path fill="#81CFFA" fill-rule="nonzero" d="M124.682 85c0-6.199-2.808-12.01-7.714-17.014-3.414-3.481-6.257-7.47-8.426-11.834C101.604 42.194 89.775 33 76.347 33c-9.542 0-18.276 4.644-25.022 12.34-4.465 5.094-10.103 9.002-16.393 11.525C19.694 62.976 9.682 73.297 9.682 85c0 11.703 10.012 22.024 25.25 28.135 6.29 2.524 11.928 6.431 16.393 11.525 6.746 7.696 15.48 12.34 25.023 12.34 13.427 0 25.256-9.194 32.194-23.152 2.17-4.365 5.012-8.353 8.426-11.834 4.906-5.004 7.714-10.815 7.714-17.014z" transform="translate(-787 -1872) translate(787 1872)"/>
                <g fill-rule="nonzero" transform="translate(-787 -1872) translate(787 1872) translate(24 40)">
                    <circle cx="33" cy="33" r="32" fill="#77A868"/>
                    <circle cx="32.5" cy="32.5" r="23.5" fill="#FFF"/>
                    <path fill="#2149FE" d="M33 17c-4.418 0-8 3.71-8 8.289C24.954 33.196 33 43 33 43s8.046-9.807 8-17.711C41 20.71 37.418 17 33 17zm0 11.205c-1.555 0-2.815-1.306-2.815-2.916 0-1.611 1.26-2.917 2.815-2.917s2.815 1.306 2.815 2.917c0 .773-.295 1.516-.824 2.064-.528.547-1.244.855-1.991.854v-.002z"/>
                    <path fill="#8CC27B" d="M36.522 37.961c-1.073 1.71-2.25 3.35-3.524 4.912-1.274-1.562-2.451-3.203-3.524-4.912-5.747.584-9.976 2.562-9.976 4.912 0 2.81 6.045 5.088 13.5 5.088 7.457 0 13.5-2.276 13.5-5.088 0-2.35-4.23-4.328-9.976-4.912zM89.828 79.341L60.488 50l-.03.03c-2.625 4.235-6.193 7.803-10.427 10.427l-.031.03 29.341 29.341c2.896 2.896 7.591 2.896 10.487 0s2.896-7.59 0-10.487z"/>
                    <g fill="#2149FE">
                        <path d="M15.794 15.794c-8.374 8.373-9.668 21.495-3.09 31.342 6.578 9.847 19.196 13.676 30.137 9.145 10.94-4.53 17.157-16.16 14.848-27.774-2.31-11.614-12.502-19.98-24.343-19.98-6.587-.02-12.907 2.598-17.552 7.267zm39.638 17.552c0 10.536-7.443 19.606-17.777 21.662-10.334 2.056-20.682-3.474-24.714-13.209-4.033-9.734-.627-20.962 8.134-26.816 8.76-5.855 20.437-4.705 27.888 2.746 4.155 4.132 6.485 9.756 6.469 15.617z"/>
                        <path d="M90.412 78.133L62.215 49.94c9.006-15.699 3.839-35.716-11.64-45.094-.64-.342-1.437-.124-1.814.497-.376.62-.203 1.427.396 1.838 13.887 8.39 18.798 26.17 11.186 40.5-7.612 14.328-25.094 20.212-39.821 13.402-14.727-6.81-21.567-23.94-15.58-39.02C10.93 6.982 27.656-.793 43.044 4.353c.464.155.974.05 1.34-.274.366-.324.53-.818.433-1.297-.098-.479-.443-.869-.907-1.024-14.52-4.846-30.472.833-38.664 13.763S-1.265 45.3 9.318 56.358c10.584 11.058 27.344 13.475 40.62 5.857l8.597 8.596c.534.534 1.4.534 1.934 0s.534-1.4 0-1.933l-8.165-8.164c3.291-2.268 6.142-5.119 8.41-8.41l27.764 27.763c1.503 1.502 2.09 3.692 1.54 5.745-.55 2.052-2.154 3.655-4.206 4.205-2.053.55-4.243-.037-5.745-1.54l-7.782-7.78c-.534-.534-1.4-.534-1.933 0-.534.534-.534 1.4 0 1.933l7.781 7.782c2.194 2.193 5.39 3.05 8.387 2.247 2.996-.803 5.336-3.143 6.139-6.14.803-2.996-.054-6.192-2.247-8.386z"/>
                    </g>
                </g>
                <path fill="#000" fill-rule="nonzero" d="M45.682 36c-.255 0-.512-.098-.707-.293-.39-.39-.39-1.024 0-1.414l2-2c.39-.39 1.024-.39 1.414 0 .391.39.391 1.024 0 1.414l-2 2c-.195.195-.45.293-.707.293zM110.682 96c-.255 0-.512-.098-.707-.293-.39-.39-.39-1.024 0-1.414l2-2c.39-.39 1.024-.39 1.414 0 .391.39.391 1.024 0 1.414l-2 2c-.195.195-.45.293-.707.293zM55.833 128c-.298 0-.597-.098-.824-.293l-1.509-1.293-1.509 1.293c-.455.39-1.194.39-1.65 0-.455-.39-.455-1.024 0-1.414l2.334-2c.455-.39 1.195-.39 1.65 0l2.333 2c.456.39.456 1.024 0 1.414-.227.195-.526.293-.825.293zM100.516 36c-.299 0-.598-.098-.825-.293l-1.509-1.293-1.508 1.293c-.455.39-1.195.39-1.65 0-.456-.39-.456-1.024 0-1.414l2.334-2c.455-.39 1.194-.39 1.65 0l2.333 2c.455.39.455 1.024 0 1.414-.228.195-.527.293-.825.293z" transform="translate(-787 -1872) translate(787 1872)"/>
            </g>
        </g>
    </g>
</svg>
