<svg xmlns="http://www.w3.org/2000/svg" xmlns:xlink="http://www.w3.org/1999/xlink" width="587" height="248" viewBox="0 0 587 248">
    <defs>
        <path id="5liu0jx5va" d="M.765 20.143C.765 31.268 20.265 56 20.265 56s19.5-24.732 19.5-35.857S31.035 0 20.265 0 .765 9.018.765 20.143m10.385-.205c0-5.2 4.08-9.415 9.115-9.415 5.034 0 9.114 4.215 9.114 9.415 0 5.2-4.08 9.415-9.114 9.415-5.034 0-9.115-4.215-9.115-9.415"/>
    </defs>
    <g fill="none" fill-rule="evenodd">
        <g>
            <g>
                <path fill="#1D3461" d="M586.843 237.568c-.034.923.018 4.05.157 9.379-383.426 1.404-574.804 1.404-574.133 0 1.528-3.174 3.26-6.32 5.148-9.437.414-.664.827-1.328 1.241-1.962 2.095-3.318 4.396-6.58 6.904-9.783 3.026-3.897 6.336-7.735 9.904-11.428.802-.837 1.603-1.646 2.405-2.454.18-.173.362-.346.543-.548.465-.433.931-.895 1.396-1.327 1.965-1.906 3.88-3.695 5.767-5.426.956-.866 1.887-1.703 2.818-2.54 1.836-1.645 3.62-3.261 5.327-4.82 5.249-4.819 9.904-9.35 13.575-14.457 1.267-1.732 2.405-3.55 3.414-5.427 1.836-3.434 3.258-7.156 4.189-11.37.207-1.067.414-2.165.569-3.29.465-3.059.698-6.377.62-10.014-.025-2.856-.232-5.945-.62-9.236-.078-.692-.181-1.413-.285-2.164-.543-4.068-1.37-8.484-2.482-13.304-.31-1.355-.647-2.74-1.009-4.155-.62-2.454-1.112-4.877-1.5-7.243-.75-4.59-1.06-9.005-1.008-13.305.026-3.895.362-7.676 1.009-11.313v-.058c.569-3.462 1.396-6.81 2.405-10.043 12.385-39.306 54.534-62.537 65.73-67.732 15.955-7.418 34.858-11.573 54.484-13.102 1.603-.116 3.206-.23 4.81-.318 4.525-.26 9.102-.375 13.653-.375 1.862 0 3.698.03 5.534.058 3.077.086 6.128.202 9.205.404 2.844.173 5.663.375 8.482.635 11.688 1.097 23.09 2.944 33.693 5.426 9.645 2.25 18.333 5.078 26.246 8.34l.026.029c18.67 7.705 32.787 17.777 44.062 28.253 2.611 2.424 5.094 4.877 7.421 7.33.31.318.647.664.957 1.01.724.75 1.422 1.5 2.12 2.28.31.346.647.693.957 1.04 2.043 2.278 4.008 4.559 5.87 6.78l2.767 3.348c4.913 6.06 9.257 11.717 13.394 16.594.517.636 1.035 1.212 1.552 1.818 7.11 8.081 13.705 13.564 21.772 14.17 5.069.375 10.99-.577 17.635-2.02.673-.144 1.32-.288 1.992-.461 10.214-2.28 22.108-5.513 35.322-6.868 17.066-1.762 36.382-.377 57.224 10.186.672.347 1.319.694 1.991 1.039 3.052 1.646 6.129 3.464 9.232 5.512.646.405 1.293.838 1.939 1.27 3.155 2.164 6.361 4.56 9.593 7.215.078.058.155.115.233.203 1.397 1.124 2.793 2.336 4.19 3.578 1.628 1.443 3.283 2.943 4.938 4.53 3.982 3.838 8.042 8.052 12.101 12.727 2.948 3.377 5.69 6.783 8.172 10.245 1.732 2.367 3.361 4.763 4.861 7.158.284.433.543.866.828 1.298 2.585 4.243 4.913 8.514 6.981 12.814.233.52.491 1.068.75 1.588 2.715 5.945 4.965 11.918 6.749 17.863.155.519.31 1.01.465 1.501.776 2.683 1.448 5.367 2.07 8.052.827 3.665 1.499 7.3 2.042 10.936 1.396 9.265 1.888 18.384 1.732 27.157-.025 1.415-.051 2.828-.129 4.214z" transform="translate(-1015 -7953) translate(1015 7953) matrix(1 0 0 -1 0 248.316)"/>
                <path fill="#FB3640" d="M85.5 149.825c-6.845 0-12.392-5.701-12.392-12.764 0-1.728.335-3.369.942-4.88 1.863-4.644 6.28-7.905 11.45-7.905 6.845 0 12.392 5.723 12.392 12.785 0 6.113-4.145 11.188-9.692 12.44-.858.216-1.779.324-2.7.324m0-39.825c-6.322 0-12.14 2.29-16.704 6.112C62.81 121.144 59 128.79 59 137.342 59 152.44 85.5 186 85.5 186s12.036-15.247 19.864-29.804c3.81-7.04 6.636-13.93 6.636-18.854C112 122.246 100.132 110 85.5 110" transform="translate(-1015 -7953) translate(1015 7953)"/>
                <g transform="translate(-1015 -7953) translate(1015 7953) translate(529 154)">
                    <mask id="3w3ylgse0b" fill="#fff">
                        <use xlink:href="#5liu0jx5va"/>
                    </mask>
                    <path fill="#FB3640" d="M.765 20.143C.765 31.268 20.265 56 20.265 56s19.5-24.732 19.5-35.857S31.035 0 20.265 0 .765 9.018.765 20.143m10.385-.205c0-5.2 4.08-9.415 9.115-9.415 5.034 0 9.114 4.215 9.114 9.415 0 5.2-4.08 9.415-9.114 9.415-5.034 0-9.115-4.215-9.115-9.415" mask="url(#3w3ylgse0b)"/>
                </g>
                <path fill="#FB3640" d="M345.385 37.027c-1.245-.015-2.51-.025-3.758-.027h-.002c-.345 0-.625.218-.625.484 0 .27.28.489.625.489 1.242.002 2.5.011 3.74.027h.01c.34 0 .62-.212.625-.479.005-.268-.27-.49-.615-.494m-8.01-.027h-.008c-1.24.011-2.506.03-3.76.057-.344.007-.617.222-.607.484.008.255.288.459.623.459h.018c1.248-.026 2.508-.045 3.741-.057.345-.003.623-.216.618-.477-.005-.258-.283-.466-.625-.466m16.03.107c-1.244-.042-2.507-.078-3.76-.107-.34-.005-.632.186-.645.433-.01.247.26.453.606.461 1.245.03 2.503.065 3.738.106h.03c.333 0 .608-.186.625-.426.015-.247-.25-.456-.595-.467M330.35 37c-1.24.035-2.506.079-3.757.126-.346.014-.611.219-.59.46.017.234.292.414.622.414.013 0 .023 0 .035-.002 1.25-.047 2.508-.09 3.742-.124.346-.01.614-.215.598-.456-.014-.241-.312-.426-.65-.418m30.075 1.177c-1.24-.066-2.503-.125-3.759-.176-.35-.015-.644.158-.664.384-.022.228.24.424.584.439 1.248.05 2.506.11 3.739.174.017.002.035.002.05.002.323 0 .599-.163.624-.38.027-.227-.23-.424-.574-.443m-38.092-.176c-1.243.056-2.506.116-3.756.183-.346.02-.601.216-.574.442.028.214.301.374.624.374h.053c1.245-.067 2.503-.13 3.738-.185.346-.014.606-.209.581-.435-.022-.225-.313-.395-.666-.379m46.111.237c-1.248-.085-2.511-.165-3.757-.236-.344-.02-.65.133-.683.343-.033.21.218.395.565.415 1.238.074 2.494.153 3.734.237l.071.003c.317 0 .588-.145.623-.339.04-.21-.208-.398-.553-.423m-54.129-.236c-1.244.072-2.506.15-3.754.232-.344.023-.592.212-.557.422.036.198.309.344.625.344.023 0 .046-.001.068-.003 1.242-.081 2.5-.16 3.737-.232.343-.02.597-.207.564-.418-.032-.212-.339-.365-.683-.345m61.148 1.292c-1.239-.102-2.5-.2-3.752-.29-.347-.027-.66.111-.705.305-.043.193.199.372.544.398 1.244.089 2.498.187 3.73.289.03.003.06.004.09.004.307 0 .576-.128.624-.303.05-.195-.189-.375-.531-.403m-67.466.026c-.043-.198-.355-.34-.7-.318-1.237.088-2.5.179-3.75.275-.344.026-.586.209-.54.408.04.183.311.315.62.315.028 0 .056-.002.083-.003 1.248-.096 2.506-.187 3.738-.273.345-.025.589-.205.549-.404m-8.003.975c-.05-.188-.368-.319-.713-.291-1.243.098-2.504.203-3.747.31-.343.03-.58.207-.525.394.048.17.315.292.62.292.034 0 .066-.001.101-.004 1.238-.106 2.494-.21 3.732-.308.343-.028.583-.203.532-.393m84.49.05c-1.242-.119-2.501-.234-3.748-.34-.342-.03-.67.092-.726.273-.058.18.177.35.52.38 1.24.105 2.492.22 3.727.337.038.004.076.005.114.005.298 0 .566-.111.62-.271.063-.18-.165-.352-.507-.385m-91.492.931c-.058-.18-.384-.3-.728-.27-1.241.11-2.5.224-3.744.34-.344.033-.572.205-.508.384.053.159.32.271.619.271.038 0 .076-.001.114-.005 1.239-.116 2.492-.231 3.729-.34.343-.03.576-.2.518-.38m98.51-.498c-1.237-.264-2.496-.522-3.741-.764-.344-.07-.68.148-.748.482-.068.337.153.661.499.73 1.235.24 2.488.498 3.719.76.045.01.091.015.135.015.292 0 .556-.198.62-.485.076-.334-.14-.663-.483-.738m-106.513.735c-.066-.341-.398-.566-.743-.5-1.235.235-2.492.483-3.737.736-.344.068-.565.402-.496.746.06.299.326.506.62.506.044 0 .084-.005.127-.013 1.242-.25 2.494-.498 3.724-.733.345-.066.57-.397.505-.742m114.532 1.346c-1.23-.29-2.486-.573-3.731-.842-.345-.074-.69.118-.772.43-.082.31.13.623.473.698 1.238.27 2.485.55 3.71.838.054.011.108.018.162.018.284 0 .542-.174.616-.436.09-.309-.115-.627-.458-.706m-122.535-.376c-.071-.328-.41-.537-.754-.47l-1.75.363c-.665.139-1.326.28-1.985.423-.344.076-.558.402-.482.73.07.282.331.472.621.472.046 0 .094-.005.143-.014.657-.144 1.313-.285 1.975-.421.583-.122 1.163-.244 1.743-.363.344-.068.563-.391.489-.72m129.553 1.448c-1.229-.312-2.482-.617-3.724-.91-.34-.08-.696.09-.791.38-.096.29.103.592.446.672 1.234.29 2.48.594 3.7.904.062.015.124.024.186.024.279 0 .534-.153.616-.39.103-.289-.09-.592-.433-.68m-136.557.512c-.084-.31-.43-.502-.772-.425-1.244.272-2.498.558-3.731.847-.343.081-.548.397-.458.704.074.261.335.432.62.432.053 0 .107-.005.16-.018 1.226-.289 2.475-.57 3.71-.843.343-.076.553-.388.471-.697m143.578 1.554c-1.226-.332-2.476-.658-3.713-.971-.34-.087-.707.062-.816.334-.11.272.08.56.42.647 1.23.311 2.472.637 3.691.965.068.019.138.029.208.029.27 0 .522-.136.616-.35.114-.269-.068-.561-.406-.654m-150.584-.594c-.095-.292-.45-.463-.792-.382-1.241.294-2.492.599-3.72.906-.342.085-.538.39-.438.682.083.239.34.392.618.392.06 0 .121-.006.183-.022 1.22-.307 2.466-.61 3.702-.901.342-.081.542-.382.447-.675m157.603 2.655c-1.218-.348-2.463-.694-3.7-1.028-.34-.091-.716.04-.84.293-.123.254.053.534.392.625 1.228.332 2.468.676 3.678 1.022.076.021.157.031.233.031.266 0 .515-.12.615-.312.129-.252-.04-.536-.378-.631m-165.608-.691c-.107-.273-.47-.428-.812-.342-1.242.31-2.493.634-3.714.958-.34.091-.524.386-.412.659.09.22.342.359.614.359.068 0 .138-.008.205-.027 1.214-.321 2.459-.643 3.693-.952.34-.088.532-.38.426-.655m-6.007 1.97c-.12-.262-.494-.4-.834-.308-1.232.327-2.476.665-3.702 1.006-.337.096-.513.38-.387.64.096.2.345.326.611.326.076 0 .152-.01.225-.03 1.219-.34 2.458-.677 3.685-1.002.34-.091.52-.374.402-.633m179.635.776c-1.219-.366-2.458-.728-3.685-1.077-.34-.096-.727.017-.865.255-.138.237.026.508.366.605 1.219.347 2.45.707 3.66 1.069.086.026.173.037.26.037.258 0 .503-.104.611-.28.144-.236-.01-.509-.347-.61m-187.644 1.195c-.132-.245-.512-.367-.852-.274-1.23.343-2.47.696-3.693 1.052-.337.099-.498.375-.361.618.103.187.348.299.61.299.084 0 .166-.011.248-.036 1.214-.354 2.449-.706 3.67-1.044.341-.096.51-.37.378-.615m193.662.854c-1.21-.379-2.444-.757-3.667-1.12-.34-.1-.737-.003-.89.22-.153.223-.003.484.336.585 1.215.362 2.44.735 3.642 1.113.094.029.194.043.29.043.251 0 .492-.094.605-.251.162-.221.02-.484-.316-.59m-200.67 1.118c-.145-.231-.534-.339-.875-.24-1.22.353-2.458.721-3.676 1.092-.336.102-.488.37-.338.601.111.17.354.27.61.27.09 0 .181-.013.269-.038 1.21-.369 2.442-.735 3.658-1.087.338-.098.496-.366.352-.598m207.687 1.928c-1.208-.394-2.435-.784-3.648-1.16-.335-.105-.747-.02-.914.187-.168.21-.032.463.303.568 1.205.373 2.427.761 3.626 1.151.101.034.21.049.317.049.245 0 .482-.083.602-.226.178-.206.05-.461-.286-.57m-214.697.048c-.158-.218-.557-.313-.897-.211-1.216.367-2.448.746-3.66 1.129-.335.105-.476.367-.311.584.116.155.356.246.607.246.097 0 .2-.016.293-.045 1.206-.38 2.432-.757 3.64-1.12.337-.104.485-.362.328-.583m221.715 1.994c-1.198-.406-2.419-.807-3.626-1.195-.334-.109-.755-.038-.941.158-.183.196-.06.442.274.55 1.2.385 2.411.785 3.604 1.188.108.035.227.053.344.053.24 0 .473-.073.6-.202.191-.194.078-.44-.255-.552m-228.725.984c-.172-.207-.582-.289-.92-.185-1.212.38-2.438.772-3.644 1.163-.333.11-.46.363-.284.568.123.143.36.224.603.224.109 0 .218-.015.32-.049 1.198-.39 2.418-.778 3.624-1.156.336-.104.47-.358.3-.565m234.745 2.053c-1.182-.411-2.395-.825-3.605-1.227-.332-.11-.763-.052-.966.132-.199.183-.092.422.24.533 1.202.4 2.406.811 3.58 1.22.118.04.248.059.374.059.233 0 .462-.064.597-.18.208-.182.11-.423-.22-.537m-241.756-.074c-.185-.196-.606-.267-.94-.158-1.212.39-2.433.791-3.628 1.193-.332.112-.445.358-.254.552.127.131.36.204.6.204.116 0 .235-.018.343-.053 1.19-.4 2.402-.8 3.605-1.187.335-.109.457-.355.274-.55m248.776 3.766c-1.183-.635-2.387-1.268-3.579-1.884-.332-.17-.776-.098-.994.162-.218.258-.126.606.207.777 1.183.61 2.38 1.24 3.555 1.87.123.068.264.099.404.099.23 0 .453-.085.59-.243.224-.256.14-.606-.183-.78m-254.79-.786c-.2-.186-.63-.246-.963-.136-1.199.4-2.415.81-3.605 1.222-.33.114-.432.354-.227.539.132.119.362.184.598.184.126 0 .253-.019.367-.06 1.188-.409 2.392-.817 3.588-1.213.331-.111.44-.35.241-.536m260.808 3.831c-1.175-.648-2.37-1.295-3.553-1.921-.327-.174-.783-.117-1.02.125-.233.243-.157.584.17.757 1.174.623 2.364 1.265 3.53 1.91.13.072.282.107.434.107.225 0 .444-.076.587-.22.24-.238.173-.578-.148-.758m-267.822-.762c-.213-.263-.653-.34-.986-.17-1.196.614-2.402 1.242-3.585 1.872-.325.174-.414.526-.194.786.137.164.362.252.593.252.134 0 .274-.032.393-.098 1.178-.625 2.376-1.25 3.566-1.858.33-.17.427-.52.213-.784m273.835 4.806c-1.165-.661-2.349-1.318-3.52-1.956-.325-.179-.793-.134-1.046.094-.25.229-.191.559.134.735 1.162.634 2.34 1.289 3.5 1.946.136.077.3.115.464.115.218 0 .435-.067.581-.195.26-.227.21-.557-.113-.74m-279.85-1.83c-.228-.248-.68-.31-1.007-.136-1.19.624-2.386 1.265-3.563 1.906-.325.176-.397.52-.165.767.141.149.365.228.59.228.145 0 .293-.035.421-.103 1.171-.64 2.363-1.276 3.542-1.898.328-.171.41-.514.183-.764m286.866 4.87c-1.148-.665-2.32-1.333-3.487-1.987-.323-.18-.804-.151-1.075.065-.268.216-.226.536.098.717 1.16.65 2.327 1.314 3.466 1.976.142.083.322.124.499.124.213 0 .423-.06.576-.175.274-.212.24-.534-.077-.72m-292.885-.892c-.245-.235-.706-.283-1.033-.107-1.174.632-2.363 1.284-3.534 1.939-.322.179-.38.514-.133.746.145.137.363.209.585.209.155 0 .315-.036.45-.113 1.163-.648 2.346-1.297 3.514-1.928.328-.174.396-.51.15-.746m297.9 4.931c-1.136-.678-2.298-1.355-3.451-2.017-.321-.182-.813-.167-1.1.036-.29.204-.262.517.056.701 1.147.656 2.303 1.33 3.434 2.003.15.09.34.133.532.133.206 0 .415-.051.567-.157.293-.2.278-.513-.037-.699m-304.918-1.95c-.258-.224-.733-.259-1.055-.08-1.172.644-2.35 1.308-3.508 1.968-.32.182-.363.51-.099.73.148.124.361.188.577.188.169 0 .34-.04.481-.12 1.148-.655 2.324-1.315 3.487-1.956.325-.18.376-.506.117-.73m-5.017 3.983c-.276-.213-.76-.237-1.082-.055-1.158.653-2.326 1.324-3.478 1.995-.316.184-.347.503-.065.713.15.114.362.17.573.17.181 0 .362-.043.509-.127 1.143-.667 2.305-1.334 3.457-1.985.322-.18.358-.5.086-.711m314.997 2c-.901-.685-1.82-1.37-2.734-2.04-.252-.186-.656-.182-.9.01-.246.192-.24.497.012.683.909.666 1.822 1.347 2.718 2.029.125.095.289.141.452.141.163 0 .324-.046.45-.141.25-.187.25-.492.002-.682m-321.979 1.984c-.235-.202-.63-.215-.885-.032-.918.663-1.846 1.34-2.754 2.02-.253.187-.263.498-.025.695.122.103.287.156.452.156.156 0 .31-.045.43-.136.906-.673 1.827-1.349 2.742-2.008.256-.183.273-.496.04-.695m326.99 2.047c-.895-.694-1.802-1.388-2.701-2.063-.25-.188-.664-.194-.926-.013-.258.18-.266.479-.018.666.894.671 1.796 1.361 2.685 2.051.128.1.303.151.478.151.16 0 .32-.041.445-.126.267-.176.282-.476.036-.666m-332.008 1.938c-.245-.191-.649-.195-.902-.008-.907.667-1.827 1.355-2.73 2.041-.247.189-.247.493.003.68.125.095.289.141.45.141.166 0 .33-.048.455-.143.897-.682 1.812-1.366 2.714-2.031.253-.185.258-.49.01-.68m337.02 2.09c-.88-.699-1.776-1.4-2.666-2.084-.247-.188-.67-.204-.947-.035-.276.17-.3.461-.054.651.888.681 1.779 1.376 2.653 2.072.131.105.32.16.507.16.155 0 .31-.037.437-.113.282-.168.311-.457.07-.65M157.8 92.131c-.259-.181-.672-.175-.923.013-.909.682-1.818 1.376-2.701 2.06-.246.191-.23.49.034.667.125.085.284.128.444.128.175 0 .35-.051.478-.151.88-.681 1.785-1.372 2.686-2.05.25-.188.243-.488-.018-.667m349.047 3.132c-.864-.704-1.748-1.411-2.63-2.102-.242-.191-.677-.217-.969-.058-.292.161-.33.445-.085.637.873.688 1.754 1.391 2.613 2.091.138.11.336.168.537.168.152 0 .303-.032.433-.101.295-.156.341-.441.101-.635m-353.065.855c-.276-.17-.698-.156-.944.033-.895.686-1.793 1.386-2.672 2.08-.243.192-.214.485.064.653.126.078.284.115.438.115.188 0 .372-.054.503-.157.876-.692 1.769-1.388 2.659-2.071.246-.19.224-.481-.048-.653m357.077 3.17c-.853-.707-1.724-1.42-2.593-2.117-.238-.194-.686-.23-.991-.078-.309.15-.365.429-.125.622.864.693 1.73 1.403 2.579 2.107.139.115.351.177.564.177.15 0 .3-.03.427-.09.311-.147.373-.426.139-.62m-363.098.817c-.29-.161-.72-.138-.966.053-.878.689-1.767 1.394-2.637 2.097-.241.192-.2.48.093.638.126.07.282.105.435.105.197 0 .391-.058.528-.167.864-.698 1.748-1.401 2.623-2.086.246-.19.21-.478-.076-.64m368.107 4.206c-.836-.712-1.695-1.43-2.549-2.133-.239-.195-.693-.239-1.02-.096-.322.142-.395.414-.16.609.851.7 1.705 1.412 2.538 2.122.142.12.367.185.597.185.145 0 .291-.024.416-.079.33-.14.41-.411.178-.608m-372.13.785c-.303-.154-.742-.123-.983.07-.872.695-1.749 1.406-2.606 2.112-.238.195-.182.477.123.627.13.063.28.093.429.093.21 0 .417-.059.555-.172.854-.704 1.726-1.411 2.591-2.103.242-.193.194-.474-.109-.627m377.141 3.237c-.825-.72-1.67-1.441-2.508-2.148-.234-.196-.698-.245-1.04-.113-.345.134-.432.4-.201.595.834.703 1.673 1.422 2.492 2.137.144.126.384.194.63.194.142 0 .282-.024.411-.07.345-.13.441-.396.216-.595m-382.164.752c-.318-.144-.767-.105-1.005.088-.865.705-1.73 1.421-2.571 2.127-.233.197-.164.471.157.615.127.057.277.083.423.083.221 0 .44-.062.58-.18.837-.703 1.698-1.415 2.557-2.115.239-.196.176-.47-.14-.618m385.172 4.27c-.811-.724-1.637-1.451-2.46-2.16-.23-.197-.706-.257-1.068-.131-.362.125-.467.385-.238.583.817.705 1.64 1.428 2.447 2.148.146.132.4.203.66.203.139 0 .275-.02.402-.062.365-.122.479-.383.257-.58m-389.2.722c-.33-.139-.789-.092-1.024.104-.849.705-1.703 1.426-2.534 2.138-.23.198-.144.467.191.603.127.05.271.075.416.075.235 0 .465-.066.607-.187.828-.71 1.676-1.427 2.521-2.128.236-.196.156-.466-.176-.605m394.208 4.298c-.789-.723-1.597-1.455-2.409-2.173-.223-.199-.716-.264-1.093-.147-.38.117-.508.372-.284.57.808.715 1.613 1.442 2.396 2.162.147.135.419.21.697.21.134 0 .268-.017.393-.053.383-.115.517-.369.3-.569m2.033 5.02c-.575-.726-1.17-1.46-1.765-2.184-.164-.2-.54-.272-.84-.164-.3.109-.412.36-.249.558.593.72 1.185 1.45 1.756 2.173.111.14.327.219.55.219.097 0 .196-.015.288-.046.302-.107.419-.356.26-.556m4.007 5.825c-.558-.971-1.137-1.955-1.72-2.925-.16-.266-.545-.375-.864-.24-.316.136-.442.461-.283.728.579.966 1.155 1.945 1.71 2.909.11.193.339.305.578.305.093 0 .19-.017.28-.054.32-.13.453-.455.299-.723m-530.482.046c-1.233-.098-2.496-.187-3.759-.267-.347-.022-.656.124-.691.325-.038.204.211.385.556.407 1.25.08 2.505.167 3.728.263.027.003.055.003.083.003.312 0 .58-.134.624-.318.045-.202-.197-.387-.541-.413m8.03 1.078c-1.234-.122-2.497-.237-3.752-.342-.344-.03-.668.093-.724.272-.056.18.177.35.524.378 1.243.104 2.495.217 3.718.338.04.004.078.007.119.007.296 0 .561-.11.62-.269.065-.179-.16-.35-.504-.384m7.033 1.487c-1.23-.29-2.492-.564-3.743-.82-.344-.07-.684.133-.76.45-.075.32.142.638.487.707 1.238.253 2.484.526 3.705.81.05.012.104.019.155.019.286 0 .547-.18.618-.448.087-.317-.12-.64-.462-.718m8.032 1.123c-1.22-.327-2.474-.64-3.726-.935-.343-.084-.7.08-.799.365-.098.284.099.579.442.66 1.239.293 2.48.604 3.688.927.064.017.132.026.199.026.272 0 .525-.146.615-.372.109-.28-.078-.581-.419-.67m511.392 1.29c-.535-.966-1.095-1.955-1.665-2.94-.156-.267-.552-.382-.89-.258-.334.124-.481.44-.324.71.566.976 1.123 1.96 1.656 2.92.11.202.353.32.61.32.091 0 .182-.015.27-.045.341-.12.493-.437.343-.706m-504.355.819c-1.218-.36-2.465-.71-3.707-1.04-.342-.09-.718.041-.842.293-.12.251.055.528.398.619 1.226.325 2.457.67 3.662 1.026.079.023.163.034.245.034.26 0 .507-.116.61-.303.134-.248-.029-.53-.366-.63m7.038 2.097c-1.204-.387-2.443-.765-3.678-1.126-.34-.099-.738.001-.889.223-.15.222.003.482.342.581 1.22.356 2.442.729 3.63 1.112.094.03.196.046.296.046.248 0 .487-.092.606-.246.161-.219.027-.482-.307-.59m499.326 2.114c-.504-.96-1.043-1.954-1.6-2.954-.152-.269-.562-.395-.919-.283-.36.114-.528.422-.376.69.554.994 1.087 1.982 1.587 2.933.11.207.374.336.655.336.084 0 .171-.013.256-.038.362-.108.54-.414.397-.684m3.016 6.052c-.02-.043-.49-1.09-1.506-2.99-.142-.27-.576-.406-.965-.309-.392.1-.594.395-.45.664.998 1.873 1.475 2.929 1.48 2.94.1.222.398.365.721.365.073 0 .148-.008.22-.023.398-.084.62-.374.5-.647" transform="translate(-1015 -7953) translate(1015 7953)"/>
                <g>
                    <g>
                        <path fill="#DDDEDE" d="M257.647 142.572H15.261V15.392C15.26 7.182 21.9.523 30.089.523h212.73c8.19 0 14.828 6.659 14.828 14.87v127.18z" transform="translate(-1015 -7953) translate(1015 7953) translate(198 79) translate(.465)"/>
                        <path fill="#D5E6F5" d="M22.935 133.801L247.143 133.801 247.143 10.742 22.935 10.742z" transform="translate(-1015 -7953) translate(1015 7953) translate(198 79) translate(.465)"/>
                        <path fill="#FFF" d="M238.656 128.032H31.746c-1.09 0-1.975-.888-1.975-1.982V19.307c0-1.094.884-1.982 1.976-1.982h206.909c1.091 0 1.976.888 1.976 1.982V126.05c0 1.094-.885 1.982-1.976 1.982" transform="translate(-1015 -7953) translate(1015 7953) translate(198 79) translate(.465)"/>
                        <g fill="#000">
                            <path d="M0 4.99L7.948 4.99 7.948 0 0 0zM12.221 4.99L20.169 4.99 20.169 0 12.221 0zM24.442 4.99L32.39 4.99 32.39 0 24.442 0zM36.663 4.99L44.611 4.99 44.611 0 36.663 0zM48.884 4.99L56.832 4.99 56.832 0 48.884 0zM61.105 4.99L69.053 4.99 69.053 0 61.105 0zM73.326 4.99L81.274 4.99 81.274 0 73.326 0zM85.547 4.99L93.495 4.99 93.495 0 85.547 0zM97.768 4.99L105.716 4.99 105.716 0 97.768 0zM109.989 4.99L117.937 4.99 117.937 0 109.989 0zM122.21 4.99L130.158 4.99 130.158 0 122.21 0z" transform="translate(-1015 -7953) translate(1015 7953) translate(198 79) translate(.465) translate(22.925 139.766)"/>
                        </g>
                        <path fill="#000" d="M157.131 144.755L165.079 144.755 165.079 139.766 157.131 139.766zM169.352 144.755L177.3 144.755 177.3 139.766 169.352 139.766zM181.573 144.755L189.521 144.755 189.521 139.766 181.573 139.766zM193.794 144.755L201.742 144.755 201.742 139.766 193.794 139.766zM206.015 144.755L213.963 144.755 213.963 139.766 206.015 139.766zM218.236 144.755L226.184 144.755 226.184 139.766 218.236 139.766zM230.457 144.755L238.405 144.755 238.405 139.766 230.457 139.766zM242.678 144.755L250.626 144.755 250.626 139.766 242.678 139.766z" transform="translate(-1015 -7953) translate(1015 7953) translate(198 79) translate(.465)"/>
                        <path fill="#C5C6C6" d="M269.43 149H3.479C1.558 149 0 147.44 0 145.513c0-1.927 1.557-3.488 3.478-3.488H269.43c1.92 0 3.477 1.561 3.477 3.488 0 1.926-1.557 3.487-3.477 3.487" transform="translate(-1015 -7953) translate(1015 7953) translate(198 79) translate(.465)"/>
                        <path fill="#D5E6F5" d="M105.4 25.335H46.65c-2.528 0-4.577 2.055-4.577 4.59V84.67c0 2.535 2.049 4.59 4.576 4.59H105.4c2.527 0 4.577-2.055 4.577-4.59V29.925c0-2.535-2.05-4.59-4.577-4.59" transform="translate(-1015 -7953) translate(1015 7953) translate(198 79) translate(.465)"/>
                        <path fill="#7BAEF3" d="M103.02 97.589H82.584c-1.86 0-3.369 1.512-3.369 3.378v1.744c0 1.866 1.509 3.379 3.37 3.379h20.435c1.861 0 3.37-1.513 3.37-3.38v-1.743c0-1.866-1.509-3.378-3.37-3.378" transform="translate(-1015 -7953) translate(1015 7953) translate(198 79) translate(.465)"/>
                        <path fill="#E4E4E4" d="M69.465 97.589H49.03c-1.86 0-3.37 1.512-3.37 3.378v1.744c0 1.866 1.51 3.379 3.37 3.379h20.436c1.86 0 3.369-1.513 3.369-3.38v-1.743c0-1.866-1.508-3.378-3.369-3.378" transform="translate(-1015 -7953) translate(1015 7953) translate(198 79) translate(.465)"/>
                        <path fill="#7BAEF3" d="M102.15 119.94H49.9c-2.342 0-4.24-1.903-4.24-4.25 0-2.348 1.898-4.251 4.24-4.251h52.252c2.34 0 4.238 1.903 4.238 4.25 0 2.348-1.898 4.252-4.238 4.252" transform="translate(-1015 -7953) translate(1015 7953) translate(198 79) translate(.465)"/>
                        <path fill="#FFF" d="M50.443 102.85L68.052 102.85 68.052 100.828 50.443 100.828zM92.869 102.85h-8.836c-.557 0-1.008-.452-1.008-1.01 0-.559.45-1.012 1.008-1.012h8.836c.557 0 1.008.453 1.008 1.011 0 .559-.451 1.011-1.008 1.011M101.683 101.05h-1.56c-.557 0-1.009-.452-1.009-1.01 0-.559.452-1.011 1.008-1.011h1.561c.557 0 1.008.452 1.008 1.01 0 .56-.45 1.011-1.008 1.011" transform="translate(-1015 -7953) translate(1015 7953) translate(198 79) translate(.465)"/>
                        <path fill="#7BAEF3" d="M55.25 115.69c0 1.324-1.07 2.397-2.39 2.397s-2.39-1.073-2.39-2.397c0-1.325 1.07-2.398 2.39-2.398s2.39 1.073 2.39 2.398" transform="translate(-1015 -7953) translate(1015 7953) translate(198 79) translate(.465)"/>
                        <path fill="#BCBEC0" d="M91.723 41.9L67.605 27.936c-1.342-.778-2.563-.866-3.465-.386l-1.637.944.36.626c-.175.487-.273 1.063-.273 1.717v27.928c0 3.194 2.258 7.113 5.015 8.71l24.118 13.964c.536.31 1.055.51 1.542.609l.384.668 1.618-.936c.907-.527 1.47-1.65 1.47-3.244V50.61c0-3.194-2.257-7.113-5.014-8.71" transform="translate(-1015 -7953) translate(1015 7953) translate(198 79) translate(.465)"/>
                        <path fill="#FFF" d="M95.194 79.428c0 3.194-2.255 4.5-5.013 2.904L66.063 68.367c-2.758-1.595-5.014-5.516-5.014-8.708V31.73c0-3.194 2.256-4.5 5.015-2.903L90.18 42.791c2.759 1.598 5.013 5.516 5.013 8.71v27.927z" transform="translate(-1015 -7953) translate(1015 7953) translate(198 79) translate(.465)"/>
                        <path fill="#303033" d="M90.455 42.248L66.338 28.285c-1.487-.86-2.835-.946-3.817-.392l-.013.01c-.007.002-.012.005-.017.008l-3.747 2.171 2.161 3.778v25.498c0 3.468 2.437 7.7 5.433 9.434L88.094 81.39l2.286 3.997 4.075-2.354c.887-.605 1.433-1.783 1.433-3.42V51.683c0-3.468-2.438-7.7-5.433-9.435" transform="translate(-1015 -7953) translate(1015 7953) translate(198 79) translate(.465)"/>
                        <path fill="#000" d="M94.549 76.112L93.775 76.561 93.775 57.937 94.549 57.49z" transform="translate(-1015 -7953) translate(1015 7953) translate(198 79) translate(.465)"/>
                        <path fill="#535359" d="M86.774 84.886L62.656 70.922c-2.993-1.734-5.43-5.965-5.43-9.434V33.56c0-3.468 2.437-4.879 5.43-3.144L86.774 44.38c2.996 1.734 5.433 5.967 5.433 9.434v27.928c0 3.47-2.437 4.88-5.433 3.145" transform="translate(-1015 -7953) translate(1015 7953) translate(198 79) translate(.465)"/>
                        <path fill="#BCBEC0" d="M86.774 44.863L62.656 30.9c-1.34-.778-2.562-.865-3.464-.385l-.001-.001-1.635.945.359.626c-.175.487-.271 1.061-.271 1.716V61.73c0 3.193 2.256 7.113 5.012 8.71l24.118 13.963c.54.311 1.057.51 1.543.609l.385.667 1.619-.934c.905-.527 1.469-1.65 1.469-3.245V53.573c0-3.194-2.257-7.113-5.016-8.71" transform="translate(-1015 -7953) translate(1015 7953) translate(198 79) translate(.465)"/>
                        <path fill="#FFF" d="M90.247 82.393c0 3.194-2.257 4.5-5.013 2.903L61.115 71.332c-2.757-1.598-5.013-5.516-5.013-8.708v-27.93c0-3.192 2.256-4.498 5.013-2.902l24.119 13.964c2.756 1.597 5.013 5.515 5.013 8.71v27.927z" transform="translate(-1015 -7953) translate(1015 7953) translate(198 79) translate(.465)"/>
                        <path fill="#D5E6F5" d="M125.934 34.388L168.864 34.388 168.864 30.1 125.934 30.1zM125.934 43.475L192.892 43.475 192.892 39.186 125.934 39.186z" transform="translate(-1015 -7953) translate(1015 7953) translate(198 79) translate(.465)"/>
                        <path fill="#E4E4E4" d="M125.934 59.336L222.308 59.336 222.308 56.535 125.934 56.535zM125.934 71.225L218.136 71.225 218.136 68.424 125.934 68.424zM125.934 77.169L211.331 77.169 211.331 74.368 125.934 74.368zM125.934 65.271L204.111 65.271 204.111 62.47 125.934 62.47z" transform="translate(-1015 -7953) translate(1015 7953) translate(198 79) translate(.465)"/>
                        <path fill="#7BAEF3" d="M217.258 36.787c0 4.906-3.966 8.883-8.857 8.883-4.893 0-8.858-3.977-8.858-8.883 0-4.905 3.965-8.882 8.858-8.882 4.89 0 8.857 3.977 8.857 8.882" transform="translate(-1015 -7953) translate(1015 7953) translate(198 79) translate(.465)"/>
                        <path fill="#FFF" d="M207.535 40.92L203.617 36.99 205.344 35.258 207.535 37.454 211.456 33.521 213.184 35.255z" transform="translate(-1015 -7953) translate(1015 7953) translate(198 79) translate(.465)"/>
                        <path fill="#FB3640" d="M192.62 95.798H130.51c-1.847 0-3.344 1.501-3.344 3.354v11.794c0 1.852 1.497 3.355 3.344 3.355h62.109c1.847 0 3.344-1.503 3.344-3.355V99.152c0-1.853-1.497-3.354-3.344-3.354" transform="translate(-1015 -7953) translate(1015 7953) translate(198 79) translate(.465)"/>
                        <path stroke="#E44923" stroke-width="1.254" d="M130.511 115.621c-2.57 0-4.661-2.097-4.661-4.675V99.152c0-2.579 2.09-4.675 4.661-4.675h62.109c2.57 0 4.661 2.096 4.661 4.675v11.794c0 2.578-2.09 4.675-4.661 4.675H130.51z" transform="translate(-1015 -7953) translate(1015 7953) translate(198 79) translate(.465)"/>
                    </g>
                    <path fill="#000" fill-rule="nonzero" d="M140.704 89.992c.336 0 .607-.096.817-.29.21-.199.313-.462.313-.79 0-.236-.046-.43-.163-.564-.08-.107-.122-.166-.253-.247-.126-.08-.163-.108-.327-.177-.079-.038-.135-.06-.172-.076l-.192-.07c-.252-.09-.43-.182-.533-.268-.103-.086-.154-.21-.154-.376 0-.344.238-.56.593-.56.356 0 .603.194.743.581l.365-.242c-.192-.494-.589-.822-1.108-.822-.285 0-.527.097-.728.29-.201.189-.3.446-.3.774 0 .274.099.495.206.629.052.064.131.129.238.193.108.06.201.108.271.14l.313.118c.276.102.477.194.594.285.117.091.177.226.177.403 0 .35-.243.58-.691.58-.453 0-.748-.225-.874-.682l-.374.247c.173.575.626.924 1.239.924zm2.766 0c.387 0 .682-.177.883-.532v.463h.406v-2.687h-.406v.462c-.201-.355-.496-.532-.883-.532-.327 0-.608.14-.837.414-.229.274-.345.607-.345 1 0 .391.116.73.345 1.004.23.274.51.408.837.408zm.051-.451c-.234 0-.43-.091-.589-.274-.159-.188-.238-.414-.238-.688 0-.274.08-.5.238-.682.16-.188.355-.28.589-.28.238 0 .435.092.593.28.16.182.239.408.239.682 0 .274-.08.5-.239.688-.158.183-.355.274-.593.274zm2.262.382v-1.494c0-.543.256-.817.598-.817.303 0 .495.242.495.656v1.655h.406v-1.494c0-.554.225-.817.575-.817.313 0 .514.242.514.656v1.655h.407V88.25c0-.666-.356-1.085-.879-1.085-.327 0-.57.15-.733.457-.145-.307-.374-.457-.687-.457-.304 0-.538.145-.697.43v-.36h-.406v2.687h.406zm4.681.07c.458 0 .8-.205 1.028-.608l-.346-.226c-.14.264-.364.393-.672.393-.444 0-.767-.28-.846-.758h1.958c.009-.07.014-.14.014-.21 0-.392-.108-.725-.327-.999-.215-.28-.496-.419-.837-.419-.36 0-.654.134-.883.403-.229.269-.34.607-.34 1.01 0 .409.116.747.345 1.016.233.263.537.397.906.397zm.724-1.607h-1.56c.07-.473.374-.78.808-.78.374 0 .682.27.752.78zm3.098 1.606c.388 0 .682-.177.883-.532v.463h.407V86.16h-.407v1.537c-.2-.355-.495-.532-.883-.532-.327 0-.607.14-.836.414-.229.274-.346.607-.346 1 0 .391.117.73.346 1.004.229.274.51.408.836.408zm.052-.451c-.234 0-.43-.091-.589-.274-.159-.188-.238-.414-.238-.688 0-.274.08-.5.238-.682.159-.188.355-.28.589-.28.238 0 .434.092.593.28.159.182.238.408.238.682 0 .274-.079.5-.238.688-.159.183-.355.274-.593.274zm2.906.451c.388 0 .682-.177.883-.532v.463h.407v-2.687h-.407v.462c-.2-.355-.495-.532-.883-.532-.327 0-.607.14-.836.414-.23.274-.346.607-.346 1 0 .391.117.73.346 1.004.229.274.509.408.836.408zm.051-.451c-.233 0-.43-.091-.588-.274-.16-.188-.239-.414-.239-.688 0-.274.08-.5.239-.682.158-.188.355-.28.588-.28.239 0 .435.092.594.28.159.182.238.408.238.682 0 .274-.08.5-.238.688-.16.183-.355.274-.594.274zm2.967.548l.954-2.853h-.435l-.673 2.106-.794-2.106h-.435l1.019 2.676-.042.102c-.136.392-.346.575-.63.548v.435c.466.038.835-.3 1.036-.908zm3.514-.097c.388 0 .682-.177.883-.532v.463h.407V86.16h-.407v1.537c-.2-.355-.495-.532-.883-.532-.327 0-.607.14-.836.414-.23.274-.346.607-.346 1 0 .391.117.73.346 1.004.229.274.509.408.836.408zm.051-.451c-.233 0-.43-.091-.588-.274-.16-.188-.239-.414-.239-.688 0-.274.08-.5.239-.682.159-.188.355-.28.588-.28.239 0 .435.092.594.28.159.182.238.408.238.682 0 .274-.08.5-.238.688-.16.183-.355.274-.594.274zm2.977.451c.458 0 .799-.204 1.028-.607l-.346-.226c-.14.264-.365.393-.673.393-.444 0-.766-.28-.846-.758h1.958c.01-.07.014-.14.014-.21 0-.392-.107-.725-.327-.999-.215-.28-.495-.419-.836-.419-.36 0-.654.134-.883.403-.23.269-.341.607-.341 1.01 0 .409.116.747.345 1.016.234.263.538.397.907.397zm.724-1.606h-1.56c.07-.473.373-.78.808-.78.373 0 .682.27.752.78zm1.285 1.537V86h-.407v3.923h.407zm.827-3.176c.15 0 .27-.14.27-.312s-.12-.317-.27-.317c-.154 0-.276.145-.276.317 0 .172.122.312.276.312zm.2 3.176v-2.687h-.406v2.687h.407zm1.762 0l.935-2.687h-.44l-.733 2.187-.734-2.187h-.439l.935 2.687h.476zm2.215.07c.458 0 .799-.205 1.028-.608l-.346-.226c-.14.264-.364.393-.673.393-.444 0-.766-.28-.845-.758h1.957c.01-.07.014-.14.014-.21 0-.392-.107-.725-.327-.999-.215-.28-.495-.419-.836-.419-.36 0-.654.134-.883.403-.229.269-.341.607-.341 1.01 0 .409.117.747.346 1.016.233.263.537.397.906.397zm.724-1.607h-1.56c.07-.473.373-.78.808-.78.374 0 .682.27.752.78zm1.285 1.537v-1.424c0-.296.07-.506.215-.64s.313-.193.514-.183v-.489c-.35 0-.593.167-.729.5v-.451h-.406v2.687h.406zm2.341.166l.953-2.853h-.434l-.673 2.106-.794-2.106h-.435l1.019 2.676-.042.102c-.136.392-.346.575-.631.548v.435c.467.038.836-.3 1.037-.908zm3.752-.097c.327 0 .607-.134.836-.408.23-.274.346-.613.346-1.005 0-.392-.117-.725-.346-1-.229-.273-.509-.413-.836-.413-.388 0-.682.177-.883.532v-1.537h-.407v3.762h.407v-.463c.2.355.495.532.883.532zm-.051-.451c-.239 0-.435-.091-.594-.274-.159-.188-.238-.414-.238-.688 0-.274.08-.5.238-.682.16-.188.355-.28.594-.28.233 0 .43.092.588.28.16.182.239.408.239.682 0 .274-.08.5-.239.688-.159.183-.355.274-.588.274zm2.644.548l.953-2.853h-.434l-.673 2.106-.794-2.106h-.435l1.019 2.676-.042.102c-.136.392-.346.575-.631.548v.435c.467.038.836-.3 1.037-.908z" transform="translate(-1015 -7953) translate(1015 7953) translate(198 79)"/>
                    <path fill="#FFF" fill-rule="nonzero" d="M148.867 108.865v-3.115l1.962 3.115h1.594l-2.155-3.452 2.067-3.278h-1.594l-1.874 2.923v-2.923h-1.402v6.73h1.402zm6.991 0l.999-3.97.998 3.97h1.594l1.69-6.73h-1.471l-1.06 4.711-1.182-4.711h-1.139l-1.182 4.711-1.06-4.711h-1.471l1.69 6.73h1.594zm7.36 0v-6.73h-1.402v6.73h1.401zm4.04.135c1.112 0 2.101-.596 2.627-1.558l-1.209-.769c-.254.51-.797.827-1.419.827-.543 0-.98-.183-1.305-.548-.324-.365-.481-.846-.481-1.452s.157-1.087.481-1.452c.324-.365.762-.548 1.305-.548.622 0 1.148.298 1.42.827l1.208-.77c-.534-.96-1.533-1.557-2.628-1.557-.92 0-1.681.337-2.286 1.01-.604.663-.902 1.5-.902 2.49 0 .99.298 1.827.902 2.5.605.663 1.367 1 2.286 1zm4.661-.135v-3.115l1.962 3.115h1.594l-2.155-3.452 2.067-3.278h-1.594l-1.874 2.923v-2.923h-1.401v6.73h1.401zm5.546 0v-6.73h-1.401v6.73h1.401z" transform="translate(-1015 -7953) translate(1015 7953) translate(198 79)"/>
                </g>
            </g>
        </g>
    </g>
</svg>
