<?xml version="1.0" encoding="UTF-8"?>
<svg width="587px" height="247px" viewBox="0 0 587 247" version="1.1" xmlns="http://www.w3.org/2000/svg" xmlns:xlink="http://www.w3.org/1999/xlink">
    <title>Group 14</title>
    <defs>
        <path d="M0.764705882,20.0614875 C0.764705882,31.1415196 20.2645443,55.7741935 20.2645443,55.7741935 L20.2645443,55.7741935 C20.2645443,55.7741935 39.7647059,31.1415196 39.7647059,20.0614875 L39.7647059,20.0614875 C39.7647059,8.98178796 31.0340523,0 20.2645443,0 L20.2645443,0 C9.49568259,0 0.764705882,8.98178796 0.764705882,20.0614875 M11.1502927,19.8576809 C11.1502927,14.6787318 15.230587,10.4802487 20.2645443,10.4802487 L20.2645443,10.4802487 C25.2985016,10.4802487 29.3791191,14.6787318 29.3791191,19.8576809 L29.3791191,19.8576809 C29.3791191,25.0362976 25.2985016,29.2347806 20.2645443,29.2347806 L20.2645443,29.2347806 C15.230587,29.2347806 11.1502927,25.0362976 11.1502927,19.8576809" id="path-1"></path>
    </defs>
    <g id="UI" stroke="none" stroke-width="1" fill="none" fill-rule="evenodd">
        <g id="Group-14">
            <path d="M586.843336,236.609678 C586.808824,237.529332 586.861046,240.643099 587,245.950979 C203.573844,247.349674 12.1963083,247.349674 12.8673913,245.950979 C14.3949834,242.790487 16.1274003,239.656633 18.01488,236.552036 C18.428782,235.891117 18.8424432,235.229979 19.2563452,234.598317 C21.3506555,231.293284 23.6520372,228.044364 26.1602495,224.854177 C29.1856587,220.973596 32.4956707,217.150874 36.0640403,213.472258 C36.8655992,212.638631 37.6671581,211.832951 38.4689577,211.029018 C38.649784,210.85631 38.8308511,210.683602 39.0119181,210.482946 C39.4773472,210.05194 39.943017,209.591677 40.4082053,209.160889 C42.3734572,207.263066 44.287182,205.480745 46.1746617,203.757376 C47.1312833,202.894272 48.0623822,202.060645 48.9929995,201.227017 C50.8289522,199.589239 52.6133778,197.979407 54.3200312,196.427218 C59.5690499,191.627419 64.2235812,187.115176 67.8954865,182.027603 C69.1624744,180.302706 70.3004039,178.492219 71.3087934,176.62278 C73.1445053,173.20268 74.5667967,169.496116 75.4978956,165.298285 C75.7047262,164.236054 75.9115568,163.1426 76.0666195,162.022727 C76.5320486,158.975773 76.7648835,155.670739 76.6873521,152.048455 C76.6615886,149.203466 76.4545172,146.127036 76.0666195,142.84995 C75.9893289,142.160865 75.8855525,141.442303 75.7822576,140.694265 C75.2390564,136.642504 74.411734,132.244235 73.2998088,127.444217 C72.9896833,126.094212 72.6533127,124.714513 72.2914193,123.305556 C71.6706867,120.861879 71.1794942,118.448115 70.7915965,116.091774 C70.0418055,111.520579 69.7311984,107.12362 69.783207,102.840198 C69.8089705,98.9611446 70.1451004,95.1956288 70.7915965,91.5733449 L70.7915965,91.5157028 C71.3605612,88.0672187 72.1878836,84.7327088 73.1965139,81.5130464 C85.5822719,42.365743 127.731411,19.2276678 138.927712,14.0538499 C154.882321,6.66648691 173.784808,2.52782562 193.411082,1.00511268 C195.0142,0.889828416 196.617318,0.774980838 198.220435,0.688517642 C202.745908,0.42978308 207.322908,0.314498819 211.873904,0.314498819 C213.73562,0.314498819 215.571572,0.343974909 217.407525,0.37214095 C220.484702,0.458385804 223.535875,0.573451723 226.613052,0.774980838 C229.457394,0.947470546 232.275973,1.14834464 235.094551,1.40729754 C246.782527,2.49987792 258.185659,4.33896756 268.787714,6.81124726 C278.432906,9.05252176 287.120995,11.8693442 295.03353,15.1176092 L295.059775,15.1464303 C313.729186,22.8204756 327.847361,32.8517347 339.121916,43.2858336 C341.733423,45.6995978 344.215872,48.1430565 346.543258,50.5865151 C346.853625,50.9024551 347.189754,51.2474345 347.500121,51.5919773 C348.223907,52.3393599 348.921931,53.0867425 349.620194,53.8629462 C349.930561,54.2074889 350.266931,54.5526867 350.577057,54.8978844 C352.61984,57.16798 354.585092,59.4389489 356.446808,61.6522757 C357.377907,62.7728038 358.308524,63.8942053 359.21386,64.9861306 C364.126749,71.022397 368.470914,76.6558236 372.608248,81.5130464 C373.125445,82.1460182 373.642642,82.720256 374.159598,83.3235333 C381.270574,91.3724708 387.864593,96.8331893 395.932191,97.4369033 C401.000624,97.8102671 406.921902,96.8613553 413.567449,95.4242322 C414.239949,95.2812186 414.886445,95.1379866 415.558946,94.9652786 C425.772621,92.694528 437.667428,89.475084 450.880989,88.1248608 C467.947042,86.3704876 487.263431,87.7501869 508.104925,98.2705307 C508.777425,98.6157285 509.423922,98.9611446 510.096422,99.304814 C513.147595,100.944121 516.224531,102.754608 519.327953,104.795227 C519.973968,105.197848 520.620705,105.628854 521.266719,106.059642 C524.421668,108.215327 527.628145,110.601361 530.860384,113.245476 C530.937675,113.303118 531.015447,113.360542 531.092979,113.44766 C532.489506,114.567533 533.885553,115.774524 535.282081,117.010992 C536.911203,118.448115 538.566088,119.942662 540.220974,121.523017 C544.203005,125.345956 548.262808,129.542478 552.32237,134.199045 C555.270489,137.56194 558.011295,140.954092 560.493744,144.402139 C562.226402,146.760008 563.855283,149.146043 565.355106,151.531641 C565.639468,151.962647 565.898066,152.393653 566.182669,152.82444 C568.768413,157.05022 571.095558,161.303947 573.164105,165.586277 C573.396939,166.104183 573.655297,166.650036 573.914377,167.167942 C576.62942,173.089143 578.879034,179.038291 580.662978,184.959491 C580.818281,185.475869 580.973344,185.964517 581.128407,186.454257 C581.904202,189.126319 582.576462,191.799909 583.197195,194.473281 C584.024758,198.123949 584.697017,201.744923 585.240219,205.365897 C586.636265,214.593441 587.127939,223.675134 586.972395,232.413375 C586.946872,233.822332 586.920868,235.229979 586.843336,236.609678 Z" id="Fill-1" fill="#1D3461" transform="translate(299.933696, 123.657249) scale(1, -1) translate(-299.933696, -123.657249) "></path>
            <path d="M85.5,149.22078 C78.6553361,149.22078 73.1083848,143.542688 73.1083848,136.508815 C73.1083848,134.787501 73.4432407,133.153114 74.0501912,131.647114 C75.9131436,127.022761 80.3298102,123.775218 85.5,123.775218 C92.3448588,123.775218 97.8918101,129.475142 97.8918101,136.508815 C97.8918101,142.596506 93.7472382,147.651488 88.2002868,148.898109 C87.3420969,149.113624 86.4211459,149.22078 85.5,149.22078 M85.5,109.556452 C79.1784753,109.556452 73.3594292,111.836582 68.796385,115.643742 C62.8097161,120.655862 59,128.270383 59,136.788423 C59,151.824383 85.5,185.25 85.5,185.25 C85.5,185.25 97.5359039,170.064822 105.364475,155.566648 C109.174191,148.554808 112,141.692185 112,136.788423 C112,121.753265 100.131524,109.556452 85.5,109.556452" id="Fill-304" fill="#FB3640"></path>
            <g id="Group-308" transform="translate(529.000000, 153.379032)">
                <mask id="mask-2" fill="white">
                    <use xlink:href="#path-1"></use>
                </mask>
                <g id="Clip-307"></g>
                <path d="M0.764705882,20.0614875 C0.764705882,31.1415196 20.2645443,55.7741935 20.2645443,55.7741935 L20.2645443,55.7741935 C20.2645443,55.7741935 39.7647059,31.1415196 39.7647059,20.0614875 L39.7647059,20.0614875 C39.7647059,8.98178796 31.0340523,0 20.2645443,0 L20.2645443,0 C9.49568259,0 0.764705882,8.98178796 0.764705882,20.0614875 M11.1502927,19.8576809 C11.1502927,14.6787318 15.230587,10.4802487 20.2645443,10.4802487 L20.2645443,10.4802487 C25.2985016,10.4802487 29.3791191,14.6787318 29.3791191,19.8576809 L29.3791191,19.8576809 C29.3791191,25.0362976 25.2985016,29.2347806 20.2645443,29.2347806 L20.2645443,29.2347806 C15.230587,29.2347806 11.1502927,25.0362976 11.1502927,19.8576809" id="Fill-306" fill="#FB3640" mask="url(#mask-2)"></path>
            </g>
            <path d="M345.384868,36.8778664 C344.139901,36.862317 342.874875,36.8526239 341.627303,36.8508065 L341.624698,36.8508065 C341.279785,36.8508065 341,37.0676899 341,37.3332409 C341,37.6026288 341.279785,37.8197142 341.624698,37.8197142 C342.86732,37.8215317 344.124792,37.8312248 345.36507,37.8467742 L345.374969,37.8467742 C345.714932,37.8467742 345.994978,37.635545 345.999927,37.370196 C346.005137,37.1026255 345.730041,36.8817033 345.384868,36.8778664 M337.374676,36.8508065 L337.367379,36.8508065 C336.126519,36.8621643 334.8609,36.8809636 333.60779,36.9072042 C333.262716,36.9148413 332.990358,37.1290743 333.000262,37.3901095 C333.007559,37.6438991 333.287737,37.8467742 333.622907,37.8467742 L333.64063,37.8467742 C334.888526,37.8205336 336.149455,37.8017344 337.381974,37.7903765 C337.727048,37.7866558 338.005141,37.5743811 337.999928,37.3151084 C337.994976,37.057598 337.717144,36.8508065 337.374676,36.8508065 M353.404221,36.9578553 C352.161214,36.9151545 350.898403,36.879323 349.645494,36.8509177 C349.305427,36.8455337 349.012786,37.036202 349.000278,37.2820099 C348.990115,37.5280036 349.260084,37.7327817 349.605624,37.7416931 C350.850716,37.7702841 352.108836,37.80593 353.344025,37.8467742 L353.373992,37.8467742 C353.706764,37.8467742 353.981684,37.6614899 353.999404,37.4229225 C354.014258,37.1769289 353.7495,36.9686233 353.404221,36.9578553 M330.348648,36.8511026 C329.109762,36.8859303 327.843228,36.9292834 326.591823,36.9762645 C326.246238,36.9902318 325.980986,37.1939373 326.001069,37.4342843 C326.018544,37.6675569 326.293968,37.8467742 326.624425,37.8467742 C326.636683,37.8467742 326.646855,37.8467742 326.659374,37.8449603 C327.908433,37.7979792 329.167402,37.7560772 330.401333,37.721431 C330.746657,37.7109101 331.014517,37.5072047 330.99939,37.267039 C330.984523,37.026692 330.686929,36.8423957 330.348648,36.8511026 M360.423849,38.0233652 C359.183298,37.9576645 357.920814,37.8986366 356.665118,37.8476501 C356.314442,37.8329359 356.021212,38.0054002 356.001367,38.2302198 C355.97865,38.4569214 356.241853,38.6523126 356.584956,38.6670268 C357.833079,38.7178422 359.090864,38.7770412 360.323843,38.841031 C360.341337,38.8427419 360.358832,38.8427419 360.373976,38.8427419 C360.696974,38.8427419 360.97271,38.6802011 360.998038,38.4649629 C361.025194,38.2384324 360.767214,38.0415014 360.423849,38.0233652 M322.331757,37.8478574 C321.089204,37.9031665 319.826287,37.9633957 318.576163,38.0302416 C318.230211,38.0497524 317.974599,38.2452004 318.002014,38.4698299 C318.02969,38.6830921 318.303057,38.8427419 318.626032,38.8427419 L318.678512,38.8427419 C319.923936,38.775896 321.181632,38.7141399 322.416874,38.6586611 C322.762825,38.6440704 323.023398,38.450319 322.998333,38.2255199 C322.975618,38.0008904 322.68528,37.8315701 322.331757,37.8478574 M368.443248,38.0841966 C367.195167,37.998981 365.931645,37.9199428 364.686181,37.8485074 C364.341774,37.8287083 364.035577,37.9807658 364.002864,38.1904785 C363.97015,38.3987656 364.221389,38.5842441 364.568151,38.6040433 C365.806287,38.6770626 367.061958,38.7561008 368.30245,38.8395741 C368.325218,38.841158 368.350604,38.8427419 368.373111,38.8427419 C368.689514,38.8427419 368.960643,38.6981289 368.995712,38.5052059 C369.036015,38.2954932 368.787655,38.1084308 368.443248,38.0841966 M314.314391,37.8485182 C313.069924,37.9203994 311.807675,37.9984965 310.560331,38.0794625 C310.216462,38.1024135 309.968039,38.2906434 310.003341,38.5000711 C310.038643,38.6973857 310.311908,38.8427419 310.628059,38.8427419 C310.650809,38.8427419 310.67356,38.8413075 310.695787,38.8397137 C311.937901,38.7585883 313.195443,38.6806506 314.432588,38.6087694 C314.776457,38.5888467 315.029848,38.4022106 314.997161,38.1926236 C314.964736,37.9816021 314.65826,37.8285955 314.314391,37.8485182 M375.461773,39.135304 C374.223053,39.0335979 372.961505,38.9361603 371.709928,38.8457876 C371.36253,38.8203243 371.050291,38.9573552 371.004899,39.1509058 C370.96213,39.3429846 371.204049,39.5209334 371.548823,39.5463967 C372.792529,39.6352975 374.046992,39.7327352 375.278103,39.8344413 C375.308277,39.837385 375.338714,39.8387097 375.368626,39.8387097 C375.675879,39.8387097 375.945349,39.7115403 375.993365,39.5365352 C376.043481,39.3429846 375.804185,39.1635639 375.461773,39.135304 M307.995688,39.1618037 C307.952705,38.9637951 307.640817,38.8221452 307.296167,38.845201 C306.058572,38.9319992 304.796341,39.0230169 303.545904,39.1184046 C303.201516,39.1444742 302.96013,39.3266601 303.005472,39.5249701 C303.045572,39.707156 303.317361,39.8387097 303.626628,39.8387097 C303.654148,39.8387097 303.681929,39.8372028 303.709449,39.8358465 C304.957265,39.7403082 306.214779,39.6492905 307.447131,39.5638485 C307.791781,39.5392858 308.035788,39.359963 307.995688,39.1618037 M299.993291,40.1327919 C299.942842,39.945632 299.625434,39.8148352 299.279912,39.8423714 C298.036818,39.9400387 296.775858,40.0447335 295.532501,40.1507191 C295.189869,40.1809802 294.952601,40.3572404 295.008043,40.5442569 C295.056127,40.713633 295.323348,40.8346774 295.62867,40.8346774 C295.661514,40.8346774 295.694096,40.8333867 295.729305,40.8305183 C296.967406,40.7246762 298.223374,40.6214155 299.461475,40.5236048 C299.804108,40.496212 300.04374,40.321386 299.993291,40.1327919 M384.483458,40.1814386 C383.241242,40.0642399 381.981893,39.9496486 380.734669,39.843017 C380.393343,39.8139231 380.064405,39.9352389 380.008791,40.1155658 C379.950805,40.2947947 380.185912,40.4633194 380.529874,40.4936483 C381.769454,40.5990448 383.021159,40.7122638 384.255995,40.8293253 C384.293686,40.8333051 384.33164,40.8346774 384.369595,40.8346774 C384.667959,40.8346774 384.936012,40.724066 384.989517,40.5647361 C385.052511,40.3856443 384.825048,40.214375 384.483458,40.1814386 M292.991143,41.1089103 C292.932923,40.9299836 292.606784,40.8091465 292.262995,40.8392873 C291.021665,40.9483421 289.762685,41.0627401 288.518721,41.1785081 C288.174931,41.211389 287.947319,41.3823694 288.010545,41.5611591 C288.063759,41.7188502 288.331678,41.8306452 288.629892,41.8306452 C288.667828,41.8306452 288.705763,41.8292751 288.743962,41.825439 C289.982657,41.709671 291.236369,41.595273 292.472693,41.4874512 C292.816483,41.4571734 293.0491,41.287563 292.991143,41.1089103 M391.501794,40.6130366 C390.263707,40.349277 389.005489,40.0929654 387.75972,39.8515497 C387.416425,39.7824637 387.080812,39.9992242 387.012471,40.3320697 C386.943865,40.6672267 387.165046,40.9900561 387.510725,41.0591421 C388.746428,41.2982464 389.999349,41.554558 391.229754,41.8157493 C391.275314,41.8255087 391.32114,41.8306452 391.364582,41.8306452 C391.656753,41.8306452 391.921112,41.6334034 391.984685,41.3475568 C392.060973,41.0149681 391.844824,40.6870022 391.501794,40.6130366 M284.988593,41.3449101 C284.922555,41.0046147 284.590781,40.7806394 284.2458,40.8460202 C283.011157,41.0804985 281.75406,41.3273177 280.50938,41.5793883 C280.164662,41.6473949 279.943832,41.9800756 280.012511,42.3227342 C280.073266,42.6199675 280.339266,42.8266129 280.633266,42.8266129 C280.676587,42.8266129 280.717267,42.821624 280.760059,42.8140094 C282.002363,42.5645645 283.25444,42.3177453 284.484064,42.083267 C284.829046,42.0176236 285.054367,41.6878312 284.988593,41.3449101 M399.521029,42.6854893 C398.291155,42.3964596 397.035431,42.1146555 395.789834,41.8465804 C395.444724,41.7723961 395.099346,41.96436 395.017532,42.2741036 C394.935718,42.5838472 395.148115,42.8957585 395.490561,42.9697019 C396.728696,43.2380179 397.976425,43.5176542 399.201768,43.8042754 C399.255334,43.8158366 399.308899,43.8225806 399.362731,43.8225806 C399.646815,43.8225806 399.905048,43.6494036 399.978867,43.3880725 C400.068676,43.0807375 399.864008,42.7640091 399.521029,42.6854893 M276.98563,42.3110504 C276.914559,41.983851 276.575914,41.7755643 276.232494,41.8434783 C275.64961,41.9621386 275.066726,42.0830712 274.481454,42.2042561 C273.817157,42.3423565 273.155512,42.4829816 272.496518,42.6258789 C272.152834,42.7011146 271.939092,43.0257894 272.015466,43.3527364 C272.08415,43.633734 272.346156,43.8225806 272.636273,43.8225806 C272.682415,43.8225806 272.730414,43.8177837 272.778944,43.8081899 C273.435551,43.6652926 274.092158,43.5246676 274.753538,43.3890919 C275.336688,43.2679069 275.91692,43.1467219 276.497153,43.0280616 C276.840572,42.9601475 277.059618,42.6379974 276.98563,42.3110504 M406.539322,43.7532742 C405.310049,43.4422105 404.057409,43.1379435 402.815245,42.8465903 C402.47469,42.7661624 402.119095,42.9358541 402.024019,43.2249417 C401.928406,43.5140293 402.126615,43.8142182 402.469856,43.8946462 C403.704232,44.1837338 404.949082,44.4859617 406.170835,44.7947598 C406.232339,44.8099392 406.29438,44.8185484 406.356421,44.8185484 C406.634935,44.8185484 406.890082,44.6665282 406.972267,44.4293223 C407.0754,44.1425003 406.882025,43.8402723 406.539322,43.7532742 M269.982207,44.2624373 C269.897688,43.9542741 269.55241,43.7632896 269.209532,43.839252 C267.966,44.1105124 266.71207,44.3956712 265.478936,44.6832263 C265.136059,44.7637418 264.931292,45.0788543 265.021144,45.3846212 C265.095265,45.6443793 265.356023,45.8145161 265.640244,45.8145161 C265.693835,45.8145161 265.747693,45.8099632 265.801284,45.7963043 C267.026952,45.5087492 268.27555,45.2281433 269.51135,44.956883 C269.854495,44.8809205 270.064327,44.5703609 269.982207,44.2624373 M413.560343,45.8103239 C412.33391,45.479505 411.083647,45.1553196 409.846923,44.8431173 C409.506533,44.7568819 409.139876,44.9047447 409.030746,45.1756481 C408.921886,45.4469795 409.111443,45.7343596 409.451833,45.8205951 C410.680974,46.1306575 411.923384,46.4550569 413.141963,46.7815961 C413.209662,46.8002127 413.279798,46.8104839 413.349934,46.8104839 C413.620188,46.8104839 413.872299,46.6748182 413.965723,46.4612624 C414.08027,46.1942107 413.898295,45.9027648 413.560343,45.8103239 M262.976461,45.2185016 C262.880971,44.9281401 262.525835,44.7577006 262.183575,44.8387105 C260.942746,45.1311201 259.691724,45.4346799 258.464038,45.7405152 C258.121509,45.8256212 257.92597,46.129181 258.026288,46.4197701 C258.108634,46.6577937 258.366134,46.8104839 258.64402,46.8104839 C258.703299,46.8104839 258.764991,46.8041123 258.826952,46.788866 C260.046859,46.4828031 261.293053,46.1817464 262.528517,45.8911573 C262.87051,45.8103749 263.071414,45.5111387 262.976461,45.2185016 M420.578845,47.8629086 C419.360592,47.5164957 418.116076,47.1723125 416.879767,46.8396831 C416.538339,46.7482658 416.162713,46.8786014 416.039329,47.1315699 C415.916217,47.3843358 416.091856,47.6626418 416.430548,47.7538565 C417.659471,48.0846615 418.898515,48.4270205 420.108834,48.7712037 C420.18489,48.7926898 420.266417,48.8024194 420.342198,48.8024194 C420.607845,48.8024194 420.857076,48.6838403 420.956659,48.4912761 C421.085516,48.2403345 420.917537,47.9581772 420.578845,47.8629086 M254.970706,47.1748902 C254.864228,46.9026245 254.501283,46.7488388 254.158878,46.8339625 C252.916543,47.1436999 251.666371,47.4657834 250.444845,47.7880836 C250.105142,47.8794886 249.920833,48.1725478 250.032716,48.4448135 C250.123249,48.6631458 250.374851,48.8024194 250.647262,48.8024194 C250.714824,48.8024194 250.784819,48.793972 250.852111,48.7753444 C252.065799,48.4554268 253.310566,48.1352927 254.545334,47.8275047 C254.885037,47.7402151 255.076914,47.4493219 254.970706,47.1748902 M248.963855,49.1361323 C248.843697,48.876331 248.469874,48.7395065 248.130109,48.8306539 C246.898291,49.1559739 245.65394,49.4930749 244.427571,49.8324494 C244.090531,49.9275238 243.915063,50.2113004 244.04067,50.4690348 C244.137395,50.6693113 244.385884,50.7943548 244.652356,50.7943548 C244.728374,50.7943548 244.804119,50.784434 244.87714,50.7645924 C246.09588,50.4254246 247.335327,50.0901838 248.561695,49.7669306 C248.90146,49.6755765 249.081833,49.3940734 248.963855,49.1361323 M428.598688,49.90867 C427.379975,49.5446108 426.140518,49.1842115 424.914337,48.8367179 C424.574392,48.7405986 424.186595,48.8532836 424.048847,49.0900184 C423.910822,49.3265606 424.075401,49.5964267 424.415346,49.692546 C425.633505,50.0383059 426.865217,50.3969717 428.075632,50.757371 C428.160825,50.7833753 428.248232,50.7943548 428.335638,50.7943548 C428.593156,50.7943548 428.837672,50.6907232 428.946377,50.5152428 C429.089934,50.2804342 428.93559,50.0086419 428.598688,49.90867 M240.955091,51.0983265 C240.823087,50.8539459 240.443028,50.7327425 240.10257,50.8255203 C238.87274,51.1666268 237.63246,51.5187876 236.41033,51.8731199 C236.072622,51.9716223 235.911743,52.2462051 236.048972,52.4888092 C236.151824,52.6743648 236.397405,52.7862903 236.658661,52.7862903 C236.743088,52.7862903 236.82504,52.7748411 236.906717,52.7501662 C238.120597,52.3980054 239.355652,52.0474237 240.577782,51.7102652 C240.91824,51.6155134 241.087094,51.3427072 240.955091,51.0983265 M434.616535,51.948333 C433.40671,51.5715457 432.172796,51.1947584 430.949806,50.8339304 C430.610864,50.7335883 430.213098,50.830445 430.060154,51.0522249 C429.90665,51.2741882 430.057073,51.5346741 430.396015,51.6348327 C431.610881,51.9958441 432.836673,52.3673116 434.038374,52.7439155 C434.132493,52.7721654 434.231935,52.7862903 434.328575,52.7862903 C434.579,52.7862903 434.82046,52.692919 434.933347,52.5362606 C435.094975,52.3161317 434.952395,52.0539948 434.616535,51.948333 M233.946666,53.0621765 C233.802492,52.8317048 233.413304,52.7246054 233.072174,52.8226221 C231.851274,53.1747633 230.614262,53.5416636 229.396139,53.910267 C229.06001,54.0120682 228.908057,54.2788704 229.05751,54.5095314 C229.169182,54.6783169 229.411973,54.7782258 229.667821,54.7782258 C229.758381,54.7782258 229.84922,54.765548 229.937002,54.7401923 C231.147346,54.3732919 232.37908,54.0082837 233.594703,53.6578456 C233.933332,53.5598289 234.090563,53.2930267 233.946666,53.0621765 M441.634221,54.9822241 C440.426167,54.5904446 439.199362,54.2019941 437.98591,53.8270351 C437.650655,53.7227825 437.238689,53.8068855 437.072482,54.0138138 C436.903718,54.2221438 437.039809,54.4744526 437.375348,54.5787052 C438.580277,54.9503351 439.801968,55.3370334 441.001499,55.7254839 C441.102359,55.7591251 441.211459,55.7741935 441.318002,55.7741935 C441.563192,55.7741935 441.800428,55.6918427 441.92004,55.5488677 C442.097611,55.3436916 441.969476,55.089981 441.634221,54.9822241 M226.937457,55.0295642 C226.778742,54.8118988 226.379567,54.7177586 226.039945,54.8187916 C224.824161,55.1844693 223.592365,55.5621187 222.379109,55.9433958 C222.044824,56.0476938 221.904368,56.3088922 222.068982,56.5247436 C222.184999,56.6796488 222.424897,56.7701613 222.675751,56.7701613 C222.772665,56.7701613 222.875198,56.7545619 222.969303,56.7249957 C224.174694,56.347165 225.401153,55.9711481 226.609072,55.6090981 C226.945884,55.5064326 227.094206,55.248862 226.937457,55.0295642 M448.652321,57.0151753 C447.453794,56.610906 446.233056,56.2111696 445.026164,55.8246963 C444.691557,55.7167456 444.270702,55.7875935 444.084938,55.982509 C443.902058,56.1774246 444.024074,56.4223701 444.358969,56.5303208 C445.558073,56.9137722 446.770158,57.3118297 447.963204,57.7129092 C448.071375,57.7483331 448.190218,57.766129 448.306753,57.766129 C448.547324,57.766129 448.779818,57.6936023 448.907315,57.564498 C449.098272,57.3712613 448.984909,57.1264837 448.652321,57.0151753 M219.926846,57.9952178 C219.754758,57.7891889 219.345445,57.7073704 219.006674,57.8109955 C217.794664,58.1893839 216.569,58.5794606 215.362678,58.9695373 C215.029596,59.0783959 214.903872,59.3311782 215.078805,59.5354626 C215.201684,59.6778162 215.439194,59.7580645 215.682108,59.7580645 C215.791049,59.7580645 215.900275,59.7430616 216.001537,59.7095666 C217.199609,59.3212344 218.419869,58.9344723 219.626474,58.557654 C219.962401,58.4538545 220.095805,58.2010722 219.926846,57.9952178 M454.671368,60.0404166 C453.488908,59.6302167 452.276241,59.2184037 451.065921,58.8173981 C450.733941,58.7075491 450.303129,58.7664256 450.10048,58.9490234 C449.901058,59.1316213 450.007514,59.3700309 450.339788,59.4798799 C451.541603,59.8794337 452.746058,60.2880206 453.91972,60.6951557 C454.037614,60.7354821 454.167532,60.7540323 454.293931,60.7540323 C454.527373,60.7540323 454.755536,60.6904779 454.891026,60.5744992 C455.098954,60.3933531 455.000415,60.1533305 454.671368,60.0404166 M212.915046,59.9667189 C212.729663,59.7714704 212.309309,59.7005626 211.974293,59.8086046 C210.76253,60.1970853 209.542406,60.59716 208.347076,60.9970666 C208.015232,61.1083011 207.901638,61.3532859 208.092787,61.5468542 C208.219932,61.6774119 208.452309,61.75 208.693047,61.75 C208.809235,61.75 208.928307,61.732189 209.036135,61.6967351 C210.225698,61.2985088 211.43775,60.9001144 212.641153,60.5148262 C212.976168,60.4067842 213.097834,60.1616314 212.915046,59.9667189 M461.69133,63.7182727 C460.507793,63.0854307 459.304252,62.4549188 458.112056,61.8421152 C457.779746,61.6722545 457.33577,61.743787 457.117813,62.0033548 C456.900453,62.2603595 456.992115,62.6068381 457.324723,62.7769319 C458.507663,63.3850753 459.705233,64.0111602 460.880112,64.639342 C461.003422,64.7066805 461.144049,64.7379032 461.284079,64.7379032 C461.51368,64.7379032 461.737012,64.6528563 461.874355,64.4962769 C462.097985,64.2413692 462.014683,63.8925605 461.69133,63.7182727 M206.900231,62.9359074 C206.701041,62.750551 206.271657,62.6915223 205.937626,62.8004983 C204.73927,63.1987796 203.523364,63.6080882 202.33349,64.0173968 C202.002091,64.1310756 201.900888,64.3705958 202.10622,64.5543306 C202.237843,64.6727122 202.468038,64.7379032 202.704082,64.7379032 C202.83044,64.7379032 202.956506,64.7194162 203.071457,64.6788746 C204.258991,64.2710254 205.463198,63.864798 206.658922,63.4695979 C206.99032,63.3591624 207.099713,63.1209396 206.900231,62.9359074 M467.707535,66.751786 C466.532809,66.1058898 465.3386,65.4622441 464.155046,64.8381778 C463.827803,64.6653387 463.372402,64.7216014 463.13557,64.9633062 C462.902086,65.2052359 462.97758,65.5443877 463.305127,65.7172268 C464.479245,66.3370171 465.668583,66.9763868 466.834177,67.6198075 C466.965378,67.6911486 467.11728,67.7258065 467.269486,67.7258065 C467.494447,67.7258065 467.713319,67.6501893 467.856393,67.507507 C468.095965,67.2700783 468.02869,66.9307015 467.707535,66.751786 M199.886186,65.9930903 C199.672523,65.7313455 199.233015,65.6546799 198.899595,65.8237676 C197.704394,66.4354461 196.498494,67.0607646 195.314882,67.6879645 C194.989783,67.8617555 194.901227,68.2116893 195.120833,68.4710824 C195.257827,68.6338204 195.483078,68.7217742 195.713976,68.7217742 C195.847998,68.7217742 195.987666,68.6900262 196.107424,68.6246488 C197.28539,68.0019172 198.483265,67.3789504 199.672523,66.7740917 C200.003269,66.6047689 200.100145,66.2548352 199.886186,65.9930903 M473.721301,70.7793056 C472.555956,70.1210093 471.372286,69.4666341 470.20104,68.8312104 C469.87616,68.6534573 469.407786,68.6974599 469.154963,68.925315 C468.904315,69.1529522 468.963948,69.481229 469.288829,69.6568037 C470.451378,70.2880885 471.628526,70.9405033 472.78828,71.5946607 C472.925251,71.671992 473.089244,71.7096774 473.252927,71.7096774 C473.470652,71.7096774 473.688378,71.6428022 473.834046,71.5151511 C474.093702,71.2894744 474.043075,70.9611976 473.721301,70.7793056 M193.871843,68.9556265 C193.642888,68.7085324 193.19102,68.6472148 192.863597,68.8199983 C191.674724,69.4413807 190.477696,70.0798592 189.300905,70.7187935 C188.975898,70.8938565 188.903708,71.2373721 189.135683,71.4821867 C189.277345,71.6308079 189.500863,71.7096774 189.726797,71.7096774 C189.871479,71.7096774 190.019484,71.6748016 190.14695,71.6068735 C191.318002,70.9704466 192.509593,70.3358432 193.689404,69.7169682 C194.017129,69.5464641 194.098079,69.2050001 193.871843,68.9556265 M480.738396,73.8069324 C479.590128,73.1435442 478.41774,72.4782534 477.251381,71.8269153 C476.927974,71.6482783 476.446832,71.6768179 476.17611,71.8918166 C475.907927,72.1068152 475.950455,72.4254022 476.273544,72.6059419 C477.433873,73.2532633 478.600548,73.9145374 479.739612,74.5739089 C479.882432,74.6569909 480.062067,74.6975806 480.238846,74.6975806 C480.452123,74.6975806 480.662226,74.6385987 480.814567,74.5229603 C481.08878,74.3119784 481.055138,73.9914887 480.738396,73.8069324 M187.852661,72.9178973 C187.607955,72.6842141 187.14744,72.6355301 186.820345,72.8116777 C185.646309,73.440365 184.456901,74.0900749 183.285939,74.742219 C182.964378,74.9205795 182.905353,75.2540648 183.153134,75.4853137 C183.297621,75.6214076 183.515889,75.6935484 183.737539,75.6935484 C183.893401,75.6935484 184.052952,75.657478 184.188524,75.5809113 C185.351186,74.9354059 186.53383,74.2896792 187.702333,73.6612132 C188.030042,73.4870573 188.097675,73.153572 187.852661,72.9178973 M485.75282,77.8291012 C484.615533,77.1540067 483.453571,76.4791179 482.300699,75.8200629 C481.97961,75.6384886 481.487748,75.6541167 481.201072,75.8556375 C480.91115,76.0588033 480.939071,76.3707491 481.256914,76.5541741 C482.403942,77.2072658 483.559735,77.8782476 484.690529,78.5492293 C484.840198,78.638063 485.03045,78.6814516 485.222974,78.6814516 C485.429133,78.6814516 485.63789,78.6302489 485.790481,78.5255815 C486.083325,78.3263227 486.067742,78.0145825 485.75282,77.8291012 M180.835343,75.8871037 C180.576941,75.6641412 180.102108,75.6290612 179.780123,75.8066134 C178.608074,76.4488141 177.429761,77.1099537 176.272433,77.7667891 C175.951075,77.9484303 175.908791,78.2746958 176.173457,78.4935692 C176.320668,78.6177481 176.534281,78.6814516 176.750399,78.6814516 C176.918908,78.6814516 177.090236,78.6422825 177.231183,78.5617922 C178.379428,77.9092612 179.554922,77.2524259 180.717887,76.614099 C181.042691,76.4343947 181.094058,76.1102814 180.835343,75.8871037 M175.817614,79.8532883 C175.541719,79.6418666 175.057944,79.6177461 174.736066,79.7989647 C173.57756,80.4491702 172.410114,81.1174138 171.257675,81.7856573 C170.942184,81.9687636 170.911209,82.2869449 171.193491,82.4962691 C171.343573,82.6091113 171.554965,82.6653226 171.766358,82.6653226 C171.947414,82.6653226 172.127832,82.6229543 172.27504,82.5386374 C173.418218,81.8741692 174.579916,81.2101205 175.731716,80.5618026 C176.053594,80.3828912 176.090316,80.06471 175.817614,79.8532883 M490.81503,81.846116 C489.913721,81.1631767 488.995126,80.4806382 488.081318,79.8133295 C487.828664,79.6287676 487.425216,79.6323746 487.180275,79.8229484 C486.935334,80.0153257 486.940387,80.3191214 487.193041,80.5036834 C488.10153,81.1671846 489.015338,81.846116 489.911062,82.5248471 C490.036325,82.6192322 490.199619,82.6653226 490.362913,82.6653226 C490.526473,82.6653226 490.687373,82.6192322 490.81237,82.5248471 C491.062098,82.3382812 491.062098,82.0344854 490.81503,81.846116 M168.836314,83.8213209 C168.601182,83.6207626 168.205993,83.6070509 167.950789,83.7896 C167.032679,84.4496006 166.104663,85.1251548 165.19672,85.800709 C164.943861,85.9875557 164.933956,86.2976025 165.171694,86.4940678 C165.294213,86.5961888 165.459223,86.6491935 165.624233,86.6491935 C165.779597,86.6491935 165.934701,86.6039656 166.054613,86.5137143 C166.96021,85.8438904 167.880666,85.1701781 168.79643,84.5142705 C169.051635,84.3317214 169.0691,84.0194235 168.836314,83.8213209 M495.825466,85.860559 C494.931404,85.1693785 494.024266,84.4783938 493.124756,83.8059997 C492.874135,83.618332 492.460883,83.6124613 492.199366,83.7926927 C491.940845,83.9711628 491.932673,84.2697872 492.181114,84.4556936 C493.075449,85.1243696 493.976866,85.8116363 494.866025,86.4989029 C494.994332,86.5985096 495.169222,86.6491935 495.344384,86.6491935 C495.504018,86.6491935 495.66338,86.6079028 495.789235,86.5233643 C496.055656,86.3488079 496.071456,86.0499878 495.825466,85.860559 M163.817066,87.7902652 C163.571794,87.6000385 163.168067,87.5962379 162.915072,87.7824641 C162.007751,88.4465574 161.087648,89.1320537 160.185653,89.8155497 C159.937718,90.0033761 159.937718,90.3068187 160.18805,90.4928448 C160.313216,90.5870581 160.476997,90.6330645 160.638115,90.6330645 C160.804293,90.6330645 160.967808,90.5850578 161.092974,90.4910446 C161.989908,89.8115491 162.904686,89.1302534 163.806947,88.4677604 C164.059942,88.2833344 164.065268,87.9802919 163.817066,87.7902652 M500.837077,89.872445 C499.95725,89.1763269 499.061492,88.4784862 498.171044,87.7969144 C497.923977,87.6095348 497.500553,87.5930745 497.22386,87.7620798 C496.947726,87.9310851 496.92369,88.221246 497.170478,88.4105395 C498.058131,89.0882833 498.948579,89.7807649 499.823096,90.4732464 C499.954455,90.5779416 500.142271,90.6330645 500.330087,90.6330645 C500.485482,90.6330645 500.640877,90.5961245 500.767206,90.5209047 C501.048929,90.353622 501.078275,90.0653751 500.837077,89.872445 M157.7989,91.7605121 C157.539962,91.5801744 157.127184,91.5860486 156.876414,91.7738269 C155.966997,92.452296 155.057853,93.1436883 154.174575,93.8256819 C153.928978,94.0156141 153.944498,94.3126524 154.20861,94.4890739 C154.333859,94.5736623 154.493415,94.6169355 154.652699,94.6169355 C154.827776,94.6169355 155.002852,94.5660258 155.130824,94.4665562 C156.011379,93.7882829 156.915622,93.1004151 157.817143,92.4239041 C158.067641,92.237888 158.060017,91.9390875 157.7989,91.7605121 M506.846474,94.8801911 C505.981768,94.1782432 505.097834,93.4744194 504.216483,92.7865404 C503.973975,92.5957652 503.538608,92.5706286 503.247025,92.7289514 C502.954867,92.8893377 502.916124,93.1718427 503.161501,93.362618 C504.03453,94.0486211 504.915881,94.7488807 505.775134,95.4455762 C505.91289,95.5553142 506.111201,95.6129032 506.312095,95.6129032 C506.463914,95.6129032 506.615158,95.5806384 506.744592,95.5121694 C507.039619,95.3572231 507.086399,95.0730298 506.846474,94.8801911 M153.7806,95.7310017 C153.505478,95.5614101 153.083049,95.576199 152.837444,95.7642286 C151.941906,96.4479727 151.044139,97.1447772 150.16503,97.8358197 C149.921653,98.0274985 149.95117,98.318858 150.229077,98.486529 C150.354664,98.5639304 150.512553,98.6008065 150.667378,98.6008065 C150.854506,98.6008065 151.038849,98.5472209 151.169726,98.4440831 C152.04633,97.7547691 152.938805,97.061806 153.828774,96.381519 C154.074658,96.1934893 154.053216,95.9025139 153.7806,95.7310017 M510.857695,98.8887318 C510.005491,98.1840023 509.133524,97.4737513 508.264506,96.7796967 C508.026751,96.5871799 507.579263,96.5518422 507.273661,96.7020274 C506.96511,96.8520286 506.908768,97.1293927 507.149179,97.3219096 C508.012592,98.0126513 508.878659,98.7190372 509.727913,99.4202697 C509.86685,99.5349332 510.079237,99.5967742 510.291624,99.5967742 C510.441475,99.5967742 510.591621,99.566958 510.718758,99.5067735 C511.030259,99.3602693 511.0925,99.0829051 510.857695,98.8887318 M147.75951,99.7036784 C147.469331,99.5426487 147.040049,99.5662186 146.793767,99.7562865 C145.915819,100.441888 145.026754,101.144084 144.156787,101.844393 C143.915921,102.036158 143.956968,102.322203 144.249713,102.47965 C144.375704,102.550171 144.531625,102.584677 144.684696,102.584677 C144.881664,102.584677 145.076067,102.526601 145.212605,102.417991 C146.076871,101.72315 146.96052,101.02284 147.835903,100.340632 C148.082185,100.150753 148.046839,99.8647081 147.75951,99.7036784 M515.867013,103.892313 C515.030816,103.183581 514.171854,102.468152 513.318052,101.768107 C513.079486,101.573731 512.625116,101.530114 512.298832,101.672729 C511.975584,101.813353 511.902739,102.084286 512.138574,102.278843 C512.989037,102.975269 513.842535,103.68563 514.675697,104.392552 C514.818352,104.512364 515.042653,104.576613 515.272721,104.576613 C515.418107,104.576613 515.5641,104.552361 515.689454,104.498428 C516.01847,104.359432 516.099813,104.0885 515.867013,103.892313 M143.737184,104.674048 C143.434394,104.52104 142.994661,104.551271 142.753772,104.743412 C141.882191,105.435752 141.005062,106.144227 140.147788,106.847324 C139.909527,107.041135 139.965588,107.322485 140.271007,107.471969 C140.400065,107.534285 140.551314,107.564516 140.699644,107.564516 C140.909874,107.564516 141.117185,107.505724 141.254711,107.393518 C142.109065,106.692461 142.980646,105.98751 143.846388,105.298694 C144.087569,105.106552 144.039975,104.827057 143.737184,104.674048 M520.87838,107.897747 C520.053452,107.181785 519.207268,106.462797 518.370461,105.758939 C518.13633,105.564017 517.671507,105.514529 517.329532,105.64608 C516.985057,105.77941 516.897844,106.044292 517.128849,106.238858 C517.96253,106.939333 518.802462,107.654939 519.621451,108.367519 C519.765243,108.492305 520.005313,108.560484 520.251322,108.560484 C520.392613,108.560484 520.53328,108.53663 520.662067,108.490525 C521.00748,108.360577 521.103446,108.095874 520.87838,107.897747 M138.71447,108.647249 C138.395622,108.50358 137.94744,108.542099 137.709127,108.734875 C136.844198,109.43734 135.979568,110.150394 135.137691,110.853041 C134.904768,111.049104 134.973926,111.322386 135.295468,111.466056 C135.422109,111.522282 135.571503,111.548387 135.717903,111.548387 C135.93915,111.548387 136.157703,111.487049 136.298415,111.36985 C137.134603,110.669028 137.99624,109.959443 138.855481,109.262272 C139.093793,109.06767 139.030922,108.794387 138.71447,108.647249 M523.886509,112.900534 C523.07566,112.178469 522.24998,111.45465 521.426557,110.749075 C521.197649,110.552069 520.721134,110.493125 520.359073,110.617855 C519.997011,110.742409 519.89223,111.001693 520.120815,111.198699 C520.93779,111.90059 521.760569,112.621076 522.568194,113.338229 C522.713599,113.4698 522.967332,113.540323 523.22719,113.540323 C523.366792,113.540323 523.502847,113.520148 523.629552,113.478221 C523.994515,113.356824 524.108969,113.09754 523.886509,112.900534 M134.687619,113.619795 C134.357615,113.481666 133.898065,113.528249 133.66261,113.723391 C132.814116,114.425904 131.959788,115.143884 131.129098,115.853231 C130.89917,116.050172 130.984511,116.317616 131.320347,116.453946 C131.44713,116.503945 131.591411,116.528226 131.735692,116.528226 C131.971454,116.528226 132.201075,116.462759 132.342593,116.341716 C133.17052,115.634168 134.019015,114.921224 134.86444,114.222308 C135.100201,114.027166 135.020386,113.758103 134.687619,113.619795 M528.895994,117.900851 C528.106995,117.180341 527.298688,116.451527 526.487384,115.736033 C526.263668,115.538477 525.771293,115.473778 525.394438,115.589855 C525.014587,115.706278 524.886416,115.960403 525.110132,116.157787 C525.918439,116.869821 526.723418,117.593791 527.506424,118.311014 C527.653238,118.445429 527.924893,118.520161 528.20254,118.520161 C528.336703,118.520161 528.471199,118.503554 528.596041,118.467053 C528.978888,118.352532 529.113384,118.100137 528.895994,117.900851 M530.929103,122.899932 C530.354272,122.176878 529.758772,121.445967 529.163789,120.724792 C529.000253,120.526135 528.623319,120.454223 528.323373,120.562348 C528.023427,120.670473 527.91182,120.91969 528.075356,121.118005 C528.668013,121.834397 529.260413,122.562233 529.830594,123.2817 C529.94246,123.421084 530.158183,123.5 530.38114,123.5 C530.477763,123.5 530.577229,123.485139 530.668943,123.454051 C530.971214,123.347293 531.087731,123.099955 530.929103,122.899932 M534.935848,128.701568 C534.378032,127.734894 533.799317,126.755182 533.21578,125.788733 C533.056098,125.523459 532.670557,125.415551 532.351996,125.549537 C532.035846,125.685546 531.909654,126.008819 532.068801,126.274318 C532.647515,127.236495 533.22355,128.211712 533.778955,129.171641 C533.889339,129.363852 534.117878,129.475806 534.357133,129.475806 C534.449835,129.475806 534.547627,129.458721 534.637649,129.422077 C534.956478,129.292363 535.090172,128.968865 534.935848,128.701568 M4.45377072,128.747454 C3.22101312,128.650626 1.95837367,128.561281 0.695472098,128.482016 C0.348423181,128.460176 0.0388576442,128.605113 0.00373335802,128.805949 C-0.033750022,129.008311 0.21526544,129.188528 0.559693141,129.210521 C1.81001288,129.289633 3.06505081,129.377603 4.28758566,129.473057 C4.31537055,129.475806 4.34315543,129.475806 4.37067819,129.475806 C4.68260282,129.475806 4.95180164,129.342476 4.99452745,129.159205 C5.03987448,128.958369 4.79846054,128.773571 4.45377072,128.747454 M12.484945,129.821242 C11.250013,129.699473 9.98712836,129.585356 8.73189114,129.480397 C8.38775573,129.450057 8.06366191,129.573466 8.0082838,129.751679 C7.95237828,129.930029 8.18523006,130.099358 8.53200252,130.128058 C9.77458189,130.231788 11.0271821,130.344538 12.2497198,130.465214 C12.2900667,130.469178 12.3280403,130.471774 12.3686509,130.471774 C12.6645283,130.471774 12.9303432,130.361621 12.9886221,130.204318 C13.0542847,130.025832 12.8290804,129.855409 12.484945,129.821242 M19.5181152,131.302398 C18.2874011,131.014406 17.026358,130.740679 15.7751586,130.485889 C15.4306331,130.415059 15.0908964,130.617957 15.0145422,130.934231 C14.9403162,131.252965 15.1574072,131.569239 15.5021987,131.637609 C16.740362,131.890186 17.9862406,132.161454 19.2065791,132.444773 C19.2576593,132.456578 19.3111339,132.46371 19.3622141,132.46371 C19.6482102,132.46371 19.9086661,132.284176 19.9802316,132.017581 C20.0669616,131.701307 19.8602463,131.38036 19.5181152,131.302398 M27.5503623,132.421276 C26.3298217,132.095611 25.0758712,131.782805 23.8243456,131.489285 C23.4805466,131.406373 23.1238146,131.570203 23.0252014,131.853302 C22.9271271,132.135959 23.1238146,132.4297 23.4673443,132.510395 C24.705937,132.801919 25.947224,133.112509 27.1545623,133.43374 C27.2194961,133.451031 27.2865854,133.459677 27.3539442,133.459677 C27.6255347,133.459677 27.8785341,133.314691 27.9690643,133.089453 C28.0776466,132.810565 27.891467,132.510395 27.5503623,132.421276 M538.942231,133.707267 C538.406715,132.744147 537.8472,131.759486 537.276802,130.779267 C537.121366,130.513004 536.725101,130.397749 536.387718,130.521443 C536.053126,130.644914 535.905503,130.960254 536.063451,131.22896 C536.628547,132.200741 537.18555,133.18096 537.718833,134.137862 C537.828224,134.33817 538.072123,134.455645 538.329137,134.455645 C538.420389,134.455645 538.511363,134.440544 538.599545,134.410565 C538.939998,134.291313 539.092365,133.975973 538.942231,133.707267 M34.5872238,134.523005 C33.3690997,134.164613 32.1219138,133.815858 30.8799371,133.488386 C30.5380508,133.397834 30.1618936,133.528743 30.0379701,133.779115 C29.9173366,134.029689 30.0933518,134.305159 30.4355123,134.395912 C31.6615873,134.71977 32.8928715,135.062501 34.0981098,135.41728 C34.1767958,135.440168 34.2609651,135.451613 34.3426668,135.451613 C34.6031255,135.451613 34.8504242,135.335964 34.9529627,135.149439 C35.0873045,134.90248 34.9241751,134.621388 34.5872238,134.523005 M41.6247947,136.611063 C40.4210379,136.225322 39.1824872,135.84853 37.9467424,135.489455 C37.6072213,135.391193 37.2087749,135.490916 37.0580949,135.711914 C36.9071342,135.932911 37.0606203,136.192081 37.3998608,136.290343 C38.6198922,136.644304 39.8421684,137.015982 41.0299312,137.397888 C41.1239309,137.427841 41.2263484,137.443548 41.3262406,137.443548 C41.5737263,137.443548 41.8133552,137.35241 41.9317668,137.198259 C42.0933901,136.980915 41.958704,136.718092 41.6247947,136.611063 M540.950535,138.716615 C540.447178,137.760313 539.907804,136.770061 539.351153,135.773896 C539.19918,135.506674 538.789232,135.38073 538.432285,135.492218 C538.072702,135.605897 537.904038,135.912544 538.055719,136.179546 C538.609734,137.169579 539.143251,138.15326 539.643387,139.101238 C539.752902,139.30713 540.017025,139.435484 540.298425,139.435484 C540.382464,139.435484 540.469432,139.42278 540.553764,139.39781 C540.916275,139.290483 541.093431,138.985588 540.950535,138.716615 M543.967244,144.744349 C543.946514,144.701017 543.476315,143.65931 542.460535,141.765533 C542.318565,141.497812 541.884801,141.361807 541.495639,141.458555 C541.103649,141.557449 540.902315,141.851769 541.046798,142.11949 C542.044361,143.984736 542.520527,145.036739 542.526809,145.047036 C542.626063,145.269278 542.924452,145.41129 543.247027,145.41129 C543.319582,145.41129 543.394651,145.403139 543.467207,145.388551 C543.865164,145.304245 544.087856,145.015931 543.967244,144.744349" id="Fill-321" fill="#FB3640"></path>
            <g id="Group-44" transform="translate(198.000000, 78.681452)">
                <g id="Group-43" transform="translate(0.465385, 0.000000)">
                    <path d="M257.64732,141.997158 L15.260595,141.997158 L15.260595,15.3308428 C15.260595,7.15158262 21.899745,0.520288621 30.08922,0.520288621 L242.81922,0.520288621 C251.00817,0.520288621 257.64732,7.15158262 257.64732,15.3308428 L257.64732,141.997158 Z" id="Fill-1" fill="#DDDEDE"></path>
                    <polygon id="Fill-3" fill="#D5E6F5" points="22.93515 133.261951 247.1427 133.261951 247.1427 10.6989002 22.93515 10.6989002"></polygon>
                    <path d="M238.65555,127.515284 L31.74675,127.515284 C30.655275,127.515284 29.771175,126.631706 29.771175,125.541523 L29.771175,19.2289697 C29.771175,18.1393106 30.655275,17.255208 31.74675,17.255208 L238.65555,17.255208 C239.747025,17.255208 240.63165,18.1393106 240.63165,19.2289697 L240.63165,125.541523 C240.63165,126.631706 239.747025,127.515284 238.65555,127.515284" id="Fill-5" fill="#FFFFFF"></path>
                    <g id="Group-19" transform="translate(22.925021, 139.202114)" fill="#000000">
                        <polygon id="Fill-6" points="-1.63006863e-14 4.96953766 7.947975 4.96953766 7.947975 -3.24442981e-14 -1.63006863e-14 -3.24442981e-14"></polygon>
                        <polygon id="Fill-7" points="12.22095 4.96953766 20.168925 4.96953766 20.168925 -3.24442981e-14 12.22095 -3.24442981e-14"></polygon>
                        <polygon id="Fill-8" points="24.4419 4.96953766 32.389875 4.96953766 32.389875 -3.24442981e-14 24.4419 -3.24442981e-14"></polygon>
                        <polygon id="Fill-9" points="36.663375 4.96953766 44.610825 4.96953766 44.610825 -3.24442981e-14 36.663375 -3.24442981e-14"></polygon>
                        <polygon id="Fill-10" points="48.8838 4.96953766 56.831775 4.96953766 56.831775 -3.24442981e-14 48.8838 -3.24442981e-14"></polygon>
                        <polygon id="Fill-11" points="61.10475 4.96953766 69.052725 4.96953766 69.052725 -3.24442981e-14 61.10475 -3.24442981e-14"></polygon>
                        <polygon id="Fill-12" points="73.3257 4.96953766 81.273675 4.96953766 81.273675 -3.24442981e-14 73.3257 -3.24442981e-14"></polygon>
                        <polygon id="Fill-13" points="85.547175 4.96953766 93.49515 4.96953766 93.49515 -3.24442981e-14 85.547175 -3.24442981e-14"></polygon>
                        <polygon id="Fill-14" points="97.768125 4.96953766 105.7161 4.96953766 105.7161 -3.24442981e-14 97.768125 -3.24442981e-14"></polygon>
                        <polygon id="Fill-15" points="109.989075 4.96953766 117.936525 4.96953766 117.936525 -3.24442981e-14 109.989075 -3.24442981e-14"></polygon>
                        <polygon id="Fill-16" points="122.210025 4.96953766 130.158 4.96953766 130.158 -3.24442981e-14 122.210025 -3.24442981e-14"></polygon>
                    </g>
                    <polygon id="Fill-6" fill="#000000" points="157.130903 144.171652 165.078878 144.171652 165.078878 139.202114 157.130903 139.202114"></polygon>
                    <polygon id="Fill-7" fill="#000000" points="169.351853 144.171652 177.299828 144.171652 177.299828 139.202114 169.351853 139.202114"></polygon>
                    <polygon id="Fill-8" fill="#000000" points="181.572803 144.171652 189.520778 144.171652 189.520778 139.202114 181.572803 139.202114"></polygon>
                    <polygon id="Fill-9" fill="#000000" points="193.794278 144.171652 201.741728 144.171652 201.741728 139.202114 193.794278 139.202114"></polygon>
                    <polygon id="Fill-10" fill="#000000" points="206.014703 144.171652 213.962678 144.171652 213.962678 139.202114 206.014703 139.202114"></polygon>
                    <polygon id="Fill-11" fill="#000000" points="218.235653 144.171652 226.183628 144.171652 226.183628 139.202114 218.235653 139.202114"></polygon>
                    <polygon id="Fill-12" fill="#000000" points="230.456603 144.171652 238.404578 144.171652 238.404578 139.202114 230.456603 139.202114"></polygon>
                    <polygon id="Fill-13" fill="#000000" points="242.678078 144.171652 250.626053 144.171652 250.626053 139.202114 242.678078 139.202114"></polygon>
                    <path d="M269.430577,148.399298 L3.4776525,148.399298 C1.5572025,148.399298 5.25e-05,146.843991 5.25e-05,144.925813 C5.25e-05,143.007111 1.5572025,141.452328 3.4776525,141.452328 L269.430577,141.452328 C271.351027,141.452328 272.908177,143.007111 272.908177,144.925813 C272.908177,146.843991 271.351027,148.399298 269.430577,148.399298" id="Fill-17" fill="#C5C6C6"></path>
                    <path d="M105.400103,25.233264 L46.6494525,25.233264 C44.1215775,25.233264 42.0730275,27.27939 42.0730275,29.8042738 L42.0730275,84.3297033 C42.0730275,86.8540627 44.1215775,88.9007131 46.6494525,88.9007131 L105.400103,88.9007131 C107.927452,88.9007131 109.976528,86.8540627 109.976528,84.3297033 L109.976528,29.8042738 C109.976528,27.27939 107.927452,25.233264 105.400103,25.233264" id="Fill-18" fill="#D5E6F5"></path>
                    <path d="M103.020435,97.1950219 L82.584285,97.1950219 C80.723685,97.1950219 79.21536,98.7015621 79.21536,100.559961 L79.21536,102.296703 C79.21536,104.155626 80.723685,105.662166 82.584285,105.662166 L103.020435,105.662166 C104.881035,105.662166 106.38936,104.155626 106.38936,102.296703 L106.38936,100.559961 C106.38936,98.7015621 104.881035,97.1950219 103.020435,97.1950219" id="Fill-19" fill="#7BAEF3"></path>
                    <path d="M69.46506,97.1950219 L49.029435,97.1950219 C47.16831,97.1950219 45.65946,98.7015621 45.65946,100.559961 L45.65946,102.296703 C45.65946,104.155626 47.16831,105.662166 49.029435,105.662166 L69.46506,105.662166 C71.32566,105.662166 72.833985,104.155626 72.833985,102.296703 L72.833985,100.559961 C72.833985,98.7015621 71.32566,97.1950219 69.46506,97.1950219" id="Fill-20" fill="#E4E4E4"></path>
                    <path d="M102.15093,119.457051 L49.89873,119.457051 C47.55723,119.457051 45.659355,117.561422 45.659355,115.223217 C45.659355,112.884487 47.55723,110.989382 49.89873,110.989382 L102.15093,110.989382 C104.49138,110.989382 106.389255,112.884487 106.389255,115.223217 C106.389255,117.561422 104.49138,119.457051 102.15093,119.457051" id="Fill-21" fill="#7BAEF3"></path>
                    <polygon id="Fill-22" fill="#FFFFFF" points="50.442525 102.435296 68.052075 102.435296 68.052075 100.421682 50.442525 100.421682"></polygon>
                    <path d="M92.8685625,102.435244 L84.0328125,102.435244 C83.4757875,102.435244 83.0248125,101.984803 83.0248125,101.428437 C83.0248125,100.872595 83.4757875,100.421629 84.0328125,100.421629 L92.8685625,100.421629 C93.4255875,100.421629 93.8765625,100.872595 93.8765625,101.428437 C93.8765625,101.984803 93.4255875,102.435244 92.8685625,102.435244" id="Fill-23" fill="#FFFFFF"></path>
                    <path d="M101.683103,100.642917 L100.122277,100.642917 C99.5657775,100.642917 99.1142775,100.192476 99.1142775,99.63611 C99.1142775,99.0802685 99.5657775,98.6293027 100.122277,98.6293027 L101.683103,98.6293027 C102.240128,98.6293027 102.690578,99.0802685 102.690578,99.63611 C102.690578,100.192476 102.240128,100.642917 101.683103,100.642917" id="Fill-24" fill="#FFFFFF"></path>
                    <path d="M55.25058,115.223112 C55.25058,116.541924 54.180105,117.611133 52.860255,117.611133 C51.540405,117.611133 50.470455,116.541924 50.470455,115.223112 C50.470455,113.904299 51.540405,112.835615 52.860255,112.835615 C54.180105,112.835615 55.25058,113.904299 55.25058,115.223112" id="Fill-25" fill="#7BAEF3"></path>
                    <path d="M91.7226975,41.7307447 L67.6052475,27.8231708 C66.2628225,27.0486633 65.0421975,26.9605677 64.1397225,27.4388011 L62.5032975,28.3790123 L62.8634475,29.0024986 C62.6875725,29.4880734 62.5904475,30.0617438 62.5904475,30.7130222 L62.5904475,58.52817 C62.5904475,61.709576 64.8479475,65.6125273 67.6052475,67.2024437 L91.7226975,81.1110664 C92.2592475,81.4199255 92.7784725,81.618665 93.2646225,81.7167238 L93.6494475,82.3821605 L95.2674975,81.4503394 C96.1741725,80.9254363 96.7364475,79.8069363 96.7364475,78.2196418 L96.7364475,50.404494 C96.7364475,47.2236123 94.4799975,43.3206611 91.7226975,41.7307447" id="Fill-26" fill="#BCBEC0"></path>
                    <path d="M95.1944175,79.1080443 C95.1944175,82.288926 92.9390175,83.5904341 90.1811925,81.9999933 L66.0632175,68.0913706 C63.3053925,66.5025029 61.0494675,62.5979785 61.0494675,59.4181457 L61.0494675,31.6029979 C61.0494675,28.4221162 63.3053925,27.1206081 66.0637425,28.7120977 L90.1811925,42.6186228 C92.9395425,44.209588 95.1944175,48.1120149 95.1944175,51.2928965 L95.1944175,79.1080443 Z" id="Fill-27" fill="#FFFFFF"></path>
                    <path d="M90.4550325,42.0774115 L66.3381075,28.1708863 C64.8507825,27.313527 63.5031075,27.2285777 62.5208325,27.7807485 L62.5077075,27.789663 C62.5008825,27.7928092 62.4956325,27.7954311 62.4914325,27.7985774 L58.7439825,29.9611155 L60.9054075,33.7235332 L60.9054075,59.1186729 C60.9054075,62.5727559 63.3424575,66.7877125 66.3381075,68.5150162 L88.0935825,81.0607784 L90.3799575,85.0418621 L94.4550075,82.6973646 C95.3422575,82.0948534 95.8877325,80.9218181 95.8877325,79.2910001 L95.8877325,51.4748035 C95.8877325,48.0201961 93.4501575,43.8057639 90.4550325,42.0774115" id="Fill-28" fill="#303033"></path>
                    <polygon id="Fill-29" fill="#000000" points="94.5486675 75.8050873 93.7753425 76.2523824 93.7753425 57.7035319 94.5486675 57.25781"></polygon>
                    <path d="M86.774415,84.5438596 L62.65644,70.6357613 C59.66289,68.9095064 57.226365,64.6950741 57.226365,61.2399424 L57.226365,33.4242702 C57.226365,29.9701872 59.66289,28.5653765 62.65644,30.2937289 L86.774415,44.1997297 C89.770065,45.9270334 92.20659,50.1430387 92.20659,53.596073 L92.20659,81.4112208 C92.20659,84.8674013 89.770065,86.272212 86.774415,84.5438596" id="Fill-30" fill="#535359"></path>
                    <path d="M86.774415,44.6824204 L62.65644,30.7753708 C61.31559,30.0008634 60.09444,29.9143409 59.19249,30.3915256 L59.190915,30.3904768 L57.55554,31.3322611 L57.91464,31.9552231 C57.739815,32.4407978 57.64374,33.0123707 57.64374,33.6646979 L57.64374,61.4808944 C57.64374,64.6612517 59.90019,68.5652517 62.65644,70.1551682 L86.774415,84.0622177 C87.31359,84.3726499 87.830715,84.5713895 88.316865,84.6689239 L88.70169,85.3338362 L90.32079,84.4030639 C91.22589,83.8781607 91.78974,82.7596608 91.78974,81.1718419 L91.78974,53.3566941 C91.78974,50.1758124 89.532765,46.2723368 86.774415,44.6824204" id="Fill-31" fill="#BCBEC0"></path>
                    <path d="M90.247395,82.0607688 C90.24687,85.2416504 87.989895,86.5431585 85.233645,84.9521933 L61.115145,71.0440951 C58.357845,69.4531298 56.10192,65.550703 56.10192,62.3713945 L56.10192,34.5541492 C56.10192,31.3748407 58.357845,30.0738569 61.115145,31.6642977 L85.233645,45.5713473 C87.989895,47.1617881 90.247395,51.0647393 90.247395,54.245621 L90.247395,82.0607688 Z" id="Fill-32" fill="#FFFFFF"></path>
                    <polygon id="Fill-33" fill="#D5E6F5" points="125.93385 34.2497997 168.863625 34.2497997 168.863625 29.9787346 125.93385 29.9787346"></polygon>
                    <polygon id="Fill-34" fill="#D5E6F5" points="125.93385 43.300053 192.891825 43.300053 192.891825 39.0284635 125.93385 39.0284635"></polygon>
                    <polygon id="Fill-35" fill="#E4E4E4" points="125.93385 59.0964393 222.307575 59.0964393 222.307575 56.3072686 125.93385 56.3072686"></polygon>
                    <polygon id="Fill-36" fill="#E4E4E4" points="125.93385 70.9374364 218.13645 70.9374364 218.13645 68.1482657 125.93385 68.1482657"></polygon>
                    <polygon id="Fill-37" fill="#E4E4E4" points="125.93385 76.8576728 211.330875 76.8576728 211.330875 74.0685021 125.93385 74.0685021"></polygon>
                    <polygon id="Fill-38" fill="#E4E4E4" points="125.93385 65.0077612 204.11055 65.0077612 204.11055 62.2185905 125.93385 62.2185905"></polygon>
                    <path d="M217.258177,36.6385024 C217.258177,41.5251882 213.291802,45.4858211 208.400903,45.4858211 C203.508428,45.4858211 199.543103,41.5251882 199.543103,36.6385024 C199.543103,31.7533897 203.508428,27.7922324 208.400903,27.7922324 C213.291802,27.7922324 217.258177,31.7533897 217.258177,36.6385024" id="Fill-39" fill="#7BAEF3"></path>
                    <polygon id="Fill-40" fill="#FFFFFF" points="207.53544 40.754666 203.617365 36.8407028 205.34409 35.1154967 207.53544 37.3032049 211.45614 33.3860955 213.18444 35.1123504"></polygon>
                    <path d="M192.619613,95.4114524 L130.511062,95.4114524 C128.664112,95.4114524 127.166812,96.9069807 127.166812,98.7517452 L127.166812,110.498879 C127.166812,112.343643 128.664112,113.839696 130.511062,113.839696 L192.619613,113.839696 C194.467087,113.839696 195.963863,112.343643 195.963863,110.498879 L195.963863,98.7517452 C195.963863,96.9069807 194.467087,95.4114524 192.619613,95.4114524" id="Fill-41" fill="#FB3640"></path>
                    <path d="M130.511168,115.154995 C127.940768,115.154995 125.849693,113.066394 125.849693,110.499036 L125.849693,98.7519025 C125.849693,96.1840196 127.940768,94.0959434 130.511168,94.0959434 L192.619718,94.0959434 C195.190118,94.0959434 197.281193,96.1840196 197.281193,98.7519025 L197.281193,110.499036 C197.281193,113.066394 195.190118,115.154995 192.619718,115.154995 L130.511168,115.154995 Z" id="Stroke-42" stroke="#FB3640" stroke-width="1.254"></path>
                </g>
                <path d="M140.703577,89.6294866 C141.039991,89.6294866 141.310992,89.5331573 141.521251,89.3404986 C141.73151,89.1424883 141.834303,88.8802585 141.834303,88.5538091 C141.834303,88.3183374 141.787579,88.1256787 141.670768,87.991888 C141.591337,87.8848554 141.549285,87.8259874 141.418457,87.745713 C141.292302,87.6654386 141.254922,87.6386804 141.091388,87.5691092 C141.011956,87.5316478 140.955887,87.5102413 140.918508,87.4941864 L140.726939,87.4246152 C140.474628,87.3336375 140.297076,87.2426598 140.194283,87.1570337 C140.091489,87.0714077 140.040093,86.9483202 140.040093,86.7824197 C140.040093,86.4399154 140.278386,86.2258502 140.63349,86.2258502 C140.988594,86.2258502 141.236233,86.4185088 141.376405,86.8038262 L141.740854,86.5630028 C141.549285,86.0706529 141.152129,85.7442035 140.63349,85.7442035 C140.348472,85.7442035 140.105507,85.8405328 139.904592,86.0331915 C139.703678,86.2204985 139.605557,86.4773768 139.605557,86.8038262 C139.605557,87.0767593 139.703678,87.2961761 139.811144,87.4299669 C139.862541,87.4941864 139.941972,87.558406 140.049437,87.6226255 C140.156903,87.6814934 140.250352,87.7296581 140.320438,87.7617679 L140.63349,87.8795037 C140.909163,87.9811847 141.110077,88.0721624 141.226888,88.1631401 C141.343698,88.2541178 141.40444,88.3879086 141.40444,88.5645123 C141.40444,88.9123683 141.161474,89.1424883 140.712921,89.1424883 C140.259696,89.1424883 139.965334,88.9177199 139.839178,88.4628314 L139.465385,88.7090063 C139.638264,89.2816307 140.091489,89.6294866 140.703577,89.6294866 Z M143.469651,89.6294866 C143.857462,89.6294866 144.151824,89.4528829 144.352739,89.0996753 L144.352739,89.5599155 L144.759239,89.5599155 L144.759239,86.8841006 L144.352739,86.8841006 L144.352739,87.3443408 C144.151824,86.9911332 143.857462,86.8145294 143.469651,86.8145294 C143.142581,86.8145294 142.862236,86.9536718 142.633287,87.2266049 C142.404338,87.499538 142.287528,87.8313391 142.287528,88.222008 C142.287528,88.612677 142.404338,88.9498297 142.633287,89.2227628 C142.862236,89.4956959 143.142581,89.6294866 143.469651,89.6294866 Z M143.521047,89.1799497 C143.287426,89.1799497 143.091185,89.088972 142.932322,88.9070166 C142.77346,88.7197096 142.694029,88.4949412 142.694029,88.222008 C142.694029,87.9490749 142.77346,87.7243065 142.932322,87.5423511 C143.091185,87.355044 143.287426,87.2640663 143.521047,87.2640663 C143.759341,87.2640663 143.955583,87.355044 144.114445,87.5423511 C144.273307,87.7243065 144.352739,87.9490749 144.352739,88.222008 C144.352739,88.4949412 144.273307,88.7197096 144.114445,88.9070166 C143.955583,89.088972 143.759341,89.1799497 143.521047,89.1799497 Z M145.7825,89.5599155 L145.7825,88.0721624 C145.7825,87.5316478 146.039483,87.2587147 146.38057,87.2587147 C146.684277,87.2587147 146.875847,87.499538 146.875847,87.9116135 L146.875847,89.5599155 L147.282348,89.5599155 L147.282348,88.0721624 C147.282348,87.5209446 147.506624,87.2587147 147.857056,87.2587147 C148.170108,87.2587147 148.371022,87.499538 148.371022,87.9116135 L148.371022,89.5599155 L148.777523,89.5599155 L148.777523,87.8955586 C148.777523,87.2319566 148.422419,86.8145294 147.899107,86.8145294 C147.572038,86.8145294 147.329072,86.9643751 147.165537,87.269418 C147.020692,86.9643751 146.791743,86.8145294 146.478691,86.8145294 C146.174983,86.8145294 145.941362,86.9590234 145.7825,87.2426598 L145.7825,86.8841006 L145.375999,86.8841006 L145.375999,89.5599155 L145.7825,89.5599155 Z M150.464267,89.6294866 C150.922165,89.6294866 151.263252,89.4261247 151.4922,89.0247525 L151.146441,88.799984 C151.006268,89.0622139 150.781992,89.190653 150.473612,89.190653 C150.029732,89.190653 149.707335,88.9123683 149.627904,88.4360732 L151.585649,88.4360732 C151.594994,88.366502 151.599666,88.2969309 151.599666,88.2273597 C151.599666,87.8366907 151.4922,87.5048897 151.272596,87.2319566 C151.057665,86.9536718 150.77732,86.8145294 150.436233,86.8145294 C150.076456,86.8145294 149.782094,86.9483202 149.553145,87.2159017 C149.324196,87.4834831 149.212058,87.8206358 149.212058,88.222008 C149.212058,88.6287319 149.328869,88.9658846 149.557817,89.233466 C149.791438,89.4956959 150.095146,89.6294866 150.464267,89.6294866 Z M151.188493,88.0293494 L149.627904,88.0293494 C149.69799,87.558406 150.001697,87.2533631 150.436233,87.2533631 C150.810027,87.2533631 151.118406,87.5209446 151.188493,88.0293494 Z M154.286309,89.6294866 C154.67412,89.6294866 154.968483,89.4528829 155.169397,89.0996753 L155.169397,89.5599155 L155.575898,89.5599155 L155.575898,85.8137747 L155.169397,85.8137747 L155.169397,87.3443408 C154.968483,86.9911332 154.67412,86.8145294 154.286309,86.8145294 C153.959239,86.8145294 153.678894,86.9536718 153.449945,87.2266049 C153.220997,87.499538 153.104186,87.8313391 153.104186,88.222008 C153.104186,88.612677 153.220997,88.9498297 153.449945,89.2227628 C153.678894,89.4956959 153.959239,89.6294866 154.286309,89.6294866 Z M154.337706,89.1799497 C154.104084,89.1799497 153.907843,89.088972 153.74898,88.9070166 C153.590118,88.7197096 153.510687,88.4949412 153.510687,88.222008 C153.510687,87.9490749 153.590118,87.7243065 153.74898,87.5423511 C153.907843,87.355044 154.104084,87.2640663 154.337706,87.2640663 C154.575999,87.2640663 154.772241,87.355044 154.931103,87.5423511 C155.089966,87.7243065 155.169397,87.9490749 155.169397,88.222008 C155.169397,88.4949412 155.089966,88.7197096 154.931103,88.9070166 C154.772241,89.088972 154.575999,89.1799497 154.337706,89.1799497 Z M157.243952,89.6294866 C157.631763,89.6294866 157.926126,89.4528829 158.12704,89.0996753 L158.12704,89.5599155 L158.533541,89.5599155 L158.533541,86.8841006 L158.12704,86.8841006 L158.12704,87.3443408 C157.926126,86.9911332 157.631763,86.8145294 157.243952,86.8145294 C156.916883,86.8145294 156.636537,86.9536718 156.407589,87.2266049 C156.17864,87.499538 156.06183,87.8313391 156.06183,88.222008 C156.06183,88.612677 156.17864,88.9498297 156.407589,89.2227628 C156.636537,89.4956959 156.916883,89.6294866 157.243952,89.6294866 Z M157.295349,89.1799497 C157.061728,89.1799497 156.865486,89.088972 156.706624,88.9070166 C156.547761,88.7197096 156.46833,88.4949412 156.46833,88.222008 C156.46833,87.9490749 156.547761,87.7243065 156.706624,87.5423511 C156.865486,87.355044 157.061728,87.2640663 157.295349,87.2640663 C157.533643,87.2640663 157.729884,87.355044 157.888747,87.5423511 C158.047609,87.7243065 158.12704,87.9490749 158.12704,88.222008 C158.12704,88.4949412 158.047609,88.7197096 157.888747,88.9070166 C157.729884,89.088972 157.533643,89.1799497 157.295349,89.1799497 Z M160.262337,89.725816 L161.215512,86.8841006 L160.780976,86.8841006 L160.108147,88.9819395 L159.313836,86.8841006 L158.8793,86.8841006 L159.897888,89.5492122 L159.855837,89.6508932 C159.720336,90.0415621 159.510077,90.2235175 159.22506,90.1967594 L159.22506,90.6302414 C159.692302,90.6677028 160.061423,90.3305501 160.262337,89.725816 Z M163.775999,89.6294866 C164.16381,89.6294866 164.458173,89.4528829 164.659087,89.0996753 L164.659087,89.5599155 L165.065588,89.5599155 L165.065588,85.8137747 L164.659087,85.8137747 L164.659087,87.3443408 C164.458173,86.9911332 164.16381,86.8145294 163.775999,86.8145294 C163.44893,86.8145294 163.168584,86.9536718 162.939636,87.2266049 C162.710687,87.499538 162.593876,87.8313391 162.593876,88.222008 C162.593876,88.612677 162.710687,88.9498297 162.939636,89.2227628 C163.168584,89.4956959 163.44893,89.6294866 163.775999,89.6294866 Z M163.827396,89.1799497 C163.593775,89.1799497 163.397533,89.088972 163.238671,88.9070166 C163.079808,88.7197096 163.000377,88.4949412 163.000377,88.222008 C163.000377,87.9490749 163.079808,87.7243065 163.238671,87.5423511 C163.397533,87.355044 163.593775,87.2640663 163.827396,87.2640663 C164.065689,87.2640663 164.261931,87.355044 164.420793,87.5423511 C164.579656,87.7243065 164.659087,87.9490749 164.659087,88.222008 C164.659087,88.4949412 164.579656,88.7197096 164.420793,88.9070166 C164.261931,89.088972 164.065689,89.1799497 163.827396,89.1799497 Z M166.803729,89.6294866 C167.261626,89.6294866 167.602713,89.4261247 167.831662,89.0247525 L167.485903,88.799984 C167.34573,89.0622139 167.121454,89.190653 166.813074,89.190653 C166.369194,89.190653 166.046796,88.9123683 165.967365,88.4360732 L167.92511,88.4360732 C167.934455,88.366502 167.939128,88.2969309 167.939128,88.2273597 C167.939128,87.8366907 167.831662,87.5048897 167.612058,87.2319566 C167.397127,86.9536718 167.116781,86.8145294 166.775694,86.8145294 C166.415918,86.8145294 166.121555,86.9483202 165.892607,87.2159017 C165.663658,87.4834831 165.55152,87.8206358 165.55152,88.222008 C165.55152,88.6287319 165.66833,88.9658846 165.897279,89.233466 C166.1309,89.4956959 166.434608,89.6294866 166.803729,89.6294866 Z M167.527954,88.0293494 L165.967365,88.0293494 C166.037452,87.558406 166.341159,87.2533631 166.775694,87.2533631 C167.149488,87.2533631 167.457868,87.5209446 167.527954,88.0293494 Z M168.812871,89.5599155 L168.812871,85.6532258 L168.40637,85.6532258 L168.40637,89.5599155 L168.812871,89.5599155 Z M169.639889,86.3971023 C169.789407,86.3971023 169.91089,86.25796 169.91089,86.0867078 C169.91089,85.9154557 169.789407,85.7709617 169.639889,85.7709617 C169.485699,85.7709617 169.364217,85.9154557 169.364217,86.0867078 C169.364217,86.25796 169.485699,86.3971023 169.639889,86.3971023 Z M169.840804,89.5599155 L169.840804,86.8841006 L169.434303,86.8841006 L169.434303,89.5599155 L169.840804,89.5599155 Z M171.602307,89.5599155 L172.536791,86.8841006 L172.097584,86.8841006 L171.364013,89.0622139 L170.630443,86.8841006 L170.191235,86.8841006 L171.12572,89.5599155 L171.602307,89.5599155 Z M173.817035,89.6294866 C174.274933,89.6294866 174.616019,89.4261247 174.844968,89.0247525 L174.499209,88.799984 C174.359036,89.0622139 174.13476,89.190653 173.82638,89.190653 C173.3825,89.190653 173.060103,88.9123683 172.980672,88.4360732 L174.938417,88.4360732 C174.947761,88.366502 174.952434,88.2969309 174.952434,88.2273597 C174.952434,87.8366907 174.844968,87.5048897 174.625364,87.2319566 C174.410433,86.9536718 174.130088,86.8145294 173.789001,86.8145294 C173.429224,86.8145294 173.134862,86.9483202 172.905913,87.2159017 C172.676964,87.4834831 172.564826,87.8206358 172.564826,88.222008 C172.564826,88.6287319 172.681637,88.9658846 172.910585,89.233466 C173.144206,89.4956959 173.447914,89.6294866 173.817035,89.6294866 Z M174.541261,88.0293494 L172.980672,88.0293494 C173.050758,87.558406 173.354465,87.2533631 173.789001,87.2533631 C174.162794,87.2533631 174.471174,87.5209446 174.541261,88.0293494 Z M175.826177,89.5599155 L175.826177,88.1417336 C175.826177,87.847394 175.896263,87.6386804 176.041108,87.5048897 C176.185953,87.3710989 176.354161,87.312231 176.555075,87.3229343 L176.555075,86.835936 C176.204643,86.835936 175.961677,87.0018365 175.826177,87.3336375 L175.826177,86.8841006 L175.419676,86.8841006 L175.419676,89.5599155 L175.826177,89.5599155 Z M178.167061,89.725816 L179.120235,86.8841006 L178.685699,86.8841006 L178.012871,88.9819395 L177.218559,86.8841006 L176.784024,86.8841006 L177.802612,89.5492122 L177.76056,89.6508932 C177.62506,90.0415621 177.414801,90.2235175 177.129783,90.1967594 L177.129783,90.6302414 C177.597025,90.6677028 177.966146,90.3305501 178.167061,89.725816 Z M181.919016,89.6294866 C182.246085,89.6294866 182.526431,89.4956959 182.75538,89.2227628 C182.984328,88.9498297 183.101139,88.612677 183.101139,88.222008 C183.101139,87.8313391 182.984328,87.499538 182.75538,87.2266049 C182.526431,86.9536718 182.246085,86.8145294 181.919016,86.8145294 C181.531205,86.8145294 181.236842,86.9911332 181.035928,87.3443408 L181.035928,85.8137747 L180.629427,85.8137747 L180.629427,89.5599155 L181.035928,89.5599155 L181.035928,89.0996753 C181.236842,89.4528829 181.531205,89.6294866 181.919016,89.6294866 Z M181.867619,89.1799497 C181.629326,89.1799497 181.433084,89.088972 181.274222,88.9070166 C181.115359,88.7197096 181.035928,88.4949412 181.035928,88.222008 C181.035928,87.9490749 181.115359,87.7243065 181.274222,87.5423511 C181.433084,87.355044 181.629326,87.2640663 181.867619,87.2640663 C182.10124,87.2640663 182.297482,87.355044 182.456344,87.5423511 C182.615207,87.7243065 182.694638,87.9490749 182.694638,88.222008 C182.694638,88.4949412 182.615207,88.7197096 182.456344,88.9070166 C182.297482,89.088972 182.10124,89.1799497 181.867619,89.1799497 Z M184.51221,89.725816 L185.465385,86.8841006 L185.030849,86.8841006 L184.35802,88.9819395 L183.563709,86.8841006 L183.129173,86.8841006 L184.147761,89.5492122 L184.10571,89.6508932 C183.970209,90.0415621 183.75995,90.2235175 183.474933,90.1967594 L183.474933,90.6302414 C183.942175,90.6677028 184.311296,90.3305501 184.51221,89.725816 Z" id="Samedaydeliveryby" fill="#000000" fill-rule="nonzero"></path>
                <path d="M148.866721,108.426411 L148.866721,105.323589 L150.828592,108.426411 L152.422612,108.426411 L150.268057,104.988407 L152.335028,101.722782 L150.741008,101.722782 L148.866721,104.634073 L148.866721,101.722782 L147.465385,101.722782 L147.465385,108.426411 L148.866721,108.426411 Z M155.858166,108.426411 L156.856619,104.47127 L157.855071,108.426411 L159.449091,108.426411 L161.139453,101.722782 L159.66805,101.722782 L158.608289,106.415323 L157.425912,101.722782 L156.287326,101.722782 L155.104948,106.415323 L154.045188,101.722782 L152.573784,101.722782 L154.264146,108.426411 L155.858166,108.426411 Z M163.217463,108.426411 L163.217463,101.722782 L161.816126,101.722782 L161.816126,108.426411 L163.217463,108.426411 Z M167.257343,108.560484 C168.369654,108.560484 169.359348,107.966734 169.884849,107.009073 L168.676197,106.242944 C168.422204,106.750504 167.879187,107.066532 167.257343,107.066532 C166.714326,107.066532 166.276408,106.884577 165.952349,106.520665 C165.62829,106.156754 165.47064,105.677923 165.47064,105.074597 C165.47064,104.47127 165.62829,103.99244 165.952349,103.628528 C166.276408,103.264617 166.714326,103.082661 167.257343,103.082661 C167.879187,103.082661 168.404688,103.379536 168.676197,103.90625 L169.884849,103.140121 C169.35059,102.18246 168.352138,101.58871 167.257343,101.58871 C166.337717,101.58871 165.57574,101.923891 164.971414,102.594254 C164.367087,103.25504 164.069303,104.088206 164.069303,105.074597 C164.069303,106.060988 164.367087,106.894153 164.971414,107.564516 C165.57574,108.225302 166.337717,108.560484 167.257343,108.560484 Z M171.919067,108.426411 L171.919067,105.323589 L173.880938,108.426411 L175.474958,108.426411 L173.320404,104.988407 L175.387375,101.722782 L173.793355,101.722782 L171.919067,104.634073 L171.919067,101.722782 L170.517731,101.722782 L170.517731,108.426411 L171.919067,108.426411 Z M177.465385,108.426411 L177.465385,101.722782 L176.064048,101.722782 L176.064048,108.426411 L177.465385,108.426411 Z" id="KWICKI" fill="#FFFFFF" fill-rule="nonzero"></path>
            </g>
        </g>
    </g>
</svg>