<svg xmlns="http://www.w3.org/2000/svg" width="125" height="162" viewBox="0 0 125 162">
    <g fill="none" fill-rule="evenodd">
        <g>
            <g>
                <path fill="#8CC27B" d="M0 0h82.772v155.186c0 3.314-2.687 6-6 6H6c-3.314 0-6-2.686-6-6V0z" opacity=".1" transform="translate(-787 -1334) translate(787 1334)"/>
                <path fill="#81CFFA" fill-rule="nonzero" d="M124.682 85c0-6.199-2.808-12.01-7.714-17.014-3.414-3.481-6.257-7.47-8.426-11.834C101.604 42.194 89.775 33 76.347 33c-9.542 0-18.276 4.644-25.022 12.34-4.465 5.094-10.103 9.002-16.393 11.525C19.694 62.976 9.682 73.297 9.682 85c0 11.703 10.012 22.024 25.25 28.135 6.29 2.524 11.928 6.431 16.393 11.525 6.746 7.696 15.48 12.34 25.023 12.34 13.427 0 25.256-9.194 32.194-23.152 2.17-4.365 5.012-8.353 8.426-11.834 4.906-5.004 7.714-10.815 7.714-17.014z" transform="translate(-787 -1334) translate(787 1334)"/>
                <path fill="#8CC27B" fill-rule="nonzero" d="M98.42 67H29.326c-4.222 0-7.644-3.358-7.644-7.5 0-4.142 3.422-7.5 7.644-7.5h71.356v12.78c0 1.226-1.013 2.22-2.262 2.22z" transform="translate(-787 -1334) translate(787 1334)"/>
                <path fill="#77A868" fill-rule="nonzero" d="M110.428 86H31.937c-1.245 0-2.255-1.021-2.255-2.281V42.28c0-1.26 1.01-2.281 2.255-2.281h78.491c1.245 0 2.254 1.021 2.254 2.281V83.72c0 1.26-1.009 2.281-2.254 2.281z" transform="translate(-787 -1334) translate(787 1334)"/>
                <path fill="#8CC27B" fill-rule="nonzero" d="M100.682 68.835v44.919c0 1.24-1.013 2.246-2.262 2.246H29.325c-4.22 0-7.643-3.397-7.643-7.587V59c0 4.191 3.424 7.59 7.645 7.59H98.42c1.25 0 2.262 1.005 2.262 2.245z" transform="translate(-787 -1334) translate(787 1334)"/>
                <g fill="#FFF" fill-rule="nonzero">
                    <path d="M57.476 2.256h-2.692c-.62 0-1.122-.505-1.122-1.128 0-.623.502-1.128 1.122-1.128h2.692c.62 0 1.122.505 1.122 1.128 0 .623-.502 1.128-1.122 1.128zM48.532 2.256H45.84c-.62 0-1.121-.505-1.121-1.128C44.719.505 45.22 0 45.84 0h2.692c.62 0 1.122.505 1.122 1.128 0 .623-.502 1.128-1.122 1.128zM39.589 2.256h-2.692c-.62 0-1.122-.505-1.122-1.128 0-.623.502-1.128 1.122-1.128h2.692c.62 0 1.121.505 1.121 1.128 0 .623-.502 1.128-1.121 1.128zM30.645 2.256h-2.692c-.62 0-1.122-.505-1.122-1.128 0-.623.502-1.128 1.122-1.128h2.692c.62 0 1.122.505 1.122 1.128 0 .623-.503 1.128-1.122 1.128zM21.701 2.256h-2.692c-.62 0-1.122-.505-1.122-1.128C17.887.505 18.39 0 19.01 0h2.692c.62 0 1.122.505 1.122 1.128 0 .623-.502 1.128-1.122 1.128zM12.757 2.256h-2.692c-.62 0-1.121-.505-1.121-1.128C8.944.505 9.446 0 10.065 0h2.692c.62 0 1.122.505 1.122 1.128 0 .623-.502 1.128-1.122 1.128zM3.814 2.256H1.122C.502 2.256 0 1.751 0 1.128 0 .505.502 0 1.122 0h2.692c.62 0 1.121.505 1.121 1.128 0 .623-.502 1.128-1.121 1.128zM57.663 30.594c-.62 0-1.122-.506-1.122-1.128v-2.708c0-.623.502-1.128 1.122-1.128.62 0 1.122.505 1.122 1.128v2.708c0 .622-.502 1.128-1.122 1.128zM57.663 21.599c-.62 0-1.122-.505-1.122-1.128v-2.707c0-.623.502-1.128 1.122-1.128.62 0 1.122.505 1.122 1.128v2.707c0 .623-.502 1.128-1.122 1.128zM57.663 12.604c-.62 0-1.122-.505-1.122-1.128V8.77c0-.623.502-1.128 1.122-1.128.62 0 1.122.505 1.122 1.128v2.707c0 .623-.502 1.128-1.122 1.128zM57.476 36.7h-2.692c-.62 0-1.122-.506-1.122-1.129s.502-1.128 1.122-1.128h2.692c.62 0 1.122.505 1.122 1.128 0 .623-.502 1.128-1.122 1.128zM48.532 36.7H45.84c-.62 0-1.121-.506-1.121-1.129s.502-1.128 1.121-1.128h2.692c.62 0 1.122.505 1.122 1.128 0 .623-.502 1.128-1.122 1.128zM39.589 36.7h-2.692c-.62 0-1.122-.506-1.122-1.129s.502-1.128 1.122-1.128h2.692c.62 0 1.121.505 1.121 1.128 0 .623-.502 1.128-1.121 1.128zM30.645 36.7h-2.692c-.62 0-1.122-.506-1.122-1.129s.502-1.128 1.122-1.128h2.692c.62 0 1.122.505 1.122 1.128 0 .623-.503 1.128-1.122 1.128zM21.701 36.7h-2.692c-.62 0-1.122-.506-1.122-1.129s.502-1.128 1.122-1.128h2.692c.62 0 1.122.505 1.122 1.128 0 .623-.502 1.128-1.122 1.128zM12.757 36.7h-2.692c-.62 0-1.121-.506-1.121-1.129s.502-1.128 1.121-1.128h2.692c.62 0 1.122.505 1.122 1.128 0 .623-.502 1.128-1.122 1.128zM3.814 36.7H1.122C.502 36.7 0 36.193 0 35.57s.502-1.128 1.122-1.128h2.692c.62 0 1.121.505 1.121 1.128 0 .623-.502 1.128-1.121 1.128z" transform="translate(-787 -1334) translate(787 1334) translate(35.87 73.139)"/>
                </g>
                <path fill="#2149FE" fill-rule="nonzero" d="M111.291 87.818c1.87 0 3.391-1.52 3.391-3.389V43.39c0-1.869-1.52-3.389-3.39-3.389H32.578c-1.87 0-3.39 1.52-3.39 3.39v7.372c-4.71.14-8.499 4.006-8.505 8.744l-.002.012v49.711c0 4.832 3.933 8.763 8.767 8.763h42.745c.624 0 1.13-.506 1.13-1.13 0-.623-.506-1.13-1.13-1.13H29.45c-3.588 0-6.507-2.917-6.507-6.503V65.386c1.606 1.778 3.93 2.897 6.509 2.897h69.036c.624 0 1.13.507 1.13 1.13v9.593c0 .624.507 1.13 1.131 1.13s1.13-.506 1.13-1.13v-9.593c0-1.87-1.52-3.39-3.39-3.39H31.448V43.39c0-.623.507-1.13 1.13-1.13h78.713c.623 0 1.13.507 1.13 1.13v41.04c0 .623-.507 1.13-1.13 1.13h-10.543c-.624 0-1.13.506-1.13 1.13v10.167c0 .624.506 1.13 1.13 1.13.624 0 1.13-.506 1.13-1.13v-9.038h9.412zM29.188 53.021v12.996c-3.464-.139-6.24-2.996-6.244-6.492 0-3.505 2.778-6.365 6.244-6.504z" transform="translate(-787 -1334) translate(787 1334)"/>
                <path fill="#000" fill-rule="nonzero" d="M45.682 36c-.255 0-.512-.098-.707-.293-.39-.39-.39-1.024 0-1.414l2-2c.39-.39 1.024-.39 1.414 0 .391.39.391 1.024 0 1.414l-2 2c-.195.195-.45.293-.707.293zM110.682 96c-.255 0-.512-.098-.707-.293-.39-.39-.39-1.024 0-1.414l2-2c.39-.39 1.024-.39 1.414 0 .391.39.391 1.024 0 1.414l-2 2c-.195.195-.45.293-.707.293zM55.833 128c-.298 0-.597-.098-.824-.293l-1.509-1.293-1.509 1.293c-.455.39-1.194.39-1.65 0-.455-.39-.455-1.024 0-1.414l2.334-2c.455-.39 1.195-.39 1.65 0l2.333 2c.456.39.456 1.024 0 1.414-.227.195-.526.293-.825.293zM100.516 36c-.299 0-.598-.098-.825-.293l-1.509-1.293-1.508 1.293c-.455.39-1.195.39-1.65 0-.456-.39-.456-1.024 0-1.414l2.334-2c.455-.39 1.194-.39 1.65 0l2.333 2c.455.39.455 1.024 0 1.414-.228.195-.527.293-.825.293z" transform="translate(-787 -1334) translate(787 1334)"/>
            </g>
        </g>
    </g>
</svg>
