<svg xmlns="http://www.w3.org/2000/svg" width="150" height="162" viewBox="0 0 150 162">
    <g fill="none" fill-rule="evenodd">
        <g>
            <g>
                <path fill="#8CC27B" d="M7.318 0h82.771v155.186c0 3.314-2.686 6-6 6H13.318c-3.314 0-6-2.686-6-6V0z" opacity=".1" transform="translate(-779 -1334) translate(779.682 1334)"/>
                <path fill="#81CFFA" fill-rule="nonzero" d="M132 85c0-6.199-2.809-12.01-7.715-17.014-3.413-3.481-6.256-7.47-8.425-11.834C108.922 42.194 97.093 33 83.665 33c-9.542 0-18.276 4.644-25.022 12.34-4.465 5.094-10.103 9.002-16.394 11.525C27.012 62.976 17 73.297 17 85c0 11.703 10.012 22.024 25.25 28.135 6.29 2.524 11.928 6.431 16.393 11.525 6.746 7.696 15.48 12.34 25.022 12.34 13.428 0 25.257-9.194 32.195-23.152 2.17-4.365 5.012-8.353 8.426-11.834C129.19 97.01 132 91.199 132 85z" transform="translate(-779 -1334) translate(779.682 1334) rotate(120 74.5 85)"/>
                <path fill="#000" fill-rule="nonzero" d="M53 36c-.256 0-.512-.098-.707-.293-.39-.39-.39-1.024 0-1.414l2-2c.39-.39 1.024-.39 1.414 0 .39.39.39 1.024 0 1.414l-2 2c-.195.195-.451.293-.707.293zM118 96c-.256 0-.512-.098-.707-.293-.39-.39-.39-1.024 0-1.414l2-2c.39-.39 1.024-.39 1.414 0 .39.39.39 1.024 0 1.414l-2 2c-.195.195-.451.293-.707.293zM63.151 128c-.298 0-.597-.098-.825-.293l-1.508-1.293-1.509 1.293c-.455.39-1.194.39-1.65 0-.455-.39-.455-1.024 0-1.414l2.334-2c.455-.39 1.194-.39 1.65 0l2.333 2c.456.39.456 1.024 0 1.414-.228.195-.526.293-.825.293zM107.833 36c-.298 0-.597-.098-.824-.293l-1.509-1.293-1.509 1.293c-.455.39-1.194.39-1.65 0-.455-.39-.455-1.024 0-1.414l2.334-2c.455-.39 1.195-.39 1.65 0l2.333 2c.456.39.456 1.024 0 1.414-.228.195-.526.293-.825.293z" transform="translate(-779 -1334) translate(779.682 1334)"/>
                <g>
                    <path stroke="#77A868" stroke-linecap="round" stroke-width="2" d="M76.873 22L82.873 16" transform="translate(-779 -1334) translate(779.682 1334) translate(24.318 33)"/>
                    <path fill="#77A868" fill-rule="nonzero" d="M80.483 9.219L90.247 9.219 90.247 18.981 80.483 18.981z" transform="translate(-779 -1334) translate(779.682 1334) translate(24.318 33) rotate(-45 85.365 14.1)"/>
                    <path fill="#77A868" fill-rule="nonzero" d="M44.54 10c1.101-.082 2.21-.138 3.333-.138 1.123 0 2.232.056 3.333.138V4.931h4.167c1.38 0 2.5-1.105 2.5-2.466 0-1.36-1.12-2.465-2.5-2.465h-15c-1.38 0-2.5 1.105-2.5 2.465 0 1.361 1.12 2.466 2.5 2.466h4.167V10z" transform="translate(-779 -1334) translate(779.682 1334) translate(24.318 33)"/>
                    <path fill="#80BA6E" fill-rule="nonzero" stroke="#2149FE" stroke-width="3" d="M47.675 10c-3.259 0-6.427.384-9.473 1.089v10.353H25.218c-.898 0-1.623.731-1.623 1.635s.725 1.635 1.623 1.635h12.984v8.173h-21.1c-.897 0-1.622.73-1.622 1.634 0 .904.725 1.635 1.623 1.635h21.099v8.173H8.988c-.898 0-1.623.73-1.623 1.635 0 .903.725 1.634 1.623 1.634h29.214v8.173H2.496c-.898 0-1.623.73-1.623 1.635 0 .904.725 1.634 1.623 1.634h35.706v8.174H12.234c-.898 0-1.623.73-1.623 1.634 0 .904.725 1.635 1.623 1.635h25.968v8.173h-16.23c-.898 0-1.623.73-1.623 1.634 0 .904.725 1.635 1.623 1.635h16.23v11.988c3.046.705 6.214 1.089 9.473 1.089 23.305 0 42.198-19.029 42.198-42.5S70.98 10 47.675 10z" transform="translate(-779 -1334) translate(779.682 1334) translate(24.318 33)"/>
                    <path fill="#FFF" fill-rule="nonzero" d="M71.397 34.475c-.566-.562-1.456-.634-2.102-.17l-21.039 15.22c-1.371.998-2.234 2.54-2.366 4.231-.131 1.692.481 3.348 1.68 4.546C48.662 59.397 50.114 60 51.66 60c1.848 0 3.6-.892 4.689-2.389l15.215-21.035c.468-.647.398-1.537-.167-2.101z" transform="translate(-779 -1334) translate(779.682 1334) translate(24.318 33)"/>
                    <g fill="#FFF" fill-rule="nonzero">
                        <path d="M2.096 0C1.199 0 .475.728.475 1.63v4.889c0 .9.724 1.63 1.62 1.63.897 0 1.621-.73 1.621-1.63v-4.89C3.716.73 2.992 0 2.096 0zM2.096 79.852c-.897 0-1.621.728-1.621 1.63v4.888c0 .902.724 1.63 1.62 1.63.897 0 1.621-.728 1.621-1.63v-4.889c0-.9-.724-1.63-1.62-1.63zM43.97 42.37h-4.863c-.896 0-1.62.729-1.62 1.63 0 .901.724 1.63 1.62 1.63h4.862c.897 0 1.621-.729 1.621-1.63 0-.901-.724-1.63-1.62-1.63zM23.71 5.894c-.776-.451-1.766-.182-2.213.597l-2.431 4.235c-.448.78-.182 1.777.593 2.226.254.149.533.219.809.219.56 0 1.105-.294 1.405-.815l2.43-4.236c.448-.779.182-1.776-.592-2.226zM39.133 63.774l-4.21-2.445c-.775-.45-1.767-.185-2.214.597-.448.78-.182 1.776.593 2.226l4.21 2.444c.257.149.534.219.81.219.56 0 1.105-.292 1.404-.815.45-.78.183-1.776-.593-2.226zM21.873 75.646c-.45-.782-1.443-1.05-2.214-.597-.776.45-1.042 1.447-.593 2.226l2.43 4.234c.302.523.845.815 1.406.815.275 0 .554-.07.809-.218.776-.45 1.042-1.447.593-2.226l-2.431-4.234zM34.116 26.889c.275 0 .554-.07.808-.218l4.21-2.445c.777-.45 1.043-1.447.594-2.226-.447-.78-1.442-1.05-2.214-.596l-4.21 2.444c-.777.45-1.043 1.445-.594 2.226.3.523.845.815 1.406.815z" transform="translate(-779 -1334) translate(779.682 1334) translate(24.318 33) translate(45.873 8)"/>
                    </g>
                </g>
            </g>
        </g>
    </g>
</svg>
