<svg xmlns="http://www.w3.org/2000/svg" width="43" height="43" viewBox="0 0 43 43">
    <g fill="none" fill-rule="evenodd">
        <g fill="#FB3640">
            <path d="M818.487 6444.165l3.736-3.735 1.121 4.856-4.857-1.121zm-12.713-12.206l-1.414-1.414-4.243-4.243-1.414-1.414-8.753-8.753 4.242-4.243 8.753 8.753 1.415 1.414 4.242 4.243 1.414 1.414 11.046 11.046-4.242 4.243-11.046-11.046zm-14.017 11.188l-3.351 1.436-2.328-2.328 1.437-3.353 11.187-11.186 4.243 4.243-11.188 11.188zm-6.056-31.261c-.384-.385-.383-1.02.006-1.41l2.828-2.827c.393-.392 1.021-.393 1.409-.006l2.834 2.834-4.243 4.243-2.834-2.834zm30.533-1.701l4.243 4.242-10.461 10.46-4.242-4.243 10.46-10.46zm5.305-3.184c.003-.002-.005-.002.003.006l2.113 2.113c.006.006.006.002.006.003l-2.83 2.829-2.121-2.121 2.829-2.83zm2.352 31.76l-12.46-12.46 8.312-8.311.779.78c.391.39.391 1.024-.002 1.417l-3.924 3.923c-.39.39-.39 1.024 0 1.414.391.39 1.024.39 1.414 0l3.924-3.922c1.174-1.174 1.175-3.074.003-4.246l-.78-.78.734-.735 1.414-1.414-1.06-1.06 2.83-2.83c.785-.787.777-2.048-.006-2.832l-2.113-2.113c-.791-.791-2.051-.785-2.831-.005l-2.83 2.83-1.061-1.061-1.414 1.414h-.001l-10.459 10.46-13.002-13.001c-1.171-1.17-3.065-1.166-4.237.006l-2.828 2.828c-1.168 1.168-1.175 3.069-.006 4.237l2.834 2.834.27.27 1.144 1.145 8.753 8.753-11.46 11.46-2.121 4.95 1.414 1.414-2.121 2.12 1.414 1.415 2.121-2.121 1.415 1.414 4.95-2.121 11.46-11.46 11.045 11.046 1.414 1.414 7.244 1.672c1.068.246 1.748-.424 1.499-1.5l-1.671-7.243z" transform="translate(-783 -6405)"/>
        </g>
    </g>
</svg>
