<svg xmlns="http://www.w3.org/2000/svg" width="43" height="43" viewBox="0 0 43 43">
    <g fill="none" fill-rule="evenodd">
        <g fill="#2149FE">
            <path d="M818.77 6444.476l3.766-3.765 1.13 4.895-4.896-1.13zm-12.814-12.303l-1.426-1.425-4.277-4.277-1.425-1.425-8.823-8.823 4.276-4.277 8.823 8.823 1.426 1.425 4.276 4.277 1.425 1.425 11.134 11.134-4.275 4.277-11.134-11.134zm-14.13 11.277l-3.377 1.448-2.346-2.347 1.448-3.38 11.276-11.275 4.277 4.277-11.277 11.277zm-6.103-31.51c-.388-.388-.387-1.027.006-1.42l2.85-2.85c.396-.395 1.03-.396 1.42-.006l2.857 2.856-4.277 4.277-2.856-2.857zm30.776-1.714l4.277 4.276-10.545 10.544-4.275-4.278 10.543-10.542zm5.347-3.21c.003-.001-.005-.001.003.007l2.13 2.13c.006.005.006.001.006.002l-2.852 2.852-2.138-2.138 2.851-2.852zm2.37 32.014l-12.558-12.559 8.378-8.378.785.786c.394.394.394 1.032-.002 1.428l-3.955 3.955c-.393.394-.393 1.032 0 1.425.394.394 1.032.394 1.425 0l3.955-3.953c1.184-1.184 1.185-3.099.003-4.28l-.786-.786.74-.741 1.425-1.425-1.068-1.069 2.852-2.852c.792-.794.784-2.065-.006-2.855l-2.13-2.13c-.797-.797-2.067-.79-2.853-.005l-2.853 2.853-1.07-1.07-1.424 1.426h-.001l-10.543 10.543-13.105-13.105c-1.18-1.179-3.09-1.175-4.271.006l-2.85 2.85c-1.178 1.178-1.185 3.094-.007 4.272l2.857 2.856.272.272 1.153 1.154 8.823 8.823-11.551 11.551-2.138 4.99 1.425 1.425-2.138 2.138 1.425 1.425 2.138-2.138 1.426 1.425 4.99-2.137 11.551-11.552 11.133 11.134 1.426 1.425 7.301 1.686c1.077.248 1.762-.428 1.511-1.512l-1.684-7.3z" transform="translate(-783 -6405)"/>
        </g>
    </g>
</svg>
