<svg xmlns="http://www.w3.org/2000/svg" width="53" height="64" viewBox="0 0 53 64">
    <g fill="none" fill-rule="evenodd">
        <g fill-rule="nonzero">
            <g>
                <path fill="#1D3461" d="M6.55 4.779c-16.997 14.942 4.876 29.426 2.793 45.754-.927 7.258 2.016 14.198 11.643 13.405 11.732-.967 7.473-12.151 9.93-19.597 4.227-12.813 30.234-9.82 19.453-29.556C43.49 2.19 18.247-5.505 6.55 4.779z" transform="translate(-240 -12776) translate(240 12776)"/>
                <g>
                    <g>
                        <path fill="#2626BC" d="M21.334 12.755c-.347 0-.628-.28-.628-.625 0-1.866-1.525-3.384-3.4-3.384H4.74c-2.568 0-4.656-2.08-4.656-4.634V.664C.084.32.365.04.712.04c.346 0 .628.28.628.625v3.448c0 1.866 1.525 3.384 3.4 3.384h12.566c2.567 0 4.656 2.079 4.656 4.634 0 .345-.281.625-.628.625z" opacity=".1" transform="translate(-240 -12776) translate(240 12776) translate(1.884 3.25) translate(0 1.375) translate(18.839)"/>
                        <path fill="#D02A33" d="M42.909 13.247h-5.472V10.38c0-.69.562-1.25 1.256-1.25h2.96c.694 0 1.256.56 1.256 1.25v2.867z" transform="translate(-240 -12776) translate(240 12776) translate(1.884 3.25) translate(0 1.375)"/>
                        <path fill="#FB3640" d="M47.942 47.998H1.29c-.693 0-1.256-.56-1.256-1.25V13.664c0-.69.563-1.25 1.256-1.25h46.652c.694 0 1.256.56 1.256 1.25v33.084c0 .69-.562 1.25-1.256 1.25z" transform="translate(-240 -12776) translate(240 12776) translate(1.884 3.25) translate(0 1.375)"/>
                        <path fill="#FFF" d="M18.798 17.593V11.2c0-1.38-1.125-2.5-2.512-2.5H7.744c-1.388 0-2.512 1.12-2.512 2.5v6.393c0 .636.477 1.16 1.095 1.239V41.58c-.617.078-1.095.602-1.095 1.238v6.393c0 1.38 1.124 2.5 2.512 2.5h8.542c1.387 0 2.512-1.12 2.512-2.5v-6.393c0-.636-.478-1.16-1.095-1.238V18.832c.617-.079 1.095-.603 1.095-1.239zM44.627 23.98c0 .69-.562 1.25-1.256 1.25H24.616c-.693 0-1.256-.56-1.256-1.25v-4.23c0-.69.563-1.25 1.256-1.25h18.755c.694 0 1.256.56 1.256 1.25v4.23z" transform="translate(-240 -12776) translate(240 12776) translate(1.884 3.25) translate(0 1.375)"/>
                        <g>
                            <path fill="#97FFD2" d="M.18 11.338c-.065.047-.101.068-.11.058-.025-.024.015-.043.11-.058z" transform="translate(-240 -12776) translate(240 12776) translate(1.884 3.25) translate(0 1.375) translate(23.486 18.5)"/>
                            <path fill="#D9DBE7" d="M15.46 0L8.7 6.73H4.914C7.25 4.386 9.897 1.691 11.554 0h3.905zM21.141 1.25v1.997l-3.498 3.482H10.82l6.76-6.728h2.306c.695 0 1.256.558 1.256 1.25z" transform="translate(-240 -12776) translate(240 12776) translate(1.884 3.25) translate(0 1.375) translate(23.486 18.5)"/>
                        </g>
                        <g fill="#D9DBE7" transform="translate(-240 -12776) translate(240 12776) translate(1.884 3.25) translate(0 1.375) translate(23.36 30.685)">
                            <ellipse cx="2.02" cy="2.01" rx="2.02" ry="2.01"/>
                            <ellipse cx="8.048" cy="2.01" rx="2.02" ry="2.01"/>
                            <ellipse cx="14.077" cy="2.01" rx="2.02" ry="2.01"/>
                            <ellipse cx="2.02" cy="7.219" rx="2.02" ry="2.01"/>
                            <ellipse cx="8.048" cy="7.219" rx="2.02" ry="2.01"/>
                            <ellipse cx="14.077" cy="7.219" rx="2.02" ry="2.01"/>
                            <ellipse cx="2.02" cy="12.427" rx="2.02" ry="2.01"/>
                            <ellipse cx="8.048" cy="12.427" rx="2.02" ry="2.01"/>
                            <ellipse cx="14.077" cy="12.427" rx="2.02" ry="2.01"/>
                            <path d="M20.18 2.436h-.819c-.6 0-1.087-.485-1.087-1.083S18.76.271 19.36.271h.818c.601 0 1.088.484 1.088 1.082 0 .598-.487 1.083-1.088 1.083zM20.18 6.38h-.819c-.6 0-1.087-.484-1.087-1.082 0-.598.486-1.082 1.087-1.082h.818c.601 0 1.088.484 1.088 1.082 0 .598-.487 1.083-1.088 1.083zM20.18 10.326h-.819c-.6 0-1.087-.485-1.087-1.083s.486-1.082 1.087-1.082h.818c.601 0 1.088.485 1.088 1.082 0 .598-.487 1.083-1.088 1.083zM20.18 14.27h-.819c-.6 0-1.087-.484-1.087-1.082 0-.598.486-1.082 1.087-1.082h.818c.601 0 1.088.485 1.088 1.082 0 .598-.487 1.083-1.088 1.083z"/>
                        </g>
                        <path fill="#FB3640" d="M14.118 36.836h-3.182c-.694 0-1.256-.56-1.256-1.25v-9.928c0-.69.562-1.25 1.256-1.25h3.182c.693 0 1.256.56 1.256 1.25v9.928c0 .69-.563 1.25-1.256 1.25z" transform="translate(-240 -12776) translate(240 12776) translate(1.884 3.25) translate(0 1.375)"/>
                        <path fill="#D02A33" d="M15.362 27.547v-1.922c0-.69-.562-1.25-1.256-1.25h-3.182c-.693 0-1.256.56-1.256 1.25v1.922h5.694z" transform="translate(-240 -12776) translate(240 12776) translate(1.884 3.25) translate(0 1.375)"/>
                    </g>
                    <path fill="#FB3640" d="M30.142 58.086c-.347 0-.628-.28-.628-.625 0-.414-.338-.75-.754-.75-.347 0-.628-.28-.628-.625s.281-.625.628-.625c.416 0 .754-.336.754-.75 0-.345.281-.625.628-.625s.628.28.628.625c0 .414.338.75.753.75.347 0 .628.28.628.625s-.28.625-.628.625c-.415 0-.753.336-.753.75 0 .345-.281.625-.628.625zM37.437 57.875c-.347 0-.628-.28-.628-.625 0-.414-.338-.75-.754-.75-.346 0-.628-.28-.628-.625s.282-.625.628-.625c.416 0 .754-.336.754-.75 0-.345.281-.625.628-.625s.628.28.628.625c0 .414.338.75.753.75.347 0 .628.28.628.625s-.28.625-.628.625c-.415 0-.753.336-.753.75 0 .345-.281.625-.628.625zM46.846 5.414c-.347 0-.628-.28-.628-.625 0-.413-.338-.75-.754-.75-.346 0-.628-.28-.628-.625s.282-.625.628-.625c.416 0 .754-.336.754-.75 0-.345.281-.625.628-.625s.628.28.628.625c0 .414.338.75.753.75.347 0 .628.28.628.625s-.28.625-.628.625c-.415 0-.753.337-.753.75 0 .345-.281.625-.628.625zM12.938 6.333c-.16 0-.321-.06-.444-.183l-1.381-1.375c-.245-.244-.245-.64 0-.884l1.381-1.375c.246-.244.643-.244.888 0l1.382 1.375c.245.244.245.64 0 .884L13.382 6.15c-.122.122-.283.183-.444.183zm-.493-2l.493.491.494-.49-.494-.492-.493.491zM38.683 4.04c-.161 0-.322-.062-.444-.184l-1.382-1.375c-.245-.244-.245-.64 0-.884L38.24.222c.245-.244.643-.244.888 0l1.381 1.375c.245.244.245.64 0 .884l-1.381 1.375c-.123.122-.284.183-.444.183zm-.494-2l.494.49.493-.49-.493-.492-.494.491z" transform="translate(-240 -12776) translate(240 12776) translate(1.884 3.25)"/>
                </g>
            </g>
        </g>
    </g>
</svg>
