<svg xmlns="http://www.w3.org/2000/svg" width="54" height="65" viewBox="0 0 54 65">
    <g fill="none" fill-rule="evenodd">
        <g fill-rule="nonzero">
            <g>
                <path fill="#81CFFA" d="M6.515 5.779c-16.996 14.942 4.877 29.426 2.793 45.754-.926 7.258 2.017 14.198 11.643 13.405 11.732-.967 7.474-12.151 9.93-19.597 4.228-12.813 30.234-9.82 19.454-29.556C43.455 3.19 18.213-4.505 6.515 5.779z" transform="translate(-240 -12775) translate(240.034 12775)"/>
                <g>
                    <g>
                        <path fill="#2626BC" d="M21.334 12.755c-.347 0-.628-.28-.628-.625 0-1.866-1.525-3.384-3.4-3.384H4.74c-2.568 0-4.656-2.08-4.656-4.634V.664C.084.32.365.04.712.04c.346 0 .628.28.628.625v3.448c0 1.866 1.525 3.384 3.4 3.384h12.566c2.567 0 4.656 2.079 4.656 4.634 0 .345-.281.625-.628.625z" opacity=".1" transform="translate(-240 -12775) translate(240.034 12775) translate(1.85 4.25) translate(0 1.375) translate(18.839)"/>
                        <path fill="#8CC27B" d="M42.909 13.247h-5.472V10.38c0-.69.562-1.25 1.256-1.25h2.96c.694 0 1.256.56 1.256 1.25v2.867z" transform="translate(-240 -12775) translate(240.034 12775) translate(1.85 4.25) translate(0 1.375)"/>
                        <path fill="#2149FE" d="M47.942 47.998H1.29c-.693 0-1.256-.56-1.256-1.25V13.664c0-.69.563-1.25 1.256-1.25h46.652c.694 0 1.256.56 1.256 1.25v33.084c0 .69-.562 1.25-1.256 1.25z" transform="translate(-240 -12775) translate(240.034 12775) translate(1.85 4.25) translate(0 1.375)"/>
                        <path fill="#8CC27B" d="M18.798 17.593V11.2c0-1.38-1.125-2.5-2.512-2.5H7.744c-1.388 0-2.512 1.12-2.512 2.5v6.393c0 .636.477 1.16 1.095 1.239V41.58c-.617.078-1.095.602-1.095 1.238v6.393c0 1.38 1.124 2.5 2.512 2.5h8.542c1.387 0 2.512-1.12 2.512-2.5v-6.393c0-.636-.478-1.16-1.095-1.238V18.832c.617-.079 1.095-.603 1.095-1.239z" transform="translate(-240 -12775) translate(240.034 12775) translate(1.85 4.25) translate(0 1.375)"/>
                        <path fill="#FFF" d="M44.627 23.98c0 .69-.562 1.25-1.256 1.25H24.616c-.693 0-1.256-.56-1.256-1.25v-4.23c0-.69.563-1.25 1.256-1.25h18.755c.694 0 1.256.56 1.256 1.25v4.23z" transform="translate(-240 -12775) translate(240.034 12775) translate(1.85 4.25) translate(0 1.375)"/>
                        <g>
                            <path fill="#97FFD2" d="M.18 11.338c-.065.047-.101.068-.11.058-.025-.024.015-.043.11-.058z" transform="translate(-240 -12775) translate(240.034 12775) translate(1.85 4.25) translate(0 1.375) translate(23.486 18.5)"/>
                            <path fill="#D9DBE7" d="M15.46 0L8.7 6.73H4.914C7.25 4.386 9.897 1.691 11.554 0h3.905zM21.141 1.25v1.997l-3.498 3.482H10.82l6.76-6.728h2.306c.695 0 1.256.558 1.256 1.25z" transform="translate(-240 -12775) translate(240.034 12775) translate(1.85 4.25) translate(0 1.375) translate(23.486 18.5)"/>
                        </g>
                        <g fill="#8CC27B" transform="translate(-240 -12775) translate(240.034 12775) translate(1.85 4.25) translate(0 1.375) translate(23.36 30.685)">
                            <ellipse cx="2.02" cy="2.01" rx="2.02" ry="2.01"/>
                            <ellipse cx="8.048" cy="2.01" rx="2.02" ry="2.01"/>
                            <ellipse cx="14.077" cy="2.01" rx="2.02" ry="2.01"/>
                            <ellipse cx="2.02" cy="7.219" rx="2.02" ry="2.01"/>
                            <ellipse cx="8.048" cy="7.219" rx="2.02" ry="2.01"/>
                            <ellipse cx="14.077" cy="7.219" rx="2.02" ry="2.01"/>
                            <ellipse cx="2.02" cy="12.427" rx="2.02" ry="2.01"/>
                            <ellipse cx="8.048" cy="12.427" rx="2.02" ry="2.01"/>
                            <ellipse cx="14.077" cy="12.427" rx="2.02" ry="2.01"/>
                            <path d="M20.18 2.436h-.819c-.6 0-1.087-.485-1.087-1.083S18.76.271 19.36.271h.818c.601 0 1.088.484 1.088 1.082 0 .598-.487 1.083-1.088 1.083zM20.18 6.38h-.819c-.6 0-1.087-.484-1.087-1.082 0-.598.486-1.082 1.087-1.082h.818c.601 0 1.088.484 1.088 1.082 0 .598-.487 1.083-1.088 1.083zM20.18 10.326h-.819c-.6 0-1.087-.485-1.087-1.083s.486-1.082 1.087-1.082h.818c.601 0 1.088.485 1.088 1.082 0 .598-.487 1.083-1.088 1.083zM20.18 14.27h-.819c-.6 0-1.087-.484-1.087-1.082 0-.598.486-1.082 1.087-1.082h.818c.601 0 1.088.485 1.088 1.082 0 .598-.487 1.083-1.088 1.083z"/>
                        </g>
                    </g>
                    <path fill="#000" d="M30.142 58.086c-.347 0-.628-.28-.628-.625 0-.414-.338-.75-.754-.75-.347 0-.628-.28-.628-.625s.281-.625.628-.625c.416 0 .754-.336.754-.75 0-.345.281-.625.628-.625s.628.28.628.625c0 .414.338.75.753.75.347 0 .628.28.628.625s-.28.625-.628.625c-.415 0-.753.336-.753.75 0 .345-.281.625-.628.625zM37.437 57.875c-.347 0-.628-.28-.628-.625 0-.414-.338-.75-.754-.75-.346 0-.628-.28-.628-.625s.282-.625.628-.625c.416 0 .754-.336.754-.75 0-.345.281-.625.628-.625s.628.28.628.625c0 .414.338.75.753.75.347 0 .628.28.628.625s-.28.625-.628.625c-.415 0-.753.336-.753.75 0 .345-.281.625-.628.625zM46.846 5.414c-.347 0-.628-.28-.628-.625 0-.413-.338-.75-.754-.75-.346 0-.628-.28-.628-.625s.282-.625.628-.625c.416 0 .754-.336.754-.75 0-.345.281-.625.628-.625s.628.28.628.625c0 .414.338.75.753.75.347 0 .628.28.628.625s-.28.625-.628.625c-.415 0-.753.337-.753.75 0 .345-.281.625-.628.625zM12.938 6.333c-.16 0-.321-.06-.444-.183l-1.381-1.375c-.245-.244-.245-.64 0-.884l1.381-1.375c.246-.244.643-.244.888 0l1.382 1.375c.245.244.245.64 0 .884L13.382 6.15c-.122.122-.283.183-.444.183zm-.493-2l.493.491.494-.49-.494-.492-.493.491zM38.683 4.04c-.161 0-.322-.062-.444-.184l-1.382-1.375c-.245-.244-.245-.64 0-.884L38.24.222c.245-.244.643-.244.888 0l1.381 1.375c.245.244.245.64 0 .884l-1.381 1.375c-.123.122-.284.183-.444.183zm-.494-2l.494.49.493-.49-.493-.492-.494.491z" transform="translate(-240 -12775) translate(240.034 12775) translate(1.85 4.25)"/>
                </g>
                <path fill="#1B3CD1" d="M6.223 16.831v.59H2.871c-1.05 0-1.905.841-1.905 1.876v33.11c0 1.035.854 1.877 1.905 1.877h3.352v.588C6.223 56.597 7.648 58 9.4 58h8.64c1.752 0 3.177-1.403 3.177-3.128v-.588H50.06c1.05 0 1.906-.842 1.906-1.877v-33.11c0-1.035-.855-1.877-1.906-1.877h-4.456v-1.41c0-1.035-.854-1.876-1.905-1.876h-.906c-.311-2.263-2.284-4.013-4.666-4.013h-12.71c-1.897 0-3.44-1.52-3.44-3.387V.626c0-.346-.285-.626-.635-.626-.351 0-.636.28-.636.626v6.108c0 2.558 2.113 4.638 4.71 4.638h12.711c1.68 0 3.08 1.192 3.38 2.762h-.803c-1.05 0-1.905.841-1.905 1.876v1.41H24.857c-.351 0-.636.28-.636.626 0 .345.285.625.636.625H50.06c.35 0 .635.28.635.626v33.11c0 .345-.285.626-.635.626H21.216v-4.558c0-.746-.45-1.404-1.108-1.703v-4.183c0-.346-.285-.626-.635-.626-.351 0-.635.28-.635.626v4.646c0 .315.237.58.554.62.315.04.553.306.553.62v6.397c0 1.035-.855 1.877-1.906 1.877H9.4c-1.05 0-1.906-.842-1.906-1.877v-6.398c0-.313.238-.579.553-.619.317-.04.555-.305.555-.62V24.469c0-.315-.238-.58-.555-.62-.315-.04-.553-.307-.553-.62v-6.398c0-1.035.855-1.876 1.906-1.876h8.64c1.051 0 1.906.841 1.906 1.876v6.398c0 .313-.238.58-.553.62-.317.04-.554.305-.554.62v13.909c0 .345.284.625.635.625.35 0 .635-.28.635-.625V24.932c.658-.3 1.108-.957 1.108-1.703v-6.398c0-1.724-1.425-3.127-3.176-3.127H9.399c-1.751 0-3.176 1.403-3.176 3.127z" transform="translate(-240 -12775) translate(240.034 12775)"/>
                <path fill="#1B3CD1" d="M39.966 16.345c0-.341.267-.619.595-.619h2.809c.328 0 .596.278.596.619v1.394h-4v-1.394z" transform="translate(-240 -12775) translate(240.034 12775)"/>
                <path fill="#2149FE" d="M5.878 48.428v4.54H2.59c-.344 0-.623-.28-.623-.624V19.37c0-.344.28-.623.623-.623h3.29v4.54c0 .742.44 1.397 1.087 1.695v21.75c-.647.3-1.088.954-1.088 1.697z" transform="translate(-240 -12775) translate(240.034 12775)"/>
            </g>
        </g>
    </g>
</svg>
