<svg xmlns="http://www.w3.org/2000/svg" xmlns:xlink="http://www.w3.org/1999/xlink" width="1743" height="851" viewBox="0 0 1743 851">
    <defs>
        <path id="5y6mgpinea" d="M31 0h1681c17.12 0 31 13.88 31 31v637.548c0 13.873-9.217 26.058-22.567 29.831l-535.77 151.452c-2.744.776-5.582 1.169-8.433 1.169H31c-17.12 0-31-13.88-31-31V31C0 13.88 13.88 0 31 0z"/>
        <path id="0nvkxlrixc" d="M2.406 313.145c0 14.598-6.74 27.462 5.955 31.425 3.375 1.054 6.78 2.046 10.208 2.962 17.961 4.832 36.655 7.794 55.519 8.056 31.08.43 55.01-1.78 84.345-19.815l-2.198-167.885c-.194-15.796 1.922-31.623 2.822-47.42 1.07-18.772 2.323-37.85.98-56.58-1.293-17.69-2.777-32.849-16.966-45.302-7.593-6.663-16.705-11.38-25.875-15.495-9.3-4.176-19.88-3.331-29.753-2.015l-25.49 3.397C31.464 8.54 23.686 65.396 23.686 88.877L2.406 313.145z"/>
    </defs>
    <g fill="none" fill-rule="evenodd">
        <g>
            <g transform="translate(-88 -168) translate(88 168)">
                <mask id="0yl5asay7b" fill="#fff">
                    <use xlink:href="#5y6mgpinea"/>
                </mask>
                <use fill="#81CFFA" xlink:href="#5y6mgpinea"/>
                <g mask="url(#0yl5asay7b)">
                    <g>
                        <path fill="#6A6A6A" d="M816 649L832 649 832 592 816 592z" transform="translate(717 138) matrix(-1 0 0 1 1648 0)"/>
                        <path fill="#3E3E3E" d="M865.402 586h-83.803c-8.615 0-15.599-6.94-15.599-15.5 0-8.56 6.984-15.5 15.599-15.5h83.803c8.615 0 15.598 6.94 15.598 15.5 0 8.56-6.983 15.5-15.598 15.5" transform="translate(717 138) matrix(-1 0 0 1 1647 0)"/>
                        <path fill="#3E3E3E" d="M809 598L839 598 839 578 809 578z" transform="translate(717 138) matrix(-1 0 0 1 1648 0)"/>
                        <path fill="#1C2E34" d="M809 729L839 729 839 640 809 640z" transform="translate(717 138) matrix(-1 0 0 1 1648 0)"/>
                        <path fill="#3E3E3E" d="M820.536 572C757.38 572 706 520.296 706 456.748V315.554c0-8.04 6.476-14.554 14.464-14.554s14.465 6.514 14.465 14.554v141.194c0 47.502 38.403 86.143 85.607 86.143 7.988 0 14.464 6.514 14.464 14.555 0 8.04-6.476 14.554-14.464 14.554" transform="translate(717 138) matrix(-1 0 0 1 1541 0)"/>
                        <path fill="#000" d="M875.734 301L721 301 730.41 415.019 725.896 500.777 803.072 550.124 821.266 572 976 572 933.943 545.224 902.577 509.523 890.03 501.823 879.575 432.52 878.878 349.217z" transform="translate(717 138) matrix(-1 0 0 1 1697 0)"/>
                        <path fill="#1E1E1E" d="M875 543L734 543 734 572 874.608 572z" transform="translate(717 138) matrix(-1 0 0 1 1609 0)"/>
                        <path fill="#3E3E3E" d="M975.536 572C912.38 572 861 520.296 861 456.748V315.554c0-8.04 6.477-14.554 14.464-14.554 7.988 0 14.465 6.514 14.465 14.554v141.194c0 47.502 38.403 86.143 85.607 86.143 7.987 0 14.464 6.514 14.464 14.555 0 8.04-6.477 14.554-14.464 14.554" transform="translate(717 138) matrix(-1 0 0 1 1851 0)"/>
                        <path fill="#FFB0A0" d="M669 737.802L667.786 654.251 626 652 627.151 741.74 667.453 742z" transform="translate(717 138) matrix(-1 0 0 1 1295 0)"/>
                        <path fill="#566076" d="M610 461l19.823 16.628c-5.784 35.506-24.895 67.744 11.025 67.744h63.69v146.671l71.464.957 3.989-179.688c.534-28.572-22.413-52.04-50.947-52.102L610 461z" transform="translate(717 138) matrix(-1 0 0 1 1390 0)"/>
                        <path fill="#70BA8E" d="M608 693L690 693 690 665 608 665z" transform="translate(717 138) matrix(-1 0 0 1 1298 0)"/>
                        <path fill="#FFB0A0" d="M783 737.802L781.786 654.251 740 652 741.151 741.74 781.452 742z" transform="translate(717 138) matrix(-1 0 0 1 1523 0)"/>
                        <path fill="#7C8497" d="M726.484 461l-2.71 16.628c-5.785 35.506 21.587 67.744 57.52 67.744h17.22v146.671l71.488.957 3.989-179.688c.535-28.572-22.42-52.04-50.963-52.102l-96.544-.21z" transform="translate(717 138) matrix(-1 0 0 1 1597 0)"/>
                        <path fill="#00B1FF" d="M720 693L802 693 802 665 720 665z" transform="translate(717 138) matrix(-1 0 0 1 1522 0)"/>
                        <path fill="#FFF" d="M796.29 250l68 9.99c6.895 1.013 12.025 6.874 12.095 13.818L878 434.55 726.293 435 716 294.776l5.64-19.01c2.637-8.889 10.16-15.478 19.345-16.943L796.29 250z" transform="translate(717 138) matrix(-1 0 0 1 1594 0)"/>
                        <path fill="#FFB0A0" d="M914 340.544L885.682 414 842 375.855 858.954 323z" transform="translate(717 138) matrix(-1 0 0 1 1756 0)"/>
                        <path fill="#FFF" d="M916 256.002s-52.766-.47-65.879 15.138C833.604 290.804 814 341.058 814 341.058L899.81 360 916 256.002z" transform="translate(717 138) matrix(-1 0 0 1 1730 0)"/>
                        <path fill="#FFB0A0" d="M821.858 400.995L921 423.17l-4.082 22.046-117.152.785s-52.394-10.617-26.651-71l48.743 25.995z" transform="translate(717 138) matrix(-1 0 0 1 1687 0)"/>
                        <path fill="#FFB0A0" d="M717.384 423.336s23.314-9.088 42.62-5.496c13.112 2.44 21.913 14.894 20.92 28.143l-.002.017-77.922-.71 14.384-21.954z" transform="translate(717 138) matrix(-1 0 0 1 1484 0)"/>
                        <path stroke="#E98980" stroke-width="3.328" d="M890 401L866 398" transform="translate(717 138) matrix(-1 0 0 1 1756 0)"/>
                        <path fill="#FFB0A0" d="M760 254.617L788.31 250l37.653 5.655s2.315 22.376-29.521 23.32c-31.836.944-36.442-24.358-36.442-24.358" transform="translate(717 138) matrix(-1 0 0 1 1586 0)"/>
                        <path stroke="#55382E" stroke-width="7.725" d="M724.5 454L724.5 772" transform="translate(717 138) matrix(-1 0 0 1 1449 0)"/>
                        <path stroke="#55382E" stroke-width="7.725" d="M236.5 454L236.5 772" transform="translate(717 138) matrix(-1 0 0 1 473 0)"/>
                        <path stroke="#55382E" stroke-width="7.725" d="M437.5 454L437.5 772" transform="translate(717 138) matrix(-1 0 0 1 875 0)"/>
                        <path fill="#EAC8CE" d="M782 463L972 463 972 437 782 437z" transform="translate(717 138) matrix(-1 0 0 1 1754 0)"/>
                        <path fill="#FFF" d="M184 463L782 463 782 437 184 437z" transform="translate(717 138) matrix(-1 0 0 1 966 0)"/>
                        <path fill="#F9A498" d="M529.757 256.691c-3.066-5.73-4.32-12.255-3.522-18.696 1.062-8.581 4.066-20.465 12.267-29.619 4.098-4.575 11.2-8.395 18.093-10.74 8.848-3.007 17.458 5.132 14.97 14.082l-8.6 16.104-15.416 28.863c-3.783 7.084-14.004 7.087-17.792.006" transform="translate(717 138) matrix(-1 0 0 1 1098 0)"/>
                        <path fill="#F9A498" d="M726.962 311.927l.044-.11-102.78-40.376-.069.188c-2.833-1.052-5.898-1.629-9.1-1.629-14.39 0-26.057 11.62-26.057 25.955 0 11.306 7.259 20.918 17.385 24.478l-.013.037s96.99 32.685 102.78 35.088l.006-.014c2.554.94 5.316 1.456 8.197 1.456C730.414 357 741 346.455 741 333.447c0-9.6-5.769-17.852-14.038-21.52" transform="translate(717 138) matrix(-1 0 0 1 1330 0)"/>
                        <path fill="#F9A498" d="M636 253.789c0-6.511-5.272-11.789-11.776-11.789-4.583 0-8.552 2.622-10.498 6.45l-57.2 67.7C551.9 320.457 549 326.6 549 333.423 549 346.445 559.545 357 572.553 357c10.75 0 19.813-7.213 22.635-17.068l39.85-81.091-.141-.07c.706-1.514 1.103-3.202 1.103-4.982" transform="translate(717 138) matrix(-1 0 0 1 1185 0)"/>
                        <path fill="#F9A498" d="M552.865 226.5s7.271-9.983 11.633-10.459c4.363-.475 6.736 3.228 4.847 7.606-5.332 12.36 1.454 21.393-3.393 32.326-5.446 12.285-25.205 1.901-13.087-29.473" transform="translate(717 138) matrix(-1 0 0 1 1119 0)"/>
                        <path fill="#FFF" d="M673 304.624s26.905-50.057 59.772-42.93c42.824 9.289 50.228 8.27 50.228 8.27L758.87 340 673 304.624z" transform="translate(717 138) matrix(-1 0 0 1 1456 0)"/>
                        <path fill="#FFB0A0" d="M812.435 214.2l1.536 38.41c.568 13.488-7.307 21-20.373 21.375-11.154.32-23.611-4.528-23.598-16.438l.445-60.547 41.99 17.2z" transform="translate(717 138) matrix(-1 0 0 1 1584 0)"/>
                        <path fill="#E39B8C" d="M813 239.87s-30.926 3.91-41.81-31.305c-3.428-11.091 40.663 1.516 40.663 1.516L813 239.87z" transform="translate(717 138) matrix(-1 0 0 1 1584 0)"/>
                        <path fill="#562B06" d="M747.272 121s22.784 28.097-5.272 38l5.272-38z" transform="translate(717 138) matrix(-1 0 0 1 1498 0)"/>
                        <path fill="#FFB0A0" d="M792.648 226c21.996-.818 39.44-19.448 39.352-38.035l-.395-38.883c-.111-23.296-18.084-42.35-40.62-43.061-23.071-.728-46.34 17.878-46.985 41.716l.674 30.297c.576 27.276 21.582 47.133 47.974 47.966" transform="translate(717 138) matrix(-1 0 0 1 1576 0)"/>
                        <path fill="#FFF" d="M759 200.455c1.969 4.75 7.123 13.225 18.69 11.252 11.596-1.976 13.275-10.81 13.31-16.707l-32 5.455z" transform="translate(717 138) matrix(-1 0 0 1 1550 0)"/>
                        <path fill="#562B06" d="M824.872 86c-1.37.536-.921 3.22-1.255 5.495-.448 3.048-1.401 5.795-1.401 5.795s-.752 2.674-2.783 1.659c-1.226-.614-3.174-5.535-4.98-4.785-4.302 1.787-4.018 6.527-9.033 6.536-2.321-1.437-5.181-1.47-7.992-1.247-5.563.44-11.625 2.68-17.777 2.595-7.334-.103-10.616.134-16.35 1.97-4.865 1.56-12.85 7.87-15.592 8.75-1.827.587-2.814.408-2.96-.535 0 0-3.587 1.36-5.223 15.53-.012.11-2.11 27.26 2.161 42.236 1.25 4.378 4.59 1.263 6.598 2.877 3.802 3.057 6.438 8.124 6.438 8.124l3.826-16.509c4.367-.358 8.964-2.29 11.183-7.404 1.302-3.001 1.987-9.614 2.056-19.84 21.625 1.743 37.418 1.341 47.379-1.204 1.627-.218 3.842-.71 5.705-1.812 7.053-2.783 8.111-16.522 9.048-23.513.624-4.66-2.392-12.9-9.048-24.718z" transform="translate(717 138) matrix(-1 0 0 1 1573 0)"/>
                        <g>
                            <path fill="#FFB0A0" d="M.18 15.94c-.241 8.987 6.546 16.494 15.158 16.768 8.613.275 15.79-6.787 16.03-15.773C31.61 7.948 24.824.44 16.212.167 7.597-.108.42 6.954.18 15.94" transform="translate(717 138) matrix(-1 0 0 1 850 162)"/>
                            <path stroke="#312220" stroke-linecap="round" stroke-linejoin="round" stroke-width="3.989" d="M20.993 20.513s.316-11.797-10.545-10.284" transform="translate(717 138) matrix(-1 0 0 1 850 162)"/>
                        </g>
                        <path fill="#562B06" d="M791.049 154.167s8.715-1.2 8.951 2.831c0 0 .094 2.732-7.517 3.61-7.61.88-9.617.333-10.408-2.202-.791-2.535 4.873-4.033 8.974-4.24" transform="translate(717 138) matrix(-1 0 0 1 1582 0)"/>
                        <path fill="#562B06" d="M754.198 154.02s-7.717-.42-8.197 2.633c0 0-.265 2.065 6.485 2.305 6.748.24 8.903-.56 9.457-2.24.63-1.9-4.09-2.77-7.745-2.698" transform="translate(717 138) matrix(-1 0 0 1 1508 0)"/>
                        <path fill="#1C2737" d="M784 170.025c.02 2.21 1.826 3.988 4.035 3.975 2.21-.013 3.983-1.816 3.965-4.025-.02-2.21-1.826-3.989-4.036-3.975-2.209.013-3.983 1.816-3.964 4.025" transform="translate(717 138) matrix(-1 0 0 1 1576 0)"/>
                        <path fill="#1C2737" d="M751 170.025c.02 2.21 1.826 3.989 4.035 3.975 2.21-.014 3.984-1.816 3.965-4.025-.02-2.209-1.826-3.988-4.035-3.975-2.209.014-3.984 1.816-3.965 4.025" transform="translate(717 138) matrix(-1 0 0 1 1510 0)"/>
                        <path stroke="#0B181B" stroke-linecap="round" stroke-linejoin="round" stroke-width="3.767" d="M770.038 178L771 185.57 766 186" transform="translate(717 138) matrix(-1 0 0 1 1537 0)"/>
                        <path fill="#B9BFBF" d="M607.141 438H716v-12H607.141c-3.391 0-6.141 2.687-6.141 6s2.75 6 6.141 6" transform="translate(717 138) matrix(-1 0 0 1 1317 0)"/>
                        <g>
                            <path fill="#DDDEDE" d="M.62 132.948h157.496c8.373 0 15.72-5.537 17.964-13.54l28.346-101.026C206.932 9.451 200.162.61 190.816.61H45.172c-5.587 0-10.474 3.737-11.895 9.1L.62 132.948z" transform="translate(717 138) matrix(-1 0 0 1 617 305)"/>
                            <path fill="#FFF" d="M95.19 72.433c0 7.536 6.158 13.643 13.753 13.643s13.752-6.107 13.752-13.643c0-7.535-6.157-13.643-13.752-13.643-7.595 0-13.753 6.108-13.753 13.643" transform="translate(717 138) matrix(-1 0 0 1 617 305)"/>
                        </g>
                        <path fill="#050705" d="M151.431 712L160 493 86 501.31 89.067 712z" transform="translate(717 138) matrix(-1 0 0 1 246 0)"/>
                        <path fill="#2C2C2C" d="M63.466 712c18.367-34.77 27.758-155.09 36.623-183.621 4.108-13.205 6.317-25.167 5.85-35.379l-93.624.326L4 712h59.466z" transform="translate(717 138) matrix(-1 0 0 1 110 0)"/>
                        <path fill="#2C2C2C" d="M145.192 579S44.966 576.031 5 506.24L160 494s-5.914 41.5-14.808 85" transform="translate(717 138) matrix(-1 0 0 1 165 0)"/>
                        <path fill="#FF9580" d="M325 284.74l-11.042-10.4c-2.044-1.927-3.837-4.098-5.337-6.464l-6.002-9.47c-2.699-6.465-8.208-11.373-14.985-13.349l-5.64-1.644-5.123 3.165s-27.966-6.86-29.986-3.785l-.349 1.081-.203.633 23.148 8.459s-20.071-5.92-21.287-6.227c-1.337-.337-5.507-1.968-6.113.391-.499 1.94 1.344 4.122 4.667 5.637 1.367.623 18.323 7.196 18.323 7.196s-18.22-5.502-19.102-5.763c-2.144-.637-2.886 2.852-1.738 3.651.909.632 23.334 14.876 23.334 14.876s-4.94 1.536-8.236.316c-3.297-1.22-7.795-7.192-9.6-5.518-1.805 1.675-1.919 2.935-1.339 3.622.58.687 7.314 7.051 9.748 8.538 2.433 1.486 23.027 11.17 23.027 11.17L316.373 301 325 284.74z" transform="translate(717 138) matrix(-1 0 0 1 567 0)"/>
                        <path fill="#EDB5A7" d="M237.506 312.71C186.815 293.547 118.542 277.901 93.235 273L83 303.823c57.095 24.25 113.391 47.628 134.592 56.408 2.244 1.368 4.712 2.397 7.333 3.034l1.498.618.09-.287c1.472.26 2.986.404 4.533.404C245.38 364 257 352.336 257 337.948c0-12.15-8.285-22.357-19.494-25.239" transform="translate(717 138) matrix(-1 0 0 1 340 0)"/>
                        <path fill="#D63616" d="M135 196.024C135 181.652 123.265 170 108.79 170c-13.68 0-24.906 10.406-26.1 23.68-15.337 59.396-23.076 116.546-25.667 138.102-.66 2.286-1.023 4.697-1.023 7.194 0 .48.015.958.042 1.432l-.042.4.073.012C57.027 354.331 68.36 365 82.21 365c10.974 0 20.367-6.7 24.273-16.201l.461.073C125.24 300.28 133.809 224.486 135 197.856l-.071-.008c.042-.603.071-1.21.071-1.824" transform="translate(717 138) matrix(-1 0 0 1 191 0)"/>
                        <path fill="#2149FE" d="M210 328L354 328 354 235 210 235z" transform="translate(717 138) matrix(-1 0 0 1 564 0)"/>
                        <path fill="#1632B2" d="M210 244L354 244 354 235 210 235z" transform="translate(717 138) matrix(-1 0 0 1 564 0)"/>
                        <path fill="#2149FE" d="M199 235L365 235 365 202 199 202z" transform="translate(717 138) matrix(-1 0 0 1 564 0)"/>
                        <path fill="#8CC27B" d="M241 223L323 223 323 214 241 214z" transform="translate(717 138) matrix(-1 0 0 1 564 0)"/>
                        <g>
                            <path fill="#FFBCAE" d="M52.82 200.848c14.16 0 25.64-11.48 25.64-25.641v-69.611H27.18v69.61c0 14.162 11.48 25.642 25.64 25.642" transform="translate(717 138) rotate(6 18.257 370.636) matrix(-1 0 0 1 105.64 0)"/>
                            <path fill="#1A1A1A" d="M77.082 118.44s-2.607 31.966-28.248 41.255V136.97l29.627-17.434" transform="translate(717 138) rotate(6 18.257 370.636) matrix(-1 0 0 1 127.295 0)"/>
                            <path fill="#FFBCAE" d="M74.787 145.881c21.065 0 38.142-17.077 38.142-38.142V28.963l-35.21-3.62c-13.09 0-30.645 22.541-30.645 35.63v50.659c1.001 19.546 17.383 34.88 27.713 34.249" transform="translate(717 138) rotate(6 18.257 370.636) matrix(-1 0 0 1 160.004 0)"/>
                            <path fill="#FFBCAE" d="M113.375 79.743l-9.25 18.602c-1.497 1.875.042 4.443 2.663 4.441l15.533-.009-8.946-23.034z" transform="translate(717 138) rotate(6 18.257 370.636) matrix(-1 0 0 1 225.859 0)"/>
                            <path fill="#DD3900" d="M12.088 15.656C40.304 5.234 56.205 26.987 56.205 26.987c10.483-1.785 19.576 6.955 19.576 6.955 36.27 31.805-9.525 71.653-9.525 71.653l3.269 23.304c-25.726 0-29.145-25.128-29.145-25.128l-2.59-42.416-.208-.18-6.457-15.56-13.472-14.46s-33.78-5.077-5.565-15.499" transform="translate(717 138) rotate(6 18.257 370.636) matrix(-1 0 0 1 90.6 0)"/>
                            <path fill="#FFBCAE" d="M31.51 106.505c10.387 6.888 28.357-24.446 18.234-31.866C39.622 67.218 28.59 84.982 28.59 84.982l.24 7.446-1.65 9.854 1.163 2.665 3.167 1.558z" transform="translate(717 138) rotate(6 18.257 370.636) matrix(-1 0 0 1 79.915 0)"/>
                            <path stroke="#844E3F" stroke-linecap="round" stroke-linejoin="round" stroke-width="2.521" d="M43.825 86.91s-7.36 3.936-2.498 9.852M35.545 84.08s6.763-2.256 11.563 7.703" transform="translate(717 138) rotate(6 18.257 370.636)"/>
                            <path fill="#1A1A1A" d="M93.877 78.966c0 2.396 1.942 4.338 4.338 4.338 2.395 0 4.338-1.942 4.338-4.338s-1.943-4.338-4.338-4.338c-2.396 0-4.338 1.942-4.338 4.338" transform="translate(717 138) rotate(6 18.257 370.636) matrix(-1 0 0 1 196.43 0)"/>
                            <path fill="#DD3900" d="M79.307 65.544l-1.318-2.762c-.398-.835.16-1.749 1.296-2.091 3.114-.939 9.303-2.424 14.16-1.197 5.548 1.401 9.627 6.149 10.922 7.822.286.371.316.805.096 1.198-.45.804-1.797 1.132-2.837.689l-6.275-2.666c-2.145-.911-4.667-1.248-7.125-.948-1.811.222-3.983.547-5.937 1-1.236.287-2.562-.165-2.982-1.045" transform="translate(717 138) rotate(6 18.257 370.636) matrix(-1 0 0 1 182.469 0)"/>
                            <path stroke="#844E3F" stroke-linecap="round" stroke-linejoin="round" stroke-width="2.521" d="M93.11 108.104s5.478 3.88 18.819 3.88" transform="translate(717 138) rotate(6 18.257 370.636)"/>
                            <path fill="#DD3900" d="M10.306 38.93s0 4.08 10.164 4.362c13.217.368 5.317 13.658 5.317 13.658s16.697 3.045 16.422-21.06c0 0 6.91 17.945 21.86 17.758 0 0-8.134-7.326-7.583-14.597 0 0 54.055 14.895 56.531 21.863 0 0 0-27.896-19.428-42.149 0 0 6.071-3.97 11.015-1.005 0 0-18.88-17.76-49.403-12.035 0 0-7.43 3.03-14.584-2.423C33.462-2.152 24.193-.65 20.53 6.332c-2.453 4.673-6.31 6.952-6.31 6.952s-4.403.606-4.679-8.483c0 0-6.218 7.748 0 16.057 0 0-15.549 5.83-6.946 30.212 0 0 6.24-11.8 7.712-12.14" transform="translate(717 138) rotate(6 18.257 370.636) matrix(-1 0 0 1 113.017 0)"/>
                        </g>
                        <g>
                            <g transform="translate(717 138) matrix(-1 0 0 1 161 169) translate(0 .102)">
                                <mask id="kfcteltqcd" fill="#fff">
                                    <use xlink:href="#0nvkxlrixc"/>
                                </mask>
                                <use fill="#8CC27B" xlink:href="#0nvkxlrixc"/>
                                <path fill="#2149FE" d="M-15 328.898c33.624 7.737 64.624 11.605 93 11.605 28.376 0 56.042-3.868 83-11.605v27H-15v-27z" mask="url(#kfcteltqcd)"/>
                            </g>
                        </g>
                        <path fill="#FFC4B6" d="M282 305.176l-12.772-12.041c-2.364-2.23-4.438-4.744-6.173-7.484l-6.942-10.962c-3.121-7.485-9.494-13.167-17.332-15.455-9.08-5.678-14.625-8.725-16.64-9.139-3.02-.62-6.112 1.886-5.036 4.684.214.557 3.29 2.629 9.226 6.215 0 0-32.345-7.942-34.681-4.382l-.404 1.252-.235.732 26.774 9.794s-23.216-6.855-24.62-7.21c-1.548-.39-6.37-2.278-7.072.454-.576 2.246 1.555 4.772 5.398 6.526 1.581.722 21.193 8.33 21.193 8.33s-21.074-6.369-22.094-6.672c-2.48-.737-3.338 3.303-2.01 4.228 1.05.731 26.989 17.222 26.989 17.222s-5.714 1.778-9.527.365c-3.813-1.412-9.015-8.326-11.103-6.387-2.087 1.938-2.219 3.398-1.549 4.193.672.795 8.46 8.163 11.275 9.883 2.815 1.722 26.635 12.934 26.635 12.934L272.022 324 282 305.176z" transform="translate(717 138) matrix(-1 0 0 1 468 0)"/>
                        <path fill="#FFC4B6" d="M28.183 190c13.666 0 24.88 10.406 26.073 23.68 10.813 41.916 17.845 82.713 21.958 110.671 45.837-14.043 97.052-23.284 118.108-27.373L203 321.887c-57.173 24.341-112.635 50.517-133.865 59.33-2.247 1.373-4.718 2.406-7.343 3.045l-1.472.609-.028.011-.09-.287c-1.475.26-2.99.405-4.54.405-.156 0-.313-.001-.469-.004-.152.003-.304.004-.457.004-10.963 0-20.346-6.7-24.248-16.201l-.46.073C11.75 320.279 3.19 244.486 2 217.856l.071-.008c-.042-.603-.071-1.21-.071-1.824C2 201.652 13.723 190 28.183 190z" transform="translate(717 138)"/>
                        <path fill="#80BA6E" d="M44.206 190c-13.666 0-24.88 10.406-26.073 23.68C2.811 273.076 4.675 265.945 2.086 287.5c-2.588 21.555 53.857 26.36 57.758 16.858 6.237-39.915 9.752-68.749 10.545-86.502l-.071-.008c.042-.603.071-1.21.071-1.824 0-14.372-11.723-26.024-26.183-26.024z" transform="translate(717 138) matrix(-1 0 0 1 72.389 0)"/>
                        <path fill="#2149FE" d="M11.793 283.584c-.365.457-.678 1.762-.936 3.916-2.589 21.555 53.856 26.36 57.758 16.858l1.774-7.38c-9.89-4.24-19.384-7.399-28.48-9.478-9.095-2.08-19.134-3.385-30.116-3.916z" transform="translate(717 138) matrix(-1 0 0 1 81.16 0)"/>
                    </g>
                </g>
            </g>
        </g>
    </g>
</svg>
