<svg xmlns="http://www.w3.org/2000/svg" xmlns:xlink="http://www.w3.org/1999/xlink" width="360" height="179" viewBox="0 0 360 179">
    <defs>
        <path id="zqhr8vygwa" d="M0 0L360 0 360 178.79 0 179z"/>
        <path id="3tb67ep6ac" d="M58.24.045C39.405 1.458 28.665 11.231 28.665 11.231l-4.67-2.527C11.441 9.216.026 12.041.026 12.041l180.4.418s-22.502-4.37-35.744-2.05c-13.242 2.322-45.518-.405-45.518-.405l-13.297.648C79.673.432 61.352.042 58.59.042c-.229 0-.35.003-.35.003"/>
        <path id="nck9r8g2pe" d="M11.045 6.992l-3.822 3.337L.085 12.17s11.216 1.841 18.352 0C25.573 10.33 29.65 3.232 29.65 3.232s2.452-2.978 5.518-1.76c-1.086-.48-3.451-1.31-6.792-1.31-4.348 0-10.346 1.406-17.332 6.83M35.84 1.803c-.227-.134-.45-.243-.67-.33.44.193.67.33.67.33"/>
        <path id="q0g4zpqk3f" d="M2.734 2.102L.074 3.381s8.23.256 15.066 2.301c6.836 2.046 7.215 3.836 12.406 5.498 5.19 1.662 11.128 1.08 11.128 1.08S31.95 9.123 20.936 6.017C9.923 2.91 6.658.105 6.658.105L2.734 2.102z"/>
        <path id="fr0ubjuslg" d="M.025 4.285s3.849 1.694 8.512 0c0 0 5.235-2.304 10.735-2.589 6.46-.333 11.402 3.513 11.402 3.513S28.086 1.102 16.245.135c-1.02-.083-1.987-.12-2.9-.122C3.68.013.025 4.285.025 4.285"/>
        <path id="iqhxe643sh" d="M82.666 2.964C79.222 4.256 71.09 17.824 68.27 19.685c-2.822 1.861-11.127 4.84-11.127 4.84s-5.738-10.33-15.374-10.13c-9.636.2-12.903 16.003-12.903 16.003s-5.854 2.482-7.41 3.09c-1.559.608-4.38 5.039-4.38 5.039C14.481 39.564.12 40.25.12 40.25s10.464 1.02 27.777-.667c6.983-.878 13.974-.347 22.584.185 9.842.607 21.801 1.215 38.289-.283 40.81-3.709 59.242-9.03 59.242-9.03 12.606-2.379 32.456-4.097 32.456-4.097l-16.313.32c.114-12.603-11.728-14.304-11.728-14.304-15.014-.754-33.167.751-33.167.751l1.127-7.635C114.706 1.47 107.328.21 100.52.21c-7.906 0-15.043 1.701-17.854 2.755"/>
        <path id="h0k8mez15k" d="M.037 3.675s9.347.434 19.91-1.272c0 0-7.833-1.277-11.607-2.399 0 0-7.267 2.608-8.303 3.671"/>
        <path id="pnj1gy9bjn" d="M9.045.982C2.372 3.818.075 14.716.075 14.716s6.996-.885 10.938-3.78c0 0 2.585-7.395 4.647-8.658 2.062-1.261 5.464.535 5.464.535S17.944.067 13.452.067c-1.365 0-2.851.254-4.407.915"/>
        <path id="3myulx1kmq" d="M9.692.272C3.583 1.846.008 7.387.008 7.387c5.639 3.145 12.97.13 12.97.13s4.003-6.363 5.224-6.405c1.222-.043 10.359-.828 10.359-.828S20.985.04 15.381.04c-2.743 0-5.014.059-5.689.232"/>
        <path id="wc5bavxrft" d="M30.655 5.548c-1.105 2.014-2.477 5.08-2.477 5.08S24.48 9.03 21.443 8.833c-3.037-.196-8.607 1.58-8.751 2.237-.145.656-.04 1.808-.04 1.808L.037 15.338s8.782.476 14.268-.06c0 0 24.5-1.265 36.262-2.984 11.763-1.718 33.637-4.828 33.637-4.828l-10.337.216s-5.668-2.409-10.71-2.201c-5.04.207-7.34 2.894-7.34 2.894S50.456 1.115 45.75.192c-.45-.088-.942-.129-1.463-.129-4.943 0-12.634 3.662-13.633 5.485"/>
        <path id="nqnjd7vciv" d="M13.36.263c-4.055.5-9.79 3.435-10.675 4.6C1.798 6.026.074 10.617.074 10.617s7.179.492 10.162 0c0 0 .094-5.709 1.307-6.92 1.21-1.21 5.1-3.106 7.164-2.857 0 0-.85-.71-3.34-.71-.578 0-1.243.038-2.007.132"/>
        <path id="d5i1ir5moy" d="M6.932.247C4.197.716.092 1.596.019 2.27c0 0 1.134.402 3.202.603 2.068.201 8.367-1.667 8.367-1.667l.447-.504S10.529.114 8.531.114c-.507 0-1.045.038-1.6.133"/>
        <path id="lmh0ei895B" d="M9.038.219c-4.222.637-5.58 2.93-5.58 2.93L.047 5.577S8.142 4.027 8.58 3.84c.44-.186 3.137-2.238 3.827-2.487.69-.248 5.622 0 5.622 0S14.604.081 10.99.081c-.65 0-1.307.04-1.95.138"/>
        <path id="tlipfqv73E" d="M17.43 3.149c-.628 1.143-1.409 2.883-1.409 2.883s-2.102-.907-3.829-1.018c-1.727-.111-4.894.897-4.976 1.27-.082.372-.022 1.026-.022 1.026L.02 8.705s4.993.27 8.113-.033c0 0 13.93-.719 20.617-1.694 6.689-.976 19.126-2.74 19.126-2.74l-5.878.122s-3.222-1.367-6.09-1.25c-2.865.118-4.173 1.643-4.173 1.643S28.689.633 26.013.11c-.255-.05-.535-.073-.832-.073-2.81 0-7.183 2.078-7.751 3.113"/>
        <path id="g5zfzoqkdG" d="M7.656.152C5.332.44 2.046 2.134 1.538 2.805 1.03 3.477.042 6.125.042 6.125s4.114.284 5.824 0c0 0 .053-3.293.748-3.991C7.308 1.435 9.537.342 10.72.485c0 0-.488-.41-1.914-.41-.331 0-.712.022-1.15.077"/>
        <path id="tky83lurgJ" d="M3.944.141C2.388.41.052.911.01 1.297c0 0 .645.23 1.822.345 1.176.115 4.76-.953 4.76-.953l.255-.288S5.99.065 4.854.065c-.289 0-.595.022-.91.076"/>
        <path id="4p4s3c22tM" d="M5.15.122C2.744.476 1.97 1.75 1.97 1.75L.028 3.099s4.61-.862 4.86-.966C5.139 2.03 6.677.89 7.07.752c.394-.138 3.203 0 3.203 0S8.321.045 6.261.045c-.37 0-.744.023-1.111.077"/>
        <path id="dv331seowP" d="M0 25.279l502.065-2.969v-7.834s-70.837 6.98-208.689 5.257C101.968 17.343 0 .161 0 .161V25.28z"/>
        <path id="wbamv8b5zQ" d="M2.393 19.935L0.023 22.225 0.023 45.483 13.536 48.313 12.922 22.225 10.421 19.935 5.913 0.009z"/>
        <path id="ad02e07zxR" d="M1.565 12.86L0.055 14.339 0.055 29.344 8.66 31.17 8.27 14.339 6.677 12.86 3.807 0.006z"/>
        <path id="prb2hmvknT" d="M0.524 1.021L0.186 78.502 1.483 78.952 1.483 0.019z"/>
        <path id="g9g4pdlmiV" d="M0.338 1.084L0 78.6 1.297 79.049 1.297 0.082z"/>
        <path id="0d3c3owucX" d="M0.469 1.066L0.132 78.582 1.428 79.032 1.428 0.064z"/>
        <path id="ww0nbu35dZ" d="M0.019 27.559L14.321 27.688 12.912 0.488 0.47 0.077z"/>
        <path id="cf3bdzcgkaa" d="M0.093 29.31L21.678 26.451 20.745 4.847 11.565 4.847 11.565 10.517 9.543 10.517 9.543 0.589 0.093 0.016z"/>
        <linearGradient id="7ioquh9qbj" x1="47.273%" x2="53.032%" y1="107.241%" y2="-5.314%">
            <stop offset="0%" stop-color="#DFF0FF"/>
            <stop offset="100%" stop-color="#D6E4FF"/>
        </linearGradient>
        <linearGradient id="9jbmiiccrl" x1="49.21%" x2="51.41%" y1="52.598%" y2="48.432%">
            <stop offset="0%" stop-color="#DFF0FF"/>
            <stop offset="100%" stop-color="#D6E4FF"/>
        </linearGradient>
        <linearGradient id="zjawmdeebo" x1="46.756%" x2="54.196%" y1="77.392%" y2="24.972%">
            <stop offset="0%" stop-color="#DFF0FF"/>
            <stop offset="100%" stop-color="#D6E4FF"/>
        </linearGradient>
        <linearGradient id="bfv14eefir" x1="48.008%" x2="51.684%" y1="55.623%" y2="44.071%">
            <stop offset="0%" stop-color="#DFF0FF"/>
            <stop offset="100%" stop-color="#D6E4FF"/>
        </linearGradient>
        <linearGradient id="77z8jx4s2w" x1="50%" x2="50%" y1="100%" y2="-.001%">
            <stop offset="0%" stop-color="#DFF0FF"/>
            <stop offset="100%" stop-color="#D6E4FF"/>
        </linearGradient>
        <linearGradient id="ri1rzixvmz" x1="49.997%" x2="49.997%" y1="100.018%" y2="-.015%">
            <stop offset="0%" stop-color="#DFF0FF"/>
            <stop offset="100%" stop-color="#D6E4FF"/>
        </linearGradient>
        <linearGradient id="a5b0koy50C" x1="50%" x2="50%" y1="100.011%" y2=".001%">
            <stop offset="0%" stop-color="#DFF0FF"/>
            <stop offset="100%" stop-color="#D6E4FF"/>
        </linearGradient>
        <linearGradient id="jxqfkhwfnH" x1="50%" x2="50%" y1="100%" y2="-.001%">
            <stop offset="0%" stop-color="#DFF0FF"/>
            <stop offset="100%" stop-color="#D6E4FF"/>
        </linearGradient>
        <linearGradient id="51yvhs3i4K" x1="49.997%" x2="49.997%" y1="100.018%" y2="-.015%">
            <stop offset="0%" stop-color="#DFF0FF"/>
            <stop offset="100%" stop-color="#D6E4FF"/>
        </linearGradient>
        <linearGradient id="9ixppz9tvN" x1="50%" x2="50%" y1="100.011%" y2=".001%">
            <stop offset="0%" stop-color="#DFF0FF"/>
            <stop offset="100%" stop-color="#D6E4FF"/>
        </linearGradient>
        <linearGradient id="wvksbmswtS" x1="22.618%" x2="22.618%" y1="100%" y2="26.679%">
            <stop offset="0%" stop-color="#C0FFAD"/>
            <stop offset="100%" stop-color="#8CC27B"/>
        </linearGradient>
    </defs>
    <g fill="none" fill-rule="evenodd">
        <g>
            <mask id="md8bqo0h2b" fill="#fff">
                <use xlink:href="#zqhr8vygwa"/>
            </mask>
            <use fill="#81CFFA" xlink:href="#zqhr8vygwa"/>
            <g mask="url(#md8bqo0h2b)">
                <g>
                    <g>
                        <path d="M23.558 178.369L525.642 178.369 525.642 0 23.558 0z" transform="translate(89 -4) translate(.598 .214)"/>
                        <g transform="translate(89 -4) translate(.598 .214) translate(29.658 126.625)">
                            <mask id="u0q2seofpd" fill="#fff">
                                <use xlink:href="#3tb67ep6ac"/>
                            </mask>
                            <path fill="#FFF" d="M58.24.045C39.405 1.458 28.665 11.231 28.665 11.231l-4.67-2.527C11.441 9.216.026 12.041.026 12.041l180.4.418s-22.502-4.37-35.744-2.05c-13.242 2.322-45.518-.405-45.518-.405l-13.297.648C79.673.432 61.352.042 58.59.042c-.229 0-.35.003-.35.003" mask="url(#u0q2seofpd)"/>
                        </g>
                        <g transform="translate(89 -4) translate(.598 .214) translate(67.52 40.385)"/>
                        <g transform="translate(89 -4) translate(.598 .214) translate(97.598 52.165)"/>
                        <g transform="translate(89 -4) translate(.598 .214) translate(94.443 68.36)"/>
                        <g transform="translate(89 -4) translate(.598 .214) translate(190.148 16.196)">
                            <mask id="b9740n3e0i" fill="#fff">
                                <use xlink:href="#iqhxe643sh"/>
                            </mask>
                            <path fill="#FFF" d="M82.666 2.964C79.222 4.256 71.09 17.824 68.27 19.685c-2.822 1.861-11.127 4.84-11.127 4.84s-5.738-10.33-15.374-10.13c-9.636.2-12.903 16.003-12.903 16.003s-5.854 2.482-7.41 3.09c-1.559.608-4.38 5.039-4.38 5.039C14.481 39.564.12 40.25.12 40.25s10.464 1.02 27.777-.667c6.983-.878 13.974-.347 22.584.185 9.842.607 21.801 1.215 38.289-.283 40.81-3.709 59.242-9.03 59.242-9.03 12.606-2.379 32.456-4.097 32.456-4.097l-16.313.32c.114-12.603-11.728-14.304-11.728-14.304-15.014-.754-33.167.751-33.167.751l1.127-7.635C114.706 1.47 107.328.21 100.52.21c-7.906 0-15.043 1.701-17.854 2.755" mask="url(#b9740n3e0i)"/>
                        </g>
                        <g fill="url(#7ioquh9qbj)" transform="translate(89 -4) translate(.598 .214) translate(247.571 19.351)">
                            <path d="M11.938 15.754S2.495 20.747.02 21.423c7.954.142 13.031 1.013 15.23 2.61 2.507 1.822 4.489 6.08 5.946 12.777 0 0 9.312-2.766 11.155-3.737 0 0-7.357-15.285-6.412-15.927.946-.641 6.61-12.338 7.377-15.147C33.75.403 30.779.06 28.133.06c-2.008 0-3.829.198-3.829.198s-6.082 6.76-12.366 15.497z"/>
                        </g>
                        <g transform="translate(89 -4) translate(.598 .214) translate(210.551 46.485)">
                            <mask id="erpok60kum" fill="#fff">
                                <use xlink:href="#h0k8mez15k"/>
                            </mask>
                            <path fill="url(#9jbmiiccrl)" d="M.037 3.675s9.347.434 19.91-1.272c0 0-7.833-1.277-11.607-2.399 0 0-7.267 2.608-8.303 3.671" mask="url(#erpok60kum)"/>
                        </g>
                        <g transform="translate(89 -4) translate(.598 .214) translate(219.385 30.29)">
                            <mask id="8lehk0fi0p" fill="#fff">
                                <use xlink:href="#pnj1gy9bjn"/>
                            </mask>
                            <path fill="url(#zjawmdeebo)" d="M9.045.982C2.372 3.818.075 14.716.075 14.716s6.996-.885 10.938-3.78c0 0 2.585-7.395 4.647-8.658 2.062-1.261 5.464.535 5.464.535S17.944.067 13.452.067c-1.365 0-2.851.254-4.407.915" mask="url(#8lehk0fi0p)"/>
                        </g>
                        <g transform="translate(89 -4) translate(.598 .214) translate(269.236 42.7)">
                            <mask id="le6hr9qxzs" fill="#fff">
                                <use xlink:href="#3myulx1kmq"/>
                            </mask>
                            <path fill="url(#bfv14eefir)" d="M9.692.272C3.583 1.846.008 7.387.008 7.387c5.639 3.145 12.97.13 12.97.13s4.003-6.363 5.224-6.405c1.222-.043 10.359-.828 10.359-.828S20.985.04 15.381.04c-2.743 0-5.014.059-5.689.232" mask="url(#le6hr9qxzs)"/>
                        </g>
                        <g>
                            <g transform="translate(89 -4) translate(.598 .214) translate(99.28 68.992)">
                                <mask id="7rkipp9sbu" fill="#fff">
                                    <use xlink:href="#wc5bavxrft"/>
                                </mask>
                                <path fill="#FFF" d="M30.655 5.548c-1.105 2.014-2.477 5.08-2.477 5.08S24.48 9.03 21.443 8.833c-3.037-.196-8.607 1.58-8.751 2.237-.145.656-.04 1.808-.04 1.808L.037 15.338s8.782.476 14.268-.06c0 0 24.5-1.265 36.262-2.984 11.763-1.718 33.637-4.828 33.637-4.828l-10.337.216s-5.668-2.409-10.71-2.201c-5.04.207-7.34 2.894-7.34 2.894S50.456 1.115 45.75.192c-.45-.088-.942-.129-1.463-.129-4.943 0-12.634 3.662-13.633 5.485" mask="url(#7rkipp9sbu)"/>
                            </g>
                            <g transform="translate(89 -4) translate(.598 .214) translate(99.28 68.992) translate(28.186 .21)">
                                <mask id="lqom2l2y4x" fill="#fff">
                                    <use xlink:href="#nqnjd7vciv"/>
                                </mask>
                                <path fill="url(#77z8jx4s2w)" d="M13.36.263c-4.055.5-9.79 3.435-10.675 4.6C1.798 6.026.074 10.617.074 10.617s7.179.492 10.162 0c0 0 .094-5.709 1.307-6.92 1.21-1.21 5.1-3.106 7.164-2.857 0 0-.85-.71-3.34-.71-.578 0-1.243.038-2.007.132" mask="url(#lqom2l2y4x)"/>
                            </g>
                            <g transform="translate(89 -4) translate(.598 .214) translate(99.28 68.992) translate(12.83 8.834)">
                                <mask id="5yf35vpqbA" fill="#fff">
                                    <use xlink:href="#d5i1ir5moy"/>
                                </mask>
                                <path fill="url(#ri1rzixvmz)" d="M6.932.247C4.197.716.092 1.596.019 2.27c0 0 1.134.402 3.202.603 2.068.201 8.367-1.667 8.367-1.667l.447-.504S10.529.114 8.531.114c-.507 0-1.045.038-1.6.133" mask="url(#5yf35vpqbA)"/>
                            </g>
                            <g transform="translate(89 -4) translate(.598 .214) translate(99.28 68.992) translate(52.375 5.469)">
                                <mask id="7h6ugm9wfD" fill="#fff">
                                    <use xlink:href="#lmh0ei895B"/>
                                </mask>
                                <path fill="url(#a5b0koy50C)" d="M9.038.219c-4.222.637-5.58 2.93-5.58 2.93L.047 5.577S8.142 4.027 8.58 3.84c.44-.186 3.137-2.238 3.827-2.487.69-.248 5.622 0 5.622 0S14.604.081 10.99.081c-.65 0-1.307.04-1.95.138" mask="url(#7h6ugm9wfD)"/>
                            </g>
                        </g>
                        <g>
                            <g transform="translate(89 -4) translate(.598 .214) matrix(-1 0 0 1 185.73 10.517)">
                                <mask id="t9mbqzn8dF" fill="#fff">
                                    <use xlink:href="#tlipfqv73E"/>
                                </mask>
                                <path fill="#FFF" d="M17.43 3.149c-.628 1.143-1.409 2.883-1.409 2.883s-2.102-.907-3.829-1.018c-1.727-.111-4.894.897-4.976 1.27-.082.372-.022 1.026-.022 1.026L.02 8.705s4.993.27 8.113-.033c0 0 13.93-.719 20.617-1.694 6.689-.976 19.126-2.74 19.126-2.74l-5.878.122s-3.222-1.367-6.09-1.25c-2.865.118-4.173 1.643-4.173 1.643S28.689.633 26.013.11c-.255-.05-.535-.073-.832-.073-2.81 0-7.183 2.078-7.751 3.113" mask="url(#t9mbqzn8dF)"/>
                            </g>
                            <g transform="translate(89 -4) translate(.598 .214) matrix(-1 0 0 1 185.73 10.517) translate(15.986)">
                                <mask id="gu90hakbtI" fill="#fff">
                                    <use xlink:href="#g5zfzoqkdG"/>
                                </mask>
                                <path fill="url(#jxqfkhwfnH)" d="M7.656.152C5.332.44 2.046 2.134 1.538 2.805 1.03 3.477.042 6.125.042 6.125s4.114.284 5.824 0c0 0 .053-3.293.748-3.991C7.308 1.435 9.537.342 10.72.485c0 0-.488-.41-1.914-.41-.331 0-.712.022-1.15.077" mask="url(#gu90hakbtI)"/>
                            </g>
                            <g transform="translate(89 -4) translate(.598 .214) matrix(-1 0 0 1 185.73 10.517) translate(7.362 5.048)">
                                <mask id="cbcslf6psL" fill="#fff">
                                    <use xlink:href="#tky83lurgJ"/>
                                </mask>
                                <path fill="url(#51yvhs3i4K)" d="M3.944.141C2.388.41.052.911.01 1.297c0 0 .645.23 1.822.345 1.176.115 4.76-.953 4.76-.953l.255-.288S5.99.065 4.854.065c-.289 0-.595.022-.91.076" mask="url(#cbcslf6psL)"/>
                            </g>
                            <g transform="translate(89 -4) translate(.598 .214) matrix(-1 0 0 1 185.73 10.517) translate(29.868 3.155)">
                                <mask id="ql0393ewwO" fill="#fff">
                                    <use xlink:href="#4p4s3c22tM"/>
                                </mask>
                                <path fill="url(#9ixppz9tvN)" d="M5.15.122C2.744.476 1.97 1.75 1.97 1.75L.028 3.099s4.61-.862 4.86-.966C5.139 2.03 6.677.89 7.07.752c.394-.138 3.203 0 3.203 0S8.321.045 6.261.045c-.37 0-.744.023-1.111.077" mask="url(#ql0393ewwO)"/>
                            </g>
                        </g>
                        <g transform="translate(89 -4) translate(.598 .214) translate(23.558 159.649)"/>
                        <g fill="#679359">
                            <path d="M7.469 0L7.469 3.914 3.712 3.914 1.076 13.287 0.05 76.569 21.031 78.897 21.031 13.11 17.739 3.914 14.25 3.914 14.25 0z" transform="translate(89 -4) translate(.598 .214) translate(223.382 86.66)"/>
                        </g>
                        <g transform="translate(89 -4) translate(.598 .214) translate(174.583 67.309)"/>
                        <g transform="translate(89 -4) translate(.598 .214) translate(131.673 72.988)"/>
                        <g fill="url(#wvksbmswtS)" transform="translate(89 -4) translate(.598 .214) translate(82.243 58.475)">
                            <path d="M60.012 20.677L60.012 38.219 55.513 41.078 47.3 41.078 47.3 31.129 46.622 28.099 43.938 28.087 43.938 24.583 37.395 24.583 37.395 28.087 35.721 28.087 34.181 31.482 34.181 55.77 18.936 67.497 0.018 90.442 3.564 90.442 0.583 124.285 372.999 123.87 371.169 85.184 373.028 85.184 364.076 71.321 339.416 70.232 339.416 29.003 330.606 23.52 329.847 1.967 329.577 1.967 330.064 23.463 307.84 24.583 307.454 31.484 305.92 33.079 305.475 48.725 285.473 78.318 267.523 78.318 267.523 74.364 266.798 73.459 266.502 64.274 265.733 61.497 264.493 63.919 264.493 73.427 263.783 73.904 263.783 78.123 256.737 91.494 258.346 91.494 256.737 108.459 253.273 111.78 244.694 110.24 222.536 106.861 213.506 103.12 213.857 60.914 202.544 41.078 197.419 41.078 196.645 30.243 195.47 28.825 195.47 0.112 194.783 0.112 194.783 28.47 170.239 44.448 167.706 44.195 148.009 61.09 150.369 60.914 149.297 96.096 147.414 96.998 135.978 106.937 133.598 101.929 132.023 35.619 120.347 29.475 80.298 32.783 80.186 38.455 77.899 41.078 72.271 41.078 72.271 20.677z"/>
                        </g>
                        <g fill="#679359">
                            <path d="M15.037 76.125L13.283 72.482 13.283 7.152 0 0 0.571 80.238z" transform="translate(89 -4) translate(.598 .214) translate(202.558 87.922)"/>
                        </g>
                        <g fill="#679359">
                            <path d="M0 0L0 84.694 7.497 93.391 5.613 0z" transform="translate(89 -4) translate(.598 .214) translate(154.39 99.491)"/>
                        </g>
                        <g fill="#679359">
                            <path d="M0.143 2.849L0 87.081 4.838 87.081 4.729 0z" transform="translate(89 -4) translate(.598 .214) translate(137.142 96.967)"/>
                        </g>
                        <g fill="#679359">
                            <path d="M0 79.472L1.889 79.754 2.424 0.252 0 0z" transform="translate(89 -4) translate(.598 .214) translate(250.095 102.646)"/>
                        </g>
                        <g transform="translate(89 -4) translate(.598 .214) translate(256.405 100.753)">
                            <mask id="ghai9khjgU" fill="#fff">
                                <use xlink:href="#prb2hmvknT"/>
                            </mask>
                            <path fill="#679359" d="M0.524 1.021L0.186 78.502 1.483 78.952 1.483 0.019z" mask="url(#ghai9khjgU)"/>
                        </g>
                        <g transform="translate(89 -4) translate(.598 .214) translate(261.243 97.808)">
                            <mask id="mzx0pvyyrW" fill="#fff">
                                <use xlink:href="#g9g4pdlmiV"/>
                            </mask>
                            <path fill="#679359" d="M0.338 1.084L0 78.6 1.297 79.049 1.297 0.082z" mask="url(#mzx0pvyyrW)"/>
                        </g>
                        <g transform="translate(89 -4) translate(.598 .214) translate(266.291 95.074)">
                            <mask id="zzp9u6uiwY" fill="#fff">
                                <use xlink:href="#0d3c3owucX"/>
                            </mask>
                            <path fill="#679359" d="M0.469 1.066L0.132 78.582 1.428 79.032 1.428 0.064z" mask="url(#zzp9u6uiwY)"/>
                        </g>
                        <g transform="translate(89 -4) translate(.598 .214) translate(35.968 154.81)"/>
                        <g transform="translate(89 -4) translate(.598 .214) translate(56.792 150.394)"/>
                    </g>
                    <g>
                        <g>
                            <g fill-rule="nonzero">
                                <g>
                                    <g>
                                        <path fill="#98C883" d="M22.9 30.236c.178.318.066.72-.252.9l-.32.175c-.585-.632-1.01-1.137-1.363-2.29-.021-.067-.046-.132-.074-.195l.358-.199c.188-.107.418-.112.612-.014.12.058.22.153.284.27l.756 1.353z" transform="translate(89 -4) matrix(-1 0 0 1 159 23) matrix(-1 0 0 1 71 0) scale(-1 1) rotate(-36 12.053 124.231)"/>
                                        <path fill="#2149FE" d="M31.51 39.198s1.002-.488 2.019-.388c.175.023.35.045.531.062-.86 1.36-2.794 1.655-2.124 3.049-.757.145-1.236.253-1.236.253-1.388.039 0 0-3.24-2.315s-3.327-5.046-4.07-7.316c.175.222.358.471.553.758 1.217 1.78 3.535 4.024 7.377 5.074l.19.823z" transform="translate(89 -4) matrix(-1 0 0 1 159 23) matrix(-1 0 0 1 71 0) scale(-1 1) rotate(-36 12.053 124.231)"/>
                                        <path fill="#2149FE" d="M44.407 40.694c-2.347.064-4.889-1.46-5.214.045-.794-.588-1.092-.861-1.092-.861-2.399.126-3.437-.956-3.437-.956-.207-.013-.407-.031-.605-.05-.198-.019-.356-.04-.531-.062-.746-.094-1.484-.24-2.21-.437-3.843-1.05-6.159-3.294-7.376-5.075-.195-.286-.379-.535-.554-.758-.406-.524-.757-.894-1.064-1.23l.32-.175c.115-.064.208-.16.268-.278.95-.53 2.65-1.692 3.6-3.603 1.389.619 3.081 1.71 3.476 3.974 0 0 2.46 1 5.318 3.83.284.277.568.575.857.89.55.203 1.045.527 1.452.949 0 0 3.138-1 5.523 2.063.523.673.932 1.244 1.269 1.734z" transform="translate(89 -4) matrix(-1 0 0 1 159 23) matrix(-1 0 0 1 71 0) scale(-1 1) rotate(-36 12.053 124.231)"/>
                                        <path fill="#2149FE" d="M43.747 39.767c-2.263-.326-4.303-1.095-5.536-2.985-.202.022-.401.06-.596.115-.406-.422-.902-.747-1.45-.95-.29-.315-.574-.613-.858-.891-1.887-1.867-3.593-2.934-4.544-3.446-1.37.228-2.955-.232-4.253-.884-.638-.324-1.14-.866-1.414-1.526-.649.65-1.385 1.207-2.186 1.655-.06.117-.153.214-.268.278l-.32.175c.306.335.657.705 1.064 1.23.175.222.358.471.554.758.022.034.05.07.074.105 3.44-1.328 7.647.719 9.733 3.735.314.534.498 1.134.538 1.752.126.012.252.023.379.032.037.037.077.071.118.104.1-.179.221-.345.36-.494 1.113-.837 2.227-.28 3.062.836.097.236.155.486.17.74.175.142.439.35.819.632.325-1.505 2.867.02 5.214-.045-.193-.28-.413-.59-.66-.926z" transform="translate(89 -4) matrix(-1 0 0 1 159 23) matrix(-1 0 0 1 71 0) scale(-1 1) rotate(-36 12.053 124.231)"/>
                                        <path fill="#D95214" d="M27.517 20.548c.04.27.053.544.039.816-2.294-3.181-4.557-3.962-4.557-3.962-.618-2.113-2.876-3.637-4.376-2.594.262-.235.492-.504.682-.8 2.67-.215 6.927.505 11.846 3.562 4.919 3.056 8.23 5.202 14.152 6.158 0 0 1.45 2.032-.298 3.715-1.748 1.683-2.753 1.968-2.54 4.353.211 2.386-1.41 3.955-2.891 3.422-1.482-.533-3.622-.78-4.268-.16-2.859-2.83-5.318-3.83-5.318-3.83-.395-2.263-2.092-3.355-3.481-3.974-.596-.268-1.136-.446-1.487-.592-.222-.098-.424-.236-.596-.409-.872-.855-1.454-2.672-.974-4.464 1.064.708 2.303 1.108 3.58 1.156-.126.17-.28.316-.454.435 0 0 2.058 2.577 5.09 4.088.157.099.262.263.286.447.4 2 .379 2.11 1.437 2.443 1.686.527 1.704-.08 1.307-1.206-.263-.759-.804-1.464-1.38-2.13-.577-.665-3.042-4.422-4.192-5.713-2.353-2.639-1.63-1.482-1.607-.76z" transform="translate(89 -4) matrix(-1 0 0 1 159 23) matrix(-1 0 0 1 71 0) scale(-1 1) rotate(-36 12.053 124.231)"/>
                                        <path fill="#F5D2BD" d="M27.035 22.945h-.07l.05.03c.006-.015.013-.021.02-.03z" style="mix-blend-mode:multiply" transform="translate(89 -4) matrix(-1 0 0 1 159 23) matrix(-1 0 0 1 71 0) scale(-1 1) rotate(-36 12.053 124.231)"/>
                                        <path fill="#D95214" d="M34.478 28.64c.086.163.16.332.224.505.396 1.126.378 1.734-1.308 1.207-1.058-.332-1.036-.444-1.437-2.444-.024-.184-.129-.347-.286-.446-3.03-1.516-5.09-4.089-5.09-4.089.166-.113.312-.251.433-.41l-.049-.03c-1.252-.059-2.465-.456-3.51-1.15-.48 1.791.102 3.608.974 4.464.172.172.374.311.596.409.351.145.891.324 1.487.591 1.389.62 3.081 1.711 3.476 3.974 0 0 2.46 1 5.318 3.83.646-.62 2.785-.371 4.268.16.473.17.996.128 1.436-.115-2.148-2.22-4.288-4.42-6.532-6.456z" transform="translate(89 -4) matrix(-1 0 0 1 159 23) matrix(-1 0 0 1 71 0) scale(-1 1) rotate(-36 12.053 124.231)"/>
                                        <path fill="#DD3A18" d="M43.484 28.83c.408-.392.92-.806 1.521-1.39 1.748-1.684.298-3.715.298-3.715-5.919-.957-9.237-3.102-14.156-6.156-4.919-3.054-9.176-3.777-11.846-3.562-.19.296-.42.565-.682.8 1.252-.871 3.03.05 3.944 1.608 1.34.372 2.548 1.069 3.952 1.769 5.835 3.01 11.073 7.72 16.97 10.645zM13.447 16.63l.63.647s-.802-.053-1.388-.934c.03-.126.062-.253.092-.398l.127-.543c-.033.45.065.749.539 1.228zM18.613 14.81c-.291.21-.533.483-.707.798 0 0-.74 2.242-3.824 1.669 0 0 2.351.011 3.526-2.55l1.005.083z" transform="translate(89 -4) matrix(-1 0 0 1 159 23) matrix(-1 0 0 1 71 0) scale(-1 1) rotate(-36 12.053 124.231)"/>
                                        <path fill="#C1936C" d="M16.03 13.118c.218.098.206.416-.15.506-.356.09-.415-.196-.415-.196.12.005.238-.023.342-.08.095-.053.173-.133.223-.23z" transform="translate(89 -4) matrix(-1 0 0 1 159 23) matrix(-1 0 0 1 71 0) scale(-1 1) rotate(-36 12.053 124.231)"/>
                                        <path fill="#472A18" d="M17.608 14.727c-.323-.028-.713-.062-1.15-.097-.395-.034-.912-.52-.912-.52.656.046 1.704-.83.587-1.301-.145-.017-.282-.077-.393-.172 0 0 3.067-.97 2.058-2.61.561.812 1.01 1.83 1.748 2.442.067.056.126.106.19.15 0 .05.055.632-.433 1.39-.19.297-.419.566-.681.8l-1.014-.082z" transform="translate(89 -4) matrix(-1 0 0 1 159 23) matrix(-1 0 0 1 71 0) scale(-1 1) rotate(-36 12.053 124.231)"/>
                                        <path fill="#78402A" d="M20.172 11.463c.067.702.454 1.333 1.05 1.709 0 0-.346.34-1.492-.549-.062-.044-.126-.095-.19-.15-.74-.613-1.186-1.63-1.747-2.441-.048-.083-.103-.16-.166-.232l-.06-.072c-.38-.47-.813-.827-1.423-.928 0 0-.162-2.97 1.641-1.959 1.802 1.012 2.268 3.43 2.387 4.622z" transform="translate(89 -4) matrix(-1 0 0 1 159 23) matrix(-1 0 0 1 71 0) scale(-1 1) rotate(-36 12.053 124.231)"/>
                                        <path fill="#FFF" d="M14.117 10.101c.168.338.228.719.173 1.092 0 0-.273 0-.73-.777 0 0 .05-.382.557-.315z" transform="translate(89 -4) matrix(-1 0 0 1 159 23) matrix(-1 0 0 1 71 0) scale(-1 1) rotate(-36 12.053 124.231)"/>
                                        <path fill="#EBCAB2" d="M15.885 13.626c.356-.092.368-.41.15-.505-.05.098-.127.178-.223.231-.104.058-.223.086-.342.081 0 0 .062.284.415.193zm.253-.817c1.117.471.07 1.347-.587 1.301 0 0 .517.486.912.52.437.035.827.07 1.15.097-1.175 2.561-3.526 2.55-3.526 2.55l-.632-.647c-.473-.479-.57-.777-.537-1.228v-.02c.011-.15.036-.318.07-.516-.273-.176-.632-.396-1.052-.632-.57-.322-.793-.413-1.127-.705-.553-.483-.632-.83-.632-1.041 0-.049.002-.098.01-.147.064-.177.171-.335.311-.462.114-.086.233-.165.357-.235.126-.08.222-.135.235-.142.155-.09.442-.269 1.01-.66-.078-.145-.145-.295-.2-.45-.02-.075-.033-.152-.035-.229-.012-.057-.012-.116 0-.173.06-.167.318-.207.355-.214.106-.01.213-.004.318.016.126.011.24.02.36.034.172.019.49-.043 1.123-.38l.491.079-.491-.078c.174-.182.374-.337.594-.459.313-.166.657-.264 1.01-.288.11 0 .221.009.33.029.087.018.183.048.183.048l.024.008c.77.462 1.311.836 1.403.94.032.036.06.073.06.073.058.076.113.153.166.231 1.01 1.643-2.052 2.606-2.052 2.606.11.096.248.156.394.174h.005z" transform="translate(89 -4) matrix(-1 0 0 1 159 23) matrix(-1 0 0 1 71 0) scale(-1 1) rotate(-36 12.053 124.231)"/>
                                        <path fill="#F1F1F0" d="M11.77 10.929c.035.021.062.055.074.096.038.078.07.159.093.242.019.098.133.311.563.83-.18-.106-.352-.22-.519-.344-.08-.056-.156-.116-.23-.18-.148-.127-.28-.273-.39-.433.074-.074.159-.136.252-.185.075-.031.118-.043.156-.026z" transform="translate(89 -4) matrix(-1 0 0 1 159 23) matrix(-1 0 0 1 71 0) scale(-1 1) rotate(-36 12.053 124.231)"/>
                                        <path fill="#2149FE" d="M23.455 21.789c-.48 1.792.102 3.609.974 4.464-.63 1.162-1.767 1.934-2.572 2.36-.193-.098-.423-.093-.612.014l-.357.199c-.835-1.935-4.989-3.674-5.453-6.034-.445-.271-.827-.633-1.122-1.062l-.696-1.023-.973-2.177c-.253-.786-.164-1.276.048-2.184.587.884 1.388.933 1.388.933 3.084.574 3.825-1.669 3.825-1.669.174-.314.415-.587.707-.797 1.5-1.043 3.757.481 4.376 2.594 0 0 2.263.78 4.557 3.962-.026.483-.142 1.093-.515 1.581-1.276-.05-2.513-.452-3.575-1.161z" transform="translate(89 -4) matrix(-1 0 0 1 159 23) matrix(-1 0 0 1 71 0) scale(-1 1) rotate(-36 12.053 124.231)"/>
                                        <path fill="#2149FE" d="M27.035 22.945c.378-.488.49-1.098.515-1.58-.014-.02-.03-.039-.043-.059-1.714.73-5.146-.398-4.616-3.381-.654.833-1.767 1.377-3.061 1.377-1.98-.22-2.564-1.658-2.176-3.213-.179.266-.401.499-.658.689.631 2.009 1.276 3.891.884 5.59-.296.885-1.22.674-2.336.415-.075.264.201.84.341 1.054 1.342.364 2.89-.586 3.944.204.913 1.098 2.068 3.158 1.885 4.522.05.01.097.028.142.05.801-.426 1.942-1.198 2.572-2.36-.872-.855-1.454-2.672-.974-4.464 1.064.708 2.303 1.109 3.58 1.156z" transform="translate(89 -4) matrix(-1 0 0 1 159 23) matrix(-1 0 0 1 71 0) scale(-1 1) rotate(-36 12.053 124.231)"/>
                                        <path fill="#BFD7DA" d="M23.393 17.58c-.08-.04-.154-.075-.212-.1-.015.03-.033.057-.05.086.088-.008.176-.004.262.014z" style="mix-blend-mode:multiply" transform="translate(89 -4) matrix(-1 0 0 1 159 23) matrix(-1 0 0 1 71 0) scale(-1 1) rotate(-36 12.053 124.231)"/>
                                        <path fill="#3555A2" d="M12.909 15.402c-.044.197-.086.379-.126.543-.312-.636-.596-1.207-.855-1.715.33.243.682.455 1.052.632-.033.199-.058.365-.07.516-.002.008-.002.016-.001.024zM11.831 8.973l.96.843-.169-.026c-.1-.014-.201-.023-.303-.026-.074-.005-.15.003-.222.024l-.054.02-.02.009c-.02.009-.038.02-.056.031-.03.021-.057.046-.08.074-.01.011-.017.023-.023.036-.012.024-.02.05-.023.076-.004.035-.004.07 0 .104.01.064.024.127.042.19l.086.24c.041.099.094.191.159.276-.09.07-.187.13-.29.18-.038.016-.075.035-.11.055-.036.022-.062.04-.093.06-.03.02-.063.042-.11.08-.049.038-.041.037-.068.055-.026.017-.055.033-.1.067l-.017.014c-.029.02-.06.039-.09.055-.055.03-.107.062-.16.092-.053.03-.126.074-.235.142-.051.03-.126.076-.214.134l-.239-.42-.232-.41c.559-.237 1.297-.775 1.661-1.975z" transform="translate(89 -4) matrix(-1 0 0 1 159 23) matrix(-1 0 0 1 71 0) scale(-1 1) rotate(-36 12.053 124.231)"/>
                                        <path fill="#98C883" d="M39.193 40.742c.12.09.252.187.395.29-2.342-.064-5.818.533-7.653.884-.67-1.39 1.262-1.69 2.124-3.05.198.02.398.038.605.051 0 0 1.044 1.08 3.437.956 0 0 .298.273 1.092.861v.008z" transform="translate(89 -4) matrix(-1 0 0 1 159 23) matrix(-1 0 0 1 71 0) scale(-1 1) rotate(-36 12.053 124.231)"/>
                                        <path fill="#98C883" d="M48.953 44.478c.758 1.098 3.352 3.106 3.005 3.56 0 0-.344.342-2.718-.58-2.374-.923-3.21-2.148-6.646-4.376-1.336-.865-2.313-1.544-3.006-2.048-.144-.103-.276-.2-.395-.29.325-1.504 2.867.02 5.214-.045 1.196 1.742 1.434 2.425 2.355 2.743 1.18.404 1.432-.067 2.191 1.036zM25.025 26.662c.351.146.891.324 1.487.592-.95 1.911-2.65 3.074-3.6 3.603.098-.196.094-.428-.011-.621l-.758-1.352c-.063-.118-.163-.213-.284-.27.802-.427 1.943-1.199 2.573-2.361.17.172.372.311.593.41zM27.55 21.364c.014-.272.001-.546-.04-.816-.016-.721-.74-1.878 1.619.758 1.15 1.288 3.619 5.054 4.192 5.714.573.66 1.117 1.37 1.38 2.129.397 1.126.38 1.734-1.307 1.207-1.058-.333-1.036-.444-1.437-2.444-.024-.184-.129-.348-.286-.446-3.03-1.516-5.09-4.089-5.09-4.089.175-.118.328-.265.454-.435.373-.485.49-1.095.515-1.578z" transform="translate(89 -4) matrix(-1 0 0 1 159 23) matrix(-1 0 0 1 71 0) scale(-1 1) rotate(-36 12.053 124.231)"/>
                                        <path fill="#98C883" d="M11.509 9.126c-.023.089-.046.176-.071.253-.364 1.212-1.103 1.75-1.658 1.985-.226.103-.468.167-.716.19-1.468-1.43-4.511-4.813-5.093-5.452-.583-.639-1.863-1.019-2.102-1.433C1.23 3.545.18 2.044.573 2.222c.719.323 1.01 1.136 1.602 1.417.591.282.663-.62-.402-1.706C.708.847.908-.311.908-.311 1.95.615 3.234 1.284 3.862 2.213c.628.93 1.272 2.65 1.272 2.65C8.44 6.627 11.51 9.127 11.51 9.127z" transform="translate(89 -4) matrix(-1 0 0 1 159 23) matrix(-1 0 0 1 71 0) scale(-1 1) rotate(-36 12.053 124.231) matrix(0 1 1 0 .377 -.377)"/>
                                        <path fill="#1B3EE0" d="M31.956 41.963c-.411.082-.823.166-1.232.259h-.009c-.132 0-.265.008-.4.008-.146.015-.291-.026-.409-.113-.093-.099-.181-.202-.264-.31-.083-.101-.17-.198-.26-.293-.372-.375-.77-.722-1.192-1.039-.416-.326-.86-.611-1.279-.947-.42-.332-.806-.706-1.151-1.116-.687-.824-1.209-1.773-1.539-2.794-.346-1.01-.539-2.058-.858-3.066l.078-.027c.586.938.933 1.974 1.37 2.887.107.232.22.456.342.673.12.216.233.433.363.638.26.406.55.793.866 1.157.326.358.673.695 1.04 1.01.094.08.192.16.283.232l.154.116.154.127c.21.172.421.347.631.528.427.366.819.771 1.17 1.21.091.114.172.238.253.36.06.093.116.19.166.289 0 .006-.053-.007-.031.01.04.019.082.032.126.04.116.023.252.04.379.06l-.059.007c.216-.014.43-.014.645-.013.215.002.433.013.65.022l.013.085z" transform="translate(89 -4) matrix(-1 0 0 1 159 23) matrix(-1 0 0 1 71 0) scale(-1 1) rotate(-36 12.053 124.231)"/>
                                        <path fill="#7FBA6D" d="M39.6 41.053c-1.285 0-2.568.096-3.84.285-1.274.16-2.544.367-3.808.603l-.007-.04c.6-.256 1.22-.462 1.854-.614.63-.156 1.266-.277 1.909-.363.644-.084 1.293-.126 1.943-.126.657-.007 1.311.065 1.95.214v.04z" transform="translate(89 -4) matrix(-1 0 0 1 159 23) matrix(-1 0 0 1 71 0) scale(-1 1) rotate(-36 12.053 124.231)"/>
                                        <path fill="#E0C5AD" d="M31.935 41.93c-.15-.125-.258-.291-.313-.478-.055-.21-.04-.43.04-.632.164-.41.467-.654.73-.872.262-.217.55-.379.825-.545.275-.167.54-.335.843-.536l.036.023c-.18.285-.403.54-.66.758-.253.223-.526.422-.79.632-.263.21-.53.411-.69.697-.15.297-.143.648.017.94l-.038.013z" transform="translate(89 -4) matrix(-1 0 0 1 159 23) matrix(-1 0 0 1 71 0) scale(-1 1) rotate(-36 12.053 124.231)"/>
                                        <path fill="#98C883" d="M31.935 41.927c-.078-.151-.126-.316-.142-.485-.011-.172.026-.344.108-.495.164-.304.436-.52.698-.728.532-.4 1.098-.785 1.46-1.353l.024.015c-.11.336-.297.64-.547.89-.238.243-.495.466-.768.669-.252.172-.479.377-.674.61-.166.216-.196.518-.134.865l-.025.012z" transform="translate(89 -4) matrix(-1 0 0 1 159 23) matrix(-1 0 0 1 71 0) scale(-1 1) rotate(-36 12.053 124.231)"/>
                                        <path fill="#E0C5AD" d="M31.36 38.367c.076.272.143.547.209.822l-.069-.033c.317-.152.652-.261.998-.326.343-.073.697-.088 1.046-.045l-.006.055c-.159.107-.323.204-.493.29-.152.078-.296.149-.443.207-.144.058-.292.108-.443.149-.147.044-.297.078-.449.101l-.631.082.024-.379.014-.22c.006-.075.018-.15.034-.225.015-.078.035-.155.058-.23.027-.083.06-.163.098-.24l.053-.008z" style="mix-blend-mode:multiply" transform="translate(89 -4) matrix(-1 0 0 1 159 23) matrix(-1 0 0 1 71 0) scale(-1 1) rotate(-36 12.053 124.231)"/>
                                        <path fill="#E0C5AD" d="M12.722 16.33c.16.237.362.441.596.603.232.163.5.268.78.307.738.127 1.515.127 2.222-.126.352-.132.674-.334.946-.594.274-.259.49-.573.631-.922l.04.013c-.05.408-.216.793-.479 1.107-.267.33-.609.59-.997.758-.386.167-.802.255-1.222.26-.406.01-.811-.04-1.203-.15h.035c-.173-.033-.34-.093-.496-.178-.142-.078-.274-.174-.393-.284-.115-.108-.217-.23-.302-.361-.082-.13-.147-.27-.194-.415l.036-.018z" transform="translate(89 -4) matrix(-1 0 0 1 159 23) matrix(-1 0 0 1 71 0) scale(-1 1) rotate(-36 12.053 124.231)"/>
                                        <path fill="#DD3A18" d="M12.706 16.343c.18.22.395.409.638.556.12.073.247.132.38.177.123.047.253.076.385.087h.014c.365.058.735.08 1.105.067.364-.014.725-.083 1.069-.203.7-.254 1.28-.76 1.627-1.42-.106.374-.301.717-.568 1-.271.289-.601.515-.968.663-.367.147-.758.226-1.153.235-.388.01-.777-.028-1.156-.114h.013c-.154-.025-.304-.071-.445-.138-.135-.064-.262-.143-.378-.236-.233-.183-.424-.413-.563-.674z" transform="translate(89 -4) matrix(-1 0 0 1 159 23) matrix(-1 0 0 1 71 0) scale(-1 1) rotate(-36 12.053 124.231)"/>
                                        <g fill="#7FBA6D">
                                            <path d="M.1 2.571c-.041-.01-.056 0-.044 0 .006.029.015.057.03.082.03.058.065.113.103.166.072.111.149.221.228.33l.486.642.466.665.228.345c.015.026.032.05.05.074.03.041.013.011.036.035.04.033.082.063.126.089.408.236.928.45 1.418.758.128.079.25.168.363.266.062.052.12.107.175.165l.141.151.55.594c.71.794 1.428 1.596 2.108 2.429l1.033 1.243c.328.43.676.84 1.01 1.274l-.03.03c-.77-.758-1.514-1.54-2.245-2.328L4.141 7.202l-.542-.601c-.17-.205-.372-.382-.595-.527-.444-.302-.945-.506-1.389-.82-.116-.078-.21-.184-.274-.309l-.204-.347-.422-.691-.418-.693C.23 3.098.163 2.981.102 2.86.07 2.8.042 2.736.02 2.671.004 2.637-.002 2.6 0 2.561c.005-.027.03-.047.057-.043.02 0 .038.003.056.01l-.014.043z" transform="translate(89 -4) matrix(-1 0 0 1 159 23) matrix(-1 0 0 1 71 0) scale(-1 1) rotate(-36 12.053 124.231) matrix(0 1 1 0 .038 .029)"/>
                                            <path d="M2.064 3.975c-.026.063-.08.11-.147.126-.067.018-.136.022-.205.013-.026 0-.07-.016-.093-.021-.03-.007-.058-.016-.086-.027-.058-.021-.113-.048-.167-.078-.192-.12-.362-.27-.504-.445-.136-.166-.253-.326-.372-.489-.118-.163-.237-.313-.39-.489l.012-.025c.396.17.683.505.955.824.13.164.275.316.434.452.081.065.171.12.267.16.09.05.2.042.281-.022l.015.021zM.463.019c.097.344.231.676.399.992.078.146.166.287.26.423.09.138.19.27.3.393.053.066.1.126.165.193.068.073.132.149.192.228.123.161.229.336.314.52.093.19.153.395.18.604.011.11.006.22-.017.328-.016.114-.082.216-.179.279l-.03-.03c.11-.136.065-.344.015-.51-.059-.175-.14-.34-.241-.494-.21-.304-.448-.588-.712-.846-.244-.289-.434-.62-.558-.977C.426.767.381.388.421.012L.463.02z" transform="translate(89 -4) matrix(-1 0 0 1 159 23) matrix(-1 0 0 1 71 0) scale(-1 1) rotate(-36 12.053 124.231) matrix(0 1 1 0 .038 .029)"/>
                                            <path d="M11.017 9.477l-1.63-1.011c-.533-.35-1.072-.687-1.619-1.011-.544-.331-1.083-.666-1.63-.986-.548-.32-1.097-.631-1.649-.938l-.126-.07-.047-.126c-.19-.522-.415-1.043-.63-1.553-.114-.253-.234-.506-.366-.746-.117-.236-.26-.46-.424-.667-.337-.414-.777-.772-1.209-1.137C1.242.859.821.458.427.032L.455 0c.43.38.89.71 1.35 1.047.473.325.913.693 1.315 1.101.393.425.648.948.903 1.457.255.51.474 1.041.68 1.576l-.02-.022c1.124.612 2.216 1.282 3.27 2.008 1.058.721 2.09 1.478 3.087 2.282l-.023.028z" transform="translate(89 -4) matrix(-1 0 0 1 159 23) matrix(-1 0 0 1 71 0) scale(-1 1) rotate(-36 12.053 124.231) matrix(0 1 1 0 .038 .029)"/>
                                        </g>
                                        <path fill="#DA3919" d="M38.608 21.71c2.143.948 4.4 1.614 6.714 1.978l-.013.082c-2.388-.085-4.743-.578-6.965-1.46-1.112-.437-2.195-.944-3.245-1.516-1.045-.566-2.054-1.18-3.06-1.789l-1.481-.935c-.485-.303-.981-.586-1.48-.866-.995-.562-2.022-1.066-3.076-1.508-2.113-.865-4.336-1.516-6.69-1.642v-.084c1.175-.081 2.355-.016 3.513.196 1.16.204 2.3.509 3.408.911 1.106.4 2.182.877 3.221 1.427" transform="translate(89 -4) matrix(-1 0 0 1 159 23) matrix(-1 0 0 1 71 0) scale(-1 1) rotate(-36 12.053 124.231)"/>
                                        <path fill="#E0C5AD" d="M19.252 18.702c.27.193.562.357.868.488.302.136.622.229.95.275h.028l.02.026c.352.471.751.907 1.19 1.3.438.395.91.75 1.41 1.06 1.004.627 2.15.99 3.332 1.052v.085c-.614.203-1.266.257-1.905.16-.32-.051-.636-.127-.945-.226-.305-.108-.602-.235-.891-.379-.567-.305-1.088-.691-1.545-1.145-.465-.452-.856-.973-1.16-1.546l.386.236c-.193-.049-.38-.12-.556-.215-.17-.084-.331-.185-.482-.3-.147-.111-.285-.235-.411-.37-.128-.131-.241-.276-.339-.431l.05-.07zM13.001 14.863c-.016.235-.019.47-.008.704.02.219.102.427.237.6.145.178.305.342.48.49l.504.506-.126-.052c.359-.03.712-.108 1.051-.231.346-.122.674-.292.972-.505.305-.21.583-.457.827-.736.248-.284.47-.591.664-.916l.02.009c-.309.706-.792 1.321-1.405 1.788-.31.228-.649.412-1.01.546-.36.136-.739.215-1.123.232h-.007l-.498-.505c-.173-.164-.33-.344-.468-.537-.14-.198-.214-.434-.212-.676.008-.238.034-.475.078-.709l.024-.008z" transform="translate(89 -4) matrix(-1 0 0 1 159 23) matrix(-1 0 0 1 71 0) scale(-1 1) rotate(-36 12.053 124.231)"/>
                                        <path fill="#DD3A18" d="M13.001 14.863c-.043.233-.069.469-.076.705 0 .238.074.469.211.663.14.191.297.37.47.532l.498.505h-.009c.38-.02.756-.098 1.112-.233.358-.13.696-.311 1.003-.537.61-.46 1.094-1.069 1.405-1.768h.012c-.135.362-.316.705-.538 1.022-.227.318-.499.601-.807.841-.314.237-.66.428-1.028.569-.37.142-.762.221-1.159.232h-.048l-.034-.035-.492-.513c-.17-.173-.325-.362-.46-.564-.142-.21-.21-.46-.195-.712.023-.24.065-.477.126-.71l.01.003z" transform="translate(89 -4) matrix(-1 0 0 1 159 23) matrix(-1 0 0 1 71 0) scale(-1 1) rotate(-36 12.053 124.231)"/>
                                        <path fill="#E2C9C7" d="M15.4 22.71l.066.04c.399.232.846.367 1.307.395.461.029.925 0 1.38-.086l.01.055c-.45.187-.927.296-1.412.324-.385.018-.77-.034-1.136-.154l-.216-.574z" style="mix-blend-mode:multiply" transform="translate(89 -4) matrix(-1 0 0 1 159 23) matrix(-1 0 0 1 71 0) scale(-1 1) rotate(-36 12.053 124.231)"/>
                                        <path fill="#DD3A18" d="M12.677 16.33l.22-.955.055.013c0 .422-.037.841-.07 1.25l-.205-.309z" transform="translate(89 -4) matrix(-1 0 0 1 159 23) matrix(-1 0 0 1 71 0) scale(-1 1) rotate(-36 12.053 124.231)"/>
                                        <path fill="#E0C5AD" d="M26.584 23.362c.136-.215.25-.444.337-.682.042-.109.077-.22.105-.333.032-.11.057-.222.076-.336.044-.23.077-.462.098-.696.021-.234.038-.488.05-.716v-.109l-.01.066c.01-.058.02-.127.026-.195.006-.068 0-.145.015-.222.015-.077.01-.157.025-.24.007-.043.016-.085.028-.127.016-.039.033-.103.096-.126l.016.038c-.034.029-.018.126-.007.19.01.065.03.146.046.22.036.147.06.298.068.45.04.261.056.526.046.79-.007.264-.046.527-.116.782-.069.257-.178.501-.322.724-.145.223-.335.413-.558.557l-.019-.035z" transform="translate(89 -4) matrix(-1 0 0 1 159 23) matrix(-1 0 0 1 71 0) scale(-1 1) rotate(-36 12.053 124.231)"/>
                                        <path fill="#E0C5AD" d="M36.408 34.841c-.303-.34-.616-.674-.95-.99-.491-.467-1.004-.914-1.537-1.341-.531-.431-1.09-.828-1.673-1.186-.293-.181-.591-.356-.898-.52-.154-.082-.309-.163-.468-.241l-.042-.02c-.303-1.042-.904-1.972-1.728-2.678-.45-.39-.951-.715-1.49-.966-.507-.242-1.03-.448-1.567-.616-.252-.084-.517-.15-.745-.22-.042-.014-.085-.029-.126-.046-.035-.014-.07-.03-.103-.047-.084-.047-.163-.101-.238-.162-.336-.303-.611-.668-.809-1.076-.438-.912-.612-1.928-.505-2.934l-.107-.03c-.278 1.036-.234 2.132.126 3.142.174.51.453.978.82 1.373.188.198.415.356.666.464.246.1.494.188.737.284.973.38 1.925.843 2.685 1.55.768.702 1.277 1.641 1.445 2.668l.009.053.053.024c.588.268 1.155.58 1.697.933.545.35 1.075.723 1.589 1.12.704.546 1.376 1.133 2.012 1.758.138-.091.284-.168.438-.23.235-.034.472-.056.71-.066z" style="mix-blend-mode:multiply" transform="translate(89 -4) matrix(-1 0 0 1 159 23) matrix(-1 0 0 1 71 0) scale(-1 1) rotate(-36 12.053 124.231)"/>
                                        <path fill="#3555A2" d="M24.457 26.191c-.356-.379-.629-.828-.801-1.318-.36-.986-.412-2.06-.147-3.075l-.08-.022c-.4 1.033-.447 2.168-.137 3.231.153.567.432 1.092.817 1.535.029.033.058.065.088.095l.26-.446z" transform="translate(89 -4) matrix(-1 0 0 1 159 23) matrix(-1 0 0 1 71 0) scale(-1 1) rotate(-36 12.053 124.231)"/>
                                        <path fill="#7FBA6D" d="M26.564 27.204c-.246-.11-.495-.21-.744-.304l-.736-.28c-.237-.098-.452-.244-.63-.429l-.266.446c.08.082.164.16.253.231.069.054.14.102.216.147.068.042.14.08.213.115.252.119.492.224.73.326.215.09.427.188.63.29l.334-.542zM48.3 43.819c-.217-.022-.435-.017-.65.014-.233.016-.467.006-.697-.03-.118-.016-.235-.041-.349-.075-.375-.106-.712-.32-.968-.614-.294-.353-.541-.743-.736-1.159-.202-.4-.368-.817-.496-1.247l.034-.024c.253.36.495.725.738 1.092.231.37.488.725.77 1.06.141.162.307.301.492.412.19.105.392.185.602.24.21.057.424.1.64.126.221.016.438.073.639.168l-.02.037z" transform="translate(89 -4) matrix(-1 0 0 1 159 23) matrix(-1 0 0 1 71 0) scale(-1 1) rotate(-36 12.053 124.231)"/>
                                        <path fill="#7FBA6D" d="M51.959 48.029c.039-.106-.04-.202-.1-.29-.07-.092-.15-.176-.235-.254-.164-.163-.34-.317-.513-.475-.351-.312-.698-.631-1.04-.962-.347-.334-.668-.694-.961-1.076-.14-.197-.27-.402-.388-.614-.106-.206-.248-.392-.42-.548l.014-.025c.206.124.384.288.524.483.135.195.28.383.434.563.312.355.653.686.99 1.018.34.332.677.665 1.01 1.011.164.173.325.349.472.537.074.093.141.192.199.297.05.1.119.235.042.35l-.028-.015z" transform="translate(89 -4) matrix(-1 0 0 1 159 23) matrix(-1 0 0 1 71 0) scale(-1 1) rotate(-36 12.053 124.231)"/>
                                        <path fill="#7FBA6D" d="M39.218 40.726c.548.305 1.074.631 1.618.938.544.307 1.064.642 1.6.953.537.31 1.072.65 1.596.992.524.342 1.027.721 1.529 1.094.995.758 1.935 1.54 2.99 2.124.537.292 1.093.548 1.663.767.282.122.57.228.863.319.145.044.293.08.443.106.142.037.292.037.435 0l.03.029c-.147.067-.311.089-.472.064-.156-.013-.31-.035-.464-.067-.305-.065-.606-.146-.903-.244-.594-.189-1.175-.418-1.738-.686-1.13-.544-2.105-1.338-3.099-2.082-.993-.744-2.004-1.472-3.05-2.148-1.047-.676-2.068-1.39-3.065-2.132l.024-.027z" transform="translate(89 -4) matrix(-1 0 0 1 159 23) matrix(-1 0 0 1 71 0) scale(-1 1) rotate(-36 12.053 124.231)"/>
                                        <path fill="#E0C5AD" d="M23.956 34.54l.058.071c.365.453.766.876 1.2 1.264.857.778 1.813 1.44 2.844 1.966 1.086.546 2.238.95 3.427 1.2l-.194-.745c-.995-.276-1.956-.66-2.867-1.146-1.444-.768-2.726-1.81-3.774-3.066-.356-.412-.647-.868-.977-1.312-.093-.127-.189-.253-.286-.373l.57 2.14zM31.766 39.097c.905.174 1.824.267 2.746.278l.07.05c.075.05.15.096.226.14.148.082.302.156.459.22.31.124.63.215.96.27.61.104 1.234.11 1.847.02.17.126.338.235.513.342.2.127.399.245.6.363l.05-.067c-.369-.278-.74-.56-1.083-.864l-.015-.013h-.02c-.606.036-1.215-.018-1.807-.16-.293-.07-.578-.172-.85-.301-.273-.124-.524-.288-.747-.488l-.016-.015h-.02c-.323-.023-.647-.054-.972-.092l-1.941.317z" style="mix-blend-mode:multiply" transform="translate(89 -4) matrix(-1 0 0 1 159 23) matrix(-1 0 0 1 71 0) scale(-1 1) rotate(-36 12.053 124.231)"/>
                                        <path fill="#7FBA6D" d="M20.842 28.856c.094.226.155.485.253.721.1.259.224.508.367.746.233.364.502.705.801 1.017l.638-.447c-.301-.292-.574-.611-.814-.954-.13-.201-.24-.412-.334-.632-.046-.111-.095-.229-.14-.342l-.073-.2c-.028-.073-.058-.144-.09-.212l-.608.303z" transform="translate(89 -4) matrix(-1 0 0 1 159 23) matrix(-1 0 0 1 71 0) scale(-1 1) rotate(-36 12.053 124.231)"/>
                                        <path fill="#E0C5AD" d="M39.185 40.736c-.032-.281.09-.557.32-.722.234-.15.505-.232.783-.237.488-.012.975.042 1.45.159.456.108.9.223 1.338.354l1.345.379v.041c-.94.03-1.866-.178-2.777-.379-.45-.115-.91-.194-1.372-.236-.229-.022-.459.014-.67.105-.201.11-.34.307-.378.534l-.039.002z" transform="translate(89 -4) matrix(-1 0 0 1 159 23) matrix(-1 0 0 1 71 0) scale(-1 1) rotate(-36 12.053 124.231)"/>
                                        <path fill="#7FBA6D" d="M39.191 40.738c.038-.24.184-.448.395-.566.217-.097.455-.138.692-.119.468.036.933.11 1.389.223.907.206 1.823.423 2.758.405v.028c-.234.051-.472.082-.711.092-.239 0-.477-.009-.715-.026-.467-.045-.93-.121-1.388-.228-.453-.102-.9-.216-1.333-.274-.205-.034-.415-.024-.616.03-.203.075-.363.237-.434.441l-.037-.006z" transform="translate(89 -4) matrix(-1 0 0 1 159 23) matrix(-1 0 0 1 71 0) scale(-1 1) rotate(-36 12.053 124.231)"/>
                                        <path fill="#E2C9C7" d="M21.863 28.6c.215-.224.436-.418.654-.607.218-.19.437-.38.646-.565.21-.186.422-.379.631-.571l.632-.613.025.013c-.283.521-.655.989-1.1 1.38-.45.386-.943.717-1.47.989l-.018-.025z" transform="translate(89 -4) matrix(-1 0 0 1 159 23) matrix(-1 0 0 1 71 0) scale(-1 1) rotate(-36 12.053 124.231)"/>
                                        <path fill="#7FBA6D" d="M21.866 28.604c.52-.277 1.006-.614 1.449-1.003.45-.382.829-.84 1.118-1.356l.018.01c-.16.592-.547 1.1-.997 1.503-.454.405-.994.7-1.58.864l-.008-.018z" transform="translate(89 -4) matrix(-1 0 0 1 159 23) matrix(-1 0 0 1 71 0) scale(-1 1) rotate(-36 12.053 124.231)"/>
                                        <path fill="#E0C5AD" d="M22.918 30.845c.75-.423 1.441-.942 2.057-1.543.622-.594 1.14-1.288 1.532-2.055l.024.013c-.055.216-.128.427-.216.632-.094.198-.203.391-.317.582-.236.376-.516.723-.834 1.033-.629.624-1.395 1.092-2.237 1.367l-.009-.03z" transform="translate(89 -4) matrix(-1 0 0 1 159 23) matrix(-1 0 0 1 71 0) scale(-1 1) rotate(-36 12.053 124.231)"/>
                                        <path fill="#7FBA6D" d="M22.92 30.848c.168-.141.342-.265.505-.406.162-.142.335-.263.496-.403.329-.267.644-.55.945-.85.308-.289.597-.597.866-.922.14-.16.271-.326.398-.498.126-.172.252-.343.387-.518l.02.01c-.389.774-.904 1.477-1.526 2.079-.623.598-1.322 1.112-2.079 1.529l-.012-.02z" transform="translate(89 -4) matrix(-1 0 0 1 159 23) matrix(-1 0 0 1 71 0) scale(-1 1) rotate(-36 12.053 124.231)"/>
                                        <path fill="#E0C5AD" d="M12.173 14.687c.126.073.252.142.389.21.24.127.5.218.769.267.144.026.291.026.435 0 .077-.017.152-.044.22-.082l.087-.057.077-.057c.205-.15.404-.312.603-.471l-.021-.037-.65.4c-.203.15-.466.191-.706.113-.485-.126-.914-.422-1.33-.705l-.137-.097.264.516z" style="mix-blend-mode:multiply" transform="translate(89 -4) matrix(-1 0 0 1 159 23) matrix(-1 0 0 1 71 0) scale(-1 1) rotate(-36 12.053 124.231)"/>
                                        <path fill="#E9C28D" d="M14.21 9.271l.219.17c.06-.051.126-.1.186-.146.143-.107.295-.2.455-.28.162-.081.335-.138.514-.169.186-.042.377-.055.568-.039l.011-.025" transform="translate(89 -4) matrix(-1 0 0 1 159 23) matrix(-1 0 0 1 71 0) scale(-1 1) rotate(-36 12.053 124.231)"/>
                                        <path fill="#4F3323" d="M17.592 9.717c.34.205.568.553.622.946.019.213-.02.427-.11.62-.088.182-.205.348-.347.492-.27.264-.59.471-.94.61-.172.068-.344.127-.518.179-.177.042-.358.07-.54.083l-.009-.026c.333-.114.655-.256.963-.425.31-.164.595-.371.846-.616.245-.243.44-.562.435-.913-.005-.351-.196-.67-.424-.936l.022-.014z" transform="translate(89 -4) matrix(-1 0 0 1 159 23) matrix(-1 0 0 1 71 0) scale(-1 1) rotate(-36 12.053 124.231)"/>
                                        <path fill="#593A29" d="M19.764 12.62c.019.431-.088.859-.307 1.231-.213.37-.49.7-.816.975l-.03-.03c.052-.219.127-.43.223-.633.08-.185.175-.348.252-.515.05-.078.095-.16.14-.241.043-.081.09-.162.147-.242.1-.165.21-.33.343-.54l.048-.006z" transform="translate(89 -4) matrix(-1 0 0 1 159 23) matrix(-1 0 0 1 71 0) scale(-1 1) rotate(-36 12.053 124.231)"/>
                                        <path fill="#472A18" d="M14.309 9.57c.176-.126.4-.161.607-.096.202.05.33.225.454.362.125.137.232.288.32.45.087.158.156.324.207.496l-.05.027c-.133-.109-.259-.225-.378-.348-.158-.167-.193-.232-.359-.379-.096-.088-.199-.169-.308-.241-.045-.03-.08-.054-.126-.082-.09-.048-.126-.058-.228-.106-.037-.023-.085-.048-.14-.084z" transform="translate(89 -4) matrix(-1 0 0 1 159 23) matrix(-1 0 0 1 71 0) scale(-1 1) rotate(-36 12.053 124.231)"/>
                                        <path fill="#D7B6B4" d="M16.157 12.792c.156-.021.315.005.457.076.083.047.155.11.213.186.065.092.103.2.11.313.007.207-.06.41-.188.572-.108.133-.238.246-.385.333-.288.148-.631.253-1.02.101-.099-.043-.186-.11-.253-.194-.062-.082-.101-.178-.115-.28-.015-.163.033-.327.134-.456h.042c-.018.128-.006.258.037.38.041.114.135.201.252.234.249.045.505-.008.717-.146.212-.127.428-.312.448-.556.002-.123-.052-.24-.145-.319-.095-.085-.202-.154-.32-.204l.016-.04z" transform="translate(89 -4) matrix(-1 0 0 1 159 23) matrix(-1 0 0 1 71 0) scale(-1 1) rotate(-36 12.053 124.231)"/>
                                        <path fill="#C89969" d="M13.305 12.526c-.026.111-.077.215-.15.303-.062.074-.135.138-.218.187-.084.048-.175.081-.27.097-.112.022-.228.017-.337-.015l-.014-.024.48-.298.495-.274.014.024zM11.44 11.399c.002.076.029.15.078.208.04.068.089.13.146.184l-.019.02c-.067.039-.146.053-.223.04-.057-.013-.106-.049-.138-.098-.016-.029-.027-.06-.034-.091l.19-.263z" transform="translate(89 -4) matrix(-1 0 0 1 159 23) matrix(-1 0 0 1 71 0) scale(-1 1) rotate(-36 12.053 124.231)"/>
                                        <path fill="#E9C28D" d="M11.435 11.398c.017.018.036.035.056.049.014.013.028.026.043.036.027.022.04.048.065.071.025.023.033.057.041.096.014.047.02.096.02.146l-.01.01c-.063-.052-.118-.112-.164-.18-.047-.069-.07-.152-.061-.236l.01.008z" transform="translate(89 -4) matrix(-1 0 0 1 159 23) matrix(-1 0 0 1 71 0) scale(-1 1) rotate(-36 12.053 124.231)"/>
                                        <path fill="#E2C9C7" d="M20.894 28.81c.068-.067.137-.126.21-.19.037-.03.066-.056.112-.091.04-.035.085-.063.134-.085.214-.095.46-.088.669.019.11.053.205.131.278.229l.053.075.037.057.075.117.28.472.252.487.126.259c.026.054.044.112.056.171.01.06.014.12.011.18-.007.233-.114.452-.294.6-.085.058-.18.101-.28.126-.089.032-.179.058-.27.08l-.014-.024c.163-.08.317-.177.46-.29.128-.128.194-.304.183-.485 0-.182-.115-.332-.204-.492l-.271-.48-.266-.48c-.046-.079-.088-.164-.135-.237-.05-.073-.116-.135-.192-.18-.155-.094-.341-.117-.514-.066-.167.073-.329.158-.485.252l-.011-.024z" transform="translate(89 -4) matrix(-1 0 0 1 159 23) matrix(-1 0 0 1 71 0) scale(-1 1) rotate(-36 12.053 124.231)"/>
                                        <path fill="#4F3323" d="M21.249 13.187c-.126.114-.297.165-.465.136-.161-.012-.32-.045-.473-.096-.292-.109-.57-.253-.827-.43l-.19-.126c-.067-.052-.13-.105-.19-.159-.118-.107-.23-.221-.336-.341-.196-.238-.376-.488-.539-.75-.312-.514-.572-1.027-.867-1.493-.295-.466-.649-.876-1.208-1.107V8.78c.597.085 1.098.482 1.458.945.36.462.653.981.966 1.477.313.495.64.985 1.104 1.343.225.186.467.35.723.49.128.07.263.122.403.158.134.045.28.034.406-.032l.035.026z" transform="translate(89 -4) matrix(-1 0 0 1 159 23) matrix(-1 0 0 1 71 0) scale(-1 1) rotate(-36 12.053 124.231)"/>
                                        <path fill="#804D37" d="M21.254 13.192c-.137.08-.3.098-.451.05-.146-.035-.286-.088-.42-.158-.261-.138-.51-.301-.74-.487-.478-.358-.83-.853-1.142-1.35-.313-.496-.582-1.022-.94-1.483-.357-.461-.827-.85-1.408-.94l.009-.056c.324-.046.655.004.95.145.297.145.565.34.793.58.217.223.414.465.59.723.171.253.321.506.479.738.158.233.292.476.446.692.074.11.151.217.233.315l.126.14.142.152c.19.2.391.39.602.569.1.088.21.167.325.235.057.033.117.059.18.078.06.024.127.03.192.016l.034.04z" transform="translate(89 -4) matrix(-1 0 0 1 159 23) matrix(-1 0 0 1 71 0) scale(-1 1) rotate(-36 12.053 124.231)"/>
                                        <path fill="#84523D" d="M16.115 8.798c-.027-.457.016-.915.126-1.36.058-.229.167-.442.32-.622.167-.186.414-.28.662-.253.235.031.46.112.66.237.2.113.388.247.56.398.344.303.637.66.87 1.056.441.8.733 1.673.859 2.577.08.45.063.906.252 1.307.172.408.462.755.832.997l-.04.073c-.498-.134-.927-.45-1.204-.884-.145-.232-.253-.485-.321-.75-.066-.236-.107-.425-.173-.631-.133-.406-.242-.81-.405-1.187-.137-.373-.31-.732-.518-1.071-.18-.326-.408-.624-.674-.885-.063-.065-.126-.126-.197-.188l-.09-.077c-.035-.028-.089-.065-.133-.096-.108-.079-.223-.148-.343-.206-.081-.028-.081-.058-.182-.018-.134.089-.239.213-.304.36-.2.344-.329.781-.472 1.226l-.085-.003z" transform="translate(89 -4) matrix(-1 0 0 1 159 23) matrix(-1 0 0 1 71 0) scale(-1 1) rotate(-36 12.053 124.231)"/>
                                        <path fill="#E7BD84" d="M16.157 12.799c.123.047.238.115.338.2.107.088.168.219.168.357-.022.282-.253.48-.47.614-.228.143-.503.192-.767.14-.133-.04-.238-.142-.283-.273-.04-.127-.048-.261-.025-.393h.028c.02.122.063.238.127.343.048.068.125.11.208.112.2-.004.397-.063.566-.17.168-.08.305-.213.389-.38.02-.082.003-.17-.05-.238-.072-.104-.157-.2-.252-.283l.023-.03z" transform="translate(89 -4) matrix(-1 0 0 1 159 23) matrix(-1 0 0 1 71 0) scale(-1 1) rotate(-36 12.053 124.231)"/>
                                        <path fill="#E0C5AD" d="M17.896 15.592c.206-.6.664-1.08 1.253-1.312.316-.108.65-.148.982-.118.326.036.645.12.945.253.585.269 1.103.667 1.514 1.164.407.495.709 1.067.888 1.683l-.31-.329c.14.055.279.117.413.186.126.064.253.126.371.2.24.139.471.292.692.46.44.324.849.686 1.224 1.082.375.389.717.807 1.024 1.251.302.443.571.907.804 1.39l-.045.033c-.605-.857-1.298-1.647-2.07-2.357-.386-.353-.796-.678-1.227-.974-.426-.299-.885-.55-1.366-.748l-.028-.01-.007-.025c-.163-.549-.43-1.06-.784-1.509-.35-.452-.792-.825-1.297-1.094-.504-.253-1.093-.39-1.64-.245-.548.145-1 .56-1.283 1.052l-.053-.033z" transform="translate(89 -4) matrix(-1 0 0 1 159 23) matrix(-1 0 0 1 71 0) scale(-1 1) rotate(-36 12.053 124.231)"/>
                                        <path fill="#9CB9E1" d="M24.408 18.12c.432.303.842.635 1.228.994.77.72 1.46 1.518 2.06 2.384l-.045.033c-.385-.369-.741-.75-1.136-1.094-.395-.344-.772-.687-1.168-1.01-.396-.324-.808-.618-1.232-.885l-.641-.38c-.109-.058-.217-.113-.326-.165-.108-.052-.23-.102-.307-.126l-.236-.081-.078-.253c-.147-.492-.38-.953-.69-1.362-.304-.416-.687-.77-1.126-1.039-.214-.131-.445-.23-.688-.294-.238-.069-.487-.087-.732-.052-.257.032-.504.122-.72.264-.116.074-.224.159-.323.253-.107.095-.207.198-.299.308l-.048-.029c.282-.505.736-.944 1.313-1.092.577-.147 1.185-.022 1.701.238.52.27.975.648 1.337 1.108.368.456.644.979.81 1.54" transform="translate(89 -4) matrix(-1 0 0 1 159 23) matrix(-1 0 0 1 71 0) scale(-1 1) rotate(-36 12.053 124.231)"/>
                                        <path fill="#E0C5AD" d="M27.435 19.642c.094-.023.151.032.21.06.06.027.113.073.167.113.107.079.21.163.31.253.199.173.39.352.58.532l.566.546c.19.185.378.379.55.577.685.801 1.32 1.631 1.959 2.459.32.413.631.83.939 1.25.308.422.618.848.926 1.22.152.17.345.394.505.6.16.206.335.434.489.669.157.238.297.488.416.748.116.264.212.536.286.815.042.157.07.318.08.48.023.24-.035.481-.164.685-.086.124-.204.224-.34.29-.107.05-.221.083-.339.096-.173.019-.349.014-.521-.013-.284-.047-.564-.117-.837-.21-.252-.09-.54-.156-.86-.412-.15-.127-.271-.285-.355-.463-.068-.144-.121-.294-.16-.448-.075-.28-.127-.54-.171-.801l-.133-.74c-.005-.027-.013-.052-.025-.076-.01-.022-.019-.03-.016-.036-.035-.024-.071-.045-.109-.063l-.177-.101c-.915-.541-1.773-1.176-2.558-1.894-.386-.364-.753-.743-1.102-1.137-.354-.39-.68-.803-.976-1.237l.044-.036c.673.794 1.416 1.525 2.22 2.184.8.665 1.663 1.248 2.58 1.74.116.063.228.108.35.185.109.09.187.21.224.347.062.259.106.513.16.768.054.255.106.505.178.758s.165.493.361.647c.21.142.445.246.692.308.244.08.495.141.75.18.125.02.252.024.378.01.117-.005.225-.061.297-.153.12-.196.058-.475 0-.717-.238-1.01-.894-1.856-1.57-2.64-.632-.833-1.21-1.7-1.812-2.55-.602-.85-1.196-1.706-1.836-2.527-.316-.412-.67-.794-1.019-1.18-.177-.191-.353-.378-.536-.567-.091-.092-.183-.184-.28-.27-.049-.042-.098-.085-.148-.126-.05-.042-.113-.079-.152-.067l-.021-.056z" transform="translate(89 -4) matrix(-1 0 0 1 159 23) matrix(-1 0 0 1 71 0) scale(-1 1) rotate(-36 12.053 124.231)"/>
                                        <path fill="#7FBA6D" d="M34.877 30.36c-.073.108-.187.18-.316.197-.123.019-.248.02-.372.006-.244-.032-.485-.086-.72-.16-.238-.063-.47-.15-.69-.26-.22-.128-.383-.334-.46-.577-.142-.47-.257-.948-.341-1.432-.02-.118-.047-.235-.084-.35-.037-.108-.109-.201-.204-.265-.211-.11-.434-.224-.645-.345-.85-.491-1.653-1.06-2.398-1.7-.748-.634-1.44-1.33-2.07-2.082l.032-.025c.371.325.73.653 1.114.954.383.3.757.61 1.136.902.76.582 1.558 1.113 2.389 1.588l.31.175.155.083.082.043c.035.017.07.037.103.058.172.112.301.277.369.47.045.136.077.276.094.417.08.48.154.977.265 1.39.038.18.142.34.29.447.195.12.401.218.615.295.217.097.44.174.67.231.112.028.226.04.34.038.114.004.223-.042.3-.126l.036.029z" transform="translate(89 -4) matrix(-1 0 0 1 159 23) matrix(-1 0 0 1 71 0) scale(-1 1) rotate(-36 12.053 124.231)"/>
                                        <path fill="#7FBA6D" d="M27.437 19.648c.092-.015.145.045.204.08.056.042.11.087.161.134.104.092.202.19.3.288.195.196.38.398.571.602.379.405.747.817 1.083 1.263.677.874 1.314 1.78 1.953 2.681l.949 1.36c.159.225.32.45.483.67.164.22.349.425.523.643.358.426.664.892.914 1.39.117.252.212.513.284.782.039.134.066.27.082.41.021.142-.002.287-.066.416l-.036-.021c.042-.125.044-.26.006-.386-.03-.13-.07-.256-.119-.379-.096-.25-.213-.493-.35-.724-.272-.46-.596-.89-.966-1.276l-.28-.297c-.101-.102-.196-.224-.283-.331-.177-.221-.345-.442-.513-.663-.33-.446-.647-.9-.97-1.347L29.5 22.21c-.154-.227-.312-.45-.475-.662l-.514-.646c-.166-.221-.333-.441-.505-.655-.087-.107-.175-.212-.266-.313-.044-.052-.09-.102-.138-.15-.048-.046-.102-.099-.151-.095l-.013-.04zM26.588 23.368c.423-.308.721-.759.838-1.27.125-.505.151-1.03.078-1.545-.007-.149-.027-.297-.06-.442-.013-.075-.03-.148-.04-.222-.007-.039-.01-.077-.01-.115-.007-.043.01-.086.043-.114l.012.025c-.023.047.019.126.043.19l.087.208c.06.15.103.306.126.465v-.028c.071.27.105.547.1.825-.003.28-.045.559-.127.827-.083.272-.219.526-.398.748-.18.217-.414.382-.68.475l-.012-.027z" transform="translate(89 -4) matrix(-1 0 0 1 159 23) matrix(-1 0 0 1 71 0) scale(-1 1) rotate(-36 12.053 124.231)"/>
                                    </g>
                                    <g>
                                        <path fill="#F9CFB2" d="M.895 1.165c.059-.07.094-.08.117-.187.014-.09-.005-.183-.055-.262C.831.46.61.257.337.15L.18.085.026.019l-.01.047c.016.238.094.47.227.67.055.073.115.14.18.204.044.042.09.081.138.118.115.08.236.15.361.212-.022-.052-.04-.091-.027-.105zM.73 1.097C.561.966.409.817.275.652.198.558.134.454.084.344.054.275-.01.134.037.09c.021-.01.046-.01.066 0 .13.043.255.103.368.178.065.043.125.092.178.148.113.108.201.237.26.379.033.106.02.22-.037.316-.007-.002-.013-.002-.02 0-.004-.002-.01-.002-.014 0-.016.015-.059-.022-.108-.015z" style="mix-blend-mode:multiply" transform="translate(89 -4) matrix(-1 0 0 1 159 23) matrix(-1 0 0 1 71 0) scale(-1 1) rotate(-36 12.053 124.231) translate(14.01 9.857)"/>
                                        <g fill="#FFF">
                                            <path d="M.254.16C.434.23.597.33.74.456c.03.03.058.06.093.1C.94.661.998.804.989.95c-.024.084-.07.161-.132.225C.64 1.067.453.915.306.73.173.563.079.372.029.17V.097" transform="translate(89 -4) matrix(-1 0 0 1 159 23) matrix(-1 0 0 1 71 0) scale(-1 1) rotate(-36 12.053 124.231) translate(14.01 9.857)"/>
                                            <path d="M.874 1.094C.978.961.972.777.858.651.728.47.554.32.352.217.31.203.061.166.064.217c.01.044.024.086.043.127C.165.45.231.55.305.648c.128.18.372.454.57.446z" transform="translate(89 -4) matrix(-1 0 0 1 159 23) matrix(-1 0 0 1 71 0) scale(-1 1) rotate(-36 12.053 124.231) translate(14.01 9.857)"/>
                                        </g>
                                        <g>
                                            <path fill="#1A0909" d="M.187.06C.11.11.056.19.04.282.02.373.042.467.095.543.147.622.228.676.32.695c.092.02.188 0 .266-.052.078-.05.132-.13.15-.22C.753.332.733.238.68.163.629.082.548.026.455.007c-.093-.02-.19 0-.268.052z" transform="translate(89 -4) matrix(-1 0 0 1 159 23) matrix(-1 0 0 1 71 0) scale(-1 1) rotate(-36 12.053 124.231) translate(14.01 9.857) translate(.252 .38)"/>
                                            <path fill="#5C8AC7" d="M.659.176c.049.07.068.156.052.239C.695.498.645.57.574.617.424.714.225.675.124.529.075.459.057.373.074.29.088.207.138.134.21.088.36-.008.558.031.66.176z" transform="translate(89 -4) matrix(-1 0 0 1 159 23) matrix(-1 0 0 1 71 0) scale(-1 1) rotate(-36 12.053 124.231) translate(14.01 9.857) translate(.252 .38)"/>
                                            <path fill="#060508" d="M.562.488C.525.53.473.555.418.557.362.559.308.539.268.501.182.422.175.288.253.2.289.159.34.135.396.132.452.13.506.15.546.19c.086.078.093.212.016.3z" transform="translate(89 -4) matrix(-1 0 0 1 159 23) matrix(-1 0 0 1 71 0) scale(-1 1) rotate(-36 12.053 124.231) translate(14.01 9.857) translate(.252 .38)"/>
                                            <path fill="#FFFAE4" d="M.576.331C.547.364.547.413.576.446c.013.015.031.023.05.023.02 0 .04-.008.052-.023.028-.033.028-.082 0-.115C.665.317.646.31.627.31.607.309.589.317.576.33z" transform="translate(89 -4) matrix(-1 0 0 1 159 23) matrix(-1 0 0 1 71 0) scale(-1 1) rotate(-36 12.053 124.231) translate(14.01 9.857) translate(.252 .38)"/>
                                            <path fill="#94BCE4" d="M.157.293C.136.39.174.49.255.549c.082.058.19.062.275.01v.056C.424.674.292.66.2.58.114.51.077.395.106.287c0 0 .051-.001.051.006zM.34.086C.257.112.192.173.161.252L.134.232C.157.14.244.079.34.087z" transform="translate(89 -4) matrix(-1 0 0 1 159 23) matrix(-1 0 0 1 71 0) scale(-1 1) rotate(-36 12.053 124.231) translate(14.01 9.857) translate(.252 .38)"/>
                                        </g>
                                    </g>
                                </g>
                                <g fill="#FFF">
                                    <path d="M3.096.534L3.13.49l.253-.328c.032-.067.101-.108.175-.103.074.005.137.055.16.125.022.07 0 .148-.058.195L3.418.7l.143.16c.044.048.09.097.126.147.033.036.051.084.049.133-.003.05-.025.096-.062.128-.035.032-.083.048-.13.044-.048-.004-.092-.028-.122-.065L3.134.925 3.1.887v.037c0 .075 0 .15.009.226.007.098-.066.184-.164.192-.099.008-.185-.066-.192-.164V1.16C2.74.873 2.726.584 2.716.296c-.004-.064.026-.125.078-.16.053-.037.121-.041.178-.014.058.028.096.085.1.148 0 .086.008.172.012.253l.012.011zM.92.44C.924.369.922.298.914.227.914.185.89.147.856.123.82.1.776.097.737.113.71.132.69.159.68.19.627.339.65.492.645.713c0 .11-.009.156-.03.163C.593.882.549.82.526.787.488.727.46.661.443.591.403.437.408.401.375.274.342.148.315.06.27.044.177.036.094.101.078.194c0 .02.01.027.05.105l.054.108.126.253.126.233c0 .01.024.045.046.09l.038.08.021.045c.037.063.104.102.177.104.119-.016.206-.12.202-.24M2.2 1.405c-.184.007-.363-.064-.491-.197S1.515.894 1.529.71c.01-.208.12-.4.295-.512.176-.112.395-.132.588-.053.067.028.128.068.18.118.046.038.067.097.057.155-.01.059-.05.107-.106.128-.057.022-.122.012-.17-.028L2.358.504C2.2.331 1.987.41 1.92.613c-.047.129-.023.272.063.379.043.061.113.099.188.1.075.001.146-.034.19-.094.034-.046.086-.075.142-.08.057-.006.113.02.147.066.033.047.04.108.016.16-.03.067-.081.123-.144.16-.096.063-.207.098-.322.101zM1.428.783c0 .146.013.292.017.439.004.081-.048.154-.126.178-.074.024-.156-.004-.2-.07-.018-.031-.03-.066-.032-.103C1.073.94 1.062.656 1.05.37c-.002-.064.03-.124.084-.159.054-.034.122-.036.179-.007.057.03.093.088.096.152 0 .142.011.285.017.427h.002zM3.828.682c0-.141-.012-.284-.017-.427-.008-.066.022-.132.077-.17.056-.037.127-.04.186-.008.059.031.095.094.094.16.014.289.025.577.037.866.006.09-.056.172-.146.189-.089.017-.177-.035-.204-.122-.006-.021-.009-.043-.009-.066L3.828.682z" transform="translate(89 -4) matrix(-1 0 0 1 159 23) matrix(-1 0 0 1 71 0) scale(-1 1) rotate(-36 12.053 124.231) translate(13.001 19.46)"/>
                                </g>
                            </g>
                            <g>
                                <path fill="#2149FE" d="M3.518 5.256c1.665 0 3.015-1.35 3.015-3.015v-.864H.503v.864c0 1.665 1.35 3.015 3.015 3.015z" transform="translate(89 -4) matrix(-1 0 0 1 159 23) matrix(-1 0 0 1 71 0) translate(64.09 25.802) matrix(-1 0 0 1 7.035 0)"/>
                                <path fill="#1632B2" d="M0.503 1.752L6.533 1.752 6.533 1.377 0.503 1.377z" transform="translate(89 -4) matrix(-1 0 0 1 159 23) matrix(-1 0 0 1 71 0) translate(64.09 25.802) matrix(-1 0 0 1 7.035 0)"/>
                                <path fill="#2149FE" d="M.688 1.377h5.533c.38 0 .688-.309.688-.689C6.91.308 6.601 0 6.221 0H.688C.308 0 0 .308 0 .688c0 .38.308.689.688.689z" transform="translate(89 -4) matrix(-1 0 0 1 159 23) matrix(-1 0 0 1 71 0) translate(64.09 25.802) matrix(-1 0 0 1 6.91 0)"/>
                                <path fill="#8CC27B" d="M1.759 0.876L5.151 0.876 5.151 0.501 1.759 0.501z" transform="translate(89 -4) matrix(-1 0 0 1 159 23) matrix(-1 0 0 1 71 0) translate(64.09 25.802) matrix(-1 0 0 1 6.91 0)"/>
                            </g>
                        </g>
                    </g>
                </g>
            </g>
        </g>
    </g>
</svg>
