<svg xmlns="http://www.w3.org/2000/svg" xmlns:xlink="http://www.w3.org/1999/xlink" width="1743" height="851" viewBox="0 0 1743 851">
    <defs>
        <path id="7e9y1i8mja" d="M31 0h1681c17.12 0 31 13.88 31 31v637.548c0 13.873-9.217 26.058-22.567 29.831l-535.77 151.452c-2.744.776-5.582 1.169-8.433 1.169H31c-17.12 0-31-13.88-31-31V31C0 13.88 13.88 0 31 0z"/>
        <path id="v3uz4p0nfc" d="M276.88.214C187.34 6.931 136.283 53.392 136.283 53.392l-22.2-12.01C54.394 43.816.127 57.245.127 57.245l857.654 1.986S750.8 38.46 687.847 49.49c-62.957 11.034-216.404-1.927-216.404-1.927l-63.213 3.078C378.78 2.052 291.679.199 278.548.199c-1.087 0-1.668.015-1.668.015"/>
        <path id="jv1xgjdg6e" d="M52.51 33.24L34.34 49.104.403 57.86s53.323 8.752 87.247 0c33.928-8.756 53.316-42.494 53.316-42.494s11.659-14.16 26.232-8.368C162.039 4.72 150.792.766 134.91.766c-20.67 0-49.188 6.69-82.4 32.474M170.386 8.572c-1.077-.635-2.135-1.156-3.186-1.574 2.091.924 3.186 1.574 3.186 1.574"/>
        <path id="uz8xu1bj8f" d="M12.998 9.993L.354 16.073s39.125 1.218 71.623 10.942c32.501 9.724 34.305 18.234 58.982 26.137 24.674 7.902 52.904 5.133 52.904 5.133s-31.969-14.913-84.328-29.681C47.175 13.836 31.655.498 31.655.498L12.998 9.993z"/>
        <path id="ecw3zyolgg" d="M51.819 1.988C25.508 7.342.404 30.25.404 30.25s26.204-18.45 39.62-10.594c13.417 7.854 18.147 17.997 50.814 22.457 32.663 4.457 59.88 3.566 59.88 3.566l-9.07-15.429C130.127 12.672 92.617.776 65.407.776c-4.944 0-9.545.39-13.59 1.212"/>
        <path id="ahib7bc4uh" d="M.117 20.373s18.3 8.052 40.47 0c0 0 24.887-10.957 51.037-12.31 30.712-1.585 54.207 16.704 54.207 16.704S133.525 5.237 77.234.643C72.38.245 67.784.067 63.445.063 17.498.063.117 20.373.117 20.373"/>
        <path id="s85wqflyoi" d="M393.01 14.093c-16.376 6.14-55.04 70.648-68.447 79.494-13.414 8.847-52.901 23.014-52.901 23.014s-27.279-49.114-73.09-48.166c-45.809.952-61.344 76.085-61.344 76.085s-27.827 11.799-35.23 14.686c-7.408 2.89-20.823 23.957-20.823 23.957C68.85 188.095.571 191.356.571 191.356s49.746 4.852 132.058-3.17c33.198-4.176 66.432-1.649 107.367.879 46.791 2.887 103.649 5.774 182.033-1.348 194.022-17.63 281.65-42.928 281.65-42.928 59.928-11.309 154.301-19.476 154.301-19.476l-77.554 1.518c.54-59.914-55.76-68.005-55.76-68.005-71.376-3.58-157.68 3.574-157.68 3.574l5.356-36.298C545.334 6.986 510.26.993 477.892.993c-37.586.004-71.518 8.088-84.882 13.1"/>
        <path id="fevg8ljutl" d="M.178 17.473s44.437 2.062 94.656-6.046c0 0-37.24-6.073-55.182-11.406 0 0-34.552 12.398-39.474 17.452"/>
        <path id="g729u7082o" d="M43.003 4.67C11.277 18.15.357 69.963.357 69.963s33.261-4.21 52.001-17.968c0 0 12.288-35.162 22.093-41.166 9.805-5.997 25.979 2.542 25.979 2.542S85.313.32 63.955.32c-6.49 0-13.556 1.204-20.952 4.35"/>
        <path id="artpj58acr" d="M145.741 26.375c-5.253 9.578-11.778 24.149-11.778 24.149s-17.577-7.594-32.018-8.526c-14.441-.932-40.92 7.513-41.605 10.634-.688 3.121-.19 8.596-.19 8.596L.175 72.918s41.751 2.262 67.836-.281c0 0 116.474-6.015 172.393-14.187 55.925-8.171 159.92-22.954 159.92-22.954l-49.148 1.024s-26.944-11.45-50.914-10.463c-23.967.983-34.9 13.759-34.9 13.759S239.884 5.299 217.509.914C215.373.494 213.032.3 210.552.3c-23.499 0-60.063 17.41-64.811 26.075"/>
        <path id="kpep147vrt" d="M63.517 1.25c-19.28 2.38-46.548 16.332-50.754 21.867C8.546 28.655.349 50.48.349 50.48s34.132 2.336 48.316 0c0 0 .445-27.142 6.21-32.899C60.635 11.825 79.122 2.816 88.94 3.998c0 0-4.045-3.378-15.88-3.378-2.747 0-5.91.183-9.542.63"/>
        <path id="ay3fe5emmw" d="M32.955 1.174C19.95 3.402.435 7.587.09 10.79c0 0 5.393 1.913 15.223 2.868 9.83.958 39.78-7.926 39.78-7.926l2.124-2.395S50.057.54 40.559.54c-2.412 0-4.97.181-7.604.633"/>
        <path id="nrajl46gbz" d="M42.969 1.041c-20.074 3.03-26.533 13.932-26.533 13.932L.23 26.516s38.471-7.373 40.56-8.259c2.087-.885 14.912-10.639 18.195-11.822 3.282-1.184 26.728 0 26.728 0S69.43.385 52.24.385c-3.09 0-6.21.194-9.271.656"/>
        <path id="jiwm5wlvvC" d="M82.865 14.97c-2.986 5.436-6.697 13.706-6.697 13.706s-9.993-4.31-18.204-4.84c-8.211-.528-23.267 4.265-23.656 6.036-.39 1.772-.108 4.879-.108 4.879L.1 41.386s23.738 1.284 38.57-.16c0 0 66.224-3.414 98.018-8.052 31.798-4.637 90.927-13.027 90.927-13.027l-27.944.58s-15.32-6.498-28.949-5.938c-13.627.558-19.843 7.81-19.843 7.81S136.393 3.007 123.67.518C122.456.28 121.125.17 119.715.17c-13.36 0-34.15 9.882-36.85 14.8"/>
        <path id="15ggj9zsxE" d="M36.397.722C25.35 2.094 9.724 10.143 7.313 13.336 4.897 16.532.2 29.124.2 29.124s19.559 1.347 27.687 0c0 0 .255-15.66 3.559-18.98 3.3-3.322 13.893-8.52 19.519-7.837 0 0-2.318-1.95-9.1-1.95-1.574 0-3.386.106-5.468.365"/>
        <path id="tduwe186eH" d="M18.75.67C11.351 1.945.247 4.336.051 6.167c0 0 3.068 1.093 8.662 1.639 5.593.547 22.633-4.53 22.633-4.53l1.208-1.368S28.48.309 23.077.309c-1.372 0-2.829.104-4.327.362"/>
        <path id="9jl2eh7xgK" d="M24.482.579C13.045 2.262 9.365 8.319 9.365 8.319L.132 14.73s21.92-4.096 23.109-4.588c1.19-.492 8.497-5.91 10.367-6.568 1.87-.658 15.23 0 15.23 0S39.557.214 29.764.214c-1.761 0-3.538.108-5.283.365"/>
        <path id="yjscofv0aN" d="M0 120.18l2386.913-14.114V68.82s-336.772 33.189-992.147 24.997C484.776 82.454 0 .766 0 .766v119.413z"/>
        <path id="8db1715ezO" d="M11.375 94.774L0.107 105.661 0.107 216.234 64.351 229.689 61.436 105.661 49.545 94.774 28.113 0.042z"/>
        <path id="d86prnccwP" d="M7.439 61.141L0.264 68.169 0.264 139.508 41.173 148.188 39.319 68.169 31.743 61.141 18.097 0.028z"/>
        <path id="dcr3gtyr5R" d="M2.49 4.853L0.886 373.212 7.053 375.353 7.053 0.09z"/>
        <path id="vqgxhmshnT" d="M1.605 5.154L0.002 373.68 6.165 375.814 6.165 0.388z"/>
        <path id="ddhw7yz0mV" d="M2.23 5.069L0.627 373.595 6.79 375.733 6.79 0.303z"/>
        <path id="qtkeumuntX" d="M0.089 131.019L68.084 131.635 61.387 2.322 2.235 0.366z"/>
        <path id="rq1suoxfvY" d="M0.441 139.344L103.061 125.752 98.627 23.042 54.981 23.042 54.981 49.998 45.367 49.998 45.367 2.802 0.441 0.075z"/>
        <linearGradient id="qp9e71oglk" x1="47.273%" x2="53.032%" y1="107.241%" y2="-5.314%">
            <stop offset="0%" stop-color="#DFF0FF"/>
            <stop offset="100%" stop-color="#D6E4FF"/>
        </linearGradient>
        <linearGradient id="61n9qhejcm" x1="49.21%" x2="51.41%" y1="52.598%" y2="48.432%">
            <stop offset="0%" stop-color="#DFF0FF"/>
            <stop offset="100%" stop-color="#D6E4FF"/>
        </linearGradient>
        <linearGradient id="37l6r2pizp" x1="46.756%" x2="54.196%" y1="77.392%" y2="24.972%">
            <stop offset="0%" stop-color="#DFF0FF"/>
            <stop offset="100%" stop-color="#D6E4FF"/>
        </linearGradient>
        <linearGradient id="emce6o9cvu" x1="50%" x2="50%" y1="100%" y2="-.001%">
            <stop offset="0%" stop-color="#DFF0FF"/>
            <stop offset="100%" stop-color="#D6E4FF"/>
        </linearGradient>
        <linearGradient id="75u6tevllx" x1="49.997%" x2="49.997%" y1="100.018%" y2="-.015%">
            <stop offset="0%" stop-color="#DFF0FF"/>
            <stop offset="100%" stop-color="#D6E4FF"/>
        </linearGradient>
        <linearGradient id="hnqmt6as7A" x1="50%" x2="50%" y1="100.011%" y2=".001%">
            <stop offset="0%" stop-color="#DFF0FF"/>
            <stop offset="100%" stop-color="#D6E4FF"/>
        </linearGradient>
        <linearGradient id="82i628lydF" x1="50%" x2="50%" y1="100%" y2="-.001%">
            <stop offset="0%" stop-color="#DFF0FF"/>
            <stop offset="100%" stop-color="#D6E4FF"/>
        </linearGradient>
        <linearGradient id="5lbdk1b31I" x1="49.997%" x2="49.997%" y1="100.018%" y2="-.015%">
            <stop offset="0%" stop-color="#DFF0FF"/>
            <stop offset="100%" stop-color="#D6E4FF"/>
        </linearGradient>
        <linearGradient id="2gi4y712dL" x1="50%" x2="50%" y1="100.011%" y2=".001%">
            <stop offset="0%" stop-color="#DFF0FF"/>
            <stop offset="100%" stop-color="#D6E4FF"/>
        </linearGradient>
        <linearGradient id="ouisij65hQ" x1="22.618%" x2="22.618%" y1="100%" y2="26.679%">
            <stop offset="0%" stop-color="#C0FFAD"/>
            <stop offset="100%" stop-color="#8CC27B"/>
        </linearGradient>
    </defs>
    <g fill="none" fill-rule="evenodd">
        <g>
            <g transform="translate(-89 -193) translate(89 193)">
                <mask id="3bdvjl9tdb" fill="#fff">
                    <use xlink:href="#7e9y1i8mja"/>
                </mask>
                <use fill="#81CFFA" xlink:href="#7e9y1i8mja"/>
                <g mask="url(#3bdvjl9tdb)">
                    <g>
                        <path d="M112 848L2499 848 2499 0 112 0z" transform="translate(464 -18)"/>
                        <g transform="translate(464 -18) translate(141 602)">
                            <mask id="ew0oub7f7d" fill="#fff">
                                <use xlink:href="#v3uz4p0nfc"/>
                            </mask>
                            <path fill="#FFF" d="M276.88.214C187.34 6.931 136.283 53.392 136.283 53.392l-22.2-12.01C54.394 43.816.127 57.245.127 57.245l857.654 1.986S750.8 38.46 687.847 49.49c-62.957 11.034-216.404-1.927-216.404-1.927l-63.213 3.078C378.78 2.052 291.679.199 278.548.199c-1.087 0-1.668.015-1.668.015" mask="url(#ew0oub7f7d)"/>
                        </g>
                        <g transform="translate(464 -18) translate(321 192)"/>
                        <g transform="translate(464 -18) translate(464 248)"/>
                        <g transform="translate(464 -18) translate(211 286)"/>
                        <g transform="translate(464 -18) translate(449 325)"/>
                        <g transform="translate(464 -18) translate(904 77)">
                            <mask id="0b79o9tg3j" fill="#fff">
                                <use xlink:href="#s85wqflyoi"/>
                            </mask>
                            <path fill="#FFF" d="M393.01 14.093c-16.376 6.14-55.04 70.648-68.447 79.494-13.414 8.847-52.901 23.014-52.901 23.014s-27.279-49.114-73.09-48.166c-45.809.952-61.344 76.085-61.344 76.085s-27.827 11.799-35.23 14.686c-7.408 2.89-20.823 23.957-20.823 23.957C68.85 188.095.571 191.356.571 191.356s49.746 4.852 132.058-3.17c33.198-4.176 66.432-1.649 107.367.879 46.791 2.887 103.649 5.774 182.033-1.348 194.022-17.63 281.65-42.928 281.65-42.928 59.928-11.309 154.301-19.476 154.301-19.476l-77.554 1.518c.54-59.914-55.76-68.005-55.76-68.005-71.376-3.58-157.68 3.574-157.68 3.574l5.356-36.298C545.334 6.986 510.26.993 477.892.993c-37.586.004-71.518 8.088-84.882 13.1" mask="url(#0b79o9tg3j)"/>
                        </g>
                        <g>
                            <path fill="url(#qp9e71oglk)" d="M56.756 74.9S11.861 98.636.091 101.848c37.816.677 61.953 4.815 72.409 12.412 11.916 8.659 21.338 28.905 28.266 60.739 0 0 44.272-13.15 53.034-17.767 0 0-34.98-72.666-30.486-75.716 4.497-3.05 31.424-58.658 35.071-72.012C160.452 1.917 146.328.28 133.751.28c-9.547 0-18.205.941-18.205.941S86.63 33.365 56.756 74.9z" transform="translate(464 -18) translate(1177 92)"/>
                        </g>
                        <g transform="translate(464 -18) translate(1001 221)">
                            <mask id="knszt3kunn" fill="#fff">
                                <use xlink:href="#fevg8ljutl"/>
                            </mask>
                            <path fill="url(#61n9qhejcm)" d="M.178 17.473s44.437 2.062 94.656-6.046c0 0-37.24-6.073-55.182-11.406 0 0-34.552 12.398-39.474 17.452" mask="url(#knszt3kunn)"/>
                        </g>
                        <g transform="translate(464 -18) translate(1043 144)">
                            <mask id="geq2owv9uq" fill="#fff">
                                <use xlink:href="#g729u7082o"/>
                            </mask>
                            <path fill="url(#37l6r2pizp)" d="M43.003 4.67C11.277 18.15.357 69.963.357 69.963s33.261-4.21 52.001-17.968c0 0 12.288-35.162 22.093-41.166 9.805-5.997 25.979 2.542 25.979 2.542S85.313.32 63.955.32c-6.49 0-13.556 1.204-20.952 4.35" mask="url(#geq2owv9uq)"/>
                        </g>
                        <g>
                            <g transform="translate(464 -18) translate(472 368)">
                                <mask id="w48120thws" fill="#fff">
                                    <use xlink:href="#artpj58acr"/>
                                </mask>
                                <path fill="#FFF" d="M145.741 26.375c-5.253 9.578-11.778 24.149-11.778 24.149s-17.577-7.594-32.018-8.526c-14.441-.932-40.92 7.513-41.605 10.634-.688 3.121-.19 8.596-.19 8.596L.175 72.918s41.751 2.262 67.836-.281c0 0 116.474-6.015 172.393-14.187 55.925-8.171 159.92-22.954 159.92-22.954l-49.148 1.024s-26.944-11.45-50.914-10.463c-23.967.983-34.9 13.759-34.9 13.759S239.884 5.299 217.509.914C215.373.494 213.032.3 210.552.3c-23.499 0-60.063 17.41-64.811 26.075" mask="url(#w48120thws)"/>
                            </g>
                            <g transform="translate(464 -18) translate(472 368) translate(134 1)">
                                <mask id="i16t89p3dv" fill="#fff">
                                    <use xlink:href="#kpep147vrt"/>
                                </mask>
                                <path fill="url(#emce6o9cvu)" d="M63.517 1.25c-19.28 2.38-46.548 16.332-50.754 21.867C8.546 28.655.349 50.48.349 50.48s34.132 2.336 48.316 0c0 0 .445-27.142 6.21-32.899C60.635 11.825 79.122 2.816 88.94 3.998c0 0-4.045-3.378-15.88-3.378-2.747 0-5.91.183-9.542.63" mask="url(#i16t89p3dv)"/>
                            </g>
                            <g transform="translate(464 -18) translate(472 368) translate(61 42)">
                                <mask id="hlghhkms2y" fill="#fff">
                                    <use xlink:href="#ay3fe5emmw"/>
                                </mask>
                                <path fill="url(#75u6tevllx)" d="M32.955 1.174C19.95 3.402.435 7.587.09 10.79c0 0 5.393 1.913 15.223 2.868 9.83.958 39.78-7.926 39.78-7.926l2.124-2.395S50.057.54 40.559.54c-2.412 0-4.97.181-7.604.633" mask="url(#hlghhkms2y)"/>
                            </g>
                            <g transform="translate(464 -18) translate(472 368) translate(249 26)">
                                <mask id="hxfks34msB" fill="#fff">
                                    <use xlink:href="#nrajl46gbz"/>
                                </mask>
                                <path fill="url(#hnqmt6as7A)" d="M42.969 1.041c-20.074 3.03-26.533 13.932-26.533 13.932L.23 26.516s38.471-7.373 40.56-8.259c2.087-.885 14.912-10.639 18.195-11.822 3.282-1.184 26.728 0 26.728 0S69.43.385 52.24.385c-3.09 0-6.21.194-9.271.656" mask="url(#hxfks34msB)"/>
                            </g>
                        </g>
                        <g>
                            <g transform="translate(464 -18) matrix(-1 0 0 1 883 50)">
                                <mask id="69oq9gfo0D" fill="#fff">
                                    <use xlink:href="#jiwm5wlvvC"/>
                                </mask>
                                <path fill="#FFF" d="M82.865 14.97c-2.986 5.436-6.697 13.706-6.697 13.706s-9.993-4.31-18.204-4.84c-8.211-.528-23.267 4.265-23.656 6.036-.39 1.772-.108 4.879-.108 4.879L.1 41.386s23.738 1.284 38.57-.16c0 0 66.224-3.414 98.018-8.052 31.798-4.637 90.927-13.027 90.927-13.027l-27.944.58s-15.32-6.498-28.949-5.938c-13.627.558-19.843 7.81-19.843 7.81S136.393 3.007 123.67.518C122.456.28 121.125.17 119.715.17c-13.36 0-34.15 9.882-36.85 14.8" mask="url(#69oq9gfo0D)"/>
                            </g>
                            <g transform="translate(464 -18) matrix(-1 0 0 1 883 50) translate(76)">
                                <mask id="lghtidlu8G" fill="#fff">
                                    <use xlink:href="#15ggj9zsxE"/>
                                </mask>
                                <path fill="url(#82i628lydF)" d="M36.397.722C25.35 2.094 9.724 10.143 7.313 13.336 4.897 16.532.2 29.124.2 29.124s19.559 1.347 27.687 0c0 0 .255-15.66 3.559-18.98 3.3-3.322 13.893-8.52 19.519-7.837 0 0-2.318-1.95-9.1-1.95-1.574 0-3.386.106-5.468.365" mask="url(#lghtidlu8G)"/>
                            </g>
                            <g transform="translate(464 -18) matrix(-1 0 0 1 883 50) translate(35 24)">
                                <mask id="q95qmkiihJ" fill="#fff">
                                    <use xlink:href="#tduwe186eH"/>
                                </mask>
                                <path fill="url(#5lbdk1b31I)" d="M18.75.67C11.351 1.945.247 4.336.051 6.167c0 0 3.068 1.093 8.662 1.639 5.593.547 22.633-4.53 22.633-4.53l1.208-1.368S28.48.309 23.077.309c-1.372 0-2.829.104-4.327.362" mask="url(#q95qmkiihJ)"/>
                            </g>
                            <g transform="translate(464 -18) matrix(-1 0 0 1 883 50) translate(142 15)">
                                <mask id="3wo09v9uqM" fill="#fff">
                                    <use xlink:href="#9jl2eh7xgK"/>
                                </mask>
                                <path fill="url(#2gi4y712dL)" d="M24.482.579C13.045 2.262 9.365 8.319 9.365 8.319L.132 14.73s21.92-4.096 23.109-4.588c1.19-.492 8.497-5.91 10.367-6.568 1.87-.658 15.23 0 15.23 0S39.557.214 29.764.214c-1.761 0-3.538.108-5.283.365" mask="url(#3wo09v9uqM)"/>
                            </g>
                        </g>
                        <g transform="translate(464 -18) translate(112 759)"/>
                        <g>
                            <path fill="#679359" d="M35.507 0L35.507 18.609 17.649 18.609 5.117 63.167 0.236 364.023 99.987 375.093 99.987 62.325 84.334 18.609 67.748 18.609 67.748 0z" transform="translate(464 -18) translate(1040 412)"/>
                        </g>
                        <g transform="translate(464 -18) translate(830 320)"/>
                        <g transform="translate(464 -18) translate(626 347)"/>
                        <g>
                            <path fill="url(#ouisij65hQ)" d="M285.307 98.304L285.307 181.702 263.919 195.293 224.874 195.293 224.874 147.992 221.65 133.587 208.889 133.53 208.889 116.87 177.783 116.87 177.783 133.53 169.824 133.53 162.503 149.67 162.503 265.142 90.025 320.896 0.087 429.98 16.944 429.98 2.771 590.872 1773.309 588.902 1764.606 404.981 1773.444 404.981 1730.889 339.074 1613.647 333.894 1613.647 137.885 1571.764 111.818 1568.155 9.35 1566.871 9.35 1569.186 111.548 1463.528 116.87 1461.696 149.681 1454.401 157.262 1452.288 231.649 1357.194 372.338 1271.856 372.338 1271.856 353.542 1268.408 349.24 1267 305.569 1263.347 292.369 1257.449 303.884 1257.449 349.086 1254.074 351.353 1254.074 371.41 1220.576 434.981 1228.225 434.981 1220.576 515.637 1204.106 531.425 1163.321 524.103 1057.977 508.037 1015.049 490.254 1016.716 289.595 962.935 195.293 938.567 195.293 934.889 143.781 929.301 137.04 929.301 0.533 926.036 0.533 926.036 135.352 809.346 211.314 797.305 210.112 703.663 290.432 714.885 289.595 709.784 456.858 700.836 461.146 646.466 508.399 635.149 484.592 627.66 169.34 572.153 140.129 381.753 155.858 381.219 182.824 370.348 195.293 343.589 195.293 343.589 98.304z" transform="translate(464 -18) translate(391 278)"/>
                        </g>
                        <g>
                            <path fill="#679359" d="M71.49 361.912L63.149 344.592 63.149 34 0 0 2.716 381.464z" transform="translate(464 -18) translate(963 418)"/>
                        </g>
                        <g>
                            <path fill="#679359" d="M0 0L0 402.652 35.644 444 26.687 0z" transform="translate(464 -18) translate(734 473)"/>
                        </g>
                        <g>
                            <path fill="#679359" d="M0.682 13.543L0 414 23 414 22.484 0z" transform="translate(464 -18) translate(652 461)"/>
                        </g>
                        <g>
                            <path fill="#679359" d="M0 377.823L8.981 379.165 11.525 1.2 0 0z" transform="translate(464 -18) translate(1189 488)"/>
                        </g>
                        <g transform="translate(464 -18) translate(1219 479)">
                            <mask id="7jninl1ujS" fill="#fff">
                                <use xlink:href="#dcr3gtyr5R"/>
                            </mask>
                            <path fill="#679359" d="M2.49 4.853L0.886 373.212 7.053 375.353 7.053 0.09z" mask="url(#7jninl1ujS)"/>
                        </g>
                        <g transform="translate(464 -18) translate(1242 465)">
                            <mask id="q9fv2aw2xU" fill="#fff">
                                <use xlink:href="#vqgxhmshnT"/>
                            </mask>
                            <path fill="#679359" d="M1.605 5.154L0.002 373.68 6.165 375.814 6.165 0.388z" mask="url(#q9fv2aw2xU)"/>
                        </g>
                        <g transform="translate(464 -18) translate(1266 452)">
                            <mask id="n6819b3y4W" fill="#fff">
                                <use xlink:href="#ddhw7yz0mV"/>
                            </mask>
                            <path fill="#679359" d="M2.23 5.069L0.627 373.595 6.79 375.733 6.79 0.303z" mask="url(#n6819b3y4W)"/>
                        </g>
                        <g transform="translate(464 -18) translate(171 736)"/>
                        <g transform="translate(464 -18) translate(270 715)"/>
                    </g>
                </g>
                <g mask="url(#3bdvjl9tdb)">
                    <g>
                        <g fill-rule="nonzero">
                            <g>
                                <g>
                                    <path fill="#98C883" d="M115.794 152.474c.899 1.605.328 3.633-1.276 4.537l-1.621.885c-2.955-3.185-5.106-5.734-6.893-11.552-.105-.334-.228-.661-.37-.981l1.806-1c.954-.541 2.117-.568 3.095-.07.612.29 1.115.768 1.436 1.363l3.823 6.818z" transform="translate(851 87) scale(-1 1) rotate(-36 60.719 627.758)"/>
                                    <path fill="#2149FE" d="M159.322 197.67s5.067-2.46 10.211-1.957c.888.115 1.775.23 2.687.313-4.352 6.856-14.13 8.347-10.741 15.375-3.83.733-6.248 1.274-6.248 1.274-7.02.198 0 0-16.384-11.673-16.383-11.673-16.824-25.443-20.583-36.893.887 1.121 1.813 2.377 2.802 3.823 6.153 8.978 17.87 20.294 37.298 25.59l.958 4.147z" transform="translate(851 87) scale(-1 1) rotate(-36 60.719 627.758)"/>
                                    <path fill="#2149FE" d="M224.536 205.214c-11.865.325-24.719-7.36-26.365.23-4.015-2.97-5.52-4.346-5.52-4.346-12.127.637-17.38-4.818-17.38-4.818-1.047-.07-2.055-.159-3.057-.254-1.002-.096-1.8-.198-2.687-.313-3.77-.472-7.502-1.209-11.17-2.204-19.433-5.295-31.145-16.612-37.297-25.59-.99-1.446-1.915-2.701-2.802-3.823-2.055-2.644-3.83-4.511-5.38-6.2l1.62-.885c.58-.324 1.051-.812 1.354-1.402 4.8-2.67 13.403-8.532 18.202-18.173 7.02 3.123 15.58 8.628 17.577 20.04 0 0 12.433 5.046 26.889 19.313 1.436 1.402 2.872 2.906 4.333 4.492 2.776 1.024 5.285 2.66 7.34 4.785 0 0 15.866-5.04 27.929 10.406 2.642 3.39 4.71 6.27 6.414 8.742z" transform="translate(851 87) scale(-1 1) rotate(-36 60.719 627.758)"/>
                                    <path fill="#2149FE" d="M221.198 200.537c-11.443-1.644-21.757-5.518-27.993-15.05-1.018.11-2.026.303-3.012.58-2.052-2.128-4.56-3.766-7.333-4.792-1.462-1.587-2.898-3.09-4.334-4.492-9.542-9.418-18.17-14.796-22.976-17.376-6.931 1.146-14.941-1.173-21.509-4.46-3.223-1.637-5.757-4.365-7.148-7.698-3.28 3.279-7 6.088-11.054 8.347-.303.59-.774 1.078-1.353 1.402l-1.621.886c1.55 1.688 3.325 3.555 5.38 6.2.887 1.12 1.813 2.376 2.802 3.823.115.172.255.35.377.528 17.391-6.696 38.664 3.626 49.214 18.836 1.586 2.693 2.517 5.72 2.718 8.837.639.058 1.277.115 1.915.16.19.185.39.36.6.522.506-.899 1.117-1.735 1.819-2.491 5.63-4.218 11.258-1.408 15.483 4.218.49 1.19.781 2.45.862 3.734.88.713 2.215 1.758 4.136 3.186 1.646-7.59 14.5.095 26.365-.23-.976-1.408-2.087-2.975-3.338-4.67z" transform="translate(851 87) scale(-1 1) rotate(-36 60.719 627.758)"/>
                                    <path fill="#D95214" d="M139.134 103.621c.205 1.362.272 2.741.198 4.116-11.596-16.044-23.04-19.982-23.04-19.982-3.127-10.654-14.545-18.338-22.127-13.081 1.326-1.182 2.486-2.54 3.446-4.034 13.499-1.083 35.026 2.55 59.898 17.963s41.62 26.233 71.559 31.056c0 0 7.333 10.246-1.507 18.733-8.84 8.488-13.92 9.921-12.847 21.951 1.072 12.03-7.123 19.944-14.616 17.255-7.493-2.689-18.31-3.931-21.578-.81-14.456-14.266-26.889-19.312-26.889-19.312-1.998-11.412-10.582-16.917-17.602-20.04-3.013-1.35-5.745-2.249-7.519-2.982-1.125-.493-2.147-1.193-3.012-2.064-4.41-4.314-7.353-13.476-4.927-22.512 5.38 3.573 11.643 5.59 18.1 5.83-.636.854-1.41 1.595-2.291 2.192 0 0 10.403 12.999 25.733 20.62.795.497 1.326 1.321 1.449 2.249 2.023 10.087 1.915 10.647 7.263 12.323 8.527 2.657 8.616-.408 6.612-6.085-1.334-3.823-4.066-7.379-6.982-10.737-2.917-3.358-15.382-22.301-21.196-28.813-11.897-13.304-8.24-7.474-8.125-3.836z" transform="translate(851 87) scale(-1 1) rotate(-36 60.719 627.758)"/>
                                    <path fill="#F5D2BD" d="M136.696 115.708h-.35l.248.147c.032-.07.07-.102.102-.147z" style="mix-blend-mode:multiply" transform="translate(851 87) scale(-1 1) rotate(-36 60.719 627.758)"/>
                                    <path fill="#D95214" d="M174.333 144.426c.436.823.813 1.674 1.13 2.55 2.004 5.676 1.914 8.741-6.613 6.084-5.348-1.676-5.24-2.236-7.263-12.323-.123-.928-.654-1.752-1.448-2.25-15.318-7.645-25.734-20.618-25.734-20.618.835-.57 1.574-1.27 2.19-2.071l-.25-.147c-6.333-.299-12.466-2.305-17.749-5.805-2.425 9.036.517 18.198 4.927 22.512.866.87 1.888 1.571 3.013 2.065 1.774.732 4.506 1.63 7.518 2.982 7.02 3.122 15.58 8.627 17.577 20.039 0 0 12.433 5.047 26.889 19.313 3.267-3.122 14.08-1.873 21.578.81 2.393.852 5.037.64 7.263-.58-10.862-11.202-21.68-22.29-33.028-32.56z" transform="translate(851 87) scale(-1 1) rotate(-36 60.719 627.758)"/>
                                    <path fill="#DD3A18" d="M219.87 145.382c2.062-1.975 4.647-4.059 7.691-7.009 8.84-8.487 1.507-18.733 1.507-18.733-29.927-4.824-46.706-15.643-71.578-31.044-24.872-15.4-46.4-19.045-59.898-17.962-.96 1.494-2.12 2.851-3.447 4.033 6.332-4.39 15.318.255 19.939 8.112 6.778 1.873 12.886 5.39 19.983 8.92 29.505 15.178 55.992 38.932 85.804 53.683zM67.99 83.862l3.192 3.262s-4.06-.267-7.02-4.708c.153-.638.312-1.275.465-2.008.198-.847.409-1.745.639-2.74-.166 2.275.331 3.78 2.725 6.194zM94.114 74.687c-1.473 1.061-2.694 2.434-3.575 4.02 0 0-3.746 11.31-19.338 8.417 0 0 11.89.058 17.832-12.858l5.08.42z" transform="translate(851 87) scale(-1 1) rotate(-36 60.719 627.758)"/>
                                    <path fill="#C1936C" d="M81.055 66.155c1.098.49 1.04 2.096-.76 2.548-1.799.453-2.099-.987-2.099-.987.603.025 1.201-.116 1.73-.408.482-.265.875-.666 1.13-1.153z" transform="translate(851 87) scale(-1 1) rotate(-36 60.719 627.758)"/>
                                    <path fill="#472A18" d="M89.033 74.266c-1.634-.14-3.606-.312-5.814-.49-1.998-.173-4.614-2.62-4.614-2.62 3.318.23 8.616-4.186 2.967-6.562-.733-.087-1.423-.388-1.985-.867 0 0 15.51-4.894 10.404-13.158 2.84 4.09 5.105 9.22 8.84 12.31.337.28.637.536.956.759 0 .248.281 3.186-2.182 7.009-.96 1.494-2.12 2.851-3.447 4.033l-5.125-.414z" transform="translate(851 87) scale(-1 1) rotate(-36 60.719 627.758)"/>
                                    <path fill="#78402A" d="M101.996 57.808c.337 3.537 2.299 6.72 5.31 8.614 0 0-1.749 1.714-7.544-2.765-.313-.223-.638-.478-.957-.758-3.747-3.09-6-8.22-8.84-12.31-.24-.415-.52-.806-.836-1.167-.096-.114-.191-.236-.306-.363-1.915-2.377-4.11-4.174-7.193-4.683 0 0-.817-14.98 8.297-9.877 9.114 5.104 11.469 17.294 12.069 23.309z" transform="translate(851 87) scale(-1 1) rotate(-36 60.719 627.758)"/>
                                    <path fill="#FFF" d="M71.38 50.939c.848 1.702 1.154 3.624.874 5.505 0 0-1.378 0-3.689-3.919 0 0 .255-1.924 2.815-1.586z" transform="translate(851 87) scale(-1 1) rotate(-36 60.719 627.758)"/>
                                    <path fill="#EBCAB2" d="M80.321 68.716c1.8-.465 1.858-2.07.76-2.549-.252.492-.646.898-1.13 1.166-.528.292-1.126.433-1.73.408 0 0 .313 1.434 2.1.975zm1.277-4.122c5.648 2.376.35 6.792-2.968 6.563 0 0 2.617 2.446 4.615 2.618 2.208.179 4.18.35 5.814.491-5.942 12.916-17.832 12.858-17.832 12.858l-3.192-3.262c-2.393-2.415-2.884-3.919-2.718-6.193-.007-.034-.007-.069 0-.102.057-.759.185-1.6.35-2.6-1.378-.886-3.19-1.994-5.316-3.186-2.885-1.625-4.008-2.084-5.7-3.555-2.795-2.435-3.19-4.187-3.19-5.25-.006-.248.009-.495.044-.74.329-.893.87-1.694 1.577-2.332.575-.434 1.178-.83 1.806-1.185.638-.402 1.123-.682 1.187-.714.785-.452 2.234-1.357 5.106-3.332-.395-.73-.732-1.488-1.009-2.269-.107-.375-.167-.763-.178-1.153-.062-.288-.062-.585 0-.873.3-.841 1.608-1.045 1.793-1.077.537-.049 1.078-.023 1.609.077.638.057 1.219.102 1.825.172.868.095 2.47-.217 5.674-1.912l2.482.395-2.482-.395c.879-.918 1.892-1.698 3.006-2.313 1.58-.836 3.32-1.331 5.106-1.453.558-.003 1.116.046 1.665.147.44.09.926.242.926.242l.121.038c3.893 2.332 6.631 4.218 7.097 4.747.16.179.307.363.307.363.287.383.568.771.836 1.167 5.106 8.283-10.378 13.138-10.378 13.138.561.485 1.255.79 1.991.88h.026z" transform="translate(851 87) scale(-1 1) rotate(-36 60.719 627.758)"/>
                                    <path fill="#F1F1F0" d="M59.509 55.112c.183.107.318.28.376.485.194.392.352.802.473 1.223.095.49.67 1.567 2.846 4.18-.905-.53-1.781-1.108-2.623-1.733-.404-.28-.791-.583-1.162-.905-.749-.643-1.414-1.377-1.978-2.186.377-.37.807-.684 1.276-.93.383-.16.6-.217.792-.134z" transform="translate(851 87) scale(-1 1) rotate(-36 60.719 627.758)"/>
                                    <path fill="#2149FE" d="M118.596 109.878c-2.425 9.036.517 18.198 4.927 22.512-3.19 5.862-8.935 9.755-13.007 11.903-.978-.498-2.14-.471-3.095.07l-1.806 1c-4.22-9.755-25.223-18.523-27.572-30.426-2.248-1.367-4.182-3.193-5.674-5.358l-3.517-5.155-4.92-10.979c-1.277-3.963-.83-6.435.242-11.017 2.968 4.46 7.02 4.71 7.02 4.71 15.593 2.892 19.34-8.418 19.34-8.418.88-1.586 2.1-2.959 3.573-4.02 7.582-5.257 19 2.427 22.128 13.08 0 0 11.443 3.938 23.04 19.983-.128 2.434-.715 5.511-2.604 7.971-6.45-.252-12.705-2.279-18.075-5.856z" transform="translate(851 87) scale(-1 1) rotate(-36 60.719 627.758)"/>
                                    <path fill="#2149FE" d="M136.696 115.708c1.915-2.46 2.477-5.537 2.604-7.97-.07-.103-.146-.192-.217-.294-8.667 3.677-26.02-2.007-23.34-17.05-3.306 4.198-8.935 6.944-15.477 6.944-10.007-1.108-12.962-8.36-11.003-16.203-.901 1.339-2.026 2.513-3.325 3.473 3.191 10.13 6.452 19.625 4.467 28.195-1.493 4.46-6.165 3.396-11.807 2.09-.383 1.332 1.015 4.237 1.723 5.314 6.785 1.835 14.616-2.957 19.939 1.026 4.62 5.537 10.46 15.93 9.535 22.805.248.056.487.142.715.255 4.053-2.148 9.822-6.04 13.007-11.903-4.41-4.314-7.353-13.476-4.927-22.512 5.381 3.574 11.648 5.591 18.106 5.83z" transform="translate(851 87) scale(-1 1) rotate(-36 60.719 627.758)"/>
                                    <path fill="#BFD7DA" d="M118.283 88.654c-.408-.204-.778-.376-1.072-.504-.076.147-.166.287-.249.434.442-.043.887-.02 1.321.07z" style="mix-blend-mode:multiply" transform="translate(851 87) scale(-1 1) rotate(-36 60.719 627.758)"/>
                                    <path fill="#3555A2" d="M65.272 77.669c-.223.994-.434 1.911-.638 2.74-1.575-3.208-3.015-6.09-4.321-8.647 1.67 1.224 3.45 2.29 5.316 3.186-.166 1-.293 1.841-.35 2.6-.012.039-.014.08-.007.12zM59.821 45.249l4.851 4.25-.849-.128c-.508-.07-1.02-.115-1.532-.134-.378-.026-.759.015-1.123.121-.14.045-.274.102-.274.102l-.102.045c-.098.046-.192.099-.281.16-.152.104-.29.228-.409.369-.044.057-.083.12-.115.185-.06.12-.1.249-.115.382-.022.173-.022.35 0 .522.049.323.12.643.211.956.415 1.166.402 1.134.434 1.217.21.495.48.961.804 1.39-.455.35-.945.656-1.461.91-.193.08-.38.171-.562.275-.179.108-.313.197-.466.299-.153.102-.319.217-.561.408-.243.19-.205.185-.339.274-.134.089-.28.165-.51.337l-.083.07c-.146.106-.3.2-.46.28-.274.147-.536.313-.804.466-.268.153-.638.37-1.187.714-.262.153-.638.382-1.085.675l-1.206-2.122c-.396-.688-.785-1.376-1.175-2.064 2.828-1.192 6.561-3.906 8.4-9.96z" transform="translate(851 87) scale(-1 1) rotate(-36 60.719 627.758)"/>
                                    <path fill="#98C883" d="M198.17 205.456c.607.452 1.277.943 1.998 1.459-11.839-.319-29.416 2.689-38.695 4.46-3.39-7.009 6.382-8.519 10.74-15.375 1.003.096 2.011.185 3.058.255 0 0 5.278 5.448 17.38 4.817 0 0 1.505 1.376 5.52 4.346v.038z" transform="translate(851 87) scale(-1 1) rotate(-36 60.719 627.758)"/>
                                    <path fill="#98C883" d="M247.525 224.297c3.83 5.538 16.945 15.662 15.19 17.95 0 0-1.736 1.727-13.741-2.925-12.005-4.651-16.23-10.832-33.603-22.065-6.759-4.365-11.699-7.787-15.203-10.33-.727-.515-1.39-1.006-1.997-1.458 1.646-7.59 14.5.095 26.365-.23 6.05 8.787 7.25 12.228 11.91 13.833 5.967 2.04 7.237-.337 11.08 5.225zM126.536 134.454c1.774.733 4.506 1.632 7.518 2.982-4.806 9.641-13.403 15.503-18.202 18.173.495-.992.473-2.162-.058-3.135l-3.83-6.818c-.32-.595-.824-1.073-1.435-1.363 4.053-2.148 9.822-6.04 13.007-11.903.862.87 1.88 1.57 3 2.064zM139.3 107.737c.074-1.375.008-2.754-.197-4.116-.083-3.638-3.74-9.468 8.182 3.823 5.814 6.493 18.298 25.488 21.195 28.814 2.898 3.326 5.649 6.913 6.983 10.736 2.004 5.678 1.914 8.742-6.613 6.085-5.348-1.675-5.24-2.236-7.263-12.323-.123-.928-.654-1.752-1.448-2.25-15.318-7.645-25.734-20.618-25.734-20.618.881-.598 1.656-1.339 2.291-2.192 1.89-2.447 2.477-5.525 2.604-7.959z" transform="translate(851 87) scale(-1 1) rotate(-36 60.719 627.758)"/>
                                    <path fill="#98C883" d="M58.118 46.07c-.115.447-.23.888-.357 1.277-1.835 6.127-5.562 8.846-8.36 10.04-1.142.517-2.363.84-3.612.957-7.405-7.225-22.748-24.336-25.685-27.565-2.938-3.23-9.392-5.151-10.597-7.244C6.283 17.848.988 10.259 2.97 11.159c3.625 1.634 5.097 5.744 8.08 7.168 2.981 1.423 3.345-3.14-2.027-8.63C3.652 4.21 4.658-1.65 4.658-1.65c5.257 4.685 11.73 8.067 14.898 12.765 3.167 4.697 6.416 13.402 6.416 13.402 16.669 8.91 32.146 21.554 32.146 21.554z" transform="translate(851 87) scale(-1 1) rotate(-36 60.719 627.758) matrix(0 1 1 0 1.981 -1.981)"/>
                                    <path fill="#1B3EE0" d="M161.581 211.611c-2.08.414-4.161.841-6.23 1.306h-.044c-.67 0-1.34.045-2.023.045-.737.074-1.475-.131-2.068-.574-.472-.496-.917-1.017-1.334-1.56-.421-.51-.861-1.001-1.32-1.479-1.88-1.89-3.893-3.64-6.026-5.238-2.1-1.644-4.346-3.084-6.465-4.778-2.125-1.675-4.075-3.56-5.82-5.627-3.472-4.157-6.113-8.939-7.78-14.088-1.75-5.097-2.726-10.38-4.34-15.464l.395-.134c2.961 4.728 4.716 9.953 6.931 14.56.536 1.165 1.11 2.3 1.723 3.39.613 1.089 1.181 2.185 1.838 3.217 1.317 2.048 2.78 4 4.379 5.837 1.648 1.803 3.404 3.505 5.259 5.097.472.402.97.803 1.43 1.166l.778.586.779.638c1.066.866 2.131 1.752 3.19 2.663 2.16 1.846 4.14 3.89 5.917 6.104.46.574.868 1.198 1.277 1.816.31.467.59.952.842 1.453 0 .032-.268-.032-.16.05.203.097.418.166.639.205.587.115 1.276.204 1.915.3l-.294.038c1.091-.07 2.176-.07 3.261-.064 1.085.006 2.19.064 3.28.108l.071.427z" transform="translate(851 87) scale(-1 1) rotate(-36 60.719 627.758)"/>
                                    <path fill="#7FBA6D" d="M200.232 207.023c-6.498.005-12.987.487-19.415 1.44-6.446.803-12.866 1.848-19.255 3.04l-.038-.204c3.033-1.29 6.17-2.326 9.375-3.097 3.181-.785 6.403-1.395 9.65-1.829 3.26-.423 6.542-.636 9.829-.637 3.318-.033 6.629.33 9.86 1.083l-.006.204z" transform="translate(851 87) scale(-1 1) rotate(-36 60.719 627.758)"/>
                                    <path fill="#E0C5AD" d="M161.473 211.445c-.753-.63-1.304-1.468-1.583-2.408-.276-1.057-.204-2.173.204-3.186.83-2.065 2.361-3.3 3.689-4.397 1.327-1.096 2.783-1.911 4.174-2.752 1.391-.841 2.732-1.689 4.263-2.702l.179.115c-.91 1.438-2.035 2.727-3.338 3.823-1.276 1.128-2.655 2.128-3.989 3.186-1.334 1.057-2.687 2.077-3.491 3.517-.755 1.498-.724 3.27.083 4.74l-.191.064z" transform="translate(851 87) scale(-1 1) rotate(-36 60.719 627.758)"/>
                                    <path fill="#98C883" d="M161.473 211.433c-.394-.763-.636-1.593-.715-2.447-.06-.867.128-1.733.542-2.498.83-1.53 2.208-2.619 3.53-3.67 2.693-2.014 5.552-3.957 7.384-6.824l.121.076c-.554 1.694-1.501 3.233-2.763 4.492-1.207 1.222-2.507 2.349-3.887 3.371-1.272.865-2.419 1.9-3.408 3.078-.836 1.09-.99 2.612-.677 4.358l-.127.064z" transform="translate(851 87) scale(-1 1) rotate(-36 60.719 627.758)"/>
                                    <path fill="#E0C5AD" d="M158.569 193.477c.382 1.376.72 2.759 1.053 4.148l-.345-.166c1.601-.766 3.297-1.318 5.042-1.644 1.739-.369 3.527-.446 5.291-.23l-.032.281c-.8.536-1.632 1.026-2.49 1.466-.771.388-1.499.745-2.24 1.038-.73.294-1.479.545-2.24.752-.744.224-1.503.394-2.272.51l-3.19.414.12-1.911.07-1.11c.034-.38.091-.76.173-1.133.078-.394.176-.783.294-1.166.136-.415.302-.82.498-1.211l.268-.038z" style="mix-blend-mode:multiply" transform="translate(851 87) scale(-1 1) rotate(-36 60.719 627.758)"/>
                                    <path fill="#E0C5AD" d="M64.327 82.352c.807 1.191 1.828 2.222 3.013 3.04 1.173.82 2.525 1.352 3.944 1.548 3.734.637 7.659.637 11.233-.638 1.781-.666 3.409-1.685 4.787-2.994 1.385-1.304 2.474-2.89 3.19-4.652l.199.07c-.247 2.056-1.087 3.995-2.42 5.582-1.35 1.658-3.079 2.97-5.041 3.823-1.954.838-4.053 1.284-6.178 1.313-2.054.046-4.103-.21-6.083-.758h.179c-.878-.169-1.724-.472-2.508-.899-.72-.396-1.388-.877-1.992-1.434-.58-.543-1.092-1.155-1.525-1.822-.414-.653-.745-1.355-.983-2.09l.185-.09z" transform="translate(851 87) scale(-1 1) rotate(-36 60.719 627.758)"/>
                                    <path fill="#DD3A18" d="M64.244 82.416c.907 1.113 2 2.061 3.23 2.803.604.366 1.246.665 1.915.892.627.236 1.284.384 1.952.44h.07c1.847.293 3.717.406 5.585.338 1.843-.071 3.665-.417 5.406-1.026 3.543-1.277 6.478-3.832 8.227-7.162-.537 1.888-1.522 3.62-2.872 5.046-1.37 1.457-3.04 2.598-4.895 3.346-1.857.737-3.83 1.138-5.827 1.185-1.966.05-3.93-.144-5.847-.58h.064c-.778-.124-1.534-.358-2.246-.695-.683-.32-1.326-.72-1.915-1.191-1.175-.922-2.144-2.08-2.847-3.396z" transform="translate(851 87) scale(-1 1) rotate(-36 60.719 627.758)"/>
                                    <g fill="#7FBA6D">
                                        <path d="M.501 12.967c-.204-.051-.28 0-.217 0 .028.144.077.284.147.414.157.289.332.568.523.835.364.56.753 1.115 1.155 1.663l2.458 3.237 2.355 3.357 1.155 1.74c.075.128.158.252.249.37.153.21.07.057.185.178.2.167.413.316.638.446 2.062 1.192 4.691 2.275 7.167 3.823.648.398 1.263.848 1.839 1.345.309.259.603.535.88.828l.715.765 2.776 2.994c3.594 4.002 7.225 8.048 10.665 12.247l5.221 6.27c1.66 2.166 3.421 4.237 5.106 6.423l-.147.153c-3.9-3.824-7.659-7.768-11.354-11.737l-11.08-11.999-2.738-3.033c-.865-1.03-1.88-1.927-3.012-2.657-2.24-1.522-4.774-2.548-7.02-4.135-.585-.395-1.061-.929-1.386-1.555l-1.034-1.752-2.131-3.485-2.113-3.492c-.344-.586-.676-1.179-.99-1.79-.158-.308-.297-.625-.414-.95-.077-.174-.11-.364-.096-.554.02-.14.148-.236.288-.217.095 0 .19.014.28.045l-.07.223z" transform="translate(851 87) scale(-1 1) rotate(-36 60.719 627.758) matrix(0 1 1 0 .27 .069)"/>
                                        <path d="M10.438 20.046c-.134.318-.41.554-.746.637-.338.088-.689.11-1.034.064-.134 0-.358-.083-.473-.109-.147-.034-.292-.079-.434-.133-.29-.109-.573-.241-.842-.395-.97-.6-1.834-1.359-2.553-2.243-.683-.835-1.276-1.644-1.876-2.466-.6-.822-1.2-1.58-1.972-2.466l.057-.128c2.004.86 3.453 2.55 4.831 4.155.656.83 1.391 1.594 2.196 2.281.41.33.863.602 1.347.81.453.254 1.016.209 1.423-.116l.076.109zM2.34.096c.493 1.733 1.169 3.41 2.016 5.001.399.737.84 1.45 1.321 2.135.454.697.96 1.36 1.513 1.982.268.331.51.637.836.975.342.365.666.748.97 1.147.623.815 1.156 1.695 1.59 2.625.466.959.772 1.988.905 3.045.059.552.03 1.108-.083 1.65-.083.579-.414 1.092-.906 1.409l-.153-.147c.562-.688.332-1.74.077-2.58-.296-.878-.706-1.714-1.22-2.485-1.06-1.535-2.265-2.965-3.599-4.27C4.372 9.13 3.415 7.46 2.786 5.659c-.634-1.792-.859-3.704-.657-5.594l.21.032z" transform="translate(851 87) scale(-1 1) rotate(-36 60.719 627.758) matrix(0 1 1 0 .27 .069)"/>
                                        <path d="M55.708 47.789l-8.24-5.098c-2.697-1.763-5.427-3.462-8.188-5.097-2.75-1.67-5.476-3.358-8.246-4.97-2.77-1.612-5.546-3.186-8.335-4.734l-.638-.35-.237-.638c-.963-2.632-2.1-5.257-3.19-7.831-.575-1.274-1.181-2.549-1.845-3.76-.595-1.193-1.314-2.32-2.145-3.364-1.704-2.09-3.931-3.893-6.114-5.734C6.28 4.333 4.151 2.31 2.16.159L2.3 0c2.17 1.912 4.5 3.581 6.83 5.282 2.386 1.635 4.61 3.494 6.644 5.55 1.991 2.141 3.28 4.779 4.57 7.347 1.289 2.568 2.393 5.25 3.433 7.946l-.095-.109c5.683 3.086 11.2 6.465 16.53 10.125C45.56 39.78 50.78 43.596 55.823 47.65l-.115.14z" transform="translate(851 87) scale(-1 1) rotate(-36 60.719 627.758) matrix(0 1 1 0 .27 .069)"/>
                                    </g>
                                    <path fill="#DA3919" d="M195.216 109.477c10.833 4.786 22.245 8.14 33.947 9.978l-.064.414c-12.074-.427-23.985-2.916-35.217-7.36-5.622-2.208-11.102-4.761-16.409-7.645-5.285-2.855-10.384-5.958-15.47-9.023l-7.494-4.715c-2.45-1.53-4.959-2.957-7.48-4.371-5.032-2.833-10.226-5.37-15.553-7.602-10.684-4.364-21.924-7.646-33.827-8.283v-.42c5.94-.412 11.906-.08 17.762.987 5.867 1.03 11.633 2.567 17.233 4.594 5.589 2.02 11.031 4.423 16.287 7.194" transform="translate(851 87) scale(-1 1) rotate(-36 60.719 627.758)"/>
                                    <path fill="#E0C5AD" d="M97.343 94.312c1.371.974 2.843 1.799 4.391 2.46 1.527.685 3.142 1.153 4.8 1.388h.146l.096.128c1.785 2.38 3.803 4.576 6.025 6.556 2.211 1.992 4.597 3.78 7.129 5.346 5.074 3.163 10.87 4.99 16.843 5.308v.427c-3.102 1.022-6.402 1.297-9.63.803-1.621-.255-3.22-.634-4.781-1.134-1.539-.548-3.043-1.186-4.506-1.912-2.867-1.541-5.498-3.486-7.812-5.773-2.347-2.28-4.324-4.91-5.86-7.799l1.947 1.192c-.976-.246-1.92-.61-2.808-1.083-.86-.426-1.676-.934-2.438-1.517-.746-.559-1.442-1.181-2.08-1.86-.645-.665-1.219-1.396-1.71-2.18l.248-.35zM65.738 74.954c-.083 1.181-.096 2.367-.038 3.55.096 1.102.51 2.153 1.193 3.026.734.894 1.545 1.721 2.425 2.472l2.553 2.549-.638-.261c1.816-.154 3.603-.546 5.316-1.166 1.75-.615 3.405-1.473 4.915-2.55 1.542-1.058 2.946-2.303 4.18-3.708 1.256-1.435 2.38-2.982 3.357-4.62l.102.046c-1.56 3.56-4.005 6.663-7.103 9.016-1.564 1.152-3.283 2.079-5.106 2.752-1.82.69-3.736 1.085-5.68 1.173h-.038l-2.515-2.549c-.874-.825-1.667-1.732-2.368-2.708-.706-.996-1.08-2.189-1.072-3.409.04-1.2.171-2.395.396-3.575l.12-.038z" transform="translate(851 87) scale(-1 1) rotate(-36 60.719 627.758)"/>
                                    <path fill="#DD3A18" d="M65.738 74.954c-.22 1.174-.348 2.362-.383 3.556.001 1.196.374 2.362 1.066 3.339.705.967 1.5 1.865 2.374 2.682l2.521 2.549h-.045c1.924-.1 3.82-.495 5.623-1.173 1.809-.66 3.515-1.571 5.068-2.708 3.09-2.321 5.534-5.392 7.103-8.92h.064c-.684 1.826-1.598 3.558-2.719 5.155-1.15 1.604-2.525 3.033-4.085 4.243-1.588 1.195-3.337 2.16-5.195 2.868-1.872.718-3.853 1.115-5.859 1.172h-.242l-.173-.178-2.489-2.587c-.863-.873-1.643-1.824-2.33-2.842-.713-1.058-1.059-2.32-.982-3.594.117-1.207.33-2.402.638-3.575l.045.013z" transform="translate(851 87) scale(-1 1) rotate(-36 60.719 627.758)"/>
                                    <path fill="#E2C9C7" d="M77.864 114.523l.338.204c2.016 1.17 4.279 1.85 6.606 1.988 2.334.146 4.678 0 6.976-.433l.051.28c-2.27.941-4.682 1.493-7.135 1.631-1.947.094-3.893-.17-5.744-.777l-1.092-2.893z" style="mix-blend-mode:multiply" transform="translate(851 87) scale(-1 1) rotate(-36 60.719 627.758)"/>
                                    <path fill="#DD3A18" d="M64.098 82.346l1.116-4.811.275.063c0 2.129-.185 4.244-.351 6.302l-1.04-1.554z" transform="translate(851 87) scale(-1 1) rotate(-36 60.719 627.758)"/>
                                    <path fill="#E0C5AD" d="M134.418 117.811c.689-1.083 1.26-2.237 1.704-3.44.21-.548.387-1.108.53-1.676.16-.557.288-1.123.383-1.695.226-1.161.392-2.333.497-3.511.109-1.179.192-2.46.256-3.613v-.548l-.051.331c.044-.293.095-.637.127-.98.032-.345 0-.734.077-1.122.077-.39.051-.79.128-1.211.033-.215.08-.428.14-.637.083-.198.166-.523.485-.637l.083.19c-.172.147-.09.638-.038.963.05.325.153.733.236 1.102.182.747.298 1.508.345 2.275.203 1.317.28 2.65.23 3.982-.037 1.334-.234 2.658-.588 3.945-.347 1.294-.896 2.526-1.627 3.65-.734 1.123-1.695 2.08-2.821 2.81l-.096-.178z" transform="translate(851 87) scale(-1 1) rotate(-36 60.719 627.758)"/>
                                    <path fill="#E0C5AD" d="M184.091 175.7c-1.531-1.721-3.114-3.403-4.8-4.99-2.488-2.357-5.08-4.613-7.773-6.767-2.688-2.175-5.515-4.173-8.463-5.983-1.48-.911-2.987-1.79-4.537-2.619-.78-.414-1.564-.822-2.368-1.217l-.211-.102c-1.536-5.252-4.572-9.944-8.737-13.502-2.275-1.964-4.812-3.604-7.538-4.874-2.564-1.22-5.21-2.256-7.92-3.103-1.277-.427-2.617-.758-3.766-1.115-.217-.065-.43-.141-.638-.23-.179-.068-.354-.147-.523-.235-.422-.24-.823-.512-1.2-.816-1.703-1.528-3.093-3.372-4.091-5.429-2.215-4.598-3.099-9.722-2.553-14.795l-.543-.147c-1.407 5.222-1.184 10.748.638 15.84.877 2.575 2.289 4.935 4.143 6.927.954.998 2.1 1.793 3.37 2.338 1.244.504 2.495.95 3.727 1.434 4.92 1.912 9.733 4.25 13.575 7.818 3.883 3.534 6.458 8.274 7.308 13.451l.044.268.268.12c2.972 1.355 5.84 2.926 8.578 4.703 2.757 1.767 5.436 3.65 8.036 5.646 3.56 2.756 6.957 5.718 10.173 8.87.697-.461 1.439-.85 2.215-1.16 1.189-.173 2.386-.284 3.586-.332z" style="mix-blend-mode:multiply" transform="translate(851 87) scale(-1 1) rotate(-36 60.719 627.758)"/>
                                    <path fill="#3555A2" d="M123.664 132.078c-1.8-1.91-3.18-4.174-4.053-6.646-1.821-4.974-2.08-10.385-.74-15.51l-.409-.107c-2.017 5.207-2.259 10.933-.69 16.292.773 2.86 2.185 5.507 4.13 7.742.147.166.294.325.447.478l1.315-2.25z" transform="translate(851 87) scale(-1 1) rotate(-36 60.719 627.758)"/>
                                    <path fill="#7FBA6D" d="M134.316 137.188c-1.245-.554-2.502-1.064-3.76-1.536l-3.72-1.408c-1.201-.496-2.287-1.234-3.191-2.166l-1.34 2.249c.402.413.828.802 1.276 1.166.348.268.713.515 1.091.74.348.214.708.407 1.079.579 1.276.599 2.489 1.128 3.689 1.644 1.091.459 2.163.95 3.19 1.465l1.686-2.733zM244.22 220.971c-1.095-.107-2.199-.083-3.288.07-1.176.082-2.358.03-3.523-.153-.596-.077-1.185-.203-1.761-.375-1.9-.531-3.603-1.608-4.895-3.097-1.489-1.779-2.74-3.743-3.721-5.843-1.025-2.016-1.865-4.121-2.509-6.29l.173-.12c1.276 1.816 2.502 3.657 3.727 5.505 1.17 1.871 2.471 3.657 3.893 5.346.715.819 1.555 1.52 2.49 2.077.959.53 1.982.937 3.044 1.21 1.061.29 2.143.504 3.235.638 1.12.08 2.215.368 3.23.848l-.096.184z" transform="translate(851 87) scale(-1 1) rotate(-36 60.719 627.758)"/>
                                    <path fill="#7FBA6D" d="M262.722 242.202c.197-.535-.198-1.02-.505-1.465-.358-.459-.755-.885-1.187-1.275-.83-.822-1.717-1.599-2.597-2.395-1.775-1.574-3.53-3.186-5.26-4.856-1.753-1.682-3.377-3.495-4.856-5.422-.707-.998-1.361-2.031-1.96-3.097-.537-1.041-1.257-1.978-2.125-2.765l.07-.128c1.04.626 1.94 1.457 2.649 2.44.683.982 1.416 1.929 2.195 2.836 1.577 1.79 3.3 3.46 5.01 5.136 1.71 1.676 3.421 3.351 5.106 5.097.824.873 1.64 1.759 2.38 2.708.38.47.717.97 1.01 1.498.255.503.6 1.185.21 1.765l-.14-.077z" transform="translate(851 87) scale(-1 1) rotate(-36 60.719 627.758)"/>
                                    <path fill="#7FBA6D" d="M198.298 205.373c2.77 1.542 5.432 3.186 8.183 4.734 2.75 1.549 5.38 3.237 8.092 4.805 2.713 1.567 5.419 3.275 8.068 5.002 2.648 1.726 5.195 3.638 7.729 5.518 5.035 3.823 9.784 7.767 15.12 10.71 2.715 1.474 5.525 2.766 8.411 3.868 1.423.614 2.878 1.15 4.36 1.606.734.225 1.482.404 2.24.535.721.188 1.48.188 2.201 0l.154.147c-.748.337-1.577.45-2.387.325-.79-.064-1.574-.177-2.35-.338-1.541-.329-3.064-.74-4.562-1.23-3.005-.954-5.941-2.11-8.789-3.46-5.712-2.746-10.646-6.747-15.669-10.5-5.022-3.753-10.135-7.424-15.426-10.832-5.29-3.41-10.454-7.01-15.496-10.75l.121-.14z" transform="translate(851 87) scale(-1 1) rotate(-36 60.719 627.758)"/>
                                    <path fill="#E0C5AD" d="M121.13 174.176l.294.364c1.845 2.283 3.873 4.414 6.063 6.372 4.334 3.925 9.172 7.26 14.385 9.914 5.49 2.756 11.315 4.791 17.328 6.053l-.982-3.759c-5.03-1.39-9.89-3.327-14.495-5.78-7.302-3.871-13.783-9.12-19.083-15.457-1.8-2.078-3.274-4.378-4.94-6.62-.472-.638-.957-1.275-1.449-1.88l2.879 10.793zM160.617 197.16c4.579.877 9.226 1.346 13.888 1.402l.358.254c.376.249.753.485 1.136.701.751.418 1.527.79 2.323 1.115 1.564.624 3.19 1.082 4.85 1.364 3.09.519 6.244.551 9.344.096.862.637 1.71 1.185 2.591 1.726 1.009.637 2.017 1.236 3.038 1.829l.25-.338c-1.864-1.401-3.74-2.822-5.477-4.358l-.076-.064h-.096c-3.07.18-6.149-.09-9.14-.803-1.482-.359-2.924-.869-4.301-1.522-1.375-.625-2.647-1.454-3.772-2.46l-.083-.076h-.102c-1.634-.115-3.272-.27-4.915-.466l-9.816 1.6z" style="mix-blend-mode:multiply" transform="translate(851 87) scale(-1 1) rotate(-36 60.719 627.758)"/>
                                    <path fill="#7FBA6D" d="M105.385 145.516c.472 1.14.785 2.447 1.276 3.638.512 1.303 1.133 2.561 1.857 3.76 1.18 1.838 2.537 3.556 4.053 5.129l3.223-2.256c-1.521-1.47-2.9-3.08-4.116-4.81-.651-1.013-1.215-2.079-1.685-3.186-.236-.561-.485-1.154-.709-1.727l-.37-1.007c-.14-.37-.293-.726-.46-1.07l-3.07 1.529z" transform="translate(851 87) scale(-1 1) rotate(-36 60.719 627.758)"/>
                                    <path fill="#E0C5AD" d="M198.133 205.424c-.162-1.415.456-2.807 1.614-3.638 1.185-.758 2.557-1.172 3.964-1.198 2.467-.059 4.93.211 7.327.803 2.31.548 4.55 1.127 6.771 1.784l6.797 1.911v.21c-4.754.147-9.433-.898-14.04-1.911-2.278-.582-4.598-.98-6.938-1.192-1.155-.113-2.319.07-3.383.53-1.02.555-1.727 1.55-1.915 2.695l-.197.006z" transform="translate(851 87) scale(-1 1) rotate(-36 60.719 627.758)"/>
                                    <path fill="#7FBA6D" d="M198.164 205.437c.193-1.207.93-2.26 1.998-2.855 1.097-.49 2.3-.696 3.498-.599 2.367.181 4.715.556 7.02 1.122 4.589 1.038 9.223 2.134 13.945 2.045v.14c-1.182.258-2.384.413-3.593.465-1.206 0-2.412-.044-3.612-.133-2.363-.227-4.709-.61-7.02-1.147-2.292-.517-4.551-1.09-6.74-1.383-1.038-.173-2.1-.12-3.115.153-1.028.376-1.834 1.192-2.195 2.224l-.186-.032z" transform="translate(851 87) scale(-1 1) rotate(-36 60.719 627.758)"/>
                                    <path fill="#E2C9C7" d="M110.548 144.229c1.085-1.134 2.202-2.11 3.306-3.065 1.104-.956 2.208-1.912 3.268-2.848 1.06-.937 2.132-1.912 3.191-2.88l3.191-3.09.128.063c-1.429 2.63-3.31 4.987-5.56 6.964-2.277 1.942-4.772 3.614-7.435 4.983l-.089-.127z" transform="translate(851 87) scale(-1 1) rotate(-36 60.719 627.758)"/>
                                    <path fill="#7FBA6D" d="M110.56 144.248c2.63-1.399 5.089-3.096 7.328-5.06 2.277-1.924 4.192-4.24 5.654-6.836l.09.05c-.804 2.983-2.764 5.544-5.042 7.577-2.294 2.041-5.025 3.532-7.985 4.358l-.044-.089z" transform="translate(851 87) scale(-1 1) rotate(-36 60.719 627.758)"/>
                                    <path fill="#E0C5AD" d="M115.884 155.545c3.79-2.13 7.284-4.746 10.396-7.78 3.148-2.994 5.767-6.497 7.749-10.36l.12.063c-.28 1.09-.644 2.154-1.09 3.186-.48 1-1.028 1.976-1.603 2.938-1.193 1.897-2.609 3.644-4.218 5.205-3.179 3.15-7.052 5.51-11.31 6.895l-.044-.147z" transform="translate(851 87) scale(-1 1) rotate(-36 60.719 627.758)"/>
                                    <path fill="#7FBA6D" d="M115.89 155.564c.849-.713 1.73-1.338 2.553-2.051.823-.714 1.698-1.326 2.508-2.033 1.665-1.346 3.26-2.775 4.78-4.282 1.555-1.458 3.018-3.011 4.379-4.651.708-.803 1.372-1.644 2.01-2.51.638-.867 1.277-1.734 1.96-2.613l.095.05c-1.962 3.902-4.568 7.446-7.71 10.482-3.153 3.015-6.687 5.607-10.511 7.71l-.064-.102z" transform="translate(851 87) scale(-1 1) rotate(-36 60.719 627.758)"/>
                                    <path fill="#E0C5AD" d="M61.551 74.062c.638.37 1.276.72 1.966 1.058 1.219.646 2.53 1.102 3.887 1.35.728.131 1.473.131 2.202 0 .39-.083.766-.223 1.116-.413l.434-.287.39-.287c1.04-.758 2.042-1.574 3.05-2.377l-.108-.184-3.28 2.013c-1.03.754-2.36.967-3.575.574-2.45-.638-4.62-2.129-6.72-3.556l-.696-.49 1.334 2.6z" style="mix-blend-mode:multiply" transform="translate(851 87) scale(-1 1) rotate(-36 60.719 627.758)"/>
                                    <path fill="#E9C28D" d="M71.852 46.752l1.104.86c.307-.26.638-.51.945-.739.72-.539 1.49-1.01 2.297-1.408.818-.413 1.694-.7 2.598-.854.941-.214 1.91-.28 2.872-.197l.058-.127" transform="translate(851 87) scale(-1 1) rotate(-36 60.719 627.758)"/>
                                    <path fill="#4F3323" d="M88.95 49.002c1.718 1.034 2.875 2.788 3.147 4.772.094 1.072-.098 2.149-.555 3.122-.446.919-1.038 1.758-1.756 2.485-1.366 1.328-2.982 2.374-4.754 3.078-.868.338-1.736.637-2.617.898-.898.214-1.811.355-2.732.421l-.045-.134c1.681-.575 3.31-1.291 4.87-2.14 1.568-.827 3.008-1.874 4.276-3.11 1.239-1.224 2.228-2.83 2.202-4.6-.025-1.772-.995-3.384-2.144-4.722l.108-.07z" transform="translate(851 87) scale(-1 1) rotate(-36 60.719 627.758)"/>
                                    <path fill="#593A29" d="M99.934 63.638c.096 2.177-.443 4.335-1.55 6.212-1.08 1.865-2.478 3.527-4.13 4.913l-.147-.153c.262-1.098.638-2.166 1.123-3.186.409-.936.888-1.758 1.277-2.6.255-.395.479-.809.702-1.217.223-.407.46-.815.747-1.217.504-.834 1.06-1.669 1.736-2.727l.242-.025z" transform="translate(851 87) scale(-1 1) rotate(-36 60.719 627.758)"/>
                                    <path fill="#472A18" d="M72.35 48.256c.892-.631 2.028-.808 3.07-.478 1.021.249 1.666 1.134 2.297 1.823.629.69 1.173 1.45 1.622 2.268.433.796.782 1.635 1.04 2.504l-.25.134c-.671-.546-1.31-1.131-1.914-1.752-.798-.841-.976-1.173-1.812-1.912-.487-.446-1.007-.853-1.558-1.217-.23-.153-.408-.274-.638-.414-.453-.242-.638-.293-1.155-.535-.185-.115-.428-.242-.702-.42z" transform="translate(851 87) scale(-1 1) rotate(-36 60.719 627.758)"/>
                                    <path fill="#D7B6B4" d="M81.694 64.51c.79-.109 1.597.025 2.31.383.42.234.788.553 1.079.937.328.465.52 1.012.555 1.58.039 1.043-.298 2.065-.951 2.88-.545.67-1.204 1.24-1.947 1.682-1.455.746-3.19 1.275-5.157.51-.5-.218-.938-.555-1.276-.981-.314-.41-.514-.896-.58-1.409-.08-.825.163-1.648.676-2.3h.21c-.093.643-.03 1.299.185 1.912.21.577.685 1.017 1.277 1.185 1.258.224 2.555-.04 3.625-.74 1.072-.636 2.164-1.573 2.266-2.803.007-.618-.262-1.206-.734-1.605-.478-.431-1.023-.78-1.615-1.033l.077-.197z" transform="translate(851 87) scale(-1 1) rotate(-36 60.719 627.758)"/>
                                    <path fill="#C89969" d="M67.276 63.166c-.13.562-.39 1.086-.76 1.53-.311.374-.685.693-1.104.943-.422.243-.885.409-1.365.49-.567.109-1.15.083-1.705-.076l-.07-.121 2.432-1.504 2.502-1.383.07.121zM57.85 57.483c.002.385.14.757.389 1.05.2.343.45.655.74.925l-.096.102c-.34.198-.74.27-1.13.204-.288-.068-.538-.247-.695-.497-.083-.142-.141-.298-.172-.46l.963-1.324z" transform="translate(851 87) scale(-1 1) rotate(-36 60.719 627.758)"/>
                                    <path fill="#E9C28D" d="M57.817 57.476c.086.094.182.177.288.249.066.068.138.13.217.185.134.108.197.242.325.356.128.115.166.287.21.485.072.237.104.485.096.732l-.044.051c-.319-.26-.598-.565-.83-.904-.242-.348-.352-.77-.313-1.192l.051.038z" transform="translate(851 87) scale(-1 1) rotate(-36 60.719 627.758)"/>
                                    <path fill="#E2C9C7" d="M105.646 145.287c.345-.338.696-.638 1.06-.956.191-.153.338-.287.568-.465.204-.173.432-.317.676-.427 1.085-.478 2.327-.443 3.383.095.556.266 1.04.661 1.41 1.154l.269.382.185.287.376.586 1.417 2.383 1.277 2.453.638 1.306c.128.277.222.568.28.867.055.298.074.602.058.905-.037 1.175-.579 2.278-1.487 3.026-.431.294-.91.51-1.417.638-.448.157-.904.291-1.366.4l-.07-.12c.825-.405 1.605-.894 2.33-1.46.642-.646.977-1.537.919-2.446 0-.918-.581-1.676-1.028-2.485l-1.372-2.415-1.347-2.428c-.23-.395-.44-.822-.683-1.191-.254-.37-.585-.68-.97-.911-.78-.469-1.723-.59-2.597-.332-.844.371-1.663.797-2.451 1.275l-.058-.121z" transform="translate(851 87) scale(-1 1) rotate(-36 60.719 627.758)"/>
                                    <path fill="#4F3323" d="M107.44 66.499c-.635.578-1.502.832-2.349.688-.814-.063-1.618-.226-2.393-.484-1.477-.549-2.881-1.276-4.18-2.167l-.964-.637c-.336-.263-.656-.53-.958-.803-.597-.541-1.164-1.116-1.697-1.72-.992-1.198-1.903-2.46-2.726-3.779-1.576-2.593-2.89-5.18-4.384-7.531-1.494-2.351-3.28-4.416-6.108-5.582v-.21c3.019.433 5.552 2.434 7.371 4.766 1.82 2.332 3.3 4.95 4.883 7.449 1.583 2.497 3.242 4.97 5.584 6.773 1.139.937 2.363 1.765 3.657 2.472.643.349 1.327.616 2.036.797.679.226 1.42.169 2.056-.16l.172.128z" transform="translate(851 87) scale(-1 1) rotate(-36 60.719 627.758)"/>
                                    <path fill="#804D37" d="M107.465 66.524c-.689.403-1.517.496-2.278.255-.737-.176-1.449-.444-2.119-.796-1.326-.697-2.58-1.52-3.746-2.46-2.42-1.803-4.194-4.3-5.776-6.805-1.583-2.504-2.943-5.155-4.749-7.48-1.806-2.326-4.187-4.282-7.123-4.741l.045-.28c1.64-.235 3.311.02 4.806.732 1.499.728 2.856 1.716 4.008 2.918 1.097 1.13 2.095 2.35 2.98 3.652.869 1.274 1.628 2.548 2.426 3.72.798 1.173 1.474 2.403 2.253 3.492.376.555.766 1.09 1.18 1.587l.639.701.715.771c.964 1.008 1.98 1.965 3.044 2.867.509.448 1.06.845 1.647 1.185.285.167.59.3.906.396.308.121.646.15.97.082l.172.204z" transform="translate(851 87) scale(-1 1) rotate(-36 60.719 627.758)"/>
                                    <path fill="#84523D" d="M81.483 44.37c-.135-2.305.08-4.617.638-6.857.29-1.157.843-2.231 1.615-3.141.847-.938 2.093-1.412 3.35-1.274 1.185.156 2.323.563 3.339 1.191 1.009.573 1.958 1.246 2.833 2.007 1.737 1.533 3.22 3.33 4.391 5.327 2.235 4.03 3.708 8.437 4.347 12.999.402 2.268.319 4.568 1.276 6.588.87 2.056 2.335 3.807 4.206 5.028l-.204.37c-2.515-.679-4.686-2.27-6.089-4.461-.732-1.169-1.279-2.443-1.62-3.779-.333-1.191-.543-2.147-.875-3.186-.67-2.045-1.226-4.084-2.049-5.983-.692-1.882-1.569-3.692-2.617-5.403-.914-1.643-2.062-3.146-3.408-4.46-.319-.332-.638-.638-.996-.95l-.46-.388c-.171-.14-.446-.325-.67-.485-.546-.396-1.127-.743-1.735-1.038-.409-.14-.409-.293-.92-.09-.674.446-1.207 1.073-1.537 1.81-1.009 1.74-1.66 3.944-2.387 6.187l-.428-.013z" transform="translate(851 87) scale(-1 1) rotate(-36 60.719 627.758)"/>
                                    <path fill="#E7BD84" d="M81.694 64.543c.624.235 1.203.578 1.71 1.013.54.44.851 1.1.849 1.797-.109 1.42-1.277 2.42-2.374 3.096-1.157.72-2.545.97-3.88.701-.671-.199-1.204-.71-1.43-1.37-.198-.641-.242-1.32-.128-1.981h.14c.1.612.319 1.198.645 1.726.244.343.633.552 1.053.567 1.014-.02 2.003-.317 2.86-.86.851-.398 1.544-1.071 1.965-1.911.107-.419.015-.863-.249-1.205-.365-.526-.794-1.005-1.276-1.427l.115-.146z" transform="translate(851 87) scale(-1 1) rotate(-36 60.719 627.758)"/>
                                    <path fill="#E0C5AD" d="M90.488 78.63c1.04-3.026 3.356-5.446 6.338-6.62 1.595-.543 3.287-.744 4.966-.592 1.647.179 3.257.609 4.773 1.274 2.962 1.357 5.58 3.363 7.66 5.869 2.055 2.496 3.582 5.384 4.486 8.487l-1.57-1.657c.714.275 1.413.588 2.093.937.639.325 1.277.637 1.877 1.013 1.214.695 2.382 1.468 3.497 2.313 2.22 1.635 4.292 3.462 6.191 5.46 1.894 1.96 3.625 4.07 5.176 6.309 1.529 2.231 2.888 4.574 4.066 7.009l-.23.166c-3.055-4.323-6.564-8.307-10.467-11.884-1.95-1.78-4.024-3.421-6.204-4.913-2.154-1.509-4.47-2.774-6.905-3.772l-.14-.05-.039-.128c-.823-2.765-2.168-5.348-3.963-7.608-1.77-2.282-4.004-4.163-6.555-5.518-2.553-1.275-5.527-1.97-8.297-1.236-2.77.732-5.055 2.822-6.485 5.307l-.268-.165z" transform="translate(851 87) scale(-1 1) rotate(-36 60.719 627.758)"/>
                                    <path fill="#9CB9E1" d="M123.415 91.38c2.183 1.526 4.257 3.2 6.21 5.01 3.89 3.626 7.382 7.657 10.416 12.023l-.23.165c-1.947-1.86-3.746-3.784-5.744-5.518-1.998-1.733-3.9-3.466-5.904-5.097-2.004-1.631-4.084-3.11-6.229-4.46-1.079-.638-2.157-1.275-3.242-1.912-.549-.293-1.098-.573-1.647-.835-.549-.26-1.161-.516-1.55-.637l-1.194-.408-.396-1.274c-.743-2.48-1.926-4.806-3.491-6.869-1.538-2.1-3.472-3.879-5.693-5.237-1.08-.665-2.251-1.165-3.478-1.485-1.202-.348-2.464-.437-3.702-.261-1.301.159-2.548.614-3.644 1.331-.581.374-1.126.8-1.628 1.275-.542.48-1.048 1-1.513 1.554l-.242-.146c1.423-2.549 3.72-4.76 6.638-5.505 2.916-.746 5.993-.115 8.603 1.198 2.624 1.364 4.927 3.268 6.759 5.588 1.862 2.296 3.254 4.935 4.097 7.767" transform="translate(851 87) scale(-1 1) rotate(-36 60.719 627.758)"/>
                                    <path fill="#E0C5AD" d="M138.72 99.052c.478-.114.765.16 1.065.3.3.14.568.37.843.573.542.395 1.06.822 1.57 1.275 1.002.873 1.966 1.778 2.93 2.682l2.859 2.753c.963.937 1.914 1.912 2.782 2.912 3.466 4.04 6.676 8.226 9.906 12.4 1.614 2.083 3.19 4.186 4.748 6.308 1.557 2.121 3.127 4.269 4.685 6.148.766.854 1.742 1.988 2.553 3.027.81 1.039 1.691 2.186 2.47 3.37.796 1.204 1.5 2.465 2.106 3.773.586 1.33 1.069 2.705 1.442 4.11.215.792.351 1.603.409 2.421.114 1.211-.178 2.426-.83 3.454-.437.628-1.031 1.13-1.723 1.459-.54.256-1.118.421-1.71.49-.879.092-1.765.069-2.637-.07-1.437-.236-2.852-.59-4.231-1.057-1.277-.453-2.732-.784-4.353-2.078-.756-.642-1.367-1.437-1.793-2.332-.34-.727-.612-1.484-.81-2.262-.377-1.414-.639-2.727-.862-4.04l-.67-3.733c-.027-.133-.07-.261-.128-.383-.051-.108-.096-.153-.083-.178-.175-.12-.358-.227-.549-.319l-.894-.51c-4.63-2.729-8.966-5.93-12.937-9.55-1.948-1.836-3.805-3.747-5.571-5.736-1.789-1.961-3.438-4.045-4.934-6.238l.224-.178c3.399 4.003 7.156 7.689 11.226 11.01 4.038 3.358 8.407 6.298 13.04 8.775.586.318 1.154.548 1.773.936.549.451.944 1.062 1.13 1.746.313 1.306.536 2.587.81 3.874.275 1.287.537 2.549.9 3.823.364 1.275.837 2.485 1.826 3.263 1.066.717 2.25 1.243 3.497 1.554 1.237.406 2.505.71 3.792.912.633.1 1.276.118 1.914.05.59-.03 1.137-.313 1.5-.777.606-.987.294-2.396 0-3.613-1.2-5.097-4.519-9.36-7.94-13.317-3.19-4.199-6.114-8.57-9.158-12.858-3.045-4.288-6.05-8.602-9.286-12.744-1.596-2.077-3.383-4.001-5.151-5.945-.893-.968-1.787-1.911-2.712-2.86-.46-.466-.926-.931-1.417-1.364-.243-.21-.492-.427-.747-.637-.255-.21-.568-.395-.766-.338l-.108-.28z" transform="translate(851 87) scale(-1 1) rotate(-36 60.719 627.758)"/>
                                    <path fill="#7FBA6D" d="M176.35 153.105c-.368.54-.948.9-1.596.987-.623.097-1.257.108-1.883.032-1.233-.162-2.45-.43-3.638-.803-1.205-.319-2.374-.758-3.49-1.312-1.11-.649-1.939-1.687-2.324-2.912-.724-2.369-1.301-4.78-1.73-7.22-.096-.597-.237-1.187-.42-1.764-.189-.548-.552-1.018-1.035-1.338-1.066-.555-2.195-1.128-3.261-1.74-4.298-2.478-8.357-5.347-12.126-8.57-3.78-3.199-7.282-6.711-10.467-10.5l.166-.128c1.876 1.637 3.689 3.294 5.629 4.81 1.94 1.517 3.83 3.078 5.744 4.55 3.844 2.935 7.88 5.61 12.082 8.01l1.57.879.778.42.415.217c.18.087.355.185.523.293.868.561 1.524 1.395 1.864 2.37.23.684.39 1.388.479 2.103.402 2.415.778 4.925 1.34 7.009.192.908.715 1.711 1.468 2.256.982.6 2.024 1.097 3.108 1.484 1.093.488 2.227.878 3.39 1.166.56.141 1.138.206 1.716.191.573.02 1.127-.213 1.513-.637l.185.147z" transform="translate(851 87) scale(-1 1) rotate(-36 60.719 627.758)"/>
                                    <path fill="#7FBA6D" d="M138.732 99.084c.466-.076.734.223 1.028.402.283.21.556.436.817.675.523.465 1.021.956 1.519 1.453.983.988 1.915 2.007 2.885 3.033 1.914 2.045 3.778 4.123 5.476 6.372 3.42 4.41 6.644 8.971 9.873 13.52l4.8 6.857c.804 1.134 1.614 2.275 2.444 3.383.83 1.11 1.762 2.141 2.642 3.237 1.809 2.149 3.36 4.501 4.621 7.01.593 1.27 1.073 2.59 1.436 3.943.196.676.335 1.366.415 2.065.107.718-.008 1.452-.332 2.103l-.185-.109c.213-.628.224-1.308.032-1.943-.149-.652-.35-1.291-.6-1.912-.485-1.265-1.076-2.486-1.768-3.65-1.378-2.325-3.018-4.485-4.889-6.436l-1.417-1.498c-.51-.516-.989-1.127-1.43-1.669-.893-1.115-1.742-2.23-2.59-3.345-1.673-2.25-3.275-4.537-4.902-6.793L149.155 112c-.779-1.14-1.577-2.268-2.4-3.339l-2.598-3.256c-.842-1.115-1.685-2.224-2.553-3.3-.44-.542-.887-1.07-1.346-1.58-.224-.262-.453-.517-.696-.752-.242-.236-.517-.504-.766-.485l-.064-.204z" transform="translate(851 87) scale(-1 1) rotate(-36 60.719 627.758)"/>
                                    <path fill="#7FBA6D" d="M134.437 117.843c2.142-1.553 3.647-3.828 4.238-6.404.632-2.548.766-5.194.396-7.792-.037-.75-.137-1.497-.3-2.23-.07-.376-.154-.746-.211-1.122-.03-.192-.047-.386-.051-.58-.03-.217.055-.433.223-.573l.058.127c-.115.236.096.637.217.956l.44 1.051c.308.753.522 1.54.638 2.345v-.14c.36 1.357.53 2.757.505 4.16-.013 1.413-.228 2.816-.639 4.168-.423 1.375-1.108 2.656-2.016 3.772-.904 1.098-2.091 1.926-3.434 2.396l-.064-.134z" transform="translate(851 87) scale(-1 1) rotate(-36 60.719 627.758)"/>
                                </g>
                                <g>
                                    <path fill="#F9CFB2" d="M4.397 5.875c.288-.35.46-.402.575-.943.068-.458-.027-.924-.268-1.32C4.08 2.317 2.995 1.299 1.659.759L.887.427.127.096.084.33c.079 1.204.46 2.367 1.11 3.384.271.362.568.705.888 1.026.214.21.44.408.676.592.564.401 1.157.759 1.774 1.07-.108-.26-.197-.458-.134-.528zm-.81-.344c-.828-.66-1.578-1.413-2.234-2.243-.38-.475-.695-.998-.938-1.555C.268 1.39-.045.675.185.46c.102-.052.223-.052.326 0 .64.217 1.247.519 1.806.898.318.216.611.466.874.746.551.544.986 1.194 1.277 1.911.162.534.095 1.11-.185 1.593-.032-.009-.065-.009-.096 0-.023-.008-.048-.008-.07 0-.077.077-.288-.108-.53-.076z" style="mix-blend-mode:multiply" transform="translate(851 87) scale(-1 1) rotate(-36 60.719 627.758) translate(70.844 49.709)"/>
                                    <g fill="#FFF">
                                        <path d="M1.225.803c.862.36 1.653.868 2.336 1.504.147.153.281.3.447.503.525.522.802 1.243.76 1.982-.119.423-.338.812-.639 1.134-1.041-.543-1.948-1.312-2.655-2.25C.835 2.84.38 1.879.14.855V.49" transform="translate(851 87) scale(-1 1) rotate(-36 60.719 627.758) translate(70.844 49.709)"/>
                                        <path d="M4.212 5.518c.502-.672.47-1.6-.076-2.237-.629-.91-1.464-1.659-2.438-2.185-.21-.07-1.404-.261-1.392 0 .048.22.118.433.211.637.28.534.597 1.047.95 1.536.62.91 1.794 2.287 2.745 2.249z" transform="translate(851 87) scale(-1 1) rotate(-36 60.719 627.758) translate(70.844 49.709)"/>
                                    </g>
                                    <g>
                                        <path fill="#1A0909" d="M.677.217C.397.4.202.69.14 1.019c-.063.33.011.67.205.944.186.283.478.482.811.55.333.068.68 0 .963-.187.281-.182.476-.47.54-.798.063-.328-.01-.668-.202-.942C2.272.3 1.98.1 1.644.03 1.31-.04.961.027.677.217z" transform="translate(851 87) scale(-1 1) rotate(-36 60.719 627.758) translate(70.844 49.709) translate(1.276 1.912)"/>
                                        <path fill="#5C8AC7" d="M2.38.637c.179.25.247.561.189.862-.058.301-.237.565-.495.731-.54.35-1.26.208-1.627-.318C.27 1.66.205 1.349.264 1.049c.06-.3.238-.564.495-.73C1.297-.03 2.015.11 2.381.637z" transform="translate(851 87) scale(-1 1) rotate(-36 60.719 627.758) translate(70.844 49.709) translate(1.276 1.912)"/>
                                        <path fill="#060508" d="M2.03 1.765c-.133.15-.32.24-.52.248-.2.009-.395-.065-.54-.203C.657 1.525.631 1.042.913.726c.132-.15.32-.24.52-.248.2-.008.395.065.54.204.312.284.338.767.057 1.083z" transform="translate(851 87) scale(-1 1) rotate(-36 60.719 627.758) translate(70.844 49.709) translate(1.276 1.912)"/>
                                        <path fill="#FFFAE4" d="M2.08 1.198c-.102.12-.102.295 0 .414.048.052.115.082.186.082.07 0 .138-.03.185-.082.102-.12.102-.295 0-.414-.047-.053-.115-.082-.185-.082-.07 0-.138.03-.185.082z" transform="translate(851 87) scale(-1 1) rotate(-36 60.719 627.758) translate(70.844 49.709) translate(1.276 1.912)"/>
                                        <path fill="#94BCE4" d="M.568 1.058c-.078.351.061.716.355.925.293.21.684.224.992.037v.204c-.383.21-.858.16-1.187-.128-.315-.253-.45-.668-.345-1.057 0 0 .185-.007.185.019zM1.225.312C.932.404.697.625.587.912L.485.841c.083-.335.397-.559.74-.53z" transform="translate(851 87) scale(-1 1) rotate(-36 60.719 627.758) translate(70.844 49.709) translate(1.276 1.912)"/>
                                    </g>
                                </g>
                            </g>
                            <g fill="#FFF">
                                <path d="M15.656 2.695l.172-.223L17.105.816c.16-.337.511-.542.884-.516.373.025.693.274.808.63.114.355 0 .744-.288.982l-1.226 1.612.722.809c.223.242.453.49.638.739.169.182.258.425.246.673-.012.248-.124.48-.31.646-.18.161-.42.241-.662.22-.241-.02-.464-.139-.615-.328l-1.455-1.619c-.044-.057-.102-.108-.178-.191v.185c0 .382 0 .758.044 1.14.039.497-.332.93-.83.969-.496.039-.93-.332-.97-.828v-.083c-.057-1.453-.127-2.912-.178-4.365-.023-.321.127-.63.394-.81.267-.18.61-.204.9-.064.29.141.483.426.506.747 0 .433.038.866.057 1.274l.064.057zM4.653 2.217c.018-.357.007-.715-.032-1.07-.004-.213-.114-.41-.293-.526-.18-.115-.405-.133-.6-.048-.143.086-.246.223-.288.383-.268.752-.16 1.523-.179 2.638 0 .554-.044.79-.153.822-.108.032-.332-.274-.447-.446-.192-.305-.334-.638-.42-.988-.205-.777-.18-.962-.345-1.6C1.73.747 1.596.3 1.366.224.896.183.474.51.396.975c0 .108.05.14.255.535.057.108 0 0 .268.542.134.274.364.732.638 1.274l.639 1.179c0 .05.12.223.23.452l.19.402.11.23c.186.317.524.515.893.522.601-.082 1.043-.605 1.02-1.211M11.124 7.085c-.931.037-1.835-.324-2.483-.993-.648-.67-.98-1.583-.912-2.511.048-1.052.605-2.014 1.494-2.58.889-.568 1.998-.667 2.974-.268.337.142.646.342.912.592.227.193.335.492.284.785-.051.293-.254.538-.533.643-.291.112-.62.059-.861-.14l-.077-.07c-.791-.874-1.876-.479-2.215.547-.235.65-.114 1.374.32 1.912.216.31.57.498.949.505.38.006.738-.17.965-.473.17-.232.43-.38.715-.408.29-.028.573.1.743.337.17.236.2.545.08.81-.154.335-.408.616-.727.803-.485.318-1.048.494-1.628.51zM7.218 3.95c0 .733.07 1.472.09 2.212.017.41-.245.78-.638.898-.377.12-.789-.022-1.009-.35-.096-.16-.153-.338-.166-.523-.07-1.44-.127-2.88-.185-4.32-.012-.323.149-.629.423-.801.274-.173.62-.186.906-.035.287.15.471.443.484.766 0 .714.057 1.434.089 2.154h.006zM19.358 3.44c0-.713-.064-1.433-.09-2.153-.04-.335.112-.665.392-.855.28-.19.643-.207.94-.046.298.16.48.474.474.812.07 1.453.128 2.905.185 4.365.033.457-.282.866-.733.953-.451.086-.896-.179-1.034-.616-.028-.108-.043-.22-.045-.331-.032-.707-.058-1.415-.09-2.128z" transform="translate(851 87) scale(-1 1) rotate(-36 60.719 627.758) translate(65.738 98.135)"/>
                            </g>
                        </g>
                        <g>
                            <path fill="#2149FE" d="M6.54 26.505h22.49c2.21 0 4-1.79 4-4V6.942H2.54v15.563c0 2.21 1.792 4 4 4z" transform="translate(851 87) translate(324.064 130.116) matrix(-1 0 0 1 35.571 0)"/>
                            <path fill="#1632B2" d="M2.541 8.835L33.031 8.835 33.031 6.942 2.541 6.942z" transform="translate(851 87) translate(324.064 130.116) matrix(-1 0 0 1 35.571 0)"/>
                            <path fill="#2149FE" d="M1 6.942h32.936c.553 0 1-.448 1-1V1c0-.552-.447-1-1-1H1C.448 0 0 .448 0 1v4.942c0 .552.448 1 1 1z" transform="translate(851 87) translate(324.064 130.116) matrix(-1 0 0 1 34.936 0)"/>
                            <path fill="#8CC27B" d="M8.893 4.418L26.043 4.418 26.043 2.524 8.893 2.524z" transform="translate(851 87) translate(324.064 130.116) matrix(-1 0 0 1 34.936 0)"/>
                        </g>
                    </g>
                </g>
            </g>
        </g>
    </g>
</svg>
