<svg xmlns="http://www.w3.org/2000/svg" xmlns:xlink="http://www.w3.org/1999/xlink" width="1743" height="851" viewBox="0 0 1743 851">
    <defs>
        <path id="vvqmei5jxa" d="M31 0h1681c17.12 0 31 13.88 31 31v637.548c0 13.873-9.217 26.058-22.567 29.831l-535.77 151.452c-2.744.776-5.582 1.169-8.433 1.169H31c-17.12 0-31-13.88-31-31V31C0 13.88 13.88 0 31 0z"/>
        <path id="3xf63r3ttc" d="M0.619 0.102L160.62 0.102 160.62 355.737 0.619 355.737z"/>
    </defs>
    <g fill="none" fill-rule="evenodd">
        <g>
            <g transform="translate(-88 -168) translate(88 168)">
                <mask id="2yo7u15pwb" fill="#fff">
                    <use xlink:href="#vvqmei5jxa"/>
                </mask>
                <use fill="#1D3461" xlink:href="#vvqmei5jxa"/>
                <path fill="#FB3640" d="M1364 0H1743V1323H1364z" mask="url(#2yo7u15pwb)"/>
                <g mask="url(#2yo7u15pwb)">
                    <g>
                        <path fill="#D02A33" d="M598 248L820 248 820 52 598 52z" transform="translate(903 87) matrix(-1 0 0 1 1418 0)"/>
                        <path fill="#D02A33" d="M677 467L820 467 820 266 677 266z" transform="translate(903 87) matrix(-1 0 0 1 1497 0)"/>
                        <path fill="#6A6A6A" d="M632 701L648 701 648 644 632 644z" transform="translate(903 87) matrix(-1 0 0 1 1280 0)"/>
                        <g>
                            <path fill="#3E3E3E" d="M208.956 637.588H125.38c-8.592 0-15.557-6.968-15.557-15.565s6.965-15.565 15.557-15.565h83.577c8.592 0 15.557 6.968 15.557 15.565s-6.965 15.565-15.557 15.565" transform="translate(903 87) matrix(-1 0 0 1 807 0)"/>
                            <path fill="#3E3E3E" d="M152.192 650.667L181.847 650.667 181.847 630.312 152.192 630.312z" transform="translate(903 87) matrix(-1 0 0 1 807 0)"/>
                            <path fill="#1C2E34" d="M152.192 781.038L181.847 781.038 181.847 691.927 152.192 691.927z" transform="translate(903 87) matrix(-1 0 0 1 807 0)"/>
                            <path fill="#3E3E3E" d="M270.716 624.17c-63.398 0-114.975-51.61-114.975-115.04V368.193c0-8.025 6.501-14.527 14.52-14.527 8.018 0 14.52 6.502 14.52 14.527v140.935c0 47.414 38.55 85.984 85.935 85.984 8.018 0 14.519 6.503 14.519 14.529 0 8.025-6.501 14.527-14.52 14.527" transform="translate(903 87) matrix(-1 0 0 1 807 0)"/>
                            <path fill="#000" d="M170.261 353.666L15.236 353.666 24.663 467.476 20.141 553.077 97.462 602.333 115.69 624.169 270.716 624.169 228.579 597.442 197.155 561.807 184.584 554.12 174.109 484.945 173.41 401.795z" transform="translate(903 87) matrix(-1 0 0 1 807 0)"/>
                            <path fill="#1E1E1E" d="M257 595.137L116 595.137 116 624.169 256.608 624.169z" transform="translate(903 87) matrix(-1 0 0 1 807 0)"/>
                            <path fill="#3E3E3E" d="M115.69 624.17C52.293 624.17.716 572.56.716 509.13V368.193c0-8.025 6.501-14.527 14.52-14.527 8.018 0 14.52 6.502 14.52 14.527v140.935c0 47.414 38.55 85.984 85.934 85.984 8.018 0 14.52 6.503 14.52 14.529 0 8.025-6.502 14.527-14.52 14.527" transform="translate(903 87) matrix(-1 0 0 1 807 0)"/>
                            <path fill="#FFB0A0" d="M365.158 789.784L363.931 706.504 321.684 704.26 322.848 793.71 363.594 793.969z" transform="translate(903 87) matrix(-1 0 0 1 807 0)"/>
                            <path fill="#566076" d="M210.92 512.965l19.808 16.6c-5.78 35.445-24.876 67.629 11.018 67.629h63.643v146.422l71.412.955 3.986-179.383c.534-28.524-22.397-51.952-50.91-52.014l-118.957-.21z" transform="translate(903 87) matrix(-1 0 0 1 807 0)"/>
                            <path fill="#70BA8E" d="M300.866 744.571L383.02 744.571 383.02 716.861 300.866 716.861z" transform="translate(903 87) matrix(-1 0 0 1 807 0)"/>
                            <path fill="#FFB0A0" d="M250.758 789.784L249.531 706.504 207.284 704.26 208.448 793.71 249.194 793.969z" transform="translate(903 87) matrix(-1 0 0 1 807 0)"/>
                            <path fill="#7C8497" d="M121.043 512.965l-2.707 16.6c-5.78 35.445 21.564 67.629 57.459 67.629h17.202v146.422l71.412.955 3.985-179.383c.535-28.524-22.395-51.952-50.91-52.014l-96.441-.21z" transform="translate(903 87) matrix(-1 0 0 1 807 0)"/>
                            <path fill="#00B1FF" d="M188.474 744.571L270.627 744.571 270.627 716.861 188.474 716.861z" transform="translate(903 87) matrix(-1 0 0 1 807 0)"/>
                            <path fill="#FFF" d="M193.367 302.169l67.85 10.01c6.88 1.013 11.999 6.886 12.068 13.843l1.612 161.049-151.374.45-10.27-140.491 5.627-19.046c2.631-8.906 10.138-15.508 19.302-16.975l55.185-8.84z" transform="translate(903 87) matrix(-1 0 0 1 807 0)"/>
                            <path fill="#FFB0A0" d="M148.936 392.268L120.593 465.584 76.872 427.511 93.841 374.757z" transform="translate(903 87) matrix(-1 0 0 1 807 0)"/>
                            <path fill="#FFF" d="M176.53 307.856s-52.69-.469-65.783 15.097c-16.493 19.609-36.069 69.724-36.069 69.724l85.686 18.89 16.166-103.71z" transform="translate(903 87) matrix(-1 0 0 1 807 0)"/>
                            <path fill="#FFB0A0" d="M125.485 453.345l98.876 22.036-4.07 21.91-116.839.78S51.2 487.52 76.872 427.51l48.613 25.834z" transform="translate(903 87) matrix(-1 0 0 1 807 0)"/>
                            <path fill="#FFB0A0" d="M224.361 475.38s23.235-9.097 42.475-5.5c13.067 2.441 21.838 14.91 20.848 28.173l-.001.017-77.656-.711 14.334-21.978z" transform="translate(903 87) matrix(-1 0 0 1 807 0)"/>
                            <path stroke="#E98980" stroke-width="3.328" d="M125.485 453.345L101.071 449.963" transform="translate(903 87) matrix(-1 0 0 1 807 0)"/>
                            <path fill="#FFB0A0" d="M164.863 306.735l28.504-4.566 37.912 5.593s2.33 22.132-29.724 23.065c-32.055.934-36.692-24.092-36.692-24.092" transform="translate(903 87) matrix(-1 0 0 1 807 0)"/>
                            <path stroke="#55382E" stroke-width="7.725" d="M266.441 506.267L266.441 824M65.169 506.267L65.169 824M754.892 506.267L754.892 824M553.62 506.267L553.62 824" transform="translate(903 87) matrix(-1 0 0 1 807 0)"/>
                            <path fill="#EAC8CE" d="M18.372 514.274L208.788 514.274 208.788 488.726 18.372 488.726z" transform="translate(903 87) matrix(-1 0 0 1 807 0)"/>
                            <path fill="#FFF" d="M208.424 514.274L806.651 514.274 806.651 488.726 208.424 488.726z" transform="translate(903 87) matrix(-1 0 0 1 807 0)"/>
                            <g>
                                <path fill="#FB3640" d="M60.044 0c33.162 0 60.046 26.898 60.046 60.08 0 33.18-26.884 60.077-60.046 60.077C26.883 120.157 0 93.26 0 60.08 0 26.9 26.883 0 60.044 0" transform="translate(903 87) matrix(-1 0 0 1 807 0) translate(288)"/>
                                <path fill="#FFF" d="M60.044 5.478c30.139 0 54.57 24.446 54.57 54.6 0 30.156-24.431 54.601-54.57 54.601-30.138 0-54.57-24.445-54.57-54.6s24.432-54.6 54.57-54.6" transform="translate(903 87) matrix(-1 0 0 1 807 0) translate(288)"/>
                                <path fill="#FFF" d="M60.044 11.048c27.065 0 49.004 21.952 49.004 49.03 0 27.08-21.94 49.032-49.004 49.032-27.063 0-49.002-21.952-49.002-49.031 0-27.079 21.939-49.031 49.002-49.031" transform="translate(903 87) matrix(-1 0 0 1 807 0) translate(288)"/>
                                <path fill="#373449" d="M22.111 60.113v.097c0 .704-.57 1.274-1.273 1.274h-6.379c-.703 0-1.273-.57-1.273-1.274v-.097c0-.704.57-1.275 1.273-1.275h6.379c.704 0 1.273.571 1.273 1.275M106.903 59.947v.098c0 .703-.57 1.274-1.273 1.274H99.25c-.703 0-1.273-.57-1.273-1.274v-.098c0-.703.57-1.274 1.273-1.274h6.379c.704 0 1.273.57 1.273 1.274M60.01 22.124h-.097c-.703 0-1.273-.57-1.273-1.274v-6.382c0-.704.57-1.275 1.273-1.275h.098c.703 0 1.273.57 1.273 1.275v6.382c0 .704-.57 1.274-1.273 1.274M60.176 106.964h-.097c-.704 0-1.274-.57-1.274-1.275v-6.382c0-.703.57-1.274 1.274-1.274h.097c.703 0 1.274.57 1.274 1.274v6.382c0 .705-.57 1.275-1.274 1.275M32.004 32.07l-.068.07c-.498.498-1.304.498-1.801 0l-2.331-2.333c-.498-.497-.498-1.304 0-1.802l.069-.068c.497-.499 1.303-.499 1.8 0l2.331 2.332c.498.498.498 1.304 0 1.802M92.325 92.191l-.069.07c-.498.497-1.304.497-1.801 0l-2.866-2.868c-.498-.498-.498-1.305 0-1.802l.069-.07c.497-.497 1.304-.497 1.8 0l2.867 2.868c.497.498.497 1.305 0 1.802M88.076 32.023l-.069-.069c-.498-.498-.498-1.305 0-1.802l2.33-2.333c.498-.497 1.304-.497 1.802 0l.069.07c.498.497.498 1.304 0 1.801l-2.33 2.333c-.499.497-1.305.497-1.802 0M27.99 92.377l-.07-.068c-.497-.498-.497-1.305 0-1.803l2.867-2.867c.497-.498 1.303-.498 1.8 0l.07.068c.497.498.497 1.305 0 1.803l-2.867 2.867c-.497.498-1.303.498-1.8 0" transform="translate(903 87) matrix(-1 0 0 1 807 0) translate(288)"/>
                                <path fill="#F46334" d="M60.802 59.043v.108c0 .777-.63 1.407-1.406 1.407h-30.77c-.776 0-1.405-.63-1.405-1.407v-.108c0-.777.63-1.407 1.406-1.407h30.769c.776 0 1.406.63 1.406 1.407" transform="translate(903 87) matrix(-1 0 0 1 807 0) translate(288)"/>
                                <path fill="#F46334" d="M60.95 61.558h-.107c-.776 0-1.406-.63-1.406-1.407V38.86c0-.778.63-1.408 1.406-1.408h.108c.776 0 1.406.63 1.406 1.408v21.29c0 .777-.63 1.407-1.406 1.407" transform="translate(903 87) matrix(-1 0 0 1 807 0) translate(288)"/>
                                <path fill="#F46334" d="M60.707 54C63.63 54 66 56.371 66 59.296c0 2.925-2.37 5.296-5.293 5.296s-5.293-2.371-5.293-5.296c0-2.925 2.37-5.296 5.293-5.296" transform="translate(903 87) matrix(-1 0 0 1 807 0) translate(288)"/>
                            </g>
                        </g>
                        <path fill="#F9A498" d="M345.757 308.691c-3.066-5.73-4.32-12.255-3.522-18.696 1.062-8.581 4.066-20.465 12.267-29.619 4.098-4.575 11.2-8.395 18.093-10.74 8.848-3.007 17.458 5.132 14.97 14.082l-8.6 16.104-15.416 28.863c-3.783 7.084-14.004 7.087-17.792.006" transform="translate(903 87) matrix(-1 0 0 1 730 0)"/>
                        <path fill="#F9A498" d="M542.962 363.927l.044-.11-102.78-40.376-.069.188c-2.833-1.052-5.898-1.629-9.1-1.629-14.39 0-26.057 11.62-26.057 25.955 0 11.306 7.259 20.918 17.385 24.478l-.013.037s96.99 32.685 102.78 35.088l.006-.014c2.554.94 5.316 1.456 8.197 1.456C546.414 409 557 398.455 557 385.447c0-9.6-5.769-17.852-14.038-21.52" transform="translate(903 87) matrix(-1 0 0 1 962 0)"/>
                        <path fill="#F9A498" d="M452 305.789c0-6.511-5.272-11.789-11.776-11.789-4.583 0-8.552 2.622-10.498 6.45l-57.2 67.7C367.9 372.457 365 378.6 365 385.423 365 398.445 375.545 409 388.553 409c10.75 0 19.813-7.213 22.635-17.068l39.85-81.091-.141-.07c.706-1.514 1.103-3.202 1.103-4.982" transform="translate(903 87) matrix(-1 0 0 1 817 0)"/>
                        <path fill="#F9A498" d="M368.865 278.5s7.271-9.983 11.633-10.459c4.363-.475 6.736 3.228 4.847 7.606-5.332 12.36 1.454 21.393-3.393 32.326-5.446 12.285-25.205 1.901-13.087-29.473" transform="translate(903 87) matrix(-1 0 0 1 751 0)"/>
                        <path fill="#FFF" d="M489 356.624s26.905-50.057 59.772-42.93c42.824 9.289 50.228 8.27 50.228 8.27L574.87 392 489 356.624z" transform="translate(903 87) matrix(-1 0 0 1 1088 0)"/>
                        <path fill="#FFB0A0" d="M628.435 266.2l1.536 38.41c.568 13.488-7.307 21-20.373 21.375-11.154.32-23.611-4.528-23.598-16.438l.445-60.547 41.99 17.2z" transform="translate(903 87) matrix(-1 0 0 1 1216 0)"/>
                        <path fill="#E39B8C" d="M628.999 291.87s-31.181 3.91-42.155-31.305c-3.457-11.091 40.998 1.516 40.998 1.516l1.157 29.79z" transform="translate(903 87) matrix(-1 0 0 1 1215.65 0)"/>
                        <path fill="#FFD479" d="M552 175s28.956 27.155.438 37L552 175z" transform="translate(903 87) matrix(-1 0 0 1 1117 0)"/>
                        <path fill="#FFB0A0" d="M608.648 278c21.996-.818 39.44-19.448 39.352-38.035l-.395-38.883c-.111-23.296-18.084-42.35-40.62-43.061-23.071-.728-46.34 17.878-46.985 41.716l.674 30.297c.576 27.276 21.582 47.133 47.974 47.966" transform="translate(903 87) matrix(-1 0 0 1 1208 0)"/>
                        <path fill="#FFF" d="M575 252.455c1.969 4.75 7.123 13.225 18.69 11.252 11.596-1.976 13.275-10.81 13.31-16.707l-32 5.455z" transform="translate(903 87) matrix(-1 0 0 1 1182 0)"/>
                        <path fill="#FFD479" d="M666 162.684l-16.606-2.374c4.849-3.112 9.711-6.207 9.711-6.207s-11.33-3.943-26.41-3.918c-9.832-5.358-22.427-9.018-35.596-9.181-19.28-.237-35.74 10.307-41.69 21.919l-.012-.023s-16-.987-18.195 17.287C534.355 203.874 562.607 243 562.607 243l3.167-30.945c17.517-1.264 18.328-16.855 16.953-27.019 7.882.675 35.062 2.482 56.309-2.295 2.314-.273 5.464-.89 8.113-2.268 10.03-3.483 17.52-9.04 18.851-17.79" transform="translate(903 87) matrix(-1 0 0 1 1203 0)"/>
                        <g>
                            <path fill="#FFB0A0" d="M.18 15.94c-.241 8.987 6.546 16.494 15.158 16.768 8.613.275 15.79-6.787 16.03-15.773C31.61 7.948 24.824.44 16.212.167 7.597-.108.42 6.954.18 15.94" transform="translate(903 87) matrix(-1 0 0 1 666 214)"/>
                            <path stroke="#312220" stroke-linecap="round" stroke-linejoin="round" stroke-width="3.989" d="M20.993 20.513s.316-11.797-10.545-10.284" transform="translate(903 87) matrix(-1 0 0 1 666 214)"/>
                        </g>
                        <path fill="#0B181B" d="M607.049 206.167s8.715-1.2 8.951 2.831c0 0 .094 2.732-7.517 3.61-7.61.88-9.617.333-10.408-2.202-.791-2.535 4.873-4.033 8.974-4.24" transform="translate(903 87) matrix(-1 0 0 1 1214 0)"/>
                        <path fill="#0B181B" d="M570.198 206.02s-7.717-.42-8.197 2.633c0 0-.265 2.065 6.485 2.305 6.748.24 8.903-.56 9.457-2.24.63-1.9-4.09-2.77-7.745-2.698" transform="translate(903 87) matrix(-1 0 0 1 1140 0)"/>
                        <path fill="#1C2737" d="M600 222.025c.02 2.21 1.826 3.988 4.035 3.975 2.21-.013 3.983-1.816 3.965-4.025-.02-2.21-1.826-3.989-4.036-3.975-2.209.013-3.983 1.816-3.964 4.025" transform="translate(903 87) matrix(-1 0 0 1 1208 0)"/>
                        <path fill="#1C2737" d="M567 222.025c.02 2.21 1.826 3.989 4.035 3.975 2.21-.014 3.984-1.816 3.965-4.025-.02-2.209-1.826-3.988-4.035-3.975-2.209.014-3.984 1.816-3.965 4.025" transform="translate(903 87) matrix(-1 0 0 1 1142 0)"/>
                        <path stroke="#0B181B" stroke-linecap="round" stroke-linejoin="round" stroke-width="3.767" d="M586.038 230L587 237.57 582 238" transform="translate(903 87) matrix(-1 0 0 1 1169 0)"/>
                        <path fill="#B9BFBF" d="M423.141 490H532v-12H423.141c-3.391 0-6.141 2.687-6.141 6s2.75 6 6.141 6" transform="translate(903 87) matrix(-1 0 0 1 949 0)"/>
                        <g>
                            <path fill="#DDDEDE" d="M.62 132.948h157.496c8.373 0 15.72-5.537 17.964-13.54l28.346-101.026C206.932 9.451 200.162.61 190.816.61H45.172c-5.587 0-10.474 3.737-11.895 9.1L.62 132.948z" transform="translate(903 87) matrix(-1 0 0 1 433 357)"/>
                            <path fill="#FFF" d="M95.19 72.433c0 7.536 6.158 13.643 13.753 13.643s13.752-6.107 13.752-13.643c0-7.535-6.157-13.643-13.752-13.643-7.595 0-13.753 6.108-13.753 13.643" transform="translate(903 87) matrix(-1 0 0 1 433 357)"/>
                        </g>
                    </g>
                </g>
                <g mask="url(#2yo7u15pwb)">
                    <g>
                        <path fill="#050705" d="M151.431 740L160 491 86 500.448 89.067 740z" transform="translate(719 111) matrix(-1 0 0 1 246 0)"/>
                        <path fill="#2C2C2C" d="M63.466 740c18.367-39.534 27.758-176.335 36.623-208.775 4.108-15.014 6.317-28.614 5.85-40.225l-93.624.37L4 740h59.466z" transform="translate(719 111) matrix(-1 0 0 1 110 0)"/>
                        <path fill="#2C2C2C" d="M145.192 577S44.966 574.031 5 504.24L160 492s-5.914 41.5-14.808 85" transform="translate(719 111) matrix(-1 0 0 1 165 0)"/>
                        <path fill="#FF9580" d="M325 282.74l-11.042-10.4c-2.044-1.927-3.837-4.098-5.337-6.464l-6.002-9.47c-2.699-6.465-8.208-11.373-14.985-13.349l-5.64-1.644-5.123 3.165s-27.966-6.86-29.986-3.785l-.349 1.081-.203.633 23.148 8.459s-20.071-5.92-21.287-6.227c-1.337-.337-5.507-1.968-6.113.391-.499 1.94 1.344 4.122 4.667 5.637 1.367.623 18.323 7.196 18.323 7.196s-18.22-5.502-19.102-5.763c-2.144-.637-2.886 2.852-1.738 3.651.909.632 23.334 14.876 23.334 14.876s-4.94 1.536-8.236.316c-3.297-1.22-7.795-7.192-9.6-5.518-1.805 1.675-1.919 2.935-1.339 3.622.58.687 7.314 7.051 9.748 8.538 2.433 1.486 23.027 11.17 23.027 11.17L316.373 299 325 282.74z" transform="translate(719 111) matrix(-1 0 0 1 567 0)"/>
                        <path fill="#FB3640" d="M237.506 310.71C186.815 291.547 118.542 275.901 93.235 271L83 301.823c57.095 24.25 113.391 47.628 134.592 56.408 2.244 1.368 4.712 2.397 7.333 3.034l1.498.618.09-.287c1.472.26 2.986.404 4.533.404C245.38 362 257 350.336 257 335.948c0-12.15-8.285-22.357-19.494-25.239" transform="translate(719 111) matrix(-1 0 0 1 340 0)"/>
                        <path fill="#D63616" d="M135 194.024C135 179.652 123.265 168 108.79 168c-13.68 0-24.906 10.406-26.1 23.68-15.337 59.396-23.076 116.546-25.667 138.102-.66 2.286-1.023 4.697-1.023 7.194 0 .48.015.958.042 1.432l-.042.4.073.012C57.027 352.331 68.36 363 82.21 363c10.974 0 20.367-6.7 24.273-16.201l.461.073C125.24 298.28 133.809 222.486 135 195.856l-.071-.008c.042-.603.071-1.21.071-1.824" transform="translate(719 111) matrix(-1 0 0 1 191 0)"/>
                        <path fill="#CCE4FF" d="M210 326L354 326 354 233 210 233z" transform="translate(719 111) matrix(-1 0 0 1 564 0)"/>
                        <path fill="#A4B9D0" d="M210 242L354 242 354 233 210 233z" transform="translate(719 111) matrix(-1 0 0 1 564 0)"/>
                        <path fill="#CCE4FF" d="M199 233L365 233 365 200 199 200z" transform="translate(719 111) matrix(-1 0 0 1 564 0)"/>
                        <g transform="translate(719 111) matrix(-1 0 0 1 161 167)">
                            <mask id="olu56fgt8d" fill="#fff">
                                <use xlink:href="#3xf63r3ttc"/>
                            </mask>
                            <path fill="#FB3640" d="M2.406 313.247c0 14.598-6.74 27.462 5.955 31.424 3.375 1.054 6.78 2.047 10.208 2.962 17.961 4.833 36.655 7.795 55.519 8.056 31.08.431 55.01-1.779 84.345-19.814l-2.198-167.885c-.194-15.797 1.922-31.623 2.822-47.421 1.07-18.771 2.323-37.85.98-56.58-1.293-17.689-2.777-32.848-16.966-45.301-7.593-6.663-16.705-11.38-25.875-15.496-9.3-4.175-19.88-3.33-29.753-2.014l-25.49 3.397C31.464 8.642 23.686 65.498 23.686 88.979L2.406 313.247z" mask="url(#olu56fgt8d)"/>
                        </g>
                        <g>
                            <path fill="#FF9580" d="M.046 7.602l1.517 26.586.694 12.185c15.614 11.33 41.004-4.265 41.004-4.265L45.976 2.7c-7.225-4.776-25.842-.801-37.032 2.243C3.671 6.38.046 7.602.046 7.602" transform="translate(719 111) matrix(-1 0 0 1 97 131)"/>
                            <path fill="#FB7967" d="M.046 7.602l1.517 26.586C19.9 30.033 35.257 5.113 35.257 5.113l-26.313-.17C3.671 6.38.046 7.602.046 7.602" transform="translate(719 111) matrix(-1 0 0 1 97 131)"/>
                        </g>
                        <g>
                            <path fill="#000" d="M119.786 86.748s8.143-5.903 8.09-19.575c-.053-13.673-7.529-16.642-8.09-30.315-.944-22.978-21.732-17.939-37.973-26.338C73.937 6.446 59.84-3.97 34.392 1.624 8.946 7.218 16.929 37.716 5.968 42.067c-10.96 4.35-3.64 32.193 2.135 36.233 5.776 4.04 15.497 8.814 18.748 8.448 3.25-.365 92.935 0 92.935 0" transform="translate(719 111) matrix(-1 0 0 1 144 0)"/>
                        </g>
                        <g>
                            <path fill="#FF9580" d="M5.207 6.035S18.02-5.863 27.547 3.976C37.076 13.814 23.606 42.871.28 35.78L5.207 6.035z" transform="translate(719 111) matrix(-1 0 0 1 44 81)"/>
                            <path stroke="#312220" stroke-linecap="round" stroke-linejoin="round" stroke-width="4.261" d="M13.389 23.976S11.817 11.45 23.89 11.942" transform="translate(719 111) matrix(-1 0 0 1 44 81)"/>
                        </g>
                        <path fill="#FF9580" d="M138.965 66.354c-.537 11.245-1.623 25.315-3.794 36.56-.011.045-.022.09-.022.134 0 .011-.012.011-.012.022-.526 2.747-1.13 5.33-1.79 7.656-.392 1.363-.818 2.78-1.3 4.243-6.928 21.526-22.99 52.682-63.34 38.422-18.906-6.68-27.738-27.42-31.712-48.615l-.066-.366c-.012-.043-.012-.066-.012-.066-2.663-14.491-3.067-29.138-2.877-39.607.214-10.681 6.1-20.442 15.492-25.704 25.43-14.281 52.272-8.952 69.945-2.227 12.268 4.653 20.115 16.574 19.488 29.548" transform="translate(719 111) matrix(-1 0 0 1 173 0)"/>
                        <path fill="#20363C" d="M84.867 92.875c.526 3.018-.555 5.744-2.415 6.089-1.858.345-3.793-1.821-4.319-4.84-.526-3.017.554-5.743 2.414-6.088 1.86-.345 3.793 1.82 4.32 4.84" transform="translate(719 111) matrix(-1 0 0 1 163 0)"/>
                        <path fill="#20363C" d="M124.867 98.875c.526 3.018-.554 5.744-2.414 6.089-1.86.345-3.793-1.821-4.32-4.839-.526-3.017.555-5.744 2.414-6.089 1.86-.345 3.793 1.822 4.32 4.84" transform="translate(719 111) matrix(-1 0 0 1 243 0)"/>
                        <path fill="#000" d="M91.89 72.374c-3.959-.471-13.203-1.074-20.841 2.205-1.682.722-2.47 2.53-1.824 4.137l.054.135c.622 1.548 2.382 2.43 4.124 2.068 4.132-.859 11.738-2.21 17.898-2.007 2.458.08 4.287-2.121 3.524-4.284l-.051-.14c-.43-1.156-1.572-1.958-2.884-2.114" transform="translate(719 111) matrix(-1 0 0 1 164 0)"/>
                        <path fill="#000" d="M111.942 82.193c3.591-1.886 12.16-5.777 20.695-5.119 1.895.146 3.363 1.72 3.363 3.62v.158c0 1.816-1.34 3.349-3.142 3.593-4.272.58-12.046 1.884-17.847 4.278-2.313.955-4.905-.667-5.005-3.167l-.005-.16c-.033-1.345.749-2.577 1.94-3.203" transform="translate(719 111) matrix(-1 0 0 1 246 0)"/>
                        <path fill="#20363C" d="M99.14 122c2.33 0 4.643-.905 5.002-1.052.705-.288 1.044-1.093.755-1.799-.286-.705-1.095-1.044-1.8-.757-1.248.506-4.245 1.3-5.543.523-.251-.15-.593-.446-.68-1.285-.499-4.82.822-20.974.836-21.136.062-.76-.504-1.427-1.265-1.489-.764-.064-1.428.502-1.49 1.262-.055.674-1.356 16.575-.83 21.648.197 1.909 1.202 2.886 2.01 3.369.884.53 1.946.716 3.004.716" transform="translate(719 111) matrix(-1 0 0 1 199 0)"/>
                        <path fill="#FFF" d="M76 134.455c2.03 4.75 7.346 13.225 19.275 11.252 11.958-1.976 13.69-10.81 13.725-16.707l-33 5.455z" transform="translate(719 111) matrix(-1 0 0 1 185 0)"/>
                        <path fill="#000" d="M143.954 62.032c-.574 11.312-5.69 31.656-7.98 42.968l-6.56-.438s1.59-9.551 2.323-15.774c.734-6.223 3.853-18.473-1.783-19.925-5.62-1.437-2.322-14.707-10.144-20.46-7.822-5.766-25.319-7.348-36.854-.655-11.534 6.68-24.535-.506-29.848.655-5.326 1.148-12.547 8.063-10.595 14.52 1.966 6.444-4.664 10.256-5.328 17.051-.604 6.19 1.893 23.517 1.893 23.517l-1.872-6.188c-1.874-6.188-6.405-20.786-6.2-31.31.22-10.745 7.515-26.51 17.436-31.806 26.871-14.355 58.117-9.238 76.784-2.476 12.959 4.689 19.388 17.28 18.728 30.32" transform="translate(719 111) matrix(-1 0 0 1 175 0)"/>
                        <path fill="#FF9580" d="M282 303.176l-12.772-12.041c-2.364-2.23-4.438-4.744-6.173-7.484l-6.942-10.962c-3.121-7.485-9.494-13.167-17.332-15.455-9.08-5.678-14.625-8.725-16.64-9.139-3.02-.62-6.112 1.886-5.036 4.684.214.557 3.29 2.629 9.226 6.215 0 0-32.345-7.942-34.681-4.382l-.404 1.252-.235.732 26.774 9.794s-23.216-6.855-24.62-7.21c-1.548-.39-6.37-2.278-7.072.454-.576 2.246 1.555 4.772 5.398 6.526 1.581.722 21.193 8.33 21.193 8.33s-21.074-6.369-22.094-6.672c-2.48-.737-3.338 3.303-2.01 4.228 1.05.731 26.989 17.222 26.989 17.222s-5.714 1.778-9.527.365c-3.813-1.412-9.015-8.326-11.103-6.387-2.087 1.938-2.219 3.398-1.549 4.193.672.795 8.46 8.163 11.275 9.883 2.815 1.722 26.635 12.934 26.635 12.934L272.022 322 282 303.176z" transform="translate(719 111) matrix(-1 0 0 1 468 0)"/>
                        <path fill="#CC2931" d="M28.195 188c13.671 0 24.891 10.406 26.084 23.68 10.784 41.788 17.81 82.464 21.93 110.415 45.7-14.817 96.474-26.349 117.538-30.437L204 322.596c-57.198 24.341-113.596 47.808-134.835 56.62-2.248 1.373-4.72 2.407-7.347 3.046l-1.473.609-.027.011-.09-.287c-1.476.26-2.992.405-4.542.405-.157 0-.313-.001-.47-.004-.152.003-.304.004-.456.004-10.968 0-20.356-6.7-24.26-16.201l-.46.073C11.754 318.279 3.19 242.486 2 215.856l.071-.008c-.042-.603-.071-1.21-.071-1.824C2 199.652 13.728 188 28.195 188z" transform="translate(719 111)"/>
                    </g>
                </g>
            </g>
        </g>
    </g>
</svg>
