<svg xmlns="http://www.w3.org/2000/svg" width="221" height="91" viewBox="0 0 221 91">
    <g fill="none" fill-rule="evenodd">
        <g fill-rule="nonzero">
            <g>
                <g>
                    <path fill="#2149FE" d="M34.56 17.027c-.013 3.58-.756 6.5-2.362 9.167-.385.639-.469 1.044.128 1.66 1.738 1.788 1.71 4.216.048 5.816-1.662 1.6-3.929 1.51-5.694-.272-.64-.638-1.11-.7-1.933-.304-6.64 3.21-14.59 1.754-19.665-3.602-5.19-5.288-6.42-13.308-3.056-19.913C5.391 2.974 12.596-.735 19.915.37c7.32 1.106 13.112 6.778 14.382 14.083.165 1.008.209 2.027.263 2.573zm-10.117 2.776c.575-3.83-.092-6.998-2.685-9.56-2.592-2.561-6.163-2.466-8.747.033-2.94 2.842-3.696 8.063-1.741 12.023.88 1.782 2.153 3.178 4.037 3.906 1.3.49 2.738.464 4.019-.073-.54-.649-1.123-1.261-1.744-1.834-1.651-1.7-1.656-4.137-.043-5.731 1.613-1.595 4.067-1.543 5.751.092.32.312.635.628 1.153 1.144zm-6.177-18.41C6.372 1.394-1.415 12.45 2.28 22.832c.8 2.307 2.135 4.39 3.896 6.077.18.171.542.152.814.22-.022-.287-.077-.57-.166-.845-.135-.211-.296-.405-.48-.576-2.806-3.53-3.905-7.546-3.148-11.952C5.242 3.882 18.561-.986 27.841 6.672c.27.225.726.228 1.084.334-.17-.353-.257-.79-.523-1.049-3.05-2.999-6.744-4.515-10.136-4.563zm9.236 16.888c-.187-3.132-1.028-5.957-3.124-8.323-.206-.253-.445-.477-.71-.665-.18-.095-.394-.095-.573 0-.103.087-.09.38-.04.562.08.162.188.309.317.435 2.015 2.648 2.711 5.645 2.305 8.918-.185 1.507-.613 1.793-2.11 1.548-.198-.02-.395.045-.542.18-.073.153-.06.334.035.475.683.42 1.356.986 2.099 1.14.876.185 1.518-.48 1.751-1.309.28-.961.405-1.955.592-2.96zm-9.394 11.211c.915-.178 1.82-.403 2.712-.674.79-.271 1.47-.929 1.299-1.787-.155-.782-.716-1.491-1.144-2.206-.168-.118-.385-.143-.575-.065-.117.068-.168.378-.13.543.368 1.657.105 2.065-1.584 2.347-2.234.375-4.211-.195-5.966-1.608-.233-.187-.61-.195-.922-.288.1.334.1.764.315.986 1.57 1.657 3.718 2.642 5.995 2.752zm.958-7.16c0-1.747 1.29-2.478 2.866-1.902.283.047.571.047.854 0-.1-.271-.127-.627-.312-.836-.732-.859-1.901-1.204-2.981-.88-1.08.324-1.867 1.256-2.008 2.376-.174 1.215.455 2.076 1.328 2.785.15.12.434.07.657.097.022-.23.013-.463-.025-.692-.11-.323-.236-.64-.38-.948zM121.555 12.732c.32-.378.64-.75.955-1.133 2.294-2.803 4.577-5.617 6.882-8.42C131.29.876 134.2.48 136.293 2.213c2.17 1.806 2.373 4.688.44 7.063-2.219 2.716-4.461 5.432-6.758 8.211 1.218 1.486 2.408 2.94 3.598 4.387 1.104 1.359 2.232 2.67 3.314 4.031 1.77 2.233 1.505 5.162-.594 6.906-2.099 1.744-4.88 1.39-6.73-.842-2.44-2.923-4.835-5.876-7.251-8.815-.25-.302-.51-.592-.903-1.046-.054.456-.114.72-.114.983 0 1.994.016 3.988 0 5.976.011 2.556-1.994 4.664-4.542 4.776-2.519.098-4.637-1.82-4.88-4.425-.014-.144-.025-.29-.025-.435 0-7.652-.027-15.304 0-22.956.013-2.776 1.96-4.787 4.536-4.87 1.265-.066 2.503.387 3.427 1.255.925.867 1.458 2.074 1.476 3.343.049 2.276 0 4.556 0 6.832l.268.144zm-6.93 5.468V6.886c0-1.521.71-2.63 1.992-2.844.654-.111 1.378.198 2.075.296.226.018.452.018.678 0-.02-.233.049-.565-.076-.679-.445-.407-.909-.87-1.454-1.073-2.25-.842-4.46.543-4.783 2.95-.03.289-.04.58-.032.87v22.19c0 1.211.252 2.314 1.217 3.124.176.146.507.106.767.154.032-.23.04-.461.025-.692-.122-.774-.382-1.546-.393-2.32-.044-3.561-.02-7.114-.017-10.662zm6.632-3.928l-.217-.367-.865.367c.163.302.271.68.496.894.936.845 2.297.64 3.225-.484 2.619-3.183 5.217-6.386 7.834-9.572 1.022-1.245 2.09-1.486 3.446-.883.314.086.64.128.965.125-.132-.337-.181-.758-.414-1-1.53-1.562-3.875-1.331-5.394.524-2.546 3.105-5.054 6.248-7.62 9.329-.371.445-.96.711-1.456 1.062v.005zm1.79 6.593c-.174.1-.39.163-.393.236-.038.232 0 .47.108.68.496.667 1.039 1.303 1.567 1.944 2.14 2.603 4.271 5.21 6.44 7.788.207.245.651.288.985.427-.057-.315 0-.715-.184-.932-2.577-3.18-5.17-6.35-7.783-9.508-.229-.233-.476-.447-.74-.64v.005zM46.277 13.979c0 2.54-.013 5.08 0 7.606.016 2.594 1.839 4.493 4.298 4.514 2.46.022 4.339-1.85 4.355-4.452.035-5.262-.024-10.52.03-15.78-.013-1.653.841-3.19 2.25-4.051 1.41-.86 3.166-.917 4.627-.148 1.646.856 2.573 2.27 2.581 4.118.025 5.433.185 10.893-.114 16.317-.39 7.134-6.489 12.635-13.585 12.678-7.097.043-13.325-5.376-13.76-12.496-.338-5.53-.21-11.093-.113-16.64.046-2.73 2.256-4.586 4.881-4.504 2.579.081 4.515 2.135 4.54 4.868.026 2.684.007 5.321.01 7.97zm9.822-.044v4.238c0 1.412.1 2.912-.063 4.346-.471 4.102-5.057 6.093-8.582 3.776-.271-.182-.686-.158-1.033-.231.14.331.198.747.436.978 1.557 1.502 3.428 2.132 5.567 1.736 3.146-.584 5.196-3.075 5.223-6.408.038-4.966 0-9.929.016-14.892-.014-.434.009-.868.068-1.298.326-1.845 2.064-2.733 3.796-1.997.304.13.69.07 1.036.1-.152-.336-.22-.763-.469-.99-1.084-.99-2.364-1.267-3.72-.699-1.376.505-2.279 1.83-2.245 3.298-.057 2.678-.03 5.362-.03 8.043zm-16.509.598c0-2.608-.027-5.218 0-7.826.03-2.1 1.917-3.328 3.753-2.526.304.133.694.067 1.044.092-.154-.334-.225-.755-.472-.986-1.084-1.01-2.364-1.26-3.715-.674-1.426.622-2.169 1.798-2.169 3.352-.022 5.11-.062 10.222.019 15.332.051 3.24 1.312 6.06 3.541 8.42.239.25.705.272 1.069.41-.114-.333-.15-.733-.355-.993-1.797-2.22-2.757-5.002-2.715-7.859v-6.742zM96.912 34.792c-10.188.068-17.987-8.693-17.005-19.121 1.085-11.6 13.26-18.798 23.803-13.981 1.735.813 3.309 1.934 4.645 3.308 2.44 2.51 1.505 6.473-1.597 7.446-1.643.516-3.146.15-4.48-.926-.141-.113-.27-.24-.385-.38-3.959-4.773-9.724-2.934-11.695 2.373-1.332 3.586-1.052 7.082 1.234 10.239 2.59 3.572 7.004 3.819 9.995.584 1.057-1.144 2.213-1.948 3.823-1.975 3.341-.054 5.424 3.094 4.046 6.19-.813 1.845-2.337 3.021-3.98 4.045-2.349 1.462-5.194 2.176-8.404 2.198zM81.01 18.618c0 3.17 1.518 6.946 4.501 10.122.25.271.694.35 1.05.521-.09-.367-.2-.73-.329-1.086-.113-.185-.248-.355-.4-.508-3.697-5.066-4.418-10.537-1.685-16.182 2.696-5.569 7.303-8.464 13.558-8.494 3.22-.05 6.35 1.048 8.835 3.1.271.208.675.225 1.017.328-.128-.356-.15-.831-.399-1.046-.794-.74-1.663-1.394-2.592-1.953C93.932-2.483 81.144 5.05 81.01 18.618zM97.28 29.37c2.752-.04 4.88-1.212 6.589-3.195.884-1.021 1.939-1.309 3.219-.866.286.05.577.054.865.013-.084-.29-.084-.668-.271-.855-.324-.337-.722-.594-1.161-.753-1.627-.497-2.94 0-4.067 1.253-3.065 3.363-6.85 3.716-10.457 1.062-.233-.169-.607-.147-.913-.212.092.307.097.7.295.902 1.63 1.665 3.623 2.602 5.912 2.65h-.011zM77.15 17.488c0 3.88.03 7.758 0 11.637.007 2.151-1.446 4.031-3.526 4.564-1.986.57-4.107-.269-5.168-2.045-.481-.845-.746-1.796-.77-2.768-.063-7.577-.055-15.155-.025-22.731 0-2.942 2.02-4.982 4.765-4.98 2.744.003 4.707 2.084 4.726 5.012.022 3.77 0 7.54 0 11.311h-.003zm-8.274-.146v11.523c0 1.113.33 2.072 1.169 2.808.179.155.501.153.756.223.04-.257.052-.517.038-.777-.116-.777-.39-1.545-.396-2.317-.035-5.615-.019-11.232-.019-16.842 0-1.776-.032-3.553.014-5.327.054-2.07 1.963-3.26 3.815-2.444.301.13.689.057 1.036.078-.157-.334-.233-.755-.485-.988-.973-.99-2.465-1.255-3.718-.658-1.356.595-2.194 1.646-2.2 3.203-.01 3.838-.01 7.677-.01 11.518zM140.762 17.467V6.153c0-2.866 1.944-4.933 4.629-4.988 2.728-.054 4.837 1.994 4.854 4.89.038 7.65.038 15.3 0 22.95 0 2.57-1.76 4.497-4.157 4.814-2.329.29-4.519-1.17-5.152-3.433-.136-.563-.194-1.141-.174-1.72-.008-3.732 0-7.464 0-11.2zm1.174 0v11.21c0 1.136.271 2.173 1.134 2.945.198.176.542.176.838.271.021-.26.021-.523 0-.785-.112-.67-.372-1.336-.375-2.002-.027-7.328-.027-14.656 0-21.984 0-2.634 1.644-3.732 4.068-2.773.227.048.46.06.691.035.008-.26-.026-.52-.1-.768-.134-.223-.32-.41-.542-.544-1.112-.815-2.33-.994-3.582-.402-1.356.641-2.126 1.733-2.132 3.26-.008 3.85 0 7.687 0 11.531v.006z" transform="translate(-88 -33) translate(88 33) translate(70.503 34.227)"/>
                    <path fill="#FFF" d="M18.266 1.394c3.392.048 7.085 1.564 10.147 4.571.27.258.352.696.523 1.049-.369-.106-.813-.109-1.085-.334C18.572-.978 5.252 3.89 3.208 15.763c-.768 4.398.33 8.413 3.137 11.944.183.174.344.37.478.584.088.274.144.558.165.845-.271-.068-.632-.049-.814-.22-1.76-1.687-3.096-3.77-3.896-6.076C-1.415 12.45 6.372 1.388 18.266 1.394z" transform="translate(-88 -33) translate(88 33) translate(70.503 34.227)"/>
                    <path fill="#FFF" d="M27.502 18.281c-.187.992-.312 2-.583 2.967-.234.828-.876 1.494-1.752 1.31-.749-.156-1.416-.72-2.099-1.142-.094-.141-.108-.321-.035-.475.147-.134.344-.2.542-.18 1.497.245 1.925-.04 2.11-1.548.404-3.26-.29-6.27-2.305-8.918-.13-.126-.236-.273-.317-.434-.05-.182-.063-.476.04-.563.18-.095.394-.095.572 0 .266.189.505.413.71.666 2.089 2.36 2.93 5.185 3.117 8.317zM18.108 29.492c-2.282-.103-4.436-1.086-6.011-2.743-.215-.223-.215-.652-.315-.986.312.092.689.1.922.287 1.765 1.413 3.742 1.983 5.966 1.609 1.69-.272 1.952-.69 1.583-2.347-.038-.174 0-.484.13-.544.19-.078.407-.053.575.065.429.715.99 1.424 1.145 2.206.17.859-.51 1.508-1.3 1.788-.886.267-1.786.489-2.695.665zM19.066 22.332c.143.308.27.623.38.945.037.229.046.462.024.693-.223-.027-.507.021-.657-.098-.873-.71-1.502-1.57-1.328-2.784.14-1.12.928-2.053 2.008-2.377 1.08-.323 2.249.021 2.981.88.185.209.212.543.312.836-.283.047-.571.047-.854 0-1.576-.573-2.874.158-2.866 1.905zM114.624 18.2c0 3.553-.027 7.106.017 10.66 0 .773.27 1.545.393 2.319.015.231.007.463-.025.693-.27-.05-.59 0-.767-.155-.965-.815-1.217-1.902-1.217-3.124V6.403c-.009-.29.002-.58.032-.87.323-2.401 2.533-3.803 4.783-2.95.543.204 1.01.666 1.454 1.073.125.114.057.446.076.68-.226.017-.452.017-.678 0-.697-.098-1.421-.408-2.075-.297-1.282.215-1.987 1.323-1.993 2.844-.008 3.77 0 7.541 0 11.317zM121.257 14.267c.491-.35 1.085-.617 1.456-1.068 2.566-3.088 5.074-6.223 7.62-9.328 1.519-1.855 3.864-2.086 5.394-.524.233.241.27.662.414 1-.326.003-.65-.04-.965-.126-1.356-.603-2.424-.361-3.446.883-2.617 3.187-5.215 6.39-7.834 9.573-.928 1.124-2.29 1.328-3.225.483-.238-.214-.333-.592-.496-.893l.865-.367.217.367zM123.047 20.86c.264.193.511.409.74.643 2.605 3.157 5.2 6.326 7.783 9.508.173.217.127.616.184.931-.334-.138-.778-.182-.984-.426-2.17-2.578-4.301-5.186-6.44-7.788-.543-.641-1.085-1.277-1.568-1.945-.108-.209-.146-.447-.108-.68.002-.08.22-.143.393-.244zM56.099 13.935c0-2.68-.027-5.365 0-8.043-.034-1.467.869-2.793 2.245-3.298 1.356-.568 2.641-.29 3.72.698.25.228.318.655.47.992-.348-.03-.733.03-1.036-.1-1.722-.737-3.46.151-3.797 1.996-.059.43-.082.864-.067 1.298 0 4.963.021 9.926-.017 14.892-.027 3.333-2.077 5.824-5.222 6.408-2.14.396-4.01-.234-5.567-1.736-.239-.231-.296-.647-.437-.978.347.073.757.049 1.033.23 3.525 2.318 8.119.338 8.585-3.778.163-1.431.057-2.893.063-4.346.005-1.453 0-2.825 0-4.237l.027.002zM39.59 14.533v6.742c-.04 2.853.919 5.63 2.712 7.848.206.271.241.66.355.994-.363-.13-.83-.16-1.068-.41-2.23-2.35-3.49-5.161-3.542-8.421-.081-5.11-.04-10.222-.019-15.332 0-1.553.746-2.73 2.17-3.352 1.355-.586 2.635-.337 3.715.674.246.23.317.652.471.986-.35-.024-.74.04-1.044-.092-1.835-.802-3.723.426-3.753 2.526-.032 2.619.003 5.23.003 7.837zM81.01 18.618c.134-13.568 12.922-21.1 23.549-15.212.93.56 1.798 1.214 2.592 1.953.25.215.271.69.399 1.046-.342-.103-.76-.12-1.017-.328-2.486-2.047-5.617-3.142-8.835-3.089-6.237.03-10.846 2.926-13.558 8.494-2.733 5.645-2.012 11.116 1.684 16.182.153.153.288.324.401.508.128.356.238.719.328 1.087-.355-.172-.813-.256-1.049-.522-2.975-3.173-4.48-6.949-4.493-10.119zM97.292 29.37c-2.29-.049-4.271-.986-5.915-2.651-.198-.201-.203-.595-.295-.902.306.065.68.043.914.212 3.606 2.654 7.392 2.3 10.456-1.062 1.141-1.253 2.46-1.75 4.067-1.253.44.159.837.416 1.16.753.188.187.188.565.272.855-.287.041-.58.036-.865-.013-1.28-.443-2.335-.155-3.219.866-1.703 1.983-3.823 3.162-6.575 3.195zM68.876 17.342V5.822c0-1.557.84-2.608 2.2-3.203 1.252-.597 2.744-.333 3.717.657.252.234.328.655.485.989-.347-.022-.735.051-1.036-.079-1.852-.815-3.76.372-3.815 2.445-.046 1.774-.013 3.55-.013 5.327 0 5.615-.017 11.232.019 16.841 0 .772.27 1.54.395 2.318.015.26.002.52-.037.776-.255-.07-.578-.067-.757-.222-.838-.736-1.171-1.695-1.169-2.81.011-3.837.011-7.673.011-11.52zM141.936 17.461V5.927c0-1.535.776-2.627 2.132-3.26 1.252-.592 2.47-.418 3.582.403.222.134.408.32.542.543.074.249.108.509.1.769-.23.024-.464.012-.691-.036-2.44-.959-4.068.139-4.068 2.774v21.984c0 .665.272 1.33.375 2.002.021.26.021.524 0 .785-.285-.082-.64-.082-.838-.272-.873-.774-1.136-1.809-1.134-2.944.006-3.741 0-7.487 0-11.214z" transform="translate(-88 -33) translate(88 33) translate(70.503 34.227)"/>
                </g>
                <g>
                    <g>
                        <path fill="#98C883" d="M17.083 17.518c-.369.105-.71.29-1 .543-2.983 2.502-2.137 9.84-2.563 11.657 0 0-.43 3.531 1.722 5.481 2.153 1.95 3.878 1.856 3.878 1.856s2.44-2.638 3.091-5.346c.271-1.128-2.053-2.858-3.091-3.545 0 0 .108-3.915 2.866-6.655 0 0-.125-.25-.342-.628-.745-1.258-2.565-3.9-4.56-3.363zM29.248 33.806c1.82-.525 3.61-1.155 5.358-1.885-.179-.137-.323-.314-.42-.516l-.9-1.916c-.202-.44-.161-.955.108-1.358-1.356.497-2.85 1-4.534 1.486.143.506.2 1.032.171 1.557-.031.883.041 1.766.217 2.632zM39.66 29.677c2.463-1.17 4.34-2.173 4.762-2.404-1.13-1.155-2.052-2.024-2.516-2.51-.152-.158-.282-.335-.388-.527-1.177.75-2.4 1.425-3.66 2.02.345.124.628.379.786.71l.895 1.901c.118.248.159.525.116.796l.006.014zM52.698 46.622c-.387.771-1.355 1.306-4.135-.437.049 4.03 5.554 7.709 5.928 7.627.374-.081.401-3.892-1.793-7.19zM50.84 58.042c-.086.345-.672 2.597 1.606 6.609.247.179.507.356.776.53 5.694 3.683 3.511 1.724 5.125 3.911 1.613 2.187 4.935 4.034 4.935 4.034s3.612 0 4.61-1.15c.832-.963.328-1.18-2.44-3.101-1.978-1.358-4.47-1.16-6.539-4.504-.813-1.318-1.486-3.064-2.288-4.678-3.284-3.031-5.697-1.996-5.784-1.651z" transform="translate(-88 -33) translate(88 33) translate(0 17.657)"/>
                        <path fill="#96CAEE" d="M39.79 38.456c.414-.175.808-.395 1.175-.654.328.744 2.02 4.267 6.107 7.334.542.41 1.04.754 1.491 1.035 2.769 1.744 3.748 1.209 4.135.437.077-.147.135-.303.174-.464 1.917-7.335-4.512-14.862-8.444-18.885-.437.242-2.3 1.234-4.762 2.404-.065.457-.357.85-.775 1.043l-2.859 1.359c-.46.217-1.003.16-1.41-.147-1.748.73-3.537 1.36-5.358 1.885C30.38 39.9 35.23 51.188 40.743 53.432c6.44 2.648 4.813 3.575 6.318 4.156 0 0 .42 3.553 5.385 7.063-2.278-4.012-1.692-6.264-1.605-6.61.087-.344 2.5-1.38 5.778 1.658-1.239-2.486-2.784-4.667-5.643-4.531-.763-1.39-1.822-2.596-3.102-3.532 0 0-2.318-6-8.083-13.18z" transform="translate(-88 -33) translate(88 33) translate(0 17.657)"/>
                        <path fill="#2149FE" d="M29.484 34.925c-.092-.388-.171-.763-.236-1.12 1.82-.524 3.61-1.154 5.358-1.884.407.307.95.363 1.41.146l2.858-1.358c.419-.193.711-.586.776-1.043 2.462-1.17 4.338-2.173 4.762-2.404l.162.168c-4.802 3.901-2.142 10.676 1.033 13.854 2.096 2.287 4.456 4.175 7.013 5.433-.429.706-1.44 1.111-4.068-.543-.446-.281-.943-.626-1.491-1.035-4.087-3.075-5.779-6.598-6.107-7.335-.367.26-.76.48-1.174.655 5.776 7.177 8.1 13.153 8.1 13.153 1.28.935 2.339 2.14 3.102 3.531 2.858-.136 4.404 2.046 5.643 4.531-3.279-3.037-5.695-2.002-5.779-1.657-.084.345-.68 2.622 1.6 6.634-4.965-3.518-5.385-7.063-5.385-7.063l-.063-.024c.09-.13.182-.256.272-.392.52-1.561.043-5.104-2.365-4.49-.515-8.04-6.5-16.372-15.421-17.757zM46.69 9.727c.194.556.42 1.1.677 1.63.761 1.349 1.62 2.64 2.568 3.863l.117-.41c.225-.799.25-.95.355-1.315.145-.572.357-1.124.632-1.646.143-.258.305-.505.485-.739.271-.331.933-1.086 1.806-1.086.586 0 1.19.326 2.023.776.125.071.255.144.388.229.209.127.401.255.575.383-.597-2.423-1.963-4.585-3.892-6.164-.105.345-.291.66-.542.918-1.491 1.614-5.374 2.445-5.374 2.445-.008.38.054.759.184 1.116h-.003z" transform="translate(-88 -33) translate(88 33) translate(0 17.657)"/>
                        <path fill="#96CAEE" d="M22.401 12.047c-.472 1.948-.09 3.988.686 6.006 1.627 4.246 4.96 8.421 5.773 11.556 1.684-.486 3.192-.989 4.534-1.486.136-.203.323-.366.542-.473l2.861-1.344c.33-.157.707-.175 1.05-.05 1.26-.595 2.484-1.27 3.66-2.02-1.13-2.018 1.356-4.618 2.641-8.65-.724.373-1.664.47-2.882.126-3.867-1.087-6.757-1.358-9.936-1.209-2.586.136-7.495.918-8.929-2.456z" transform="translate(-88 -33) translate(88 33) translate(0 17.657)"/>
                        <path fill="#2149FE" d="M22.401 12.047c1.434 3.374 6.34 2.592 8.948 2.445 3.179-.163 6.07.12 9.936 1.209 1.218.345 2.17.247 2.882-.125-1.282 4.02-3.771 6.63-2.64 8.649-.226.147-.497.315-.814.497-3.525-4.395-8.995-7.579-13.659-4.775-.799.487-1.567 1.024-2.3 1.608-.632-1.133-1.189-2.306-1.667-3.513-.775-2.015-1.158-4.047-.686-5.995z" transform="translate(-88 -33) translate(88 33) translate(0 17.657)"/>
                        <path fill="#96CAEE" d="M41.277 15.712c-3.867-1.087-6.758-1.358-9.936-1.209-2.6.136-7.506.918-8.948-2.445-.472 1.948-.09 3.988.686 6.006-.35 1.068-1.445 2.825-1.445 2.825-.738-1.255-2.557-3.898-4.561-3.36-1.21-2.868-1.126-5.248-.77-6.872.16-.829.458-1.624.883-2.353-.813-5.756 5.633-7.003 6.44-6.916.73.06 1.465.025 2.186-.106 6.237.5 9.355 3.985 9.355 3.985s1.836-.842 4.217-1.855c2.698-1.15 6.107-2.518 8.352-3.119 2.877 1.378 5.193 3.222 4.686 4.98-.106.344-.292.66-.543.918-1.491 1.613-5.374 2.444-5.374 2.444.032.492.037.986.016 1.478-.078 1.744-.499 4.54-2.362 5.498-.724.348-1.665.446-2.882.1z" transform="translate(-88 -33) translate(88 33) translate(0 17.657)"/>
                        <path fill="#2149FE" d="M40.225 3.048c.61-.256 1.236-.514 1.876-.769.496 1.346 1.338 2.537 2.44 3.453 2.203 1.765 6.178 1.746 7.924-.62 0 .05-.016.1-.03.15-.105.345-.291.66-.542.918-1.491 1.613-5.375 2.445-5.375 2.445.032.492.038.985.017 1.477-.079 1.744-.5 4.54-2.362 5.498-.724.373-1.665.47-2.883.125-.843-.236-1.627-.429-2.394-.595 1.359-.313 2.698-.705 4.01-1.176 4.873-2.19.589-8.146-2.681-10.906zM16.305 10.646c.144-.697.376-1.373.692-2.01 1.717.16 3.448.103 5.152-.169 4.097-.744 5.152-3.781 5.052-7.025.971.158 1.927.402 2.855.731-3.194 2.85-5.18 6.36-4.642 10.132.075.91.523 1.748 1.236 2.315-1.814-.182-3.503-.815-4.249-2.565-.472 1.948-.09 3.988.686 6.006-.35 1.068-1.445 2.826-1.445 2.826-.738-1.255-2.557-3.899-4.561-3.36-1.215-2.877-1.131-5.257-.776-6.881z" transform="translate(-88 -33) translate(88 33) translate(0 17.657)"/>
                        <path fill="#D95214" d="M29.248 33.806c-.176-.869-.249-1.755-.217-2.64.03-.525-.028-1.051-.17-1.557-.814-3.14-4.15-7.31-5.774-11.556-.35 1.068-1.445 2.825-1.445 2.825.217.378.341.628.341.628-2.757 2.74-2.866 6.655-2.866 6.655 1.039.687 3.365 2.418 3.091 3.545-.656 2.716-3.09 5.346-3.09 5.346s-1.723.087-3.878-1.855c-2.156-1.943-1.722-5.482-1.722-5.482.425-1.817-.432-9.154 2.562-11.656.29-.253.631-.439 1-.544-1.209-2.868-1.125-5.248-.77-6.872C13.285 17.505 6.043 23.606.64 24.768c0 0 4.482 7.025.572 11.74-3.91 4.716 2.408 14.506 8.279 16.35 5.87 1.845 9.306-2.099 14.83 3.847 5.523 5.946 7.864-6.38 16.408-3.26-5.505-2.265-10.358-13.544-11.481-19.64z" transform="translate(-88 -33) translate(88 33) translate(0 17.657)"/>
                        <path fill="#F4D1BD" d="M21.636 20.878s1.085-1.757 1.446-2.825c.07.182.146.362.22.544-.36 1.001-.814 1.966-1.357 2.882-.016-.07-.13-.29-.309-.6zM21.886 21.61c-.506.842-1.066 1.65-1.679 2.42.426-.893.993-1.71 1.679-2.42z" style="mix-blend-mode:multiply" transform="translate(-88 -33) translate(88 33) translate(0 17.657)"/>
                        <path fill="#DD3A18" d="M30.398 38.136c2.006 6.052 5.965 13.509 10.328 15.299-5.377-1.959-8.303 2.208-11.117 4.074.965-6.46 1.418-12.916.789-19.373zM.038 39.442c1.248-.517 2.431-1.18 3.525-1.974 3.078-2.174 6.633-4.474 9.914-7.028 0 1.136.203 3.358 1.754 4.757 2.156 1.942 3.878 1.855 3.878 1.855s2.44-2.638 3.091-5.346c.271-1.127-2.052-2.858-3.091-3.545.097-1.433.465-2.836 1.085-4.132.612-.768 1.173-1.577 1.678-2.42.033-.035.06-.07.092-.103v-.03c.543-.915.997-1.88 1.356-2.882.535 1.244 1.14 2.457 1.814 3.632-1.941 10.893-5.71 21.905-11.88 31.176-1.271.016-2.537-.167-3.752-.543C4.667 51.34-.453 44.468.038 39.442z" transform="translate(-88 -33) translate(88 33) translate(0 17.657)"/>
                        <path fill="#7FBA6D" d="M33.394 28.123c-.27.403-.31.917-.108 1.358l.9 1.915c.097.203.241.38.42.516.407.308.95.364 1.41.147l2.858-1.358c.419-.193.711-.586.776-1.043.042-.271.001-.549-.117-.796l-.895-1.902c-.158-.33-.44-.586-.786-.709-.342-.125-.72-.108-1.05.05l-2.86 1.344c-.22.106-.407.27-.543.473l-.005.005zM52.622 46.652c.03.663.115 1.323.255 1.972.111.603.255 1.168.412 1.733.158.565.329 1.125.543 1.692.095.272.214.568.317.861.122.28.224.566.306.859l.025.106c.127-.063.13-.158.165-.234.022-.08.04-.16.052-.242.024-.163.035-.323.043-.483.004-.321-.011-.642-.046-.962-.066-.642-.183-1.278-.35-1.901-.344-1.236-.894-2.405-1.627-3.458l-.095.057z" transform="translate(-88 -33) translate(88 33) translate(0 17.657)"/>
                        <path fill="#DFC5AC" d="M13.588 35.482c-.664-.844-1.123-1.832-1.34-2.885-.11-.492-.18-.993-.211-1.497-.016-.247-.024-.497-.024-.747s0-.475.04-.815v-.06l.022-.097c.032-.2.053-.401.062-.603l.033-.79.035-1.688c.017-1.177.107-2.352.271-3.517.16-1.26.503-2.491 1.02-3.651.301-.655.708-1.255 1.204-1.777.212-.214.443-.41.689-.584-.358-1.14-.563-2.323-.608-3.518l1.733-3.004c-.024.098-.046.196-.068.293-.164.767-.237 1.55-.217 2.334.04 1.104.237 2.197.583 3.246l.063-.022-.044.087c.136.421.293.837.467 1.244l.07.163-.173.038c-.523.13-.996.414-1.356.815-.372.401-.676.86-.9 1.358-.434 1.022-.716 2.102-.838 3.206-.15 1.105-.215 2.225-.255 3.344l-.052 1.687c-.005.572-.057 1.144-.154 1.708v-.019c-.079.844-.03 1.694.143 2.524.163.828.507 1.61 1.01 2.287.547.644 1.202 1.188 1.935 1.608.697.436 1.487.7 2.305.769.598-.672 1.142-1.39 1.627-2.149.5-.764.907-1.585 1.215-2.445.076-.213.14-.431.192-.652.03-.207-.004-.418-.097-.605-.208-.406-.483-.774-.814-1.087-.656-.644-1.374-1.223-2.142-1.728l-.049-.035v-.057c.034-.623.125-1.24.271-1.847.145-.605.337-1.197.575-1.771.466-1.135 1.146-2.168 2.004-3.043l-.287-.584-.025-.046.028-.043c.27-.448.542-.908.794-1.372.254-.46.471-.938.65-1.432l.155.052c-.14.522-.322 1.033-.542 1.527-.179.423-.374.836-.586 1.25l.296.456.15.228-.218.258c-.753.892-1.332 1.919-1.705 3.026-.309.935-.498 1.905-.564 2.887.71.44 1.38.94 2.003 1.494.444.388.812.855 1.085 1.378.203.409.273.872.198 1.323l-.049.222-.046.182c-.035.139-.073.272-.111.397-.311.97-.735 1.902-1.264 2.773-.504.866-1.086 1.684-1.738 2.445l-.352.38-.543.02c-.103.005-.206.005-.309 0l-.23-.02c-.147-.016-.288-.035-.423-.062-.267-.051-.53-.12-.787-.204-.492-.16-.967-.37-1.418-.624" style="mix-blend-mode:multiply" transform="translate(-88 -33) translate(88 33) translate(0 17.657)"/>
                        <path fill="#0C6A72" d="M21.628 20.892c.288-.446.559-.898.814-1.358.248-.471.46-.96.631-1.464l-.051-.02c-.234.165-.444.36-.624.582-.165.198-.31.412-.434.638-.122.233-.218.478-.287.731-.084.28-.115.573-.092.864l.043.027z" transform="translate(-88 -33) translate(88 33) translate(0 17.657)"/>
                        <path fill="#FFF" d="M46.394 8.616c-.185 1.357-.534 2.685-1.042 3.956-.217.554-.538 1.062-.946 1.496-.315.341-.739.562-1.198.625-.5.033-1-.036-1.473-.2l-.995-.319c-.347-.108-.694-.212-1.047-.31-1.423-.372-2.874-.632-4.338-.776-1.47-.108-2.945-.096-4.412.035-1.332.184-2.673.301-4.016.35-1.258 0-2.468-.17-3.33-.885-.903-.69-1.334-2.043-1.532-3.442h-.163c-.061.708-.022 1.422.117 2.119.143.704.466 1.36.938 1.901.488.532 1.102.933 1.784 1.166.68.235 1.387.378 2.104.426 1.405.073 2.814.042 4.214-.095 1.39-.084 2.786-.065 4.174.057 1.389.12 2.768.338 4.127.652.683.152 1.356.332 2.033.514.698.197 1.433.218 2.14.062.711-.184 1.336-.61 1.768-1.206.416-.583.722-1.237.9-1.931.347-1.374.472-2.795.369-4.208l-.176.013z" transform="translate(-88 -33) translate(88 33) translate(0 17.657)"/>
                        <path fill="#1C4595" d="M40.45 21.704c-.19.442-.303.914-.336 1.394-.04.567.07 1.134.317 1.646l.06.122 1.084-.72c-.36-.635-.285-1.418-.062-2.121.215-.725.515-1.423.892-2.078.805-1.324 1.41-2.76 1.795-4.262l-.13.065" transform="translate(-88 -33) translate(88 33) translate(0 17.657)"/>
                        <path fill="#7FBA6D" d="M44.52 27.197c-.466-.473-.938-.937-1.413-1.4l-.813-.814c-.281-.247-.522-.537-.713-.858l-1.085.73c.112.21.242.41.388.598l.225.271.206.237.794.858c.347.37.69.742 1.028 1.111l1.383-.733zM52.386 64.7c.95.67 1.931 1.282 2.913 1.901.493.306.99.606 1.491.9.25.12.478.282.675.477.15.229.296.497.461.734.657.972 1.466 1.83 2.398 2.542.913.723 1.881 1.373 2.896 1.945h.038c.812-.012 1.622-.09 2.421-.236.401-.071.796-.177 1.18-.315.395-.128.753-.35 1.044-.647l-.084-.073c-.332.197-.702.32-1.085.361-.382.06-.768.09-1.155.093-.385.019-.776.016-1.166 0-.39-.017-.787-.022-1.147-.057l.38.097c-.898-.624-1.804-1.32-2.65-2.01-.418-.356-.813-.728-1.196-1.086-.184-.18-.358-.368-.523-.565-.18-.207-.326-.419-.5-.633l-.235-.318c-.084-.114-.13-.201-.293-.418-.093-.117-.2-.221-.32-.31-.086-.062-.177-.119-.271-.168-.152-.082-.271-.15-.412-.21l-1.562-.733c-1.05-.489-2.129-.948-3.235-1.358l-.063.087z" transform="translate(-88 -33) translate(88 33) translate(0 17.657)"/>
                        <path fill="#1C4595" d="M26.384 24.72c.562.98 1.12 1.966 1.595 2.987.299.624.542 1.273.727 1.94l1.355-.405-.122-.39c-.204-.59-.453-1.164-.745-1.715-.543-1.07-1.166-2.05-1.776-3.018-1.218-1.929-2.764-4.314-3.488-5.726-1.01-2-1.694-4.148-2.023-6.365h-.336c.156 1.148.372 2.287.648 3.412.237 1.113.567 2.203.987 3.26" transform="translate(-88 -33) translate(88 33) translate(0 17.657)"/>
                        <path fill="#7FBA6D" d="M30.327 30.905c-.016-.564-.107-1.123-.271-1.663l-1.356.405c.107.41.164.831.171 1.255-.058.988.013 1.98.212 2.95l1.477-.44c-.065-.323-.122-.641-.162-.954M19.117 37.082c.62-.693 1.184-1.434 1.687-2.217.51-.78.93-1.617 1.247-2.493.078-.222.144-.448.198-.677.039-.244 0-.495-.108-.717-.213-.423-.495-.807-.836-1.135-.66-.655-1.387-1.24-2.169-1.744l.033.062c.076-1.224.35-2.428.813-3.564.46-1.141 1.138-2.18 1.999-3.059l-.06-.06c-.522.365-.992.799-1.4 1.288-.416.495-.774 1.035-1.068 1.611-.29.58-.53 1.184-.713 1.807-.186.638-.308 1.293-.363 1.955l-.027.375.344.237c.72.499 1.402 1.052 2.04 1.654.277.259.514.558.702.888.028.054.051.11.07.169v.043c-.002-.005-.002-.011 0-.016V31.592s.016-.087 0-.044v.039l-.016.078-.035.152c-.026.104-.053.207-.082.31-.252.85-.582 1.673-.987 2.461-.209.402-.407.815-.634 1.22-.228.405-.464.798-.703 1.203l.068.07z" transform="translate(-88 -33) translate(88 33) translate(0 17.657)"/>
                        <path fill="#7FBA6D" d="M17.146 17.437c-.56.136-1.065.438-1.45.866-.392.415-.713.891-.95 1.41-.456 1.037-.757 2.135-.895 3.26-.151 1.118-.242 2.243-.271 3.37l-.057 1.685c-.002.556-.047 1.11-.136 1.66-.074.87-.018 1.748.169 2.602.173.861.537 1.673 1.065 2.374.57.66 1.249 1.219 2.007 1.65.745.46 1.593.73 2.467.781v-.108c-.803-.217-1.553-.601-2.199-1.128-.318-.254-.62-.526-.908-.814l-.209-.218-.111-.12-.084-.103c-.117-.14-.227-.285-.328-.437-.385-.64-.64-1.35-.749-2.089-.06-.379-.093-.762-.097-1.146-.013-.375 0-.75.038-1.122l-.02.109c.072-.328.12-.66.142-.995.024-.298.04-.589.051-.874l.025-1.687c.035-1.108.021-2.203.127-3.276.053-1.06.236-2.11.542-3.127.16-.489.39-.952.684-1.374.074-.111.156-.217.244-.318.084-.097.175-.187.271-.272.197-.188.425-.34.675-.448l-.043-.111z" transform="translate(-88 -33) translate(88 33) translate(0 17.657)"/>
                        <path fill="#144895" d="M22 21.484c.074-.626-.014-1.262-.255-1.844-.217-.573-.548-1.095-.974-1.535-.448-.484-1.017-.84-1.648-1.032-.646-.204-1.49-.15-1.974.364l.021.106c.533-.072 1.074.034 1.54.301.473.27.9.614 1.264 1.019.381.394.73.82 1.041 1.271.31.451.608.918.876 1.399l.109-.049z" transform="translate(-88 -33) translate(88 33) translate(0 17.657)"/>
                        <path fill="#7FBA6D" d="M21.964 21.498c-.489-1.001-1.116-1.928-1.862-2.755-.383-.41-.829-.754-1.321-1.021-.493-.28-1.07-.377-1.627-.272v.052c.514.076 1.002.28 1.418.592.406.303.783.645 1.125 1.019.367.37.708.777 1.072 1.176.363.4.726.815 1.147 1.22l.048-.011zM56.614 59.677c-.809-.784-1.763-1.401-2.81-1.817-.53-.201-1.092-.305-1.659-.307-.285.002-.568.045-.84.127-.14.042-.272.105-.394.185-.071.042-.125.109-.152.188l-.048.209c-.153 1.123-.043 2.267.32 3.34.335 1.073.79 2.105 1.355 3.076l.047-.027c-.185-.544-.396-1.054-.543-1.59-.184-.516-.335-1.044-.453-1.58-.225-1.052-.377-2.14-.19-3.116l.039-.18c-.063.16-.093.131-.063.12.076-.05.158-.09.244-.117.223-.07.455-.11.689-.12.508-.018 1.016.049 1.502.2 1.038.342 2.021.834 2.918 1.46l.038-.051z" transform="translate(-88 -33) translate(88 33) translate(0 17.657)"/>
                        <path fill="#DD3A18" d="M35.27 5.495c2.468-1.314 4.55-2.257 6.088-2.904 1.538-.646 2.747-1.086 3.148-1.233 1.05-.391 2.134-.766 3.22-1.062V.27c-4.286 1.13-8.427 2.75-12.342 4.83-.656-.612-1.37-1.158-2.134-1.63-.748-.46-1.537-.85-2.356-1.165-1.636-.646-3.375-.99-5.133-1.016 1.727.134 3.424.533 5.03 1.184.803.323 1.574.721 2.302 1.19" transform="translate(-88 -33) translate(88 33) translate(0 17.657)"/>
                        <path fill="#A4CD8C" d="M33.91 27.629c-.376.176-.656.509-.765.91-.1.401-.037.826.176 1.181l.507 1.087c.184.35.271.758.6 1.054.31.285.728.42 1.146.37.204-.029.401-.095.58-.196l.543-.258 2.17-1.035-.023-.05c-.406.074-.789.205-1.185.305l-1.138.397c-.193.062-.383.13-.567.209l-.138.057-.1.032c-.066.016-.132.025-.199.028-.263.02-.523-.074-.713-.258-.103-.094-.185-.209-.239-.337l-.27-.544c-.193-.35-.372-.711-.581-1.054-.093-.142-.171-.294-.233-.453-.053-.15-.073-.311-.057-.47.033-.37.219-.71.512-.937l-.027-.038z" transform="translate(-88 -33) translate(88 33) translate(0 17.657)"/>
                        <path fill="#A4CD8C" d="M38.866 30.747c.375-.177.654-.51.765-.91.099-.403.034-.829-.18-1.184l-.503-1.087c-.185-.353-.288-.76-.602-1.056-.31-.286-.73-.42-1.147-.37-.204.031-.4.097-.58.196l-.543.271-2.17 1.035.025.05c.407-.077.786-.205 1.182-.308l1.142-.394c.19-.065.38-.13.564-.209l.138-.057.1-.032c.065-.017.132-.027.198-.03.41-.018.79.218.955.595l.271.543c.193.353.372.712.58 1.057.093.143.172.295.236.453.053.15.071.311.055.47-.032.37-.218.711-.513.937l.027.03z" transform="translate(-88 -33) translate(88 33) translate(0 17.657)"/>
                        <g>
                            <path fill="#7FBA6D" d="M.667.228c.423.074.84.253 1.581.845.542.421 1.657 1.32 1.69 2.064.002.168-.006.336-.025.503-.028.218-.078.433-.147.641-.12.371-.263.734-.43 1.087l-.166.331c-.452-.042-.888-.19-1.272-.432-.275-.156-.517-.366-.71-.616-.091-.126-.17-.261-.233-.403-.088-.19-.15-.39-.182-.597-.032-.22-.032-.445 0-.666.111-.972.211-.902.19-1.227C.9 1.264.696.8.37.424.307.339.236.26.157.187.328.183.5.197.667.228z" transform="translate(-88 -33) translate(88 33) translate(0 17.657) translate(18.168 28.25)"/>
                            <path fill="#FFF" d="M2.628 5.528c-.571-.105-1.083-.418-1.438-.877-.259-.356-.41-.78-.433-1.22.006-.394.05-.786.13-1.17.027-.153.04-.213.049-.259C.992 1.657.886 1.1.14.187L.412.4c.265.175.493.399.673.66.19.294.297.636.306.986-.003.263-.021.525-.054.786-.036.303-.036.609 0 .912.05.276.161.537.325.764.201.239.44.444.705.608.147.106.271.185.358.24l-.097.173z" transform="translate(-88 -33) translate(88 33) translate(0 17.657) translate(18.168 28.25)"/>
                        </g>
                        <g>
                            <path fill="#98C883" d="M3.653.111c.383-.016.765.052 1.12.199C8.4 1.736 9.9 8.97 10.879 10.556c0 0 1.524 3.224.095 5.748-1.429 2.523-3.094 2.988-3.094 2.988s-3.143-1.73-4.61-4.094c-.615-.98 1.047-3.357 1.814-4.346 0 0-1.336-3.678-4.818-5.406 0 0 .04-.271.127-.706C.69 3.32 1.581.236 3.653.111z" transform="translate(-88 -33) translate(88 33) translate(0 17.657) translate(49.623 9.78)"/>
                            <path fill="#7FBA6D" d="M3.56.057c.575-.046 1.15.081 1.652.364.5.27.954.62 1.342 1.038.76.84 1.393 1.787 1.88 2.811.496 1.013.94 2.051 1.328 3.11l.586 1.584c.175.527.392 1.038.65 1.53.348.81.57 1.668.662 2.545.105.871.012 1.755-.271 2.586-.331.808-.8 1.553-1.386 2.2-.56.674-1.28 1.198-2.093 1.524l-.03-.106c.695-.458 1.285-1.06 1.73-1.763.222-.341.426-.694.61-1.057l.13-.271.065-.15.05-.125c.066-.17.123-.342.17-.518.165-.728.183-1.482.054-2.217-.06-.38-.151-.756-.27-1.122-.107-.358-.236-.71-.389-1.051l.052.095c-.172-.287-.321-.587-.447-.896-.117-.272-.226-.544-.326-.815L8.767 7.76c-.385-1.038-.716-2.084-1.155-3.067-.389-.988-.895-1.926-1.508-2.793-.305-.42-.67-.794-1.085-1.108C4.914.711 4.804.637 4.69.57c-.11-.066-.225-.126-.342-.179C4.1.275 3.837.204 3.566.182L3.56.057z" transform="translate(-88 -33) translate(88 33) translate(0 17.657) translate(49.623 9.78)"/>
                            <path fill="#7FBA6D" d="M.271 5.433c.154-1.104.46-2.181.911-3.2.235-.51.549-.978.93-1.388.383-.42.9-.69 1.462-.766v.054c-.465.235-.864.582-1.16 1.01-.29.417-.54.86-.746 1.324-.23.467-.426.958-.646 1.456-.22.497-.43 1.002-.705 1.518l-.046-.008z" transform="translate(-88 -33) translate(88 33) translate(0 17.657) translate(49.623 9.78)"/>
                            <g>
                                <path fill="#7FBA6D" d="M2.457.475C2.08.68 1.738.983 1.223 1.777.851 2.347.068 3.553.271 4.27c.05.16.11.318.182.47.096.198.21.386.342.562.23.308.48.602.745.88.063.063.152.155.271.272.414-.18.781-.455 1.071-.801.328-.345.53-.79.575-1.263.023-.208.017-.418-.016-.625-.04-.22-.112-.432-.214-.63-.41-.889-.483-.788-.567-1.106-.096-.488-.047-.993.141-1.453.034-.1.077-.198.128-.29-.164.046-.322.11-.472.19z" transform="translate(-88 -33) translate(88 33) translate(0 17.657) translate(49.623 9.78) translate(2.983 10.594)"/>
                                <path fill="#FFF" d="M2.27 6.126c.506-.283.892-.74 1.084-1.288.134-.42.143-.87.027-1.296-.131-.37-.296-.73-.493-1.07-.073-.136-.106-.187-.125-.228-.165-.313-.238-.872.18-1.975l-.19.288c-.193.25-.337.533-.424.837-.088.34-.08.698.022 1.034.054.21.079.177.296.726.13.276.228.567.29.866.038.274.015.552-.068.815-.116.29-.277.561-.477.802-.106.146-.198.271-.271.34l.149.149z" transform="translate(-88 -33) translate(88 33) translate(0 17.657) translate(49.623 9.78) translate(2.983 10.594)"/>
                            </g>
                        </g>
                    </g>
                    <path fill="#F0C09C" d="M33.974 15.66c-.123.648-.464 1.233-.965 1.66-.48.233-.979.429-1.489.587-.784.32-1.603.548-2.44.679l-.174.021c-1.808.21-3.058.19-3.058.256 0 .065.892.051 2.087.271.636.117 1.263.278 1.877.481.595.14 1.177.33 1.74.568 0 0 1.259.543 3.944 2.52l1.233-.757c.272-.158.708-.383 1.234-.63.832-.39 1.689-.723 2.565-.997 1.763-.543 6.918-2.173 6.874-2.347-.03-.122-2.744.356-5.173.122-.65-.082-1.265-.335-1.785-.733-.438-.325-.807-.736-1.084-1.206-1.741.866-3.82.677-5.378-.49l-.008-.005z" transform="translate(-88 -33) translate(88 33)"/>
                    <path fill="#D95214" d="M29.15 18.276c-.28.065-.584.13-.91.196-.893.179-1.338.271-1.734.307-.308.023-.615.064-.919.125-.168.035-.304.067-.393.09 1.919.088 3.815.454 5.63 1.086.684.222 1.35.502 1.987.836.497.27.978.57 1.44.897.493.337.897.646 1.196.888-.408-.87-.92-1.685-1.524-2.431-.744-.918-1.618-1.72-2.595-2.382M44.558 17.99c1.34-.015 2.031-.029 2.419-.034l.762-.017c-2.254.734-4.61 1.576-7.05 2.543-1.831.728-3.58 1.475-5.242 2.227.832-.89 1.74-1.709 2.711-2.445.592-.456 1.212-.875 1.855-1.255.71-.417 1.45-.78 2.216-1.086" transform="translate(-88 -33) translate(88 33)"/>
                    <g>
                        <path fill="#EFBF9B" d="M10.085 15.628c-.004.48.128.95.382 1.358.284.45.701.799 1.193 1-1.128.56-2.309 1.008-3.525 1.336-.6.163-1.171.272-1.711.38-1.171-.013-2.325-.279-3.384-.78-.582-.275-1.129-.62-1.627-1.029.792-.497 1.296-1.345 1.356-2.279.339.856 2.462 1.796 3.65 1.796 1.187 0 3.324-.927 3.666-1.782z" transform="translate(-88 -33) translate(88 33) translate(30.1)"/>
                        <path fill="#DEC4AB" d="M10.188 16.508c-.332.332-.711.614-1.126.834-.389.217-.8.394-1.225.527-.45.152-.92.237-1.394.252-.467-.008-.93-.09-1.372-.242-.426-.134-.839-.307-1.234-.516-.422-.213-.807-.493-1.139-.83l.12-.927c.067.187.176.356.32.494.295.277.63.509.995.687.719.384 1.51.612 2.323.669.814-.054 1.606-.28 2.324-.666.365-.178.701-.41.998-.687.158-.158.277-.35.347-.562l.063.967z" style="mix-blend-mode:multiply" transform="translate(-88 -33) translate(88 33) translate(30.1)"/>
                        <path fill="#472A19" d="M11.907 8.693c-.186.553-.44 1.083-.754 1.575 0-.122.022-.25.03-.378.073-.42.127-.814.154-1.192.141-1.69-.227-2.885-1.675-3.455l.306.062c.726.196 1.499.116 2.17-.225.433.521.276 2.143-.231 3.613z" transform="translate(-88 -33) translate(88 33) translate(30.1)"/>
                        <path fill="#CF9B6F" d="M1.329 8.584c.101.17.213.332.336.486-.004.273.02.547.07.815.052.674.112 1.263.174 1.79-1.283.367-1.716-3.287-.58-3.091z" transform="translate(-88 -33) translate(88 33) translate(30.1)"/>
                        <path fill="#EDCBB4" d="M9.659 5.23c-2.324-.482-5.74-1.218-6.877.591-.643.821-1.021 1.819-1.085 2.86.03.816.1 2.008.272 3.426.33 2.662.664 3.19.813 3.396.833 1.19 2.327 1.817 3.693 1.817 1.448.009 2.816-.664 3.694-1.817.596-.856.678-1.848.84-3.822.081-1 .098-2.005.05-3.007h.276c.14-1.68-.217-2.872-1.676-3.445z" transform="translate(-88 -33) translate(88 33) translate(30.1)"/>
                        <path fill="#472A19" d="M1.679 8.674v.396c-.123-.154-.235-.317-.337-.486C.377 6.973.108 4.417 1.234 4.047c.404.68.93 1.28 1.55 1.769-.65.818-1.035 1.814-1.105 2.858z" transform="translate(-88 -33) translate(88 33) translate(30.1)"/>
                        <path fill="#78412B" d="M8.818 1.288c1.627 1.431 2.422 3.243 4.179 2.906-.198.371-.502.675-.873.872-.67.341-1.443.421-2.17.226l-.306-.063c-2.324-.48-5.74-1.217-6.877.592-.62-.489-1.147-1.088-1.55-1.768C.235 2.469-.223.535 1.436.34c2.43-.291 5.773-.481 7.381.948z" transform="translate(-88 -33) translate(88 33) translate(30.1)"/>
                        <path fill="#CF9B6F" d="M11.907 8.693c.648.567.19 3.26-.898 2.988.05-.427.095-.9.141-1.421.315-.49.57-1.016.757-1.567z" transform="translate(-88 -33) translate(88 33) translate(30.1)"/>
                        <path fill="#E3B382" d="M1.356 8.595c-.156.003-.295.098-.355.242-.066.138-.103.289-.109.442-.025.321-.005.644.06.96.043.316.135.625.271.915.103.303.388.505.708.502v.022c-.17.052-.352.03-.505-.06-.14-.097-.257-.224-.341-.372-.174-.298-.292-.626-.347-.967-.057-.34-.057-.689 0-1.03.025-.172.088-.337.184-.483.1-.15.279-.226.456-.193l-.022.022zM11.931 8.668c.208.24.318.55.31.867.014.312-.013.626-.082.931-.066.307-.189.598-.363.859-.161.287-.494.432-.814.353v-.022c.294.011.564-.16.678-.432.139-.254.236-.53.288-.815.071-.285.113-.577.124-.872.017-.145.017-.292 0-.437-.01-.149-.055-.293-.133-.421l-.008-.01z" transform="translate(-88 -33) translate(88 33) translate(30.1)"/>
                        <path fill="#DFC5AC" d="M1.681 8.676c.029-.52.135-1.034.315-1.524.193-.484.457-.937.783-1.344l.028.021c-.137.49-.302.972-.494 1.443-.17.485-.37.96-.6 1.42l-.032-.016z" transform="translate(-88 -33) translate(88 33) translate(30.1)"/>
                        <path fill="#4E3323" d="M1.676 8.674c-.132-.258-.195-.545-.185-.834.006-.28.06-.555.158-.815.1-.262.247-.504.43-.715.189-.221.428-.393.698-.5l.035.03c-.314.413-.563.87-.74 1.359-.19.48-.31.985-.353 1.499l-.043-.024z" transform="translate(-88 -33) translate(88 33) translate(30.1)"/>
                        <path fill="#DFC5AC" d="M9.68 5.207c.43.152.815.411 1.118.753.29.355.483.779.561 1.23.108.9.063 1.81-.133 2.695h-.043c-.07-.45-.114-.903-.133-1.358-.021-.418-.067-.834-.136-1.247-.06-.383-.193-.752-.39-1.087-.238-.355-.528-.673-.86-.942l.017-.044z" transform="translate(-88 -33) translate(88 33) translate(30.1)"/>
                        <path fill="#4E3323" d="M9.68 5.207c.502.015.979.218 1.337.568.37.368.614.843.697 1.358.08.478.073.965-.021 1.44-.083.463-.24.91-.467 1.323h-.043c.179-.879.208-1.782.087-2.67-.068-.44-.25-.855-.526-1.204-.293-.339-.666-.599-1.085-.755l.022-.06z" transform="translate(-88 -33) translate(88 33) translate(30.1)"/>
                        <path fill="#593A29" d="M1.255 4.075c-.144.156-.23.357-.24.57-.02.19-.02.383 0 .573.026.199.032.397.075.598.043.2.057.407.103.611.065.41.163.815.241 1.252l.272 1.359-.052.043c-.298-.36-.54-.765-.718-1.198C.76 7.455.628 7.01.542 6.555.454 6.093.438 5.62.494 5.153c.027-.237.098-.468.208-.68.116-.215.31-.379.543-.455l.01.057zM12.175 5.047c.299.386.299.888.299 1.34-.071 1.383-.505 2.724-1.259 3.886l-.057-.038c.05-.508.12-.945.201-1.377.081-.432.176-.847.271-1.266.057-.203.103-.413.152-.616.049-.204.095-.41.16-.614.065-.204.106-.41.144-.617.059-.215.077-.438.054-.66l.035-.038z" transform="translate(-88 -33) translate(88 33) translate(30.1)"/>
                        <path fill="#DFC5AC" d="M6.418 17.429c-.257-.013-.513-.043-.767-.09-.309-.058-.612-.144-.906-.255-.481-.196-.937-.452-1.355-.761-.112-.088-.213-.187-.304-.296-.096-.091-.17-.203-.217-.326-.011-.026-.02-.054-.024-.082.07.076.162.174.27.272.159.147.326.283.502.408.264.187.543.353.833.497.704.333 1.474.507 2.253.508.724-.034 1.43-.242 2.056-.606.415-.3.805-.635 1.166-1 .114-.108.206-.2.27-.271-.097.157-.208.323-.34.497-.134.173-.215.271-.318.38-.848.776-1.97 1.181-3.119 1.125zM10.993 11.68c.07-.594.125-1.192.176-1.79h.068c.043.6.04 1.201.027 1.804l-.27-.013z" style="mix-blend-mode:multiply" transform="translate(-88 -33) translate(88 33) translate(30.1)"/>
                        <path fill="#DFC5AC" d="M13.054 4.21c-.135.5-.452.93-.89 1.204-.451.284-.971.44-1.504.45-.26.014-.52 0-.776-.04l-.686-.1c-.453-.077-.9-.163-1.356-.229-.455-.065-.884-.155-1.32-.212-.432-.064-.866-.106-1.302-.125-.852-.019-1.703.036-2.408.677L2.755 5.8c.256-.398.63-.705 1.068-.88.434-.17.891-.27 1.356-.297.928-.038 1.857.03 2.769.201.455.08.908.174 1.356.272.445.114.898.192 1.356.234.455.027.91-.055 1.328-.24.415-.19.758-.508.982-.907l.084.027z" transform="translate(-88 -33) translate(88 33) translate(30.1)"/>
                        <path fill="#804E38" d="M13.062 4.216c-.225.422-.58.76-1.011.964-.43.202-.902.296-1.375.272-.464-.034-.925-.106-1.378-.215-.45-.09-.903-.176-1.356-.252-.899-.182-1.816-.261-2.733-.237-.456.02-.907.11-1.334.272-.425.161-.788.452-1.039.831l-.078-.046c.143-.514.478-.954.935-1.228.45-.275.95-.46 1.47-.543.974-.146 1.966-.127 2.934.054.466.093.927.193 1.378.307l.667.196c.19.051.377.103.566.144.376.074.763.074 1.14 0 .422-.084.814-.28 1.135-.568l.079.049z" transform="translate(-88 -33) translate(88 33) translate(30.1)"/>
                        <path fill="#84533E" d="M2.752 5.873c-.67-.511-1.235-1.145-1.667-1.869C.617 3.292.33 2.478.247 1.63.198 1.17.394.719.762.44c.19-.121.405-.199.63-.228l.617-.073C2.835.049 3.665.003 4.496 0c.836-.005 1.67.087 2.487.272.835.171 1.602.584 2.207 1.187.602.578 1.114 1.238 1.692 1.814.276.294.602.537.963.717.364.17.772.22 1.166.142l.024.135c-.426.219-.917.274-1.38.155-.462-.126-.896-.336-1.283-.619C9.64 3.26 9.038 2.7 8.444 2.243l-.23-.168c-.07-.046-.122-.076-.187-.111-.128-.071-.26-.135-.396-.19-.306-.119-.623-.202-.947-.25-.724-.129-1.459-.184-2.193-.166-.765-.022-1.552.022-2.349.07l-.575.025H1.43s.019-.06 0-.046c-.019.014-.07.09-.09.21-.025.312 0 .626.074.931.076.371.185.735.325 1.087.27.76.642 1.479 1.107 2.137l-.093.1z" transform="translate(-88 -33) translate(88 33) translate(30.1)"/>
                        <g>
                            <g>
                                <path fill="#F9CFB2" d="M2.644.867c.004-.14-.038-.278-.12-.392-.11-.132-.264-.22-.433-.25C1.579.08 1.03.13.553.364L.282.5.011.627l.057.071c.353.274.768.455 1.21.527.167.011.336.011.504 0 .11-.009.22-.023.33-.043.25-.057.493-.133.73-.229-.13-.027-.193-.051-.198-.086zm-.296.138c-.386.068-.78.091-1.171.068C.953 1.061.73 1.019.517.948.386.908.112.818.118.706c0-.038.038-.07.076-.092C.41.493.644.4.887.342c.137-.041.28-.067.423-.076.287-.02.576.018.848.112.183.088.323.245.391.437-.011.007-.021.015-.03.024-.002.01-.002.019 0 .028-.016.051-.12.065-.17.138z" style="mix-blend-mode:multiply" transform="translate(-88 -33) translate(88 33) translate(30.1) translate(2.44 6.52) translate(5.152 2.173)"/>
                                <g fill="#FFF">
                                    <path d="M.458.497c.312-.147.647-.239.99-.272h.25c.273-.018.54.08.737.272.087.139.14.296.155.46-.407.156-.844.218-1.278.181C.924 1.11.546 1 .203.815.236.848.122.755.111.715" transform="translate(-88 -33) translate(88 33) translate(30.1) translate(2.44 6.52) translate(5.152 2.173)"/>
                                    <path d="M2.497.831C2.442.521 2.175.293 1.86.288 1.454.238 1.042.285.656.424.586.467.24.75.32.818.391.855.465.886.542.91c.217.053.437.092.66.114.406.063 1.076.079 1.295-.193z" transform="translate(-88 -33) translate(88 33) translate(30.1) translate(2.44 6.52) translate(5.152 2.173)"/>
                                </g>
                                <g>
                                    <path fill="#1A0909" d="M.193.622C.175.745.208.87.283.968c.076.098.188.161.31.176.26.035.501-.143.543-.402.018-.123-.015-.248-.09-.346C.97.298.858.234.735.22.475.184.235.363.193.622z" transform="translate(-88 -33) translate(88 33) translate(30.1) translate(2.44 6.52) translate(5.152 2.173) translate(.813)"/>
                                    <path fill="#5C8AC7" d="M.727.25c.11.015.21.075.278.164.067.09.096.203.08.314-.043.229-.255.385-.486.359C.487 1.073.385 1.015.316.925.246.835.217.72.233.608.276.376.493.218.727.25z" transform="translate(-88 -33) translate(88 33) translate(30.1) translate(2.44 6.52) translate(5.152 2.173) translate(.813)"/>
                                    <path fill="#060508" d="M.955.627C.964.701.942.776.895.833.848.891.779.926.705.932.55.948.41.837.39.682.381.608.403.534.45.476.497.42.566.383.64.378c.155-.015.293.095.315.25z" transform="translate(-88 -33) translate(88 33) translate(30.1) translate(2.44 6.52) translate(5.152 2.173) translate(.813)"/>
                                    <path fill="#FFFAE4" d="M.813.475c.012.057.062.097.12.095C.959.57.984.558 1 .538c.016-.02.023-.048.019-.073C1.009.407.959.365.9.367.874.367.85.38.832.4.816.422.81.45.813.475z" transform="translate(-88 -33) translate(88 33) translate(30.1) translate(2.44 6.52) translate(5.152 2.173) translate(.813)"/>
                                    <path fill="#94BCE4" d="M.396.858c.078.111.215.164.347.134C.875.962.976.854.998.72c.021.013.04.03.057.049-.036.159-.167.278-.328.299C.58 1.09.432 1.026.35.902c0 0 .04-.049.046-.044zM.353.494c-.048.1-.048.218 0 .318H.306C.251.708.27.58.353.494z" transform="translate(-88 -33) translate(88 33) translate(30.1) translate(2.44 6.52) translate(5.152 2.173) translate(.813)"/>
                                </g>
                            </g>
                            <g>
                                <path fill="#F9CFB2" d="M.163.815c.223.124.456.23.697.318.106.033.213.06.322.081.165.032.332.05.5.057.447-.014.883-.14 1.268-.37L3.013.84 2.74.676l-.27-.168C2.024.213 1.486.095.96.177.789.184.626.252.502.369.36.52.382.584.334.744.342.788.27.814.163.814zM.485.766C.487.757.487.748.485.739L.458.712C.548.526.71.385.906.32c.281-.059.572-.059.854 0 .142.025.28.068.412.127.233.092.452.215.65.367.036.022.059.06.063.1 0 .11-.293.166-.428.19-.222.043-.448.057-.673.041-.39-.026-.777-.097-1.152-.212C.586.848.485.814.485.774V.766z" style="mix-blend-mode:multiply" transform="translate(-88 -33) translate(88 33) translate(30.1) translate(2.44 6.52) translate(0 1.901)"/>
                                <path fill="#FFF" d="M2.568.657C2.278.476 1.96.345 1.627.272 1.548.258 1.477.247 1.38.239 1.11.188.832.255.616.424.51.549.438.698.404.858c.377.202.796.315 1.223.332.39.02.78-.043 1.144-.185.04-.021.075-.05.103-.087" transform="translate(-88 -33) translate(88 33) translate(30.1) translate(2.44 6.52) translate(0 1.901)"/>
                                <g>
                                    <path fill="#FFF" d="M2.297.657c-.29-.181-.608-.312-.941-.385-.079-.014-.15-.025-.247-.033C.84.188.561.255.344.424.24.549.167.698.133.858c.377.202.795.315 1.223.332.39.02.78-.043 1.144-.185.04-.021.075-.05.103-.087" transform="translate(-88 -33) translate(88 33) translate(30.1) translate(2.44 6.52) translate(0 1.901) translate(.271)"/>
                                    <path fill="#1A0909" d="M1.128.709c.003.125-.045.245-.132.334-.088.088-.207.137-.332.136-.26 0-.474-.207-.482-.467C.179.588.227.468.314.38.4.292.519.242.643.242c.261-.002.476.205.485.467z" transform="translate(-88 -33) translate(88 33) translate(30.1) translate(2.44 6.52) translate(0 1.901) translate(.271)"/>
                                    <path fill="#5C8AC7" d="M.645.272C.532.27.422.315.343.396.263.477.219.587.223.701c.008.238.203.426.441.426.113.001.22-.043.3-.123.078-.08.122-.188.12-.3C1.08.464.885.273.646.272z" transform="translate(-88 -33) translate(88 33) translate(30.1) translate(2.44 6.52) translate(0 1.901) translate(.271)"/>
                                    <path fill="#060508" d="M.371.622C.354.694.366.77.405.832.445.895.508.94.58.953.733.99.886.896.925.744.942.672.93.596.89.534.85.47.786.426.713.412.561.377.41.47.371.623z" transform="translate(-88 -33) translate(88 33) translate(30.1) translate(2.44 6.52) translate(0 1.901) translate(.271)"/>
                                    <path fill="#FFFAE4" d="M.542.486C.524.541.47.576.412.568.386.564.362.549.348.527.334.504.331.477.34.45.357.396.412.36.469.369c.026.004.05.019.064.042.014.022.018.05.01.075z" transform="translate(-88 -33) translate(88 33) translate(30.1) translate(2.44 6.52) translate(0 1.901) translate(.271)"/>
                                    <path fill="#94BCE4" d="M.895.92c-.092.1-.234.134-.36.087C.408.96.322.84.317.707.293.714.272.728.255.746c.014.163.13.299.287.34.143.04.297-.007.394-.12 0 0-.033-.054-.041-.046zM.987.562c.03.108.01.224-.054.315l.04.02C1.054.8 1.06.663.987.561z" transform="translate(-88 -33) translate(88 33) translate(30.1) translate(2.44 6.52) translate(0 1.901) translate(.271)"/>
                                </g>
                            </g>
                            <g>
                                <path fill="#F9CFB2" d="M2.668.864c-.027-.166 0-.228-.119-.394-.11-.132-.262-.222-.431-.253C1.605.072 1.057.12.578.353L.306.486l-.27.128.056.07c.352.276.768.458 1.21.53.167.012.334.012.501 0 .111-.007.222-.021.331-.04.25-.055.495-.13.732-.226-.12-.027-.192-.052-.198-.084zM2.373 1c-.387.064-.78.085-1.172.062C.976 1.047.754 1.004.54.934.41.891.136.801.14.693c0-.041.038-.07.076-.095C.435.477.669.385.91.326c.139-.04.282-.065.426-.073.287-.02.575.018.846.114.185.09.325.252.388.448-.012.005-.021.014-.027.024v.025c-.017.049-.12.062-.171.136z" style="mix-blend-mode:multiply" transform="translate(-88 -33) translate(88 33) translate(30.1) translate(2.44 6.52) translate(5.152 2.173)"/>
                                <path fill="#FFF" d="M.483.484c.312-.148.648-.24.992-.272h.25c.272-.018.54.08.734.272.088.138.14.295.152.459-.405.156-.841.218-1.274.179C.95 1.098.572.994.227.815.26.848.148.755.137.717" transform="translate(-88 -33) translate(88 33) translate(30.1) translate(2.44 6.52) translate(5.152 2.173)"/>
                                <g>
                                    <path fill="#FFF" d="M.483.484c.312-.148.648-.24.992-.272h.25c.272-.018.54.08.734.272.088.138.14.295.152.459-.405.156-.841.218-1.274.179C.95 1.098.572.994.227.815.26.848.148.755.137.717" transform="translate(-88 -33) translate(88 33) translate(30.1) translate(2.44 6.52) translate(5.152 2.173)"/>
                                    <g>
                                        <path fill="#1A0909" d="M.111.413C.093.536.125.66.2.76c.075.098.187.162.31.177.26.038.5-.14.542-.4C1.071.416 1.04.29.964.192.888.092.777.028.654.014.394-.024.153.154.11.413z" transform="translate(-88 -33) translate(88 33) translate(30.1) translate(2.44 6.52) translate(5.152 2.173) translate(.271 .272)"/>
                                        <path fill="#5C8AC7" d="M.645.046C.758.06.861.117.93.207c.069.09.098.205.081.317C.973.76.754.922.518.891.405.878.302.821.233.73.164.64.135.525.152.413.189.177.409.013.645.046z" transform="translate(-88 -33) translate(88 33) translate(30.1) translate(2.44 6.52) translate(5.152 2.173) translate(.271 .272)"/>
                                        <path fill="#060508" d="M.873.424c.01.074-.012.148-.06.205C.767.687.699.723.624.728.469.742.33.631.31.475.3.402.322.327.37.27.416.212.485.177.559.17.714.157.853.268.873.424z" transform="translate(-88 -33) translate(88 33) translate(30.1) translate(2.44 6.52) translate(5.152 2.173) translate(.271 .272)"/>
                                        <path fill="#FFFAE4" d="M.73.272c.01.056.059.097.116.097C.872.37.897.357.914.337.931.317.938.289.933.263.925.206.874.163.816.166.79.166.765.178.748.198.732.218.725.246.73.272z" transform="translate(-88 -33) translate(88 33) translate(30.1) translate(2.44 6.52) translate(5.152 2.173) translate(.271 .272)"/>
                                        <path fill="#94BCE4" d="M.315.652c.077.11.214.164.346.134C.793.756.894.65.917.516c0 0 .056.044.056.049C.937.723.806.841.645.861.497.886.35.82.268.693c0 0 .041-.046.047-.041zM.271.285c-.047.102-.047.22 0 .32L.228.62C.163.511.18.373.27.285z" transform="translate(-88 -33) translate(88 33) translate(30.1) translate(2.44 6.52) translate(5.152 2.173) translate(.271 .272)"/>
                                    </g>
                                </g>
                            </g>
                            <g>
                                <path fill="#FAD0B3" d="M3.872.975C3.46.47 3.06.546 2.424.562c-.366.018-.73.074-1.084.169-.15.033-.298.08-.44.141C.805.915.697.502.71.456.724.41.675.443.664.456.54.586.5.774.561.943c.084.271.543.038.69 0 .467-.14.955-.198 1.442-.172.499.038.848.383 1.274.593-.007-.135-.04-.266-.095-.389z" style="mix-blend-mode:multiply" transform="translate(-88 -33) translate(88 33) translate(30.1) translate(2.44 6.52) translate(4.339 .815)"/>
                                <g fill="#573416">
                                    <path d="M3.116.581c-.104-.12-.224-.224-.358-.31-.322-.109-.661-.157-1-.14l-.25.024C1.188.18.87.237.56.32.44.359.32.41.195.443.195.535.174.714.174.77V.752C.152.711.128.671.1.632c-.004.081.004.162.025.24.055.058.116.11.181.158C.952.774 1.646.58 2.356.758c.378.062.727.238 1.001.505l.033-.022C3.363 1 3.268.771 3.116.581z" transform="translate(-88 -33) translate(88 33) translate(30.1) translate(2.44 6.52) translate(4.339 .815) translate(.542)"/>
                                    <path d="M3.379 1.209C2.889.635 2.136.357 1.39.475 1.022.563.66.675.306.812.244.838.174.838.111.812.114.834.12.855.127.875c.055.057.115.109.18.155C.951.774 1.645.58 2.356.758c.377.062.726.238 1 .505l.033-.022-.011-.032z" transform="translate(-88 -33) translate(88 33) translate(30.1) translate(2.44 6.52) translate(4.339 .815) translate(.542)"/>
                                </g>
                                <path fill="#ECB799" d="M.209.682C.257.49.334.306.439.139.25.31.114.536.052.785c-.03.223.122.334.27.462C.248 1.068.209.876.21.682z" style="mix-blend-mode:multiply" transform="translate(-88 -33) translate(88 33) translate(30.1) translate(2.44 6.52) translate(4.339 .815)"/>
                            </g>
                            <g>
                                <path fill="#573416" d="M3.295 1.372C2.899 1.196 2.533.959 2.21.67c-.262-.246-.597-.4-.955-.44C.808.206.385.587.171.986c-.048.053-.087.113-.114.18-.008.009-.008.023 0 .032C.26 1.03.489.893.732.79.857.714.995.664 1.14.641l.092-.03c.288.087.567.448.76.625.07.065.143.139.222.21.088.13.204.239.339.32.135.076.297.088.442.033.145-.055.258-.172.309-.319.035-.038.035-.092-.008-.108z" transform="translate(-88 -33) translate(88 33) translate(30.1) translate(2.44 6.52)"/>
                                <path fill="#573416" d="M2.758 1.6c-.25-.052-.507-.435-.678-.606C1.716.627 1.337.31.816.606c-.27.166-.519.363-.743.587.205-.168.432-.305.675-.408.125-.076.263-.127.407-.15l.092-.03c.288.088.567.449.76.626.07.065.143.138.222.209.088.13.204.24.339.32.135.076.297.089.442.034.145-.056.258-.172.31-.319v-.033c-.163.12-.362.175-.562.158z" style="mix-blend-mode:multiply" transform="translate(-88 -33) translate(88 33) translate(30.1) translate(2.44 6.52)"/>
                                <path fill="#ECB799" d="M3.688 1.42c0-.016-.025 0-.027 0-.033.17-.185.272-.242.416 0 .017-.013.044 0 .057.021.007.044.001.06-.013.143-.107.222-.28.209-.46zM3.232 1.486c-.108.098-.168.35-.385.272-.185-.101-.349-.237-.482-.4-.234-.28-.499-.534-.79-.755C1.335.46 1.035.467.8.619c-.271.123-.447.43-.705.527 0 0-.03.036 0 .036.247 0 .51-.272.721-.386.605-.302 1.006.364 1.378.739.19.187.501.516.813.432.2-.082.337-.269.355-.484-.021-.054-.108-.022-.13.003z" style="mix-blend-mode:multiply" transform="translate(-88 -33) translate(88 33) translate(30.1) translate(2.44 6.52)"/>
                            </g>
                        </g>
                        <g>
                            <path fill="#EBB698" d="M.719 3.735c-.088-.007-.174-.027-.255-.06-.09-.035-.176-.082-.255-.138.304-.007.605-.053.897-.136.038-.014.112-.049.171-.079.111-.047.217-.106.315-.176.048-.039.092-.082.133-.128l-.093.166c-.159.222-.375.398-.626.508-.092.031-.19.046-.287.043z" style="mix-blend-mode:multiply" transform="translate(-88 -33) translate(88 33) translate(30.1) translate(5.694 8.964)"/>
                            <path fill="#9D5317" d="M1.112 3.488c-.125.039-.255.061-.385.068-.143-.01-.282-.05-.407-.12.168.045.342.058.515.041.082-.019.166-.049.166-.049l.057-.019c.215-.063.392-.216.485-.42 0-.02.019-.053.03-.096.008-.1.002-.2-.02-.299-.056-.247-.189-.337-.357-.627-.068-.13-.129-.263-.182-.4C.834 1.127.694.673.591.21c.11.181.195.376.255.579L.927.98c.122.296.244.595.364.836.27.544.382.544.401.799.004.188-.037.374-.12.543-.053.14-.14.266-.251.367-.083.066-.174.12-.272.16l-.076.03c-.088.024-.182.024-.27 0C.595 3.69.495 3.644.406 3.58c.058.024.12.042.181.055.184.04.377.013.543-.076.103-.05.19-.126.255-.22-.084.062-.176.112-.274.149z" transform="translate(-88 -33) translate(88 33) translate(30.1) translate(5.694 8.964)"/>
                            <path fill="#FAEAE1" d="M.654.272c.013 0 .04.146.181.6.077.286.176.566.296.837.152.312.25.48.25.48.063.096.114.2.151.307.042.123.056.252.043.38 0 .013-.004.025-.013.033-.049.041-.2-.17-.22-.195-.085-.122-.154-.253-.206-.391-.103-.272-.154-.386-.209-.56C.771 1.28.68.779.654.272z" transform="translate(-88 -33) translate(88 33) translate(30.1) translate(5.694 8.964)"/>
                        </g>
                        <g>
                            <path fill="#FAD0B3" d="M5.1.79C5.055.585 4.953.397 4.806.247c-.271-.271-.751-.182-1.098-.13-.023.012-.044.028-.06.049.214.03.637.095.618.1H4.23l.065.025c-.27.062-.515.152-.783.198-.337.057-.676.095-1.015.136-.382.046-.762.098-1.147.114-.067 0-.217.027-.363.027-.16.02-.32.02-.48 0C.464.766.456.709.47.676L.494.627.382.68.344.7C.282.778.238.87.214.968c.122.069.242.128.355.196l.03.02c.1.063.191.14.271.228l.066.07c.065.063.13.125.192.19.206.215.355.487.654.57.3.036.604.011.894-.073.305-.031.605-.092.898-.182.184-.082.333-.226.423-.407.079-.144.15-.293.222-.44.025-.049.052-.098.076-.15l.03-.065c.052-.147.146-.276.271-.37.114-.064.19.044.247.14.008.016.014.033.019.051l.022.033c.037.065.069.133.095.203.021.067.048.131.081.193.032-.126.046-.256.04-.386z" style="mix-blend-mode:multiply" transform="translate(-88 -33) translate(88 33) translate(30.1) translate(4.067 13.039)"/>
                            <path fill="#EEC1A6" d="M3.11 2.483c-.202.08-.415.132-.632.152-.18.035-.365.028-.542-.02.075.102.166.188.271.256.089.027.18.045.271.055.175.018.35-.036.483-.15.055-.095.105-.193.15-.293z" style="mix-blend-mode:multiply" transform="translate(-88 -33) translate(88 33) translate(30.1) translate(4.067 13.039)"/>
                            <path fill="#804E29" d="M4.862.416c0-.033-.024-.063-.038-.095C4.766.24 4.666.2 4.569.22c-.043 0-.122.035-.2.052.055.029.115.05.176.065h.024c-.094.043-.191.081-.29.114-.347.086-.698.153-1.052.2-.682.114-1.37.184-2.061.21C.933.883.699.873.469.831.444.824.424.805.417.781.409.755.415.728.43.708L.494.652C.424.669.36.704.309.752.26.817.23.894.222.975L.26.956c.497.03.947.706 1.218 1.051.187.242.515.18.83.125.396-.033.788-.104 1.171-.211.141-.044.236-.063.306-.174.272-.451.35-1.008.814-1.31.031-.013.062-.029.092-.046.026.018.049.041.065.068.044.082.057.168.155.204C4.9.579 4.883.497 4.862.416z" transform="translate(-88 -33) translate(88 33) translate(30.1) translate(4.067 13.039)"/>
                            <path fill="#8A1812" d="M4.067.98c-.089.172-.157.354-.233.544-.076.188-.239.327-.436.372-.242.025-.483.07-.722.109-.306.049-.67.165-.979.065-.19-.172-.352-.373-.48-.595-.15-.21-.346-.384-.574-.505C1.285.97 1.9.9 2.126.872 2.776.793 3.406.714 4.049.6c.105-.021.238-.04.371-.07-.146.125-.266.279-.353.45z" transform="translate(-88 -33) translate(88 33) translate(30.1) translate(4.067 13.039)"/>
                            <path fill="#FFF" d="M3.674.902c-.22.054-.444.084-.67.122-.526.092-1.049.193-1.578.253-.008.171.006.343.041.51v.055c.058.084.13.156.214.214.31.1.673-.016.98-.065.238-.038.48-.084.72-.109.198-.045.36-.184.437-.372l.122-.293c-.04-.19-.125-.35-.266-.315z" transform="translate(-88 -33) translate(88 33) translate(30.1) translate(4.067 13.039)"/>
                            <path fill="#B7A896" d="M3.674.902c-.22.054-.444.084-.67.122-.526.092-1.049.193-1.578.253-.012.09-.012.181 0 .271.023-.031.057-.053.095-.06.366-.056.757 0 1.131-.046.27-.013.536-.06.795-.138.084-.033.116-.046.195 0 .078.046.095.223.073.367.042-.051.077-.108.103-.169l.122-.293c-.04-.182-.125-.342-.266-.307z" opacity=".6" style="mix-blend-mode:multiply" transform="translate(-88 -33) translate(88 33) translate(30.1) translate(4.067 13.039)"/>
                            <path fill="#FFF" d="M1.676 1.413c.394.017.79-.007 1.18-.074.182-.03.363-.07.542-.122.16-.046.423-.084.542-.223.091-.125.144-.274.152-.429h-.046c-.643.128-1.272.206-1.923.272-.192.024-.667.07-1.204.09.153.28.438.463.757.486z" transform="translate(-88 -33) translate(88 33) translate(30.1) translate(4.067 13.039)"/>
                            <path fill="#A04E17" d="M2.462 2.589c-.167.028-.337.028-.504 0 .057.069.127.126.206.168.213.023.429-.009.626-.092.048-.036.093-.075.136-.117-.154.023-.309.037-.464.04z" transform="translate(-88 -33) translate(88 33) translate(30.1) translate(4.067 13.039)"/>
                            <path fill="#FBEBE2" d="M1.326.763C1.046.795.761.768.491.685c-.044.32 1.437.067 1.627.051 0 0 .03-.032 0-.035-.252.03-.52.057-.792.062zM2.641 2.295c-.325 0-.637.136-.954-.016.043.106.128.189.236.228l.07.014c.169.016.339-.01.494-.079.055-.044.107-.093.154-.147z" transform="translate(-88 -33) translate(88 33) translate(30.1) translate(4.067 13.039)"/>
                        </g>
                    </g>
                    <g fill="#FFF">
                        <path d="M2.633 1.328c-.006.23-.076.454-.2.647-.017.015-.027.037-.027.06 0 .022.01.044.026.06.056.055.085.132.082.21-.003.08-.039.153-.098.205-.057.054-.134.08-.212.074-.078-.008-.149-.048-.195-.112-.03-.045-.091-.058-.138-.03-.486.206-1.05.074-1.394-.326C.126 1.72.067 1.143.331.683c.263-.46.79-.7 1.31-.595.518.105.912.53.978 1.056.011.073.011.144.014.184zm-.735.163c.07-.242.01-.504-.157-.692-.078-.09-.189-.144-.307-.15-.119-.004-.234.04-.32.122C.886.995.82 1.337.95 1.63c.05.129.147.234.271.293.093.037.195.037.288 0-.036-.048-.075-.095-.117-.138-.056-.054-.087-.13-.084-.208.003-.078.04-.15.1-.2.058-.052.133-.078.21-.074.077.005.15.04.2.099l.081.09zM8.864 1.326l.074-.08.52-.578c.082-.092.207-.132.327-.106.12.026.217.115.254.232.037.118.008.246-.076.336l-.513.565.241.326c.076.098.152.198.223.299.057.073.082.167.07.26-.012.092-.06.175-.135.231-.074.056-.167.079-.257.063s-.17-.07-.22-.147c-.166-.217-.326-.437-.489-.654l-.062-.08c-.002.024-.002.048 0 .071 0 .142-.014.286-.022.427-.007.183-.158.328-.341.326-.183-.004-.33-.151-.334-.334v-.038c.027-.544.052-1.087.081-1.63 0-.09.035-.176.1-.238.063-.063.15-.096.24-.093.18.004.323.15.325.33 0 .164-.016.327-.025.49l.02.022zM3.48 1.152c0 .179-.02.361-.025.543-.01.171.12.318.291.327.17.01.317-.12.327-.292.019-.377.035-.752.057-1.127.005-.117.072-.223.175-.28.103-.055.228-.052.33.008.111.06.178.178.17.305-.016.388-.024.78-.065 1.165-.063.508-.504.883-1.015.862-.511-.021-.92-.432-.94-.944 0-.396.024-.793.051-1.19.005-.09.047-.173.116-.23C3.02.24 3.11.213 3.2.224c.089.007.171.05.229.118.058.069.085.157.077.246-.005.182-.016.373-.027.563zM7.026 2.814c-.498-.026-.93-.351-1.096-.823-.165-.47-.03-.995.342-1.328.372-.333.907-.408 1.356-.19.12.064.229.15.32.252.078.08.108.195.08.303-.029.108-.112.193-.218.224-.113.03-.233 0-.318-.081-.01-.009-.02-.019-.027-.03-.1-.154-.282-.234-.463-.206-.182.028-.33.16-.38.336-.114.238-.095.517.051.736.072.123.197.204.338.22.14.014.28-.039.376-.144.068-.078.166-.125.27-.127.11-.001.212.056.268.15.055.094.057.21.004.306-.069.12-.173.215-.298.272-.186.1-.395.144-.605.13zM5.675 1.51c-.013.272-.027.544-.043.832-.007.154-.12.283-.271.312-.144.035-.293-.032-.363-.163-.032-.062-.048-.131-.047-.201.025-.543.05-1.087.08-1.63.005-.121.076-.23.184-.285.108-.055.237-.049.339.018.102.066.16.181.154.302 0 .272-.024.544-.038.815h.005zM10.22 1.73l.04-.815c.006-.12.075-.23.182-.287.107-.056.237-.051.34.014.102.065.162.18.157.3-.025.544-.053 1.087-.082 1.63-.008.168-.138.304-.305.32-.167.017-.32-.092-.362-.254-.006-.04-.006-.082 0-.123.006-.252.02-.518.03-.785z" transform="translate(-88 -33) translate(88 33) translate(29.015 25.263)"/>
                    </g>
                    <g fill="#FFF">
                        <path d="M.91 1.41c.033.086.045.18.033.272 0 .023 0 .033.018.043.027.011.049.035.06.065.01.03.01.063-.004.092-.01.03-.032.051-.059.061-.027.01-.057.007-.081-.008-.015-.014-.036-.014-.051 0-.13.167-.346.22-.53.13-.178-.09-.284-.293-.266-.507.02-.214.161-.39.352-.437.19-.047.387.044.489.227l.039.062zm-.222.184c-.013-.102-.073-.188-.158-.23-.04-.02-.086-.022-.127-.004-.04.018-.073.054-.089.1-.037.115-.007.244.075.327.037.04.086.062.138.062.036 0 .07-.017.095-.045-.019-.012-.039-.022-.06-.03-.026-.012-.047-.035-.058-.064-.01-.029-.01-.062.002-.09.012-.029.033-.051.06-.063.027-.01.057-.01.083.004l.04.033zM2.733.492V.459l.082-.25c.007-.03.026-.057.053-.073.028-.015.06-.018.09-.008.031.009.057.03.07.06.015.028.016.062.004.092l-.079.244.12.065.108.06c.057.031.079.103.049.16-.016.028-.041.048-.072.055-.03.008-.062.003-.088-.014L2.83.717h-.03V.74c.02.043.038.09.054.133.022.057-.004.12-.06.147-.056.023-.12 0-.148-.055L2.443.451c-.011-.027-.012-.058 0-.086.01-.027.032-.05.06-.06C2.53.29 2.563.29 2.59.3c.028.011.05.034.061.063.022.049.04.1.06.152l.021-.024z" transform="translate(-88 -33) translate(88 33) translate(34.71 45.907)"/>
                        <path d="M1.063 1.184c.022.057.043.114.068.171.013.035.044.06.08.065.037.005.074-.009.097-.038.023-.029.029-.068.015-.103L1.185.926C1.171.89 1.177.848 1.2.816c.024-.031.062-.048.102-.045.043.002.08.03.095.071.048.12.1.242.14.364.048.163-.036.336-.193.4-.157.063-.337-.003-.417-.153-.054-.122-.1-.247-.149-.372-.01-.028-.008-.06.005-.087C.796.967.82.946.849.937c.059-.02.123.012.143.07.025.058.047.118.071.177zM2.378 1.2c-.155.06-.33.02-.445-.1-.115-.12-.146-.298-.08-.45.067-.153.218-.25.384-.248.046.002.091.014.133.033.035.014.06.045.065.082.006.037-.007.075-.035.1-.031.023-.072.03-.109.019-.051-.034-.118-.034-.17 0-.052.032-.08.093-.071.154-.001.089.044.172.12.218.037.028.087.037.132.022.045-.014.08-.05.095-.096.01-.034.035-.063.068-.078s.072-.01.101.01c.03.022.046.057.043.093-.004.046-.022.09-.052.125-.047.055-.11.096-.179.117zM1.784.989l.1.271c.02.048.005.103-.037.134-.04.03-.094.03-.133 0-.018-.015-.031-.034-.04-.055-.069-.168-.136-.34-.202-.508-.014-.028-.015-.06-.003-.09s.036-.052.066-.062c.028-.012.06-.012.09.001.028.013.05.037.059.067.032.084.065.168.1.253V.989zM3.205.426c-.035-.084-.068-.168-.1-.252-.017-.038-.012-.083.014-.116.025-.033.067-.05.108-.043.041.007.075.035.09.075.067.17.135.34.2.513.02.052-.002.111-.05.139-.049.027-.11.016-.145-.028-.008-.01-.014-.023-.02-.035L3.206.426z" transform="translate(-88 -33) translate(88 33) translate(34.71 45.907)"/>
                    </g>
                </g>
            </g>
        </g>
    </g>
</svg>
