<svg xmlns="http://www.w3.org/2000/svg" width="222" height="53" viewBox="0 0 222 53">
    <g fill="none" fill-rule="evenodd">
        <g fill-rule="nonzero">
            <g>
                <g>
                    <g>
                        <path fill="#2149FE" d="M50.81 25.067c-.02 5.27-1.112 9.57-3.472 13.497-.566.94-.69 1.536.187 2.443 2.556 2.632 2.516 6.207.072 8.563-2.444 2.355-5.777 2.223-8.372-.4-.941-.94-1.63-1.032-2.843-.448-9.761 4.725-21.448 2.582-28.911-5.303-7.629-7.785-9.438-19.593-4.492-29.317C7.925 4.378 18.518-1.082 29.279.546c10.76 1.628 19.277 9.979 21.144 20.734.244 1.483.307 2.983.387 3.787zm-14.874 4.087c.845-5.639-.136-10.302-3.947-14.073-3.811-3.771-9.062-3.631-12.86.048-4.322 4.183-5.435 11.87-2.56 17.7 1.295 2.624 3.165 4.68 5.936 5.751 1.91.722 4.025.683 5.908-.108-.795-.955-1.651-1.856-2.563-2.7-2.428-2.503-2.436-6.09-.064-8.438 2.372-2.347 5.98-2.271 8.456.136.47.46.932.924 1.694 1.684zM26.854 2.052C9.37 2.052-2.08 18.328 3.353 33.613c1.176 3.395 3.14 6.462 5.729 8.946.263.252.797.224 1.196.324-.032-.423-.113-.84-.244-1.244-.198-.31-.435-.596-.705-.847-4.126-5.2-5.741-11.11-4.629-17.597C7.706 5.715 27.29-1.452 40.931 9.822c.399.332 1.069.336 1.595.492-.251-.52-.379-1.164-.77-1.544-4.485-4.415-9.914-6.646-14.902-6.718zm13.579 24.862c-.275-4.61-1.511-8.77-4.593-12.253-.302-.373-.653-.703-1.044-.98-.263-.14-.578-.14-.841 0-.152.128-.132.56-.06.828.119.238.276.454.466.64 2.962 3.9 3.987 8.31 3.389 13.13-.271 2.219-.901 2.639-3.102 2.279-.29-.03-.58.066-.797.264-.107.226-.087.492.052.7 1.004.62 1.993 1.451 3.085 1.68 1.288.271 2.233-.709 2.576-1.928.41-1.416.594-2.88.869-4.36zM26.623 43.42c1.345-.263 2.675-.594 3.987-.992 1.16-.4 2.16-1.368 1.91-2.631-.228-1.152-1.053-2.196-1.683-3.248-.247-.174-.566-.21-.845-.096-.172.1-.247.556-.192.8.543 2.44.156 3.04-2.328 3.456-3.285.551-6.191-.288-8.77-2.368-.343-.276-.898-.288-1.356-.424.148.492.148 1.124.462 1.452 2.31 2.438 5.466 3.89 8.815 4.051zm1.407-10.542c0-2.571 1.898-3.647 4.214-2.8.416.069.84.069 1.256 0-.147-.4-.187-.923-.458-1.231-1.077-1.264-2.796-1.771-4.384-1.295-1.587.477-2.745 1.849-2.952 3.499-.255 1.787.67 3.055 1.954 4.099.219.176.637.104.964.144.033-.34.02-.683-.036-1.02-.16-.475-.347-.94-.558-1.396zM178.71 18.744c.471-.556.941-1.104 1.404-1.668 3.373-4.127 6.73-8.27 10.118-12.397 2.79-3.387 7.068-3.971 10.146-1.42 3.19 2.66 3.489 6.903.646 10.398-3.261 4-6.558 7.999-9.935 12.09 1.79 2.187 3.54 4.327 5.29 6.458 1.623 2 3.282 3.932 4.872 5.935 2.604 3.287 2.213 7.599-.873 10.166-3.085 2.567-7.176 2.048-9.895-1.24-3.588-4.303-7.108-8.65-10.66-12.977-.367-.444-.75-.872-1.328-1.54-.08.672-.167 1.06-.167 1.448 0 2.935.024 5.87 0 8.798.016 3.762-2.931 6.865-6.678 7.03-3.703.145-6.817-2.679-7.176-6.514-.02-.212-.036-.428-.036-.64 0-11.266-.04-22.531 0-33.797.02-4.087 2.883-7.046 6.67-7.17 1.86-.096 3.679.571 5.038 1.848 1.36 1.277 2.143 3.054 2.17 4.922.072 3.352 0 6.707 0 10.058l.395.212zm-10.19 8.05V10.138c0-2.24 1.045-3.871 2.93-4.187.962-.164 2.026.292 3.05.436.332.026.666.026.997 0-.028-.344.072-.832-.111-1-.654-.6-1.336-1.28-2.137-1.58-3.31-1.24-6.558.8-7.033 4.343-.043.425-.06.853-.047 1.28V42.1c0 1.783.37 3.407 1.79 4.598.259.216.745.156 1.128.228.045-.338.057-.68.036-1.02-.18-1.14-.562-2.275-.578-3.415-.064-5.243-.028-10.474-.024-15.697zm9.752-5.782l-.319-.54-1.272.54c.24.444.4 1 .73 1.315 1.375 1.244 3.377.944 4.74-.711 3.851-4.688 7.67-9.403 11.518-14.094 1.503-1.831 3.073-2.187 5.067-1.3.462.128.94.19 1.419.185-.195-.496-.267-1.116-.61-1.472-2.249-2.3-5.697-1.96-7.93.772-3.743 4.57-7.43 9.198-11.202 13.733-.546.656-1.411 1.048-2.14 1.564v.008zm2.631 9.706c-.255.148-.574.24-.578.348-.054.341.001.692.16 1 .73.983 1.527 1.919 2.304 2.863 3.145 3.831 6.279 7.67 9.468 11.465.303.36.957.424 1.448.628-.084-.464 0-1.052-.272-1.371-3.787-4.682-7.6-9.348-11.441-13.998-.337-.343-.701-.659-1.089-.943v.008zM68.037 20.58c0 3.739-.02 7.478 0 11.197.023 3.82 2.703 6.615 6.318 6.647 3.616.032 6.38-2.723 6.403-6.555.052-7.746-.036-15.488.044-23.23-.02-2.434 1.237-4.7 3.309-5.966 2.071-1.267 4.653-1.35 6.801-.218 2.42 1.26 3.783 3.344 3.795 6.063.036 7.999.272 16.037-.167 24.023-.574 10.502-9.54 18.6-19.973 18.665-10.433.063-19.59-7.915-20.229-18.397-.498-8.142-.31-16.332-.167-24.499.068-4.019 3.317-6.75 7.176-6.63 3.791.12 6.638 3.143 6.674 7.166.04 3.951.012 7.835.016 11.734zm14.44-.064v6.238c0 2.08.147 4.288-.092 6.4-.694 6.038-7.436 8.97-12.618 5.558-.399-.268-1.009-.232-1.52-.34.208.488.292 1.1.643 1.44 2.288 2.211 5.039 3.14 8.184 2.555 4.625-.86 7.639-4.527 7.679-9.434.056-7.31 0-14.617.024-21.923-.021-.64.012-1.279.1-1.912.478-2.715 3.033-4.023 5.58-2.94.447.193 1.013.105 1.524.149-.224-.496-.323-1.124-.69-1.46-1.595-1.456-3.477-1.864-5.47-1.028-2.023.743-3.35 2.695-3.3 4.855-.085 3.943-.045 7.895-.045 11.842zm-24.272.88c0-3.84-.04-7.683 0-11.522.044-3.091 2.819-4.899 5.518-3.72.447.197 1.02.1 1.535.137-.227-.492-.331-1.112-.694-1.452-1.594-1.488-3.476-1.856-5.462-.992-2.097.916-3.189 2.648-3.189 4.935-.032 7.523-.092 15.05.028 22.571.076 4.772 1.93 8.923 5.207 12.398.35.368 1.036.4 1.57.604-.167-.492-.219-1.08-.522-1.464-2.64-3.268-4.053-7.363-3.99-11.57v-9.925zM142.48 51.221c-14.978.1-26.444-12.797-25-28.15 1.594-17.076 19.494-27.674 34.994-20.584 2.55 1.198 4.865 2.848 6.83 4.871 3.588 3.696 2.212 9.53-2.349 10.962-2.416.76-4.624.22-6.586-1.364-.208-.165-.397-.353-.566-.56-5.82-7.026-14.296-4.319-17.194 3.496-1.958 5.279-1.547 10.426 1.814 15.073 3.807 5.259 10.297 5.623 14.695.86 1.554-1.684 3.253-2.868 5.62-2.908 4.912-.08 7.974 4.555 5.949 9.114-1.196 2.716-3.437 4.447-5.853 5.955-3.452 2.152-7.634 3.203-12.354 3.235zm-23.378-23.81c0 4.666 2.232 10.225 6.618 14.9.367.4 1.02.516 1.543.768-.133-.541-.294-1.075-.483-1.6-.167-.271-.365-.522-.59-.747-5.434-7.459-6.494-15.513-2.476-23.824 3.963-8.198 10.737-12.46 19.934-12.505 4.732-.074 9.336 1.544 12.988 4.563.4.308.993.332 1.495.484-.187-.524-.219-1.224-.586-1.54-1.167-1.088-2.444-2.052-3.81-2.875-15.637-8.69-34.438 2.4-34.633 22.375zm23.92 15.828c4.046-.06 7.176-1.784 9.688-4.703 1.3-1.504 2.85-1.928 4.732-1.276.42.073.85.08 1.271.02-.123-.428-.123-.984-.398-1.26-.477-.495-1.06-.874-1.706-1.107-2.393-.732-4.322 0-5.98 1.843-4.505 4.951-10.07 5.471-15.373 1.564-.343-.248-.893-.216-1.344-.312.136.452.144 1.032.435 1.328 2.396 2.451 5.326 3.831 8.69 3.903h-.015zM113.425 25.747c0 5.71.044 11.421 0 17.132.01 3.166-2.125 5.935-5.183 6.719-2.92.84-6.039-.396-7.598-3.012-.707-1.243-1.096-2.644-1.133-4.075-.091-11.154-.08-22.311-.036-33.465 0-4.331 2.97-7.334 7.005-7.33 4.035.004 6.92 3.067 6.949 7.378.032 5.551 0 11.102 0 16.653h-.004zm-12.163-.216v16.964c0 1.64.486 3.052 1.718 4.135.263.228.737.224 1.112.328.058-.378.077-.761.056-1.143-.172-1.144-.574-2.276-.582-3.412-.052-8.266-.028-16.536-.028-24.795 0-2.615-.048-5.23.02-7.842.08-3.047 2.886-4.799 5.61-3.6.442.193 1.012.085 1.522.117-.231-.492-.343-1.112-.714-1.456-1.43-1.458-3.624-1.847-5.465-.968-1.994.876-3.226 2.424-3.234 4.715-.015 5.651-.015 11.302-.015 16.957zM206.948 25.715V9.058c0-4.219 2.859-7.262 6.805-7.342 4.011-.08 7.113 2.935 7.137 7.198.055 11.262.055 22.525 0 33.79 0 3.782-2.588 6.618-6.112 7.086-3.423.425-6.643-1.723-7.575-5.055-.199-.829-.285-1.68-.255-2.532-.012-5.495 0-10.99 0-16.488zm1.726 0v16.504c0 1.672.4 3.2 1.667 4.335.29.26.797.26 1.232.4.032-.384.032-.77 0-1.155-.164-.988-.546-1.968-.55-2.948-.04-10.79-.04-21.578 0-32.365 0-3.88 2.416-5.495 5.98-4.083.334.07.677.087 1.016.052.012-.383-.038-.765-.147-1.132-.198-.328-.471-.602-.798-.8-1.634-1.2-3.424-1.464-5.266-.592-1.993.944-3.126 2.552-3.134 4.8-.011 5.666 0 11.317 0 16.976v.008z" transform="translate(-847 -8809) translate(88 8762) translate(759 47) translate(.74 .334)"/>
                        <path fill="#FFF" d="M26.854 2.052c4.988.072 10.417 2.303 14.918 6.73.399.38.519 1.024.77 1.544-.542-.156-1.196-.16-1.595-.492C27.305-1.44 7.722 5.727 4.717 23.207c-1.129 6.475.486 12.386 4.612 17.585.269.255.505.544.701.86.13.403.212.82.244 1.243-.399-.1-.93-.072-1.196-.324-2.59-2.484-4.553-5.55-5.73-8.946C-2.08 18.328 9.369 2.044 26.855 2.052z" transform="translate(-847 -8809) translate(88 8762) translate(759 47) translate(.74 .334)"/>
                        <path fill="#FFF" d="M40.433 26.914c-.275 1.46-.459 2.944-.857 4.368-.343 1.22-1.288 2.2-2.576 1.927-1.1-.228-2.08-1.06-3.085-1.68-.139-.207-.159-.473-.052-.7.216-.197.506-.293.797-.263 2.2.36 2.83-.06 3.102-2.28.594-4.799-.427-9.23-3.389-13.13-.19-.185-.347-.401-.466-.639-.072-.268-.092-.7.06-.828.262-.14.578-.14.84 0 .392.277.743.607 1.045.98 3.07 3.475 4.306 7.634 4.58 12.245zM26.623 43.419c-3.355-.152-6.522-1.6-8.838-4.04-.315-.327-.315-.959-.463-1.45.459.135 1.013.147 1.356.423 2.595 2.08 5.501 2.92 8.77 2.368 2.484-.4 2.87-1.016 2.328-3.456-.055-.256 0-.712.192-.8.28-.114.598-.078.845.096.63 1.052 1.455 2.096 1.682 3.248.252 1.263-.75 2.22-1.91 2.631-1.303.393-2.626.72-3.962.98zM28.03 32.877c.21.454.397.918.558 1.392.057.337.069.68.036 1.02-.327-.04-.745.032-.964-.144-1.284-1.044-2.21-2.312-1.954-4.1.207-1.649 1.365-3.02 2.952-3.498 1.588-.476 3.307.031 4.384 1.295.27.308.31.8.458 1.232-.416.068-.84.068-1.256 0-2.316-.844-4.226.232-4.214 2.803zM168.52 26.794c0 5.231-.04 10.462.025 15.693 0 1.14.398 2.276.578 3.415.021.34.01.682-.036 1.02-.399-.072-.87 0-1.128-.228-1.42-1.2-1.79-2.8-1.79-4.599V9.426c-.012-.427.004-.855.047-1.28.475-3.535 3.724-5.599 7.033-4.343.797.3 1.483.98 2.137 1.58.183.168.083.656.111 1-.331.026-.665.026-.996 0-1.025-.144-2.09-.6-3.05-.436-1.886.316-2.922 1.947-2.93 4.187-.012 5.55 0 11.102 0 16.66zM178.272 21.004c.722-.516 1.595-.908 2.14-1.572 3.772-4.547 7.46-9.162 11.203-13.733 2.233-2.732 5.681-3.072 7.93-.772.343.356.399.976.61 1.472-.48.005-.957-.057-1.42-.184-1.993-.888-3.563-.532-5.066 1.3-3.848 4.69-7.667 9.405-11.518 14.093-1.363 1.655-3.365 1.955-4.74.711-.35-.316-.49-.871-.73-1.315l1.272-.54.32.54zM180.903 30.71c.388.285.752.602 1.089.947 3.83 4.647 7.643 9.313 11.441 13.998.256.32.188.907.272 1.371-.49-.204-1.145-.268-1.448-.628-3.189-3.795-6.323-7.634-9.468-11.465-.797-.944-1.595-1.88-2.304-2.864-.159-.307-.214-.658-.16-1 .004-.12.323-.211.578-.36zM82.476 20.516c0-3.947-.04-7.899 0-11.842-.049-2.16 1.278-4.112 3.301-4.855 1.994-.836 3.883-.428 5.47 1.028.367.336.466.964.69 1.46-.51-.044-1.077.044-1.523-.148-2.532-1.084-5.087.224-5.582 2.94-.087.632-.12 1.272-.1 1.91 0 7.307.033 14.614-.023 21.924-.04 4.907-3.054 8.574-7.678 9.434-3.146.584-5.897-.344-8.185-2.555-.351-.34-.435-.952-.642-1.44.51.108 1.112.072 1.519.34 5.183 3.411 11.936.496 12.622-5.563.239-2.107.083-4.259.091-6.399.008-2.14 0-4.159 0-6.238l.04.004zM58.205 21.396v9.926c-.06 4.2 1.351 8.289 3.987 11.553.303.4.355.972.522 1.464-.534-.192-1.22-.236-1.57-.604-3.277-3.46-5.131-7.598-5.207-12.397-.12-7.523-.06-15.05-.028-22.572 0-2.287 1.096-4.019 3.19-4.935 1.993-.864 3.874-.496 5.461.992.363.34.467.96.694 1.452-.514-.036-1.088.06-1.535-.136-2.699-1.18-5.474.628-5.518 3.719-.047 3.855.004 7.698.004 11.538zM119.102 27.41c.195-19.976 18.996-31.065 34.62-22.395 1.367.823 2.644 1.787 3.811 2.875.367.316.4 1.016.586 1.54-.502-.152-1.116-.176-1.495-.484-3.654-3.014-8.258-4.625-12.988-4.547-9.17.044-15.947 4.307-19.934 12.505-4.018 8.31-2.958 16.365 2.476 23.824.225.225.423.476.59.747.189.525.35 1.059.483 1.6-.523-.252-1.196-.376-1.543-.768-4.374-4.67-6.586-10.23-6.606-14.897zM143.038 43.239c-3.365-.072-6.28-1.452-8.695-3.903-.291-.296-.3-.876-.435-1.328.45.096 1.001.064 1.344.312 5.302 3.907 10.868 3.387 15.373-1.564 1.678-1.843 3.615-2.575 5.98-1.843.646.233 1.23.612 1.706 1.108.275.275.275.831.398 1.26-.422.059-.851.052-1.271-.02-1.882-.653-3.433-.229-4.732 1.275-2.504 2.92-5.622 4.655-9.668 4.703zM101.262 25.53V8.57c0-2.291 1.235-3.839 3.233-4.715 1.841-.879 4.035-.49 5.465.968.371.344.483.964.714 1.456-.51-.032-1.08.076-1.523-.116-2.723-1.2-5.53.548-5.61 3.599-.067 2.611-.019 5.227-.019 7.842 0 8.267-.024 16.537.028 24.795 0 1.136.399 2.268.582 3.412.02.382.002.765-.056 1.143-.375-.104-.85-.1-1.112-.328-1.232-1.083-1.722-2.495-1.718-4.135.016-5.65.016-11.297.016-16.96zM208.674 25.707V8.727c0-2.26 1.14-3.868 3.134-4.8 1.842-.872 3.632-.616 5.266.592.327.198.6.472.798.8.11.367.159.749.147 1.132-.34.035-.682.018-1.016-.052-3.588-1.412-5.98.204-5.98 4.083v32.365c0 .98.398 1.96.55 2.948.032.384.032.77 0 1.155-.419-.12-.941-.12-1.232-.4-1.284-1.14-1.67-2.663-1.667-4.335.008-5.507 0-11.021 0-16.508z" transform="translate(-847 -8809) translate(88 8762) translate(759 47) translate(.74 .334)"/>
                    </g>
                </g>
            </g>
        </g>
    </g>
</svg>
