<svg xmlns="http://www.w3.org/2000/svg" width="48" height="48" viewBox="0 0 48 48">
    <g fill="none" fill-rule="evenodd">
        <g fill="#FB3640" fill-rule="nonzero">
            <path d="M807 5857c13.255 0 24-10.745 24-24s-10.745-24-24-24-24 10.745-24 24 10.745 24 24 24zm0-46c12.15 0 22 9.85 22 22s-9.85 22-22 22-22-9.85-22-22 9.85-22 22-22zm0 4c-.552 0-1 .448-1 1v17c0 .265.105.52.293.707l11 11c.39.39 1.024.39 1.414 0 .39-.39.39-1.024 0-1.414L808 5832.585V5816c0-.552-.448-1-1-1z" transform="translate(-783 -5809)"/>
        </g>
    </g>
</svg>
