<svg xmlns="http://www.w3.org/2000/svg" width="444" height="105" viewBox="0 0 444 105">
    <g fill="none" fill-rule="evenodd">
        <g fill="#7C8497" fill-rule="nonzero">
            <g>
                <path d="M122.933 24h4.287v52.157h-4.287V24zm-4.76 33.619c0 11.644-6.398 19.381-15.997 19.381-9.739 0-16.209-7.66-16.209-19.381 0-11.875 6.398-19.46 16.281-19.46 9.738 0 15.924 7.585 15.924 19.46zm-27.54.075c0 8.964 4.79 15.67 11.474 15.67 6.681 0 11.402-6.706 11.402-15.745 0-9.118-4.65-15.826-11.333-15.826-6.967 0-11.543 6.556-11.543 15.901zm118.418-.075c0 11.644-6.396 19.381-15.997 19.381-9.74 0-16.21-7.66-16.21-19.381 0-11.875 6.4-19.46 16.282-19.46 9.74 0 15.925 7.585 15.925 19.46zm-27.54.075c0 8.964 4.79 15.67 11.474 15.67 6.681 0 11.402-6.706 11.402-15.745 0-9.118-4.65-15.826-11.333-15.826-6.969 0-11.543 6.556-11.543 15.901zm-98.75-.075C82.76 69.263 76.36 77 66.764 77c-9.74 0-16.21-7.66-16.21-19.381 0-11.875 6.398-19.46 16.28-19.46 9.74 0 15.925 7.585 15.925 19.46zm-27.54.075c0 8.964 4.79 15.67 11.473 15.67 6.683 0 11.403-6.706 11.403-15.745 0-9.118-4.651-15.826-11.332-15.826-6.968 0-11.543 6.556-11.543 15.901zm201.082-18.616v1.764c-.076 1.61 0 3.293-.219 4.902 2.41-4.596 6.72-7.201 11.765-7.201 8.254 0 11.216 6.052 11.65 13.79.15 1.764.224 4.751.224 6.51v17.315h-4.277V58.844c0-2.144-.077-5.77-.215-7.53-.514-5.904-3.436-9.118-8.183-9.118-3.88 0-7.458 2.526-9.361 6.51-.725 1.458-1.02 2.912-1.238 6.055-.076 1.148-.146 3.473-.146 4.083v17.314h-4.253V24h4.253v15.078zm46.627 4.343c-2.88-.983-4.24-1.269-7.11-1.383-4.268-.173-7.32 2.557-7.32 5.698 0 7.66 17.5 6.818 17.5 18.617 0 6.204-5.198 10.493-12.811 10.493-3.208 0-5.91-.534-9.117-1.84l.306-4.197c3.205 1.76 5.674 2.411 8.524 2.411 4.843 0 8.4-3.19 8.4-6.867 0-8.889-17.085-7.357-17.085-18.541 0-5.744 4.559-9.534 11.673-9.422 2.747.044 4.037.12 7.376 1.269l-.336 3.762zm-146.998-4.48s5.207 21.05 6.293 25.98l1.304 5.923s.81-3.52 1.459-5.917c1.342-4.962 7.286-25.985 7.286-25.985h4.597l-10.847 37.18h-5.05s-5.705-24.56-6.373-27.581c-.335-1.517-.801-3.826-.801-3.826s-.465 2.31-.803 3.826c-.669 3.02-6.372 27.58-6.372 27.58h-5.053l-10.845-37.18h4.597s5.946 21.025 7.289 25.986c.647 2.396 1.456 5.917 1.456 5.917l1.304-5.923c1.087-4.93 6.292-25.98 6.292-25.98h4.267zM27.48 33.316s6.998 25.336 8.178 29.711c.66 2.446 1.695 6.755 1.695 6.755s.914-4.316 1.527-6.778c1.083-4.34 7.632-29.688 7.632-29.688h4.453l-11.099 42.83H35s-8.148-30.99-8.54-32.575c-.39-1.584-.977-4.64-.977-4.64s-.586 3.055-.979 4.64c-.388 1.585-8.537 32.576-8.537 32.576h-4.868L0 33.317h4.454s6.549 25.347 7.63 29.687c.615 2.463 1.528 6.778 1.528 6.778s1.037-4.31 1.696-6.755c1.18-4.376 8.18-29.71 8.18-29.71h3.992zm186.19 42.84v-37.15h3.638V47.5s2.029-7.902 13.33-8.483c1.573-.082 3.621-.034 3.621-.034V29.64l4.249-1.647v11h8.73v3.767h-8.73v22.582c0 5.328 1.676 7.183 5.335 7.183 2.028 0 3.699-.747 3.699-.747l.452 3.671s-2.116.688-4.353.688c-1.153 0-4.56.163-6.893-2.18-1.56-1.567-2.489-4.106-2.489-8.826 0-4.313.007-22.523.001-22.523-1.48-.01-4.663-.186-7.243.483-3.45.9-9.094 4.461-9.094 13.349v19.717h-4.254z" transform="translate(-1235 -10137) translate(1235 10137)"/>
                <g>
                    <path d="M79.905 88.52c-2.613 0-5.082-.322-7.407-.916-3.838 5.286-8.788 9.85-14.527 12.986 5.07 2.764 10.76 4.403 16.822 4.403 23.247 0 39.073-24.223 40.947-44.808-.738 2.725-5.526 28.336-35.835 28.336z" transform="translate(-1235 -10137) translate(1235 10137) translate(328)"/>
                    <path d="M85.689 24.164c-11.183 0-16.566 6.5-16.566 6.5 11.543 1.17 25.724 9.327 25.724 26.222 0 16.408-10.735 23.862-19.51 26.353-.867 1.505-1.815 2.962-2.84 4.365 2.326.594 4.795.917 7.408.917 30.309 0 35.097-25.611 35.836-28.336.127-1.354.19-2.714.188-4.074 0-23.095-17.606-31.947-30.24-31.947zM36.044 88.52c6.434 0 12.058-1.967 16.555-5.122-1.541.462-3.435.841-5.343.841-8.557 0-26.154-6.345-26.154-27.353 0-16.896 14.181-25.051 25.724-26.221 0 0-5.383-6.5-16.565-6.5-12.635 0-30.242 8.85-30.242 31.946 0 1.34.058 2.693.188 4.074.738 2.747 5.435 28.336 35.837 28.336z" transform="translate(-1235 -10137) translate(1235 10137) translate(328)"/>
                    <path d="M47.256 84.24c1.907 0 3.803-.38 5.344-.842h.003c2.073-1.45 3.903-3.166 5.466-5.04v-.002c-1.067-1.342-6.024-8.06-6.024-17.048 0-8.405 4.497-11.994 5.982-12.952l-.004-.004c-3.087-2.304-6.567-2.971-8.545-2.971-3.19 0-11.804 2.188-13.836 12.04l.001-.009-.006.03c-.073.392-.138.785-.195 1.18-.206 1.643-.324 3.46-.324 5.45 0 7.906 3.36 14.973 5.984 19.304 2.277.599 4.409.863 6.154.863z" transform="translate(-1235 -10137) translate(1235 10137) translate(328)"/>
                    <path d="M58.135 37.579c-14.04 0-20.712 10.338-22.494 19.842 2.032-9.853 10.647-12.041 13.836-12.041 1.978 0 5.458.667 8.545 2.972.002.001.004.001.004.003 3.367 2.51 6.268 6.759 6.268 13.537 0 5.777-2.245 11.69-6.226 16.463v.002c-4.97 5.975-12.637 10.163-22.025 10.163C5.641 88.52.945 62.93.207 60.184c1.876 20.585 17.699 44.808 40.95 44.808 22.7 0 40.047-22.951 40.047-42.17 0-13.329-7.55-25.243-23.07-25.243zM58.556 29.732s-4.846-4.662-5.183-11.017C53.127 14.09 55 7.014 62.312 3.09c17.112-9.172 31.983 4.17 30.26 12.815 0 0-12.746-5.804-24.48 1.141-8.632 5.107-9.536 12.687-9.536 12.687z" transform="translate(-1235 -10137) translate(1235 10137) translate(328)"/>
                </g>
            </g>
        </g>
    </g>
</svg>
